<svg xmlns="http://www.w3.org/2000/svg" width="512" height="300"><defs><clipPath id="a"><path d="M0 0h512v300H0z"/></clipPath></defs><g clip-path="url(#a)"><path fill="#4094e3" d="M0 0h512v300H0z" data-name="Rectangle 13"/><path fill="#fff" d="M0 100.002h512v100.002H0z" data-name="Rectangle 14"/><g data-name="Group 109" transform="translate(16)"><path fill="#f6b40e" stroke="#85340a" stroke-width="1.112" d="m238.104 150.786 17.072 37.2s.294.711.768.515.179-.907.179-.907l-14.229-38.374m-.408 14.472c-.208 5.657 3.272 8.768 2.817 13.819s2.32 7.908 2.964 9.872-.7 3.139-.119 3.419 1.842-1.272 1.43-4.065-2.532-3.622-2.034-9.792-2.524-7.607-1.788-13.235"/><path fill="#f6b40e" stroke="#85340a" stroke-width="1.112" d="m237.948 150 1.537 40.901s0 .77.512.77.513-.77.513-.77L242.05 150m-5.915 13.214c-2.357 5.147-.333 9.352-2.685 13.845s-.884 8.195-1.041 10.255-1.848 2.633-1.419 3.114 2.189-.47 2.877-3.209-.955-4.311 1.869-9.826.58-7.993 3.413-12.911" data-name="Path 759"/><path fill="#f6b40e" stroke="#85340a" stroke-width="1.112" d="m238.104 149.216-14.233 38.376s-.295.71.18.907.767-.514.767-.514l17.077-37.198m-10.522 9.944c-4.147 3.853-3.887 8.513-7.78 11.764s-3.952 7.233-4.886 9.076-2.714 1.725-2.502 2.334 2.202.403 3.886-1.864.768-4.348 5.486-8.362 3.595-7.163 8.095-10.623" data-name="Path 760"/><path fill="#f6b40e" stroke="#85340a" stroke-width="1.112" d="m238.548 148.549-27.836 30.008s-.544.544-.182.907.907-.182.907-.182l30.012-27.832m-13.527 5.162c-5.306 1.972-6.849 6.377-11.689 7.89s-6.419 5.17-7.987 6.516-3.168.555-3.205 1.199 1.88 1.215 4.303-.235 2.374-3.724 8.27-5.627 6.062-5.242 11.543-6.716" data-name="Path 761"/><path fill="#85340a" d="M242.586 164.646c.272 5.432 3.352 7.838 2.747 12.788 1.328-3.915-1.874-6.95-1.692-12.732m-4.589-14.254 11.692 25.546-9.8-26.332"/><path fill="#85340a" d="M236.785 164.52c-1.828 5.123.097 8.525-2.356 12.867 2.725-3.11.928-7.138 3.31-12.41m1.214-14.926 1.026 28.076 1.026-28.077" data-name="Path 762"/><path fill="#85340a" d="M231.473 162.186c-3.649 4.034-3.172 7.913-7.1 10.985 3.707-1.83 3.589-6.24 7.806-10.2m6.834-13.323-9.796 26.331 11.692-25.547" data-name="Path 763"/><path fill="#85340a" d="M227.457 157.994c-4.914 2.33-5.959 6.096-10.763 7.432 4.125-.272 5.703-4.391 11.115-6.436m11.413-9.694-19.127 20.578 20.578-19.128" data-name="Path 764"/><g data-name="Group 106"><path fill="#f6b40e" stroke="#85340a" stroke-width="1.112" d="m239.214 148.104-37.2 17.072s-.711.294-.515.768.907.179.907.179l38.378-14.228m-14.472-.408c-5.657-.208-8.768 3.271-13.819 2.817s-7.909 2.32-9.873 2.963-3.139-.7-3.419-.119 1.272 1.842 4.065 1.43 3.618-2.532 9.793-2.034 7.607-2.523 13.235-1.788" data-name="ray1"/><path fill="#f6b40e" stroke="#85340a" stroke-width="1.112" d="m240 147.948-40.901 1.537s-.77 0-.77.512.77.513.77.513L240 152.05m-13.214-5.915c-5.147-2.357-9.352-.333-13.845-2.685s-8.195-.884-10.255-1.041-2.633-1.848-3.114-1.419.47 2.189 3.209 2.877 4.311-.955 9.826 1.869 7.993.58 12.911 3.413" data-name="Path 765"/><path fill="#f6b40e" stroke="#85340a" stroke-width="1.112" d="m240.784 148.104-38.376-14.233s-.71-.295-.907.18.514.767.514.767l37.198 17.077m-9.944-10.522c-3.853-4.147-8.513-3.887-11.764-7.78s-7.233-3.952-9.076-4.886-1.725-2.714-2.334-2.502-.403 2.202 1.864 3.886 4.348.768 8.362 5.486 7.163 3.595 10.623 8.095" data-name="Path 766"/><path fill="#f6b40e" stroke="#85340a" stroke-width="1.112" d="m241.451 148.548-30.008-27.836s-.544-.544-.907-.182.182.907.182.907l27.832 30.012m-5.162-13.527c-1.972-5.306-6.377-6.849-7.89-11.689s-5.17-6.419-6.516-7.987-.555-3.168-1.199-3.205-1.215 1.88.235 4.303 3.724 2.374 5.627 8.27 5.242 6.062 6.716 11.543" data-name="Path 767"/><path fill="#85340a" d="M225.354 152.586c-5.432.272-7.838 3.352-12.788 2.747 3.915 1.328 6.95-1.874 12.732-1.692m14.254-4.589-25.546 11.692 26.332-9.797" data-name="ray2"/><path fill="#85340a" d="M225.48 146.785c-5.123-1.828-8.525.097-12.867-2.356 3.11 2.725 7.138.928 12.41 3.31m14.926 1.214-28.076 1.026 28.077 1.026" data-name="Path 768"/><path fill="#85340a" d="M227.814 141.473c-4.034-3.649-7.913-3.172-10.985-7.1 1.83 3.707 6.24 3.589 10.2 7.806m13.323 6.834-26.331-9.796 25.547 11.692" data-name="Path 769"/><path fill="#85340a" d="M232.006 137.457c-2.33-4.914-6.096-5.959-7.432-10.763.272 4.125 4.391 5.703 6.436 11.115m9.694 11.413-20.578-19.127 19.128 20.578" data-name="Path 770"/></g><g data-name="Group 107"><path fill="#f6b40e" stroke="#85340a" stroke-width="1.112" d="m241.896 149.214-17.072-37.2s-.294-.711-.768-.515-.179.907-.179.907l14.228 38.378m.408-14.472c.208-5.657-3.271-8.768-2.817-13.819s-2.32-7.909-2.963-9.873.7-3.139.119-3.419-1.842 1.272-1.43 4.065 2.532 3.618 2.034 9.793 2.523 7.607 1.788 13.235" data-name="ray1"/><path fill="#f6b40e" stroke="#85340a" stroke-width="1.112" d="m242.052 150-1.537-40.901s0-.77-.512-.77-.513.77-.513.77L237.95 150m5.915-13.214c2.357-5.147.333-9.352 2.685-13.845s.884-8.195 1.041-10.255 1.848-2.633 1.419-3.114-2.189.47-2.877 3.209.955 4.311-1.869 9.826-.58 7.993-3.413 12.911" data-name="Path 771"/><path fill="#f6b40e" stroke="#85340a" stroke-width="1.112" d="m241.896 150.784 14.233-38.376s.295-.71-.18-.907-.767.514-.767.514l-17.077 37.198m10.522-9.944c4.147-3.853 3.887-8.513 7.78-11.764s3.952-7.233 4.886-9.076 2.714-1.725 2.502-2.334-2.202-.403-3.886 1.864-.768 4.348-5.486 8.362-3.595 7.163-8.095 10.623" data-name="Path 772"/><path fill="#f6b40e" stroke="#85340a" stroke-width="1.112" d="m241.452 151.451 27.836-30.008s.544-.544.182-.907-.907.182-.907.182l-30.012 27.832m13.527-5.162c5.306-1.972 6.849-6.377 11.689-7.89s6.419-5.17 7.987-6.516 3.168-.555 3.205-1.199-1.88-1.215-4.303.235-2.374 3.724-8.27 5.627-6.062 5.242-11.543 6.716" data-name="Path 773"/><path fill="#85340a" d="M237.414 135.354c-.272-5.432-3.352-7.838-2.747-12.788-1.328 3.915 1.874 6.95 1.692 12.732m4.589 14.254-11.692-25.546 9.797 26.332" data-name="ray2"/><path fill="#85340a" d="M243.215 135.48c1.828-5.123-.097-8.525 2.356-12.867-2.725 3.11-.928 7.138-3.31 12.41m-1.214 14.926-1.026-28.076-1.026 28.077" data-name="Path 774"/><path fill="#85340a" d="M248.527 137.814c3.649-4.034 3.172-7.913 7.1-10.985-3.707 1.83-3.589 6.24-7.806 10.2m-6.834 13.323 9.796-26.331-11.692 25.547" data-name="Path 775"/><path fill="#85340a" d="M252.543 142.006c4.914-2.33 5.959-6.096 10.763-7.432-4.125.272-5.703 4.391-11.115 6.436m-11.413 9.694 19.127-20.578-20.578 19.128" data-name="Path 776"/></g><g data-name="Group 108"><path fill="#f6b40e" stroke="#85340a" stroke-width="1.112" d="m240.786 151.896 37.2-17.072s.711-.294.515-.768-.907-.179-.907-.179l-38.378 14.228m14.472.408c5.657.208 8.768-3.271 13.819-2.817s7.909-2.32 9.873-2.963 3.139.7 3.419.119-1.272-1.842-4.065-1.43-3.618 2.532-9.793 2.034-7.607 2.523-13.235 1.788" data-name="ray1"/><path fill="#f6b40e" stroke="#85340a" stroke-width="1.112" d="m240 152.052 40.901-1.537s.77 0 .77-.512-.77-.513-.77-.513L240 147.95m13.214 5.915c5.147 2.357 9.352.333 13.845 2.685s8.195.884 10.255 1.041 2.633 1.848 3.114 1.419-.47-2.189-3.209-2.877-4.311.955-9.826-1.869-7.993-.58-12.911-3.413" data-name="Path 777"/><path fill="#f6b40e" stroke="#85340a" stroke-width="1.112" d="m239.216 151.896 38.376 14.233s.71.295.907-.18-.514-.767-.514-.767l-37.198-17.077m9.944 10.522c3.853 4.147 8.513 3.887 11.764 7.78s7.233 3.952 9.076 4.886 1.725 2.714 2.334 2.502.403-2.202-1.864-3.886-4.348-.768-8.362-5.486-7.163-3.595-10.623-8.095" data-name="Path 778"/><path fill="#f6b40e" stroke="#85340a" stroke-width="1.112" d="m238.549 151.452 30.008 27.836s.544.544.907.182-.182-.907-.182-.907l-27.832-30.012m5.162 13.527c1.972 5.306 6.377 6.849 7.89 11.689s5.17 6.419 6.516 7.987.555 3.168 1.199 3.205 1.215-1.88-.235-4.303-3.724-2.374-5.627-8.27-5.242-6.062-6.716-11.543" data-name="Path 779"/><path fill="#85340a" d="M254.646 147.414c5.432-.272 7.838-3.352 12.788-2.747-3.915-1.328-6.95 1.874-12.732 1.692m-14.254 4.589 25.546-11.692-26.332 9.797" data-name="ray2"/><path fill="#85340a" d="M254.52 153.215c5.123 1.828 8.525-.097 12.867 2.356-3.11-2.725-7.138-.928-12.41-3.31m-14.926-1.214 28.076-1.026-28.077-1.026" data-name="Path 780"/><path fill="#85340a" d="M252.186 158.527c4.034 3.649 7.913 3.172 10.985 7.1-1.83-3.707-6.24-3.589-10.2-7.806m-13.323-6.834 26.331 9.796-25.547-11.692" data-name="Path 781"/><path fill="#85340a" d="M247.994 162.543c2.33 4.914 6.096 5.959 7.432 10.763-.272-4.125-4.391-5.703-6.436-11.115m-9.694-11.413 20.578 19.127-19.128-20.578" data-name="Path 782"/></g><circle cx="16.667" cy="16.667" r="16.667" fill="#f6b40e" stroke="#85340a" stroke-width="1.5" data-name="Ellipse 125" transform="translate(223.333 133.333)"/><path fill="#843511" d="M245.682 146.436a3.3 3.3 0 0 0-2.869 1.519c1.282 1.154 4.114 1.279 6.037-.131a4.4 4.4 0 0 0-3.169-1.387Zm-.019.262c1.108-.02 2.143.489 2.287.994a3.381 3.381 0 0 1-4.612.262 2.7 2.7 0 0 1 2.325-1.256Z"/><path fill="#85340a" d="M245.898 145.644a3.4 3.4 0 0 0-2.82 1.026 3.337 3.337 0 0 1-1.282.641c-.125.128 0 .512.256.384a7.353 7.353 0 0 0 1.538-1.026 3.2 3.2 0 0 1 2.308-.64c2.307 0 3.589 1.922 3.845 1.794s-1.282-2.18-3.846-2.18Z" data-name="Path 783"/><path fill="#85340a" d="M250.512 146.412c-2.949-2.564-6.666-2.949-8.718-1.025a5.025 5.025 0 0 0-.956 2.141 6.2 6.2 0 0 0 1.342 4.654.964.964 0 0 0-.514.256 9.126 9.126 0 0 1-1.044-5.847 8.289 8.289 0 0 1 .4-1.461c2.822-2.308 6.668-2.564 9.49 1.282Z" data-name="Path 784"/><circle cx="1.154" cy="1.154" r="1.154" fill="#85340a" data-name="Ellipse 126" transform="translate(244.487 146.536)"/><path fill="#85340a" d="M248.976 148.464c-2.18 1.667-4.359 1.538-5.641.769s-1.282-1.025-1.026-1.025.512.256 1.538.77 2.564.512 5.129-.514Z" data-name="Path 785"/><path fill="#85340a" d="M237.45 152.304a1.154 1.154 0 0 0 .225 2.287 1.134 1.134 0 0 0 .938-.488 2.434 2.434 0 0 0 1.388.375h.15a2.435 2.435 0 0 0 1.388-.375 1.134 1.134 0 0 0 .938.488 1.154 1.154 0 0 0 .225-2.287.772.772 0 1 1-1.031.769 1.747 1.747 0 0 1-3.187 0 .769.769 0 1 1-1.031-.769Z" data-name="Path 786"/><path fill="#85340a" d="M238.704 155.718c-1.283 0-1.79 1.162-2.944 1.931a23.129 23.129 0 0 0 2.044-1.275c.9-.513 1.663.112 2.175.112h.019c.512 0 1.277-.625 2.175-.112a23.008 23.008 0 0 0 2.063 1.275c-1.154-.769-1.68-1.931-2.963-1.931a3.442 3.442 0 0 0-1.275.394h-.019a3.434 3.434 0 0 0-1.275-.394Z" data-name="Path 787"/><path fill="#85340a" d="M238.277 157.236a8.8 8.8 0 0 0-2.138.412c2.308-.513 2.818.263 3.844.263h.019c1.026 0 1.535-.775 3.844-.263a6.838 6.838 0 0 0-3.844-.263h-.025a13.812 13.812 0 0 0-1.706-.15Z" data-name="Path 788"/><path fill="#85340a" d="M236.25 157.632c-.149 0-.311 0-.488.019 2.693.257 1.4 1.8 4.219 1.8H240c2.82 0 1.545-1.543 4.238-1.8-2.82-.256-1.929 1.406-4.238 1.406h-.019c-2.165 0-1.5-1.453-3.731-1.425Z" data-name="Path 789"/><path fill="#85340a" d="M242.31 161.796a2.308 2.308 0 1 0-4.616 0 2.372 2.372 0 0 1 4.616 0Z" data-name="Path 790"/><path fill="#85340a" d="M229.638 146.412c2.949-2.564 6.666-2.949 8.718-1.025a5.025 5.025 0 0 1 .956 2.142 6.2 6.2 0 0 1-1.342 4.654.964.964 0 0 1 .514.256 9.125 9.125 0 0 0 1.044-5.847 8.287 8.287 0 0 0-.4-1.461c-2.82-2.307-6.666-2.564-9.487 1.283Z"/><path fill="#85340a" d="M234.252 145.644a3.4 3.4 0 0 1 2.82 1.026 3.338 3.338 0 0 0 1.282.641c.127.129 0 .512-.256.384a7.354 7.354 0 0 1-1.538-1.025 3.2 3.2 0 0 0-2.308-.641c-2.308 0-3.59 1.923-3.846 1.794s1.282-2.18 3.846-2.18Z"/><path fill="#843511" d="M234.174 146.436a3.3 3.3 0 0 0-2.869 1.519c1.282 1.154 4.114 1.279 6.037-.131a4.4 4.4 0 0 0-3.169-1.387Zm-.019.262c1.108-.02 2.143.489 2.287.994a3.381 3.381 0 0 1-4.612.262 2.7 2.7 0 0 1 2.325-1.256Z" data-name="Path 791"/><circle cx="1.154" cy="1.154" r="1.154" fill="#85340a" transform="translate(233.17 146.536)"/><path fill="#85340a" d="M231.174 148.464c2.18 1.667 4.359 1.539 5.641.769s1.282-1.025 1.026-1.025-.512.256-1.538.769-2.564.514-5.128-.512Z"/></g></g></svg>