<svg xmlns="http://www.w3.org/2000/svg" xmlns:xlink="http://www.w3.org/1999/xlink" width="512" height="300" viewBox="0 0 512 300"><defs><clipPath id="b"><rect width="512" height="300"/></clipPath></defs><g id="a" clip-path="url(#b)"><rect width="512" height="300" fill="#4094e3"/><rect width="512" height="100.002" transform="translate(0 100.002)" fill="#fff"/><g transform="translate(16)"><g transform="translate(201.551 147.948)"><path d="M396.84,250.263l17.072,37.2s.294.711.768.515.179-.907.179-.907l-14.229-38.374m-.408,14.472c-.208,5.657,3.272,8.768,2.817,13.819s2.32,7.908,2.964,9.872-.7,3.139-.119,3.419,1.842-1.272,1.43-4.065-2.532-3.622-2.034-9.792-2.524-7.607-1.788-13.235" transform="translate(-360.287 -247.425)" fill="#f6b40e" stroke="#85340a" stroke-width="1.112"/><path d="M0,1.57l17.072,37.2s.294.711.768.515.179-.907.179-.907L3.791,0M3.383,14.472C3.175,20.129,6.654,23.24,6.2,28.291S8.52,36.2,9.163,38.164s-.7,3.139-.119,3.419,1.842-1.272,1.43-4.065S7.942,33.9,8.44,27.725,5.917,20.118,6.652,14.49" transform="translate(36.998 0.601) rotate(22.5)" fill="#f6b40e" stroke="#85340a" stroke-width="1.112"/><path d="M0,1.57l17.072,37.2s.294.711.768.515.179-.907.179-.907L3.791,0M3.383,14.472C3.175,20.129,6.654,23.24,6.2,28.291S8.52,36.2,9.163,38.164s-.7,3.139-.119,3.419,1.842-1.272,1.43-4.065S7.942,33.9,8.44,27.725,5.917,20.118,6.652,14.49" transform="translate(37.663 0.158) rotate(45)" fill="#f6b40e" stroke="#85340a" stroke-width="1.112"/><path d="M0,1.57l17.072,37.2s.294.711.768.515.179-.907.179-.907L3.791,0M3.383,14.472C3.175,20.129,6.654,23.24,6.2,28.291S8.52,36.2,9.163,38.164s-.7,3.139-.119,3.419,1.842-1.272,1.43-4.065S7.942,33.9,8.44,27.725,5.917,20.118,6.652,14.49" transform="translate(38.447 0) rotate(67.5)" fill="#f6b40e" stroke="#85340a" stroke-width="1.112"/><path d="M401.954,264.421c.272,5.432,3.352,7.838,2.747,12.788,1.328-3.915-1.874-6.95-1.692-12.732m-4.589-14.254,11.692,25.546-9.8-26.332" transform="translate(-360.919 -247.723)" fill="#85340a"/><path d="M3.534,14.984c.272,5.432,3.352,7.838,2.747,12.788,1.328-3.915-1.874-6.95-1.692-12.732M0,.786,11.692,26.332,1.895,0" transform="translate(37.703 1.377) rotate(22.5)" fill="#85340a"/><path d="M3.534,14.984c.272,5.432,3.352,7.838,2.747,12.788,1.328-3.915-1.874-6.95-1.692-12.732M0,.786,11.692,26.332,1.895,0" transform="translate(38.018 1.144) rotate(45)" fill="#85340a"/><path d="M3.534,14.984c.272,5.432,3.352,7.838,2.747,12.788,1.328-3.915-1.874-6.95-1.692-12.732M0,.786,11.692,26.332,1.895,0" transform="translate(38.397 1.047) rotate(67.5)" fill="#85340a"/></g><g transform="translate(242.052 111.551) rotate(90)"><path d="M0,1.57l17.072,37.2s.294.711.768.515.179-.907.179-.907L3.791,0M3.383,14.472C3.175,20.129,6.654,23.24,6.2,28.291S8.52,36.2,9.163,38.164s-.7,3.139-.119,3.419,1.842-1.272,1.43-4.065S7.942,33.9,8.44,27.725,5.917,20.118,6.652,14.49" transform="translate(36.553 1.268)" fill="#f6b40e" stroke="#85340a" stroke-width="1.112"/><path d="M0,1.57l17.072,37.2s.294.711.768.515.179-.907.179-.907L3.791,0M3.383,14.472C3.175,20.129,6.654,23.24,6.2,28.291S8.52,36.2,9.163,38.164s-.7,3.139-.119,3.419,1.842-1.272,1.43-4.065S7.942,33.9,8.44,27.725,5.917,20.118,6.652,14.49" transform="translate(36.998 0.601) rotate(22.5)" fill="#f6b40e" stroke="#85340a" stroke-width="1.112"/><path d="M0,1.57l17.072,37.2s.294.711.768.515.179-.907.179-.907L3.791,0M3.383,14.472C3.175,20.129,6.654,23.24,6.2,28.291S8.52,36.2,9.163,38.164s-.7,3.139-.119,3.419,1.842-1.272,1.43-4.065S7.942,33.9,8.44,27.725,5.917,20.118,6.652,14.49" transform="translate(37.663 0.158) rotate(45)" fill="#f6b40e" stroke="#85340a" stroke-width="1.112"/><path d="M0,1.57l17.072,37.2s.294.711.768.515.179-.907.179-.907L3.791,0M3.383,14.472C3.175,20.129,6.654,23.24,6.2,28.291S8.52,36.2,9.163,38.164s-.7,3.139-.119,3.419,1.842-1.272,1.43-4.065S7.942,33.9,8.44,27.725,5.917,20.118,6.652,14.49" transform="translate(38.447 0) rotate(67.5)" fill="#f6b40e" stroke="#85340a" stroke-width="1.112"/><path d="M3.534,14.984c.272,5.432,3.352,7.838,2.747,12.788,1.328-3.915-1.874-6.95-1.692-12.732M0,.786,11.692,26.332,1.895,0" transform="translate(37.501 1.714)" fill="#85340a"/><path d="M3.534,14.984c.272,5.432,3.352,7.838,2.747,12.788,1.328-3.915-1.874-6.95-1.692-12.732M0,.786,11.692,26.332,1.895,0" transform="translate(37.703 1.377) rotate(22.5)" fill="#85340a"/><path d="M3.534,14.984c.272,5.432,3.352,7.838,2.747,12.788,1.328-3.915-1.874-6.95-1.692-12.732M0,.786,11.692,26.332,1.895,0" transform="translate(38.018 1.144) rotate(45)" fill="#85340a"/><path d="M3.534,14.984c.272,5.432,3.352,7.838,2.747,12.788,1.328-3.915-1.874-6.95-1.692-12.732M0,.786,11.692,26.332,1.895,0" transform="translate(38.397 1.047) rotate(67.5)" fill="#85340a"/></g><g transform="translate(278.449 152.052) rotate(180)"><path d="M0,1.57l17.072,37.2s.294.711.768.515.179-.907.179-.907L3.791,0M3.383,14.472C3.175,20.129,6.654,23.24,6.2,28.291S8.52,36.2,9.163,38.164s-.7,3.139-.119,3.419,1.842-1.272,1.43-4.065S7.942,33.9,8.44,27.725,5.917,20.118,6.652,14.49" transform="translate(36.553 1.268)" fill="#f6b40e" stroke="#85340a" stroke-width="1.112"/><path d="M0,1.57l17.072,37.2s.294.711.768.515.179-.907.179-.907L3.791,0M3.383,14.472C3.175,20.129,6.654,23.24,6.2,28.291S8.52,36.2,9.163,38.164s-.7,3.139-.119,3.419,1.842-1.272,1.43-4.065S7.942,33.9,8.44,27.725,5.917,20.118,6.652,14.49" transform="translate(36.998 0.601) rotate(22.5)" fill="#f6b40e" stroke="#85340a" stroke-width="1.112"/><path d="M0,1.57l17.072,37.2s.294.711.768.515.179-.907.179-.907L3.791,0M3.383,14.472C3.175,20.129,6.654,23.24,6.2,28.291S8.52,36.2,9.163,38.164s-.7,3.139-.119,3.419,1.842-1.272,1.43-4.065S7.942,33.9,8.44,27.725,5.917,20.118,6.652,14.49" transform="translate(37.663 0.158) rotate(45)" fill="#f6b40e" stroke="#85340a" stroke-width="1.112"/><path d="M0,1.57l17.072,37.2s.294.711.768.515.179-.907.179-.907L3.791,0M3.383,14.472C3.175,20.129,6.654,23.24,6.2,28.291S8.52,36.2,9.163,38.164s-.7,3.139-.119,3.419,1.842-1.272,1.43-4.065S7.942,33.9,8.44,27.725,5.917,20.118,6.652,14.49" transform="translate(38.447 0) rotate(67.5)" fill="#f6b40e" stroke="#85340a" stroke-width="1.112"/><path d="M3.534,14.984c.272,5.432,3.352,7.838,2.747,12.788,1.328-3.915-1.874-6.95-1.692-12.732M0,.786,11.692,26.332,1.895,0" transform="translate(37.501 1.714)" fill="#85340a"/><path d="M3.534,14.984c.272,5.432,3.352,7.838,2.747,12.788,1.328-3.915-1.874-6.95-1.692-12.732M0,.786,11.692,26.332,1.895,0" transform="translate(37.703 1.377) rotate(22.5)" fill="#85340a"/><path d="M3.534,14.984c.272,5.432,3.352,7.838,2.747,12.788,1.328-3.915-1.874-6.95-1.692-12.732M0,.786,11.692,26.332,1.895,0" transform="translate(38.018 1.144) rotate(45)" fill="#85340a"/><path d="M3.534,14.984c.272,5.432,3.352,7.838,2.747,12.788,1.328-3.915-1.874-6.95-1.692-12.732M0,.786,11.692,26.332,1.895,0" transform="translate(38.397 1.047) rotate(67.5)" fill="#85340a"/></g><g transform="translate(237.948 188.449) rotate(-90)"><path d="M0,1.57l17.072,37.2s.294.711.768.515.179-.907.179-.907L3.791,0M3.383,14.472C3.175,20.129,6.654,23.24,6.2,28.291S8.52,36.2,9.163,38.164s-.7,3.139-.119,3.419,1.842-1.272,1.43-4.065S7.942,33.9,8.44,27.725,5.917,20.118,6.652,14.49" transform="translate(36.553 1.268)" fill="#f6b40e" stroke="#85340a" stroke-width="1.112"/><path d="M0,1.57l17.072,37.2s.294.711.768.515.179-.907.179-.907L3.791,0M3.383,14.472C3.175,20.129,6.654,23.24,6.2,28.291S8.52,36.2,9.163,38.164s-.7,3.139-.119,3.419,1.842-1.272,1.43-4.065S7.942,33.9,8.44,27.725,5.917,20.118,6.652,14.49" transform="translate(36.998 0.601) rotate(22.5)" fill="#f6b40e" stroke="#85340a" stroke-width="1.112"/><path d="M0,1.57l17.072,37.2s.294.711.768.515.179-.907.179-.907L3.791,0M3.383,14.472C3.175,20.129,6.654,23.24,6.2,28.291S8.52,36.2,9.163,38.164s-.7,3.139-.119,3.419,1.842-1.272,1.43-4.065S7.942,33.9,8.44,27.725,5.917,20.118,6.652,14.49" transform="translate(37.663 0.158) rotate(45)" fill="#f6b40e" stroke="#85340a" stroke-width="1.112"/><path d="M0,1.57l17.072,37.2s.294.711.768.515.179-.907.179-.907L3.791,0M3.383,14.472C3.175,20.129,6.654,23.24,6.2,28.291S8.52,36.2,9.163,38.164s-.7,3.139-.119,3.419,1.842-1.272,1.43-4.065S7.942,33.9,8.44,27.725,5.917,20.118,6.652,14.49" transform="translate(38.447 0) rotate(67.5)" fill="#f6b40e" stroke="#85340a" stroke-width="1.112"/><path d="M3.534,14.984c.272,5.432,3.352,7.838,2.747,12.788,1.328-3.915-1.874-6.95-1.692-12.732M0,.786,11.692,26.332,1.895,0" transform="translate(37.501 1.714)" fill="#85340a"/><path d="M3.534,14.984c.272,5.432,3.352,7.838,2.747,12.788,1.328-3.915-1.874-6.95-1.692-12.732M0,.786,11.692,26.332,1.895,0" transform="translate(37.703 1.377) rotate(22.5)" fill="#85340a"/><path d="M3.534,14.984c.272,5.432,3.352,7.838,2.747,12.788,1.328-3.915-1.874-6.95-1.692-12.732M0,.786,11.692,26.332,1.895,0" transform="translate(38.018 1.144) rotate(45)" fill="#85340a"/><path d="M3.534,14.984c.272,5.432,3.352,7.838,2.747,12.788,1.328-3.915-1.874-6.95-1.692-12.732M0,.786,11.692,26.332,1.895,0" transform="translate(38.397 1.047) rotate(67.5)" fill="#85340a"/></g><circle cx="16.667" cy="16.667" r="16.667" transform="translate(223.333 133.333)" fill="#f6b40e" stroke="#85340a" stroke-width="1.5"/><path d="M407.558,244.06a3.3,3.3,0,0,0-2.869,1.519c1.282,1.154,4.114,1.279,6.037-.131a4.4,4.4,0,0,0-3.169-1.387Zm-.019.262c1.108-.02,2.143.489,2.287.994a3.381,3.381,0,0,1-4.612.262,2.7,2.7,0,0,1,2.325-1.256Z" transform="translate(-161.876 -97.624)" fill="#843511"/><path d="M3.873,2.185a3.4,3.4,0,0,0,2.82-1.026A3.337,3.337,0,0,1,7.975.518C8.1.39,7.975.006,7.719.134A7.353,7.353,0,0,0,6.181,1.16,3.2,3.2,0,0,1,3.873,1.8C1.566,1.8.284-.122.028.006s1.282,2.18,3.846,2.18Z" transform="translate(249.771 147.829) rotate(180)" fill="#85340a"/><path d="M0,6.026C2.949,8.59,6.666,8.975,8.718,7.051A5.025,5.025,0,0,0,9.674,4.91,6.2,6.2,0,0,0,8.332.256.964.964,0,0,0,8.846,0,9.126,9.126,0,0,1,9.89,5.847a8.289,8.289,0,0,1-.4,1.461C6.668,9.616,2.822,9.872,0,6.026Z" transform="translate(250.512 152.438) rotate(180)" fill="#85340a"/><circle cx="1.154" cy="1.154" r="1.154" transform="translate(244.487 146.536)" fill="#85340a"/><path d="M0,1.314C2.18-.353,4.359-.224,5.641.545S6.923,1.57,6.667,1.57,6.155,1.314,5.129.8,2.565.288,0,1.314Z" transform="translate(248.976 149.778) rotate(180)" fill="#85340a"/><path d="M395.125,253.84a1.154,1.154,0,0,0,.225,2.287,1.134,1.134,0,0,0,.938-.488,2.434,2.434,0,0,0,1.388.375c.051,0,.116,0,.15,0a2.435,2.435,0,0,0,1.388-.375,1.134,1.134,0,0,0,.938.488,1.154,1.154,0,0,0,.225-2.287.772.772,0,1,1-1.031.769,1.747,1.747,0,0,1-3.187,0,.769.769,0,1,1-1.031-.769Z" transform="translate(-157.675 -101.536)" fill="#85340a"/><path d="M395.878,259.53c-1.283,0-1.79,1.162-2.944,1.931a23.129,23.129,0,0,0,2.044-1.275c.9-.513,1.663.112,2.175.112h.019c.512,0,1.277-.625,2.175-.112a23.008,23.008,0,0,0,2.063,1.275c-1.154-.769-1.68-1.931-2.963-1.931a3.442,3.442,0,0,0-1.275.394h-.019A3.434,3.434,0,0,0,395.878,259.53Z" transform="translate(-157.174 -103.812)" fill="#85340a"/><path d="M395.7,262.051a8.8,8.8,0,0,0-2.138.412c2.308-.513,2.818.263,3.844.263h.019c1.026,0,1.535-.775,3.844-.263a6.838,6.838,0,0,0-3.844-.263H397.4a13.812,13.812,0,0,0-1.706-.15Z" transform="translate(-157.423 -104.815)" fill="#85340a"/><path d="M393.425,262.715c-.149,0-.311,0-.488.019,2.693.257,1.4,1.8,4.219,1.8h.019c2.82,0,1.545-1.543,4.238-1.8-2.82-.256-1.929,1.406-4.238,1.406h-.019c-2.165,0-1.5-1.453-3.731-1.425Z" transform="translate(-157.175 -105.083)" fill="#85340a"/><path d="M400.773,268.121a2.308,2.308,0,1,0-4.616,0,2.372,2.372,0,0,1,4.616,0Z" transform="translate(-158.463 -106.325)" fill="#85340a"/><path d="M382.73,242.043c2.949-2.564,6.666-2.949,8.718-1.025a5.025,5.025,0,0,1,.956,2.142,6.2,6.2,0,0,1-1.342,4.654.964.964,0,0,1,.514.256,9.125,9.125,0,0,0,1.044-5.847,8.287,8.287,0,0,0-.4-1.461c-2.82-2.307-6.666-2.564-9.487,1.283Z" transform="translate(-153.092 -95.631)" fill="#85340a"/><path d="M387.838,242.74a3.4,3.4,0,0,1,2.82,1.026,3.338,3.338,0,0,0,1.282.641c.127.129,0,.512-.256.384a7.354,7.354,0,0,1-1.538-1.025,3.2,3.2,0,0,0-2.308-.641c-2.308,0-3.59,1.923-3.846,1.794s1.282-2.18,3.846-2.18Z" transform="translate(-153.586 -97.096)" fill="#85340a"/><path d="M407.558,244.06a3.3,3.3,0,0,0-2.869,1.519c1.282,1.154,4.114,1.279,6.037-.131a4.4,4.4,0,0,0-3.169-1.387Zm-.019.262c1.108-.02,2.143.489,2.287.994a3.381,3.381,0,0,1-4.612.262,2.7,2.7,0,0,1,2.325-1.256Z" transform="translate(-173.384 -97.624)" fill="#843511"/><circle cx="1.154" cy="1.154" r="1.154" transform="translate(233.17 146.536)" fill="#85340a"/><path d="M385.29,247.269c2.18,1.667,4.359,1.539,5.641.769s1.282-1.025,1.026-1.025-.512.256-1.538.769-2.564.514-5.128-.512Z" transform="translate(-154.116 -98.805)" fill="#85340a"/></g></g></svg>