<svg xmlns="http://www.w3.org/2000/svg" width="512" height="300"><defs><clipPath id="a"><path d="M0 0h512v300H0z"/></clipPath></defs><g clip-path="url(#a)" data-name="australia"><path fill="#2f4ba1" d="M0 .2h512v300H0z"/><path fill="#fff" d="m134.686 183.974 7.795 24.389 23.784-9.033-14.091 21.278 21.885 12.948-25.383 2.308 3.5 25.293-17.49-18.568-17.489 18.568 3.5-25.293-25.385-2.308 21.885-12.948-14.09-21.278 23.784 9.033ZM404.107 227.835l3.7 11.542 11.29-4.315-6.7 10.137 10.493 6.223-12.092 1 1.6 12.044-8.291-8.831-8.394 8.832 1.7-12.044-12.093-1.001 10.493-6.223-6.793-10.137 11.39 4.315ZM336.705 120.633l3.8 11.643 11.289-4.316-6.7 10.137 10.393 6.122-12.092 1.1 1.7 12.044-8.39-8.83-8.294 8.832 1.7-12.044-12.094-1.101 10.393-6.122-6.693-10.138 11.29 4.316ZM404.107 47.409l3.7 11.542 11.29-4.315-6.7 10.137 10.493 6.223-12.092 1.1 1.6 12.044-8.291-8.831-8.394 8.832 1.7-12.044-12.093-1.101 10.493-6.223-6.793-10.137 11.39 4.315ZM464.032 102.653l3.7 11.542 11.29-4.315-6.7 10.137 10.393 6.223-12.092 1.1 1.7 12.044-8.291-8.831-8.394 8.832 1.7-12.044-12.093-1.101 10.393-6.223-6.693-10.137 11.29 4.315ZM431.054 156.887l3 7.227 7.695.6-5.9 5.018 1.8 7.528-6.6-4.115-6.588 4.117 1.9-7.528-5.9-5.018 7.695-.6Z"/><g data-name="Group 155"><path fill="#fff" d="M112.125.2v45.065H0v45.066h112.125V135.4H157V90.331h112.22V45.265H157V.2Z"/><path fill="#fff" d="M0 .2v15.055L239.14 135.4h30.08v-15.16L30.08.2Z"/><path fill="#fff" d="M239.14.2 0 120.24v15.16h30.08L269.22 15.255V.2Z"/><path fill="#e0193a" d="M121.119.2v54H0v27.1h121.119v54.1H148.1V81.3h121.12V54.2H148.1V.2Z"/><path fill="#e0193a" d="M159.393 45.265 249.134.2h20.086l-89.739 45.065Zm-89.74-.1L0 10.237V.2l89.74 44.965Z"/><path fill="#e0193a" d="M179.481 90.401h20.086l69.653 35.029v10.036ZM0 135.466l89.74-45.065h20.086l-89.74 45.065Z" data-name="Shape"/></g></g></svg>