<svg xmlns="http://www.w3.org/2000/svg" xmlns:xlink="http://www.w3.org/1999/xlink" width="512" height="300" viewBox="0 0 512 300"><defs><clipPath id="b"><rect width="512" height="300"/></clipPath></defs><g id="a" clip-path="url(#b)"><g transform="translate(0 -0.5)"><rect width="512" height="300" transform="translate(0 0.7)" fill="#2f4ba1"/><path d="M39.374,0l7.795,24.389,23.784-9.033L56.862,36.634,78.747,49.582,53.364,51.89l3.5,25.293L39.374,58.615,21.885,77.183l3.5-25.293L0,49.582,21.885,36.634,7.795,15.356l23.784,9.033Z" transform="translate(95.312 184.474)" fill="#fff"/><path d="M18.787,0l3.7,11.542L33.777,7.227l-6.7,10.137,10.493,6.223-12.092,1,1.6,12.044L18.787,27.8l-8.394,8.832,1.7-12.044L0,23.587l10.493-6.223L3.7,7.227,15.09,11.542Z" transform="translate(385.32 228.335)" fill="#fff"/><path d="M18.688,0l3.8,11.643L33.777,7.327l-6.7,10.137,10.393,6.122-12.092,1.1,1.7,12.044L18.688,27.9l-8.294,8.832,1.7-12.044L0,23.587l10.393-6.122L3.7,7.327,14.99,11.643Z" transform="translate(318.017 121.133)" fill="#fff"/><path d="M18.787,0l3.7,11.542L33.777,7.227l-6.7,10.137,10.493,6.223-12.092,1.1,1.6,12.044L18.787,27.9l-8.394,8.832,1.7-12.044L0,23.587l10.493-6.223L3.7,7.227,15.09,11.542Z" transform="translate(385.32 47.909)" fill="#fff"/><path d="M18.787,0l3.7,11.542L33.777,7.227l-6.7,10.137,10.393,6.223-12.092,1.1,1.7,12.044L18.787,27.9l-8.394,8.832,1.7-12.044L0,23.587l10.393-6.223L3.7,7.227,14.99,11.542Z" transform="translate(445.245 103.153)" fill="#fff"/><path d="M10.593,0l3,7.227,7.695.6-5.9,5.018,1.8,7.528-6.6-4.115L4,20.375l1.9-7.528L0,7.829l7.695-.6Z" transform="translate(420.461 157.387)" fill="#fff"/><path d="M112.125,0V45.065H0V90.131H112.125V135.2H157V90.131H269.22V45.065H157V0Z" transform="translate(0 0.7)" fill="#fff"/><path d="M0,0V15.055L239.14,135.2h30.08V120.04L30.08,0Z" transform="translate(0 0.7)" fill="#fff"/><path d="M239.14,0,0,120.04V135.2H30.08L269.22,15.055V0Z" transform="translate(0 0.7)" fill="#fff"/><path d="M121.119,0V54H0V81.1H121.119v54.1H148.1V81.1H269.22V54H148.1V0Z" transform="translate(0 0.7)" fill="#e0193a"/><path d="M159.393,45.065,249.134,0H269.22L179.481,45.065Zm-89.74-.1L0,10.037V0L89.74,44.965Z" transform="translate(0 0.7)" fill="#e0193a"/><path d="M179.481,0h20.086L269.22,35.029V45.065ZM0,45.065,89.74,0h20.086L20.086,45.065Z" transform="translate(0 90.901)" fill="#e0193a"/></g></g></svg>