<svg xmlns="http://www.w3.org/2000/svg" width="512" height="300"><defs><clipPath id="a"><path d="M0 0h512v300H0z"/></clipPath></defs><g clip-path="url(#a)" data-name="brazil"><path fill="#358142" d="M0-.305h512v300H0z"/><path fill="#fcd93a" d="m78.9 149.995 177.1 113.1 177.1-113.1L256 36.895Z"/><path fill="#2f4ba1" d="M330.7 149.995a74.7 74.7 0 1 1-74.7-74.7 74.771 74.771 0 0 1 74.7 74.7"/><path fill="#fff" d="M213.3 117.995a179.411 179.411 0 0 0-25.6 1.8 90.531 90.531 0 0 0-4 11.4 170.429 170.429 0 0 1 143.5 41 77.708 77.708 0 0 0 2.7-11.8 181.029 181.029 0 0 0-116.6-42.4"/><path fill="#3d9244" d="M191.975 128.214a3.521 3.521 0 0 1-3.275-3.119 3.584 3.584 0 0 1 .663-2.725 2.964 2.964 0 0 1 2.037-1.174 2.532 2.532 0 0 1 .439-.039 3.415 3.415 0 0 1 3.161 3.138 3.584 3.584 0 0 1-.663 2.726 2.964 2.964 0 0 1-2.037 1.174 2.782 2.782 0 0 1-.325.019Zm-.121-5.727c-.05 0-.1 0-.151.008a2.09 2.09 0 0 0-1.6 2.4 2.054 2.054 0 0 0 1.931 2.008c.055 0 .111 0 .166-.008a2.091 2.091 0 0 0 1.6-2.4 2.214 2.214 0 0 0-1.946-2.007Z"/><path fill="#3d9244" d="m198.1 127.495-.5-7.1 4.1-.3c.06-.007.12-.007.179-.007a2.247 2.247 0 0 1 2.221 2.107 2.189 2.189 0 0 1-.557 1.6 2.335 2.335 0 0 1-1.543.8l-2.8.2.2 2.6-1.3.1Zm3.756-6.016a.8.8 0 0 0-.156.015l-2.7.2.2 1.8 2.7-.2a.8.8 0 0 0 .618-.3.838.838 0 0 0 .182-.7.8.8 0 0 0-.253-.571.861.861 0 0 0-.591-.244Z" data-name="Shape"/><path fill="#3d9244" d="M204.1 127.095c-.1-1-.2-3.3-1.7-3.1l-1.9.1c2.2-.2 2.4 2.1 2.4 3.1"/><path fill="#3d9244" d="m207.1 126.995-.1-7.1 3.4-.1a3.018 3.018 0 0 1 3.1 3v1a3.147 3.147 0 0 1-.862 2.188 2.929 2.929 0 0 1-2.138.912l-3.4.1Zm1.2-5.9.1 4.5h1.9a1.931 1.931 0 0 0 1.9-2v-.6a1.931 1.931 0 0 0-2-1.9Z" data-name="Shape"/><path fill="#3d9244" d="m216.2 126.895 6.4.2v-1.3l-5.2-.2.1-1.8 4.1.1v-1.2l-4.1-.1.1-1.5 4.9.2v-1.3l-6.1-.2ZM225.2 127.295l1.2.1.4-4.9 1 5 1.1.1 1.9-4.7-.5 4.8 1.3.1.6-7.1-1.8-.1-1.8 4.7-1-5-1.8-.1ZM239.9 128.895l5.3.9.2-1.2-4.1-.7.3-1.6 3.3.6.2-1.2-3.3-.6.2-1.1 3.9.7.2-1.2-5.1-.9Z"/><path fill="#3d9244" d="m254.7 131.895-1.3-.3 2-6.8 3.9 1a2.181 2.181 0 0 1 1.363 1.012 2.233 2.233 0 0 1 .237 1.688 2.2 2.2 0 0 1-2.142 1.669 2.307 2.307 0 0 1-.558-.069l-2.8-.7-.7 2.5Zm1.4-5.6-.4 1.8 2.7.7a.981.981 0 0 0 .194.019.915.915 0 0 0 .906-.719.925.925 0 0 0-.7-1.1ZM263.4 134.295l-1.3-.4 2.2-6.7 3.9 1.2a2.385 2.385 0 0 1 1.35 1.1 2.106 2.106 0 0 1 .15 1.7 2.273 2.273 0 0 1-2.115 1.613 2.164 2.164 0 0 1-.685-.113l-2.7-.9-.8 2.5Zm1.8-5.6-.6 1.8 2.6.8a.851.851 0 0 0 .317.062.984.984 0 0 0 .883-.662.837.837 0 0 0-.038-.713 1.083 1.083 0 0 0-.562-.487l-2.6-.8Z" data-name="Shape"/><path fill="#3d9244" d="M267.9 135.695c.3-1 1-3.1-.5-3.6l-1.8-.6c2.1.7 1.5 2.8 1.1 3.8"/><path fill="#3d9244" d="M274.718 137.97a3.051 3.051 0 0 1-1.017-.175 3.024 3.024 0 0 1-1.726-1.762 4.084 4.084 0 0 1-.074-2.738 3.437 3.437 0 0 1 3.181-2.374 3.05 3.05 0 0 1 1.019.175 3.279 3.279 0 0 1 1.8 1.837 3.616 3.616 0 0 1 0 2.662 3.436 3.436 0 0 1-3.183 2.375Zm.4-5.689a2.174 2.174 0 0 0-1.917 1.515 2.137 2.137 0 0 0 1 2.8 1.574 1.574 0 0 0 .587.114 2.175 2.175 0 0 0 1.913-1.515 2.138 2.138 0 0 0-1-2.8 1.576 1.576 0 0 0-.587-.113ZM283.251 141.432a2.852 2.852 0 0 1-1.15-.238 3.035 3.035 0 0 1-1.607-1.752 3.554 3.554 0 0 1 .106-2.748 3.677 3.677 0 0 1 3.25-2.237 2.851 2.851 0 0 1 1.15.238 3.021 3.021 0 0 1 1.6 1.7 3.674 3.674 0 0 1-.1 2.8 3.677 3.677 0 0 1-3.249 2.237Zm.55-5.662a2.344 2.344 0 0 0-2 1.425 2.387 2.387 0 0 0-.072 1.822 1.7 1.7 0 0 0 .871.977 1.47 1.47 0 0 0 .6.124 2.342 2.342 0 0 0 2-1.425 2.388 2.388 0 0 0 .068-1.822 1.7 1.7 0 0 0-.871-.977 1.469 1.469 0 0 0-.597-.124Z" data-name="Shape"/><path fill="#3d9244" d="m284 138.095 2.5 1.1-.5.9-2.4-1.1Z"/><path fill="#3d9244" d="m285.5 138.795 1 .4-1.5 3.3-.9-.4Z"/><path fill="#3d9244" d="m288.6 144.195-1.2-.6 3.3-6.3 3.6 1.8a2.3 2.3 0 0 1 1 3 2.178 2.178 0 0 1-1.989 1.257 2.119 2.119 0 0 1-1.011-.257l-2.5-1.3-1.2 2.4Zm2.6-5.2-.8 1.6 2.5 1.2a1.066 1.066 0 0 0 .4.078.885.885 0 0 0 .8-.478.93.93 0 0 0-.4-1.2Z" data-name="Shape"/><path fill="#3d9244" d="M292.8 146.295c.5-.9 1.4-2.9.1-3.6l-1.7-.9c2 1 1 3 .5 3.9M295.5 147.695l5.5 3.1.7-1.1-4.5-2.6.9-1.6 3.5 2 .6-1-3.5-2 .7-1.3 4.2 2.4.7-1.1-5.3-3ZM305.8 151.095c-.4.6 0 1.3.9 1.8s1.4.5 1.7.1c.8-1.2-3.7-3-2.3-5.1 1.2-1.8 3.2-.4 4 .1s2 1.8 1 3.2l-1.3-.8c.4-.6 0-1.3-.7-1.7-.6-.4-1.2-.6-1.6 0-.7 1 3.7 2.9 2.4 5-1 1.6-2.7.9-3.9.1-1-.6-2.5-2.1-1.5-3.6ZM313.5 156.195c-.4.6-.1 1.3.8 1.9.8.6 1.4.6 1.7.2.8-1.2-3.6-3.2-2.1-5.2 1.3-1.8 3.3-.2 4 .3s1.9 1.9.9 3.3l-1.3-.9c.4-.6 0-1.3-.6-1.7-.6-.5-1.2-.7-1.6-.1-.7.9 3.6 3.1 2.1 5.1-1.1 1.5-2.8.7-3.9 0-.9-.7-2.3-2.2-1.3-3.7Z"/><path fill="#3d9244" d="M322.545 165.022a2.954 2.954 0 0 1-1.846-.627 3.008 3.008 0 0 1-1.107-2.048 3.753 3.753 0 0 1 .808-2.752 3.494 3.494 0 0 1 2.794-1.454 3.054 3.054 0 0 1 1.905.654 3.008 3.008 0 0 1 1.108 2.046 3.75 3.75 0 0 1-.807 2.751 3.719 3.719 0 0 1-2.855 1.43Zm.7-5.565a2.411 2.411 0 0 0-1.842.937 2.112 2.112 0 0 0 .1 2.9 1.746 1.746 0 0 0 1.059.338 2.41 2.41 0 0 0 1.842-.938 2.375 2.375 0 0 0 .532-1.753 1.667 1.667 0 0 0-.637-1.146 1.744 1.744 0 0 0-1.058-.337Z" data-name="Shape"/><path fill="#fff" d="m195.1 133.395-1 3 1.5.5Z"/><path fill="#fff" d="m195.1 133.395.9 3-1.5.5Z"/><path fill="#fff" d="M198.1 135.595h-3.2v1.6Z"/><path fill="#fff" d="m198.1 135.595-2.6 1.9-.9-1.3Z"/><path fill="#fff" d="m192 135.595 2.6 1.9.9-1.3Z"/><path fill="#fff" d="M192 135.595h3.2v1.6Z"/><path fill="#fff" d="m196.9 139.195-1-3.1-1.5.5Z"/><path fill="#fff" d="m196.9 139.195-2.6-1.9 1-1.3Z"/><path fill="#fff" d="m193.2 139.195 2.6-1.9-1-1.3Z"/><path fill="#fff" d="m193.2 139.195 1-3.1 1.5.5ZM201.7 164.795l-1 3 1.5.5Z"/><path fill="#fff" d="m201.7 164.795.9 3-1.5.5Z"/><path fill="#fff" d="M204.7 166.995h-3.2v1.6Z"/><path fill="#fff" d="m204.7 166.995-2.6 1.9-.9-1.3Z"/><path fill="#fff" d="m198.6 166.995 2.6 1.9.9-1.3Z"/><path fill="#fff" d="M198.6 166.995h3.2v1.6Z"/><path fill="#fff" d="m203.5 170.595-1-3.1-1.5.5Z"/><path fill="#fff" d="m203.5 170.595-2.6-1.9 1-1.3Z"/><path fill="#fff" d="m199.8 170.595 2.6-1.9-1-1.3Z"/><path fill="#fff" d="m199.8 170.595 1-3.1 1.5.5ZM192.5 172.495l-.6 2.1 1 .3Z"/><path fill="#fff" d="m192.5 172.495.7 2.1-1 .3Z"/><path fill="#fff" d="M194.5 173.995h-2.1v1.1Z"/><path fill="#fff" d="m194.5 173.995-1.7 1.3-.6-.9Z"/><path fill="#fff" d="m190.5 173.995 1.7 1.3.6-.9Z"/><path fill="#fff" d="M190.5 173.995h2.1v1.1Z"/><path fill="#fff" d="m193.8 176.395-.7-2-1 .3Z"/><path fill="#fff" d="m193.8 176.395-1.8-1.3.7-.8Z"/><path fill="#fff" d="m191.3 176.395 1.7-1.3-.6-.8Z"/><path fill="#fff" d="m191.3 176.395.6-2 1 .3ZM209 161.895l-.5 1.4.7.3Z"/><path fill="#fff" d="m209 161.895.4 1.4-.7.3Z"/><path fill="#fff" d="M210.4 162.895h-1.5v.8Z"/><path fill="#fff" d="m210.4 162.895-1.2.9-.5-.6Z"/><path fill="#fff" d="m207.5 162.895 1.2.9.5-.6Z"/><path fill="#fff" d="M207.5 162.895h1.5v.8Z"/><path fill="#fff" d="m209.9 164.595-.5-1.4-.7.2Z"/><path fill="#fff" d="m209.9 164.595-1.3-.9.5-.6Z"/><path fill="#fff" d="m208.1 164.595 1.2-.9-.4-.6Z"/><path fill="#fff" d="m208.1 164.595.4-1.4.8.2ZM217.2 172.695l-.8 2.6 1.2.4Z"/><path fill="#fff" d="m217.2 172.695.8 2.6-1.2.4Z"/><path fill="#fff" d="M219.7 174.595h-2.6v1.3Z"/><path fill="#fff" d="m219.7 174.595-2.1 1.5-.8-1Z"/><path fill="#fff" d="m214.7 174.595 2.1 1.5.8-1Z"/><path fill="#fff" d="M214.7 174.595h2.6v1.3Z"/><path fill="#fff" d="m218.8 177.495-.9-2.5-1.2.4Z"/><path fill="#fff" d="m218.8 177.495-2.2-1.5.8-1.1Z"/><path fill="#fff" d="m215.6 177.495 2.2-1.5-.8-1.1Z"/><path fill="#fff" d="m215.6 177.495.9-2.5 1.2.4ZM215 180.095l-.9 2.6 1.3.4Z"/><path fill="#fff" d="m215 180.095.8 2.6-1.3.4Z"/><path fill="#fff" d="M217.5 181.995h-2.7v1.3Z"/><path fill="#fff" d="m217.5 181.995-2.2 1.6-.7-1.1Z"/><path fill="#fff" d="m212.4 181.995 2.2 1.6.8-1.1Z"/><path fill="#fff" d="M212.4 181.995h2.7v1.3Z"/><path fill="#fff" d="m216.5 184.995-.8-2.6-1.3.4Z"/><path fill="#fff" d="m216.5 184.995-2.1-1.6.8-1.1Z"/><path fill="#fff" d="m213.4 184.995 2.2-1.6-.8-1.1Z"/><path fill="#fff" d="m213.4 184.995.8-2.6 1.3.4ZM279.2 123.595l-1 3.1 1.5.5Z"/><path fill="#fff" d="m279.2 123.595 1 3.1-1.6.5Z"/><path fill="#fff" d="M282.2 125.795H279v1.6Z"/><path fill="#fff" d="m282.2 125.795-2.6 1.9-.9-1.3Z"/><path fill="#fff" d="m276.1 125.795 2.6 1.9 1-1.3Z"/><path fill="#fff" d="M276.1 125.795h3.2v1.6Z"/><path fill="#fff" d="m281 129.395-.9-3-1.6.5Z"/><path fill="#fff" d="m281 129.395-2.5-1.9.9-1.3Z"/><path fill="#fff" d="m277.3 129.395 2.6-1.9-1-1.3Z"/><path fill="#fff" d="m277.3 129.395 1-3 1.5.5ZM308.3 172.995l-1 3.1 1.6.4Z"/><path fill="#fff" d="m308.3 172.995 1 3.1-1.5.4Z"/><path fill="#fff" d="M311.4 175.195h-3.2v1.6Z"/><path fill="#fff" d="m311.4 175.195-2.6 1.9-1-1.3Z"/><path fill="#fff" d="m305.3 175.195 2.6 1.9.9-1.3Z"/><path fill="#fff" d="M305.3 175.195h3.2v1.6Z"/><path fill="#fff" d="m310.2 178.795-1-3-1.5.4Z"/><path fill="#fff" d="m310.2 178.795-2.6-1.9 1-1.3Z"/><path fill="#fff" d="m306.4 178.795 2.6-1.9-.9-1.3Z"/><path fill="#fff" d="m306.4 178.795 1-3 1.5.4ZM318.7 174.795l-.7 2 1 .3Z"/><path fill="#fff" d="m318.7 174.795.6 2-1 .3Z"/><path fill="#fff" d="M320.7 176.295h-2.1v1Z"/><path fill="#fff" d="m320.7 176.295-1.7 1.2-.6-.8Z"/><path fill="#fff" d="m316.6 176.295 1.8 1.2.6-.8Z"/><path fill="#fff" d="M316.6 176.295h2.2v1Z"/><path fill="#fff" d="m319.9 178.595-.6-2-1 .3Z"/><path fill="#fff" d="m319.9 178.595-1.7-1.2.6-.9Z"/><path fill="#fff" d="m317.4 178.595 1.7-1.2-.6-.9Z"/><path fill="#fff" d="m317.4 178.595.7-2 1 .3ZM311.4 180.095l-.9 2.6 1.3.4Z"/><path fill="#fff" d="m311.4 180.095.8 2.6-1.3.4Z"/><path fill="#fff" d="M313.9 181.995h-2.7v1.3Z"/><path fill="#fff" d="m313.9 181.995-2.2 1.6-.7-1.1Z"/><path fill="#fff" d="m308.8 181.995 2.2 1.6.8-1.1Z"/><path fill="#fff" d="M308.8 181.995h2.7v1.3Z"/><path fill="#fff" d="m312.9 184.995-.8-2.6-1.3.4Z"/><path fill="#fff" d="m312.9 184.995-2.1-1.6.8-1.1Z"/><path fill="#fff" d="m309.8 184.995 2.2-1.6-.8-1.1Z"/><path fill="#fff" d="m309.8 184.995.8-2.6 1.3.4ZM293.4 195.795l-.8 2.5 1.2.4Z"/><path fill="#fff" d="m293.4 195.795.8 2.5-1.3.4Z"/><path fill="#fff" d="M295.9 197.595h-2.6v1.4Z"/><path fill="#fff" d="m295.9 197.595-2.1 1.6-.8-1.1Z"/><path fill="#fff" d="m290.9 197.595 2.1 1.6.8-1.1Z"/><path fill="#fff" d="M290.9 197.595h2.6v1.4Z"/><path fill="#fff" d="m295 200.595-.9-2.5-1.2.4Z"/><path fill="#fff" d="m295 200.595-2.2-1.6.8-1Z"/><path fill="#fff" d="m291.8 200.595 2.2-1.6-.8-1Z"/><path fill="#fff" d="m291.8 200.595.8-2.5 1.3.4ZM293.3 203.795l-.7 2.1 1 .3Z"/><path fill="#fff" d="m293.3 203.795.6 2.1-1 .3Z"/><path fill="#fff" d="M295.3 205.295h-2.1v1.1Z"/><path fill="#fff" d="m295.3 205.295-1.7 1.3-.6-.9Z"/><path fill="#fff" d="m291.3 205.295 1.7 1.3.6-.9Z"/><path fill="#fff" d="M291.3 205.295h2.1v1.1Z"/><path fill="#fff" d="m294.5 207.695-.6-2-1 .3Z"/><path fill="#fff" d="m294.5 207.695-1.7-1.3.6-.8Z"/><path fill="#fff" d="m292 207.695 1.8-1.3-.7-.8Z"/><path fill="#fff" d="m292 207.695.7-2 1 .3ZM300.8 190.395l-.7 2.1 1.1.3Z"/><path fill="#fff" d="m300.8 190.395.7 2.1-1.1.3Z"/><path fill="#fff" d="M302.8 191.895h-2.1v1.1Z"/><path fill="#fff" d="m302.8 191.895-1.7 1.3-.6-.9Z"/><path fill="#fff" d="m298.8 191.895 1.7 1.3.6-.9Z"/><path fill="#fff" d="M298.8 191.895h2.1v1.1Z"/><path fill="#fff" d="m302.1 194.295-.7-2-1 .3Z"/><path fill="#fff" d="m302.1 194.295-1.8-1.3.7-.8Z"/><path fill="#fff" d="m299.6 194.295 1.7-1.3-.7-.8Z"/><path fill="#fff" d="m299.6 194.295.6-2 1 .3ZM306.8 186.095l-.8 2.6 1.2.4Z"/><path fill="#fff" d="m306.8 186.095.8 2.6-1.2.4Z"/><path fill="#fff" d="M309.3 187.995h-2.6v1.3Z"/><path fill="#fff" d="m309.3 187.995-2.1 1.5-.8-1Z"/><path fill="#fff" d="m304.3 187.995 2.1 1.5.8-1Z"/><path fill="#fff" d="M304.3 187.995h2.6v1.3Z"/><path fill="#fff" d="m308.4 190.895-.9-2.5-1.2.4Z"/><path fill="#fff" d="m308.4 190.895-2.2-1.5.8-1.1Z"/><path fill="#fff" d="m305.2 190.895 2.2-1.5-.8-1.1Z"/><path fill="#fff" d="m305.2 190.895.9-2.5 1.2.4ZM293.1 188.995l-.7 2 1 .4Z"/><path fill="#fff" d="m293.1 188.995.6 2-1 .4Z"/><path fill="#fff" d="M295.1 190.495H293v1Z"/><path fill="#fff" d="m295.1 190.495-1.7 1.2-.6-.8Z"/><path fill="#fff" d="m291.1 190.495 1.7 1.2.6-.8Z"/><path fill="#fff" d="M291.1 190.495h2.1v1Z"/><path fill="#fff" d="m294.3 192.895-.6-2.1-1 .3Z"/><path fill="#fff" d="m294.3 192.895-1.7-1.3.6-.8Z"/><path fill="#fff" d="m291.8 192.895 1.8-1.3-.7-.8Z"/><path fill="#fff" d="m291.8 192.895.7-2.1 1 .3ZM227.6 150.395l-.9 2.5 1.3.4Z"/><path fill="#fff" d="m227.6 150.395.8 2.5-1.3.4Z"/><path fill="#fff" d="M230.1 152.195h-2.7v1.3Z"/><path fill="#fff" d="m230.1 152.195-2.2 1.6-.7-1.1Z"/><path fill="#fff" d="m225 152.195 2.2 1.6.8-1.1Z"/><path fill="#fff" d="M225 152.195h2.7v1.3Z"/><path fill="#fff" d="m229.1 155.195-.8-2.5-1.3.4Z"/><path fill="#fff" d="m229.1 155.195-2.1-1.6.8-1.1Z"/><path fill="#fff" d="m226 155.195 2.1-1.6-.7-1.1Z"/><path fill="#fff" d="m226 155.195.8-2.5 1.3.4ZM276.3 144.095l-.6 2 1 .4Z"/><path fill="#fff" d="m276.3 144.095.7 2-1 .4Z"/><path fill="#fff" d="M278.3 145.595h-2.1v1Z"/><path fill="#fff" d="m278.3 145.595-1.7 1.2-.6-.8Z"/><path fill="#fff" d="m274.3 145.595 1.7 1.2.6-.8Z"/><path fill="#fff" d="M274.3 145.595h2.1v1Z"/><path fill="#fff" d="m277.6 147.995-.7-2.1-1 .4Z"/><path fill="#fff" d="m277.6 147.995-1.8-1.3.7-.9Z"/><path fill="#fff" d="m275.1 147.995 1.7-1.3-.6-.9Z"/><path fill="#fff" d="m275.1 147.995.6-2.1 1 .4ZM256 180.295l-1 3.1 1.5.5Z"/><path fill="#fff" d="m256 180.295 1 3.1-1.5.5Z"/><path fill="#fff" d="M259 182.495h-3.2v1.6Z"/><path fill="#fff" d="m259 182.495-2.5 1.9-1-1.3Z"/><path fill="#fff" d="m253 182.495 2.5 1.9 1-1.3Z"/><path fill="#fff" d="M253 182.495h3.2v1.6Z"/><path fill="#fff" d="m257.9 186.095-1-3-1.5.5Z"/><path fill="#fff" d="m257.9 186.095-2.6-1.9.9-1.3Z"/><path fill="#fff" d="m254.1 186.095 2.6-1.9-.9-1.3Z"/><path fill="#fff" d="m254.1 186.095 1-3 1.5.5ZM264.6 165.995l-.8 2.5 1.3.5Z"/><path fill="#fff" d="m264.6 165.995.9 2.5-1.3.5Z"/><path fill="#fff" d="M267.2 167.895h-2.7v1.3Z"/><path fill="#fff" d="m267.2 167.895-2.2 1.5-.8-1.1Z"/><path fill="#fff" d="m262.1 167.895 2.2 1.5.7-1.1Z"/><path fill="#fff" d="M262.1 167.895h2.7v1.3Z"/><path fill="#fff" d="m266.2 170.795-.8-2.5-1.3.4Z"/><path fill="#fff" d="m266.2 170.795-2.2-1.5.8-1.1Z"/><path fill="#fff" d="m263.1 170.795 2.1-1.5-.8-1.1Z"/><path fill="#fff" d="m263.1 170.795.8-2.5 1.3.4ZM256 159.295l-.8 2.6 1.2.4Z"/><path fill="#fff" d="m256 159.295.8 2.6-1.2.4Z"/><path fill="#fff" d="M258.5 161.195h-2.6v1.3Z"/><path fill="#fff" d="m258.5 161.195-2.1 1.5-.8-1.1Z"/><path fill="#fff" d="m253.5 161.195 2.1 1.5.8-1.1Z"/><path fill="#fff" d="M253.5 161.195h2.6v1.3Z"/><path fill="#fff" d="m257.6 164.095-.9-2.5-1.2.4Z"/><path fill="#fff" d="m257.6 164.095-2.2-1.5.8-1.1Z"/><path fill="#fff" d="m254.4 164.095 2.2-1.5-.8-1.1Z"/><path fill="#fff" d="m254.4 164.095.9-2.5 1.2.4ZM248.5 166.595l-.7 2 1 .3Z"/><path fill="#fff" d="m248.5 166.595.6 2-1 .3Z"/><path fill="#fff" d="M250.5 167.995h-2.1v1.1Z"/><path fill="#fff" d="m250.5 167.995-1.7 1.3-.6-.9Z"/><path fill="#fff" d="m246.5 167.995 1.7 1.3.6-.9Z"/><path fill="#fff" d="M246.5 167.995h2.1v1.1Z"/><path fill="#fff" d="m249.7 170.395-.6-2-1 .3Z"/><path fill="#fff" d="m249.7 170.395-1.7-1.2.6-.9Z"/><path fill="#fff" d="m247.2 170.395 1.8-1.2-.7-.9Z"/><path fill="#fff" d="m247.2 170.395.7-2 1 .3ZM252.2 172.295l-.4 1.5.7.2Z"/><path fill="#fff" d="m252.2 172.295.5 1.5-.7.2Z"/><path fill="#fff" d="M253.7 173.395h-1.5v.8Z"/><path fill="#fff" d="m253.7 173.395-1.2.9-.5-.6Z"/><path fill="#fff" d="m250.8 173.395 1.2.9.5-.6Z"/><path fill="#fff" d="M250.8 173.395h1.5v.8Z"/><path fill="#fff" d="m253.1 175.095-.4-1.5-.8.3Z"/><path fill="#fff" d="m253.1 175.095-1.2-.9.5-.6Z"/><path fill="#fff" d="m251.3 175.095 1.3-.9-.5-.6Z"/><path fill="#fff" d="m251.3 175.095.5-1.5.7.3ZM278.4 197.595l-.9 2.6 1.3.4Z"/><path fill="#fff" d="m278.4 197.595.8 2.6-1.3.4Z"/><path fill="#fff" d="M280.9 199.395h-2.7v1.4Z"/><path fill="#fff" d="m280.9 199.395-2.2 1.6-.8-1.1Z"/><path fill="#fff" d="m275.8 199.395 2.2 1.6.8-1.1Z"/><path fill="#fff" d="M275.8 199.395h2.7v1.4Z"/><path fill="#fff" d="m279.9 202.395-.8-2.5-1.3.4Z"/><path fill="#fff" d="m279.9 202.395-2.1-1.5.7-1.1Z"/><path fill="#fff" d="m276.8 202.395 2.1-1.5-.7-1.1Z"/><path fill="#fff" d="m276.8 202.395.8-2.5 1.3.4ZM284.7 191.495l-.6 2.1 1 .3Z"/><path fill="#fff" d="m284.7 191.495.7 2.1-1 .3Z"/><path fill="#fff" d="M286.8 192.995h-2.2v1.1Z"/><path fill="#fff" d="m286.8 192.995-1.7 1.3-.7-.9Z"/><path fill="#fff" d="m282.7 192.995 1.7 1.3.7-.9Z"/><path fill="#fff" d="M282.7 192.995h2.2v1.1Z"/><path fill="#fff" d="m286 195.395-.7-2-1 .3Z"/><path fill="#fff" d="m286 195.395-1.7-1.2.6-.9Z"/><path fill="#fff" d="m283.5 195.395 1.7-1.2-.6-.9Z"/><path fill="#fff" d="m283.5 195.395.7-2 1 .3ZM272.5 189.695l-.7 2 1 .4Z"/><path fill="#fff" d="m272.5 189.695.6 2-1 .4Z"/><path fill="#fff" d="M274.5 191.195h-2.1v1.1Z"/><path fill="#fff" d="m274.5 191.195-1.7 1.2-.7-.8Z"/><path fill="#fff" d="m270.4 191.195 1.8 1.2.6-.8Z"/><path fill="#fff" d="M270.4 191.195h2.2v1.1Z"/><path fill="#fff" d="m273.7 193.595-.6-2.1-1.1.4Z"/><path fill="#fff" d="m273.7 193.595-1.7-1.3.6-.8Z"/><path fill="#fff" d="m271.2 193.595 1.7-1.3-.6-.8Z"/><path fill="#fff" d="m271.2 193.595.7-2.1 1 .4ZM226 186.395l-.9 3 1.5.6Z"/><path fill="#fff" d="m226 186.395 1 3-1.5.6Z"/><path fill="#fff" d="M229.1 188.595h-3.2v1.6Z"/><path fill="#fff" d="m229.1 188.595-2.6 1.9-.9-1.3Z"/><path fill="#fff" d="m223 188.595 2.6 1.9.9-1.3Z"/><path fill="#fff" d="M223 188.595h3.2v1.6Z"/><path fill="#fff" d="m227.9 192.195-1-3-1.5.5Z"/><path fill="#fff" d="m227.9 192.195-2.6-1.9 1-1.3Z"/><path fill="#fff" d="m224.1 192.195 2.6-1.9-.9-1.3Z"/><path fill="#fff" d="m224.1 192.195 1-3 1.6.5ZM256 207.295l-.3 1.1.5.1Z"/><path fill="#fff" d="m256 207.295.3 1.1-.5.1Z"/><path fill="#fff" d="M257 208.095h-1.1v.5Z"/><path fill="#fff" d="m257 208.095-.8.6-.4-.4Z"/><path fill="#fff" d="m255 208.095.9.6.3-.4Z"/><path fill="#fff" d="M255 208.095h1.1v.5Z"/><path fill="#fff" d="m256.6 209.295-.3-1-.5.1Z"/><path fill="#fff" d="m256.6 209.295-.8-.7.3-.4Z"/><path fill="#fff" d="m255.4 209.295.8-.7-.3-.4Z"/><path fill="#fff" d="m255.4 209.295.3-1 .5.1Z"/></g></svg>