<svg xmlns="http://www.w3.org/2000/svg" xmlns:xlink="http://www.w3.org/1999/xlink" width="512" height="300" viewBox="0 0 512 300"><defs><clipPath id="b"><rect width="512" height="300"/></clipPath></defs><g id="a" clip-path="url(#b)"><g transform="translate(0 -1.005)"><rect width="512" height="300" transform="translate(0 0.7)" fill="#358142"/><path d="M0,113.1,177.1,226.2,354.2,113.1,177.1,0Z" transform="translate(78.9 37.9)" fill="#fcd93a"/><path d="M149.4,74.7A74.7,74.7,0,1,1,74.7,0a74.771,74.771,0,0,1,74.7,74.7" transform="translate(181.3 76.3)" fill="#2f4ba1"/><path d="M29.6,0A179.411,179.411,0,0,0,4,1.8,90.531,90.531,0,0,0,0,13.2a170.429,170.429,0,0,1,143.5,41,77.708,77.708,0,0,0,2.7-11.8A181.029,181.029,0,0,0,29.6,0" transform="translate(183.7 119)" fill="#fff"/><path d="M3.321,7.057h0A3.521,3.521,0,0,1,.046,3.938,3.584,3.584,0,0,1,.709,1.213,2.964,2.964,0,0,1,2.746.039,2.532,2.532,0,0,1,3.185,0,3.415,3.415,0,0,1,6.346,3.138a3.584,3.584,0,0,1-.663,2.726A2.964,2.964,0,0,1,3.646,7.038,2.782,2.782,0,0,1,3.321,7.057ZM3.2,1.33h0c-.05,0-.1,0-.151.008a2.09,2.09,0,0,0-1.6,2.4A2.054,2.054,0,0,0,3.38,5.746c.055,0,.111,0,.166-.008a2.091,2.091,0,0,0,1.6-2.4A2.214,2.214,0,0,0,3.2,1.331Z" transform="translate(188.654 122.162)" fill="#3d9244"/><path d="M.5,7.407h0L0,.307l4.1-.3C4.16,0,4.22,0,4.279,0A2.247,2.247,0,0,1,6.5,2.107a2.189,2.189,0,0,1-.557,1.6,2.335,2.335,0,0,1-1.543.8l-2.8.2.2,2.6-1.3.1ZM4.256,1.391a.8.8,0,0,0-.156.015l-2.7.2.2,1.8,2.7-.2a.8.8,0,0,0,.618-.3.838.838,0,0,0,.182-.7.8.8,0,0,0-.253-.571A.861.861,0,0,0,4.256,1.391Z" transform="translate(197.6 121.093)" fill="#3d9244"/><path d="M3.6,3.112c-.1-1-.2-3.3-1.7-3.1L0,.112c2.2-.2,2.4,2.1,2.4,3.1" transform="translate(200.5 124.988)" fill="#3d9244"/><path d="M.1,7.2h0L0,.1,3.4,0A3.018,3.018,0,0,1,6.5,3V4a3.147,3.147,0,0,1-.862,2.188A2.929,2.929,0,0,1,3.5,7.1L.1,7.2ZM1.3,1.3l.1,4.5H3.3a1.931,1.931,0,0,0,1.9-2V3.2a1.931,1.931,0,0,0-2-1.9Z" transform="translate(207 120.8)" fill="#3d9244"/><path d="M0,7.1l6.4.2V6L1.2,5.8,1.3,4l4.1.1V2.9L1.3,2.8l.1-1.5,4.9.2V.2L.2,0Z" transform="translate(216.2 120.8)" fill="#3d9244"/><path d="M0,7.1l1.2.1.4-4.9,1,5,1.1.1L5.6,2.7,5.1,7.5l1.3.1L7,.5,5.2.4,3.4,5.1l-1-5L.6,0Z" transform="translate(225.2 121.2)" fill="#3d9244"/><path d="M0,6.3l5.3.9L5.5,6,1.4,5.3l.3-1.6L5,4.3l.2-1.2L1.9,2.5l.2-1.1L6,2.1,6.2.9,1.1,0Z" transform="translate(239.9 123.6)" fill="#3d9244"/><path d="M1.3,7.1h0L0,6.8,2,0,5.9,1A2.181,2.181,0,0,1,7.263,2.012,2.233,2.233,0,0,1,7.5,3.7,2.2,2.2,0,0,1,5.358,5.369,2.307,2.307,0,0,1,4.8,5.3L2,4.6,1.3,7.1ZM2.7,1.5,2.3,3.3,5,4a.981.981,0,0,0,.194.019A.915.915,0,0,0,6.1,3.3a.925.925,0,0,0-.7-1.1Z" transform="translate(253.4 125.8)" fill="#3d9244"/><path d="M1.3,7.1h0L0,6.7,2.2,0,6.1,1.2A2.385,2.385,0,0,1,7.45,2.3,2.106,2.106,0,0,1,7.6,4,2.273,2.273,0,0,1,5.485,5.613,2.164,2.164,0,0,1,4.8,5.5L2.1,4.6,1.3,7.1ZM3.1,1.5h0L2.5,3.3l2.6.8a.851.851,0,0,0,.317.062A.984.984,0,0,0,6.3,3.5a.837.837,0,0,0-.038-.713A1.083,1.083,0,0,0,5.7,2.3L3.1,1.5Z" transform="translate(262.1 128.2)" fill="#3d9244"/><path d="M2.3,4.2c.3-1,1-3.1-.5-3.6L0,0C2.1.7,1.5,2.8,1.1,3.8" transform="translate(265.6 132.5)" fill="#3d9244"/><path d="M3.017,7.049h0A3.051,3.051,0,0,1,2,6.874,3.024,3.024,0,0,1,.274,5.112,4.084,4.084,0,0,1,.2,2.374,3.437,3.437,0,0,1,3.381,0,3.05,3.05,0,0,1,4.4.175,3.279,3.279,0,0,1,6.2,2.012a3.616,3.616,0,0,1,0,2.662A3.436,3.436,0,0,1,3.017,7.049Zm.4-5.689h0A2.174,2.174,0,0,0,1.5,2.875a2.137,2.137,0,0,0,1,2.8,1.574,1.574,0,0,0,.587.114A2.175,2.175,0,0,0,5,4.274a2.138,2.138,0,0,0-1-2.8,1.576,1.576,0,0,0-.587-.113Z" transform="translate(271.701 131.926)" fill="#3d9244"/><path d="M2.983,6.975h0a2.852,2.852,0,0,1-1.15-.238A3.035,3.035,0,0,1,.226,4.985,3.554,3.554,0,0,1,.332,2.237,3.677,3.677,0,0,1,3.582,0a2.851,2.851,0,0,1,1.15.238,3.021,3.021,0,0,1,1.6,1.7,3.674,3.674,0,0,1-.1,2.8A3.677,3.677,0,0,1,2.983,6.975Zm.55-5.662a2.344,2.344,0,0,0-2,1.425A2.387,2.387,0,0,0,1.461,4.56a1.7,1.7,0,0,0,.871.977,1.47,1.47,0,0,0,.6.124,2.342,2.342,0,0,0,2-1.425A2.388,2.388,0,0,0,5,2.414a1.7,1.7,0,0,0-.871-.977A1.469,1.469,0,0,0,3.532,1.313Z" transform="translate(280.268 135.462)" fill="#3d9244"/><path d="M.4,0,2.9,1.1,2.4,2,0,.9Z" transform="translate(283.6 139.1)" fill="#3d9244"/><path d="M1.4,0l1,.4L.9,3.7,0,3.3Z" transform="translate(284.1 139.8)" fill="#3d9244"/><path d="M1.2,6.9h0L0,6.3,3.3,0,6.9,1.8a2.3,2.3,0,0,1,1,3A2.178,2.178,0,0,1,5.911,6.057,2.119,2.119,0,0,1,4.9,5.8L2.4,4.5,1.2,6.9ZM3.8,1.7,3,3.3,5.5,4.5a1.066,1.066,0,0,0,.4.078A.885.885,0,0,0,6.7,4.1a.93.93,0,0,0-.4-1.2Z" transform="translate(287.4 138.3)" fill="#3d9244"/><path d="M1.6,4.5C2.1,3.6,3,1.6,1.7.9L0,0C2,1,1,3,.5,3.9" transform="translate(291.2 142.8)" fill="#3d9244"/><path d="M0,6.2,5.5,9.3l.7-1.1L1.7,5.6,2.6,4,6.1,6l.6-1L3.2,3l.7-1.3L8.1,4.1,8.8,3,3.5,0Z" transform="translate(295.5 142.5)" fill="#3d9244"/><path d="M1.63,4.091c-.4.6,0,1.3.9,1.8s1.4.5,1.7.1c.8-1.2-3.7-3-2.3-5.1,1.2-1.8,3.2-.4,4,.1s2,1.8,1,3.2l-1.3-.8c.4-.6,0-1.3-.7-1.7-.6-.4-1.2-.6-1.6,0-.7,1,3.7,2.9,2.4,5-1,1.6-2.7.9-3.9.1-1-.6-2.5-2.1-1.5-3.6Z" transform="translate(304.17 148.009)" fill="#3d9244"/><path d="M1.645,3.934c-.4.6-.1,1.3.8,1.9.8.6,1.4.6,1.7.2.8-1.2-3.6-3.2-2.1-5.2,1.3-1.8,3.3-.2,4,.3s1.9,1.9.9,3.3l-1.3-.9c.4-.6,0-1.3-.6-1.7-.6-.5-1.2-.7-1.6-.1-.7.9,3.6,3.1,2.1,5.1-1.1,1.5-2.8.7-3.9,0-.9-.7-2.3-2.2-1.3-3.7Z" transform="translate(311.855 153.266)" fill="#3d9244"/><path d="M2.976,6.881h0A2.954,2.954,0,0,1,1.13,6.254,3.008,3.008,0,0,1,.023,4.206,3.753,3.753,0,0,1,.831,1.454,3.494,3.494,0,0,1,3.625,0,3.054,3.054,0,0,1,5.53.654,3.008,3.008,0,0,1,6.638,2.7a3.75,3.75,0,0,1-.807,2.751A3.719,3.719,0,0,1,2.976,6.881Zm.7-5.565h0a2.411,2.411,0,0,0-1.842.937,2.112,2.112,0,0,0,.1,2.9,1.746,1.746,0,0,0,1.059.338,2.41,2.41,0,0,0,1.842-.938A2.375,2.375,0,0,0,5.367,2.8,1.667,1.667,0,0,0,4.73,1.654a1.744,1.744,0,0,0-1.058-.337Z" transform="translate(319.569 159.146)" fill="#3d9244"/><path d="M1,0,0,3l1.5.5Z" transform="translate(194.1 134.4)" fill="#fff"/><path d="M.6,0l.9,3L0,3.5Z" transform="translate(194.5 134.4)" fill="#fff"/><path d="M3.2,0H0V1.6Z" transform="translate(194.9 136.6)" fill="#fff"/><path d="M3.5,0,.9,1.9,0,.6Z" transform="translate(194.6 136.6)" fill="#fff"/><path d="M0,0,2.6,1.9,3.5.6Z" transform="translate(192 136.6)" fill="#fff"/><path d="M0,0H3.2V1.6Z" transform="translate(192 136.6)" fill="#fff"/><path d="M2.5,3.1,1.5,0,0,.5Z" transform="translate(194.4 137.1)" fill="#fff"/><path d="M2.6,3.2,0,1.3,1,0Z" transform="translate(194.3 137)" fill="#fff"/><path d="M0,3.2,2.6,1.3,1.6,0Z" transform="translate(193.2 137)" fill="#fff"/><path d="M0,3.1,1,0,2.5.5Z" transform="translate(193.2 137.1)" fill="#fff"/><path d="M1,0,0,3l1.5.5Z" transform="translate(200.7 165.8)" fill="#fff"/><path d="M.6,0l.9,3L0,3.5Z" transform="translate(201.1 165.8)" fill="#fff"/><path d="M3.2,0H0V1.6Z" transform="translate(201.5 168)" fill="#fff"/><path d="M3.5,0,.9,1.9,0,.6Z" transform="translate(201.2 168)" fill="#fff"/><path d="M0,0,2.6,1.9,3.5.6Z" transform="translate(198.6 168)" fill="#fff"/><path d="M0,0H3.2V1.6Z" transform="translate(198.6 168)" fill="#fff"/><path d="M2.5,3.1,1.5,0,0,.5Z" transform="translate(201 168.5)" fill="#fff"/><path d="M2.6,3.2,0,1.3,1,0Z" transform="translate(200.9 168.4)" fill="#fff"/><path d="M0,3.2,2.6,1.3,1.6,0Z" transform="translate(199.8 168.4)" fill="#fff"/><path d="M0,3.1,1,0,2.5.5Z" transform="translate(199.8 168.5)" fill="#fff"/><path d="M.6,0,0,2.1l1,.3Z" transform="translate(191.9 173.5)" fill="#fff"/><path d="M.3,0,1,2.1,0,2.4Z" transform="translate(192.2 173.5)" fill="#fff"/><path d="M2.1,0H0V1.1Z" transform="translate(192.4 175)" fill="#fff"/><path d="M2.3,0,.6,1.3,0,.4Z" transform="translate(192.2 175)" fill="#fff"/><path d="M0,0,1.7,1.3,2.3.4Z" transform="translate(190.5 175)" fill="#fff"/><path d="M0,0H2.1V1.1Z" transform="translate(190.5 175)" fill="#fff"/><path d="M1.7,2,1,0,0,.3Z" transform="translate(192.1 175.4)" fill="#fff"/><path d="M1.8,2.1,0,.8.7,0Z" transform="translate(192 175.3)" fill="#fff"/><path d="M0,2.1,1.7.8,1.1,0Z" transform="translate(191.3 175.3)" fill="#fff"/><path d="M0,2,.6,0l1,.3Z" transform="translate(191.3 175.4)" fill="#fff"/><path d="M.65,0,.15,1.4l.7.3Z" transform="translate(208.35 162.9)" fill="#fff"/><path d="M.45,0l.4,1.4-.7.3Z" transform="translate(208.55 162.9)" fill="#fff"/><path d="M1.5.1H0V.9Z" transform="translate(208.9 163.8)" fill="#fff"/><path d="M1.7.05.5.95,0,.35Z" transform="translate(208.7 163.85)" fill="#fff"/><path d="M0,.05l1.2.9.5-.6Z" transform="translate(207.5 163.85)" fill="#fff"/><path d="M0,.1H1.5V.9Z" transform="translate(207.5 163.8)" fill="#fff"/><path d="M1.2,1.4.7,0,0,.2Z" transform="translate(208.7 164.2)" fill="#fff"/><path d="M1.3,1.5,0,.6.5,0Z" transform="translate(208.6 164.1)" fill="#fff"/><path d="M0,1.5,1.2.6.8,0Z" transform="translate(208.1 164.1)" fill="#fff"/><path d="M0,1.4.4,0l.8.2Z" transform="translate(208.1 164.2)" fill="#fff"/><path d="M.8,0,0,2.6,1.2,3Z" transform="translate(216.4 173.7)" fill="#fff"/><path d="M.4,0l.8,2.6L0,3Z" transform="translate(216.8 173.7)" fill="#fff"/><path d="M2.6,0H0V1.3Z" transform="translate(217.1 175.6)" fill="#fff"/><path d="M2.9,0,.8,1.5,0,.5Z" transform="translate(216.8 175.6)" fill="#fff"/><path d="M0,0,2.1,1.5l.8-1Z" transform="translate(214.7 175.6)" fill="#fff"/><path d="M0,0H2.6V1.3Z" transform="translate(214.7 175.6)" fill="#fff"/><path d="M2.1,2.5,1.2,0,0,.4Z" transform="translate(216.7 176)" fill="#fff"/><path d="M2.2,2.6,0,1.1.8,0Z" transform="translate(216.6 175.9)" fill="#fff"/><path d="M0,2.6,2.2,1.1,1.4,0Z" transform="translate(215.6 175.9)" fill="#fff"/><path d="M0,2.5.9,0,2.1.4Z" transform="translate(215.6 176)" fill="#fff"/><path d="M.9,0,0,2.6,1.3,3Z" transform="translate(214.1 181.1)" fill="#fff"/><path d="M.5,0l.8,2.6L0,3Z" transform="translate(214.5 181.1)" fill="#fff"/><path d="M2.7,0H0V1.3Z" transform="translate(214.8 183)" fill="#fff"/><path d="M2.9,0,.7,1.6,0,.5Z" transform="translate(214.6 183)" fill="#fff"/><path d="M0,0,2.2,1.6,3,.5Z" transform="translate(212.4 183)" fill="#fff"/><path d="M0,0H2.7V1.3Z" transform="translate(212.4 183)" fill="#fff"/><path d="M2.1,2.6,1.3,0,0,.4Z" transform="translate(214.4 183.4)" fill="#fff"/><path d="M2.1,2.7,0,1.1.8,0Z" transform="translate(214.4 183.3)" fill="#fff"/><path d="M0,2.7,2.2,1.1,1.4,0Z" transform="translate(213.4 183.3)" fill="#fff"/><path d="M0,2.6.8,0,2.1.4Z" transform="translate(213.4 183.4)" fill="#fff"/><path d="M1,0,0,3.1l1.5.5Z" transform="translate(278.2 124.6)" fill="#fff"/><path d="M.6,0l1,3.1L0,3.6Z" transform="translate(278.6 124.6)" fill="#fff"/><path d="M3.2,0H0V1.6Z" transform="translate(279 126.8)" fill="#fff"/><path d="M3.5,0,.9,1.9,0,.6Z" transform="translate(278.7 126.8)" fill="#fff"/><path d="M0,0,2.6,1.9,3.6.6Z" transform="translate(276.1 126.8)" fill="#fff"/><path d="M0,0H3.2V1.6Z" transform="translate(276.1 126.8)" fill="#fff"/><path d="M2.5,3,1.6,0,0,.5Z" transform="translate(278.5 127.4)" fill="#fff"/><path d="M2.5,3.2,0,1.3.9,0Z" transform="translate(278.5 127.2)" fill="#fff"/><path d="M0,3.2,2.6,1.3,1.6,0Z" transform="translate(277.3 127.2)" fill="#fff"/><path d="M0,3,1,0,2.5.5Z" transform="translate(277.3 127.4)" fill="#fff"/><path d="M1,0,0,3.1l1.6.4Z" transform="translate(307.3 174)" fill="#fff"/><path d="M.5,0l1,3.1L0,3.5Z" transform="translate(307.8 174)" fill="#fff"/><path d="M3.2,0H0V1.6Z" transform="translate(308.2 176.2)" fill="#fff"/><path d="M3.6,0,1,1.9,0,.6Z" transform="translate(307.8 176.2)" fill="#fff"/><path d="M0,0,2.6,1.9,3.5.6Z" transform="translate(305.3 176.2)" fill="#fff"/><path d="M0,0H3.2V1.6Z" transform="translate(305.3 176.2)" fill="#fff"/><path d="M2.5,3l-1-3L0,.4Z" transform="translate(307.7 176.8)" fill="#fff"/><path d="M2.6,3.2,0,1.3,1,0Z" transform="translate(307.6 176.6)" fill="#fff"/><path d="M0,3.2,2.6,1.3,1.7,0Z" transform="translate(306.4 176.6)" fill="#fff"/><path d="M0,3,1,0,2.5.4Z" transform="translate(306.4 176.8)" fill="#fff"/><path d="M.7,0,0,2l1,.3Z" transform="translate(318 175.8)" fill="#fff"/><path d="M.4,0,1,2,0,2.3Z" transform="translate(318.3 175.8)" fill="#fff"/><path d="M2.1,0H0V1Z" transform="translate(318.6 177.3)" fill="#fff"/><path d="M2.3,0,.6,1.2,0,.4Z" transform="translate(318.4 177.3)" fill="#fff"/><path d="M0,0,1.8,1.2,2.4.4Z" transform="translate(316.6 177.3)" fill="#fff"/><path d="M0,0H2.2V1Z" transform="translate(316.6 177.3)" fill="#fff"/><path d="M1.6,2,1,0,0,.3Z" transform="translate(318.3 177.6)" fill="#fff"/><path d="M1.7,2.1,0,.9.6,0Z" transform="translate(318.2 177.5)" fill="#fff"/><path d="M0,2.1,1.7.9,1.1,0Z" transform="translate(317.4 177.5)" fill="#fff"/><path d="M0,2,.7,0l1,.3Z" transform="translate(317.4 177.6)" fill="#fff"/><path d="M.9,0,0,2.6,1.3,3Z" transform="translate(310.5 181.1)" fill="#fff"/><path d="M.5,0l.8,2.6L0,3Z" transform="translate(310.9 181.1)" fill="#fff"/><path d="M2.7,0H0V1.3Z" transform="translate(311.2 183)" fill="#fff"/><path d="M2.9,0,.7,1.6,0,.5Z" transform="translate(311 183)" fill="#fff"/><path d="M0,0,2.2,1.6,3,.5Z" transform="translate(308.8 183)" fill="#fff"/><path d="M0,0H2.7V1.3Z" transform="translate(308.8 183)" fill="#fff"/><path d="M2.1,2.6,1.3,0,0,.4Z" transform="translate(310.8 183.4)" fill="#fff"/><path d="M2.1,2.7,0,1.1.8,0Z" transform="translate(310.8 183.3)" fill="#fff"/><path d="M0,2.7,2.2,1.1,1.4,0Z" transform="translate(309.8 183.3)" fill="#fff"/><path d="M0,2.6.8,0,2.1.4Z" transform="translate(309.8 183.4)" fill="#fff"/><path d="M.8,0,0,2.5l1.2.4Z" transform="translate(292.6 196.8)" fill="#fff"/><path d="M.5,0l.8,2.5L0,2.9Z" transform="translate(292.9 196.8)" fill="#fff"/><path d="M2.6,0H0V1.4Z" transform="translate(293.3 198.6)" fill="#fff"/><path d="M2.9,0,.8,1.6,0,.5Z" transform="translate(293 198.6)" fill="#fff"/><path d="M0,0,2.1,1.6,2.9.5Z" transform="translate(290.9 198.6)" fill="#fff"/><path d="M0,0H2.6V1.4Z" transform="translate(290.9 198.6)" fill="#fff"/><path d="M2.1,2.5,1.2,0,0,.4Z" transform="translate(292.9 199.1)" fill="#fff"/><path d="M2.2,2.6,0,1,.8,0Z" transform="translate(292.8 199)" fill="#fff"/><path d="M0,2.6,2.2,1,1.4,0Z" transform="translate(291.8 199)" fill="#fff"/><path d="M0,2.5.8,0,2.1.4Z" transform="translate(291.8 199.1)" fill="#fff"/><path d="M.7,0,0,2.1l1,.3Z" transform="translate(292.6 204.8)" fill="#fff"/><path d="M.4,0,1,2.1,0,2.4Z" transform="translate(292.9 204.8)" fill="#fff"/><path d="M2.1,0H0V1.1Z" transform="translate(293.2 206.3)" fill="#fff"/><path d="M2.3,0,.6,1.3,0,.4Z" transform="translate(293 206.3)" fill="#fff"/><path d="M0,0,1.7,1.3,2.3.4Z" transform="translate(291.3 206.3)" fill="#fff"/><path d="M0,0H2.1V1.1Z" transform="translate(291.3 206.3)" fill="#fff"/><path d="M1.6,2,1,0,0,.3Z" transform="translate(292.9 206.7)" fill="#fff"/><path d="M1.7,2.1,0,.8.6,0Z" transform="translate(292.8 206.6)" fill="#fff"/><path d="M0,2.1,1.8.8,1.1,0Z" transform="translate(292 206.6)" fill="#fff"/><path d="M0,2,.7,0l1,.3Z" transform="translate(292 206.7)" fill="#fff"/><path d="M.7,0,0,2.1l1.1.3Z" transform="translate(300.1 191.4)" fill="#fff"/><path d="M.4,0l.7,2.1L0,2.4Z" transform="translate(300.4 191.4)" fill="#fff"/><path d="M2.1,0H0V1.1Z" transform="translate(300.7 192.9)" fill="#fff"/><path d="M2.3,0,.6,1.3,0,.4Z" transform="translate(300.5 192.9)" fill="#fff"/><path d="M0,0,1.7,1.3,2.3.4Z" transform="translate(298.8 192.9)" fill="#fff"/><path d="M0,0H2.1V1.1Z" transform="translate(298.8 192.9)" fill="#fff"/><path d="M1.7,2,1,0,0,.3Z" transform="translate(300.4 193.3)" fill="#fff"/><path d="M1.8,2.1,0,.8.7,0Z" transform="translate(300.3 193.2)" fill="#fff"/><path d="M0,2.1,1.7.8,1,0Z" transform="translate(299.6 193.2)" fill="#fff"/><path d="M0,2,.6,0l1,.3Z" transform="translate(299.6 193.3)" fill="#fff"/><path d="M.8,0,0,2.6,1.2,3Z" transform="translate(306 187.1)" fill="#fff"/><path d="M.4,0l.8,2.6L0,3Z" transform="translate(306.4 187.1)" fill="#fff"/><path d="M2.6,0H0V1.3Z" transform="translate(306.7 189)" fill="#fff"/><path d="M2.9,0,.8,1.5,0,.5Z" transform="translate(306.4 189)" fill="#fff"/><path d="M0,0,2.1,1.5l.8-1Z" transform="translate(304.3 189)" fill="#fff"/><path d="M0,0H2.6V1.3Z" transform="translate(304.3 189)" fill="#fff"/><path d="M2.1,2.5,1.2,0,0,.4Z" transform="translate(306.3 189.4)" fill="#fff"/><path d="M2.2,2.6,0,1.1.8,0Z" transform="translate(306.2 189.3)" fill="#fff"/><path d="M0,2.6,2.2,1.1,1.4,0Z" transform="translate(305.2 189.3)" fill="#fff"/><path d="M0,2.5.9,0,2.1.4Z" transform="translate(305.2 189.4)" fill="#fff"/><path d="M.7,0,0,2l1,.4Z" transform="translate(292.4 190)" fill="#fff"/><path d="M.4,0,1,2,0,2.4Z" transform="translate(292.7 190)" fill="#fff"/><path d="M2.1,0H0V1Z" transform="translate(293 191.5)" fill="#fff"/><path d="M2.3,0,.6,1.2,0,.4Z" transform="translate(292.8 191.5)" fill="#fff"/><path d="M0,0,1.7,1.2,2.3.4Z" transform="translate(291.1 191.5)" fill="#fff"/><path d="M0,0H2.1V1Z" transform="translate(291.1 191.5)" fill="#fff"/><path d="M1.6,2.1,1,0,0,.3Z" transform="translate(292.7 191.8)" fill="#fff"/><path d="M1.7,2.1,0,.8.6,0Z" transform="translate(292.6 191.8)" fill="#fff"/><path d="M0,2.1,1.8.8,1.1,0Z" transform="translate(291.8 191.8)" fill="#fff"/><path d="M0,2.1.7,0l1,.3Z" transform="translate(291.8 191.8)" fill="#fff"/><path d="M.9,0,0,2.5l1.3.4Z" transform="translate(226.7 151.4)" fill="#fff"/><path d="M.5,0l.8,2.5L0,2.9Z" transform="translate(227.1 151.4)" fill="#fff"/><path d="M2.7,0H0V1.3Z" transform="translate(227.4 153.2)" fill="#fff"/><path d="M2.9,0,.7,1.6,0,.5Z" transform="translate(227.2 153.2)" fill="#fff"/><path d="M0,0,2.2,1.6,3,.5Z" transform="translate(225 153.2)" fill="#fff"/><path d="M0,0H2.7V1.3Z" transform="translate(225 153.2)" fill="#fff"/><path d="M2.1,2.5,1.3,0,0,.4Z" transform="translate(227 153.7)" fill="#fff"/><path d="M2.1,2.7,0,1.1.8,0Z" transform="translate(227 153.5)" fill="#fff"/><path d="M0,2.7,2.1,1.1,1.4,0Z" transform="translate(226 153.5)" fill="#fff"/><path d="M0,2.5.8,0,2.1.4Z" transform="translate(226 153.7)" fill="#fff"/><path d="M.6,0,0,2l1,.4Z" transform="translate(275.7 145.1)" fill="#fff"/><path d="M.3,0,1,2,0,2.4Z" transform="translate(276 145.1)" fill="#fff"/><path d="M2.1,0H0V1Z" transform="translate(276.2 146.6)" fill="#fff"/><path d="M2.3,0,.6,1.2,0,.4Z" transform="translate(276 146.6)" fill="#fff"/><path d="M0,0,1.7,1.2,2.3.4Z" transform="translate(274.3 146.6)" fill="#fff"/><path d="M0,0H2.1V1Z" transform="translate(274.3 146.6)" fill="#fff"/><path d="M1.7,2.1,1,0,0,.4Z" transform="translate(275.9 146.9)" fill="#fff"/><path d="M1.8,2.2,0,.9.7,0Z" transform="translate(275.8 146.8)" fill="#fff"/><path d="M0,2.2,1.7.9,1.1,0Z" transform="translate(275.1 146.8)" fill="#fff"/><path d="M0,2.1.6,0l1,.4Z" transform="translate(275.1 146.9)" fill="#fff"/><path d="M1,0,0,3.1l1.5.5Z" transform="translate(255 181.3)" fill="#fff"/><path d="M.5,0l1,3.1L0,3.6Z" transform="translate(255.5 181.3)" fill="#fff"/><path d="M3.2,0H0V1.6Z" transform="translate(255.8 183.5)" fill="#fff"/><path d="M3.5,0,1,1.9,0,.6Z" transform="translate(255.5 183.5)" fill="#fff"/><path d="M0,0,2.5,1.9,3.5.6Z" transform="translate(253 183.5)" fill="#fff"/><path d="M0,0H3.2V1.6Z" transform="translate(253 183.5)" fill="#fff"/><path d="M2.5,3l-1-3L0,.5Z" transform="translate(255.4 184.1)" fill="#fff"/><path d="M2.6,3.2,0,1.3.9,0Z" transform="translate(255.3 183.9)" fill="#fff"/><path d="M0,3.2,2.6,1.3,1.7,0Z" transform="translate(254.1 183.9)" fill="#fff"/><path d="M0,3,1,0,2.5.5Z" transform="translate(254.1 184.1)" fill="#fff"/><path d="M.8,0,0,2.5,1.3,3Z" transform="translate(263.8 167)" fill="#fff"/><path d="M.4,0l.9,2.5L0,3Z" transform="translate(264.2 167)" fill="#fff"/><path d="M2.7,0H0V1.3Z" transform="translate(264.5 168.9)" fill="#fff"/><path d="M3,0,.8,1.5,0,.4Z" transform="translate(264.2 168.9)" fill="#fff"/><path d="M0,0,2.2,1.5,2.9.4Z" transform="translate(262.1 168.9)" fill="#fff"/><path d="M0,0H2.7V1.3Z" transform="translate(262.1 168.9)" fill="#fff"/><path d="M2.1,2.5,1.3,0,0,.4Z" transform="translate(264.1 169.3)" fill="#fff"/><path d="M2.2,2.6,0,1.1.8,0Z" transform="translate(264 169.2)" fill="#fff"/><path d="M0,2.6,2.1,1.1,1.3,0Z" transform="translate(263.1 169.2)" fill="#fff"/><path d="M0,2.5.8,0,2.1.4Z" transform="translate(263.1 169.3)" fill="#fff"/><path d="M.8,0,0,2.6,1.2,3Z" transform="translate(255.2 160.3)" fill="#fff"/><path d="M.4,0l.8,2.6L0,3Z" transform="translate(255.6 160.3)" fill="#fff"/><path d="M2.6,0H0V1.3Z" transform="translate(255.9 162.2)" fill="#fff"/><path d="M2.9,0,.8,1.5,0,.4Z" transform="translate(255.6 162.2)" fill="#fff"/><path d="M0,0,2.1,1.5,2.9.4Z" transform="translate(253.5 162.2)" fill="#fff"/><path d="M0,0H2.6V1.3Z" transform="translate(253.5 162.2)" fill="#fff"/><path d="M2.1,2.5,1.2,0,0,.4Z" transform="translate(255.5 162.6)" fill="#fff"/><path d="M2.2,2.6,0,1.1.8,0Z" transform="translate(255.4 162.5)" fill="#fff"/><path d="M0,2.6,2.2,1.1,1.4,0Z" transform="translate(254.4 162.5)" fill="#fff"/><path d="M0,2.5.9,0,2.1.4Z" transform="translate(254.4 162.6)" fill="#fff"/><path d="M.7,0,0,2l1,.3Z" transform="translate(247.8 167.6)" fill="#fff"/><path d="M.4,0,1,2,0,2.3Z" transform="translate(248.1 167.6)" fill="#fff"/><path d="M2.1,0H0V1.1Z" transform="translate(248.4 169)" fill="#fff"/><path d="M2.3,0,.6,1.3,0,.4Z" transform="translate(248.2 169)" fill="#fff"/><path d="M0,0,1.7,1.3,2.3.4Z" transform="translate(246.5 169)" fill="#fff"/><path d="M0,0H2.1V1.1Z" transform="translate(246.5 169)" fill="#fff"/><path d="M1.6,2,1,0,0,.3Z" transform="translate(248.1 169.4)" fill="#fff"/><path d="M1.7,2.1,0,.9.6,0Z" transform="translate(248 169.3)" fill="#fff"/><path d="M0,2.1,1.8.9,1.1,0Z" transform="translate(247.2 169.3)" fill="#fff"/><path d="M0,2,.7,0l1,.3Z" transform="translate(247.2 169.4)" fill="#fff"/><path d="M.55,0,.15,1.5l.7.2Z" transform="translate(251.65 173.3)" fill="#fff"/><path d="M.35,0l.5,1.5-.7.2Z" transform="translate(251.85 173.3)" fill="#fff"/><path d="M1.5.1H0V.9Z" transform="translate(252.2 174.3)" fill="#fff"/><path d="M1.7.05.5.95,0,.35Z" transform="translate(252 174.35)" fill="#fff"/><path d="M0,.05l1.2.9.5-.6Z" transform="translate(250.8 174.35)" fill="#fff"/><path d="M0,.1H1.5V.9Z" transform="translate(250.8 174.3)" fill="#fff"/><path d="M1.2,1.5.8,0,0,.3Z" transform="translate(251.9 174.6)" fill="#fff"/><path d="M1.2,1.5,0,.6.5,0Z" transform="translate(251.9 174.6)" fill="#fff"/><path d="M0,1.5,1.3.6.8,0Z" transform="translate(251.3 174.6)" fill="#fff"/><path d="M0,1.5.5,0l.7.3Z" transform="translate(251.3 174.6)" fill="#fff"/><path d="M.9,0,0,2.6,1.3,3Z" transform="translate(277.5 198.6)" fill="#fff"/><path d="M.5,0l.8,2.6L0,3Z" transform="translate(277.9 198.6)" fill="#fff"/><path d="M2.7,0H0V1.4Z" transform="translate(278.2 200.4)" fill="#fff"/><path d="M3,0,.8,1.6,0,.5Z" transform="translate(277.9 200.4)" fill="#fff"/><path d="M0,0,2.2,1.6,3,.5Z" transform="translate(275.8 200.4)" fill="#fff"/><path d="M0,0H2.7V1.4Z" transform="translate(275.8 200.4)" fill="#fff"/><path d="M2.1,2.5,1.3,0,0,.4Z" transform="translate(277.8 200.9)" fill="#fff"/><path d="M2.1,2.6,0,1.1.7,0Z" transform="translate(277.8 200.8)" fill="#fff"/><path d="M0,2.6,2.1,1.1,1.4,0Z" transform="translate(276.8 200.8)" fill="#fff"/><path d="M0,2.5.8,0,2.1.4Z" transform="translate(276.8 200.9)" fill="#fff"/><path d="M.6,0,0,2.1l1,.3Z" transform="translate(284.1 192.5)" fill="#fff"/><path d="M.3,0,1,2.1,0,2.4Z" transform="translate(284.4 192.5)" fill="#fff"/><path d="M2.2,0H0V1.1Z" transform="translate(284.6 194)" fill="#fff"/><path d="M2.4,0,.7,1.3,0,.4Z" transform="translate(284.4 194)" fill="#fff"/><path d="M0,0,1.7,1.3,2.4.4Z" transform="translate(282.7 194)" fill="#fff"/><path d="M0,0H2.2V1.1Z" transform="translate(282.7 194)" fill="#fff"/><path d="M1.7,2,1,0,0,.3Z" transform="translate(284.3 194.4)" fill="#fff"/><path d="M1.7,2.1,0,.9.6,0Z" transform="translate(284.3 194.3)" fill="#fff"/><path d="M0,2.1,1.7.9,1.1,0Z" transform="translate(283.5 194.3)" fill="#fff"/><path d="M0,2,.7,0l1,.3Z" transform="translate(283.5 194.4)" fill="#fff"/><path d="M.7,0,0,2l1,.4Z" transform="translate(271.8 190.7)" fill="#fff"/><path d="M.4,0,1,2,0,2.4Z" transform="translate(272.1 190.7)" fill="#fff"/><path d="M2.1,0H0V1.1Z" transform="translate(272.4 192.2)" fill="#fff"/><path d="M2.4,0,.7,1.2,0,.4Z" transform="translate(272.1 192.2)" fill="#fff"/><path d="M0,0,1.8,1.2,2.4.4Z" transform="translate(270.4 192.2)" fill="#fff"/><path d="M0,0H2.2V1.1Z" transform="translate(270.4 192.2)" fill="#fff"/><path d="M1.7,2.1,1.1,0,0,.4Z" transform="translate(272 192.5)" fill="#fff"/><path d="M1.7,2.1,0,.8.6,0Z" transform="translate(272 192.5)" fill="#fff"/><path d="M0,2.1,1.7.8,1.1,0Z" transform="translate(271.2 192.5)" fill="#fff"/><path d="M0,2.1.7,0l1,.4Z" transform="translate(271.2 192.5)" fill="#fff"/><path d="M.9,0,0,3l1.5.6Z" transform="translate(225.1 187.4)" fill="#fff"/><path d="M.5,0l1,3L0,3.6Z" transform="translate(225.5 187.4)" fill="#fff"/><path d="M3.2,0H0V1.6Z" transform="translate(225.9 189.6)" fill="#fff"/><path d="M3.5,0,.9,1.9,0,.6Z" transform="translate(225.6 189.6)" fill="#fff"/><path d="M0,0,2.6,1.9,3.5.6Z" transform="translate(223 189.6)" fill="#fff"/><path d="M0,0H3.2V1.6Z" transform="translate(223 189.6)" fill="#fff"/><path d="M2.5,3l-1-3L0,.5Z" transform="translate(225.4 190.2)" fill="#fff"/><path d="M2.6,3.2,0,1.3,1,0Z" transform="translate(225.3 190)" fill="#fff"/><path d="M0,3.2,2.6,1.3,1.7,0Z" transform="translate(224.1 190)" fill="#fff"/><path d="M0,3,1,0,2.6.5Z" transform="translate(224.1 190.2)" fill="#fff"/><path d="M.55,0,.25,1.1l.5.1Z" transform="translate(255.45 208.3)" fill="#fff"/><path d="M.45,0l.3,1.1-.5.1Z" transform="translate(255.55 208.3)" fill="#fff"/><path d="M1.1.25H0v.5Z" transform="translate(255.9 208.85)" fill="#fff"/><path d="M1.2.2.4.8,0,.4Z" transform="translate(255.8 208.9)" fill="#fff"/><path d="M0,.2.9.8,1.2.4Z" transform="translate(255 208.9)" fill="#fff"/><path d="M0,.25H1.1v.5Z" transform="translate(255 208.85)" fill="#fff"/><path d="M.9,1,.6,0,.1.1Z" transform="translate(255.7 209.3)" fill="#fff"/><path d="M.9,1.1.1.4.4,0Z" transform="translate(255.7 209.2)" fill="#fff"/><path d="M.1,1.1.9.4.6,0Z" transform="translate(255.3 209.2)" fill="#fff"/><path d="M.1,1,.4,0,.9.1Z" transform="translate(255.3 209.3)" fill="#fff"/></g></g></svg>