<svg xmlns="http://www.w3.org/2000/svg" width="512" height="300"><defs><clipPath id="a"><path d="M0 0h512v300H0z"/></clipPath></defs><g clip-path="url(#a)"><path fill="#2f4ba1" d="M0 0h512v300H0Z" data-name="Path 1348"/><path fill="#e0193a" d="M0 75h512v150H0Z" data-name="Path 1349"/><g data-name="Group 204"><g fill="#fff" stroke="#000" data-name="Group 199"><path stroke-linejoin="bevel" stroke-width="1.536" d="M213.747 140.621h85.35v32.841h-85.35Z" data-name="Path 1350"/><path stroke-linejoin="bevel" stroke-width="1.536" d="M294.694 158.756h2.69v12.368h-2.69Zm-80.947-6.113h85.35v3.818h-85.35Zm0-5.175h85.35v3.367h-85.35Z" data-name="Path 1351"/><path stroke-linejoin="bevel" stroke-width="1.512" d="M213.747 142.301h85.35v3.266h-85.35Z" data-name="Path 1352"/><path stroke-linejoin="bevel" stroke-width="1.536" d="M236.217 158.756h2.689v12.376h-2.689Zm36.743 0h2.69v12.376h-2.69Zm-58.538 0h2.689v12.376h-2.689Zm5.273 0h2.689v12.376h-2.689Zm5.625 0h2.689v12.376h-2.689Zm5.625 0h2.689v12.376h-2.689Zm47.115 0h2.69v12.376h-2.69Zm5.625 0h2.69v12.376h-2.69Zm5.625 0H292v12.376h-2.69Z" data-name="Path 1353"/><path stroke-width="1.536" d="M180.364 175.188a7.005 7.005 0 0 0 3.318-3.99h144.8a7.007 7.007 0 0 0 3.319 3.99Z" data-name="Path 1354"/></g><path fill="#fff" stroke="#000" stroke-width="1.536" d="M254.231 90.626s-.108-3.084 1.687-3.118c1.8.033 1.688 3.118 1.688 3.118Zm-9.368 40.905v-4.152c-.06-2.076-2.07-2.226-2.128-3.74a7.165 7.165 0 0 1 .339-3.306c.813 3.035 2.292 2.478 2.292 1.23 0-1.09-.838-2.1-2.556-4.747-.549-.846-.21-3.495.56-4.442.3 2.3.639 3.405 1.628 3.405.6 0 1.1-.393 1.1-1.547 0-1.468-.994-2.209-1.483-3.544a3.771 3.771 0 0 1 .77-4.035c.406 2.272.285 3.178 1.3 3.178 2.035-.643 0-3.589-.435-4.333-.5-.866.673-2.595.673-2.595.647 2.017.855 2.182 1.553 1.995.88-.236.767-1.542-.307-2.6a1.7 1.7 0 0 1 .122-2.456c.731 1.429 1.667 1.342 1.757.494l-.588-3.294h12.941l-.642 3.188c-.184.911 1.047 1.11 1.812-.386a1.7 1.7 0 0 1 .122 2.455c-1.074 1.055-1.188 2.361-.307 2.6.7.188.906.022 1.552-1.995a3.063 3.063 0 0 1 .673 2.595c-.435.743-2.47 3.69-.435 4.333 1.009 0 .889-.906 1.294-3.178a3.77 3.77 0 0 1 .769 4.035c-.487 1.335-1.482 2.076-1.482 3.544 0 1.154.493 1.547 1.1 1.547.99 0 1.331-1.1 1.63-3.405.769.947 1.108 3.6.56 4.442-1.717 2.645-2.556 3.658-2.556 4.747 0 1.248 1.477 1.805 2.292-1.23a7.168 7.168 0 0 1 .337 3.306c-.059 1.514-2.069 1.664-2.128 3.74v4.152Zm5.415-34.515-.3-2.344h11.878l-.3 2.344Zm.8-2.393-.255-1.927h10.2l-.255 1.927Zm1.62-1.995-.17-1.927h6.793l-.169 1.927Zm24.765 82.56c-1.52-.585-3.733-2.19-3.733-3.8v-18.225l1.979-2.518h-39.586l1.9 2.52v18.222c0 1.613-1.52 3.218-3.04 3.8Z" data-name="Path 1355"/><path fill="#fff" stroke="#000" stroke-linejoin="bevel" stroke-width="1.536" d="M243.161 158.756h2.69v12.376h-2.69Zm22.74 0h2.69v12.376h-2.69Z" data-name="Path 1356"/><path fill="#fff" stroke="#000" stroke-width="1.536" d="M235.413 129.903v20.742h40.517v-4.468l.058-16.275a3.152 3.152 0 0 0-1.947 2.152v8.833h-36.562v-8.833a3.515 3.515 0 0 0-2.066-2.152Z" data-name="Path 1357"/><path fill="#fff" stroke="#000" stroke-width="1.536" d="M270.431 175.183c-1.325-.585-4.209-2.19-4.209-3.8v-20.39c.283-1.138 1.827-1.81 2.82-2.518h-26.866c1.279.676 2.7 1.239 3.214 2.52v20.388c0 1.612-2.28 3.217-3.6 3.8Z" data-name="Path 1358"/><path fill="#fff" stroke="#000" stroke-width="1.536" d="M274.043 148.691v-14.69h-3.682v-1.432h-29.13v1.432h-3.688v14.69Zm-9.412 26.5c-1.3-.585-3.187-2.19-3.187-3.8v-17.41l1.066-1.583h-13.273l1.065 1.583v17.411c0 1.614-1.89 3.217-3.187 3.8Z" data-name="Path 1359"/><path fill="#fff" stroke="#000" stroke-width="1.57" d="M252.513 152.396h6.725v22.783h-6.725Z" data-name="Path 1360"/><path fill="#fff" stroke="#000" stroke-linejoin="bevel" stroke-width="1.536" d="M262.766 147.385c.015-1.5 4.379-1.568 6.624-2.846h-26.964c2.246 1.278 6.506 1.383 6.506 2.846l.913 2.911 11.162.449Z" data-name="Path 1361"/><path fill="#fff" stroke="#000" stroke-width="1.536" d="M268.039 131.531c0-3.675.154-5.089 1.283-5.089v11.685c-2.768 1.005-4.744 4.538-4.744 4.538H247.17s-1.976-3.533-4.745-4.538v-11.685c1.391 0 1.4 1.479 1.4 5.089Zm1.283-1.507a4.4 4.4 0 0 1 3.638-4.687v3.75c-1.384-.06-2.052 1.183-2.052 3.033s1.115 1.88 1.115 1.88v10.642h-2.7Z" data-name="Path 1362"/><path fill="#fff" stroke="#000" stroke-width="1.536" d="M242.442 130.024a4.4 4.4 0 0 0-3.638-4.687v3.75c1.384-.06 2.052 1.183 2.052 3.033s-1.115 1.88-1.115 1.88v10.642h2.7Z" data-name="Path 1363"/><g fill="none" stroke="#000" data-name="Group 200"><path stroke-width="1.28" d="M249.611 100.991h12.846m-14.368 4.008h15.69m-17.212 4.867h18.678m-20.268 5.947h22.151m-22.662 6.78h22.819" data-name="Path 1364"/><path stroke-width="1.536" d="M237.544 144.716h36.5m-24.915.008h13.527v4.972h-13.532Z" data-name="Path 1365"/></g><path fill="#fff" stroke="#000" stroke-width="1.536" d="M247.429 133.705c2.243 2.693 2.035 7.26 2.01 9.953h13.002c-.026-2.693-.234-7.26 2.008-9.953Zm7.313-30.848-1.782-.918v-2.623c.728.218 1.547.307 1.626 1.469.254-1.657.711-1.576 1.43-2.222.718.645 1.175.565 1.429 2.222.08-1.161.9-1.25 1.627-1.47v2.623l-1.784.918Z" data-name="Path 1366"/><path fill="#fff" stroke="#000" stroke-width="1.536" d="m254.621 107.163-2.96-2.035v-2.417c1.037.24 2.2.337 2.316 1.612a4.9 4.9 0 0 1 2.036-3.465 4.9 4.9 0 0 1 2.036 3.465c.114-1.275 1.279-1.372 2.318-1.612v2.417l-2.961 2.035Z" data-name="Path 1367"/><path fill="#fff" stroke="#000" stroke-width="1.536" d="m254.412 113.876-3.4-2.989v-3.552c1.193.352 2.533.5 2.664 2.367.415-2.67 1.164-4.05 2.34-5.09 1.178 1.04 1.928 2.419 2.342 5.089.131-1.87 1.47-2.014 2.663-2.368v3.551l-3.4 2.989Zm6.277 3.967-3.078 4.257h-3.484l-3.077-4.257Zm-11.415 7.152c1.54.841 2.107 2.518 2.273 5.665h8.662c.165-3.147.733-4.823 2.273-5.665Z" data-name="Path 1368"/><path fill="#fff" stroke="#000" stroke-linejoin="bevel" stroke-width="1.536" d="M262.606 117.842v-4.276a3.913 3.913 0 0 0-2.832 2.444c0-1.42-1.867-4.693-3.905-6.323-2.043 1.824-3.943 4.785-3.9 6.323a3.89 3.89 0 0 0-2.831-2.444v4.276Z" data-name="Path 1369"/><path fill="#fff" stroke="#000" stroke-linejoin="bevel" stroke-width="1.536" d="M263.261 124.991v-4.276a4.188 4.188 0 0 0-3.1 2.443c0-1.42-2.048-4.693-4.28-6.323-2.24 1.824-4.322 4.785-4.28 6.323a4.161 4.161 0 0 0-3.1-2.443v4.276Z" data-name="Path 1370"/><path fill="#fff" stroke="#000" stroke-linejoin="bevel" stroke-width="1.536" d="M265.061 133.767v-4.933a7.127 7.127 0 0 0-3.863 2.85c0-2.67-3.015-6.742-5.325-8.076-2.37 1.369-5.325 5.576-5.325 8.076a7.218 7.218 0 0 0-3.863-2.85v4.933Z" data-name="Path 1371"/><path fill="#fff" stroke="#000" stroke-linejoin="bevel" stroke-width="1.536" d="M263.981 144.716v-5.072c-1.76.69-2.286 2.385-2.84 3.538.217-5.145-2.9-10.673-5.268-12.075-2.372 1.4-5.545 7.05-5.268 12.075-.569-1.145-1.08-2.848-2.84-3.538v5.072Z" data-name="Path 1372"/><path fill="#fff" stroke="#000" stroke-width="1.536" d="M262.755 152.395v-5.072c-1.844.439-1.957 1.117-2.544 2.255a9.515 9.515 0 0 0-4.33-7.98 9.517 9.517 0 0 0-4.331 7.98c-.585-1.136-.658-1.815-2.542-2.255v5.072Z" data-name="Path 1373"/><g fill="#fff" stroke="#000"><path stroke-width="1.536" d="M183.682 171.198v-15.33a6.016 6.016 0 0 0-3.405-4.024v-13.5l2.8 1.518 3.2 14.108v17.224Z" data-name="Path 1374"/><path stroke-width="1.536" d="M183.682 171.258v-15.39a6.016 6.016 0 0 0-3.405-4.024v-14.432c1.882 0 2.8 2.455 2.8 2.455l3.2 14.107v17.165Z" data-name="Path 1375"/><path stroke-width="1.536" d="M181.687 175.188c1.3-.585 3.188-2.19 3.188-3.8v-19.164l-.89-1.581h32.642l-1.273 1.581v19.16a4.587 4.587 0 0 0 2.6 3.8Z" data-name="Path 1376"/><path stroke-width="1.536" d="M211.361 175.188c-1.3-.585-3.187-2.19-3.187-3.8v-18.223l2.715-2.52h-22.191l2.715 2.518v18.223c0 1.613-1.89 3.218-3.188 3.8Z" data-name="Path 1377"/><path stroke-width="1.536" d="M208.249 175.188c-1.3-.585-3.187-2.19-3.187-3.8v-16.474l1.777-2.52h-14.1l1.778 2.52v16.474c0 1.613-1.89 3.218-3.187 3.8Z" data-name="Path 1378"/><path stroke-width="1.536" d="M196.421 152.395h6.736v22.795h-6.736Z" data-name="Path 1379"/><path stroke-linejoin="bevel" stroke-width="1.536" d="M187.256 158.755h2.689v12.371h-2.689Zm23.063 0h2.689v12.371h-2.689Zm-25.357-20.865h3.24v12.682h-3.24Zm0-2.385h3.221v2.355h-3.221Z" data-name="Path 1380"/><path stroke-linejoin="bevel" stroke-width="1.654" d="M211.608 140.62h4.62v9.79h-4.62Z" data-name="Path 1381"/><path stroke-width="1.536" d="M188.148 150.475V128.77c.924 0 1.066 3.18 3.188 3.18 1.1 0 .986-1.317.366-2.39a4.833 4.833 0 0 1-.305-4.71c.633 1.872 2.335 2.466 2.021 1.292-.54-2.016-2.1-2.347-.93-5.477.406 2.61 2.081 2.5 1.674.978-.458-1.71-1.4-2.411-.237-4.821.655 2.737 1.539 2.576 1.539.878 0-2.51-.1-5.217 3.152-6.221 0 0 .188-2.3 1.359-2.3s1.36 2.3 1.36 2.3c3.248 1.005 3.152 3.713 3.152 6.222 0 1.7.885 1.86 1.539-.877 1.168 2.41.221 3.111-.236 4.821-.408 1.517 1.268 1.633 1.673-.978 1.167 3.129-.389 3.461-.93 5.477-.313 1.174 1.388.58 2.021-1.292a4.834 4.834 0 0 1-.305 4.71c-.62 1.073-.737 2.39.367 2.39 2.12 0 2.262-3.18 3.186-3.18v21.7Zm-5.073-16.395v16.56h1.882v-16.6a1.656 1.656 0 0 0-1.882.04Z" data-name="Path 1382"/><path stroke-width="1.536" d="M183.133 144.8c2.334 1.193 4.646 2.575 5.231 5.845h-5.231Zm32.375-4.96v10.805h1.526v-10.832a1.616 1.616 0 0 0-1.526.027Z" data-name="Path 1383"/><path stroke-width="1.536" d="M217.038 144.715c-2.334 1.193-4.646 2.575-5.231 5.845h5.231Z" data-name="Path 1384"/><path stroke-width="1.536" d="m201.603 119.478 1.361-1.144v-1.464a1.438 1.438 0 0 0-1.137.7 3.76 3.76 0 0 0-1.921-2.2 3.7 3.7 0 0 0-1.922 2.165 1.4 1.4 0 0 0-1.137-.668v1.465l1.361 1.144Z" data-name="Path 1385"/><path stroke-width="1.536" d="m202.331 123.145.632-1.369v-1.9a1.437 1.437 0 0 0-1.137.712 3.8 3.8 0 0 0-1.922-2.23 3.732 3.732 0 0 0-1.922 2.2 1.4 1.4 0 0 0-1.137-.677v1.905l.633 1.368Z" data-name="Path 1386"/><path stroke-width="1.536" d="m202.428 128.117 2.018-2.46v-2.432a2.114 2.114 0 0 0-1.689 1.2c-.465-1.667-1.485-2.031-2.854-2.84-1.369.809-2.39 1.114-2.855 2.78a2.037 2.037 0 0 0-1.687-1.145v2.437l2.02 2.465Z" data-name="Path 1387"/><path stroke-width="1.536" d="M203.021 133.001s2.355-2.055 2.5-3.183v-2.6a2.965 2.965 0 0 0-2.45 1.412c-.574-2.153-1.47-2.753-3.159-3.8-1.69 1.044-2.585 1.644-3.159 3.8a2.966 2.966 0 0 0-2.45-1.412v2.6c.3 1.128 2.495 3.183 2.495 3.183Z" data-name="Path 1388"/><path stroke-width="1.536" d="M204.025 142.015s3.225-3.57 3.3-4.962v-4.055a4.51 4.51 0 0 0-3.24 2.662c-.759-3.355-1.942-5.7-4.178-7.323-2.235 1.627-3.42 3.967-4.177 7.324a4.513 4.513 0 0 0-3.242-2.664v4.055c.231 1.391 3.3 4.962 3.3 4.962Z" data-name="Path 1389"/><path stroke-width="1.536" d="M204.025 147.348a24.811 24.811 0 0 0 3.3-4.025v-4.054a4.51 4.51 0 0 0-3.24 2.662c-.759-3.355-1.942-5.277-4.178-6.9-2.235 1.628-3.42 3.549-4.177 6.905a4.511 4.511 0 0 0-3.242-2.664v4.052a37.547 37.547 0 0 0 3.3 4.024Z" data-name="Path 1390"/><path stroke-width="1.536" d="M205.136 150.443c-.8-3.5-1.5-6.1-5.372-8.73-3.875 2.633-4.568 5.229-5.372 8.73Z" data-name="Path 1391"/><path stroke-width="1.536" d="M207.131 152.395v-5.071c-1.759.69-3.35 1.71-3.937 2.846-.654-2.816-1.917-4.056-3.489-5.76a11.1 11.1 0 0 0-3.281 5.76c-.587-1.136-2.176-2.156-3.937-2.846v5.071Z" data-name="Path 1392"/></g><g fill="#fff" stroke="#000" data-name="Group 201"><path stroke-width="1.536" d="M328.335 171.198v-15.33a6.016 6.016 0 0 1 3.405-4.025v-13.5l-2.8 1.518-3.2 14.107v17.23Z" data-name="Path 1393"/><path stroke-width="1.536" d="M328.335 171.258v-15.39a6.016 6.016 0 0 1 3.405-4.024v-14.432c-1.882 0-2.8 2.455-2.8 2.455l-3.2 14.107v17.166Z" data-name="Path 1394"/><path stroke-width="1.536" d="M330.33 175.188c-1.3-.585-3.188-2.19-3.188-3.8v-19.16l.888-1.584h-32.64l1.273 1.581v19.163a4.587 4.587 0 0 1-2.6 3.8Z" data-name="Path 1395"/><path stroke-width="1.536" d="M300.656 175.188c1.3-.585 3.187-2.19 3.187-3.8v-18.225l-2.715-2.52h22.191l-2.715 2.518v18.227c0 1.61 1.888 3.215 3.188 3.8Z" data-name="Path 1396"/><path stroke-width="1.536" d="M303.768 175.188c1.3-.585 3.188-2.19 3.188-3.8v-16.476l-1.777-2.52h14.098l-1.778 2.52v16.476c0 1.61 1.888 3.215 3.188 3.8Z" data-name="Path 1397"/><path stroke-width="1.536" d="M315.596 152.395h-6.736v22.795h6.736Z" data-name="Path 1398"/><path stroke-linejoin="bevel" stroke-width="1.536" d="M324.761 158.756h-2.689v12.371h2.689Zm-23.062 0h-2.689v12.371h2.689Zm25.357-20.865h-3.24v12.682h3.24Zm0-2.385h-3.221v2.355h3.221Z" data-name="Path 1399"/><path stroke-linejoin="bevel" stroke-width="1.654" d="M300.409 140.621h-4.62v9.79h4.62Z" data-name="Path 1400"/><path stroke-width="1.536" d="M323.868 150.475V128.77c-.924 0-1.066 3.18-3.188 3.18-1.1 0-.986-1.317-.366-2.39a4.833 4.833 0 0 0 .305-4.71c-.633 1.872-2.335 2.466-2.021 1.292.54-2.016 2.1-2.348.93-5.477-.407 2.61-2.081 2.5-1.674.978.458-1.71 1.4-2.41.237-4.821-.655 2.737-1.539 2.576-1.539.877 0-2.51.1-5.217-3.152-6.221 0 0-.188-2.3-1.359-2.3s-1.36 2.3-1.36 2.3c-3.248 1.005-3.152 3.713-3.152 6.222 0 1.7-.885 1.86-1.539-.877-1.168 2.41-.221 3.111.236 4.821.408 1.517-1.268 1.633-1.673-.978-1.167 3.129.389 3.461.93 5.477.313 1.174-1.388.58-2.021-1.292a4.834 4.834 0 0 0 .305 4.71c.62 1.073.737 2.39-.368 2.39-2.119 0-2.262-3.18-3.186-3.18v21.706Zm5.075-16.395v16.56h-1.882v-16.6a1.656 1.656 0 0 1 1.882.04Z" data-name="Path 1401"/><path stroke-width="1.536" d="M328.884 144.798c-2.334 1.193-4.646 2.575-5.231 5.848h5.231Zm-32.375-4.957v10.805h-1.525v-10.832a1.616 1.616 0 0 1 1.525.027Z" data-name="Path 1402"/><path stroke-width="1.536" d="M294.979 144.715c2.331 1.193 4.646 2.575 5.231 5.845h-5.231Z" data-name="Path 1403"/><path stroke-width="1.536" d="m310.414 119.478-1.361-1.144v-1.465a1.438 1.438 0 0 1 1.137.7 3.76 3.76 0 0 1 1.921-2.2 3.7 3.7 0 0 1 1.923 2.168 1.4 1.4 0 0 1 1.137-.668v1.465l-1.361 1.144Z" data-name="Path 1404"/><path stroke-width="1.536" d="m309.687 123.146-.632-1.369v-1.9a1.438 1.438 0 0 1 1.137.712 3.8 3.8 0 0 1 1.922-2.23 3.732 3.732 0 0 1 1.921 2.187 1.4 1.4 0 0 1 1.137-.673v1.9l-.633 1.373Z" data-name="Path 1405"/><path stroke-width="1.536" d="m309.589 128.118-2.021-2.465v-2.435a2.113 2.113 0 0 1 1.685 1.207c.465-1.667 1.485-2.031 2.854-2.84 1.369.809 2.39 1.114 2.854 2.78a2.037 2.037 0 0 1 1.692-1.147v2.435l-2.02 2.465Z" data-name="Path 1406"/><path stroke-width="1.536" d="M308.996 133s-2.355-2.055-2.5-3.183v-2.6a2.965 2.965 0 0 1 2.45 1.412c.574-2.152 1.47-2.753 3.159-3.8 1.69 1.044 2.585 1.644 3.159 3.8a2.966 2.966 0 0 1 2.455-1.413v2.6c-.3 1.128-2.494 3.184-2.494 3.184Z" data-name="Path 1407"/><path stroke-width="1.536" d="M307.992 142.015s-3.225-3.57-3.3-4.962v-4.055a4.51 4.51 0 0 1 3.236 2.663c.759-3.355 1.942-5.7 4.178-7.323 2.238 1.627 3.422 3.967 4.181 7.324a4.513 4.513 0 0 1 3.241-2.664v4.054c-.231 1.391-3.3 4.963-3.3 4.963Z" data-name="Path 1408"/><path stroke-width="1.536" d="M307.992 147.348a24.81 24.81 0 0 1-3.3-4.025v-4.054a4.51 4.51 0 0 1 3.236 2.662c.759-3.355 1.942-5.277 4.178-6.9 2.238 1.623 3.422 3.545 4.181 6.901a4.511 4.511 0 0 1 3.241-2.664v4.055a37.544 37.544 0 0 1-3.3 4.025Z" data-name="Path 1409"/><path stroke-width="1.536" d="M306.881 150.445c.8-3.5 1.5-6.1 5.372-8.73 3.873 2.63 4.573 5.23 5.373 8.73Z" data-name="Path 1410"/><path stroke-width="1.536" d="M304.887 152.395v-5.072c1.759.69 3.35 1.71 3.937 2.846.654-2.816 1.917-4.056 3.489-5.76a11.1 11.1 0 0 1 3.281 5.76c.587-1.136 2.177-2.156 3.938-2.846v5.072Z" data-name="Path 1411"/></g><g fill="#fff" stroke="#000" data-name="Group 202"><path stroke-width="1.536" d="M176.54 174.986v4.63h158.917v-4.63Zm-2.877 4.672v6.037h164.67v-6.037Zm164.67 6.037-164.67.045-4.813-.045v7.967h174.3v-7.965Zm-174.332 8.018v9.382h184v-9.382Zm184 9.382v.015h-184v-.015h-4.85v9.382h193.7v-9.382Z" data-name="Path 1412"/><path stroke-width="1.672" d="M193.789 175.012h12v37.451h-12Z" data-name="Path 1413"/><path stroke-width="1.669" d="M196.443 175.012h6.688v37.452h-6.688Z" data-name="Path 1414"/><path stroke-width="1.672" d="M249.791 175.012h12v37.451h-12Z" data-name="Path 1415"/><path stroke-width="1.669" d="M252.528 175.012h6.688v37.452h-6.688Z" data-name="Path 1416"/><path stroke-width="1.672" d="M306.119 175.012h12v37.451h-12Z" data-name="Path 1417"/><path stroke-width="1.669" d="M308.778 175.012h6.688v37.452h-6.688Z" data-name="Path 1418"/></g><g data-name="Group 203"><path fill="none" stroke="#000" stroke-width="1.536" d="M183.686 171.198h144.8m-132.161 36.555h6.933m-6.933-4.687h6.933m-6.933-4.687h6.933m-6.933-4.687h6.933m-6.933-4.687h6.933m-6.933-4.687h6.933m-6.933-4.687h6.933m49.3 28.132h6.455m-6.455-4.69h6.455m-6.455-4.69h6.455m-6.455-4.69h6.455m-6.455-4.69h6.455m-6.455-4.69h6.455m-6.455-4.691h6.455m49.645 28.133h6.933m-6.933-4.687h6.933m-6.933-4.687h6.933m-6.933-4.687h6.933m-6.933-4.687h6.933m-6.933-4.687h6.933m-6.933-4.687h6.933" data-name="Path 1419"/></g></g></g></svg>