<svg xmlns="http://www.w3.org/2000/svg" xmlns:xlink="http://www.w3.org/1999/xlink" width="512" height="300" viewBox="0 0 512 300"><defs><clipPath id="b"><rect width="512" height="300"/></clipPath></defs><g id="a" clip-path="url(#b)"><path d="M0,0H512V300H0Z" fill="#2f4ba1"/><path d="M0,160H512V310H0Z" transform="translate(0 -85)" fill="#e0193a"/><g transform="translate(159.152 87.508)"><g transform="translate(21.212 53.113)"><path d="M222.432,997.536h85.35v32.841h-85.35Z" transform="translate(-189.049 -997.536)" fill="#fff" stroke="#000" stroke-linejoin="bevel" stroke-width="1.536"/><path d="M303.379,1023.432h2.69V1035.8h-2.69Zm-80.947-6.113h85.35v3.818h-85.35Zm0-5.175h85.35v3.367h-85.35Z" transform="translate(-189.049 -1005.297)" fill="#fff" stroke="#000" stroke-linejoin="bevel" stroke-width="1.536"/><path d="M222.432,1001.12h85.35v3.266h-85.35Z" transform="translate(-189.049 -999.44)" fill="#fff" stroke="#000" stroke-linejoin="bevel" stroke-width="1.512"/><path d="M245.667,1036.224h2.689V1048.6h-2.689Zm36.743,0H285.1V1048.6H282.41Zm-58.538,0h2.689V1048.6h-2.689Zm5.273,0h2.689V1048.6h-2.689Zm5.625,0h2.689V1048.6H234.77Zm5.625,0h2.689V1048.6h-2.689Zm47.115,0h2.69V1048.6h-2.69Zm5.625,0h2.69V1048.6h-2.69Zm5.625,0h2.69V1048.6h-2.69Z" transform="translate(-189.814 -1018.089)" fill="#fff" stroke="#000" stroke-linejoin="bevel" stroke-width="1.536"/><path d="M151.216,1066.758a7.005,7.005,0,0,0,3.318-3.99h144.8a7.007,7.007,0,0,0,3.319,3.99Z" transform="translate(-151.216 -1032.191)" fill="#fff" stroke="#000" stroke-width="1.536"/></g><path d="M286.983,887.347s-.108-3.084,1.687-3.118c1.8.033,1.688,3.118,1.688,3.118Zm-9.368,40.905V924.1c-.06-2.076-2.07-2.226-2.128-3.74a7.165,7.165,0,0,1,.339-3.306c.813,3.035,2.292,2.478,2.292,1.23,0-1.09-.838-2.1-2.556-4.747-.549-.846-.21-3.495.56-4.442.3,2.3.639,3.405,1.628,3.405.6,0,1.1-.393,1.1-1.547,0-1.468-.994-2.209-1.483-3.544a3.771,3.771,0,0,1,.77-4.035c.406,2.272.285,3.178,1.3,3.178,2.035-.643,0-3.589-.435-4.333-.5-.866.673-2.595.673-2.595.647,2.017.855,2.182,1.553,1.995.88-.236.767-1.542-.307-2.6a1.7,1.7,0,0,1,.122-2.456c.731,1.429,1.667,1.342,1.757.494l-.588-3.294h12.941l-.642,3.188c-.184.911,1.047,1.11,1.812-.386a1.7,1.7,0,0,1,.122,2.455c-1.074,1.055-1.188,2.361-.307,2.6.7.188.906.022,1.552-1.995a3.063,3.063,0,0,1,.673,2.595c-.435.743-2.47,3.69-.435,4.333,1.009,0,.889-.906,1.294-3.178a3.77,3.77,0,0,1,.769,4.035c-.487,1.335-1.482,2.076-1.482,3.544,0,1.154.493,1.547,1.1,1.547.99,0,1.331-1.1,1.63-3.405.769.947,1.108,3.6.56,4.442-1.717,2.645-2.556,3.658-2.556,4.747,0,1.248,1.477,1.805,2.292-1.23a7.168,7.168,0,0,1,.337,3.306c-.059,1.514-2.069,1.664-2.128,3.74v4.152Zm5.415-34.515-.3-2.344h11.878l-.3,2.344Zm.8-2.393-.255-1.927h10.2l-.255,1.927Zm1.62-1.995-.17-1.927h6.793l-.169,1.927Zm24.765,82.56c-1.52-.585-3.733-2.19-3.733-3.8V949.884l1.979-2.518H268.875l1.9,2.52v18.222c0,1.613-1.52,3.218-3.04,3.8Z" transform="translate(-191.904 -884.229)" fill="#fff" stroke="#000" stroke-width="1.536"/><path d="M285.184,1036.224h2.69V1048.6h-2.69Zm22.74,0h2.69V1048.6h-2.69Z" transform="translate(-201.175 -964.976)" fill="#fff" stroke="#000" stroke-linejoin="bevel" stroke-width="1.536"/><path d="M268.656,974.671v20.742h40.517v-4.468l.058-16.275a3.152,3.152,0,0,0-1.947,2.152v8.833H270.722v-8.833a3.515,3.515,0,0,0-2.066-2.152Z" transform="translate(-192.395 -932.276)" fill="#fff" stroke="#000" stroke-width="1.536"/><path d="M310.894,1041c-1.325-.585-4.209-2.19-4.209-3.8V1016.81c.283-1.138,1.827-1.81,2.82-2.518H282.639c1.279.676,2.7,1.239,3.214,2.52V1037.2c0,1.612-2.28,3.217-3.6,3.8Z" transform="translate(-199.615 -953.325)" fill="#fff" stroke="#000" stroke-width="1.536"/><path d="M309.7,996.48v-14.69h-3.682v-1.432h-29.13v1.432H273.2v14.69Zm-9.412,26.5c-1.3-.585-3.187-2.19-3.187-3.8v-17.41l1.066-1.583H284.894l1.065,1.583v17.411c0,1.614-1.89,3.217-3.187,3.8Z" transform="translate(-194.809 -935.297)" fill="#fff" stroke="#000" stroke-width="1.536"/><path d="M305.136,1022.656h6.725v22.783h-6.725Z" transform="translate(-211.775 -957.768)" fill="#fff" stroke="#000" stroke-width="1.57"/><path d="M303.956,1008.742c.015-1.5,4.379-1.568,6.624-2.846H283.616c2.246,1.278,6.506,1.383,6.506,2.846l.913,2.911,11.162.449Z" transform="translate(-200.342 -948.865)" fill="#fff" stroke="#000" stroke-linejoin="bevel" stroke-width="1.536"/><path d="M309.228,971.123c0-3.675.154-5.089,1.283-5.089v11.685c-2.768,1.005-4.744,4.538-4.744,4.538H288.359s-1.976-3.533-4.745-4.538V966.034c1.391,0,1.4,1.479,1.4,5.089Zm1.283-1.507a4.4,4.4,0,0,1,3.638-4.687v3.75c-1.384-.06-2.052,1.183-2.052,3.033s1.115,1.88,1.115,1.88v10.642h-2.7Z" transform="translate(-200.341 -927.1)" fill="#fff" stroke="#000" stroke-width="1.536"/><path d="M279.526,969.616a4.4,4.4,0,0,0-3.638-4.687v3.75c1.384-.06,2.052,1.183,2.052,3.033s-1.115,1.88-1.115,1.88v10.642h2.7Z" transform="translate(-196.236 -927.1)" fill="#fff" stroke="#000" stroke-width="1.536"/><g transform="translate(78.392 13.483)"><path d="M293.113,912.992h12.846M291.591,917h15.69m-17.212,4.867h18.678m-20.268,5.947H310.63m-22.662,6.78h22.819" transform="translate(-281.046 -912.992)" fill="none" stroke="#000" stroke-width="1.28"/><path d="M273.2,1006.272H309.7m-24.915.008h13.527v4.972H284.78Z" transform="translate(-273.2 -962.547)" fill="none" stroke="#000" stroke-width="1.536"/></g><path d="M294.288,942.956c2.243,2.693,2.035,7.26,2.01,9.953H309.3c-.026-2.693-.234-7.26,2.008-9.953Zm7.313-30.848-1.782-.918v-2.623c.728.218,1.547.307,1.626,1.469.254-1.657.711-1.576,1.43-2.222.718.645,1.175.565,1.429,2.222.08-1.161.9-1.25,1.627-1.47v2.623l-1.784.918Z" transform="translate(-206.011 -896.759)" fill="#fff" stroke="#000" stroke-width="1.536"/><path d="M306.278,919.015l-2.96-2.035v-2.417c1.037.24,2.2.337,2.316,1.612a4.9,4.9,0,0,1,2.036-3.465,4.9,4.9,0,0,1,2.036,3.465c.114-1.275,1.279-1.372,2.318-1.612v2.417l-2.961,2.035Z" transform="translate(-210.809 -899.36)" fill="#fff" stroke="#000" stroke-width="1.536"/><path d="M303.362,929.981l-3.4-2.989V923.44c1.193.352,2.533.5,2.664,2.367.415-2.67,1.164-4.05,2.34-5.09,1.178,1.04,1.928,2.419,2.342,5.089.131-1.87,1.47-2.014,2.663-2.368v3.551l-3.4,2.989Zm6.277,3.967-3.078,4.257h-3.484L300,933.948ZM298.224,941.1c1.54.841,2.107,2.518,2.273,5.665h8.662c.165-3.147.733-4.823,2.273-5.665Z" transform="translate(-208.102 -903.613)" fill="#fff" stroke="#000" stroke-width="1.536"/><path d="M311.4,939.7v-4.276a3.913,3.913,0,0,0-2.832,2.444c0-1.42-1.867-4.693-3.905-6.323-2.043,1.824-3.943,4.785-3.9,6.323a3.89,3.89,0,0,0-2.831-2.444V939.7Z" transform="translate(-207.946 -909.366)" fill="#fff" stroke="#000" stroke-linejoin="bevel" stroke-width="1.536"/><path d="M311.324,954.949v-4.276a4.188,4.188,0,0,0-3.1,2.443c0-1.42-2.048-4.693-4.28-6.323-2.24,1.824-4.322,4.785-4.28,6.323a4.161,4.161,0,0,0-3.1-2.443v4.276Z" transform="translate(-207.215 -917.466)" fill="#fff" stroke="#000" stroke-linejoin="bevel" stroke-width="1.536"/><path d="M311.079,971.4v-4.933a7.127,7.127,0,0,0-3.863,2.85c0-2.67-3.015-6.742-5.325-8.076-2.37,1.369-5.325,5.576-5.325,8.076a7.218,7.218,0,0,0-3.863-2.85V971.4Z" transform="translate(-205.17 -925.141)" fill="#fff" stroke="#000" stroke-linejoin="bevel" stroke-width="1.536"/><path d="M311.223,990.849v-5.072c-1.76.69-2.286,2.385-2.84,3.538.217-5.145-2.9-10.673-5.268-12.075-2.372,1.4-5.545,7.05-5.268,12.075-.569-1.145-1.08-2.848-2.84-3.538v5.072Z" transform="translate(-206.394 -933.641)" fill="#fff" stroke="#000" stroke-linejoin="bevel" stroke-width="1.536"/><path d="M311.4,1010.419v-5.072c-1.844.439-1.957,1.117-2.544,2.255a9.515,9.515,0,0,0-4.33-7.98,9.517,9.517,0,0,0-4.331,7.98c-.585-1.136-.658-1.815-2.542-2.255v5.072Z" transform="translate(-207.797 -945.532)" fill="#fff" stroke="#000" stroke-width="1.536"/><g transform="translate(21.125 21.67)"><path d="M154.437,1025.538v-15.33a6.016,6.016,0,0,0-3.405-4.024v-13.5l2.8,1.518,3.2,14.108v17.224Z" transform="translate(-151.032 -963.518)" fill="#fff" stroke="#000" stroke-width="1.536"/><path d="M154.437,1024.537v-15.39a6.016,6.016,0,0,0-3.405-4.024V990.691c1.882,0,2.8,2.455,2.8,2.455l3.2,14.107v17.165Z" transform="translate(-151.032 -962.457)" fill="#fff" stroke="#000" stroke-width="1.536"/><path d="M154.04,1043.464c1.3-.585,3.188-2.19,3.188-3.8V1020.5l-.89-1.581H188.98l-1.273,1.581v19.16a4.587,4.587,0,0,0,2.6,3.8Z" transform="translate(-152.63 -977.454)" fill="#fff" stroke="#000" stroke-width="1.536"/><path d="M191.123,1043.462c-1.3-.585-3.187-2.19-3.187-3.8v-18.223l2.715-2.52-22.191,0,2.715,2.518v18.223c0,1.613-1.89,3.218-3.188,3.8Z" transform="translate(-160.039 -977.452)" fill="#fff" stroke="#000" stroke-width="1.536"/><path d="M191.53,1045.444c-1.3-.585-3.187-2.19-3.187-3.8v-16.474l1.777-2.52h-14.1l1.778,2.52v16.474c0,1.613-1.89,3.218-3.187,3.8Z" transform="translate(-163.558 -979.434)" fill="#fff" stroke="#000" stroke-width="1.536"/><path d="M185.472,1022.656h6.736v22.795h-6.736Z" transform="translate(-169.328 -979.439)" fill="#fff" stroke="#000" stroke-width="1.536"/><path d="M163.319,1009.874h2.689v12.371h-2.689Zm23.063,0h2.689v12.371h-2.689Zm-25.357-20.865h3.24v12.682h-3.24Zm0-2.385h3.221v2.355h-3.221Z" transform="translate(-156.34 -960.297)" fill="#fff" stroke="#000" stroke-linejoin="bevel" stroke-width="1.536"/><path d="M217.872,997.536h4.62v9.79h-4.62Z" transform="translate(-186.541 -966.094)" fill="#fff" stroke="#000" stroke-linejoin="bevel" stroke-width="1.654"/><path d="M162.073,971.756V950.051c.924,0,1.066,3.18,3.188,3.18,1.1,0,.986-1.317.366-2.39a4.833,4.833,0,0,1-.305-4.71c.633,1.872,2.335,2.466,2.021,1.292-.54-2.016-2.1-2.347-.93-5.477.406,2.61,2.081,2.5,1.674.978-.458-1.71-1.4-2.411-.237-4.821.655,2.737,1.539,2.576,1.539.878,0-2.51-.1-5.217,3.152-6.221,0,0,.188-2.3,1.359-2.3s1.36,2.3,1.36,2.3c3.248,1.005,3.152,3.713,3.152,6.222,0,1.7.885,1.86,1.539-.877,1.168,2.41.221,3.111-.236,4.821-.408,1.517,1.268,1.633,1.673-.978,1.167,3.129-.389,3.461-.93,5.477-.313,1.174,1.388.58,2.021-1.292a4.834,4.834,0,0,1-.305,4.71c-.62,1.073-.737,2.39.367,2.39,2.12,0,2.262-3.18,3.186-3.18v21.7ZM157,955.361v16.56h1.882v-16.6A1.656,1.656,0,0,0,157,955.361Z" transform="translate(-154.202 -930.459)" fill="#fff" stroke="#000" stroke-width="1.536"/><path d="M157.125,1000.6c2.334,1.193,4.646,2.575,5.231,5.845h-5.231ZM189.5,995.64v10.805h1.526V995.613A1.616,1.616,0,0,0,189.5,995.64Z" transform="translate(-154.269 -964.978)" fill="#fff" stroke="#000" stroke-width="1.536"/><path d="M223.527,1006.272c-2.334,1.193-4.646,2.575-5.231,5.845h5.231Z" transform="translate(-186.766 -970.735)" fill="#fff" stroke="#000" stroke-width="1.536"/><path d="M191.136,947.778l1.361-1.144V945.17a1.438,1.438,0,0,0-1.137.7,3.76,3.76,0,0,0-1.921-2.2,3.7,3.7,0,0,0-1.922,2.165,1.4,1.4,0,0,0-1.137-.668v1.465l1.361,1.144Z" transform="translate(-169.81 -937.478)" fill="#fff" stroke="#000" stroke-width="1.536"/><path d="M191.863,954.825l.632-1.369v-1.9a1.437,1.437,0,0,0-1.137.712,3.8,3.8,0,0,0-1.922-2.23,3.732,3.732,0,0,0-1.922,2.2,1.4,1.4,0,0,0-1.137-.677v1.905l.633,1.368Z" transform="translate(-169.809 -940.858)" fill="#fff" stroke="#000" stroke-width="1.536"/><path d="M190.282,963.46,192.3,961v-2.432a2.114,2.114,0,0,0-1.689,1.2c-.465-1.667-1.485-2.031-2.854-2.84-1.369.809-2.39,1.114-2.855,2.78a2.037,2.037,0,0,0-1.687-1.145V961l2.02,2.465Z" transform="translate(-168.131 -944.521)" fill="#fff" stroke="#000" stroke-width="1.536"/><path d="M189.666,972.023s2.355-2.055,2.5-3.183v-2.6a2.965,2.965,0,0,0-2.45,1.412c-.574-2.153-1.47-2.753-3.159-3.8-1.69,1.044-2.585,1.644-3.159,3.8a2.966,2.966,0,0,0-2.45-1.412v2.6c.3,1.128,2.495,3.183,2.495,3.183Z" transform="translate(-166.922 -948.2)" fill="#fff" stroke="#000" stroke-width="1.536"/><path d="M188.621,985.011s3.225-3.57,3.3-4.962v-4.055a4.51,4.51,0,0,0-3.24,2.662c-.759-3.355-1.942-5.7-4.178-7.323-2.235,1.627-3.42,3.967-4.177,7.324a4.513,4.513,0,0,0-3.242-2.664v4.055c.231,1.391,3.3,4.962,3.3,4.962Z" transform="translate(-164.873 -952.174)" fill="#fff" stroke="#000" stroke-width="1.536"/><path d="M188.621,997.924a24.811,24.811,0,0,0,3.3-4.025v-4.054a4.51,4.51,0,0,0-3.24,2.662c-.759-3.355-1.942-5.277-4.178-6.9-2.235,1.628-3.42,3.549-4.177,6.905a4.511,4.511,0,0,0-3.242-2.664V993.9a37.547,37.547,0,0,0,3.3,4.024Z" transform="translate(-164.873 -959.754)" fill="#fff" stroke="#000" stroke-width="1.536"/><path d="M191.887,1008.6c-.8-3.5-1.5-6.1-5.372-8.73-3.875,2.633-4.568,5.229-5.372,8.73Z" transform="translate(-167.028 -967.335)" fill="#fff" stroke="#000" stroke-width="1.536"/><path d="M191.722,1013.606v-5.071c-1.759.69-3.35,1.71-3.937,2.846-.654-2.816-1.917-4.056-3.489-5.76a11.1,11.1,0,0,0-3.281,5.76c-.587-1.136-2.176-2.156-3.937-2.846v5.071Z" transform="translate(-164.868 -970.389)" fill="#fff" stroke="#000" stroke-width="1.536"/></g><g transform="translate(172.588 87.682) rotate(180)"><path d="M3.405,0V15.33A6.016,6.016,0,0,1,0,19.355v13.5l2.8-1.518,3.2-14.107V0Z" transform="translate(0 3.992)" fill="#fff" stroke="#000" stroke-width="1.536"/><path d="M3.405,0V15.39A6.016,6.016,0,0,1,0,19.414V33.846c1.882,0,2.8-2.455,2.8-2.455l3.2-14.107V.118Z" transform="translate(0 3.932)" fill="#fff" stroke="#000" stroke-width="1.536"/><path d="M0,0C1.3.585,3.188,2.19,3.188,3.8v19.16L2.3,24.544H34.94l-1.273-1.581V3.8a4.587,4.587,0,0,1,2.6-3.8Z" transform="translate(1.41 0.002)" fill="#fff" stroke="#000" stroke-width="1.536"/><path d="M23.136,0c-1.3.585-3.187,2.19-3.187,3.8V22.025l2.715,2.52-22.191,0,2.715-2.518V3.8C3.188,2.19,1.3.585,0,0Z" transform="translate(7.948 0.002)" fill="#fff" stroke="#000" stroke-width="1.536"/><path d="M16.919,0c-1.3.585-3.188,2.19-3.188,3.8V20.276l1.777,2.52H1.41l1.778-2.52V3.8C3.188,2.19,1.3.585,0,0Z" transform="translate(11.053 0.002)" fill="#fff" stroke="#000" stroke-width="1.536"/><path d="M0,22.795H6.736V0H0Z" transform="translate(16.144)" fill="#fff" stroke="#000" stroke-width="1.536"/><path d="M2.295,12.371H4.984V0H2.295Zm23.062,0h2.689V0H25.357ZM0,33.236H3.24V20.554H0Zm0,2.385H3.221V33.266H0Z" transform="translate(4.684 4.063)" fill="#fff" stroke="#000" stroke-linejoin="bevel" stroke-width="1.536"/><path d="M0,9.79H4.62V0H0Z" transform="translate(31.331 24.779)" fill="#fff" stroke="#000" stroke-linejoin="bevel" stroke-width="1.654"/><path d="M5.075.165V21.87c.924,0,1.066-3.18,3.188-3.18,1.1,0,.986,1.317.366,2.39a4.833,4.833,0,0,0-.305,4.71c.633-1.872,2.335-2.466,2.021-1.292-.54,2.016-2.1,2.348-.93,5.477.407-2.61,2.081-2.5,1.674-.978-.458,1.71-1.4,2.41-.237,4.821.655-2.737,1.539-2.576,1.539-.877,0,2.51-.1,5.217,3.152,6.221,0,0,.188,2.3,1.359,2.3s1.36-2.3,1.36-2.3c3.248-1.005,3.152-3.713,3.152-6.222,0-1.7.885-1.86,1.539.877,1.168-2.41.221-3.111-.236-4.821-.408-1.517,1.268-1.633,1.673.978,1.167-3.129-.389-3.461-.93-5.477-.313-1.174,1.388-.58,2.021,1.292a4.834,4.834,0,0,0-.305-4.71c-.62-1.073-.737-2.39.368-2.39,2.119,0,2.262,3.18,3.186,3.18V.163ZM0,16.56V0H1.882V16.6A1.656,1.656,0,0,1,0,16.56Z" transform="translate(2.797 24.55)" fill="#fff" stroke="#000" stroke-width="1.536"/><path d="M0,5.848C2.334,4.655,4.646,3.273,5.231,0H0Zm32.375,4.957V0H33.9V10.832A1.616,1.616,0,0,1,32.375,10.805Z" transform="translate(2.856 24.544)" fill="#fff" stroke="#000" stroke-width="1.536"/><path d="M5.231,5.845C2.9,4.652.585,3.27,0,0H5.231Z" transform="translate(31.53 24.63)" fill="#fff" stroke="#000" stroke-width="1.536"/><path d="M4.757,0,6.118,1.144V2.609a1.438,1.438,0,0,1-1.137-.7,3.76,3.76,0,0,1-1.921,2.2A3.7,3.7,0,0,1,1.137,1.941,1.4,1.4,0,0,1,0,2.609V1.144L1.361,0Z" transform="translate(16.569 55.712)" fill="#fff" stroke="#000" stroke-width="1.536"/><path d="M5.485,0l.632,1.369v1.9a1.438,1.438,0,0,1-1.137-.712,3.8,3.8,0,0,1-1.922,2.23A3.732,3.732,0,0,1,1.137,2.6,1.4,1.4,0,0,1,0,3.273v-1.9L.633,0Z" transform="translate(16.568 52.044)" fill="#fff" stroke="#000" stroke-width="1.536"/><path d="M7.064,0,9.085,2.465V4.9A2.113,2.113,0,0,1,7.4,3.693c-.465,1.667-1.485,2.031-2.854,2.84-1.369-.809-2.39-1.114-2.854-2.78A2.037,2.037,0,0,1,0,4.9V2.465L2.02,0Z" transform="translate(15.087 47.072)" fill="#fff" stroke="#000" stroke-width="1.536"/><path d="M8.723,0s2.355,2.055,2.5,3.183v2.6a2.965,2.965,0,0,1-2.45-1.412c-.574,2.152-1.47,2.753-3.159,3.8-1.69-1.044-2.585-1.644-3.159-3.8A2.966,2.966,0,0,1,0,5.784v-2.6C.3,2.056,2.494,0,2.494,0Z" transform="translate(14.021 42.19)" fill="#fff" stroke="#000" stroke-width="1.536"/><path d="M11.536,0s3.225,3.57,3.3,4.962V9.017A4.51,4.51,0,0,1,11.6,6.354c-.759,3.355-1.942,5.7-4.178,7.323C5.184,12.05,4,9.71,3.241,6.353A4.513,4.513,0,0,1,0,9.017V4.963C.231,3.572,3.3,0,3.3,0Z" transform="translate(12.212 33.175)" fill="#fff" stroke="#000" stroke-width="1.536"/><path d="M11.536,0a24.81,24.81,0,0,1,3.3,4.025V8.079A4.51,4.51,0,0,1,11.6,5.417c-.759,3.355-1.942,5.277-4.178,6.9C5.184,10.694,4,8.772,3.241,5.416A4.511,4.511,0,0,1,0,8.08V4.025A37.544,37.544,0,0,1,3.3,0Z" transform="translate(12.212 27.842)" fill="#fff" stroke="#000" stroke-width="1.536"/><path d="M10.745,0c-.8,3.5-1.5,6.1-5.372,8.73C1.5,6.1.8,3.5,0,0Z" transform="translate(14.114 24.745)" fill="#fff" stroke="#000" stroke-width="1.536"/><path d="M14.645,0V5.072c-1.759-.69-3.35-1.71-3.937-2.846-.654,2.816-1.917,4.056-3.489,5.76a11.1,11.1,0,0,1-3.281-5.76C3.351,3.362,1.761,4.382,0,5.072V0Z" transform="translate(12.208 22.795)" fill="#fff" stroke="#000" stroke-width="1.536"/></g><g transform="translate(0 87.477)"><path d="M123.353,1070.847v4.63H282.27v-4.63Zm-2.877,4.672v6.037h164.67v-6.037Zm164.67,6.037-164.67.045-4.813-.045v7.967h174.3v-7.965Zm-174.332,8.018,0,9.382h184l0-9.382Zm184,9.382v.015h-184v-.015h-4.85v9.382h193.7v-9.382Z" transform="translate(-105.965 -1070.846)" fill="#fff" stroke="#000" stroke-width="1.536"/><path d="M179.856,1070.9h12v37.451h-12Z" transform="translate(-145.219 -1070.873)" fill="#fff" stroke="#000" stroke-width="1.672"/><path d="M185.52,1070.9h6.688v37.452H185.52Z" transform="translate(-148.229 -1070.873)" fill="#fff" stroke="#000" stroke-width="1.669"/><path d="M299.328,1070.9h12v37.451h-12Z" transform="translate(-208.689 -1070.873)" fill="#fff" stroke="#000" stroke-width="1.672"/><path d="M305.168,1070.9h6.688v37.452h-6.688Z" transform="translate(-211.792 -1070.873)" fill="#fff" stroke="#000" stroke-width="1.669"/><path d="M419.5,1070.9h12v37.451h-12Z" transform="translate(-272.533 -1070.873)" fill="#fff" stroke="#000" stroke-width="1.672"/><path d="M425.168,1070.9h6.688v37.452h-6.688Z" transform="translate(-275.542 -1070.873)" fill="#fff" stroke="#000" stroke-width="1.669"/></g><g transform="translate(24.53 83.69)"><path d="M158.3,1062.768H303.1m-132.161,36.555h6.933m-6.933-4.687h6.933m-6.933-4.687h6.933m-6.933-4.687h6.933m-6.933-4.687h6.933m-6.933-4.687h6.933m-6.933-4.687h6.933m49.3,28.132h6.455m-6.455-4.69h6.455m-6.455-4.69h6.455m-6.455-4.69h6.455m-6.455-4.69h6.455m-6.455-4.69h6.455m-6.455-4.691h6.455m49.645,28.133h6.933m-6.933-4.687h6.933m-6.933-4.687h6.933m-6.933-4.687h6.933m-6.933-4.687h6.933m-6.933-4.687h6.933m-6.933-4.687h6.933" transform="translate(-158.296 -1062.768)" fill="none" stroke="#000" stroke-width="1.536"/></g></g></g></svg>