<svg xmlns="http://www.w3.org/2000/svg" width="512" height="300"><defs><clipPath id="a"><path d="M0 0h512v300H0z"/></clipPath></defs><g clip-path="url(#a)" data-name="Flag_of_Canada_(Pantone)"><path fill="#f23b27" d="M0 0h512v300H0Z" data-name="Path 13"/><path fill="#fff" d="M121 0h256v300H121z" data-name="Rectangle 3"/><path fill="#f23b27" d="M253.8 257.266h-9.6l2.4-46.026a5.048 5.048 0 0 0-1.708-4.032 5.065 5.065 0 0 0-3.354-1.268 5.085 5.085 0 0 0-.858.073l-45.814 8.054L201.053 197a3.464 3.464 0 0 0-1.066-3.893l-50.187-40.64 11.307-5.28a3.472 3.472 0 0 0 1.814-4.213L153 112.467l28.906 6.133a3.48 3.48 0 0 0 .71.074 3.462 3.462 0 0 0 3.183-2.1l5.6-13.173 22.56 24.213a3.482 3.482 0 0 0 2.517 1.082 3.481 3.481 0 0 0 1.582-.383 3.486 3.486 0 0 0 1.821-3.739L209 68.467l17.44 10.08a3.465 3.465 0 0 0 1.752.476 3.46 3.46 0 0 0 .987-.144 3.475 3.475 0 0 0 2.114-1.772L249 42.334l17.707 34.773a3.483 3.483 0 0 0 2.115 1.772 3.466 3.466 0 0 0 .986.143 3.469 3.469 0 0 0 1.752-.475L289 68.467l-10.88 56.107a3.486 3.486 0 0 0 1.821 3.739 3.48 3.48 0 0 0 1.582.383 3.484 3.484 0 0 0 2.518-1.082L306.6 103.4l5.6 13.173a3.459 3.459 0 0 0 3.182 2.1 3.48 3.48 0 0 0 .71-.074L345 112.467l-9.92 30.506a3.472 3.472 0 0 0 1.813 4.213l11.307 5.28-50.187 40.641a3.464 3.464 0 0 0-1.067 3.893l6.188 17.067-45.814-8.053a5.069 5.069 0 0 0-.86-.074 5.062 5.062 0 0 0-3.352 1.268 5.048 5.048 0 0 0-1.708 4.032l2.4 46.026Z" data-name="Exclusion 1"/></g></svg>