<svg xmlns="http://www.w3.org/2000/svg" width="512" height="300"><defs><clipPath id="a"><path d="M0 0h512v300H0z"/></clipPath></defs><g clip-path="url(#a)"><path fill="#2f4ba1" d="M0 0h512v300H0Z" data-name="Path 1092"/><path fill="#2f4ba1" d="M0 150h256V0h256v300H0Z" data-name="Path 849"/><g data-name="Group 154"><path fill="#fff" stroke="#fff" stroke-linejoin="round" stroke-width="9.6" d="M422.281 121.352v39.872c0 34.556-16.358 46.415-38.237 55.821-21.879-9.406-38.441-21.265-38.441-55.821v-39.872h76.678Z" data-name="Path 850"/><g fill="#fcea83" stroke="#000" stroke-linejoin="round" stroke-width="1.438" data-name="Group 136"><path d="M321.885 213.774c1.227 3.272 10.019 7.566 20.243 2.045 6.952-3.885 11.451-9.406 15.745-19.221 1.227-2.454 1.84-5.521-1.022-7.361-2.249-1.636-5.93-3.476-7.566-5.112-.818-.818-1.636-1.431-2.249-2.045a8.9 8.9 0 0 1 1.227 1.431c4.089 4.907-.2 12.064-4.7 16.358-3.272 3.067-9.2 10.633-17.789 3.476-1.84-1.636-6.134 5.112-3.885 10.428Z" data-name="Path 851"/><path d="M446.203 213.774c-1.431 3.272-10.224 7.566-20.243 2.045-6.952-3.885-11.451-9.406-15.949-19.221-1.022-2.454-1.636-5.521 1.227-7.361 2.249-1.636 5.93-3.476 7.566-5.112a20.369 20.369 0 0 1 2.249-2.045 8.9 8.9 0 0 0-1.227 1.431c-4.09 4.907.2 12.064 4.5 16.358 3.272 3.067 9.406 10.633 17.994 3.476 1.839-1.635 5.928 5.113 3.883 10.429Z" data-name="Path 852"/><path d="M384.044 231.359c16.358 0 41.508-7.361 55-33.125 2.249-4.294 0-6.543-2.658-7.974a31.187 31.187 0 0 1-8.179-5.93c3.272 3.272 2.658 5.521.409 9.2-10.428 17.38-24.741 26.173-44.575 26.173s-34.147-8.792-44.575-26.173c-2.249-3.681-2.863-5.93.2-9.2a28.126 28.126 0 0 1-8.179 5.93c-2.658 1.431-4.907 3.681-2.658 7.974 13.5 25.764 38.85 33.125 55.208 33.125Z" data-name="Path 853"/></g><g fill="#c8102e" stroke="#000" stroke-linejoin="round" stroke-width="1.438" data-name="Group 137"><path d="M346.215 196.802c-.409-2.045-3.067-1.227-3.885 1.227a33.628 33.628 0 0 1-2.863-4.5c-2.454-3.681-2.863-6.134.613-9.61 1.636-1.636 4.907-3.476 7.157-1.431 4.7 3.885 2.249 10.224-1.022 14.313Z" data-name="Path 854"/><path d="M421.667 196.802c.409-2.045 3.272-1.227 4.089 1.227a33.628 33.628 0 0 0 2.863-4.5c2.454-3.681 2.863-6.134-.818-9.61-1.431-1.636-4.7-3.476-7.157-1.431-4.5 3.885-2.249 10.224 1.022 14.313Z" data-name="Path 855"/><path d="M321.885 213.774c-2.045-3.067-3.681-11.042-4.089-13.086-.613-1.84-.818-3.476 1.431-4.294s4.294 2.045 5.316 4.5 2.658 6.134 4.5 10.633c-4.5-2.658-8.179-.818-7.157 2.249Z" data-name="Path 856"/><path d="M446.203 213.774c1.84-3.067 3.476-11.042 4.09-13.086.409-1.84.818-3.476-1.432-4.294s-4.294 2.045-5.316 4.5-2.658 6.134-4.5 10.633c4.5-2.658 7.974-.818 7.157 2.249Z" data-name="Path 857"/></g><g stroke="#000" stroke-linejoin="round" stroke-width="1.438" data-name="Group 138"><path fill="#fff" d="M368.3 121.147c-2.658.613-4.5.818-6.952-1.431a3.7 3.7 0 0 1 .409-5.521c1.84-1.227 3.476-2.045 5.725-1.431s8.179 6.134 6.748 6.339c-1.431 0-3.68 1.431-5.93 2.045Z" data-name="Path 858"/><path fill="#fff" d="M374.638 111.335c.818-.613 1.84-1.022 4.5-1.227 2.454-.2 4.294-.2 4.907 1.636.818 2.249 1.431 4.907 3.067 6.134-1.022.613-6.134 1.227-7.974.2-2.46-1.225-3.069-5.928-4.5-6.743Z" data-name="Path 859"/><path fill="#fff" d="M392.223 111.537c.818-.613 1.84-.613 4.5-.409s3.68.409 4.294 2.249c.613 2.045 0 4.7 1.227 6.543-1.227.409-5.316.409-6.748-1.022-2.249-1.636-2.045-6.339-3.272-7.361Z" data-name="Path 860"/><path fill="#073163" d="M404.492 112.763c-1.84-.409-3.067-.613-3.885 0 1.022 1.227.2 6.134 2.249 7.77 1.431 1.022 5.112 1.227 5.93-1.022 1.022-2.045 1.022-5.112-4.294-6.748Z" data-name="Path 861"/><path fill="#073163" d="M383.431 110.719c.613-.613 1.84-.818 4.294-.818 2.658 0 4.294.409 5.112 2.045.818 2.045.613 4.7 2.045 6.339-.613.818-6.134.818-7.77-.409-2.249-1.431-2.454-6.134-3.68-7.157Z" data-name="Path 862"/><path fill="#073163" d="M366.05 112.56c0-1.022 1.431-1.227 5.112-1.431 3.681-.409 3.885-.2 5.112 2.454.613 1.431 1.431 3.885 3.067 4.7-4.5 1.022-5.93 1.636-8.383.2a12.474 12.474 0 0 1-4.294-4.5c-.2-.613-.2-1.227-.613-1.431Z" data-name="Path 863"/></g><g data-name="Group 141"><path fill="#059334" stroke="#000" stroke-linejoin="round" stroke-width="1.438" d="M366.46 94.361a4.367 4.367 0 0 1-3.476-1.636c-1.431-1.84-5.316-2.658-6.952-1.022a7.789 7.789 0 0 1-2.045.613c-1.022 0-2.249 1.022-1.84 3.067.818-.613 1.022 0 1.636 0 .409-.2.2.2.2.613 0 1.022 2.249 3.067 4.294 2.863a4.888 4.888 0 0 1 3.681 1.227c.613.613.2.409.613 1.431.613.613.818.818-.2 1.636a4.143 4.143 0 0 0 0 6.339c2.658 2.045 9.406 5.112 16.971-.818 7.361-5.725 18.812-2.454 19.629-.409a16.929 16.929 0 0 1 1.636 4.294 2.294 2.294 0 0 0 2.658 1.431 7.3 7.3 0 0 1 3.885 1.227c1.022.613 2.454.409 2.045-1.431-.818-5.725-4.294-6.543-4.7-9.2 2.045.2 3.476.2 4.294-.613.613-.818 1.431-2.249 2.249-2.658.613-.409.613-.818-.2-.613a8.02 8.02 0 0 1-3.476.409c-9.406-1.022-35.783-8.179-40.895-6.748Z" data-name="Path 864"/><path stroke="#000" stroke-linejoin="round" stroke-width="1.438" d="M408.172 101.314c-1.022.613-2.045 1.636-3.885 4.089-2.045 2.658-8.179 5.316-15.745 5.316-7.361 0-11.859-1.227-15.131-3.885a25.864 25.864 0 0 0-4.5-2.863 3.963 3.963 0 0 1-2.045-5.112c-.613 1.022-1.022 2.045-2.249 1.84-.818 0-2.454 0-2.045.818-.2-.409-.2-1.022-.409-1.227l-.409-.409c.613.409 2.045-.818 3.067-.818.818.2 1.84-.818 1.636-2.045-.2-1.022-.409-1.84-.613-2.658 1.636-.818 23.106 3.067 27.4 3.476 4.294.2 16.562 2.045 14.927 3.476Z" data-name="Path 865"/><path fill="#059334" stroke="#000" stroke-linejoin="round" stroke-width="1.438" d="M369.323 93.543c2.045-2.045 4.5-3.067 6.952-2.454h.613a6.232 6.232 0 0 1 5.725-.409h.818c2.454-.818 7.157 0 8.792 1.636l.613.409c5.521-.409 8.792 2.045 12.677 5.93a4.045 4.045 0 0 0 2.045 1.431c1.227.2 1.431.818.409 1.431-1.227.613-2.249 1.636-4.294 3.885-1.84 2.454-7.77 4.907-15.131 4.907-7.157 0-11.451-1.227-14.722-3.681a38.113 38.113 0 0 0-4.294-2.863c-1.227-.409-2.863-2.045-2.249-3.681.409-1.636-.613-3.681-1.431-5.725.613-.409 2.249-1.022 3.067-.613l.409-.2Z" data-name="Path 866"/><g fill="#00493d" stroke="#000" stroke-linejoin="round" stroke-width="1.438" data-name="Group 139"><path d="M405.515 98.655c-3.885-3.885-7.157-6.339-12.677-5.93a3.039 3.039 0 0 1-.2 1.227 28.275 28.275 0 0 1 10.019 7.566 18.945 18.945 0 0 0 2.863-2.863Z" data-name="Path 867"/><path d="M392.224 92.317c-1.636-1.636-6.339-2.454-8.792-1.636a6.96 6.96 0 0 1-.409 2.863 12.247 12.247 0 0 1 3.885 3.476c.818-.2 2.863-.818 3.885-1.022a19.68 19.68 0 0 0 1.431-3.681Z" data-name="Path 868"/><path d="M382.613 90.681a6.232 6.232 0 0 0-5.725.409 9.261 9.261 0 0 0-.613 3.272 4.489 4.489 0 0 1 2.454 1.022 11.034 11.034 0 0 0 3.476-1.84 6.96 6.96 0 0 0 .408-2.863Z" data-name="Path 869"/><path d="M369.323 93.543c2.045-2.045 4.5-3.067 6.952-2.454a6.259 6.259 0 0 0-.613 3.067 11.724 11.724 0 0 0-6.339 1.227Z" data-name="Path 870"/><path d="M401.835 101.926c-1.84-2.658-6.339-5.725-9.406-7.157 0 .2-.409 1.022-.613 1.636a77.884 77.884 0 0 1 4.7 8.179 32.056 32.056 0 0 0 5.319-2.658Z" data-name="Path 871"/><path d="M386.294 106.425a76.376 76.376 0 0 0 .613-8.383c1.022-.2 3.067-.818 3.885-1.022 1.022 1.636 3.476 5.93 4.5 7.974-2.454.613-6.543 1.636-9 1.431Z" data-name="Path 872"/><path d="M379.135 96.61a15.423 15.423 0 0 0 3.476-2.045 20.359 20.359 0 0 1 3.067 2.863c0 1.84-.613 7.157-.818 9a13.721 13.721 0 0 1-5.725-1.231c.2-3.067.409-6.543 0-8.588Z" data-name="Path 873"/><path d="M368.914 99.064a8.788 8.788 0 0 0 .409-2.454c1.636-1.022 5.725-2.045 8.792-.409a54.46 54.46 0 0 1-.2 8.383c-2.658-2.045-6.952-4.907-9-5.521Z" data-name="Path 874"/></g><g data-name="Group 140"><path d="M358.69 95.383c-.409 0-.613-1.227-1.431-1.227-.2 0-.818.2-1.022 0a1.562 1.562 0 0 0 .409 1.022c.204.614 1.226.205 2.044.205Z" data-name="Path 875"/><path fill="none" stroke="#000" stroke-linejoin="round" stroke-width="1.438" d="M358.69 98.86c2.454 0 2.863-3.067 4.089-3.272" data-name="Path 876"/><path fill="none" stroke="#000" stroke-linejoin="round" stroke-width="1.438" d="M360.121 99.064c1.84.818 3.272-3.476 4.7-3.272" data-name="Path 877"/><path fill="none" stroke="#000" stroke-linejoin="round" stroke-width="1.438" d="M356.441 93.748c.613 0 1.022-.818 2.045.2a2.209 2.209 0 0 0 1.431.613" data-name="Path 878"/><path fill="none" stroke="#000" stroke-linejoin="round" stroke-width="1.438" d="M359.508 96.815c-.818 1.227-2.249 2.045-3.067 1.636" data-name="Path 879"/><path fill="none" stroke="#000" stroke-linejoin="round" stroke-width="1.438" d="M356.032 91.703a6.367 6.367 0 0 0-1.431 1.84" data-name="Path 880"/><path fill="none" stroke="#000" stroke-linejoin="round" stroke-width="1.438" d="M353.987 94.77v1.022" data-name="Path 881"/></g></g><g stroke="#000" stroke-linejoin="round" stroke-width=".647" data-name="Group 142"><path fill="#f9d050" d="M375.865 91.703c-4.294-3.272-9.406-6.339-14.109-6.952a125.633 125.633 0 0 1 13.905 10.834" data-name="Path 882"/><path fill="#f9d050" d="M378.319 88.636c-5.112-3.476-11.042-7.361-16.767-7.77a54.491 54.491 0 0 1 14.111 11.86" data-name="Path 883"/><path fill="#f9d050" d="M384.862 82.911a39.715 39.715 0 0 1 10.019-13.7c-2.045 4.294-4.294 13.086-5.316 16.562" data-name="Path 884"/><path fill="#f9d050" d="M389.361 81.889a20.65 20.65 0 0 1 10.428-10.837c-2.658 2.658-6.748 10.633-7.77 14.927" data-name="Path 885"/><path fill="#f9d050" d="M391.201 85.978c2.454-3.476 7.361-10.019 16.153-13.5-5.112 5.112-12.677 14.518-14.518 18.2" data-name="Path 886"/><path fill="#f9d050" d="M394.063 90.476c3.681-2.045 11.042-5.316 16.358-4.294-3.272 1.227-13.086 5.725-17.38 9.815" data-name="Path 887"/><path fill="#f9d050" d="M393.25 89.045c3.476-3.681 9.815-9.2 16.562-11.451-4.907 4.7-15.336 15.336-16.767 16.971" data-name="Path 888"/><path fill="#f9d050" d="M383.431 86.796c-2.454-7.566-6.134-14.722-11.655-16.971a55.85 55.85 0 0 1 9 20.856" data-name="Path 889"/><path fill="#f9d050" d="M378.728 86.592c-4.089-4.907-9.61-9.815-15.949-10.837 4.294 2.454 11.451 9.61 14.109 16.562" data-name="Path 890"/><path fill="#f9d050" d="M380.973 86.387c-5.112-9.2-9-10.837-11.246-12.677 1.84 3.476 6.339 12.677 9 16.562" data-name="Path 891"/><path fill="none" d="M370.753 85.773a24.629 24.629 0 0 1 7.361 7.157" data-name="Path 892"/><path fill="#f9d050" d="M370.753 90.067c1.227 1.022 3.476 2.249 5.521 4.089" data-name="Path 893"/><path fill="#f9d050" d="M395.086 93.134a42.717 42.717 0 0 1 8.792-5.112" data-name="Path 894"/><path fill="#f9d050" d="M393.655 91.703a65.41 65.41 0 0 1 7.566-7.566" data-name="Path 895"/><path fill="#f9d050" d="M399.379 79.026a122.416 122.416 0 0 0-7.77 9.61" data-name="Path 896"/><path fill="#f9d050" d="M394.063 77.185a66.982 66.982 0 0 0-5.112 9" data-name="Path 897"/><path fill="#f9d050" d="M377.91 77.594c1.227 3.272 3.476 8.792 4.294 11.042" data-name="Path 898"/><path fill="#f9d050" d="M376.069 81.071a28.54 28.54 0 0 1 3.067 6.134" data-name="Path 899"/></g><g stroke="#000" stroke-linejoin="round" stroke-width=".647" data-name="Group 143"><path fill="#f9d050" d="M383.022 80.048c0-1.84 1.227-3.885 2.454-3.885 1.431 0 2.454 2.454 2.454 3.885 0 1.636-1.227 3.067-2.454 3.067a2.806 2.806 0 0 1-2.454-3.067Z" data-name="Path 900"/><path fill="#f9d050" d="M380.365 81.684c.2-2.045 1.636-3.681 2.863-3.476s1.84 2.658 1.636 4.089c-.2 1.636-1.636 2.863-2.658 2.658-1.024 0-2.046-1.431-1.841-3.271Z" data-name="Path 901"/><path fill="#f9d050" d="M385.885 82.297c-.409-1.84.409-3.885 1.636-4.089s2.454 1.84 2.658 3.476c.409 1.636-.613 3.272-1.636 3.272-1.022.204-2.453-.818-2.658-2.659Z" data-name="Path 902"/><path fill="#f9d050" d="M382.818 83.934c0-2.045 1.227-3.885 2.454-3.885 1.431 0 2.454 2.249 2.454 3.885s-1.227 3.067-2.454 3.067a2.806 2.806 0 0 1-2.454-3.067Z" data-name="Path 903"/><path fill="#f9d050" d="M379.135 84.956c0-1.84 1.431-3.885 2.658-3.885s2.454 2.454 2.454 3.885c0 1.636-1.431 3.067-2.454 3.067a2.953 2.953 0 0 1-2.658-3.067Z" data-name="Path 904"/><path fill="#f9d050" d="M386.703 84.138c0-1.84 1.227-3.885 2.454-3.885 1.431 0 2.454 2.454 2.454 3.885 0 1.636-1.227 3.067-2.454 3.067a2.806 2.806 0 0 1-2.454-3.067Z" data-name="Path 905"/><path fill="#f9d050" d="M385.885 85.774c0-2.045 1.431-3.885 2.658-3.885s2.454 2.249 2.454 3.885-1.227 3.067-2.454 3.067a2.953 2.953 0 0 1-2.658-3.067Z" data-name="Path 906"/><path fill="#f9d050" d="M382.614 87.614c0-2.045 1.227-3.885 2.454-3.885 1.431 0 2.454 2.454 2.454 3.885 0 1.636-1.227 3.067-2.454 3.067a2.806 2.806 0 0 1-2.454-3.067Z" data-name="Path 907"/><path fill="#f9d050" d="M377.502 87.614c0-2.045 1.022-3.885 2.045-3.885s1.84 2.454 1.84 3.885c0 1.636-1.022 3.067-1.84 3.067-1.023 0-2.045-1.227-2.045-3.067Z" data-name="Path 908"/><path fill="#f9d050" d="M388.952 87.205c0-1.84 1.022-3.681 2.045-3.681s2.045 2.249 2.045 3.681c0 1.84-1.227 3.067-2.045 3.067-1.023 0-2.045-1.226-2.045-3.067Z" data-name="Path 909"/><path fill="#f9d050" d="M390.179 90.681c.409-2.045 1.636-3.681 2.454-3.476s1.022 2.658.613 4.089c-.2 1.84-1.431 2.863-2.249 2.658s-1.227-1.635-.818-3.271Z" data-name="Path 910"/><path fill="#f9d050" d="M386.294 90.067c.2-1.84 1.431-3.681 2.454-3.476 1.227 0 1.84 2.454 1.636 3.885-.2 1.84-1.227 3.067-2.249 2.863-1.023 0-2.046-1.432-1.841-3.272Z" data-name="Path 911"/><path fill="#f9d050" d="M380.569 90.681c-.613-2.045-1.84-3.476-2.658-3.272s-1.022 2.658-.613 4.089c.409 1.636 1.636 2.658 2.454 2.454.613-.204 1.23-1.635.817-3.271Z" data-name="Path 912"/><path fill="#f9d050" d="M379.135 90.271c0-1.84 1.022-3.681 2.045-3.681 1.227 0 2.045 2.249 2.045 3.681 0 1.84-1.022 3.067-2.045 3.067-.815 0-2.045-1.226-2.045-3.067Z" data-name="Path 913"/><path fill="#f9d050" d="M382.204 91.088c0-2.045 1.227-3.885 2.454-3.885 1.431 0 2.454 2.249 2.454 3.885s-1.227 3.067-2.454 3.067a2.807 2.807 0 0 1-2.454-3.067Z" data-name="Path 914"/><path fill="#f9d050" d="M383.227 68.597c-.409 1.636-1.84 3.067-.818 5.316-1.84-.613-3.476-.818-4.907.818a4.436 4.436 0 0 1 4.294 1.636 2.461 2.461 0 0 0-2.863 1.636c1.431-.409 2.863-.818 3.476-.613a7.052 7.052 0 0 0-1.84 2.454c1.227-1.022 2.658-.818 3.476-1.431-.613 1.431.613 2.863 1.636 4.294-.2-2.045 1.022-3.476.409-4.5 1.84.409 2.045 2.045 4.7 2.045-1.022-.613-1.636-2.658-2.863-2.658.613-.2 3.067-.409 3.476 0a3.734 3.734 0 0 0-2.658-1.636c.818-.818 2.249-2.454 3.272-2.863-1.431.2-3.68.409-4.5 1.636 2.045-1.636 1.636-4.7 3.885-5.112-1.227-.2-3.067.613-4.5 2.045.613-1.227.613-2.863 1.431-3.272-1.636.409-3.476 2.454-4.089 3.476a7.715 7.715 0 0 0-1.022-3.272Z" data-name="Path 915"/><path fill="#f9d050" d="M384.249 71.869a7.667 7.667 0 0 1-.2 2.249" data-name="Path 916"/><path fill="#f9d050" d="M386.908 71.67a5.354 5.354 0 0 0-1.227 3.067" data-name="Path 917"/><path fill="none" d="M388.135 74.119a3.263 3.263 0 0 0-1.431 1.84" data-name="Path 918"/></g><g fill="#fcd93a" stroke="#000" stroke-width="1.438"><path d="M321.885 213.774c1.227 3.272 10.019 7.566 20.243 2.045 6.952-3.885 11.451-9.406 15.745-19.221 1.227-2.454 1.84-5.521-1.022-7.361-2.249-1.636-5.93-3.476-7.566-5.112-.818-.818-1.636-1.431-2.249-2.045a8.9 8.9 0 0 1 1.227 1.431c4.089 4.907-.2 12.064-4.7 16.358-3.272 3.067-9.2 10.633-17.789 3.476-1.84-1.636-6.134 5.112-3.885 10.428Z" data-name="Path 919"/><path d="M446.203 213.774c-1.431 3.272-10.224 7.566-20.243 2.045-6.952-3.885-11.451-9.406-15.949-19.221-1.022-2.454-1.636-5.521 1.227-7.361 2.249-1.636 5.93-3.476 7.566-5.112a20.369 20.369 0 0 1 2.249-2.045 8.9 8.9 0 0 0-1.227 1.431c-4.09 4.907.2 12.064 4.5 16.358 3.272 3.067 9.406 10.633 17.994 3.476 1.839-1.635 5.928 5.113 3.883 10.429Z" data-name="Path 920"/><path d="M384.044 231.359c16.358 0 41.508-7.361 55-33.125 2.249-4.294 0-6.543-2.658-7.974a31.187 31.187 0 0 1-8.179-5.93c3.272 3.272 2.658 5.521.409 9.2-10.428 17.38-24.741 26.173-44.575 26.173s-34.147-8.792-44.575-26.173c-2.249-3.681-2.863-5.93.2-9.2a28.126 28.126 0 0 1-8.179 5.93c-2.658 1.431-4.907 3.681-2.658 7.974 13.5 25.764 38.85 33.125 55.208 33.125Z" data-name="Path 921"/></g><g fill="#c8102e" stroke="#000" stroke-width="1.438"><path d="M346.215 196.802c-.409-2.045-3.067-1.227-3.885 1.227a33.628 33.628 0 0 1-2.863-4.5c-2.454-3.681-2.863-6.134.613-9.61 1.636-1.636 4.907-3.476 7.157-1.431 4.7 3.885 2.249 10.224-1.022 14.313Z" data-name="Path 922"/><path d="M421.667 196.802c.409-2.045 3.272-1.227 4.089 1.227a33.628 33.628 0 0 0 2.863-4.5c2.454-3.681 2.863-6.134-.818-9.61-1.431-1.636-4.7-3.476-7.157-1.431-4.5 3.885-2.249 10.224 1.022 14.313Z" data-name="Path 923"/><path d="M321.885 213.774c-2.045-3.067-3.681-11.042-4.089-13.086-.613-1.84-.818-3.476 1.431-4.294s4.294 2.045 5.316 4.5 2.658 6.134 4.5 10.633c-4.5-2.658-8.179-.818-7.157 2.249Z" data-name="Path 924"/><path d="M446.203 213.774c1.84-3.067 3.476-11.042 4.09-13.086.409-1.84.818-3.476-1.432-4.294s-4.294 2.045-5.316 4.5-2.658 6.134-4.5 10.633c4.5-2.658 7.974-.818 7.157 2.249Z" data-name="Path 925"/></g><g fill="#00493d" data-name="Group 144"><path d="m333.744 195.371-1.636.818a.816.816 0 0 0-.409.818h-.2l-.818-1.84h.2c0 .2.2.409.613.2l3.476-1.84c.409-.2.409-.409.2-.613l.2-.2 1.022 2.045h-.2c-.2-.2-.409-.409-.818-.2l-1.431.818.613 1.227 1.636-.613c.409-.2.2-.613.2-.818h.2l.818 1.84c-.2-.2-.409-.409-.818-.2l-3.476 1.84c-.409.2-.409.409-.2.613l-.2.2-1.022-1.84.2-.2c.2.2.409.409.818.2l1.636-.818-.613-1.431Z" data-name="Path 926"/><path d="M337.22 198.03c.409-.2.409-.409.2-.818h.2l2.045 3.067-1.431 1.022v-.2c.818-.613.818-1.431.613-1.636s-.409-.409-.409-.613c-.2 0-.2-.2-.613.2-.2.2-1.431 1.022-1.431 1.022.2.2.409.818 1.431.2h.2l-2.249 1.636v-.2c1.022-.818.614-1.431.409-1.636l-1.431 1.022c-.409.2-.409.409-.409.613.2 0 .2.2.409.409.2.409.818.818 1.84.409l.2.2-1.636.613-2.045-3.272h.2c.2.2.409.409.818.2l3.067-2.249Z" data-name="Path 927"/><path d="m340.492 205.8-1.431 1.227a.622.622 0 0 0 0 .818h-.2l-1.431-1.431.2-.2c.2.2.409.409.818 0l2.658-2.658c.409-.2.409-.409.2-.818l1.431 1.636a.622.622 0 0 0-.818 0l-1.227 1.227 1.022 1.022 1.227-1.022c.409-.409.2-.613 0-.818l.2-.2 1.445 1.625h-.2c-.2 0-.409-.2-.818.2l-2.658 2.454c-.409.409-.409.613-.2.818v.2l-1.431-1.636c.2 0 .613.2.818 0l1.431-1.431-1.022-1.022Z" data-name="Path 928"/><path d="m343.559 210.094.613.613.818-1.84a9.324 9.324 0 0 0-1.636.818l.2.409-.2.2-.409-.409c-.2.2-.409.2-.613.409-.613.409-.409.613-.2.818v.2l-1.022-1.022h.2l.818-.2 4.089-2.249.2.2a39.059 39.059 0 0 0-2.045 4.294c0 .409-.2.613 0 1.022l-1.636-1.431.2-.2a.426.426 0 0 0 .818 0c0-.2.2-.613.2-.818l-.613-.613.2-.2Z" data-name="Path 929"/><path d="m345.195 214.181.2-.2c.2.2.409.2.818 0l2.658-3.476-.2-.2a1.382 1.382 0 0 0-1.636.409v-.2l.818-1.022 3.067 2.249-1.022 1.227h-.2a1.045 1.045 0 0 0 0-1.636v-.2l-2.658 3.476c-.409.2-.2.613 0 .818h-.2l-1.645-1.245Z" data-name="Path 930"/><path d="m350.511 215.001-1.022 1.431c-.2.409 0 .613.2.818l-.2.2-1.636-1.227v-.2c.409.2.613.2.818-.2l2.249-3.067c.2-.409 0-.613-.2-.818l.2-.2 1.636 1.22v.2c-.409-.2-.613-.2-.818.2l-1.022 1.431 1.227.818 1.022-1.431c.2-.409 0-.613-.2-.818l.2-.2 1.636 1.227v.2a.506.506 0 0 0-.818.2l-2.045 3.272c-.409.2-.2.409 0 .613v.2l-1.84-1.227h.2a.751.751 0 0 0 .613-.2l1.022-1.636Z" data-name="Path 931"/><path d="m354.6 220.727.2-.2a.506.506 0 0 0 .818-.2l1.636-3.476c.2-.409 0-.613-.2-.818l3.476 1.636-.818 1.636-.2-.2a1.419 1.419 0 0 0-.2-1.84c-.2 0-.409-.2-.613-.2s-.2 0-.409.409a11.731 11.731 0 0 0-.818 1.431c.2.2.613.613 1.431-.409h.2l-1.227 2.454-.2-.2c.613-1.227-.2-1.431-.409-1.431l-.818 1.636c-.2.409 0 .613.2.613v.2l-2.045-1.022Z" data-name="Path 932"/><path d="M360.53 223.593c-.613-.409-.613-1.636 0-2.863.409-1.227 1.227-2.249 2.045-1.84.613.2.409 1.431 0 2.658-.613 1.431-1.431 2.249-2.045 2.045h-.2c1.431.613 2.454-.2 3.067-1.636a2.321 2.321 0 0 0-.818-3.272c-1.227-.613-2.454.2-3.067 1.636s-.409 2.863.818 3.272Z" data-name="Path 933"/><path d="m366.869 223.998.818-2.454c.2-.409 0-.613-.2-.818l1.022.2v.2c-.2 0-.409 0-.613.409l-.818 2.454c-.409 1.022-1.022 1.84-2.249 1.431a1.666 1.666 0 0 1-1.022-2.249l1.017-2.653c.2-.409 0-.613-.2-.818v-.2l1.84.818v.2c-.2-.2-.613-.2-.613.2l-1.022 2.658c-.2.818-.2 1.636.409 1.84s1.222-.198 1.631-1.218Z" data-name="Path 934"/><path d="M368.709 221.339c0-.2 0-.2-.2-.2l1.431.2 1.227 3.885.613-2.454c.2-.409 0-.613-.2-.818l1.227.2-.2.2c-.2 0-.409 0-.613.409l-1.022 4.5h-.2l-1.636-4.907-1.022 3.272c0 .613.2.613.409.818v.2l-1.227-.409v-.2c.2.2.613 0 .613-.409l1.022-3.681-.2-.613Z" data-name="Path 935"/><path d="M375.662 225.43c-.409 1.84-1.227 2.249-1.636 2.249h-.409a.283.283 0 0 1 0-.409l.613-4.089c.2-.2.2-.409.409-.2h.409c.409 0 .818.818.613 2.454l.613.2c.409-2.045-.409-2.863-1.431-3.067-.818-.2-2.045-.409-2.045-.409v.2c.2.2.613.2.409.818l-.613 3.681q-.307.613-.613.613h-.2l2.045.409c1.022.2 2.045 0 2.454-2.249Z" data-name="Path 936"/><path d="M377.501 223.794a.653.653 0 0 0-.614-.613v-.2l3.681.409-.2 1.636c0-1.022-.613-1.431-1.022-1.431a.751.751 0 0 0-.613-.2c-.2 0-.2 0-.2.613 0 .2-.2 1.636-.2 1.636.2 0 .818.2 1.227-1.022l-.2 2.658h-.2c0-1.227-.613-1.227-.818-1.227l-.2 1.84c0 .409 0 .409.2.409l.409.2c.613 0 1.227-.2 1.636-1.431h.2l-.409 1.636-3.885-.409c.409 0 .613-.2.818-.613l.409-3.885Z" data-name="Path 937"/><path d="M384.249 226.247c0 1.84-.613 2.454-1.227 2.454-.2-.2-.2-.2-.409-.2l-.2-.2.2-4.294c0-.2 0-.2.2-.2h.409c.409 0 1.022.613 1.022 2.454h.818c0-2.045-1.022-2.658-2.045-2.658a10.49 10.49 0 0 0-2.045-.2v.2a.653.653 0 0 1 .613.613l-.2 3.885c0 .409-.2.613-.409.613v.2h1.84c1.022 0 2.045-.409 2.249-2.658Z" data-name="Path 938"/><path d="M390.179 227.884c0 .409.2.409.613.409v.2l-2.249.2c.2-.2.613-.409.613-.818l-.409-3.885c-.2-.409-.409-.409-.818-.409v-.2l2.249-.2c-.2.2-.613.409-.409.818l.409 3.885Z" data-name="Path 939"/><path d="M392.224 228.296v-.2c.2 0 .409-.2.409-.613l-.818-4.294h-.2a1.137 1.137 0 0 0-.613 1.431h-.2l-.2-1.431 3.681-.613.2 1.431h-.2c0-.818-.613-1.022-1.227-1.022h-.2l.818 4.294a.542.542 0 0 0 .613.613v.2Z" data-name="Path 940"/><path d="m401.016 224.202-.818-2.454c0-.409-.409-.409-.613-.409v-.2l1.022-.409v.2c-.2.2-.2.2-.2.613l.818 2.658a1.868 1.868 0 0 1-1.022 2.454 1.64 1.64 0 0 1-2.045-1.431l-.818-2.658c-.2-.409-.409-.409-.613-.409l-.2-.2 2.045-.613v.2c-.2.2-.409.409-.2.818l.613 2.658a1.494 1.494 0 0 0 1.431 1.227c.613-.2.818-1.022.613-2.045Z" data-name="Path 941"/><path d="M403.265 222.767c1.022-.409.818-1.022.613-1.636s-.613-1.022-1.022-.818c-.2 0-.409.2-.2.409l.613 2.045.2.2.409 1.636a.506.506 0 0 0 .818.2v.2l-1.84.818-.2-.2c.409-.2.409-.409.409-.818l-1.431-3.476c-.2-.613-.409-.409-.818-.409v-.2l2.045-.818a1.525 1.525 0 1 1 1.022 2.863.714.714 0 0 0-.409.2l-.2-.2Z" data-name="Path 942"/><path d="M408.377 223.385c-.613.2-1.431-.613-2.045-2.045-.613-1.227-.613-2.454 0-2.658s1.431.613 2.045 1.84.613 2.454 0 2.863c1.227-.409 1.636-1.84 1.022-3.272a2.646 2.646 0 0 0-3.067-1.636 2.383 2.383 0 0 0-1.022 3.272c.613 1.431 1.84 2.249 3.067 1.636Z" data-name="Path 943"/><path d="M408.581 217.659h-.409l1.227-.818 3.68 2.045-1.227-2.249a.816.816 0 0 0-.818-.409v-.2l1.022-.409c-.2.2-.409.409 0 .818l2.045 4.089-.2.2-4.5-2.454 1.636 3.067a.506.506 0 0 0 .818.2v.2l-1.022.613v-.2c.2-.2.2-.409 0-.818l-1.636-3.272-.613-.409Z" data-name="Path 944"/><path d="M417.782 218.273v-.2c0-.2.2-.409 0-.818l-2.454-3.476h-.2a1.045 1.045 0 0 0 0 1.636l-.2.2-.818-1.431 3.067-2.045.818 1.227a1.382 1.382 0 0 0-1.636-.409l-.2.2 2.454 3.476a.506.506 0 0 0 .818.2v.2Z" data-name="Path 945"/><path d="m420.029 213.365 1.227 1.431a.622.622 0 0 0 .818 0v.2l-1.636 1.431v-.2c.2-.2.2-.409 0-.818l-2.454-3.067c-.2-.409-.409-.2-.818-.2l1.636-1.431v.2c0 .2-.2.409 0 .818l1.022 1.227 1.227-.818-1.022-1.431c-.2-.409-.613-.2-.818-.2l1.636-1.431v.2c-.2.2-.2.409 0 .818l2.454 3.067a.383.383 0 0 0 .613 0l.2.2-1.636 1.431-.2-.2c.2-.2.409-.409.2-.818l-1.227-1.431Z" data-name="Path 946"/><path d="M421.872 209.071a.622.622 0 0 0-.818 0v-.2l2.658-2.454 1.227 1.227h-.2a1.323 1.323 0 0 0-1.84-.2c0 .2-.2.2-.409.409a1.582 1.582 0 0 0 .2.613l1.227 1.227c.2-.2.818-.613 0-1.636h.2l1.636 1.84v.2c-1.022-1.022-1.431-.409-1.636-.2l1.227 1.227c.2.409.409.409.409.409l.613-.613c.2-.2.409-.818 0-2.045h.2l.818 1.431-2.658 2.658-.2-.2c.2-.2.409-.409 0-.818Z" data-name="Path 947"/><path d="M426.777 203.345a.506.506 0 0 0 .2.818c.409.409.818.409 1.636 0a1.578 1.578 0 0 1 1.84.2 1.706 1.706 0 0 1 .409 2.249c-.2.2-.613.409-.818.613-.2 0-.2 0-.2.2v.2l-1.431-1.227h.2c.818.409 1.636.613 2.045 0 .409-.409 0-.818-.2-1.022-.409-.409-.818-.409-1.431 0a2.42 2.42 0 0 1-2.045-.2c-.818-.818-.818-1.431-.409-2.045.2-.2.613-.409.818-.613.2 0 .2 0 0-.409l1.431 1.022h-.2c-1.022-.409-1.636-.2-1.84.2Z" data-name="Path 948"/><path d="M428.62 201.711c-.409-.2-.613 0-.818.2h-.2l2.249-3.272 1.431 1.022-.2.2a1.465 1.465 0 0 0-1.84 0c0 .2-.2.409-.2.613-.2 0-.2.2.2.409.2.2 1.431 1.022 1.431 1.022.2-.2.613-.613-.2-1.431v-.2l2.045 1.636c-1.227-.613-1.431 0-1.636.2l1.431 1.022a1.582 1.582 0 0 0 .613.2c0-.2.2-.409.409-.613a1.413 1.413 0 0 0-.409-1.84l.2-.2 1.022 1.227-2.045 3.067h-.2c.2-.409.2-.613-.2-1.022Z" data-name="Path 949"/><path d="m434.143 198.03-.613 1.022a10.566 10.566 0 0 1-1.227-1.431l1.84.409h.409c.2 0 .613.2.818.2.613.2.409.409.2.818h.2l1.022-1.84c-.409.409-.613.2-1.022.2a36.713 36.713 0 0 1-4.7-1.022v.2l3.272 3.681a1.229 1.229 0 0 1 .2.818h.2l.613-1.022-.2-.2c-.2.409-.409.613-.818 0l-.409-.409.613-1.431Z" data-name="Path 950"/><path d="M432.913 193.536c-.2.2-.2.613.409.818s.818 0 1.431-.409 1.227-.818 2.045-.409a1.472 1.472 0 0 1 .818 2.045c-.2.2-.409.613-.613.818v.409l-1.636-.818c1.022.2 1.84 0 2.045-.613.2-.409-.2-.818-.409-1.022-.409-.2-.818 0-1.431.409a1.586 1.586 0 0 1-2.045.409c-.818-.409-1.227-1.022-.818-1.636 0-.409.409-.613.613-.818 0-.2 0-.2-.2-.409v-.2l1.636.818h-.2c-1.022-.2-1.636.2-1.636.613Z" data-name="Path 951"/></g><g stroke="#000" stroke-width="1.438"><path fill="#fff" d="M368.301 121.147c-2.658.613-4.5.818-6.952-1.431a3.7 3.7 0 0 1 .409-5.521c1.84-1.227 3.476-2.045 5.725-1.431s8.179 6.134 6.748 6.339c-1.431 0-3.68 1.431-5.93 2.045Z" data-name="Path 952"/><path fill="#fff" d="M374.639 111.335c.818-.613 1.84-1.022 4.5-1.227 2.454-.2 4.294-.2 4.907 1.636.818 2.249 1.431 4.907 3.067 6.134-1.022.613-6.134 1.227-7.974.2-2.46-1.225-3.069-5.928-4.5-6.743Z" data-name="Path 953"/><path fill="#fff" d="M392.224 111.537c.818-.613 1.84-.613 4.5-.409s3.68.409 4.294 2.249c.613 2.045 0 4.7 1.227 6.543-1.227.409-5.316.409-6.748-1.022-2.249-1.636-2.045-6.339-3.272-7.361Z" data-name="Path 954"/><path fill="#073163" d="M404.493 112.763c-1.84-.409-3.067-.613-3.885 0 1.022 1.227.2 6.134 2.249 7.77 1.431 1.022 5.112 1.227 5.93-1.022 1.022-2.045 1.022-5.112-4.294-6.748Z" data-name="Path 955"/><path fill="#073163" d="M383.432 110.719c.613-.613 1.84-.818 4.294-.818 2.658 0 4.294.409 5.112 2.045.818 2.045.613 4.7 2.045 6.339-.613.818-6.134.818-7.77-.409-2.249-1.431-2.454-6.134-3.68-7.157Z" data-name="Path 956"/><path fill="#073163" d="M366.051 112.56c0-1.022 1.431-1.227 5.112-1.431 3.681-.409 3.885-.2 5.112 2.454.613 1.431 1.431 3.885 3.067 4.7-4.5 1.022-5.93 1.636-8.383.2a12.474 12.474 0 0 1-4.294-4.5c-.2-.613-.2-1.227-.613-1.431Z" data-name="Path 957"/></g><g stroke="#000" stroke-width=".647" data-name="Group 145"><path fill="#fcd93a" d="M375.866 91.703c-4.294-3.272-9.406-6.339-14.109-6.952a125.633 125.633 0 0 1 13.905 10.834" data-name="Path 958"/><path fill="#fcd93a" d="M378.32 88.636c-5.112-3.476-11.042-7.361-16.767-7.77a54.491 54.491 0 0 1 14.111 11.86" data-name="Path 959"/><path fill="#fcd93a" d="M384.863 82.911a39.715 39.715 0 0 1 10.019-13.7c-2.045 4.294-4.294 13.086-5.316 16.562" data-name="Path 960"/><path fill="#fcd93a" d="M389.362 81.889a20.65 20.65 0 0 1 10.428-10.837c-2.658 2.658-6.748 10.633-7.77 14.927" data-name="Path 961"/><path fill="#fcd93a" d="M391.202 85.978c2.454-3.476 7.361-10.019 16.153-13.5-5.112 5.112-12.677 14.518-14.518 18.2" data-name="Path 962"/><path fill="#fcd93a" d="M394.064 90.476c3.681-2.045 11.042-5.316 16.358-4.294-3.272 1.227-13.086 5.725-17.38 9.815" data-name="Path 963"/><path fill="#fcd93a" d="M393.251 89.045c3.476-3.681 9.815-9.2 16.562-11.451-4.907 4.7-15.336 15.336-16.767 16.971" data-name="Path 964"/><path fill="#fcd93a" d="M383.432 86.796c-2.454-7.566-6.134-14.722-11.655-16.971a55.85 55.85 0 0 1 9 20.856" data-name="Path 965"/><path fill="#fcd93a" d="M378.729 86.592c-4.089-4.907-9.61-9.815-15.949-10.837 4.294 2.454 11.451 9.61 14.109 16.562" data-name="Path 966"/><path fill="#fcd93a" d="M380.974 86.387c-5.112-9.2-9-10.837-11.246-12.677 1.84 3.476 6.339 12.677 9 16.562" data-name="Path 967"/><path fill="none" d="M370.754 85.773a24.629 24.629 0 0 1 7.361 7.157" data-name="Path 968"/><path fill="#fcd93a" d="M370.754 90.067c1.227 1.022 3.476 2.249 5.521 4.089" data-name="Path 969"/><path fill="#fcd93a" d="M395.087 93.134a42.717 42.717 0 0 1 8.792-5.112" data-name="Path 970"/><path fill="#fcd93a" d="M393.656 91.703a65.41 65.41 0 0 1 7.566-7.566" data-name="Path 971"/><path fill="#fcd93a" d="M399.38 79.026a122.416 122.416 0 0 0-7.77 9.61" data-name="Path 972"/><path fill="#fcd93a" d="M394.064 77.185a66.982 66.982 0 0 0-5.112 9" data-name="Path 973"/><path fill="#fcd93a" d="M377.911 77.594c1.227 3.272 3.476 8.792 4.294 11.042" data-name="Path 974"/><path fill="#fcd93a" d="M376.07 81.071a28.54 28.54 0 0 1 3.067 6.134" data-name="Path 975"/><path fill="#fcd93a" d="M383.022 80.048c0-1.84 1.227-3.885 2.454-3.885 1.431 0 2.454 2.454 2.454 3.885 0 1.636-1.227 3.067-2.454 3.067a2.806 2.806 0 0 1-2.454-3.067Z" data-name="Path 976"/><path fill="#fcd93a" d="M380.365 81.684c.2-2.045 1.636-3.681 2.863-3.476s1.84 2.658 1.636 4.089c-.2 1.636-1.636 2.863-2.658 2.658-1.024 0-2.046-1.431-1.841-3.271Z" data-name="Path 977"/><path fill="#fcd93a" d="M385.885 82.297c-.409-1.84.409-3.885 1.636-4.089s2.454 1.84 2.658 3.476c.409 1.636-.613 3.272-1.636 3.272-1.022.204-2.453-.818-2.658-2.659Z" data-name="Path 978"/><path fill="#fcd93a" d="M382.818 83.934c0-2.045 1.227-3.885 2.454-3.885 1.431 0 2.454 2.249 2.454 3.885s-1.227 3.067-2.454 3.067a2.806 2.806 0 0 1-2.454-3.067Z" data-name="Path 979"/><path fill="#fcd93a" d="M379.135 84.956c0-1.84 1.431-3.885 2.658-3.885s2.454 2.454 2.454 3.885c0 1.636-1.431 3.067-2.454 3.067a2.953 2.953 0 0 1-2.658-3.067Z" data-name="Path 980"/><path fill="#fcd93a" d="M386.703 84.138c0-1.84 1.227-3.885 2.454-3.885 1.431 0 2.454 2.454 2.454 3.885 0 1.636-1.227 3.067-2.454 3.067a2.806 2.806 0 0 1-2.454-3.067Z" data-name="Path 981"/><path fill="#fcd93a" d="M385.885 85.774c0-2.045 1.431-3.885 2.658-3.885s2.454 2.249 2.454 3.885-1.227 3.067-2.454 3.067a2.953 2.953 0 0 1-2.658-3.067Z" data-name="Path 982"/><path fill="#fcd93a" d="M382.614 87.614c0-2.045 1.227-3.885 2.454-3.885 1.431 0 2.454 2.454 2.454 3.885 0 1.636-1.227 3.067-2.454 3.067a2.806 2.806 0 0 1-2.454-3.067Z" data-name="Path 983"/><path fill="#fcd93a" d="M377.502 87.614c0-2.045 1.022-3.885 2.045-3.885s1.84 2.454 1.84 3.885c0 1.636-1.022 3.067-1.84 3.067-1.023 0-2.045-1.227-2.045-3.067Z" data-name="Path 984"/><path fill="#fcd93a" d="M388.952 87.205c0-1.84 1.022-3.681 2.045-3.681s2.045 2.249 2.045 3.681c0 1.84-1.227 3.067-2.045 3.067-1.023 0-2.045-1.226-2.045-3.067Z" data-name="Path 985"/><path fill="#fcd93a" d="M390.179 90.681c.409-2.045 1.636-3.681 2.454-3.476s1.022 2.658.613 4.089c-.2 1.84-1.431 2.863-2.249 2.658s-1.227-1.635-.818-3.271Z" data-name="Path 986"/><path fill="#fcd93a" d="M386.294 90.067c.2-1.84 1.431-3.681 2.454-3.476 1.227 0 1.84 2.454 1.636 3.885-.2 1.84-1.227 3.067-2.249 2.863-1.023 0-2.046-1.432-1.841-3.272Z" data-name="Path 987"/><path fill="#fcd93a" d="M380.569 90.681c-.613-2.045-1.84-3.476-2.658-3.272s-1.022 2.658-.613 4.089c.409 1.636 1.636 2.658 2.454 2.454.613-.204 1.23-1.635.817-3.271Z" data-name="Path 988"/><path fill="#fcd93a" d="M379.135 90.271c0-1.84 1.022-3.681 2.045-3.681 1.227 0 2.045 2.249 2.045 3.681 0 1.84-1.022 3.067-2.045 3.067-.815 0-2.045-1.226-2.045-3.067Z" data-name="Path 989"/><path fill="#fcd93a" d="M382.204 91.088c0-2.045 1.227-3.885 2.454-3.885 1.431 0 2.454 2.249 2.454 3.885s-1.227 3.067-2.454 3.067a2.807 2.807 0 0 1-2.454-3.067Z" data-name="Path 990"/><path fill="#fcd93a" d="M383.227 68.597c-.409 1.636-1.84 3.067-.818 5.316-1.84-.613-3.476-.818-4.907.818a4.436 4.436 0 0 1 4.294 1.636 2.461 2.461 0 0 0-2.863 1.636c1.431-.409 2.863-.818 3.476-.613a7.052 7.052 0 0 0-1.84 2.454c1.227-1.022 2.658-.818 3.476-1.431-.613 1.431.613 2.863 1.636 4.294-.2-2.045 1.022-3.476.409-4.5 1.84.409 2.045 2.045 4.7 2.045-1.022-.613-1.636-2.658-2.863-2.658.613-.2 3.067-.409 3.476 0a3.734 3.734 0 0 0-2.658-1.636c.818-.818 2.249-2.454 3.272-2.863-1.431.2-3.68.409-4.5 1.636 2.045-1.636 1.636-4.7 3.885-5.112-1.227-.2-3.067.613-4.5 2.045.613-1.227.613-2.863 1.431-3.272-1.636.409-3.476 2.454-4.089 3.476a7.715 7.715 0 0 0-1.022-3.272Z" data-name="Path 991"/><path fill="#fcd93a" d="M384.249 71.869a7.667 7.667 0 0 1-.2 2.249" data-name="Path 992"/><path fill="#fcd93a" d="M386.908 71.67a5.354 5.354 0 0 0-1.227 3.067" data-name="Path 993"/><path fill="none" d="M388.135 74.119a3.263 3.263 0 0 0-1.431 1.84" data-name="Path 994"/></g><path fill="#3ca469" stroke="#000" stroke-width="1.438" d="M366.46 94.361a4.367 4.367 0 0 1-3.476-1.636c-1.431-1.84-5.316-2.658-6.952-1.022a7.789 7.789 0 0 1-2.045.613c-1.022 0-2.249 1.022-1.84 3.067.818-.613 1.022 0 1.636 0 .409-.2.2.2.2.613 0 1.022 2.249 3.067 4.294 2.863a4.888 4.888 0 0 1 3.681 1.227c.613.613.2.409.613 1.431.613.613.818.818-.2 1.636a4.143 4.143 0 0 0 0 6.339c2.658 2.045 9.406 5.112 16.971-.818 7.361-5.725 18.812-2.454 19.629-.409a16.929 16.929 0 0 1 1.636 4.294 2.294 2.294 0 0 0 2.658 1.431 7.3 7.3 0 0 1 3.885 1.227c1.022.613 2.454.409 2.045-1.431-.818-5.725-4.294-6.543-4.7-9.2 2.045.2 3.476.2 4.294-.613.613-.818 1.431-2.249 2.249-2.658.613-.409.613-.818-.2-.613a8.02 8.02 0 0 1-3.476.409c-9.406-1.022-35.783-8.179-40.895-6.748Z" data-name="Path 995"/><path stroke="#000" stroke-width="1.438" d="M408.172 101.314c-1.022.613-2.045 1.636-3.885 4.089-2.045 2.658-8.179 5.316-15.745 5.316-7.361 0-11.859-1.227-15.131-3.885a25.864 25.864 0 0 0-4.5-2.863 3.963 3.963 0 0 1-2.045-5.112c-.613 1.022-1.022 2.045-2.249 1.84-.818 0-2.454 0-2.045.818-.2-.409-.2-1.022-.409-1.227l-.409-.409c.613.409 2.045-.818 3.067-.818.818.2 1.84-.818 1.636-2.045-.2-1.022-.409-1.84-.613-2.658 1.636-.818 23.106 3.067 27.4 3.476 4.294.2 16.562 2.045 14.927 3.476Z" data-name="Path 996"/><path fill="#059334" stroke="#000" stroke-width="1.438" d="M369.323 93.543c2.045-2.045 4.5-3.067 6.952-2.454h.613a6.232 6.232 0 0 1 5.725-.409h.818c2.454-.818 7.157 0 8.792 1.636l.613.409c5.521-.409 8.792 2.045 12.677 5.93a4.045 4.045 0 0 0 2.045 1.431c1.227.2 1.431.818.409 1.431-1.227.613-2.249 1.636-4.294 3.885-1.84 2.454-7.77 4.907-15.131 4.907-7.157 0-11.451-1.227-14.722-3.681a38.113 38.113 0 0 0-4.294-2.863c-1.227-.409-2.863-2.045-2.249-3.681.409-1.636-.613-3.681-1.431-5.725.613-.409 2.249-1.022 3.067-.613l.409-.2Z" data-name="Path 997"/><g fill="#358142" stroke="#000" stroke-width="1.438" data-name="Group 146"><path d="M405.515 98.655c-3.885-3.885-7.157-6.339-12.677-5.93a3.039 3.039 0 0 1-.2 1.227 28.275 28.275 0 0 1 10.019 7.566 18.945 18.945 0 0 0 2.863-2.863Z" data-name="Path 998"/><path d="M392.224 92.317c-1.636-1.636-6.339-2.454-8.792-1.636a6.96 6.96 0 0 1-.409 2.863 12.247 12.247 0 0 1 3.885 3.476c.818-.2 2.863-.818 3.885-1.022a19.68 19.68 0 0 0 1.431-3.681Z" data-name="Path 999"/><path d="M382.613 90.681a6.232 6.232 0 0 0-5.725.409 9.261 9.261 0 0 0-.613 3.272 4.489 4.489 0 0 1 2.454 1.022 11.034 11.034 0 0 0 3.476-1.84 6.96 6.96 0 0 0 .408-2.863Z" data-name="Path 1000"/><path d="M369.323 93.543c2.045-2.045 4.5-3.067 6.952-2.454a6.259 6.259 0 0 0-.613 3.067 11.724 11.724 0 0 0-6.339 1.227Z" data-name="Path 1001"/><path d="M401.835 101.926c-1.84-2.658-6.339-5.725-9.406-7.157 0 .2-.409 1.022-.613 1.636a77.884 77.884 0 0 1 4.7 8.179 32.056 32.056 0 0 0 5.319-2.658Z" data-name="Path 1002"/><path d="M386.294 106.425a76.376 76.376 0 0 0 .613-8.383c1.022-.2 3.067-.818 3.885-1.022 1.022 1.636 3.476 5.93 4.5 7.974-2.454.613-6.543 1.636-9 1.431Z" data-name="Path 1003"/><path d="M379.135 96.61a15.423 15.423 0 0 0 3.476-2.045 20.359 20.359 0 0 1 3.067 2.863c0 1.84-.613 7.157-.818 9a13.721 13.721 0 0 1-5.725-1.231c.2-3.067.409-6.543 0-8.588Z" data-name="Path 1004"/><path d="M368.914 99.064a8.788 8.788 0 0 0 .409-2.454c1.636-1.022 5.725-2.045 8.792-.409a54.46 54.46 0 0 1-.2 8.383c-2.658-2.045-6.952-4.907-9-5.521Z" data-name="Path 1005"/></g><g data-name="Group 147"><path d="M358.69 95.383c-.409 0-.613-1.227-1.431-1.227-.2 0-.818.2-1.022 0a1.562 1.562 0 0 0 .409 1.022c.204.614 1.226.205 2.044.205Z" data-name="Path 1006"/><path fill="none" stroke="#000" stroke-width="1.438" d="M358.69 98.86c2.454 0 2.863-3.067 4.089-3.272" data-name="Path 1007"/><path fill="none" stroke="#000" stroke-width="1.438" d="M360.121 99.064c1.84.818 3.272-3.476 4.7-3.272" data-name="Path 1008"/><path fill="none" stroke="#000" stroke-width="1.438" d="M356.441 93.748c.613 0 1.022-.818 2.045.2a2.209 2.209 0 0 0 1.431.613" data-name="Path 1009"/><path fill="none" stroke="#000" stroke-width="1.438" d="M359.508 96.815c-.818 1.227-2.249 2.045-3.067 1.636" data-name="Path 1010"/><path fill="none" stroke="#000" stroke-width="1.438" d="M356.032 91.703a6.367 6.367 0 0 0-1.431 1.84" data-name="Path 1011"/><path fill="none" stroke="#000" stroke-width="1.438" d="M353.987 94.77v1.022" data-name="Path 1012"/></g><g data-name="Group 153"><path fill="#fff" d="M422.281 121.352v39.872c0 34.556-16.358 46.415-38.237 55.821-21.879-9.406-38.441-21.265-38.441-55.821v-39.872h76.678Z"/><path fill="#e0193a" d="M384.045 155.09c1.84 0 4.7-1.636 7.157-4.089 2.658-2.863 7.157-3.885 11.859 0s7.566 2.249 10.019 0 4.5-3.067 9.2-3.067v-26.582h-76.676v26.582c4.7 0 6.748.818 9.2 3.067s5.316 3.885 10.019 0c4.907-3.885 9.2-2.863 12.064 0 2.249 2.454 5.112 4.089 7.157 4.089Z" data-name="Path 1013"/><g data-name="Group 148"><path fill="#2e6aa3" d="M384.045 175.537c2.454 0 7.361-2.658 8.588-3.272 4.5-2.658 7.77-.2 10.428 1.022 2.863 1.227 8.179 2.658 11.451 0s5.112-2.454 7.361-2.454a72.408 72.408 0 0 0 .409-9.61v-2.454c-2.863-.613-4.294.2-7.361 2.863s-6.543 2.045-11.042.409c-4.294-1.84-8.588-5.112-12.882 0-1.227 1.431-4.089 3.476-6.952 3.476a9.886 9.886 0 0 1-6.952-3.476c-4.5-5.112-8.588-1.84-12.882 0-4.5 1.636-8.179 2.249-11.246-.409-2.863-2.658-4.294-3.476-7.361-2.863v2.454a71.218 71.218 0 0 0 .613 9.61c2.249 0 3.885-.2 7.157 2.454s8.792 1.227 11.451 0c2.863-1.227 6.134-3.681 10.633-1.022 1.227.613 5.93 3.272 8.588 3.272Z" data-name="Path 1014"/><path fill="#2f4ba1" d="M384.045 184.329a21.791 21.791 0 0 0 10.019-3.067c4.089-2.249 6.952-1.227 11.042.818 4.294 2.045 7.77 1.431 10.224 0 1.227-.818 2.249-2.454 4.907-1.84a46.29 46.29 0 0 1-5.316 13.291c-4.089 1.022-6.339 1.022-10.633-.818-4.294-2.045-9.61-3.272-12.473-1.431a13.529 13.529 0 0 1-15.54 0c-2.863-1.84-8.179-.613-12.473 1.431-4.294 1.84-6.543 1.84-10.633.818a46.289 46.289 0 0 1-5.316-13.291c2.658-.613 3.68 1.022 4.907 1.84 2.249 1.431 5.93 2.045 10.019 0 4.294-2.045 7.157-3.067 11.246-.818a21.791 21.791 0 0 0 10.019 3.067Z" data-name="Path 1015"/><path fill="#2f4ba1" d="M384.045 217.045c8.179-3.476 15.745-7.361 21.879-12.677-1.636-.613-2.658-.2-4.089-1.227s-5.725-1.431-9.406.613c-3.885 1.84-5.521 2.249-8.383 2.249s-4.5-.409-8.383-2.249c-3.681-2.045-7.974-1.636-9.406-.613s-2.454.613-4.089 1.227c6.134 5.316 13.5 9.2 21.879 12.677Z" data-name="Path 1016"/></g><path fill="#fcd93a" stroke="#000" stroke-width="1.438" d="M378.729 131.372c.2.409-.2 1.431 0 1.84.409.818.409 1.227 1.022 1.636h1.431c4.5 0 9.815-1.84 14.313-1.84 4.294 0 6.952 1.431 9.406 1.431 1.431 0 2.658-1.022 2.658-2.045s-1.636-1.636-5.112-1.636c-4.907 0-7.565 1.227-11.655 1.227-6.134 0-7.157-2.249-7.157-3.272s1.022-2.454 4.294-2.454a3.289 3.289 0 0 0 2.249-.613 4.571 4.571 0 0 1 2.045-1.84c1.431-.818 4.294 0 5.725-1.022 0 .818-1.227 2.045-2.249 2.454 2.045-.613 4.294-.613 4.7 1.022a4.48 4.48 0 0 0-3.272 0c-.818.2-1.227.409-2.045.613.818-.2 1.227 1.431 2.454 1.431-1.227 1.022-3.272 1.022-5.316.2a12.72 12.72 0 0 0-3.272-.818c-2.045 0-3.272.409-3.272 1.227 0 1.022 1.227 1.636 4.907 1.636s5.725-1.022 11.246-1.022c-.409-.613.2-1.227-.613-1.84 2.045 0 4.294.613 5.112 2.045-.2-1.431 1.022-2.658.613-3.885a3.326 3.326 0 0 1 2.454 2.454c0-.613.818-.613.818-1.227a3.159 3.159 0 0 1 1.636 3.272c.613-1.022 1.227-.613 1.636-1.84.409.818.2 3.272-1.227 4.089a3.228 3.228 0 0 1 4.294.613 3.93 3.93 0 0 0-2.454.613 18.944 18.944 0 0 1-9.61 2.045c-3.272-.2-3.68-.818-5.725-.818 1.227.2 3.68 2.658 5.93 2.658a11.772 11.772 0 0 0 3.067-.2 3.688 3.688 0 0 1 2.454.409 3.386 3.386 0 0 0 2.658 1.023 1.793 1.793 0 0 1-1.227 1.431c1.022.613.409 1.022 1.431 1.84-.409 0-.818.409-1.431.2.613.613.613 1.431 1.227 1.84-.2 0-.818.2-1.227 0 .613.818 0 1.84.613 2.249.613.818-.613 1.84-1.636 1.022a.819.819 0 0 1-1.022 1.022c-.613-.2-1.022-.818-.818-1.022 0-.2 0-.2.2-.409a1.336 1.336 0 0 1-1.636.409c-.2-.2-.409-.409-.409-.613a1.318 1.318 0 0 1-1.84-1.431c.2-.613 1.431-.818 1.84-.613s.818.409 1.227 0a1.124 1.124 0 0 0 .613-1.022c0-.613-.613-2.454-3.272-2.249a33.857 33.857 0 0 1-10.428-1.431c-.2-.2-.409-.2-.613-.409 0 .818-.818 1.227-.818 2.045a2.154 2.154 0 0 0 1.636 2.249 1.17 1.17 0 0 1-2.045.2c0 .613-.818 1.022-.818 1.84-.2-.409-.409-.613-.613-1.022-.613 1.431-2.249 2.249-3.067 1.84a1.71 1.71 0 0 1-2.658-.2 1.526 1.526 0 0 1-1.84 0c0 .613-.409.409-.613 1.227 0 .409-.818.613-1.227.409a.987.987 0 0 1-.2-1.431 1.237 1.237 0 0 1-1.636 0c0-.409 0-1.022.409-1.227h.409c-.409-.2-1.022 0-1.431-.2a.963.963 0 0 1-.2-1.227c.2-.2.818-.613 1.227-.2l.2.2c0-.409.2-.818.409-.818a1.382 1.382 0 0 1 1.636.409c.409.613.818.613 2.045.409 1.022 0 2.658-1.022 3.885-2.045-3.476-.613-1.431-2.863-.409-3.681a4.6 4.6 0 0 0-2.863.2c-4.294 2.249-8.792 4.907-11.655 4.09a2.906 2.906 0 0 0 .409 1.227c-.613 0-1.84 0-2.249-.613a2.713 2.713 0 0 0-.2 2.249 7.558 7.558 0 0 0-2.249-1.022c.409.409 0 1.227.2 1.84-.613-.613-1.636-1.022-2.045-.613a1.961 1.961 0 0 1-1.84.409 3.18 3.18 0 0 1-1.636 1.227c0-.409 0-1.022-.2-1.227a3.492 3.492 0 0 1-1.636 1.84 3.48 3.48 0 0 0-.2-1.431c0 .818-1.636 1.227-1.84 1.84a5.081 5.081 0 0 0 .2-1.636 3.134 3.134 0 0 1-2.045 1.431 1.352 1.352 0 0 0 .2-1.227c-.2.818-1.431 1.227-2.454 1.022 0 .409-.818 1.022-1.84.409-.613-.2-1.022-.818-.613-1.227-.818 0-1.636-.818-1.227-1.431 0-.2.2-.409.2-.613a1.153 1.153 0 0 1-.2-1.84c.2-.2.818-.2 1.227-.2 0-1.636 1.431-1.636 2.045-.409.409.613 1.636 1.636 2.658 1.431.409 0 .613-.2 1.022-.2a17.554 17.554 0 0 0 5.112-2.658 3.992 3.992 0 0 0 .2-1.431 5.219 5.219 0 0 0-2.045 1.431v-.617c-.613 0-1.636-.2-2.045-.2.2-.2.409-1.227.818-1.431a6.564 6.564 0 0 1-2.863-.2c.409-.409.409-1.022.613-1.636-.409.2-1.431-.2-2.249 0 .2-.613.409-1.431 1.022-1.636a4.9 4.9 0 0 1-2.863-.409c.818 0 1.227-1.022 1.84-1.022-1.636 0-2.045-.818-2.863-1.227.613.2 1.022-.409 1.636-.409-.613-.2-1.636-1.227-1.227-1.84-.2.2-.409.613-.818.818a1.851 1.851 0 0 1-1.84-.613 1.373 1.373 0 0 1 .613-2.045.979.979 0 0 1-.613-1.636c.2-.409 1.022-1.022 1.431-.409.2.2.409.613.613.818a5.077 5.077 0 0 1-.2-1.84c.2-.613.613-.613 1.227-.818a1.145 1.145 0 0 1 1.022 1.227 7.589 7.589 0 0 0 .409 1.84c0-.2.2-.613.2-.818 0-.818 1.022-.613 1.636-.409s.818 1.431 0 2.045a1.01 1.01 0 0 0 .2 1.431c1.431 2.249 3.885 4.089 5.93 4.294a3.283 3.283 0 0 1 1.022-2.249 3.791 3.791 0 0 1 .409-1.431c.2-1.227.818-1.84 1.636-1.431-.2-.2-.409-.409-.409-.613-.613-.613-1.227-1.636-.818-2.454s1.636-.613 2.045-.2c-.2-1.227 1.227-2.249 1.227-2.863.2.613.613 1.431.409 2.045.2-.818 1.636-1.84 2.658-2.249-.409.613.818 1.636.613 2.249.409-1.022 2.045-1.636 3.272-1.636a2.458 2.458 0 0 0-.409 1.636 2.625 2.625 0 0 0 2.045-.818 3.124 3.124 0 0 1-.818 2.045 3.516 3.516 0 0 1 1.636-.2c-.613.613-.409 1.227-1.022 1.636.818-.409 1.84-.409 2.045.409.409.613-.2 1.636-.613 2.249-.409.2-.818.613-1.022.613Z" data-name="Path 1017"/><g fill="none" stroke="#000" stroke-width="1.438" data-name="Group 149"><path d="M366.051 133.825a3.857 3.857 0 0 0-2.045 2.863" data-name="Path 1018"/><path d="M365.847 135.256c-2.045 1.227-2.863 2.249-2.454 4.5" data-name="Path 1019"/><path d="M366.869 141.391a4.66 4.66 0 0 0 3.067-2.658" data-name="Path 1020"/><path d="M369.323 139.549c-.409.818 0 2.249-.613 2.863a3.824 3.824 0 0 0 2.045-2.863" data-name="Path 1021"/><path d="M369.732 141.797a6.729 6.729 0 0 0 2.658-3.067c-.2.613 0 1.636-.409 2.249a4.745 4.745 0 0 0 1.636-2.658c0 .2.2.613.2.818a2.125 2.125 0 0 0 .818-1.636" data-name="Path 1022"/><path d="M374.639 138.119v1.022a2.752 2.752 0 0 0 1.022-2.454" data-name="Path 1023"/><path d="M375.457 137.915c1.227-.818 1.431-2.045 1.431-3.885" data-name="Path 1024"/><path d="M376.888 136.074c.818-.613 1.022-1.022 1.022-2.863" data-name="Path 1025"/><path d="M375.253 127.691a.749.749 0 0 0-.818.818c0 .409-.613 1.022-.613 1.636-.2.818-.613 1.022-1.227.818-.613-.409-.613-.409-.613-1.022 0-.818 1.022-1.022 1.022-1.84.2-.409.409-1.022.613-1.022a1.721 1.721 0 0 1-2.658-1.022" data-name="Path 1026"/><path d="M377.093 128.304c-.409.2-.818-.409-1.431-.2-.2 0-.818.2-1.022 0" data-name="Path 1027"/><path d="M374.229 129.326a2.469 2.469 0 0 0 2.249.2.785.785 0 0 1-.613-1.431" data-name="Path 1028"/><path d="M372.39 127.282c-.818 0-1.431.613-1.227 1.227s1.022.613 1.636.2" data-name="Path 1029"/><path d="M370.959 137.506a1.419 1.419 0 0 1 1.431-1.227 1.781 1.781 0 0 0 1.636-1.227c.409 0 .613-1.022.818-1.431.2.2.613 0 .818-.818a.911.911 0 0 0 1.227-.613" data-name="Path 1030"/><path d="M368.506 130.758c0 .2-.409.613-.818.818a1.59 1.59 0 0 1-.409 1.636 1.8 1.8 0 0 1-.2 1.431c0 .2.2.818.2 1.022" data-name="Path 1031"/><path d="M369.323 126.668c-.409 1.022-.2 2.249.613 2.454" data-name="Path 1032"/><path d="M369.732 129.94c-.2 1.022-.2 2.454-.409 3.067a1.491 1.491 0 0 0 1.022 2.249c1.84.409 2.863.2 3.885-2.863" data-name="Path 1033"/><path d="M377.298 140.368a.653.653 0 0 1-.613.613" data-name="Path 1034"/><path d="M378.729 139.959a2.332 2.332 0 0 1-.613 1.227" data-name="Path 1035"/><path d="M380.16 139.549c0 .409 0 1.022-.409 1.227" data-name="Path 1036"/><path d="M367.687 126.873c.2 0 .409.409.613.818-.613-.409-1.227.613-.818 1.227" data-name="Path 1037"/><path d="M367.074 130.349c-.2.2-.613.409-.818.613" data-name="Path 1038"/><path d="M366.46 132.189c-.2 0-.409.2-.613.2" data-name="Path 1039"/><path d="M356.646 128.508c0-.2 0-.2.2-.409" data-name="Path 1040"/><path d="M354.805 127.895c-.2 0-.2 0-.409-.2" data-name="Path 1041"/><path d="M355.01 130.758h.409" data-name="Path 1042"/><path d="M354.191 129.531a2.25 2.25 0 0 0-1.227-.613" data-name="Path 1043"/><path d="M365.438 137.097a5.561 5.561 0 0 0-2.249 3.681" data-name="Path 1044"/><path d="M366.869 138.119a4.827 4.827 0 0 1-1.636 1.84" data-name="Path 1045"/><path d="M358.896 144.253a4.707 4.707 0 0 1-4.089-.613c-.2-.2-.409-.2-.613-.409" data-name="Path 1046"/><path d="M365.029 141.39c-.2.818-.409 1.84-.818 2.045 1.636-.818 3.067-2.045 3.272-3.885" data-name="Path 1047"/><path d="M353.17 145.276c.613-.2 1.227.2 1.636-.2" data-name="Path 1048"/><path d="M388.748 138.528a6.81 6.81 0 0 1 1.227.613 3.466 3.466 0 0 1 1.636-1.227" data-name="Path 1049"/><path d="M374.231 142.822a1.911 1.911 0 0 1 1.431-2.247" data-name="Path 1050"/><path d="M366.256 146.298c.2-.409.2-1.022.409-1.431" data-name="Path 1051"/><path d="M357.258 146.911c-.2.409-.613.818-.613 1.227" data-name="Path 1052"/><path d="M354.192 147.32a.2.2 0 0 1 .2-.2 3.005 3.005 0 0 0 1.227-1.022" data-name="Path 1053"/><path d="M382 144.458c-.409.2-.613 0-.818-.2" data-name="Path 1054"/><path d="M381.795 145.481a.714.714 0 0 1-.409.2" data-name="Path 1055"/><path d="M382.813 146.503c-.2.2-.409.409-.613.409" data-name="Path 1056"/><path d="M388.748 146.912c.409-.2.613-.613.818-1.431" data-name="Path 1057"/><path d="M386.093 146.706a4.287 4.287 0 0 0 1.636-1.227" data-name="Path 1058"/><path d="M391.815 145.071a2.594 2.594 0 0 1 .2-1.227" data-name="Path 1059"/><path d="M406.95 146.911a.876.876 0 0 1 .2-1.431c.409-.2.613-.409 1.022-.613" data-name="Path 1060"/><path d="M394.474 139.755c-3.272-1.431-3.067-3.272-5.725-3.067" data-name="Path 1061"/><path d="M408.991 146.093c.2.2 0 .818 0 1.022" data-name="Path 1062"/><path d="M410.831 146.093a3.48 3.48 0 0 0-.2 1.431" data-name="Path 1063"/><path d="M395.087 126.873h-1.636" data-name="Path 1064"/><path d="M377.911 133.825c0 .409.613 1.227 2.249 1.227a.714.714 0 0 1-.409-.2" data-name="Path 1065"/><path d="M378.729 131.372a.283.283 0 0 1-.409 0c-.409-.409.2-1.227.818-1.636a3.991 3.991 0 0 1-1.431.2c-.409 1.227-1.636 1.84-2.454 1.022-.2.818-1.227 1.84-2.045 1.636a1.287 1.287 0 0 1-.818-1.636 1.719 1.719 0 0 1-2.658 0 4.789 4.789 0 0 1 .409-2.658" data-name="Path 1066"/></g><path d="M391.815 139.142c-.613.409-1.227 0-1.84.613-.409.409.2.613.613.613-.2.613-.2.818.818.818-.409.613.818.818.613 1.636a1.953 1.953 0 0 0 .409-2.045c-.2-.613-1.227-1.022-.613-1.636Z" data-name="Path 1067"/><g fill="#073163" data-name="Group 150"><path d="M373.208 132.599a1.287 1.287 0 0 1-.818-1.636 1.124 1.124 0 0 1-1.022.613c-.818 1.84-1.84 3.476-3.067 3.476-1.431.2-1.227 1.636-.2 1.636 2.244.409 3.27-.409 5.107-4.089Z" data-name="Path 1068"/><path d="M352.965 127.692a.846.846 0 0 0-.2-1.431 2.262 2.262 0 0 0-2.454 1.022c.613-.2 1.227-.2 1.431.2s.61.823 1.223.209Z" data-name="Path 1069"/><path d="M353.987 124.011c1.431 0 1.84.2 2.045.818a.781.781 0 0 1-.613 1.022c-.613 0-1.227-.409-1.022-.613a.82.82 0 0 0-.41-1.227Z" data-name="Path 1070"/><path d="M358.077 127.283c1.022.2 1.431-.409.818-1.227-.2-.613-.818-1.022-1.84-.818 1.022.617 0 1.636 1.022 2.045Z" data-name="Path 1071"/><path d="M350.511 130.759a1.664 1.664 0 0 0 2.045.818.911.911 0 0 0 .613-1.227c-.409-.613-1.022-.818-1.227 0a.927.927 0 0 1-1.431.409Z" data-name="Path 1072"/><path d="M353.578 143.229c-.409-.818-1.636-.818-2.658 0a1.264 1.264 0 0 1 1.431.409.816.816 0 0 0 .818.409c.205-.202.614-.406.409-.818Z" data-name="Path 1073"/><path d="M355.214 142.005c0-1.022-1.431-1.227-2.249-.818.409 0 1.022.409 1.022.818a1.1 1.1 0 0 0 .818.613c.409-.201.613-.409.409-.613Z" data-name="Path 1074"/><path d="M353.169 145.686c-1.227-.2-1.84 1.227-1.84 2.249a1.163 1.163 0 0 1 1.431-.818c.613 0 .818-.2.818-.613.2-.409 0-.613-.409-.818Z" data-name="Path 1075"/><path d="M353.374 149.162c.409.2.818-.2 1.022-.818 0-.409.818-.409 1.022-.2.409.2.409 1.022-.2 1.431-.413.2-1.435.405-1.844-.413Z" data-name="Path 1076"/><path d="M381.796 143.027a2.182 2.182 0 0 0-2.249 0 .993.993 0 0 1 1.227.613.439.439 0 0 0 .818.2c.204-.2.408-.609.204-.813Z" data-name="Path 1077"/><path d="M379.955 144.459c-.818-.409-1.84.613-2.045 1.431a3.053 3.053 0 0 1 1.431-.613c.409.2.818 0 .818-.409.205-.205.205-.409-.204-.409Z" data-name="Path 1078"/><path d="M380.978 146.094a1.755 1.755 0 0 0-1.431 1.636.747.747 0 0 1 1.022-.409c.409 0 1.022-.2 1.022-.613a.542.542 0 0 0-.613-.614Z" data-name="Path 1079"/><path d="M382.818 147.73a.69.69 0 0 0-1.022.613c0 .613 0 1.227-.2 1.431a4.277 4.277 0 0 1 1.227-.818.923.923 0 0 0 0-1.227Z" data-name="Path 1080"/><path d="M405.924 145.889a.771.771 0 0 0-1.227.2 2.817 2.817 0 0 0 0 2.249c0-.409.409-1.022.818-1.022a.9.9 0 0 0 .409-1.431Z" data-name="Path 1081"/><path d="M407.155 146.707c-.818.409-.818 1.84-.2 2.658a1.457 1.457 0 0 1 .613-1.227c.613 0 .818-.818.613-1.227a1.036 1.036 0 0 0-1.022-.2Z" data-name="Path 1082"/><path d="M409.605 147.526c-.409-.2-.818.2-.818.613a1.78 1.78 0 0 0 .818 1.84 1.562 1.562 0 0 1 .409-1.022c.613-.409.408-1.227-.409-1.431Z" data-name="Path 1083"/><path d="M411.445 147.321a.746.746 0 0 0-.409 1.227c.2.409.613.613 1.431.409-.2 0-.613-.613-.409-.818.205-.409 0-.818-.613-.818Z" data-name="Path 1084"/></g><path fill="#f9d050" d="m354.6 185.557 10.223-31.489 10.224 31.489-26.786-19.425h33.125Z" data-name="Path 1085"/><path fill="#358142" d="m356.645 182.695 21.265-15.54h-26.173l21.061 15.54-7.974-24.946Z" data-name="Path 1086"/><g data-name="Group 151"><path fill="#f9d050" d="m393.041 185.557 10.223-31.489 10.224 31.489-26.786-19.425h33.125Z" data-name="Path 1087"/><path fill="#358142" d="m395.086 182.695 21.265-15.54h-26.173l21.061 15.54-7.974-24.946Z" data-name="Path 1088"/></g><g data-name="Group 152"><path fill="#f9d050" d="m373.82 207.845 10.223-31.489 10.224 31.489-26.786-19.425h33.125Z" data-name="Path 1089"/><path fill="#358142" d="m375.865 204.983 21.265-15.54h-26.173l21.061 15.54-7.974-24.946Z" data-name="Path 1090"/></g><path fill="none" stroke="#000" stroke-width="1.438" d="M422.281 121.352v39.872c0 34.556-16.358 46.415-38.237 55.821-21.879-9.406-38.441-21.265-38.441-55.821v-39.872h76.678Z" data-name="Path 1091"/></g></g><g data-name="Group 155"><path fill="#fff" d="M95.68.171v38.456H0v38.456h95.68v38.456h38.289V77.083h95.765V38.627h-95.765V.171Z"/><path fill="#fff" d="M0 .171v12.847l204.067 102.52h25.668v-12.932L25.668.171Z"/><path fill="#fff" d="M204.067.171 0 102.606v12.933h25.668L229.735 13.018V.171Z"/><path fill="#e0193a" d="M103.355.171v46.078H0v23.122h103.355v46.164h23.025V69.371h103.355V46.249H126.38V.171Z"/><path fill="#e0193a" d="M136.016 38.627 212.594.171h17.14l-76.577 38.456Zm-76.579-.086L0 8.736V.171l76.578 38.37Z"/><path fill="#e0193a" d="M153.157 77.143H170.3l59.437 29.891v8.565ZM0 115.599l76.578-38.456h17.14L17.14 115.599Z" data-name="Shape"/></g></g></svg>