<svg xmlns="http://www.w3.org/2000/svg" xmlns:xlink="http://www.w3.org/1999/xlink" width="512" height="300" viewBox="0 0 512 300"><defs><clipPath id="b"><rect width="512" height="300"/></clipPath></defs><g id="a" clip-path="url(#b)"><path d="M0,0H512V300H0Z" fill="#2f4ba1"/><path d="M0,150H256V0H512V300H0Z" fill="#2f4ba1"/><g transform="translate(317.385 68.393)"><path d="M886.686,232.949v39.872c0,34.556-16.358,46.415-38.237,55.821-21.879-9.406-38.441-21.265-38.441-55.821V232.949h76.678Z" transform="translate(-781.79 -179.99)" fill="#fff" stroke="#fff" stroke-linejoin="round" stroke-width="9.6"/><g transform="translate(3.863 113.687)"><path d="M753.562,406.975c1.227,3.272,10.019,7.566,20.243,2.045,6.952-3.885,11.451-9.406,15.745-19.221,1.227-2.454,1.84-5.521-1.022-7.361-2.249-1.636-5.93-3.476-7.566-5.112-.818-.818-1.636-1.431-2.249-2.045a8.9,8.9,0,0,1,1.227,1.431c4.089,4.907-.2,12.064-4.7,16.358-3.272,3.067-9.2,10.633-17.789,3.476-1.84-1.636-6.134,5.112-3.885,10.428Z" transform="translate(-752.925 -375.281)" fill="#fcea83" stroke="#000" stroke-linejoin="round" stroke-width="1.438"/><path d="M996.011,406.975c-1.431,3.272-10.224,7.566-20.243,2.045-6.952-3.885-11.451-9.406-15.949-19.221-1.022-2.454-1.636-5.521,1.227-7.361,2.249-1.636,5.93-3.476,7.566-5.112a20.369,20.369,0,0,1,2.249-2.045,8.9,8.9,0,0,0-1.227,1.431c-4.09,4.907.2,12.064,4.5,16.358,3.272,3.067,9.406,10.633,17.994,3.476C993.967,394.911,998.056,401.659,996.011,406.975Z" transform="translate(-871.056 -375.281)" fill="#fcea83" stroke="#000" stroke-linejoin="round" stroke-width="1.438"/><path d="M824.681,427.583c16.358,0,41.508-7.361,55-33.125,2.249-4.294,0-6.543-2.658-7.974a31.187,31.187,0,0,1-8.179-5.93c3.272,3.272,2.658,5.521.409,9.2-10.428,17.38-24.741,26.173-44.575,26.173s-34.147-8.792-44.575-26.173c-2.249-3.681-2.863-5.93.2-9.2a28.126,28.126,0,0,1-8.179,5.93c-2.658,1.431-4.907,3.681-2.658,7.974,13.5,25.764,38.85,33.125,55.208,33.125Z" transform="translate(-761.885 -378.304)" fill="#fcea83" stroke="#000" stroke-linejoin="round" stroke-width="1.438"/></g><g transform="translate(0 113.193)"><path d="M799.8,389.339c-.409-2.045-3.067-1.227-3.885,1.227a33.628,33.628,0,0,1-2.863-4.5c-2.454-3.681-2.863-6.134.613-9.61,1.636-1.636,4.907-3.476,7.157-1.431,4.7,3.885,2.249,10.224-1.022,14.313Z" transform="translate(-770.97 -374.123)" fill="#c8102e" stroke="#000" stroke-linejoin="round" stroke-width="1.438"/><path d="M983.516,389.339c.409-2.045,3.272-1.227,4.089,1.227a33.628,33.628,0,0,0,2.863-4.5c2.454-3.681,2.863-6.134-.818-9.61-1.431-1.636-4.7-3.476-7.157-1.431-4.5,3.885-2.249,10.224,1.022,14.313Z" transform="translate(-879.234 -374.123)" fill="#c8102e" stroke="#000" stroke-linejoin="round" stroke-width="1.438"/><path d="M748.371,426.017c-2.045-3.067-3.681-11.042-4.089-13.086-.613-1.84-.818-3.476,1.431-4.294s4.294,2.045,5.316,4.5,2.658,6.134,4.5,10.633c-4.5-2.658-8.179-.818-7.157,2.249Z" transform="translate(-743.871 -393.829)" fill="#c8102e" stroke="#000" stroke-linejoin="round" stroke-width="1.438"/><path d="M1036.173,426.017c1.84-3.067,3.476-11.042,4.09-13.086.409-1.84.818-3.476-1.432-4.294s-4.294,2.045-5.316,4.5-2.658,6.134-4.5,10.633c4.5-2.658,7.974-.818,7.157,2.249Z" transform="translate(-907.355 -393.829)" fill="#c8102e" stroke="#000" stroke-linejoin="round" stroke-width="1.438"/></g><g transform="translate(42.921 41.508)"><path d="M852.462,220.924c-2.658.613-4.5.818-6.952-1.431a3.7,3.7,0,0,1,.409-5.521c1.84-1.227,3.476-2.045,5.725-1.431s8.179,6.134,6.748,6.339c-1.431,0-3.68,1.431-5.93,2.045Z" transform="translate(-844.468 -209.678)" fill="#fff" stroke="#000" stroke-linejoin="round" stroke-width="1.438"/><path d="M878.06,207.7c.818-.613,1.84-1.022,4.5-1.227,2.454-.2,4.294-.2,4.907,1.636.818,2.249,1.431,4.907,3.067,6.134-1.022.613-6.134,1.227-7.974.2C880.1,213.218,879.491,208.515,878.06,207.7Z" transform="translate(-863.728 -206.266)" fill="#fff" stroke="#000" stroke-linejoin="round" stroke-width="1.438"/><path d="M919.274,209.232c.818-.613,1.84-.613,4.5-.409s3.68.409,4.294,2.249c.613,2.045,0,4.7,1.227,6.543-1.227.409-5.316.409-6.748-1.022-2.249-1.636-2.045-6.339-3.272-7.361Z" transform="translate(-887.357 -207.596)" fill="#fff" stroke="#000" stroke-linejoin="round" stroke-width="1.438"/><path d="M942.808,212.3c-1.84-.409-3.067-.613-3.885,0,1.022,1.227.2,6.134,2.249,7.77,1.431,1.022,5.112,1.227,5.93-1.022,1.022-2.045,1.022-5.112-4.294-6.748Z" transform="translate(-898.622 -209.438)" fill="#073163" stroke="#000" stroke-linejoin="round" stroke-width="1.438"/><path d="M898.667,206.93c.613-.613,1.84-.818,4.294-.818,2.658,0,4.294.409,5.112,2.045.818,2.045.613,4.7,2.045,6.339-.613.818-6.134.818-7.77-.409-2.249-1.431-2.454-6.134-3.68-7.157Z" transform="translate(-875.542 -206.112)" fill="#073163" stroke="#000" stroke-linejoin="round" stroke-width="1.438"/><path d="M857.932,210.2c0-1.022,1.431-1.227,5.112-1.431,3.681-.409,3.885-.2,5.112,2.454.613,1.431,1.431,3.885,3.067,4.7-4.5,1.022-5.93,1.636-8.383.2a12.474,12.474,0,0,1-4.294-4.5c-.2-.613-.2-1.227-.613-1.431Z" transform="translate(-852.188 -207.541)" fill="#073163" stroke="#000" stroke-linejoin="round" stroke-width="1.438"/></g><g transform="translate(34.681 21.783)"><path d="M839.548,164.935a4.367,4.367,0,0,1-3.476-1.636c-1.431-1.84-5.316-2.658-6.952-1.022a7.789,7.789,0,0,1-2.045.613c-1.022,0-2.249,1.022-1.84,3.067.818-.613,1.022,0,1.636,0,.409-.2.2.2.2.613,0,1.022,2.249,3.067,4.294,2.863a4.888,4.888,0,0,1,3.681,1.227c.613.613.2.409.613,1.431.613.613.818.818-.2,1.636a4.143,4.143,0,0,0,0,6.339c2.658,2.045,9.406,5.112,16.971-.818,7.361-5.725,18.812-2.454,19.629-.409a16.929,16.929,0,0,1,1.636,4.294,2.294,2.294,0,0,0,2.658,1.431,7.3,7.3,0,0,1,3.885,1.227c1.022.613,2.454.409,2.045-1.431-.818-5.725-4.294-6.543-4.7-9.2,2.045.2,3.476.2,4.294-.613.613-.818,1.431-2.249,2.249-2.658.613-.409.613-.818-.2-.613a8.02,8.02,0,0,1-3.476.409c-9.406-1.022-35.783-8.179-40.895-6.748Z" transform="translate(-825.154 -160.75)" fill="#059334" stroke="#000" stroke-linejoin="round" stroke-width="1.438"/><path d="M894.283,176.491c-1.022.613-2.045,1.636-3.885,4.089-2.045,2.658-8.179,5.316-15.745,5.316-7.361,0-11.859-1.227-15.131-3.885a25.864,25.864,0,0,0-4.5-2.863,3.963,3.963,0,0,1-2.045-5.112c-.613,1.022-1.022,2.045-2.249,1.84-.818,0-2.454,0-2.045.818-.2-.409-.2-1.022-.409-1.227l-.409-.409c.613.409,2.045-.818,3.067-.818.818.2,1.84-.818,1.636-2.045-.2-1.022-.409-1.84-.613-2.658,1.636-.818,23.106,3.067,27.4,3.476,4.294.2,16.562,2.045,14.927,3.476Z" transform="translate(-838.177 -165.353)" stroke="#000" stroke-linejoin="round" stroke-width="1.438"/><path d="M860.929,163.248c2.045-2.045,4.5-3.067,6.952-2.454h.613a6.232,6.232,0,0,1,5.725-.409h.818c2.454-.818,7.157,0,8.792,1.636l.613.409c5.521-.409,8.792,2.045,12.677,5.93a4.045,4.045,0,0,0,2.045,1.431c1.227.2,1.431.818.409,1.431-1.227.613-2.249,1.636-4.294,3.885-1.84,2.454-7.77,4.907-15.131,4.907-7.157,0-11.451-1.227-14.722-3.681a38.113,38.113,0,0,0-4.294-2.863c-1.227-.409-2.863-2.045-2.249-3.681.409-1.636-.613-3.681-1.431-5.725.613-.409,2.249-1.022,3.067-.613l.409-.2Z" transform="translate(-843.672 -159.881)" fill="#059334" stroke="#000" stroke-linejoin="round" stroke-width="1.438"/><g transform="translate(16.848 0)"><path d="M933.114,171.726c-3.885-3.885-7.157-6.339-12.677-5.93a3.039,3.039,0,0,1-.2,1.227,28.275,28.275,0,0,1,10.019,7.566,18.945,18.945,0,0,0,2.863-2.863Z" transform="translate(-896.513 -163.247)" fill="#00493d" stroke="#000" stroke-linejoin="round" stroke-width="1.438"/><path d="M906.91,162.269c-1.636-1.636-6.339-2.454-8.792-1.636a6.96,6.96,0,0,1-.409,2.863,12.247,12.247,0,0,1,3.885,3.476c.818-.2,2.863-.818,3.885-1.022A19.68,19.68,0,0,0,906.91,162.269Z" transform="translate(-883.6 -160.128)" fill="#00493d" stroke="#000" stroke-linejoin="round" stroke-width="1.438"/><path d="M888.232,160.386a6.232,6.232,0,0,0-5.725.409,9.261,9.261,0,0,0-.613,3.272,4.489,4.489,0,0,1,2.454,1.022,11.034,11.034,0,0,0,3.476-1.84A6.96,6.96,0,0,0,888.232,160.386Z" transform="translate(-874.533 -159.881)" fill="#00493d" stroke="#000" stroke-linejoin="round" stroke-width="1.438"/><path d="M865.6,164.238c2.045-2.045,4.5-3.067,6.952-2.454a6.259,6.259,0,0,0-.613,3.067,11.724,11.724,0,0,0-6.339,1.227Z" transform="translate(-865.191 -160.871)" fill="#00493d" stroke="#000" stroke-linejoin="round" stroke-width="1.438"/><path d="M928.335,177.805c-1.84-2.658-6.339-5.725-9.406-7.157,0,.2-.409,1.022-.613,1.636a77.884,77.884,0,0,1,4.7,8.179A32.056,32.056,0,0,0,928.335,177.805Z" transform="translate(-895.414 -166.055)" fill="#00493d" stroke="#000" stroke-linejoin="round" stroke-width="1.438"/><path d="M905.376,185.326a76.376,76.376,0,0,0,.613-8.383c1.022-.2,3.067-.818,3.885-1.022,1.022,1.636,3.476,5.93,4.5,7.974-2.454.613-6.543,1.636-9,1.431Z" transform="translate(-887.996 -169.077)" fill="#00493d" stroke="#000" stroke-linejoin="round" stroke-width="1.438"/><path d="M888.6,172.213a15.423,15.423,0,0,0,3.476-2.045,20.359,20.359,0,0,1,3.067,2.863c0,1.84-.613,7.157-.818,9A13.721,13.721,0,0,1,888.6,180.8c.2-3.067.409-6.543,0-8.588Z" transform="translate(-878.379 -165.779)" fill="#00493d" stroke="#000" stroke-linejoin="round" stroke-width="1.438"/><path d="M864.641,175.711a8.788,8.788,0,0,0,.409-2.454c1.636-1.022,5.725-2.045,8.792-.409a54.46,54.46,0,0,1-.2,8.383c-2.658-2.045-6.952-4.907-9-5.521Z" transform="translate(-864.641 -166.823)" fill="#00493d" stroke="#000" stroke-linejoin="round" stroke-width="1.438"/></g><g transform="translate(1.921 1.527)"><path d="M837.382,170.437c-.409,0-.613-1.227-1.431-1.227-.2,0-.818.2-1.022,0a1.562,1.562,0,0,0,.409,1.022C835.542,170.846,836.564,170.437,837.382,170.437Z" transform="translate(-832.679 -166.757)"/><path d="M840.679,175.837c2.454,0,2.863-3.067,4.089-3.272" transform="translate(-835.976 -168.68)" fill="none" stroke="#000" stroke-linejoin="round" stroke-width="1.438"/><path d="M844.034,176.306c1.84.818,3.272-3.476,4.7-3.272" transform="translate(-837.9 -168.945)" fill="none" stroke="#000" stroke-linejoin="round" stroke-width="1.438"/><path d="M835.408,167.836c.613,0,1.022-.818,2.045.2a2.209,2.209,0,0,0,1.431.613" transform="translate(-832.954 -165.791)" fill="none" stroke="#000" stroke-linejoin="round" stroke-width="1.438"/><path d="M838.475,175.441c-.818,1.227-2.249,2.045-3.067,1.636" transform="translate(-832.954 -170.329)" fill="none" stroke="#000" stroke-linejoin="round" stroke-width="1.438"/><path d="M832.526,163.46a6.367,6.367,0,0,0-1.431,1.84" transform="translate(-830.481 -163.46)" fill="none" stroke="#000" stroke-linejoin="round" stroke-width="1.438"/><path d="M829.657,170.648v1.022" transform="translate(-829.657 -167.581)" fill="none" stroke="#000" stroke-linejoin="round" stroke-width="1.438"/></g></g><g transform="translate(44.167 0.818)"><path d="M861.976,154.118c-4.294-3.272-9.406-6.339-14.109-6.952A125.633,125.633,0,0,1,861.772,158" transform="translate(-847.663 -131.626)" fill="#f9d050" stroke="#000" stroke-linejoin="round" stroke-width="0.647"/><path d="M864.156,145.83c-5.112-3.476-11.042-7.361-16.767-7.77A54.491,54.491,0,0,1,861.5,149.92" transform="translate(-847.389 -126.405)" fill="#f9d050" stroke="#000" stroke-linejoin="round" stroke-width="0.647"/><path d="M902.021,124.444a39.715,39.715,0,0,1,10.019-13.7c-2.045,4.294-4.294,13.086-5.316,16.562" transform="translate(-878.711 -110.744)" fill="#f9d050" stroke="#000" stroke-linejoin="round" stroke-width="0.647"/><path d="M912.565,125.895a20.65,20.65,0,0,1,10.428-10.837c-2.658,2.658-6.748,10.633-7.77,14.927" transform="translate(-884.756 -113.217)" fill="#f9d050" stroke="#000" stroke-linejoin="round" stroke-width="0.647"/><path d="M916.878,131.907c2.454-3.476,7.361-10.019,16.153-13.5-5.112,5.112-12.677,14.518-14.518,18.2" transform="translate(-887.229 -115.14)" fill="#f9d050" stroke="#000" stroke-linejoin="round" stroke-width="0.647"/><path d="M922.213,154.554c3.681-2.045,11.042-5.316,16.358-4.294-3.272,1.227-13.086,5.725-17.38,9.815" transform="translate(-889.702 -133.289)" fill="#f9d050" stroke="#000" stroke-linejoin="round" stroke-width="0.647"/><path d="M921.4,141.843c3.476-3.681,9.815-9.2,16.562-11.451-4.907,4.7-15.336,15.336-16.767,16.971" transform="translate(-889.702 -122.009)" fill="#f9d050" stroke="#000" stroke-linejoin="round" stroke-width="0.647"/><path d="M883.006,129.153c-2.454-7.566-6.134-14.722-11.655-16.971a55.85,55.85,0,0,1,9,20.856" transform="translate(-861.127 -111.568)" fill="#f9d050" stroke="#000" stroke-linejoin="round" stroke-width="0.647"/><path d="M866.213,136.917c-4.089-4.907-9.61-9.815-15.949-10.837,4.294,2.454,11.451,9.61,14.109,16.562" transform="translate(-849.037 -119.536)" fill="#f9d050" stroke="#000" stroke-linejoin="round" stroke-width="0.647"/><path d="M877.8,133.965c-5.112-9.2-9-10.837-11.246-12.677,1.84,3.476,6.339,12.677,9,16.562" transform="translate(-858.379 -116.789)" fill="#f9d050" stroke="#000" stroke-linejoin="round" stroke-width="0.647"/><path d="M868.954,149.562a24.629,24.629,0,0,1,7.361,7.157" transform="translate(-859.753 -133)" fill="none" stroke="#000" stroke-linejoin="round" stroke-width="0.647"/><path d="M868.954,159.626c1.227,1.022,3.476,2.249,5.521,4.089" transform="translate(-859.753 -138.77)" fill="#f9d050" stroke="#000" stroke-linejoin="round" stroke-width="0.647"/><path d="M925.983,159.945a42.717,42.717,0,0,1,8.792-5.112" transform="translate(-892.449 -136.022)" fill="#f9d050" stroke="#000" stroke-linejoin="round" stroke-width="0.647"/><path d="M922.629,153.294a65.41,65.41,0,0,1,7.566-7.566" transform="translate(-890.526 -130.802)" fill="#f9d050" stroke="#000" stroke-linejoin="round" stroke-width="0.647"/><path d="M925.606,133.747a122.416,122.416,0,0,0-7.77,9.61" transform="translate(-887.779 -123.932)" fill="#f9d050" stroke="#000" stroke-linejoin="round" stroke-width="0.647"/><path d="M916.718,129.434a66.982,66.982,0,0,0-5.112,9" transform="translate(-884.207 -121.46)" fill="#f9d050" stroke="#000" stroke-linejoin="round" stroke-width="0.647"/><path d="M885.727,130.393c1.227,3.272,3.476,8.792,4.294,11.042" transform="translate(-869.369 -122.01)" fill="#f9d050" stroke="#000" stroke-linejoin="round" stroke-width="0.647"/><path d="M881.414,138.54a28.54,28.54,0,0,1,3.067,6.134" transform="translate(-866.897 -126.68)" fill="#f9d050" stroke="#000" stroke-linejoin="round" stroke-width="0.647"/></g><g transform="translate(59.708)"><path d="M897.708,130.923c0-1.84,1.227-3.885,2.454-3.885,1.431,0,2.454,2.454,2.454,3.885,0,1.636-1.227,3.067-2.454,3.067A2.806,2.806,0,0,1,897.708,130.923Z" transform="translate(-891.779 -119.268)" fill="#f9d050" stroke="#000" stroke-linejoin="round" stroke-width="0.647"/><path d="M891.443,135.283c.2-2.045,1.636-3.681,2.863-3.476s1.84,2.658,1.636,4.089c-.2,1.636-1.636,2.863-2.658,2.658C892.26,138.554,891.238,137.123,891.443,135.283Z" transform="translate(-888.171 -121.992)" fill="#f9d050" stroke="#000" stroke-linejoin="round" stroke-width="0.647"/><path d="M904.275,135.9c-.409-1.84.409-3.885,1.636-4.089s2.454,1.84,2.658,3.476c.409,1.636-.613,3.272-1.636,3.272C905.911,138.763,904.48,137.741,904.275,135.9Z" transform="translate(-895.483 -121.996)" fill="#f9d050" stroke="#000" stroke-linejoin="round" stroke-width="0.647"/><path d="M897.229,140.029c0-2.045,1.227-3.885,2.454-3.885,1.431,0,2.454,2.249,2.454,3.885s-1.227,3.067-2.454,3.067A2.806,2.806,0,0,1,897.229,140.029Z" transform="translate(-891.504 -124.488)" fill="#f9d050" stroke="#000" stroke-linejoin="round" stroke-width="0.647"/><path d="M888.6,142.425c0-1.84,1.431-3.885,2.658-3.885s2.454,2.454,2.454,3.885c0,1.636-1.431,3.067-2.454,3.067a2.953,2.953,0,0,1-2.658-3.067Z" transform="translate(-886.558 -125.862)" fill="#f9d050" stroke="#000" stroke-linejoin="round" stroke-width="0.647"/><path d="M906.335,140.508c0-1.84,1.227-3.885,2.454-3.885,1.431,0,2.454,2.454,2.454,3.885,0,1.636-1.227,3.067-2.454,3.067A2.806,2.806,0,0,1,906.335,140.508Z" transform="translate(-896.725 -124.763)" fill="#f9d050" stroke="#000" stroke-linejoin="round" stroke-width="0.647"/><path d="M904.418,144.342c0-2.045,1.431-3.885,2.658-3.885s2.454,2.249,2.454,3.885-1.227,3.067-2.454,3.067A2.953,2.953,0,0,1,904.418,144.342Z" transform="translate(-895.626 -126.961)" fill="#f9d050" stroke="#000" stroke-linejoin="round" stroke-width="0.647"/><path d="M896.75,148.655c0-2.045,1.227-3.885,2.454-3.885,1.431,0,2.454,2.454,2.454,3.885,0,1.636-1.227,3.067-2.454,3.067A2.806,2.806,0,0,1,896.75,148.655Z" transform="translate(-891.229 -129.434)" fill="#f9d050" stroke="#000" stroke-linejoin="round" stroke-width="0.647"/><path d="M884.769,148.655c0-2.045,1.022-3.885,2.045-3.885s1.84,2.454,1.84,3.885c0,1.636-1.022,3.067-1.84,3.067C885.791,151.722,884.769,150.495,884.769,148.655Z" transform="translate(-884.36 -129.434)" fill="#f9d050" stroke="#000" stroke-linejoin="round" stroke-width="0.647"/><path d="M911.606,147.971c0-1.84,1.022-3.681,2.045-3.681s2.045,2.249,2.045,3.681c0,1.84-1.227,3.067-2.045,3.067C912.628,151.038,911.606,149.812,911.606,147.971Z" transform="translate(-899.747 -129.159)" fill="#f9d050" stroke="#000" stroke-linejoin="round" stroke-width="0.647"/><path d="M914.266,156.37c.409-2.045,1.636-3.681,2.454-3.476s1.022,2.658.613,4.089c-.2,1.84-1.431,2.863-2.249,2.658S913.857,158.006,914.266,156.37Z" transform="translate(-901.18 -134.082)" fill="#f9d050" stroke="#000" stroke-linejoin="round" stroke-width="0.647"/><path d="M905.341,154.934c.2-1.84,1.431-3.681,2.454-3.476,1.227,0,1.84,2.454,1.636,3.885-.2,1.84-1.227,3.067-2.249,2.863C906.159,158.206,905.136,156.774,905.341,154.934Z" transform="translate(-896.14 -133.26)" fill="#f9d050" stroke="#000" stroke-linejoin="round" stroke-width="0.647"/><path d="M887.287,156.642c-.613-2.045-1.84-3.476-2.658-3.272s-1.022,2.658-.613,4.089c.409,1.636,1.636,2.658,2.454,2.454C887.083,159.709,887.7,158.278,887.287,156.642Z" transform="translate(-883.811 -134.354)" fill="#f9d050" stroke="#000" stroke-linejoin="round" stroke-width="0.647"/><path d="M888.6,155.159c0-1.84,1.022-3.681,2.045-3.681,1.227,0,2.045,2.249,2.045,3.681,0,1.84-1.022,3.067-2.045,3.067C889.83,158.226,888.6,157,888.6,155.159Z" transform="translate(-886.558 -133.281)" fill="#f9d050" stroke="#000" stroke-linejoin="round" stroke-width="0.647"/><path d="M895.791,156.8c0-2.045,1.227-3.885,2.454-3.885,1.431,0,2.454,2.249,2.454,3.885s-1.227,3.067-2.454,3.067A2.807,2.807,0,0,1,895.791,156.8Z" transform="translate(-890.68 -134.105)" fill="#f9d050" stroke="#000" stroke-linejoin="round" stroke-width="0.647"/><path d="M890.495,109.031c-.409,1.636-1.84,3.067-.818,5.316-1.84-.613-3.476-.818-4.907.818a4.436,4.436,0,0,1,4.294,1.636,2.461,2.461,0,0,0-2.863,1.636c1.431-.409,2.863-.818,3.476-.613a7.052,7.052,0,0,0-1.84,2.454c1.227-1.022,2.658-.818,3.476-1.431-.613,1.431.613,2.863,1.636,4.294-.2-2.045,1.022-3.476.409-4.5,1.84.409,2.045,2.045,4.7,2.045-1.022-.613-1.636-2.658-2.863-2.658.613-.2,3.067-.409,3.476,0a3.734,3.734,0,0,0-2.658-1.636c.818-.818,2.249-2.454,3.272-2.863-1.431.2-3.68.409-4.5,1.636,2.045-1.636,1.636-4.7,3.885-5.112-1.227-.2-3.067.613-4.5,2.045.613-1.227.613-2.863,1.431-3.272-1.636.409-3.476,2.454-4.089,3.476a7.715,7.715,0,0,0-1.022-3.272Z" transform="translate(-884.361 -108.827)" fill="#f9d050" stroke="#000" stroke-linejoin="round" stroke-width="0.647"/><path d="M900.309,116.974a7.667,7.667,0,0,1-.2,2.249" transform="translate(-893.153 -113.498)" fill="#f9d050" stroke="#000" stroke-linejoin="round" stroke-width="0.647"/><path d="M905.166,116.5a5.354,5.354,0,0,0-1.227,3.067" transform="translate(-895.351 -113.223)" fill="#f9d050" stroke="#000" stroke-linejoin="round" stroke-width="0.647"/><path d="M907.766,122.246a3.263,3.263,0,0,0-1.431,1.84" transform="translate(-896.724 -116.52)" fill="none" stroke="#000" stroke-linejoin="round" stroke-width="0.647"/></g><g transform="translate(0 113.193)"><g transform="translate(3.863 0.494)"><path d="M753.562,406.975c1.227,3.272,10.019,7.566,20.243,2.045,6.952-3.885,11.451-9.406,15.745-19.221,1.227-2.454,1.84-5.521-1.022-7.361-2.249-1.636-5.93-3.476-7.566-5.112-.818-.818-1.636-1.431-2.249-2.045a8.9,8.9,0,0,1,1.227,1.431c4.089,4.907-.2,12.064-4.7,16.358-3.272,3.067-9.2,10.633-17.789,3.476-1.84-1.636-6.134,5.112-3.885,10.428Z" transform="translate(-752.925 -375.281)" fill="#fcd93a" stroke="#000" stroke-width="1.438"/><path d="M996.011,406.975c-1.431,3.272-10.224,7.566-20.243,2.045-6.952-3.885-11.451-9.406-15.949-19.221-1.022-2.454-1.636-5.521,1.227-7.361,2.249-1.636,5.93-3.476,7.566-5.112a20.369,20.369,0,0,1,2.249-2.045,8.9,8.9,0,0,0-1.227,1.431c-4.09,4.907.2,12.064,4.5,16.358,3.272,3.067,9.406,10.633,17.994,3.476C993.967,394.911,998.056,401.659,996.011,406.975Z" transform="translate(-871.056 -375.281)" fill="#fcd93a" stroke="#000" stroke-width="1.438"/><path d="M824.681,427.583c16.358,0,41.508-7.361,55-33.125,2.249-4.294,0-6.543-2.658-7.974a31.187,31.187,0,0,1-8.179-5.93c3.272,3.272,2.658,5.521.409,9.2-10.428,17.38-24.741,26.173-44.575,26.173s-34.147-8.792-44.575-26.173c-2.249-3.681-2.863-5.93.2-9.2a28.126,28.126,0,0,1-8.179,5.93c-2.658,1.431-4.907,3.681-2.658,7.974,13.5,25.764,38.85,33.125,55.208,33.125Z" transform="translate(-761.885 -378.304)" fill="#fcd93a" stroke="#000" stroke-width="1.438"/></g><path d="M799.8,389.339c-.409-2.045-3.067-1.227-3.885,1.227a33.628,33.628,0,0,1-2.863-4.5c-2.454-3.681-2.863-6.134.613-9.61,1.636-1.636,4.907-3.476,7.157-1.431,4.7,3.885,2.249,10.224-1.022,14.313Z" transform="translate(-770.97 -374.123)" fill="#c8102e" stroke="#000" stroke-width="1.438"/><path d="M983.516,389.339c.409-2.045,3.272-1.227,4.089,1.227a33.628,33.628,0,0,0,2.863-4.5c2.454-3.681,2.863-6.134-.818-9.61-1.431-1.636-4.7-3.476-7.157-1.431-4.5,3.885-2.249,10.224,1.022,14.313Z" transform="translate(-879.234 -374.123)" fill="#c8102e" stroke="#000" stroke-width="1.438"/><path d="M748.371,426.017c-2.045-3.067-3.681-11.042-4.089-13.086-.613-1.84-.818-3.476,1.431-4.294s4.294,2.045,5.316,4.5,2.658,6.134,4.5,10.633c-4.5-2.658-8.179-.818-7.157,2.249Z" transform="translate(-743.871 -393.829)" fill="#c8102e" stroke="#000" stroke-width="1.438"/><path d="M1036.173,426.017c1.84-3.067,3.476-11.042,4.09-13.086.409-1.84.818-3.476-1.432-4.294s-4.294,2.045-5.316,4.5-2.658,6.134-4.5,10.633c4.5-2.658,7.974-.818,7.157,2.249Z" transform="translate(-907.355 -393.829)" fill="#c8102e" stroke="#000" stroke-width="1.438"/><g transform="translate(13.292 10.514)"><path d="M778.092,402.86l-1.636.818a.816.816,0,0,0-.409.818h-.2l-.818-1.84h.2c0,.2.2.409.613.2l3.476-1.84c.409-.2.409-.409.2-.613l.2-.2,1.022,2.045h-.2c-.2-.2-.409-.409-.818-.2l-1.431.818.613,1.227,1.636-.613c.409-.2.2-.613.2-.818h.2l.818,1.84c-.2-.2-.409-.409-.818-.2l-3.476,1.84c-.409.2-.409.409-.2.613l-.2.2-1.022-1.84.2-.2c.2.2.409.409.818.2l1.636-.818-.613-1.431Z" transform="translate(-775.025 -399.589)" fill="#00493d"/><path d="M784.865,411.563c.409-.2.409-.409.2-.818h.2l2.045,3.067-1.431,1.022v-.2c.818-.613.818-1.431.613-1.636s-.409-.409-.409-.613c-.2,0-.2-.2-.613.2-.2.2-1.431,1.022-1.431,1.022.2.2.409.818,1.431.2h.2l-2.249,1.636v-.2c1.022-.818.614-1.431.409-1.636l-1.431,1.022c-.409.2-.409.409-.409.613.2,0,.2.2.409.409.2.409.818.818,1.84.409l.2.2-1.636.613-2.045-3.272h.2c.2.2.409.409.818.2l3.067-2.249Z" transform="translate(-778.322 -405.633)" fill="#00493d"/><path d="M793.906,426.752l-1.431,1.227a.622.622,0,0,0,0,.818h-.2l-1.431-1.431.2-.2c.2.2.409.409.818,0l2.658-2.658c.409-.2.409-.409.2-.818l1.431,1.636a.622.622,0,0,0-.818,0l-1.227,1.227,1.022,1.022,1.227-1.022c.409-.409.2-.613,0-.818l.2-.2L798,427.16h-.2c-.2,0-.409-.2-.818.2l-2.658,2.454c-.409.409-.409.613-.2.818v.2l-1.431-1.636c.2,0,.613.2.818,0l1.431-1.431-1.022-1.022Z" transform="translate(-784.091 -413.052)" fill="#00493d"/><path d="M801.919,437.915l.613.613.818-1.84a9.324,9.324,0,0,0-1.636.818l.2.409-.2.2-.409-.409c-.2.2-.409.2-.613.409-.613.409-.409.613-.2.818v.2l-1.022-1.022h.2l.818-.2,4.089-2.249.2.2a39.059,39.059,0,0,0-2.045,4.294c0,.409-.2.613,0,1.022l-1.636-1.431.2-.2a.426.426,0,0,0,.818,0c0-.2.2-.613.2-.818l-.613-.613.2-.2Z" transform="translate(-789.037 -419.921)" fill="#00493d"/><path d="M809.05,444.2l.2-.2c.2.2.409.2.818,0l2.658-3.476-.2-.2a1.382,1.382,0,0,0-1.636.409v-.2l.818-1.022,3.067,2.249-1.022,1.227h-.2a1.045,1.045,0,0,0,0-1.636v-.2l-2.658,3.476c-.409.2-.2.613,0,.818h-.2L809.05,444.2Z" transform="translate(-794.532 -422.119)" fill="#00493d"/><path d="M817.938,448.043l-1.022,1.431c-.2.409,0,.613.2.818l-.2.2-1.636-1.227v-.2c.409.2.613.2.818-.2l2.249-3.067c.2-.409,0-.613-.2-.818l.2-.2L819.983,446v.2c-.409-.2-.613-.2-.818.2l-1.022,1.431,1.227.818,1.022-1.431c.2-.409,0-.613-.2-.818l.2-.2,1.636,1.227v.2a.506.506,0,0,0-.818.2l-2.045,3.272c-.409.2-.2.409,0,.613v.2l-1.84-1.227h.2a.751.751,0,0,0,.613-.2l1.022-1.636Z" transform="translate(-798.104 -425.142)" fill="#00493d"/><path d="M831.095,459.538l.2-.2a.506.506,0,0,0,.818-.2l1.636-3.476c.2-.409,0-.613-.2-.818l3.476,1.636-.818,1.636-.2-.2a1.419,1.419,0,0,0-.2-1.84c-.2,0-.409-.2-.613-.2s-.2,0-.409.409a11.731,11.731,0,0,0-.818,1.431c.2.2.613.613,1.431-.409h.2l-1.227,2.454-.2-.2c.613-1.227-.2-1.431-.409-1.431l-.818,1.636c-.2.409,0,.613.2.613v.2l-2.045-1.022Z" transform="translate(-807.172 -430.911)" fill="#00493d"/><path d="M843.168,465.7c-.613-.409-.613-1.636,0-2.863.409-1.227,1.227-2.249,2.045-1.84.613.2.409,1.431,0,2.658-.613,1.431-1.431,2.249-2.045,2.045h-.2c1.431.613,2.454-.2,3.067-1.636a2.321,2.321,0,0,0-.818-3.272c-1.227-.613-2.454.2-3.067,1.636s-.409,2.863.818,3.272Z" transform="translate(-813.315 -434.207)" fill="#00493d"/><path d="M855.553,467.48l.818-2.454c.2-.409,0-.613-.2-.818l1.022.2v.2c-.2,0-.409,0-.613.409l-.818,2.454c-.409,1.022-1.022,1.84-2.249,1.431a1.666,1.666,0,0,1-1.022-2.249L853.508,464c.2-.409,0-.613-.2-.818v-.2l1.84.818v.2c-.2-.2-.613-.2-.613.2l-1.022,2.658c-.2.818-.2,1.636.409,1.84S855.144,468.5,855.553,467.48Z" transform="translate(-819.361 -435.582)" fill="#00493d"/><path d="M862.239,467.02c0-.2,0-.2-.2-.2l1.431.2,1.227,3.885.613-2.454c.2-.409,0-.613-.2-.818l1.227.2-.2.2c-.2,0-.409,0-.613.409l-1.022,4.5h-.2l-1.636-4.907-1.022,3.272c0,.613.2.613.409.818v.2l-1.227-.409v-.2c.2.2.613,0,.613-.409l1.022-3.681-.2-.613Z" transform="translate(-824.207 -437.781)" fill="#00493d"/><path d="M875.236,472.484c-.409,1.84-1.227,2.249-1.636,2.249h-.409a.283.283,0,0,1,0-.409l.613-4.089c.2-.2.2-.409.409-.2h.409c.409,0,.818.818.613,2.454l.613.2c.409-2.045-.409-2.863-1.431-3.067-.818-.2-2.045-.409-2.045-.409v.2c.2.2.613.2.409.818l-.613,3.681q-.307.613-.613.613h-.2l2.045.409c1.022.2,2.045,0,2.454-2.249Z" transform="translate(-830.251 -439.154)" fill="#00493d"/><path d="M883.12,471.947a.653.653,0,0,0-.614-.613v-.2l3.681.409-.2,1.636c0-1.022-.613-1.431-1.022-1.431a.751.751,0,0,0-.613-.2c-.2,0-.2,0-.2.613,0,.2-.2,1.636-.2,1.636.2,0,.818.2,1.227-1.022l-.2,2.658h-.2c0-1.227-.613-1.227-.818-1.227l-.2,1.84c0,.409,0,.409.2.409l.409.2c.613,0,1.227-.2,1.636-1.431h.2l-.409,1.636-3.885-.409c.409,0,.613-.2.818-.613l.409-3.885Z" transform="translate(-836.296 -440.253)" fill="#00493d"/><path d="M896.188,474.95c0,1.84-.613,2.454-1.227,2.454-.2-.2-.2-.2-.409-.2l-.2-.2.2-4.294c0-.2,0-.2.2-.2h.409c.409,0,1.022.613,1.022,2.454h.818c0-2.045-1.022-2.658-2.045-2.658a10.49,10.49,0,0,0-2.045-.2v.2a.653.653,0,0,1,.613.613l-.2,3.885c0,.409-.2.613-.409.613v.2h1.84c1.022,0,2.045-.409,2.249-2.658Z" transform="translate(-842.616 -440.803)" fill="#00493d"/><path d="M911.46,476.312c0,.409.2.409.613.409v.2l-2.249.2c.2-.2.613-.409.613-.818l-.409-3.885c-.2-.409-.409-.409-.818-.409v-.2l2.249-.2c-.2.2-.613.409-.409.818l.409,3.885Z" transform="translate(-851.958 -440.528)" fill="#00493d"/><path d="M917.076,475.9v-.2c.2,0,.409-.2.409-.613l-.818-4.294h-.2a1.137,1.137,0,0,0-.613,1.431h-.2l-.2-1.431,3.681-.613.2,1.431h-.2c0-.818-.613-1.022-1.227-1.022h-.2l.818,4.294a.542.542,0,0,0,.613.613v.2Z" transform="translate(-855.529 -439.704)" fill="#00493d"/><path d="M933.836,469.333l-.818-2.454c0-.409-.409-.409-.613-.409v-.2l1.022-.409v.2c-.2.2-.2.2-.2.613l.818,2.658a1.868,1.868,0,0,1-1.022,2.454,1.64,1.64,0,0,1-2.045-1.431l-.818-2.658c-.2-.409-.409-.409-.613-.409l-.2-.2,2.045-.613v.2c-.2.2-.409.409-.2.818l.613,2.658a1.494,1.494,0,0,0,1.431,1.227c.613-.2.818-1.022.613-2.045Z" transform="translate(-863.497 -437.231)" fill="#00493d"/><path d="M941.856,466.7c1.022-.409.818-1.022.613-1.636s-.613-1.022-1.022-.818c-.2,0-.409.2-.2.409l.613,2.045.2.2.409,1.636a.506.506,0,0,0,.818.2v.2l-1.84.818-.2-.2c.409-.2.409-.409.409-.818l-1.431-3.476c-.2-.613-.409-.409-.818-.409v-.2l2.045-.818a1.525,1.525,0,1,1,1.022,2.863.714.714,0,0,0-.409.2l-.2-.2Z" transform="translate(-869.268 -436.033)" fill="#00493d"/><path d="M952.634,465.35c-.613.2-1.431-.613-2.045-2.045-.613-1.227-.613-2.454,0-2.658s1.431.613,2.045,1.84.613,2.454,0,2.863c1.227-.409,1.636-1.84,1.022-3.272a2.646,2.646,0,0,0-3.067-1.636,2.383,2.383,0,0,0-1.022,3.272C950.18,465.145,951.407,465.963,952.634,465.35Z" transform="translate(-874.934 -434.065)" fill="#00493d"/><path d="M957.063,455.921h-.409l1.227-.818,3.68,2.045-1.227-2.249a.816.816,0,0,0-.818-.409v-.2l1.022-.409c-.2.2-.409.409,0,.818l2.045,4.089-.2.2-4.5-2.454,1.636,3.067a.506.506,0,0,0,.818.2v.2l-1.022.613v-.2c.2-.2.2-.409,0-.818l-1.636-3.272-.613-.409Z" transform="translate(-879.159 -430.362)" fill="#00493d"/><path d="M974.232,451.864v-.2c0-.2.2-.409,0-.818l-2.454-3.476h-.2a1.045,1.045,0,0,0,0,1.636l-.2.2-.818-1.431,3.067-2.045.818,1.227a1.382,1.382,0,0,0-1.636-.409l-.2.2,2.454,3.476a.506.506,0,0,0,.818.2v.2Z" transform="translate(-887.127 -425.691)" fill="#00493d"/><path d="M980.6,442.835l1.227,1.431a.622.622,0,0,0,.818,0v.2l-1.636,1.431v-.2c.2-.2.2-.409,0-.818l-2.454-3.067c-.2-.409-.409-.2-.818-.2l1.636-1.431v.2c0,.2-.2.409,0,.818l1.022,1.227,1.227-.818-1.022-1.431c-.2-.409-.613-.2-.818-.2l1.636-1.431v.2c-.2.2-.2.409,0,.818l2.454,3.067a.383.383,0,0,0,.613,0l.2.2-1.636,1.431-.2-.2c.2-.2.409-.409.2-.818l-1.227-1.431Z" transform="translate(-891.248 -421.57)" fill="#00493d"/><path d="M987.664,434.969a.622.622,0,0,0-.818,0v-.2l2.658-2.454,1.227,1.227h-.2a1.323,1.323,0,0,0-1.84-.2c0,.2-.2.2-.409.409a1.582,1.582,0,0,0,.2.613l1.227,1.227c.2-.2.818-.613,0-1.636h.2l1.636,1.84v.2c-1.022-1.022-1.431-.409-1.636-.2l1.227,1.227c.2.409.409.409.409.409l.613-.613c.2-.2.409-.818,0-2.045h.2l.818,1.431-2.658,2.658-.2-.2c.2-.2.409-.409,0-.818Z" transform="translate(-896.469 -417.998)" fill="#00493d"/><path d="M999.624,423.473a.506.506,0,0,0,.2.818c.409.409.818.409,1.636,0a1.578,1.578,0,0,1,1.84.2,1.706,1.706,0,0,1,.409,2.249c-.2.2-.613.409-.818.613-.2,0-.2,0-.2.2v.2l-1.431-1.227h.2c.818.409,1.636.613,2.045,0,.409-.409,0-.818-.2-1.022-.409-.409-.818-.409-1.431,0a2.42,2.42,0,0,1-2.045-.2c-.818-.818-.818-1.431-.409-2.045.2-.2.613-.409.818-.613.2,0,.2,0,0-.409l1.431,1.022h-.2c-1.022-.409-1.636-.2-1.84.2Z" transform="translate(-903.524 -412.228)" fill="#00493d"/><path d="M1003.206,417.167c-.409-.2-.613,0-.818.2h-.2l2.249-3.272,1.431,1.022-.2.2a1.465,1.465,0,0,0-1.84,0c0,.2-.2.409-.2.613-.2,0-.2.2.2.409.2.2,1.431,1.022,1.431,1.022.2-.2.613-.613-.2-1.431v-.2l2.045,1.636c-1.227-.613-1.431,0-1.636.2l1.431,1.022a1.582,1.582,0,0,0,.613.2c0-.2.2-.409.409-.613a1.413,1.413,0,0,0-.409-1.84l.2-.2,1.022,1.227-2.045,3.067h-.2c.2-.409.2-.613-.2-1.022Z" transform="translate(-905.263 -407.556)" fill="#00493d"/><path d="M1013.4,410.464l-.613,1.022a10.566,10.566,0,0,1-1.227-1.431l1.84.409h.409c.2,0,.613.2.818.2.613.2.409.409.2.818h.2l1.022-1.84c-.409.409-.613.2-1.022.2a36.713,36.713,0,0,1-4.7-1.022v.2l3.272,3.681a1.229,1.229,0,0,1,.2.818h.2l.613-1.022-.2-.2c-.2.409-.409.613-.818,0l-.409-.409.613-1.431Z" transform="translate(-909.934 -404.534)" fill="#00493d"/><path d="M1014.15,400.2c-.2.2-.2.613.409.818s.818,0,1.431-.409,1.227-.818,2.045-.409a1.472,1.472,0,0,1,.818,2.045c-.2.2-.409.613-.613.818v.409l-1.636-.818c1.022.2,1.84,0,2.045-.613.2-.409-.2-.818-.409-1.022-.409-.2-.818,0-1.431.409a1.586,1.586,0,0,1-2.045.409c-.818-.409-1.227-1.022-.818-1.636,0-.409.409-.613.613-.818,0-.2,0-.2-.2-.409v-.2l1.636.818h-.2c-1.022-.2-1.636.2-1.636.613Z" transform="translate(-911.914 -398.764)" fill="#00493d"/></g></g><g transform="translate(34.681)"><g transform="translate(8.241 41.508)"><path d="M852.462,220.924c-2.658.613-4.5.818-6.952-1.431a3.7,3.7,0,0,1,.409-5.521c1.84-1.227,3.476-2.045,5.725-1.431s8.179,6.134,6.748,6.339c-1.431,0-3.68,1.431-5.93,2.045Z" transform="translate(-844.468 -209.678)" fill="#fff" stroke="#000" stroke-width="1.438"/><path d="M878.06,207.7c.818-.613,1.84-1.022,4.5-1.227,2.454-.2,4.294-.2,4.907,1.636.818,2.249,1.431,4.907,3.067,6.134-1.022.613-6.134,1.227-7.974.2C880.1,213.218,879.491,208.515,878.06,207.7Z" transform="translate(-863.728 -206.266)" fill="#fff" stroke="#000" stroke-width="1.438"/><path d="M919.274,209.232c.818-.613,1.84-.613,4.5-.409s3.68.409,4.294,2.249c.613,2.045,0,4.7,1.227,6.543-1.227.409-5.316.409-6.748-1.022-2.249-1.636-2.045-6.339-3.272-7.361Z" transform="translate(-887.357 -207.596)" fill="#fff" stroke="#000" stroke-width="1.438"/><path d="M942.808,212.3c-1.84-.409-3.067-.613-3.885,0,1.022,1.227.2,6.134,2.249,7.77,1.431,1.022,5.112,1.227,5.93-1.022,1.022-2.045,1.022-5.112-4.294-6.748Z" transform="translate(-898.622 -209.438)" fill="#073163" stroke="#000" stroke-width="1.438"/><path d="M898.667,206.93c.613-.613,1.84-.818,4.294-.818,2.658,0,4.294.409,5.112,2.045.818,2.045.613,4.7,2.045,6.339-.613.818-6.134.818-7.77-.409-2.249-1.431-2.454-6.134-3.68-7.157Z" transform="translate(-875.542 -206.112)" fill="#073163" stroke="#000" stroke-width="1.438"/><path d="M857.932,210.2c0-1.022,1.431-1.227,5.112-1.431,3.681-.409,3.885-.2,5.112,2.454.613,1.431,1.431,3.885,3.067,4.7-4.5,1.022-5.93,1.636-8.383.2a12.474,12.474,0,0,1-4.294-4.5c-.2-.613-.2-1.227-.613-1.431Z" transform="translate(-852.188 -207.541)" fill="#073163" stroke="#000" stroke-width="1.438"/></g><g transform="translate(9.487)"><g transform="translate(0 0.818)"><path d="M861.976,154.118c-4.294-3.272-9.406-6.339-14.109-6.952A125.633,125.633,0,0,1,861.772,158" transform="translate(-847.663 -131.626)" fill="#fcd93a" stroke="#000" stroke-width="0.647"/><path d="M864.156,145.83c-5.112-3.476-11.042-7.361-16.767-7.77A54.491,54.491,0,0,1,861.5,149.92" transform="translate(-847.389 -126.405)" fill="#fcd93a" stroke="#000" stroke-width="0.647"/><path d="M902.021,124.444a39.715,39.715,0,0,1,10.019-13.7c-2.045,4.294-4.294,13.086-5.316,16.562" transform="translate(-878.711 -110.744)" fill="#fcd93a" stroke="#000" stroke-width="0.647"/><path d="M912.565,125.895a20.65,20.65,0,0,1,10.428-10.837c-2.658,2.658-6.748,10.633-7.77,14.927" transform="translate(-884.756 -113.217)" fill="#fcd93a" stroke="#000" stroke-width="0.647"/><path d="M916.878,131.907c2.454-3.476,7.361-10.019,16.153-13.5-5.112,5.112-12.677,14.518-14.518,18.2" transform="translate(-887.229 -115.14)" fill="#fcd93a" stroke="#000" stroke-width="0.647"/><path d="M922.213,154.554c3.681-2.045,11.042-5.316,16.358-4.294-3.272,1.227-13.086,5.725-17.38,9.815" transform="translate(-889.702 -133.289)" fill="#fcd93a" stroke="#000" stroke-width="0.647"/><path d="M921.4,141.843c3.476-3.681,9.815-9.2,16.562-11.451-4.907,4.7-15.336,15.336-16.767,16.971" transform="translate(-889.702 -122.009)" fill="#fcd93a" stroke="#000" stroke-width="0.647"/><path d="M883.006,129.153c-2.454-7.566-6.134-14.722-11.655-16.971a55.85,55.85,0,0,1,9,20.856" transform="translate(-861.127 -111.568)" fill="#fcd93a" stroke="#000" stroke-width="0.647"/><path d="M866.213,136.917c-4.089-4.907-9.61-9.815-15.949-10.837,4.294,2.454,11.451,9.61,14.109,16.562" transform="translate(-849.037 -119.536)" fill="#fcd93a" stroke="#000" stroke-width="0.647"/><path d="M877.8,133.965c-5.112-9.2-9-10.837-11.246-12.677,1.84,3.476,6.339,12.677,9,16.562" transform="translate(-858.379 -116.789)" fill="#fcd93a" stroke="#000" stroke-width="0.647"/><path d="M868.954,149.562a24.629,24.629,0,0,1,7.361,7.157" transform="translate(-859.753 -133)" fill="none" stroke="#000" stroke-width="0.647"/><path d="M868.954,159.626c1.227,1.022,3.476,2.249,5.521,4.089" transform="translate(-859.753 -138.77)" fill="#fcd93a" stroke="#000" stroke-width="0.647"/><path d="M925.983,159.945a42.717,42.717,0,0,1,8.792-5.112" transform="translate(-892.449 -136.022)" fill="#fcd93a" stroke="#000" stroke-width="0.647"/><path d="M922.629,153.294a65.41,65.41,0,0,1,7.566-7.566" transform="translate(-890.526 -130.802)" fill="#fcd93a" stroke="#000" stroke-width="0.647"/><path d="M925.606,133.747a122.416,122.416,0,0,0-7.77,9.61" transform="translate(-887.779 -123.932)" fill="#fcd93a" stroke="#000" stroke-width="0.647"/><path d="M916.718,129.434a66.982,66.982,0,0,0-5.112,9" transform="translate(-884.207 -121.46)" fill="#fcd93a" stroke="#000" stroke-width="0.647"/><path d="M885.727,130.393c1.227,3.272,3.476,8.792,4.294,11.042" transform="translate(-869.369 -122.01)" fill="#fcd93a" stroke="#000" stroke-width="0.647"/><path d="M881.414,138.54a28.54,28.54,0,0,1,3.067,6.134" transform="translate(-866.897 -126.68)" fill="#fcd93a" stroke="#000" stroke-width="0.647"/></g><g transform="translate(15.54)"><path d="M897.708,130.923c0-1.84,1.227-3.885,2.454-3.885,1.431,0,2.454,2.454,2.454,3.885,0,1.636-1.227,3.067-2.454,3.067A2.806,2.806,0,0,1,897.708,130.923Z" transform="translate(-891.779 -119.268)" fill="#fcd93a" stroke="#000" stroke-width="0.647"/><path d="M891.443,135.283c.2-2.045,1.636-3.681,2.863-3.476s1.84,2.658,1.636,4.089c-.2,1.636-1.636,2.863-2.658,2.658C892.26,138.554,891.238,137.123,891.443,135.283Z" transform="translate(-888.171 -121.992)" fill="#fcd93a" stroke="#000" stroke-width="0.647"/><path d="M904.275,135.9c-.409-1.84.409-3.885,1.636-4.089s2.454,1.84,2.658,3.476c.409,1.636-.613,3.272-1.636,3.272C905.911,138.763,904.48,137.741,904.275,135.9Z" transform="translate(-895.483 -121.996)" fill="#fcd93a" stroke="#000" stroke-width="0.647"/><path d="M897.229,140.029c0-2.045,1.227-3.885,2.454-3.885,1.431,0,2.454,2.249,2.454,3.885s-1.227,3.067-2.454,3.067A2.806,2.806,0,0,1,897.229,140.029Z" transform="translate(-891.504 -124.488)" fill="#fcd93a" stroke="#000" stroke-width="0.647"/><path d="M888.6,142.425c0-1.84,1.431-3.885,2.658-3.885s2.454,2.454,2.454,3.885c0,1.636-1.431,3.067-2.454,3.067a2.953,2.953,0,0,1-2.658-3.067Z" transform="translate(-886.558 -125.862)" fill="#fcd93a" stroke="#000" stroke-width="0.647"/><path d="M906.335,140.508c0-1.84,1.227-3.885,2.454-3.885,1.431,0,2.454,2.454,2.454,3.885,0,1.636-1.227,3.067-2.454,3.067A2.806,2.806,0,0,1,906.335,140.508Z" transform="translate(-896.725 -124.763)" fill="#fcd93a" stroke="#000" stroke-width="0.647"/><path d="M904.418,144.342c0-2.045,1.431-3.885,2.658-3.885s2.454,2.249,2.454,3.885-1.227,3.067-2.454,3.067A2.953,2.953,0,0,1,904.418,144.342Z" transform="translate(-895.626 -126.961)" fill="#fcd93a" stroke="#000" stroke-width="0.647"/><path d="M896.75,148.655c0-2.045,1.227-3.885,2.454-3.885,1.431,0,2.454,2.454,2.454,3.885,0,1.636-1.227,3.067-2.454,3.067A2.806,2.806,0,0,1,896.75,148.655Z" transform="translate(-891.229 -129.434)" fill="#fcd93a" stroke="#000" stroke-width="0.647"/><path d="M884.769,148.655c0-2.045,1.022-3.885,2.045-3.885s1.84,2.454,1.84,3.885c0,1.636-1.022,3.067-1.84,3.067C885.791,151.722,884.769,150.495,884.769,148.655Z" transform="translate(-884.36 -129.434)" fill="#fcd93a" stroke="#000" stroke-width="0.647"/><path d="M911.606,147.971c0-1.84,1.022-3.681,2.045-3.681s2.045,2.249,2.045,3.681c0,1.84-1.227,3.067-2.045,3.067C912.628,151.038,911.606,149.812,911.606,147.971Z" transform="translate(-899.747 -129.159)" fill="#fcd93a" stroke="#000" stroke-width="0.647"/><path d="M914.266,156.37c.409-2.045,1.636-3.681,2.454-3.476s1.022,2.658.613,4.089c-.2,1.84-1.431,2.863-2.249,2.658S913.857,158.006,914.266,156.37Z" transform="translate(-901.18 -134.082)" fill="#fcd93a" stroke="#000" stroke-width="0.647"/><path d="M905.341,154.934c.2-1.84,1.431-3.681,2.454-3.476,1.227,0,1.84,2.454,1.636,3.885-.2,1.84-1.227,3.067-2.249,2.863C906.159,158.206,905.136,156.774,905.341,154.934Z" transform="translate(-896.14 -133.26)" fill="#fcd93a" stroke="#000" stroke-width="0.647"/><path d="M887.287,156.642c-.613-2.045-1.84-3.476-2.658-3.272s-1.022,2.658-.613,4.089c.409,1.636,1.636,2.658,2.454,2.454C887.083,159.709,887.7,158.278,887.287,156.642Z" transform="translate(-883.811 -134.354)" fill="#fcd93a" stroke="#000" stroke-width="0.647"/><path d="M888.6,155.159c0-1.84,1.022-3.681,2.045-3.681,1.227,0,2.045,2.249,2.045,3.681,0,1.84-1.022,3.067-2.045,3.067C889.83,158.226,888.6,157,888.6,155.159Z" transform="translate(-886.558 -133.281)" fill="#fcd93a" stroke="#000" stroke-width="0.647"/><path d="M895.791,156.8c0-2.045,1.227-3.885,2.454-3.885,1.431,0,2.454,2.249,2.454,3.885s-1.227,3.067-2.454,3.067A2.807,2.807,0,0,1,895.791,156.8Z" transform="translate(-890.68 -134.105)" fill="#fcd93a" stroke="#000" stroke-width="0.647"/><path d="M890.495,109.031c-.409,1.636-1.84,3.067-.818,5.316-1.84-.613-3.476-.818-4.907.818a4.436,4.436,0,0,1,4.294,1.636,2.461,2.461,0,0,0-2.863,1.636c1.431-.409,2.863-.818,3.476-.613a7.052,7.052,0,0,0-1.84,2.454c1.227-1.022,2.658-.818,3.476-1.431-.613,1.431.613,2.863,1.636,4.294-.2-2.045,1.022-3.476.409-4.5,1.84.409,2.045,2.045,4.7,2.045-1.022-.613-1.636-2.658-2.863-2.658.613-.2,3.067-.409,3.476,0a3.734,3.734,0,0,0-2.658-1.636c.818-.818,2.249-2.454,3.272-2.863-1.431.2-3.68.409-4.5,1.636,2.045-1.636,1.636-4.7,3.885-5.112-1.227-.2-3.067.613-4.5,2.045.613-1.227.613-2.863,1.431-3.272-1.636.409-3.476,2.454-4.089,3.476a7.715,7.715,0,0,0-1.022-3.272Z" transform="translate(-884.361 -108.827)" fill="#fcd93a" stroke="#000" stroke-width="0.647"/><path d="M900.309,116.974a7.667,7.667,0,0,1-.2,2.249" transform="translate(-893.153 -113.498)" fill="#fcd93a" stroke="#000" stroke-width="0.647"/><path d="M905.166,116.5a5.354,5.354,0,0,0-1.227,3.067" transform="translate(-895.351 -113.223)" fill="#fcd93a" stroke="#000" stroke-width="0.647"/><path d="M907.766,122.246a3.263,3.263,0,0,0-1.431,1.84" transform="translate(-896.724 -116.52)" fill="none" stroke="#000" stroke-width="0.647"/></g></g><g transform="translate(0 21.783)"><path d="M839.548,164.935a4.367,4.367,0,0,1-3.476-1.636c-1.431-1.84-5.316-2.658-6.952-1.022a7.789,7.789,0,0,1-2.045.613c-1.022,0-2.249,1.022-1.84,3.067.818-.613,1.022,0,1.636,0,.409-.2.2.2.2.613,0,1.022,2.249,3.067,4.294,2.863a4.888,4.888,0,0,1,3.681,1.227c.613.613.2.409.613,1.431.613.613.818.818-.2,1.636a4.143,4.143,0,0,0,0,6.339c2.658,2.045,9.406,5.112,16.971-.818,7.361-5.725,18.812-2.454,19.629-.409a16.929,16.929,0,0,1,1.636,4.294,2.294,2.294,0,0,0,2.658,1.431,7.3,7.3,0,0,1,3.885,1.227c1.022.613,2.454.409,2.045-1.431-.818-5.725-4.294-6.543-4.7-9.2,2.045.2,3.476.2,4.294-.613.613-.818,1.431-2.249,2.249-2.658.613-.409.613-.818-.2-.613a8.02,8.02,0,0,1-3.476.409c-9.406-1.022-35.783-8.179-40.895-6.748Z" transform="translate(-825.154 -160.75)" fill="#3ca469" stroke="#000" stroke-width="1.438"/><path d="M894.283,176.491c-1.022.613-2.045,1.636-3.885,4.089-2.045,2.658-8.179,5.316-15.745,5.316-7.361,0-11.859-1.227-15.131-3.885a25.864,25.864,0,0,0-4.5-2.863,3.963,3.963,0,0,1-2.045-5.112c-.613,1.022-1.022,2.045-2.249,1.84-.818,0-2.454,0-2.045.818-.2-.409-.2-1.022-.409-1.227l-.409-.409c.613.409,2.045-.818,3.067-.818.818.2,1.84-.818,1.636-2.045-.2-1.022-.409-1.84-.613-2.658,1.636-.818,23.106,3.067,27.4,3.476,4.294.2,16.562,2.045,14.927,3.476Z" transform="translate(-838.177 -165.353)" stroke="#000" stroke-width="1.438"/><path d="M860.929,163.248c2.045-2.045,4.5-3.067,6.952-2.454h.613a6.232,6.232,0,0,1,5.725-.409h.818c2.454-.818,7.157,0,8.792,1.636l.613.409c5.521-.409,8.792,2.045,12.677,5.93a4.045,4.045,0,0,0,2.045,1.431c1.227.2,1.431.818.409,1.431-1.227.613-2.249,1.636-4.294,3.885-1.84,2.454-7.77,4.907-15.131,4.907-7.157,0-11.451-1.227-14.722-3.681a38.113,38.113,0,0,0-4.294-2.863c-1.227-.409-2.863-2.045-2.249-3.681.409-1.636-.613-3.681-1.431-5.725.613-.409,2.249-1.022,3.067-.613l.409-.2Z" transform="translate(-843.672 -159.881)" fill="#059334" stroke="#000" stroke-width="1.438"/><g transform="translate(16.848 0)"><path d="M933.114,171.726c-3.885-3.885-7.157-6.339-12.677-5.93a3.039,3.039,0,0,1-.2,1.227,28.275,28.275,0,0,1,10.019,7.566,18.945,18.945,0,0,0,2.863-2.863Z" transform="translate(-896.513 -163.247)" fill="#358142" stroke="#000" stroke-width="1.438"/><path d="M906.91,162.269c-1.636-1.636-6.339-2.454-8.792-1.636a6.96,6.96,0,0,1-.409,2.863,12.247,12.247,0,0,1,3.885,3.476c.818-.2,2.863-.818,3.885-1.022A19.68,19.68,0,0,0,906.91,162.269Z" transform="translate(-883.6 -160.128)" fill="#358142" stroke="#000" stroke-width="1.438"/><path d="M888.232,160.386a6.232,6.232,0,0,0-5.725.409,9.261,9.261,0,0,0-.613,3.272,4.489,4.489,0,0,1,2.454,1.022,11.034,11.034,0,0,0,3.476-1.84A6.96,6.96,0,0,0,888.232,160.386Z" transform="translate(-874.533 -159.881)" fill="#358142" stroke="#000" stroke-width="1.438"/><path d="M865.6,164.238c2.045-2.045,4.5-3.067,6.952-2.454a6.259,6.259,0,0,0-.613,3.067,11.724,11.724,0,0,0-6.339,1.227Z" transform="translate(-865.191 -160.871)" fill="#358142" stroke="#000" stroke-width="1.438"/><path d="M928.335,177.805c-1.84-2.658-6.339-5.725-9.406-7.157,0,.2-.409,1.022-.613,1.636a77.884,77.884,0,0,1,4.7,8.179A32.056,32.056,0,0,0,928.335,177.805Z" transform="translate(-895.414 -166.055)" fill="#358142" stroke="#000" stroke-width="1.438"/><path d="M905.376,185.326a76.376,76.376,0,0,0,.613-8.383c1.022-.2,3.067-.818,3.885-1.022,1.022,1.636,3.476,5.93,4.5,7.974-2.454.613-6.543,1.636-9,1.431Z" transform="translate(-887.996 -169.077)" fill="#358142" stroke="#000" stroke-width="1.438"/><path d="M888.6,172.213a15.423,15.423,0,0,0,3.476-2.045,20.359,20.359,0,0,1,3.067,2.863c0,1.84-.613,7.157-.818,9A13.721,13.721,0,0,1,888.6,180.8c.2-3.067.409-6.543,0-8.588Z" transform="translate(-878.379 -165.779)" fill="#358142" stroke="#000" stroke-width="1.438"/><path d="M864.641,175.711a8.788,8.788,0,0,0,.409-2.454c1.636-1.022,5.725-2.045,8.792-.409a54.46,54.46,0,0,1-.2,8.383c-2.658-2.045-6.952-4.907-9-5.521Z" transform="translate(-864.641 -166.823)" fill="#358142" stroke="#000" stroke-width="1.438"/></g><g transform="translate(1.921 1.527)"><path d="M837.382,170.437c-.409,0-.613-1.227-1.431-1.227-.2,0-.818.2-1.022,0a1.562,1.562,0,0,0,.409,1.022C835.542,170.846,836.564,170.437,837.382,170.437Z" transform="translate(-832.679 -166.757)"/><path d="M840.679,175.837c2.454,0,2.863-3.067,4.089-3.272" transform="translate(-835.976 -168.68)" fill="none" stroke="#000" stroke-width="1.438"/><path d="M844.034,176.306c1.84.818,3.272-3.476,4.7-3.272" transform="translate(-837.9 -168.945)" fill="none" stroke="#000" stroke-width="1.438"/><path d="M835.408,167.836c.613,0,1.022-.818,2.045.2a2.209,2.209,0,0,0,1.431.613" transform="translate(-832.954 -165.791)" fill="none" stroke="#000" stroke-width="1.438"/><path d="M838.475,175.441c-.818,1.227-2.249,2.045-3.067,1.636" transform="translate(-832.954 -170.329)" fill="none" stroke="#000" stroke-width="1.438"/><path d="M832.526,163.46a6.367,6.367,0,0,0-1.431,1.84" transform="translate(-830.481 -163.46)" fill="none" stroke="#000" stroke-width="1.438"/><path d="M829.657,170.648v1.022" transform="translate(-829.657 -167.581)" fill="none" stroke="#000" stroke-width="1.438"/></g></g></g><g transform="translate(28.219 52.959)"><path d="M886.686,232.949v39.872c0,34.556-16.358,46.415-38.237,55.821-21.879-9.406-38.441-21.265-38.441-55.821V232.949h76.678Z" transform="translate(-810.009 -232.949)" fill="#fff"/><path d="M848.45,266.687c1.84,0,4.7-1.636,7.157-4.089,2.658-2.863,7.157-3.885,11.859,0s7.566,2.249,10.019,0,4.5-3.067,9.2-3.067V232.949H810.009v26.582c4.7,0,6.748.818,9.2,3.067s5.316,3.885,10.019,0c4.907-3.885,9.2-2.863,12.064,0,2.249,2.454,5.112,4.089,7.157,4.089Z" transform="translate(-810.009 -232.949)" fill="#e0193a"/><g transform="translate(0 37.225)"><path d="M848.45,337.156c2.454,0,7.361-2.658,8.588-3.272,4.5-2.658,7.77-.2,10.428,1.022,2.863,1.227,8.179,2.658,11.451,0s5.112-2.454,7.361-2.454a72.408,72.408,0,0,0,.409-9.61v-2.454c-2.863-.613-4.294.2-7.361,2.863s-6.543,2.045-11.042.409c-4.294-1.84-8.588-5.112-12.882,0-1.227,1.431-4.089,3.476-6.952,3.476a9.886,9.886,0,0,1-6.952-3.476c-4.5-5.112-8.588-1.84-12.882,0-4.5,1.636-8.179,2.249-11.246-.409-2.863-2.658-4.294-3.476-7.361-2.863v2.454a71.218,71.218,0,0,0,.613,9.61c2.249,0,3.885-.2,7.157,2.454s8.792,1.227,11.451,0c2.863-1.227,6.134-3.681,10.633-1.022,1.227.613,5.93,3.272,8.588,3.272Z" transform="translate(-810.009 -320.196)" fill="#2e6aa3"/><path d="M851.472,374.721a21.791,21.791,0,0,0,10.019-3.067c4.089-2.249,6.952-1.227,11.042.818,4.294,2.045,7.77,1.431,10.224,0,1.227-.818,2.249-2.454,4.907-1.84a46.29,46.29,0,0,1-5.316,13.291c-4.089,1.022-6.339,1.022-10.633-.818-4.294-2.045-9.61-3.272-12.473-1.431a13.529,13.529,0,0,1-15.54,0c-2.863-1.84-8.179-.613-12.473,1.431-4.294,1.84-6.543,1.84-10.633.818a46.289,46.289,0,0,1-5.316-13.291c2.658-.613,3.68,1.022,4.907,1.84,2.249,1.431,5.93,2.045,10.019,0,4.294-2.045,7.157-3.067,11.246-.818a21.791,21.791,0,0,0,10.019,3.067Z" transform="translate(-813.031 -348.969)" fill="#2f4ba1"/><path d="M870.706,437.412c8.179-3.476,15.745-7.361,21.879-12.677-1.636-.613-2.658-.2-4.089-1.227s-5.725-1.431-9.406.613c-3.885,1.84-5.521,2.249-8.383,2.249s-4.5-.409-8.383-2.249c-3.681-2.045-7.974-1.636-9.406-.613s-2.454.613-4.089,1.227c6.134,5.316,13.5,9.2,21.879,12.677Z" transform="translate(-832.265 -378.944)" fill="#2f4ba1"/></g><g transform="translate(4.703 1.432)"><path d="M851.857,244.892c.2.409-.2,1.431,0,1.84.409.818.409,1.227,1.022,1.636h1.431c4.5,0,9.815-1.84,14.313-1.84,4.294,0,6.952,1.431,9.406,1.431,1.431,0,2.658-1.022,2.658-2.045s-1.636-1.636-5.112-1.636c-4.907,0-7.565,1.227-11.655,1.227-6.134,0-7.157-2.249-7.157-3.272s1.022-2.454,4.294-2.454a3.289,3.289,0,0,0,2.249-.613,4.571,4.571,0,0,1,2.045-1.84c1.431-.818,4.294,0,5.725-1.022,0,.818-1.227,2.045-2.249,2.454,2.045-.613,4.294-.613,4.7,1.022a4.48,4.48,0,0,0-3.272,0c-.818.2-1.227.409-2.045.613.818-.2,1.227,1.431,2.454,1.431-1.227,1.022-3.272,1.022-5.316.2a12.72,12.72,0,0,0-3.272-.818c-2.045,0-3.272.409-3.272,1.227,0,1.022,1.227,1.636,4.907,1.636s5.725-1.022,11.246-1.022c-.409-.613.2-1.227-.613-1.84,2.045,0,4.294.613,5.112,2.045-.2-1.431,1.022-2.658.613-3.885a3.326,3.326,0,0,1,2.454,2.454c0-.613.818-.613.818-1.227a3.159,3.159,0,0,1,1.636,3.272c.613-1.022,1.227-.613,1.636-1.84.409.818.2,3.272-1.227,4.089a3.228,3.228,0,0,1,4.294.613,3.93,3.93,0,0,0-2.454.613,18.944,18.944,0,0,1-9.61,2.045c-3.272-.2-3.68-.818-5.725-.818,1.227.2,3.68,2.658,5.93,2.658a11.772,11.772,0,0,0,3.067-.2,3.688,3.688,0,0,1,2.454.409A3.386,3.386,0,0,0,886,252.458a1.793,1.793,0,0,1-1.227,1.431c1.022.613.409,1.022,1.431,1.84-.409,0-.818.409-1.431.2.613.613.613,1.431,1.227,1.84-.2,0-.818.2-1.227,0,.613.818,0,1.84.613,2.249.613.818-.613,1.84-1.636,1.022a.819.819,0,0,1-1.022,1.022c-.613-.2-1.022-.818-.818-1.022,0-.2,0-.2.2-.409a1.336,1.336,0,0,1-1.636.409c-.2-.2-.409-.409-.409-.613a1.318,1.318,0,0,1-1.84-1.431c.2-.613,1.431-.818,1.84-.613s.818.409,1.227,0a1.124,1.124,0,0,0,.613-1.022c0-.613-.613-2.454-3.272-2.249a33.857,33.857,0,0,1-10.428-1.431c-.2-.2-.409-.2-.613-.409,0,.818-.818,1.227-.818,2.045a2.154,2.154,0,0,0,1.636,2.249,1.17,1.17,0,0,1-2.045.2c0,.613-.818,1.022-.818,1.84-.2-.409-.409-.613-.613-1.022-.613,1.431-2.249,2.249-3.067,1.84a1.71,1.71,0,0,1-2.658-.2,1.526,1.526,0,0,1-1.84,0c0,.613-.409.409-.613,1.227,0,.409-.818.613-1.227.409a.987.987,0,0,1-.2-1.431,1.237,1.237,0,0,1-1.636,0c0-.409,0-1.022.409-1.227h.409c-.409-.2-1.022,0-1.431-.2a.963.963,0,0,1-.2-1.227c.2-.2.818-.613,1.227-.2l.2.2c0-.409.2-.818.409-.818a1.382,1.382,0,0,1,1.636.409c.409.613.818.613,2.045.409,1.022,0,2.658-1.022,3.885-2.045-3.476-.613-1.431-2.863-.409-3.681a4.6,4.6,0,0,0-2.863.2c-4.294,2.249-8.792,4.907-11.655,4.09a2.906,2.906,0,0,0,.409,1.227c-.613,0-1.84,0-2.249-.613a2.713,2.713,0,0,0-.2,2.249,7.558,7.558,0,0,0-2.249-1.022c.409.409,0,1.227.2,1.84-.613-.613-1.636-1.022-2.045-.613a1.961,1.961,0,0,1-1.84.409,3.18,3.18,0,0,1-1.636,1.227c0-.409,0-1.022-.2-1.227a3.492,3.492,0,0,1-1.636,1.84,3.48,3.48,0,0,0-.2-1.431c0,.818-1.636,1.227-1.84,1.84a5.081,5.081,0,0,0,.2-1.636,3.134,3.134,0,0,1-2.045,1.431,1.352,1.352,0,0,0,.2-1.227c-.2.818-1.431,1.227-2.454,1.022,0,.409-.818,1.022-1.84.409-.613-.2-1.022-.818-.613-1.227-.818,0-1.636-.818-1.227-1.431,0-.2.2-.409.2-.613a1.153,1.153,0,0,1-.2-1.84c.2-.2.818-.2,1.227-.2,0-1.636,1.431-1.636,2.045-.409.409.613,1.636,1.636,2.658,1.431.409,0,.613-.2,1.022-.2a17.554,17.554,0,0,0,5.112-2.658,3.992,3.992,0,0,0,.2-1.431,5.219,5.219,0,0,0-2.045,1.431V254.3c-.613,0-1.636-.2-2.045-.2.2-.2.409-1.227.818-1.431a6.564,6.564,0,0,1-2.863-.2c.409-.409.409-1.022.613-1.636-.409.2-1.431-.2-2.249,0,.2-.613.409-1.431,1.022-1.636a4.9,4.9,0,0,1-2.863-.409c.818,0,1.227-1.022,1.84-1.022-1.636,0-2.045-.818-2.863-1.227.613.2,1.022-.409,1.636-.409-.613-.2-1.636-1.227-1.227-1.84-.2.2-.409.613-.818.818a1.851,1.851,0,0,1-1.84-.613,1.373,1.373,0,0,1,.613-2.045.979.979,0,0,1-.613-1.636c.2-.409,1.022-1.022,1.431-.409.2.2.409.613.613.818a5.077,5.077,0,0,1-.2-1.84c.2-.613.613-.613,1.227-.818a1.145,1.145,0,0,1,1.022,1.227,7.589,7.589,0,0,0,.409,1.84c0-.2.2-.613.2-.818,0-.818,1.022-.613,1.636-.409s.818,1.431,0,2.045a1.01,1.01,0,0,0,.2,1.431c1.431,2.249,3.885,4.089,5.93,4.294a3.283,3.283,0,0,1,1.022-2.249,3.791,3.791,0,0,1,.409-1.431c.2-1.227.818-1.84,1.636-1.431-.2-.2-.409-.409-.409-.613-.613-.613-1.227-1.636-.818-2.454s1.636-.613,2.045-.2c-.2-1.227,1.227-2.249,1.227-2.863.2.613.613,1.431.409,2.045.2-.818,1.636-1.84,2.658-2.249-.409.613.818,1.636.613,2.249.409-1.022,2.045-1.636,3.272-1.636a2.458,2.458,0,0,0-.409,1.636,2.625,2.625,0,0,0,2.045-.818,3.124,3.124,0,0,1-.818,2.045,3.516,3.516,0,0,1,1.636-.2c-.613.613-.409,1.227-1.022,1.636.818-.409,1.84-.409,2.045.409.409.613-.2,1.636-.613,2.249-.409.2-.818.613-1.022.613Z" transform="translate(-823.435 -236.304)" fill="#fcd93a" stroke="#000" stroke-width="1.438"/><g transform="translate(2.658 3.271)"><path d="M855.184,262.182a3.857,3.857,0,0,0-2.045,2.863" transform="translate(-842.098 -254.412)" fill="none" stroke="#000" stroke-width="1.438"/><path d="M854.018,265.537c-2.045,1.227-2.863,2.249-2.454,4.5" transform="translate(-841.136 -256.336)" fill="none" stroke="#000" stroke-width="1.438"/><path d="M859.849,276.342a4.66,4.66,0,0,0,3.067-2.658" transform="translate(-845.945 -261.006)" fill="none" stroke="#000" stroke-width="1.438"/><path d="M864.776,275.6c-.409.818,0,2.249-.613,2.863a3.824,3.824,0,0,0,2.045-2.863" transform="translate(-848.418 -262.106)" fill="none" stroke="#000" stroke-width="1.438"/><path d="M866.558,275.1a6.729,6.729,0,0,0,2.658-3.067c-.2.613,0,1.636-.409,2.249a4.745,4.745,0,0,0,1.636-2.658c0,.2.2.613.2.818a2.125,2.125,0,0,0,.818-1.636" transform="translate(-849.791 -259.358)" fill="none" stroke="#000" stroke-width="1.438"/><path d="M878.06,270.323v1.022a2.752,2.752,0,0,0,1.022-2.454" transform="translate(-856.386 -258.259)" fill="none" stroke="#000" stroke-width="1.438"/><path d="M879.977,266.547c1.227-.818,1.431-2.045,1.431-3.885" transform="translate(-857.485 -254.687)" fill="none" stroke="#000" stroke-width="1.438"/><path d="M883.331,263.607c.818-.613,1.022-1.022,1.022-2.863" transform="translate(-859.408 -253.588)" fill="none" stroke="#000" stroke-width="1.438"/><path d="M873.727,245.607a.749.749,0,0,0-.818.818c0,.409-.613,1.022-.613,1.636-.2.818-.613,1.022-1.227.818-.613-.409-.613-.409-.613-1.022,0-.818,1.022-1.022,1.022-1.84.2-.409.409-1.022.613-1.022a1.721,1.721,0,0,1-2.658-1.022" transform="translate(-851.439 -243.971)" fill="none" stroke="#000" stroke-width="1.438"/><path d="M880.514,248.911c-.409.2-.818-.409-1.431-.2-.2,0-.818.2-1.022,0" transform="translate(-856.386 -246.662)" fill="none" stroke="#000" stroke-width="1.438"/><path d="M877.1,249.99a2.469,2.469,0,0,0,2.249.2.785.785,0,0,1-.613-1.431" transform="translate(-855.836 -246.719)" fill="none" stroke="#000" stroke-width="1.438"/><path d="M871.086,246.847c-.818,0-1.431.613-1.227,1.227s1.022.613,1.636.2" transform="translate(-851.661 -245.62)" fill="none" stroke="#000" stroke-width="1.438"/><path d="M869.433,263.665a1.419,1.419,0,0,1,1.431-1.227,1.781,1.781,0,0,0,1.636-1.227c.409,0,.613-1.022.818-1.431.2.2.613,0,.818-.818a.911.911,0,0,0,1.227-.613" transform="translate(-851.439 -252.214)" fill="none" stroke="#000" stroke-width="1.438"/><path d="M861.76,254.994c0,.2-.409.613-.818.818a1.59,1.59,0,0,1-.409,1.636,1.8,1.8,0,0,1-.2,1.431c0,.2.2.818.2,1.022" transform="translate(-846.219 -250.291)" fill="none" stroke="#000" stroke-width="1.438"/><path d="M865.325,245.409c-.409,1.022-.2,2.249.613,2.454" transform="translate(-848.967 -244.796)" fill="none" stroke="#000" stroke-width="1.438"/><path d="M865.74,253.077c-.2,1.022-.2,2.454-.409,3.067a1.491,1.491,0,0,0,1.022,2.249c1.84.409,2.863.2,3.885-2.863" transform="translate(-848.973 -249.192)" fill="none" stroke="#000" stroke-width="1.438"/><path d="M883.466,277.518a.653.653,0,0,1-.613.613" transform="translate(-859.133 -263.205)" fill="none" stroke="#000" stroke-width="1.438"/><path d="M886.82,276.559a2.332,2.332,0,0,1-.613,1.227" transform="translate(-861.056 -262.655)" fill="none" stroke="#000" stroke-width="1.438"/><path d="M890.449,275.6c0,.409,0,1.022-.409,1.227" transform="translate(-863.254 -262.106)" fill="none" stroke="#000" stroke-width="1.438"/><path d="M861.313,245.888c.2,0,.409.409.613.818-.613-.409-1.227.613-.818,1.227" transform="translate(-846.591 -245.07)" fill="none" stroke="#000" stroke-width="1.438"/><path d="M859.229,254.035c-.2.2-.613.409-.818.613" transform="translate(-845.12 -249.741)" fill="none" stroke="#000" stroke-width="1.438"/><path d="M858.066,258.348c-.2,0-.409.2-.613.2" transform="translate(-844.571 -252.214)" fill="none" stroke="#000" stroke-width="1.438"/><path d="M835.887,249.172c0-.2,0-.2.2-.409" transform="translate(-832.206 -246.719)" fill="none" stroke="#000" stroke-width="1.438"/><path d="M831.024,248.009c-.2,0-.2,0-.409-.2" transform="translate(-829.184 -246.169)" fill="none" stroke="#000" stroke-width="1.438"/><path d="M832.053,254.994h.409" transform="translate(-830.008 -250.291)" fill="none" stroke="#000" stroke-width="1.438"/><path d="M828.487,251.294a2.25,2.25,0,0,0-1.227-.613" transform="translate(-827.261 -247.818)" fill="none" stroke="#000" stroke-width="1.438"/><path d="M853.472,269.85a5.561,5.561,0,0,0-2.249,3.681" transform="translate(-840.999 -258.808)" fill="none" stroke="#000" stroke-width="1.438"/><path d="M857.651,272.246a4.827,4.827,0,0,1-1.636,1.84" transform="translate(-843.747 -260.182)" fill="none" stroke="#000" stroke-width="1.438"/><path d="M834.84,285.249a4.707,4.707,0,0,1-4.089-.613c-.2-.2-.409-.2-.613-.409" transform="translate(-828.909 -267.051)" fill="none" stroke="#000" stroke-width="1.438"/><path d="M854.437,277.441c-.2.818-.409,1.84-.818,2.045,1.636-.818,3.067-2.045,3.272-3.885" transform="translate(-842.373 -262.106)" fill="none" stroke="#000" stroke-width="1.438"/><path d="M827.74,288.745c.613-.2,1.227.2,1.636-.2" transform="translate(-827.535 -269.524)" fill="none" stroke="#000" stroke-width="1.438"/><path d="M911.127,272.381a6.81,6.81,0,0,1,1.227.613,3.466,3.466,0,0,1,1.636-1.227" transform="translate(-875.344 -259.908)" fill="none" stroke="#000" stroke-width="1.438"/><path d="M877.034,280.247A1.911,1.911,0,0,1,878.465,278" transform="translate(-855.768 -263.48)" fill="none" stroke="#000" stroke-width="1.438"/><path d="M858.411,289.493c.2-.409.2-1.022.409-1.431" transform="translate(-845.12 -269.25)" fill="none" stroke="#000" stroke-width="1.438"/><path d="M836.5,292.853c-.2.409-.613.818-.613,1.227" transform="translate(-832.207 -271.997)" fill="none" stroke="#000" stroke-width="1.438"/><path d="M830.136,292.163a.2.2,0,0,1,.2-.2,3.005,3.005,0,0,0,1.227-1.022" transform="translate(-828.909 -270.898)" fill="none" stroke="#000" stroke-width="1.438"/><path d="M894.213,286.828c-.409.2-.613,0-.818-.2" transform="translate(-865.178 -268.425)" fill="none" stroke="#000" stroke-width="1.438"/><path d="M894.283,289.5a.714.714,0,0,1-.409.2" transform="translate(-865.453 -270.074)" fill="none" stroke="#000" stroke-width="1.438"/><path d="M896.4,291.895c-.2.2-.409.409-.613.409" transform="translate(-866.552 -271.447)" fill="none" stroke="#000" stroke-width="1.438"/><path d="M911.127,290.93c.409-.2.613-.613.818-1.431" transform="translate(-875.344 -270.073)" fill="none" stroke="#000" stroke-width="1.438"/><path d="M904.9,290.725a4.287,4.287,0,0,0,1.636-1.227" transform="translate(-871.772 -270.074)" fill="none" stroke="#000" stroke-width="1.438"/><path d="M918.315,286.891a2.594,2.594,0,0,1,.2-1.227" transform="translate(-879.465 -267.875)" fill="none" stroke="#000" stroke-width="1.438"/><path d="M953.4,290.105a.876.876,0,0,1,.2-1.431c.409-.2.613-.409,1.022-.613" transform="translate(-899.415 -269.249)" fill="none" stroke="#000" stroke-width="1.438"/><path d="M916.853,271.938c-3.272-1.431-3.067-3.272-5.725-3.067" transform="translate(-875.344 -258.238)" fill="none" stroke="#000" stroke-width="1.438"/><path d="M958.571,290.936c.2.2,0,.818,0,1.022" transform="translate(-902.545 -270.898)" fill="none" stroke="#000" stroke-width="1.438"/><path d="M962.609,290.936a3.48,3.48,0,0,0-.2,1.431" transform="translate(-904.743 -270.898)" fill="none" stroke="#000" stroke-width="1.438"/><path d="M923.785,245.888h-1.636" transform="translate(-881.663 -245.07)" fill="none" stroke="#000" stroke-width="1.438"/><path d="M885.727,262.182c0,.409.613,1.227,2.249,1.227a.714.714,0,0,1-.409-.2" transform="translate(-860.781 -254.412)" fill="none" stroke="#000" stroke-width="1.438"/><path d="M875.447,252.311a.283.283,0,0,1-.409,0c-.409-.409.2-1.227.818-1.636a3.991,3.991,0,0,1-1.431.2c-.409,1.227-1.636,1.84-2.454,1.022-.2.818-1.227,1.84-2.045,1.636a1.287,1.287,0,0,1-.818-1.636,1.719,1.719,0,0,1-2.658,0,4.789,4.789,0,0,1,.409-2.658" transform="translate(-849.683 -246.994)" fill="none" stroke="#000" stroke-width="1.438"/></g><path d="M915.661,274.642c-.613.409-1.227,0-1.84.613-.409.409.2.613.613.613-.2.613-.2.818.818.818-.409.613.818.818.613,1.636a1.953,1.953,0,0,0,.409-2.045c-.2-.613-1.227-1.022-.613-1.636Z" transform="translate(-874.153 -258.284)"/><g transform="translate(0 1.227)"><path d="M866.737,257.109a1.287,1.287,0,0,1-.818-1.636,1.124,1.124,0,0,1-1.022.613c-.818,1.84-1.84,3.476-3.067,3.476-1.431.2-1.227,1.636-.2,1.636C863.874,261.607,864.9,260.789,866.737,257.109Z" transform="translate(-843.836 -248.521)" fill="#073163"/><path d="M823.689,245.786a.846.846,0,0,0-.2-1.431,2.262,2.262,0,0,0-2.454,1.022c.613-.2,1.227-.2,1.431.2S823.076,246.4,823.689,245.786Z" transform="translate(-821.031 -242.105)" fill="#073163"/><path d="M829.657,239.179c1.431,0,1.84.2,2.045.818a.781.781,0,0,1-.613,1.022c-.613,0-1.227-.409-1.022-.613A.82.82,0,0,0,829.657,239.179Z" transform="translate(-825.977 -239.179)" fill="#073163"/><path d="M837.868,244.028c1.022.2,1.431-.409.818-1.227-.2-.613-.818-1.022-1.84-.818C837.868,242.6,836.846,243.619,837.868,244.028Z" transform="translate(-830.098 -240.756)" fill="#073163"/><path d="M821.51,253.72a1.664,1.664,0,0,0,2.045.818.911.911,0,0,0,.613-1.227c-.409-.613-1.022-.818-1.227,0A.927.927,0,0,1,821.51,253.72Z" transform="translate(-821.306 -246.972)" fill="#073163"/><path d="M825.126,283.4c-.409-.818-1.636-.818-2.658,0a1.264,1.264,0,0,1,1.431.409.816.816,0,0,0,.818.409C824.922,284.016,825.331,283.812,825.126,283.4Z" transform="translate(-821.855 -264.182)" fill="#073163"/><path d="M829.51,279.988c0-1.022-1.431-1.227-2.249-.818.409,0,1.022.409,1.022.818a1.1,1.1,0,0,0,.818.613C829.51,280.4,829.714,280.192,829.51,279.988Z" transform="translate(-824.603 -261.994)" fill="#073163"/><path d="M825.267,289.952c-1.227-.2-1.84,1.227-1.84,2.249a1.163,1.163,0,0,1,1.431-.818c.613,0,.818-.2.818-.613.2-.409,0-.613-.409-.818Z" transform="translate(-822.405 -268.277)" fill="#073163"/><path d="M828.219,296.571c.409.2.818-.2,1.022-.818,0-.409.818-.409,1.022-.2.409.2.409,1.022-.2,1.431C829.65,297.184,828.628,297.389,828.219,296.571Z" transform="translate(-825.152 -271.42)" fill="#073163"/><path d="M891.811,283.313a2.182,2.182,0,0,0-2.249,0,.993.993,0,0,1,1.227.613.439.439,0,0,0,.818.2C891.811,283.926,892.015,283.517,891.811,283.313Z" transform="translate(-860.322 -264.297)" fill="#073163"/><path d="M887.772,286.978c-.818-.409-1.84.613-2.045,1.431a3.053,3.053,0,0,1,1.431-.613c.409.2.818,0,.818-.409C888.181,287.182,888.181,286.978,887.772,286.978Z" transform="translate(-858.124 -266.53)" fill="#073163"/><path d="M890.993,290.936a1.755,1.755,0,0,0-1.431,1.636.747.747,0,0,1,1.022-.409c.409,0,1.022-.2,1.022-.613A.542.542,0,0,0,890.993,290.936Z" transform="translate(-860.322 -268.853)" fill="#073163"/><path d="M895.58,294.667a.69.69,0,0,0-1.022.613c0,.613,0,1.227-.2,1.431a4.277,4.277,0,0,1,1.227-.818.923.923,0,0,0,0-1.227Z" transform="translate(-863.069 -270.948)" fill="#073163"/><path d="M949.417,290.157a.771.771,0,0,0-1.227.2,2.817,2.817,0,0,0,0,2.249c0-.409.409-1.022.818-1.022a.9.9,0,0,0,.409-1.431Z" transform="translate(-893.8 -268.279)" fill="#073163"/><path d="M953.4,292.305c-.818.409-.818,1.84-.2,2.658a1.457,1.457,0,0,1,.613-1.227c.613,0,.818-.818.613-1.227a1.036,1.036,0,0,0-1.022-.2Z" transform="translate(-896.552 -269.609)" fill="#073163"/><path d="M958.839,294.218c-.409-.2-.818.2-.818.613a1.78,1.78,0,0,0,.818,1.84,1.562,1.562,0,0,1,.409-1.022C959.861,295.24,959.656,294.422,958.839,294.218Z" transform="translate(-899.541 -270.703)" fill="#073163"/><path d="M963.545,293.812a.746.746,0,0,0-.409,1.227c.2.409.613.613,1.431.409-.2,0-.613-.613-.409-.818C964.363,294.221,964.158,293.812,963.545,293.812Z" transform="translate(-902.407 -270.502)" fill="#073163"/></g></g><g transform="translate(2.658 32.716)"><path d="M822.577,341.116,832.8,309.627l10.224,31.489-26.786-19.425h33.125Z" transform="translate(-816.239 -309.627)" fill="#f9d050"/><path d="M829.293,343.2l21.265-15.54H824.385l21.061,15.54-7.974-24.946Z" transform="translate(-820.91 -314.573)" fill="#358142"/></g><g transform="translate(41.099 32.716)"><path d="M822.577,341.116,832.8,309.627l10.224,31.489-26.786-19.425h33.125Z" transform="translate(-816.239 -309.627)" fill="#f9d050"/><path d="M829.293,343.2l21.265-15.54H824.385l21.061,15.54-7.974-24.946Z" transform="translate(-820.91 -314.573)" fill="#358142"/></g><g transform="translate(21.878 55.004)"><path d="M822.577,341.116,832.8,309.627l10.224,31.489-26.786-19.425h33.125Z" transform="translate(-816.239 -309.627)" fill="#f9d050"/><path d="M829.293,343.2l21.265-15.54H824.385l21.061,15.54-7.974-24.946Z" transform="translate(-820.91 -314.573)" fill="#358142"/></g><path d="M886.686,232.949v39.872c0,34.556-16.358,46.415-38.237,55.821-21.879-9.406-38.441-21.265-38.441-55.821V232.949h76.678Z" transform="translate(-810.009 -232.949)" fill="none" stroke="#000" stroke-width="1.438"/></g></g><g transform="translate(0 0.171)"><path d="M95.68,0V38.456H0V76.912H95.68v38.456h38.289V76.912h95.765V38.456H133.969V0Z" fill="#fff"/><path d="M0,0V12.847l204.067,102.52h25.668V102.435L25.668,0Z" fill="#fff"/><path d="M204.067,0,0,102.435v12.933H25.668L229.735,12.847V0Z" fill="#fff"/><path d="M103.355,0V46.078H0V69.2H103.355v46.164H126.38V69.2H229.735V46.078H126.38V0Z" fill="#e0193a"/><path d="M136.016,38.456,212.594,0h17.14L153.157,38.456ZM59.437,38.37,0,8.565V0L76.578,38.37Z" transform="translate(0 0)" fill="#e0193a"/><path d="M153.157,0H170.3l59.437,29.891v8.565ZM0,38.456,76.578,0h17.14L17.14,38.456Z" transform="translate(0 76.972)" fill="#e0193a"/></g></g></svg>