<svg xmlns="http://www.w3.org/2000/svg" width="512" height="300"><defs><clipPath id="a"><path d="M0 0h512v300H0z"/></clipPath></defs><g clip-path="url(#a)" data-name="Flag_of_the_People's_Republic_of_China"><path fill="#f23b27" d="M0 0h512v300H0z" data-name="Rectangle 1"/><path fill="#fcd93a" d="m75 29.355 26.45 81.406L32.2 60.449h85.6l-69.25 50.312Z" data-name="Path 8"/><path fill="#fcd93a" d="m175.698 15.551-2.504 28.422-14.68-24.466 26.257 11.165-27.805 6.4Z" data-name="Path 9"/><path fill="#fcd93a" d="M215.127 48.91 201.79 74.134l-4.036-28.245 19.867 20.48-28.11-4.892Z" data-name="Path 10"/><path fill="#fcd93a" d="m218.564 99.656-22.466 17.588 7.837-27.435 9.785 26.802-23.67-15.932Z" data-name="Path 11"/><path fill="#fcd93a" d="m175.129 120.893-1.324 28.501-15.682-23.836 26.697 10.067-27.515 7.547Z" data-name="Path 12"/></g></svg>