<svg xmlns="http://www.w3.org/2000/svg" xmlns:xlink="http://www.w3.org/1999/xlink" width="512" height="300" viewBox="0 0 512 300"><defs><clipPath id="b"><rect width="512" height="300"/></clipPath></defs><g id="a" clip-path="url(#b)"><g transform="translate(0 -0.645)"><rect width="512" height="300" transform="translate(0 0.645)" fill="#f23b27"/><path d="M0-45,26.45,36.406-42.8-13.906H42.8L-26.45,36.406Z" transform="translate(75 75)" fill="#fcd93a"/><path d="M14.266,0l8.817,27.135L0,10.365H28.532L5.449,27.135Z" transform="translate(162.57 10.614) rotate(23.036)" fill="#fcd93a"/><path d="M14.266,0l8.817,27.135L0,10.365H28.532L5.449,27.135Z" transform="translate(205.194 39.316) rotate(45.87)" fill="#fcd93a"/><path d="M14.266,0l8.817,27.135L0,10.365H28.532L5.449,27.135Z" transform="translate(213.672 86.9) rotate(69.945)" fill="#fcd93a"/><path d="M14.266,0l8.817,27.135L0,10.365H28.532L5.449,27.135Z" transform="translate(161.78 116.505) rotate(20.66)" fill="#fcd93a"/></g></g></svg>