<svg xmlns="http://www.w3.org/2000/svg" width="512" height="300"><defs><clipPath id="b"><path fill="#fff" stroke="#c09300" stroke-width=".905" d="M26.935 3.923a6.491 6.491 0 0 1-.419.013c-3.07 0-10.2-1.575-12.948-3.936C10.689 2.181 3.442 3.936.422 3.936a2.278 2.278 0 0 1-.42-.043c-.007.688.029 1.4.071 2.05a36.169 36.169 0 0 0 1.231 7.2 35.149 35.149 0 0 0 12.155 18.38 35.205 35.205 0 0 0 12.166-18.397 36.2 36.2 0 0 0 1.234-7.2 36.89 36.89 0 0 0 .076-2.003Z" data-name="Path 1298"/></clipPath><clipPath id="a"><path d="M0 0h512v300H0z"/></clipPath></defs><g clip-path="url(#a)"><path fill="#424242" d="M0 0h512v300H0Z" data-name="Path 1269"/><path fill="#fff" d="M0 0h512v200H0Z" data-name="Path 1270"/><path fill="#e0193a" d="M0 0h512v100H0Z" data-name="Path 1271"/><g data-name="Group 179"><path fill="#fff" stroke="#c09300" stroke-linejoin="round" stroke-width="1.27" d="m256.401 151.2 34.243 31.789-2.437-57.732c-.358-8.75-7.962-6.742-13.485-3.586-5.6 3.586-11.979 3.586-18.723 1.218-6.742 2.368-13.126 2.368-18.722-1.218-5.523-3.156-13.126-5.164-13.485 3.586l-2.439 57.734Z" data-name="Path 1272"/><path fill="#c09300" d="m227.731 123.245-2.367 56.159-4.017 3.584 2.439-57.734c1.147-.789 3.156-2.008 3.945-2.008Zm4.81 4.02-2.008 46.977-4.016 4.11 2.438-54.244c.789.788 3.157 2.725 3.586 3.155Zm4.375 3.585-1.577 39.18-3.227 3.155 2.009-44.7c.787.789 2.365 1.937 2.8 2.367Zm4.736 2.009-1.578 33.393-3.156 2.56 1.578-37.172a11.472 11.472 0 0 0 3.156 1.219Zm4.375 0-1.148 27.828-3.227 3.157 1.22-30.625c.788 0 2.8 0 3.156-.359Z"/><path fill="#c09300" stroke="#c09300" d="m284.261 123.245 2.367 56.159 4.017 3.584-2.439-57.734c-1.147-.789-3.156-2.008-3.945-2.008Zm-4.81 4.02 2.008 46.977 4.016 4.11-2.438-54.245c-.789.788-3.157 2.725-3.586 3.155Zm-4.375 3.585 1.577 39.18 3.228 3.158-2.009-44.7c-.787.789-2.365 1.937-2.8 2.367Zm-4.735 2.01 1.578 33.393 3.156 2.56-1.578-37.172a11.472 11.472 0 0 1-3.152 1.219Zm-4.375 0 1.148 27.828 3.231 3.156-1.22-30.626c-.787 0-2.8 0-3.156-.359Z" data-name="Path 1273"/><path fill="#c09300" stroke="#c09300" stroke-width="1.074" d="m257.576 157.53 4.806 21.877-1.579 1.578-1.65-1.219-2.727-19.509 1.148 19.509-1.578 2.008-1.578-2.008 1.148-19.509-2.725 19.509-1.651 1.219-1.576-1.581 4.805-21.877h3.157Z" data-name="Path 1274"/><g stroke="#c09300" stroke-linejoin="round"><path fill="#fff" stroke-width="1.189" d="m245.236 147.92-9.54 33.852 13.127 2.009 5.594-25.462-9.181-10.4Z" data-name="Path 1275"/><path fill="none" stroke-width="1.27" d="m242.08 159.47 1.148 2.8 6.2-5.924" data-name="Path 1276"/><path fill="none" stroke-width="1.27" d="m246.376 152.46 1.3 12.173 3.943-5.166m-1.582 2.008 2.155 7.437m.845-2.733-4.359 6.62m1.359 6.608-1.4-6.6-1.218-6.711-2.92 3.954-1.281-4.559-4.081 4.194 2.079 7.625 2.869-4.717 1.578 4.806 2.945-4.581" data-name="Path 1277"/><path fill="none" stroke-width="1.27" d="m238.486 180.984 2.65-3.722 1.726 5.728 2.367-4.016 1.579 4.807" data-name="Path 1278"/></g><g stroke="#c09300" stroke-linejoin="round" data-name="Group 174"><path fill="#fff" stroke-width="1.189" d="m266.756 147.92 9.54 33.852-13.127 2.009-5.594-25.462 9.181-10.399Z" data-name="Path 1279"/><path fill="none" stroke-width="1.27" d="m269.911 159.466-1.148 2.8-6.2-5.924" data-name="Path 1280"/><path fill="none" stroke-width="1.27" d="m265.617 152.46-1.3 12.173-3.945-5.164m1.58 2.006-2.155 7.433m-.845-2.733 4.358 6.625m-1.358 6.608 1.4-6.6 1.212-6.71 2.92 3.954 1.281-4.559 4.087 4.192-2.079 7.623-2.868-4.715-1.578 4.806-2.945-4.581" data-name="Path 1281"/><path fill="none" stroke-width="1.27" d="m273.501 180.982-2.65-3.719-1.726 5.728-2.367-4.016-1.579 4.807" data-name="Path 1282"/></g><g data-name="Group 176"><path fill="#fff" stroke="#c09300" stroke-linecap="round" stroke-linejoin="round" stroke-width="2.378" d="M255.995 196.901c9.971 0 19.512-.789 25.106-2.367 2.368-.429 2.368-1.649 2.368-3.228 2.368-.789 1.147-3.585 2.8-3.585-1.65.431-2.008-2.8-4.016-2.366 0-2.8-2.8-3.156-5.165-2.369-4.735 1.579-13.127 1.938-21.09 1.938-7.962-.359-16.283-.359-21.089-1.938-2.367-.788-5.163-.429-5.163 2.369-2.009-.431-2.368 2.8-4.017 2.366 1.649 0 .43 2.8 2.8 3.585 0 1.579 0 2.8 2.439 3.228 5.522 1.578 15.064 2.367 25.034 2.367Z" data-name="Path 1283"/><path fill="#fff" stroke="#c09300" stroke-linecap="round" stroke-linejoin="round" stroke-width="1.27" d="M242.441 181.77a40.228 40.228 0 0 0 9.612.431c1.577 0 2.725 2.725-.431 3.156a37.769 37.769 0 0 1-9.54-.431c-2.008-.359-6.384-1.147-9.182-1.938-2.8-1.218-.788-3.584.789-3.226a52.672 52.672 0 0 0 8.752 2.008Zm27.115 0a39.79 39.79 0 0 1-9.54.431c-1.65 0-2.8 2.725.359 3.156a37.753 37.753 0 0 0 9.539-.431c2.009-.359 6.384-1.147 9.182-1.938 2.8-1.218.79-3.584-.789-3.226a52.655 52.655 0 0 1-8.75 2.008Z" data-name="Path 1284"/><path fill="#fff" stroke="#c09300" stroke-linecap="round" stroke-linejoin="round" stroke-width="1.27" d="M232.541 180.195c-2.438-.431-3.586 2.366-2.8 3.943.358-.789 2.008-.789 2.367-1.578.429-1.218-.359-1.218.429-2.366Zm9.54 7.335c0-1.576 1.577-1.383 1.577-2.961 0-.789-.429-2.009-1.218-2.009a1.7 1.7 0 0 0-1.579 1.578c-.359 1.578 1.219 1.815 1.219 3.391Zm11.355-4.54c2.365 0 2.131 3.157.983 4.735 0-1.148-2.008-1.578-2.008-2.366 0-1.221 1.813-1.221 1.025-2.37Zm26.015-2.795c2.439-.431 3.587 2.366 2.8 3.943-.359-.789-2.008-.789-2.367-1.578-.431-1.218.359-1.218-.431-2.366Zm-9.54 7.335c0-1.576-1.577-1.383-1.577-2.961 0-.789.43-2.009 1.219-2.009a1.7 1.7 0 0 1 1.578 1.578c.359 1.578-1.22 1.816-1.22 3.392Zm-11.355-4.54c-2.366 0-2.131 3.157-.984 4.735 0-1.148 2.008-1.578 2.008-2.366 0-1.221-1.813-1.221-1.024-2.369Z" data-name="Path 1285"/><path fill="#fff" stroke="#c09300" stroke-linecap="round" stroke-linejoin="round" stroke-width=".891" d="M233.331 180.984a3.894 3.894 0 0 1 2.368.789l-2.37-.79Zm3.94 1.22a8.835 8.835 0 0 1 2.8.788l-2.8-.79Zm14.35 1.575c-.789 0-2.367 0-2.8.358l2.795-.36Zm-4.375 0a3.16 3.16 0 0 0-2.8 0h2.803Zm31.42-2.795a4.068 4.068 0 0 0-2.368.789Zm-3.945 1.22a8.841 8.841 0 0 0-2.8.788l2.8-.79Zm-14.35 1.575c.79 0 2.368 0 2.8.358l-2.8-.36Zm4.375 0a3.162 3.162 0 0 1 2.8 0h-2.8Z" data-name="Path 1286"/><g fill="#c09300" data-name="Group 175"><path d="M232.668 187.289a.4.4 0 0 1-.34-.512c.082-.3.326-.479.556-.4.147.052.415.322.416.419s-.14.376-.2.377a.147.147 0 0 0-.091.051.416.416 0 0 1-.34.062Zm27.465 1.96a.574.574 0 0 1-.257-.362.66.66 0 0 1 .464-.511.907.907 0 0 1 .417.217.406.406 0 0 1-.077.6.764.764 0 0 1-.547.051Zm.18 1.24a.389.389 0 0 1-.3-.407c-.018-.243.006-.281.262-.42l.183-.1.173.077c.24.107.347.222.355.384a.492.492 0 0 1-.32.441.333.333 0 0 1-.349.024Z" data-name="Path 1287"/><path d="M234.872 185.044a1.277 1.277 0 0 0-.547.234c-.325.076-.7.276-1.016.063-.309-.1-.719-.02-.766.359a.541.541 0 0 0 .813.3c.205-.269.766-.426.828.031-.228.346-.2.8-.391 1.172a1.6 1.6 0 0 1-.25.641 1.267 1.267 0 0 0-.671.138 1.063 1.063 0 0 0-.813.438 2.329 2.329 0 0 0-.453.937c.054.362.469.466.781.484.333.092.667.212 1 .313.543.121 1.051.318 1.594.437.792.239 1.624.349 2.422.563a1.256 1.256 0 0 0 .25.062c.331.069.5-.291.531-.562.164-.58.29-1.17.453-1.75.112-.233.248-.759-.2-.641a1.819 1.819 0 0 1-.8.406c-.437.026-.188.473-.016.656a1.188 1.188 0 0 1-.25.875c-.26.165-.586-.028-.859-.094-.287 0-.862-.142-.594-.531.1-.288.1-.6.219-.891a4.036 4.036 0 0 0 .234-.969c-.181-.389-.489.128-.734.172-.169.117-.8.167-.469.469.288.219.067.6.016.875-.018.385-.419.477-.734.391-.314-.015-.751-.249-.484-.594.061-.288.161-.57.219-.859.119-.349.219-.681.344-1.031a2.886 2.886 0 0 1 .312-.875c.009-.343.239-.637.234-.984-.023-.169-.1-.231-.2-.234Zm-1.8 3.625a.177.177 0 0 1 .109.016c.125.053.129.155 0 .266a.415.415 0 0 1-.141.094c-.234-.02-.3-.055-.312-.141s.015-.1.172-.172a.7.7 0 0 1 .172-.062Zm-.518 2.51c-.248-.233-.208-.4.159-.677.157-.117.252-.1.432.06.276.252.287.411.043.627a.385.385 0 0 1-.314.13.358.358 0 0 1-.318-.137Zm1.525.46a.43.43 0 0 1-.311-.544c.064-.217.1-.239.42-.242.357 0 .427.056.43.371 0 .177-.012.218-.1.3a.537.537 0 0 1-.439.114Zm44.554.04a.275.275 0 0 1-.138-.257c0-.205.117-.356.373-.472.341-.154.48-.133.608.093.171.3.163.423-.042.626-.113.112-.134.118-.393.121s-.279-.008-.406-.108Zm-42.529.575a.373.373 0 0 1-.279-.4c0-.167.01-.194.127-.285a.669.669 0 0 1 .289-.123.322.322 0 0 1 .29.069c.275.193.334.385.174.571a.507.507 0 0 1-.6.171Zm10.96.49c-.04-.05-.13-.08-.139-.144a3.159 3.159 0 0 1 .118-.824 4.828 4.828 0 0 1 .1-.789c.093-.464.093-.941.2-1.4a2.618 2.618 0 0 1 .1-.7c.079-.361.007-.738.113-1.095-.011-.134.143-.492.278-.28a4.579 4.579 0 0 0 .71.758c.219.126.018.312-.133.375a.471.471 0 0 0-.243.511 6.219 6.219 0 0 0-.121.615c-.044.311-.035.627-.076.938a4.9 4.9 0 0 0-.087.944c0 .2-.091.38-.078.58a.838.838 0 0 1-.2.586.472.472 0 0 1-.534-.071Zm14.85-4.9a6.987 6.987 0 0 0-.672.61c-.3.224.243.355.312.547a4.673 4.673 0 0 1 .094.906 2.287 2.287 0 0 1 .109.859c-.026.311-.432.246-.609.422-.246.1-.344.345-.531.515a2.076 2.076 0 0 0-.172.813c.018.224-.151.475 0 .672l.062.094c.051.073.171.015.25.031a2.147 2.147 0 0 0 .75-.078 14.493 14.493 0 0 1 1.828-.141c.375.012.735-.118 1.109-.109.293.065.425-.253.422-.484-.166-.327-.023-.714-.156-1.047a5.913 5.913 0 0 1-.125-1.062.3.3 0 0 0-.531-.172c-.171.172-.446.207-.578.422-.148.3.314.3.391.531a2.61 2.61 0 0 1 .078.734c.057.3-.265.313-.469.344-.268.1-.645.168-.8-.156a2.758 2.758 0 0 1-.109-.75c-.007-.446-.114-.884-.141-1.328-.026-.548-.12-1.093-.156-1.641-.005-.228-.035-.6-.359-.531Zm-.312 4.125.156.016.016.188.016.187-.2.063a1.655 1.655 0 0 1-.2.047q-.048-.029-.094-.063c-.11-.079-.082-.192.062-.344a.247.247 0 0 1 .25-.094Zm-14.982-4.64c-.19.067-.431.346-.625.344-.44.031-.379.46-.063.609a2.2 2.2 0 0 1 .016.438c.061.395-.188.712-.141 1.109-.022.435-.153.859-.172 1.3-.124.452-.125.916-.2 1.375-.052.412-.35.266-.609.156 0-.178-.014-.353-.016-.531.108-.409-.221-.528-.547-.578a.417.417 0 0 1-.438-.563c.147-.176.518-.127.75-.156.491.1.471-.556.219-.781-.172-.318-.6-.455-.719-.781a1.187 1.187 0 0 0-.594-1.078 1.289 1.289 0 0 0-1.156.891 7.633 7.633 0 0 0-.672.219c-.355.089-.86.7-.375.937.272.075 1.1.264.734.641a.782.782 0 0 1-.953.266c-.362 0-.765-.176-.75-.594a4.308 4.308 0 0 0-.234-1.125c-.074-.42-.55-.321-.578.062a.67.67 0 0 0-.062 1.016 1.412 1.412 0 0 1-.156 1.125c-.1.438-.578.452-.922.594-.169.066-.814-.039-.578.328a2.237 2.237 0 0 0 1.219.156 1.339 1.339 0 0 0 .969-.687c.276-.28.751-.133 1.109-.141.386 0 .781.271 1.156.094.109-.282.611-.748.766-.266a.605.605 0 0 0 .75.61c.432-.025.272.305.266.562a1.071 1.071 0 0 0 .719.906.938.938 0 0 0 .406 0c.374-.118.777-.284.891-.7a9.511 9.511 0 0 0 .266-1.078 13.448 13.448 0 0 0 .219-1.7c.138-.519.1-1.068.2-1.594.066-.391.115-.782.156-1.172-.046-.209-.136-.244-.25-.2Zm-3.391 2.078c.076.009.118.1.125.266a.371.371 0 0 0 .219.359c.091.023.083.119-.016.188a.624.624 0 0 1-.344.062.8.8 0 0 1-.625-.234l-.094-.094.141-.094a3.217 3.217 0 0 0 .281-.25c.142-.145.237-.212.312-.2Zm33.015-3.938a4.182 4.182 0 0 0-.828.125c-.52-.032-.781.514-.281.781.3.767.77-.158 1.25-.094.719.14.779.916.891 1.5a7.616 7.616 0 0 0 .375 1.688c.481.535-.36.87-.719.453-.306-.332-.96-.74-1.328-.281-.452.191-.47.8-.844.969-.6.184-.681-.559-1-.875-.294-.412-.855-.448-1.313-.594-.214-.434-.1-1.173-.547-1.469-.373.152-1.057.851-.484 1.172.559.48-.244.7-.5 1.031a2.567 2.567 0 0 0-.484 1.484c-.63.348-.752-.394-.828-.859-.049-.556-.518-.393-.844-.188-.476.193-.714.645-1.047 1a9.367 9.367 0 0 0 .016 1.016c.108.406.6.215.906.187.489-.2.69.314.3.61-.266.338-1.11.161-1.031.7a4.291 4.291 0 0 0 .828 0 1.477 1.477 0 0 0 1.187-1.141c.072-.529.834-.433 1.25-.547.52-.15 1.147-.189 1.266.469.355.372 1.124.792 1.516.281a1.2 1.2 0 0 0 .562-1.125c-.081-.392.634-.407.812-.188.261.429 1.075.3 1.469.063.418-.309.509-.853 1.109-.859.891-.267 1.817-.421 2.687-.75.705-.154-.1-.6-.281-.859-.537-.265-1 .821-1.609.281-.468-.358-.436-1.038-.609-1.563a3.729 3.729 0 0 0-.578-2 1.548 1.548 0 0 0-1.266-.422Zm-3.406 4.734a.541.541 0 0 1 .25.094.657.657 0 0 1 .375.484c0 .106-.027.114-.187.188a1.026 1.026 0 0 1-.25.094c-.09 0-.312-.178-.312-.25a1.172 1.172 0 0 0-.063-.234c-.059-.16-.05-.158.031-.266.052-.069.093-.108.156-.109Zm3.266.172a.349.349 0 0 1 .375.188c.091.164.029.29-.2.39a.266.266 0 0 1-.407-.031c-.135-.089-.155-.132-.156-.234 0-.158.175-.3.391-.313Zm-4.469.047c.055-.008.1.02.172.078a.392.392 0 0 1 .141.3 1.121 1.121 0 0 1 0 .312c-.024.113-.027.108-.281.109-.32 0-.35-.032-.344-.328 0-.188.006-.239.109-.344a.388.388 0 0 1 .2-.125Zm-2.75.719a.285.285 0 0 1 .219.219c.033.159 0 .231-.125.3a.672.672 0 0 1-.438.031.306.306 0 0 1-.094-.094c-.034-.061-.028-.09.016-.125s.063-.06.062-.078a.421.421 0 0 1 .078-.141.271.271 0 0 1 .281-.109Zm4.625.594a.325.325 0 0 1 .219.078.171.171 0 0 1-.016.281 1.073 1.073 0 0 1-.562 0 .1.1 0 0 1-.078-.109c0-.07.019-.114.141-.172a.733.733 0 0 1 .3-.078Zm-8.585 2.409c-.048-.031-.119-.059-.047-.111a.7.7 0 0 1 .412-.26 1.717 1.717 0 0 0 .687-.559c.025-.167.212-.257.211-.431a2.863 2.863 0 0 0-.042-.713.88.88 0 0 0-.413-.487c-.128-.1-.337-.129-.384-.307-.026-.171.127-.3.18-.455.112-.211.206-.432.326-.638.129-.144.329-.008.4.131a1.611 1.611 0 0 1 .225.449 1.379 1.379 0 0 1 .339.581 1.061 1.061 0 0 1 .185.483c0 .208.117.394.11.6a2.168 2.168 0 0 1-.1.837c-.07.147-.21.235-.3.366a1.737 1.737 0 0 1-.54.368c-.145.046-.228.213-.41.172a4.34 4.34 0 0 1-.774 0c.016.027-.078-.046-.062-.029Zm-3.425.225c-.121-.125-.148-.178-.149-.3s.022-.173.141-.293c.219-.221.326-.227.7-.035.362.183.484.2.516.07s.239-.239.437-.24a.41.41 0 0 1 .3.1c.126.1.132.113.135.34s0 .24-.145.368a.315.315 0 0 1-.333.112.381.381 0 0 1-.385-.294c-.026-.125-.07-.155-.1-.07a.19.19 0 0 1-.119.075 1.127 1.127 0 0 0-.4.25.381.381 0 0 1-.259.066.34.34 0 0 1-.339-.15Zm-9.91-4.45a.783.783 0 0 0-.734.609c.076.376.388.745.188 1.141.139.507-.381.7-.734.406a7.221 7.221 0 0 0-.641-1.453c-.4-.114-.577.528-.859.75.14.378.548.716.594 1.187a1.2 1.2 0 0 1-.578 1.2c-.343.327-.813.21-1.234.281-.512.3.376.409.609.422a1.72 1.72 0 0 0 1.453-.406c.385-.184.355-.849.813-.922.794-.035 1.581.122 2.375.141.425.1 1.082-.051 1.375.266a1.336 1.336 0 0 0 .922 1.109c.249.069.512-.24.766-.3.483-.154.336-.751.625-.984.825-.045 1.658-.035 2.484-.047.157 0 .2-.22.313-.312-.018-.319-.03-.636-.078-.953-.159-.4.026-.922-.266-1.266-.415-.113-.768.267-1.187.3a1.393 1.393 0 0 0-.875 1.156c-.274.448-.714-.08-.563-.453a2.459 2.459 0 0 0-.016-.5c-.253-.3-.7-.2-1.047-.25-.509.02-1.006-.09-1.516-.078a7.227 7.227 0 0 1-1.344-.078c-.516-.015-.445-.519-.531-.875a.508.508 0 0 0-.312-.094Zm1 1.844a4.744 4.744 0 0 1 .5.047c.215.036.445-.074.656 0 .488.083.977.064 1.469.109a.483.483 0 0 1 .312.172v1.031c-.015.129.038.3-.078.391a.349.349 0 0 1-.125.062.546.546 0 0 1-.344-.25 3.461 3.461 0 0 1 .016-.531c0-.046.02-.119 0-.156a.624.624 0 0 0-.359-.125c-.425-.015-.841-.046-1.266-.062a5.344 5.344 0 0 1-1.062-.062c-.134-.049-.309-.032-.391-.172-.117-.136.052-.3.172-.359a1.141 1.141 0 0 1 .5-.094Zm5.64.125c.079 0 .1.025.141.172.023.094.05.209.062.25.018.059-.011.078-.094.109-.247.093-.493.084-.578-.031-.039-.052.006-.217.078-.281a.785.785 0 0 1 .391-.219Z" data-name="Path 1288"/></g></g><g data-name="Group 177" transform="translate(246.076 102.802)"><path fill="#fff" stroke="#c09300" stroke-width="1.218" d="M16.075 23.743c.333.02-.451-1.784-.451-1.784.882.9 4.215 1.117 4.215 1.117-2-.883-4-7.548-3.764-12.86.216-5.332-.764-7.43-1.548-8.214-1-1-4.215-1.882-6.332-2-1.2-.059-1 .9-1 .9C4.98.334 2.765.118 1.765.785.824 1.413.628 4.549 1.314 4 2.98 2.667 4.431 3.883 5.43 5.333c.882 1.274.823 4.881-.451 9.1A30.594 30.594 0 0 1 0 23.294c1.98 0 4.764-1.764 4.764-1.764l-.667 2.764a17.039 17.039 0 0 0 3.764-2.548l2 2.1a20.406 20.406 0 0 1 2-2.1 7.235 7.235 0 0 0 4.214 1.997Z" data-name="Path 1289"/><path fill="none" stroke="#c09300" stroke-width="1.27" d="M7.982 10.983S6.865 19.197 4.767 21.53m4.98-10.762s-.431 8.311-1.882 10.978m3.447-10.643s0 9.1.549 10.644m1.431-10.194s.451 7.645 2.333 10.409" data-name="Path 1290"/><path fill="#c09300" stroke="#c09300" stroke-width=".354" d="M5.96 7.003a3.965 3.965 0 0 0-.53-1.666c-1-1.451-2.45-2.666-4.116-1.333 0 0 .568-1.764 1.784-1.823.941-.059 3.077.705 4.96 3.92 0 0-1.392-.313-1.725-.02-.628.549-.373.921-.373.921Z" data-name="Path 1291"/><path fill="#c09300" stroke="#c09300" stroke-width=".354" d="M1.141 1.828A1.922 1.922 0 0 1 1.769.789c1-.666 3.215-.451 5.43.118 0 0-.2-.96 1-.9 2.117.117 5.332 1 6.331 2a3.949 3.949 0 0 1 .745 1.2h-.039c-.49-.686-1.882-.646-2.215-.607a8.988 8.988 0 0 0-1.568.215 3.173 3.173 0 0 0-1.117.392c-.215.176-.392.823-.725.823-.53 0-.49-.137-.628-.294-.176-.215-.275-.529-.451-.51-.548.1-1.431-.333-2.548-1.215a3.412 3.412 0 0 0-3-1 2.308 2.308 0 0 0-1.882.921Z" data-name="Path 1292"/><circle cx=".588" cy=".588" r=".588" fill="#fff" data-name="Ellipse 137" transform="translate(8.744 1.947)"/></g><path fill="#fff" stroke="#c09300" stroke-width="1.15" d="M255.986 163.615a38.035 38.035 0 0 0 14.921-30.941 6.358 6.358 0 0 1-1.27.129c-3.424 0-11.589-1.959-13.494-4.446-2.041 2.252-10.385 4.446-13.787 4.446a6.2 6.2 0 0 1-1.27-.129 37.979 37.979 0 0 0 14.9 30.941Z" data-name="Path 1293"/><path fill="none" stroke="#c09300" stroke-width=".916" d="M269.606 134.02q-.211.013-.424.013c-3.1 0-10.309-1.592-13.087-3.979-2.91 2.2-10.235 3.979-13.288 3.979a2.35 2.35 0 0 1-.425-.043c-.007.7.029 1.416.072 2.072a36.553 36.553 0 0 0 1.244 7.276 35.528 35.528 0 0 0 12.286 18.577 35.584 35.584 0 0 0 12.3-18.593 36.586 36.586 0 0 0 1.248-7.275c.038-.686.076-1.526.074-2.027Z" data-name="Path 1294"/><g fill-rule="evenodd" clip-path="url(#b)" data-name="Group 178" transform="translate(242.529 130.198)"><path fill="#c09300" d="M-.226-.315h9.129v32.154H-.226Z" data-name="Path 1295"/><path fill="#fff" d="M8.904-.315h9.129v32.154H8.904Z" data-name="Path 1296"/><path fill="#c09300" d="M18.033-.315h9.129v32.154h-9.129Z" data-name="Path 1297"/></g></g></g></svg>