<svg xmlns="http://www.w3.org/2000/svg" width="512" height="300"><defs><clipPath id="a"><path d="M0 0h512v300H0z"/></clipPath></defs><g clip-path="url(#a)"><path fill="#e0193a" d="M0 0h512v300H0Z" data-name="Path 1501"/><path fill="#fcd93a" d="M0 0h512v200H0Z" data-name="Path 1502"/><path fill="#358142" d="M0 0h512v100H0Z" data-name="Path 1503"/><g data-name="Group 231" transform="translate(156 50)"><circle cx="100" cy="100" r="100" fill="#2f4ba1" data-name="Ellipse 143"/><path fill="#fcdd09" d="m100 20-3.5 10.787 14.452 44.491H91.677l-2.166 6.667h61.8l9.178-6.667h-42.528Z" data-name="Path 1504"/><path stroke="#fcdd09" stroke-width="6.6677333700000005" d="m121.552 70.336 25.48-35.057" data-name="Path 1505"/><g data-name="Group 227"><path fill="#fcdd09" d="m176.085 75.279-11.34.004-37.85 27.493-5.955-18.33h-7.01l19.097 58.775 9.176 6.666-13.14-40.444Z" data-name="Path 1506"/><path stroke="#fcdd09" stroke-width="6.6677333700000005" d="m134.873 111.33 41.215 13.4" data-name="Path 1507"/></g><g data-name="Group 228"><path fill="#fcdd09" d="m147.023 164.724-3.51-10.785-37.853-27.497 15.593-11.333-2.168-6.667-49.996 36.338-3.504 10.79 34.404-25.006Z" data-name="Path 1508"/><path stroke="#fcdd09" stroke-width="6.66846674" d="M99.99 136.674v43.344" data-name="Path 1509"/></g><g fill="#fcd93a" data-name="Group 229"><path d="m52.977 164.72 9.175-6.67 14.47-44.49 15.593 11.333 5.672-4.12-49.996-36.339-11.344-.002 34.404 25.006Z" data-name="Path 1510"/><path stroke="#fcdd09" stroke-width="6.66846674" d="m65.14 111.325-41.228 13.379" data-name="Path 1511"/></g><g data-name="Group 230"><path fill="#fcdd09" d="m23.915 75.278 9.178 6.662 46.78.005-5.956 18.331 5.671 4.12 19.097-58.775-3.505-10.787L82.04 75.279Z" data-name="Path 1512"/><path stroke="#fcdd09" stroke-width="6.6677333700000005" d="M78.448 70.336 52.98 35.269" data-name="Path 1513"/></g></g></g></svg>