<svg xmlns="http://www.w3.org/2000/svg" xmlns:xlink="http://www.w3.org/1999/xlink" width="512" height="300" viewBox="0 0 512 300"><defs><clipPath id="b"><rect width="512" height="300"/></clipPath></defs><g id="a" clip-path="url(#b)"><path d="M0,0H512V300H0Z" fill="#e0193a"/><path d="M0,0H512V200H0Z" fill="#fcd93a"/><path d="M0,0H512V100H0Z" fill="#358142"/><g transform="translate(156 50)"><circle cx="100" cy="100" r="100" transform="translate(0 0)" fill="#2f4ba1"/><g transform="translate(89.511 20)"><path d="M-10.489-160l-3.5,10.787L.463-104.722H-18.812l-2.166,6.667h61.8L50-104.722H7.472Z" transform="translate(20.978 160)" fill="#fcdd09"/><path d="M0,0V43.334" transform="matrix(-0.809, -0.588, 0.588, -0.809, 32.041, 50.336)" stroke="#fcdd09" stroke-width="6.667"/></g><g transform="translate(172.844 65.303) rotate(72)"><path d="M10.489,0l-3.5,10.787L21.44,55.279H2.166L0,61.946H61.8l9.176-6.667H28.45Z" fill="#fcdd09"/><path d="M0,0V43.334" transform="matrix(-0.809, -0.588, 0.588, -0.809, 32.041, 50.336)" stroke="#fcdd09" stroke-width="6.667"/></g><g transform="matrix(-0.809, 0.588, -0.588, -0.809, 155.509, 158.556)"><path d="M10.489,0l-3.5,10.787L21.44,55.279H2.166L0,61.946H61.8l9.176-6.667H28.45Z" transform="translate(0 0)" fill="#fcdd09"/><path d="M0,0V43.334" transform="matrix(-0.809, -0.588, 0.588, -0.809, 32.041, 50.336)" stroke="#fcdd09" stroke-width="6.667"/></g><g transform="matrix(-0.809, -0.588, 0.588, -0.809, 61.463, 170.887)"><path d="M10.489,0l-3.5,10.787L21.44,55.279H2.166L0,61.946H61.8l9.176-6.667H28.45Z" transform="translate(0 0)" fill="#fcd93a"/><path d="M0,0V43.334" transform="matrix(-0.809, -0.588, 0.588, -0.809, 32.041, 50.336)" fill="#fcd93a" stroke="#fcdd09" stroke-width="6.667"/></g><g transform="translate(20.674 85.254) rotate(-72)"><path d="M10.489,0l-3.5,10.787L21.44,55.279H2.166L0,61.946H61.8l9.176-6.667H28.45Z" fill="#fcdd09"/><path d="M0,0V43.334" transform="matrix(-0.809, -0.588, 0.588, -0.809, 32.041, 50.336)" stroke="#fcdd09" stroke-width="6.667"/></g></g></g></svg>