<svg xmlns="http://www.w3.org/2000/svg" xmlns:xlink="http://www.w3.org/1999/xlink" width="512" height="300" viewBox="0 0 512 300"><defs><clipPath id="b"><rect width="512" height="300"/></clipPath></defs><g id="a" clip-path="url(#b)"><g transform="translate(-0.4 -0.5)"><rect width="512" height="300" transform="translate(0 0.696)" fill="#2f4ba1"/><path d="M15.708,0,12.03,11.334H0l9.743,7.059L5.965,29.825l9.743-7.059,9.743,7.059L21.673,18.392l9.743-7.059H19.386Z" transform="translate(240.292 33.703)" fill="#fcd93a"/><path d="M19.386,11.334,15.708,0,12.03,11.334H0l9.743,7.059L5.965,29.825l9.743-7.059,9.743,7.059L21.673,18.392l9.743-7.059Z" transform="translate(240.292 234.683)" fill="#fcd93a"/><path d="M15.609,22.767l9.743,7.059L21.673,18.492l9.643-7.059H19.386L15.609,0,11.93,11.433H0l9.643,7.059L5.965,29.825Z" transform="translate(140.754 134.124)" fill="#fcd93a"/><path d="M15.708,0,12.03,11.433H0l9.743,6.959L6.064,29.825l9.643-7.059,9.743,7.059L21.673,18.392l9.743-6.959H19.486Z" transform="translate(190.473 47.451)" fill="#fcd93a"/><path d="M15.708,0,12.03,11.433H0l9.743,7.059L5.965,29.825l9.743-6.959,9.643,6.959L21.673,18.492l9.743-7.059H19.386Z" transform="translate(154.059 84.051)" fill="#fcd93a"/><path d="M19.386,11.433,15.708,0,12.03,11.433H0l9.743,6.959L5.965,29.825l9.743-7.059,9.643,7.059L21.673,18.392l9.743-6.959Z" transform="translate(154.059 184.198)" fill="#fcd93a"/><path d="M19.486,11.433,15.708,0,12.03,11.433H0l9.743,7.059L6.064,29.825l9.643-6.959,9.743,6.959L21.673,18.492l9.743-7.059Z" transform="translate(190.473 220.797)" fill="#fcd93a"/><path d="M31.317,11.433H19.386L15.708,0,11.93,11.433H0l9.643,7.059L5.965,29.825l9.743-7.059,9.643,7.059L21.673,18.492Z" transform="translate(339.93 134.124)" fill="#fcd93a"/><path d="M15.708,0,11.93,11.433H0l9.743,6.959L5.965,29.825l9.743-7.059,9.643,7.059L21.673,18.392l9.743-6.959H19.386Z" transform="translate(290.111 47.451)" fill="#fcd93a"/><path d="M9.743,18.492,6.064,29.825l9.643-6.959,9.743,6.959L21.772,18.492l9.643-7.059H19.386L15.708,0,12.03,11.433H0Z" transform="translate(326.525 84.051)" fill="#fcd93a"/><path d="M19.386,11.433,15.708,0,12.03,11.433H0l9.743,6.959L6.064,29.825l9.643-7.059,9.743,7.059L21.772,18.392l9.643-6.959Z" transform="translate(326.525 184.198)" fill="#fcd93a"/><path d="M19.386,11.433,15.708,0,11.93,11.433H0l9.743,7.059L5.965,29.825l9.743-6.959,9.643,6.959L21.673,18.492l9.743-7.059Z" transform="translate(290.111 215.77)" fill="#fcd93a"/></g></g></svg>