<svg xmlns="http://www.w3.org/2000/svg" width="512" height="300"><defs><clipPath id="a"><path d="M0 0h512v300H0z"/></clipPath></defs><g clip-path="url(#a)"><path fill="#2f4ba1" d="M-.4.196h512v300H-.4z"/><path fill="#fcd93a" d="m255.6 33.203-3.678 11.334h-12.03l9.743 7.059-3.778 11.432 9.743-7.059 9.743 7.059-3.778-11.433 9.743-7.059h-12.03ZM259.278 245.517l-3.678-11.334-3.678 11.334h-12.03l9.743 7.059-3.778 11.432 9.743-7.059 9.743 7.059-3.778-11.433 9.743-7.059ZM155.963 156.391l9.743 7.059-3.679-11.334 9.643-7.059h-11.93l-3.777-11.433-3.679 11.433h-11.93l9.643 7.059-3.678 11.333ZM205.781 46.951l-3.678 11.433h-12.03l9.743 6.959-3.679 11.433 9.643-7.059 9.743 7.059-3.777-11.433 9.743-6.959h-11.93ZM169.367 83.551l-3.678 11.433h-12.03l9.743 7.059-3.778 11.333 9.743-6.959 9.643 6.959-3.678-11.333 9.743-7.059h-12.03ZM173.045 195.131l-3.678-11.433-3.678 11.433h-12.03l9.743 6.959-3.778 11.433 9.743-7.059 9.643 7.059-3.678-11.433 9.743-6.959ZM209.559 231.73l-3.778-11.433-3.678 11.433h-12.03l9.743 7.059-3.679 11.333 9.643-6.959 9.743 6.959-3.777-11.333 9.743-7.059ZM370.847 145.057h-11.931l-3.678-11.433-3.778 11.433h-11.93l9.643 7.059-3.678 11.333 9.743-7.059 9.643 7.059-3.678-11.333ZM305.419 46.951l-3.778 11.433h-11.93l9.743 6.959-3.778 11.433 9.743-7.059 9.643 7.059-3.678-11.433 9.743-6.959h-12.03ZM335.868 102.043l-3.679 11.333 9.643-6.959 9.743 6.959-3.678-11.333 9.643-7.059h-12.029l-3.678-11.433-3.678 11.433h-12.03ZM345.511 195.131l-3.678-11.433-3.678 11.433h-12.03l9.743 6.959-3.679 11.433 9.643-7.059 9.743 7.059-3.678-11.433 9.643-6.959ZM309.097 226.703l-3.678-11.433-3.778 11.433h-11.93l9.743 7.059-3.778 11.333 9.743-6.959 9.643 6.959-3.678-11.333 9.743-7.059Z"/></g></svg>