<svg xmlns="http://www.w3.org/2000/svg" xmlns:xlink="http://www.w3.org/1999/xlink" width="512" height="300" viewBox="0 0 512 300"><defs><clipPath id="b"><rect width="512" height="300"/></clipPath></defs><g id="a" clip-path="url(#b)"><path d="M0,150V0H512V300H0Z" fill="#4094e3"/><g transform="translate(332.288 83.405)"><path d="M778.8,143.94v87.505c0,28.621,51.712,45.615,51.712,45.615s51.712-17,51.712-45.615V143.94Z" transform="translate(-778.8 -143.94)" fill="#fff"/><path d="M823.344,216v39.4H778.8v14.336h44.544v45.909l7.168,2.729,7.168-2.729V269.736h44.544V255.4H837.68V216Z" transform="translate(-778.8 -185.254)" fill="#e0193a"/><path d="M778.8,143.94H882.224v33.792H778.8Z" transform="translate(-778.8 -143.94)" fill="#e0193a"/><g transform="translate(2.478 1.414)"><g transform="translate(0 14.143)"><ellipse cx="5.812" cy="4.677" rx="5.812" ry="4.677" transform="translate(0 0.362)" fill="#fff" stroke="#000" stroke-miterlimit="3" stroke-width="0.803"/><ellipse cx="5.169" cy="2.612" rx="5.169" ry="2.612" transform="translate(0.644)" fill="#fff" stroke="#000" stroke-miterlimit="3" stroke-width="0.805"/><ellipse cx="5.169" cy="2.612" rx="5.169" ry="2.612" transform="translate(0.644 5.224)" fill="#fff" stroke="#000" stroke-miterlimit="3" stroke-width="0.805"/><ellipse cx="5.169" cy="2.612" rx="5.169" ry="2.612" transform="translate(0.644 2.427)" fill="#fff" stroke="#000" stroke-miterlimit="3" stroke-width="0.805"/></g><path d="M885.813,172.929l-.847-2.336s-2.318-.946-2.495-2.177c-.413-3.283-1.585-4.513-3.341-4.983a3.827,3.827,0,0,0-2.93.294c-.529.762-3.168.762-4.633.82s-1.49-.636-1.49-.636a1.865,1.865,0,0,1-1.617-.828,4.922,4.922,0,0,0-1.668-2.233c1.9.028,3.334-.849,5.48-3.1,2.344-2.463,4.017-1.51,4.017-1.51-1.138,2.3.378,2.1.378,2.1,3.106-1.581.41-5.568-.528-5.392a1.006,1.006,0,0,1-1.205-.456c.029.716-1.041,1-1.041,1,.8-4.554-1.915-5.762-1.915-5.762a3.425,3.425,0,0,0-.647,1.23c-.761,2.756-3.281,2.345-6.1,1s-10.316,1.408-12.66,2.345-6.625,2.4-10.494.234-4.808-1.76-6.331-1.349-4.219,1.056-5.215.527a5.5,5.5,0,0,0-2.135-.56c.271-.152-.153-.788-.153-.788a1.718,1.718,0,0,1,.153-2.552s-2.182.614-1.314,4.339l.4.559s.292,1.171.939,1.524l-.023.257s.552-.257.726.5,1,.059,1.35-.585c0,0-.587,3.4,3.635,4.22,0,0-.472-.528-.3-.88s-.526-.647-.467-1.173-1.054-.761-.177-1.173,1.291-1.231,3.166-.117a5.436,5.436,0,0,0,3.342.881s-1.144-2.348-.514-2.346,3.466,3.511,4.861,3.338,4.093-1.755,5.442-1.169c0,0,.116-.7,5.274-1.583s11.523-3.45,13.909-1.2c0,0,.279,1.784,1.274,2.254,0,0-.178,3.693-6.564,1.639l-2.317-.609s-.356-1.122-12.5,2a5.185,5.185,0,0,0-1.184.6c-.47.35-1.116-.177-3.519.7s-11.372,3.812-16.881,2.756l-.007.015c-1.213-.362-2.35-.175-2.4-.367-.059-.234.646.059.646.059-.41-.47-.586-.508-.586-.508-4.631-.508-3.813-2.6-3.813-2.6l.236.645c.762-1-.3-3.341-.3-3.341l-.044.008c-.012-.072-.025-.144-.043-.214l.383-.264a10.488,10.488,0,0,1,4.808-2.228c-1.525-1.875-4.75-.878-4.75-.878a16.2,16.2,0,0,0-.878-4.925,7.617,7.617,0,0,0-4.983,2.989c-.117-2.344-3.108-3.692-3.108-3.692,1.113,1.348.411,4.571.411,4.571l.117.059c-.185,0-.294,0-.294,0l-.067.691-.11-.046s-1.113.41-2.4,3.341a3.348,3.348,0,0,1-.629,1.317c0-.081,0-.154-.006-.239,0,0-1.44,1.887-4.768,0,0,0-4.522-2.683-6.111-2.584s-2.634.844-2.533,1.291c0,0-3.629-.3-4.87,1.787,0,0-2.732.994-.4,3.23a3.48,3.48,0,0,0,.992,1.492s-.1-2.041.4-1.441a1.175,1.175,0,0,0,.373.342,2.939,2.939,0,0,0,.77,1.486l.35-.111a6.64,6.64,0,0,1,.276-1.422l.115.015c-.015.015-.03.024-.045.037l.646.994.745-.4a1.346,1.346,0,0,1,.8.3l.845-.7c-.005-.008-.01-.009-.015-.017.832.139,1.059-1.474,1.059-1.474a2.606,2.606,0,0,0,2.041-.384c.362,1.337,3.324,2.771,3.324,2.771l.127-.011a4.876,4.876,0,0,0-.4.281c1.348.94,3.869.7,3.869.7-1.054.411-.907,2.362-.907,2.362a1.109,1.109,0,0,0-.676.861,4.521,4.521,0,0,0,3.454.141c.113.668-.053.739-.053.739a17.689,17.689,0,0,0-1.172,3.458c.018.008.039.012.056.018a1.465,1.465,0,0,0-.076.138s-3.577,1.242-5.167,2.981c0,0-.15-.5-.6-.5S799.76,172.2,799.114,172s-1.589.2-1.838-.1c-.225-.271-.124-2.307-.554-2.635l.008,0-.448-1.242c-.3.645-1.54.5-1.54.5-.049.03-.24.169-.51.371a1.847,1.847,0,0,1-.533-.072c-.127.026-.253.384-.346.732l-.151.114v-.349c-.247.2-.745-.1-.944-.1-.1,0-.218.285-.315.577a9.817,9.817,0,0,1-1.175.119c-.2.1-.051,1.639-.051,1.639a1.411,1.411,0,0,0-.745,1.987c.8,3.875,7.4,2.136,7.9,2.634a3.619,3.619,0,0,0,2.236.595c.595,0,1.339,1.441,2.185,1.59s0-1.142,3.918-2.078,5.222-2.542,5.222-2.542c1.227-.237,1.568-1.727,1.66-2.33.012.277.045.585.089.934a1.748,1.748,0,0,1-.755,1.84l3.394-1.019a1.4,1.4,0,0,0,1.172-1.525c1.289,3.694,3.635,3.928,3.635,3.928a5.158,5.158,0,0,0,.411-1.818l1.055-.057a2.05,2.05,0,0,0-1.065-1.647l1.651,1,.644-.117c0,.586.88,1.113.88,1.113l.119-.76a2.221,2.221,0,0,0,2.169.644,4.7,4.7,0,0,0-.124-.547c3,1.854,7.8-.507,7.8-.507,1.289.293,1.465-.47,1.465-.47,1.465.175,1.805-.826,1.805-.826a10.407,10.407,0,0,0,5.876-2.75c1.7-.117,1.754-1.332,1.754-1.332s1.7.336,3.345-1.716c3.809-5.451,9.506-2.613,9.506-2.613l-3.294.208c-8.616-.058-5.044,5.8-5.044,5.8l.531-.056c.821.176,3.633,2.4,2.6,4.063a.952.952,0,0,1-.058.082c-1.757,2.4-5.01.111-5.937-1.918a2.492,2.492,0,0,0-2.816-1.582s-4.864.821-2.872,4.689l.073,0c.037.944.629,2.02,2.364,3.089.975,1.379,4.179,1.523,6.532,1.013,1.1-.239,6.874-2.724,6.874-2.724.424-1.258,1.86-.969,3.149-2.786s-1.818-2.463-2.521-3.458.177-.821.177-.821c2.812,1.524,3.047-3.342,3.047-3.342A4.22,4.22,0,0,0,863.478,169c1.525-1.522.413-4.63.413-4.63,3.635,6.507,5.836,5.471,5.836,5.471a2.029,2.029,0,0,1-.972-2.833c1.757,6.917,8.969.88,8.969.88a1.9,1.9,0,0,0,.646,2.226c.644.645,1.406.938,1.056,2.111s-3.692.939-3.692.939-3.284-.175-2.99,2.58c.172.644,2.342.878,3.163.7,0,0-.338.074.875.236a9.1,9.1,0,0,0,1.4.045,26.449,26.449,0,0,0,2.889-.281c1.873-.409,1.582-1.056,1.582-1.056,2.87-.529,3.165-2.464,3.165-2.464Z" transform="translate(-787.427 -147.254)" fill="#fcd93a" stroke="#000" stroke-miterlimit="3" stroke-width="1.2"/><g transform="translate(2.333 10.519)"><path d="M791.816,175.444s.154-.362.443-.4c.223-.033.494.132.78.48l.157-.118c-.007-.012-.774-1.129-.468-1.918a1.277,1.277,0,0,1,1.006-.712l-.043-.193a1.467,1.467,0,0,0-1.146.835,1.336,1.336,0,0,0-.086.485,2.661,2.661,0,0,0,.275,1.076.736.736,0,0,0-.5-.13.71.71,0,0,0-.516.395Z" transform="translate(-791.015 -172.292)"/><path d="M996.72,212.634c-1.958.311-4.833.483-5.062-.11-.04-.105-.047-.528,1.556-1.572l-.187-.287c-1.338.871-1.876,1.5-1.69,1.982.411,1.066,4.608.457,5.446.324Z" transform="translate(-905.445 -194.129)"/><path d="M915.424,213.921c-.446-.683-.246-1.618.6-2.783l-.278-.2c-.936,1.288-1.14,2.357-.607,3.172Z" transform="translate(-861.611 -194.285)"/><path d="M910,206.74c.043,1.181.877,2.278,2.474,3.256l.18-.293c-1.5-.914-2.271-1.916-2.312-2.975-.059-1.627,1.66-2.881,1.676-2.894l-.2-.279c-.077.055-1.885,1.372-1.819,3.185Z" transform="translate(-858.83 -190.052)"/><path d="M987.773,210.8a2.607,2.607,0,0,0-.35,1.794l.336-.066a2.272,2.272,0,0,1,.3-1.538,1.957,1.957,0,0,1,1.321-.782l-.062-.337A2.292,2.292,0,0,0,987.773,210.8Z" transform="translate(-903.201 -193.676)"/><path d="M804.972,174.075l-.106-.027-.014.109c0,.011-.153,1.051-.625,1.334a.484.484,0,0,1-.439.028l-.8-.487a.51.51,0,0,0-.528-.177,1.156,1.156,0,0,1-.23-.709,1.013,1.013,0,0,1,.01-.14,2.055,2.055,0,0,1,.977-1.345l-.113-.16a2.236,2.236,0,0,0-1.06,1.485,1.429,1.429,0,0,0,.3,1.044l.048.055.065-.03c.178-.079.23-.032.4.121l.865.526a.676.676,0,0,0,.607-.044,2.17,2.17,0,0,0,.7-1.38c2.081.447,3.756-2.082,3.828-2.191l-.166-.108C808.675,172.007,806.966,174.6,804.972,174.075Z" transform="translate(-796.931 -171.95)"/><path d="M797.168,173.646a1.571,1.571,0,0,0,.208,1.23c.23.374.456.573.692.6a.943.943,0,0,0,.72-.36c.147-.138.288-.267.4-.258l.179.123.154-.122-.319-.2c-.2-.015-.37.142-.55.31s-.364.338-.561.311c-.171-.024-.355-.2-.55-.515a1.385,1.385,0,0,1-.186-1.08,3.243,3.243,0,0,1,1.346-1.617l-.1-.167A3.371,3.371,0,0,0,797.168,173.646Z" transform="translate(-794.115 -171.908)"/><path d="M790.265,205.6a1.561,1.561,0,0,1,.819-.911c-.088.008.435.433.883.386l.291-.157a2.54,2.54,0,0,1,.894,1.7,1.441,1.441,0,0,1-.119.578l.182.076c.567-1.344-.86-2.536-.873-2.549l-.052-.041-.088.057-.254.138a1.508,1.508,0,0,1-.848-.353,1.611,1.611,0,0,0-1.024,1.023Z" transform="translate(-790.075 -190.608)"/><path d="M803.181,199a3.019,3.019,0,0,0-2.012.884.792.792,0,0,0-.059.739l.157.417c.372,1,.758,2.033,1.179,2.267l.1-.171a5.644,5.644,0,0,1-1.091-2.164l-.156-.417a.6.6,0,0,1,.04-.567,2.878,2.878,0,0,1,1.863-.792c.273-.022.363.987.417,1.59l.2-.018C803.731,199.878,803.648,198.959,803.181,199Z" transform="translate(-796.365 -187.439)"/><path d="M798.107,201.058a.673.673,0,0,0-.2.577c0,.093.114,2.589,1.3,3.1l.078-.18c-1.073-.467-1.181-2.92-1.182-2.945a.5.5,0,0,1,.135-.412c.18-.16.537-.172,1.033-.036l.052-.188A1.307,1.307,0,0,0,798.107,201.058Z" transform="translate(-794.563 -188.517)"/><path d="M795.5,201.613c-.524.365-.5,1.407-.5,1.45l.2,0c0-.011-.019-.983.418-1.286a.657.657,0,0,1,.641-.012l.073-.181a.829.829,0,0,0-.825.032Z" transform="translate(-792.9 -188.868)"/></g><g transform="translate(15.157 4.614)"><path d="M838.136,169.3a6.706,6.706,0,0,1,.559,2.264,1.714,1.714,0,0,1-.124.461c-.022-.058-.214-.583-.214-.583l-.166.421a1.467,1.467,0,0,0,.163,1.23c.512.844,1.786,1.384,3.79,1.6h0s.025.024.028.028a.365.365,0,0,0-.164.052l-.08.068.011.171c.052.208.289.218.761.236.08,0,.209.024.3.028l.238.066-.04-.046a5.467,5.467,0,0,1,1.528.352c-.123.032-.424.108-.424.108l.5.2a28.317,28.317,0,0,1,5.2,2.689,5.941,5.941,0,0,1-5.434.959l-.531-.131.36.412a15.32,15.32,0,0,1,2.518,3.833c-.72.007-3.492-.018-4.461-.841l-.251.228a11.926,11.926,0,0,1,1.623,3.458,1.942,1.942,0,0,1-1.814-.611l-.246-.321-.134.869c-.258-.195-.583-.485-.583-.8v-.2l-.782.142-1.607-.974c-.138-.09-.228-.141-.258-.156l-.015-.01-.012-.007-.166.3s.191.114.246.148a2.05,2.05,0,0,1,.992,1.36l-1.045.058.02.182v.029a6,6,0,0,1-.362,1.57c-.494-.118-2.291-.744-3.353-3.786l-.331.082a.821.821,0,0,1,.006.113,1.235,1.235,0,0,1-1.052,1.22l-2.753.826a1.92,1.92,0,0,0,.352-1.145,3.089,3.089,0,0,0-.022-.357,8.7,8.7,0,0,1-.1-1.117,1.315,1.315,0,0,1,.6-1.293l-.154-.306c-.042.016-4.1,1.63-6.118.96a17.4,17.4,0,0,1,1.121-3.249l-.089.084c.132-.056.267-.263.156-.924l-.037-.225-.206.1a4.442,4.442,0,0,1-3.165-.1.822.822,0,0,1,.527-.589l.114-.046-.011-.124s0-.091,0-.227c0-.5.079-1.681.8-1.964l-.077-.331a7.487,7.487,0,0,1-3.523-.558,4.754,4.754,0,0,1,1.922-.8l.136-.019.01-.136a.833.833,0,0,0,0-.111,2.533,2.533,0,0,0-.218-.871c.5.14,1.105.267,1.319.106l.073-.055-.062-1.322-.343.016s.042.877.052,1.093a4.976,4.976,0,0,1-1.295-.267l-.526-.167.339.437a1.7,1.7,0,0,1,.314.995,5.408,5.408,0,0,0-2.163.994l-.175.144.185.13a6.284,6.284,0,0,0,3.448.757,3.09,3.09,0,0,0-.567,1.916c0,.094,0,.119,0,.165a1.333,1.333,0,0,0-.673.931l-.013.129.12.049a4.652,4.652,0,0,0,3.369.212c0,.055.015.129.015.168a.464.464,0,0,1-.03.21,17.785,17.785,0,0,0-1.231,3.552l-.028.142.134.053c1.633.653,4.567-.239,5.867-.7a2,2,0,0,0-.27,1.036,9.049,9.049,0,0,0,.1,1.165,2.271,2.271,0,0,1,.021.309,1.51,1.51,0,0,1-.689,1.357l.13.316,3.394-1.019a1.555,1.555,0,0,0,1.2-1.062c1.339,3.176,3.442,3.462,3.535,3.473l.137.012.043-.129a7.154,7.154,0,0,0,.417-1.711c.227-.01,1.051-.056,1.051-.056l.009-.154c0-.027,0-.052,0-.077a1.56,1.56,0,0,0-.209-.753l.587.356.562-.1a2.211,2.211,0,0,0,.908,1.066l.218.131s.08-.517.114-.742a2.6,2.6,0,0,0,2.084.513l.15-.038-.022-.153a9.832,9.832,0,0,0-1.393-3.241,12.58,12.58,0,0,0,4.336.624l.2-.007-.04-.2c-.241-1.205-1.746-3.1-2.377-3.857a6.182,6.182,0,0,0,5.46-1.24l.123-.131-.135-.119a23.138,23.138,0,0,0-4.977-2.67l.381-.1-.377-.211a5.506,5.506,0,0,0-2.529-.6l0-.005c-.414-.474-.625-.55-.678-.562-2.366-.261-3.234-.924-3.549-1.436-.027-.042-.013-.071-.033-.112.051-.068.1-.136.1-.136a1.813,1.813,0,0,0,.31-1.117,6.925,6.925,0,0,0-.583-2.4l-.315.142Z" transform="translate(-820.13 -164.425)"/><path d="M830.386,163.3a3.037,3.037,0,0,1-1.363,1.938,3.783,3.783,0,0,1-3.259-.114l-.15-.059.016.16a2.131,2.131,0,0,0,.809,1.353,3.421,3.421,0,0,0,2.527.512,6.005,6.005,0,0,0-1.512,3.329c0,.075,0,.151.012.225.147.105,1.954.595,2.792-.476a4.705,4.705,0,0,0,.736,2.5,1.584,1.584,0,0,1,.389,1.135,2.847,2.847,0,0,1-.062.588l-.065.262.218-.159a6.882,6.882,0,0,0,2.262-2.862,1.61,1.61,0,0,1,.779-.565,1.46,1.46,0,0,0-.019.24c0,.616.27,1.734,2.063,2.42l.147.056-.013-.157a3.043,3.043,0,0,1-.012-.31,2.587,2.587,0,0,1,.491-1.705,1.2,1.2,0,0,0,.367-.874,1.461,1.461,0,0,0-.1-.521,2.5,2.5,0,0,1,1.567,1.02c.506.948,2.277.194,2.353.162l-.061-.186a1.781,1.781,0,0,1-1.21-.153.9.9,0,0,1-.371-.645l-.082-.986a1.362,1.362,0,0,0-.3-.969.841.841,0,0,1,.9.427c.313.69,1.387.757,1.432.76l.368.019-.309-.2c-.01-.006-.937-.622-.777-1.423l.134-.587a8.723,8.723,0,0,0,.332-3.917l-.187.06a3.19,3.19,0,0,1,.12.937,13.262,13.262,0,0,1-.457,2.875l-.135.595a1.11,1.11,0,0,0-.022.23,1.616,1.616,0,0,0,.6,1.154,1.249,1.249,0,0,1-.918-.585,1.15,1.15,0,0,0-1.282-.525l-.231.047.2.131c.311.208.321.45.343.978l.083,1.006a1.087,1.087,0,0,0,.453.778,1.388,1.388,0,0,0,.711.187c-.526.137-1.248.223-1.507-.264a2.916,2.916,0,0,0-1.887-1.164l-.2-.035.1.18a1.347,1.347,0,0,1,.153.607,1.014,1.014,0,0,1-.313.74,2.751,2.751,0,0,0-.549,1.833c0,.094,0,.108.006.165-1.534-.645-1.805-1.6-1.805-2.14a1.463,1.463,0,0,1,.051-.4l.045-.151-.156.026a1.513,1.513,0,0,0-1.068.755,6.358,6.358,0,0,1-2,2.623,2.936,2.936,0,0,0,.028-.382,1.773,1.773,0,0,0-.448-1.27c-.61-.61-.693-2.549-.693-2.568l-.013-.35-.171.3c-.675,1.209-2.645.628-2.664.623-.083-1.527,1.65-3.482,1.668-3.5l.181-.2-.267.039a3.392,3.392,0,0,1-2.612-.453,1.975,1.975,0,0,1-.7-1.066,3.868,3.868,0,0,0,3.26.048,3.172,3.172,0,0,0,1.454-2.051c1.243-2.819,2.329-3.263,2.341-3.267l-.068-.184c-.049.017-1.169.458-2.461,3.392Z" transform="translate(-823.274 -159.124)"/><path d="M841.983,158.069l-.083,0-1.009,1.382.3.03a13.354,13.354,0,0,1,8.4,3.869l.126.147.992-1.078-.073-.111c-2.776-4.371-8.591-4.244-8.65-4.242Zm.094.343c.676,0,5.662.156,8.187,3.981-.123.134-.4.435-.546.6a13.931,13.931,0,0,0-8.208-3.8Z" transform="translate(-832.033 -158.068)"/><path d="M839.27,162.956a4.707,4.707,0,0,0-.9,2.023.3.3,0,0,0,.052.193s.019.006.025.012a3.112,3.112,0,0,0-.909,2.328,4.619,4.619,0,0,0,.291,1.61l.11.3c.537,1.461,1,2.724,3.323,1.98,2.237-.715,2.325-.858,2.889-1.787l.147-.241a1.473,1.473,0,0,1,1-.705,1.74,1.74,0,0,0,1.255-1.024l.377-.565a4.175,4.175,0,0,0,.975-2.143l-.2-.013a4.006,4.006,0,0,1-.937,2.04l-.393.592a1.558,1.558,0,0,1-1.137.925,1.66,1.66,0,0,0-1.111.791l-.148.242c-.542.894-.611,1.01-2.779,1.7-2.145.686-2.537-.384-3.08-1.862l-.11-.3a3.506,3.506,0,0,1,.662-3.861l.273-.2-.378.043a.191.191,0,0,1-.009-.056,4.488,4.488,0,0,1,.869-1.9,6.59,6.59,0,0,1,1.672-1.347l-.1-.17a6.68,6.68,0,0,0-1.732,1.4Z" transform="translate(-830.109 -160.066)"/><path d="M838.252,176.249a1.683,1.683,0,0,0,1.575,0,1.458,1.458,0,0,0,.46,1.083,2.587,2.587,0,0,0,2.346.245l-.046-.19a2.43,2.43,0,0,1-2.17-.2,1.329,1.329,0,0,1-.392-1.051l.018-.168-.156.066a1.564,1.564,0,0,1-1.525.053c-.638-.443-.59-1.6-.589-1.615l-.2-.009a2.273,2.273,0,0,0,.674,1.787Z" transform="translate(-830.133 -167.467)"/><path d="M841.6,174.832a.458.458,0,0,0-.353.482.747.747,0,0,0,.01.119c.049.5.6.84,1.094.984s1.078.149,1.313-.152c.094-.12.162-.337-.043-.687A1.588,1.588,0,0,0,841.6,174.832Zm.805,1.4c-.435-.124-.914-.407-.952-.825-.009-.04-.056-.321.191-.38l.019-.006a1.387,1.387,0,0,1,1.788.661c.12.2.139.36.056.466C843.36,176.332,842.884,176.369,842.4,176.227Zm-.825-1.389a.153.153,0,0,1,.019-.008Z" transform="translate(-832.235 -167.612)"/><path d="M843.56,180.8c-.126,1.073-.049,1.1.028,1.122l.068.022.077-.091.622-.819-.78-.37Zm.18.16.314.148c-.084.108-.242.317-.36.474C843.7,181.419,843.716,181.191,843.74,180.958Z" transform="translate(-833.525 -171.022)"/><path d="M839.8,178.819l-.041,1.014.851-1.03-.805-.089,0,.1Zm.191.114.236.025-.249.3C839.99,179.1,839.993,179.014,840,178.933Z" transform="translate(-831.386 -169.905)"/><path d="M838.53,178.082a13.689,13.689,0,0,1,.744,1.684,1.388,1.388,0,0,0,.865.767,1.2,1.2,0,0,0,1.135-.074l.565-.47c.188-.181.251-.232.4-.206l.033-.194c-.256-.043-.381.076-.571.258l-.542.451a1.039,1.039,0,0,1-.955.052,1.214,1.214,0,0,1-.743-.632,13.858,13.858,0,0,0-.759-1.724Z" transform="translate(-830.68 -169.492)"/><path d="M839.1,169.439a2.209,2.209,0,0,0-1,1.193l.185.065a2.049,2.049,0,0,1,.893-1.08,1.241,1.241,0,0,1,1,.011l.073-.181A1.413,1.413,0,0,0,839.1,169.439Z" transform="translate(-830.437 -164.519)"/><path d="M851.33,174.547c.055.041,1.36,1.03.61,2.237l.166.1c.847-1.36-.646-2.488-.659-2.5Z" transform="translate(-838.018 -167.425)"/><path d="M841.825,175.2s-.2.738.835,1c0,0-.976-.008-1.038-.261S841.627,175.129,841.825,175.2Z" transform="translate(-832.438 -167.887)"/><path d="M849.259,177.125a.116.116,0,1,1-.116-.116A.117.117,0,0,1,849.259,177.125Z" transform="translate(-836.698 -168.927)"/><path d="M849.531,178.205a.117.117,0,0,1-.116.117.116.116,0,1,1,.116-.117Z" transform="translate(-836.855 -169.547)"/><circle cx="0.115" cy="0.115" r="0.115" transform="translate(11.78 8.314)"/><path d="M848.441,179.292a.115.115,0,1,1-.116-.117A.116.116,0,0,1,848.441,179.292Z" transform="translate(-836.23 -170.17)"/><path d="M841.337,171.975a.116.116,0,0,1-.233,0,.116.116,0,0,1,.233,0Z" transform="translate(-832.155 -165.975)"/><circle cx="0.115" cy="0.115" r="0.115" transform="translate(9.067 6.35)"/><circle cx="0.115" cy="0.115" r="0.115" transform="translate(8.401 6.119)"/><path d="M840.519,174.142a.118.118,0,0,1-.117.116.117.117,0,0,1,0-.233A.118.118,0,0,1,840.519,174.142Z" transform="translate(-831.687 -167.217)"/><path d="M845.57,164.595s1.5.924.056,2.657a2.145,2.145,0,0,0,.783-1.435C846.485,164.912,845.895,164.189,845.57,164.595Z" transform="translate(-834.716 -161.744)"/><path d="M853.514,169.267c-.483.248-1.179-.211-1.528-.646a.874.874,0,0,0-1.514.248,2.715,2.715,0,0,1-1.092,1.093,6.445,6.445,0,0,0,1.279-1.068c.645-.694,1.018-.137,1.651.2s.733.409,1.179.236l.025-.061Z" transform="translate(-836.9 -163.925)"/><path d="M854.023,170.058a.729.729,0,0,1-.944-.038c-.384-.31-.708-.732-1.191-.484a14.156,14.156,0,0,0-1.4.944s1.491-1.031,1.777-.807.957.77,1.366.61S854.023,170.058,854.023,170.058Z" transform="translate(-837.533 -164.6)"/><path d="M853.329,171.756c-.472-.36-.944.422-1.341.324s-.721-.759-.721-.759.374.7.894.534.883-.484,1.2-.237S853.329,171.756,853.329,171.756Z" transform="translate(-837.982 -165.667)"/><path d="M852.995,171.519a.879.879,0,0,1-1.023-.782,1.021,1.021,0,0,0,1.117.622Z" transform="translate(-838.386 -165.331)"/><path d="M853.463,170.99c.061.236.048.343-.2.343s-.421-.083-.421-.327S853.426,170.839,853.463,170.99Z" transform="translate(-838.884 -165.396)"/><path d="M845.794,167.76a.3.3,0,0,1-.3.292c-.165,0-.2-.111-.2-.271s.032-.311.2-.311A.3.3,0,0,1,845.794,167.76Z" transform="translate(-834.56 -163.458)"/><path d="M844,165.375s1.6.017.805,2.014c0,0,.608-.994.227-1.709a.867.867,0,0,0-.984-.534S843.907,165.28,844,165.375Z" transform="translate(-833.799 -162.114)"/><path d="M843.94,166.651a1.659,1.659,0,0,0,.792,1.227l.122-.154a1.49,1.49,0,0,1-.718-1.07.735.735,0,0,1,.264-.537l-.117-.158a.93.93,0,0,0-.343.691Z" transform="translate(-833.781 -162.593)"/><path d="M844.729,167.152a.821.821,0,0,0,.531.517l.073-.181a.638.638,0,0,1-.415-.39,1.019,1.019,0,0,1,.175-.739l-.159-.114a1.2,1.2,0,0,0-.2.907Z" transform="translate(-834.217 -162.756)"/><path d="M849.148,170.97a1.49,1.49,0,0,1-.137,1.341,7.825,7.825,0,0,1-.423.659s.522-.956.324-1.355.236-.645.236-.645Z" transform="translate(-836.446 -165.465)"/><path d="M864.45,186.307c1.639.309,5.338,3.209,5.376,3.238l.212-.271c-.156-.12-3.8-2.98-5.524-3.3Z" transform="translate(-845.54 -174.065)"/><path d="M867.86,196.315a3.514,3.514,0,0,0,1.761,2.4l.167-.3a3.236,3.236,0,0,1-1.587-2.123Z" transform="translate(-847.495 -179.981)"/><path d="M858.65,197.06a7.59,7.59,0,0,0,1.595,3.689l.27-.212a7.4,7.4,0,0,1-1.522-3.478h-.343Z" transform="translate(-842.215 -180.423)"/><path d="M846.391,197.287c.27.539.242.812.172.945a.366.366,0,0,1-.253.175l.04.342a.7.7,0,0,0,.512-.348,1.393,1.393,0,0,0-.163-1.265Z" transform="translate(-835.14 -180.467)"/></g><g transform="translate(3.095 13.201)"><path d="M791.86,178.38a2.712,2.712,0,0,0,.944,1.74,4.5,4.5,0,0,1,.15-1.69A.808.808,0,0,0,791.86,178.38Z" transform="translate(-791.86 -178.194)" fill="#fff" stroke="#000" stroke-miterlimit="3" stroke-width="0.36"/><path d="M795.81,180.159a2.743,2.743,0,0,0,.8,1.44l.35-.1s.149-1.243.347-1.392S796.458,180.556,795.81,180.159Z" transform="translate(-794.125 -179.278)" fill="#fff" stroke="#000" stroke-miterlimit="3" stroke-width="0.36"/><path d="M799.31,179.334l.646.994.744-.4-.148-1.191S800.105,178.638,799.31,179.334Z" transform="translate(-796.131 -178.503)" fill="#fff" stroke="#000" stroke-miterlimit="3" stroke-width="0.36"/><path d="M804.206,179.559l-.845.7a1.35,1.35,0,0,0-.8-.3l.15-1.093s.6-.447,1.49.7Z" transform="translate(-797.998 -178.528)" fill="#fff" stroke="#000" stroke-miterlimit="3" stroke-width="0.36"/><path d="M792.249,202.439s-.148-1.54.051-1.639c0,0,.595.2.844-.051a5.872,5.872,0,0,1,.248,1.74C793.292,202.985,792.7,202.788,792.249,202.439Z" transform="translate(-792.052 -191.125)" fill="#fff" stroke="#000" stroke-miterlimit="3" stroke-width="0.36"/><path d="M801.285,198.377s-.049-1.292.2-1.442c0,0,1.242.15,1.54-.5l.448,1.242A2.9,2.9,0,0,0,801.285,198.377Z" transform="translate(-797.261 -188.654)" fill="#fff" stroke="#000" stroke-miterlimit="3" stroke-width="0.36"/><path d="M798.15,199.623s.248-1.341.5-1.391c0,0,.646.2.844-.051l-.049,1.641S799.491,199.125,798.15,199.623Z" transform="translate(-795.466 -189.653)" fill="#fff" stroke="#000" stroke-miterlimit="3" stroke-width="0.35"/><path d="M794.77,200.428s.3-1.192.5-1.192.7.3.944.1v.894s-1.095-.248-1.242,1.242l-.2-1.043Z" transform="translate(-793.528 -190.257)" fill="#fff" stroke="#000" stroke-miterlimit="3" stroke-width="0.35"/></g></g><g transform="translate(2.951 37.535)"><path d="M840.135,258.874s3.377,3.136,2.494,5.87c0,0,2.17-4.664-.16-6.032s-2.414-.319-2.334.162Z" transform="translate(-816.906 -246.889)" fill="#3ca469" stroke="#000" stroke-miterlimit="4.8" stroke-width="0.78"/><path d="M829.13,266.692a1.615,1.615,0,0,0,.08,2.093,2.82,2.82,0,0,0-.239,2.814,5.918,5.918,0,0,0-.483,2.814s-.564,2.251.642,3.3c0,0,1.288.644,1.851.08a4.03,4.03,0,0,0,.4-3.46,3.76,3.76,0,0,0-.08-3.3,3.272,3.272,0,0,0-.482-2.25,1.537,1.537,0,0,0,.079-1.448S829.292,265.648,829.13,266.692Z" transform="translate(-810.163 -251.657)" fill="#862633" stroke="#000" stroke-miterlimit="4.8" stroke-width="0.78"/><path d="M819.248,243.009s-4.02-7.718-6.835-8.042a3.318,3.318,0,0,1-2.975-3.055s.321,1.287,2.573,1.287,6.594,3.135,7.076,5.548.966,2.092.966,2.092l-.805,2.171Z" transform="translate(-799.317 -231.912)" fill="#3ca469" stroke="#000" stroke-miterlimit="4.8" stroke-width="0.78"/><path d="M831.746,242.55s1.448-9.73,7.8-9.892,4.262.482,5.789-.564c0,0-4.26,2.253-6.915,2.574s-4.825,5.466-4.744,6.434-1.447,2.814-2.171,2.172.24-.724.24-.724Z" transform="translate(-811.814 -232.017)" fill="#3ca469" stroke="#000" stroke-miterlimit="4.8" stroke-width="0.78"/><path d="M833.874,259.217s1.447-3.86,3.94-2.572c0,0-1.931-3.7-5.388-.484,0,0,1.528,2.09,1.448,3.056Z" transform="translate(-812.497 -245.061)" fill="#3ca469" stroke="#000" stroke-miterlimit="4.8" stroke-width="0.78"/><path d="M819.8,255.56s2.091,8.606-1.126,11.258c0,0,.08-4.421-1.85-7.075s1.93-5.548,2.976-4.184Z" transform="translate(-803.245 -245.27)" fill="#3ca469" stroke="#000" stroke-miterlimit="4.8" stroke-width="0.78"/><path d="M824.649,257.244s3.781,3.62,4.022,4.826,1.125-3.618-.644-4.984a8.412,8.412,0,0,0-3.7-1.61Z" transform="translate(-807.854 -245.421)" fill="#3ca469" stroke="#000" stroke-miterlimit="4.8" stroke-width="0.78"/><path d="M808.74,279.345s.343,1.519,1.275,1.813c0,0,.048,1.129.882,1.471a1.29,1.29,0,0,0,.295,1.519s-.148,1.863.539,2.256a5.33,5.33,0,0,0,2.255-.589,2.982,2.982,0,0,0-.586-2.452,2.025,2.025,0,0,0-.786-1.813s.294-1.571-.883-2.158a3.629,3.629,0,0,0-.932-1.912S809.377,279.49,808.74,279.345Z" transform="translate(-798.916 -258.038)" fill="#862633" stroke="#000" stroke-miterlimit="4.8" stroke-width="0.78"/><path d="M802.756,276.653s-4.952-1.814-7.7.785c0,0,4.216.589,4.756,1.422s3.137-1.372,2.942-2.207Z" transform="translate(-791.072 -257.21)" fill="#3ca469" stroke="#000" stroke-miterlimit="4.8" stroke-width="0.78"/><path d="M800.618,280.994s-.392-.343-.882-.687-4.658-1.47-5.248,2.55c0,0-1.521-3.971.686-4.511s3.973.736,5.443,2.648" transform="translate(-790.453 -258.463)" fill="#3ca469" stroke="#000" stroke-miterlimit="4.8" stroke-width="0.78"/><path d="M801.9,265.46s1.526,3.3,2.091,3.46a.977.977,0,0,0,.964-.4S802.945,265.542,801.9,265.46Z" transform="translate(-794.995 -251.146)" fill="#3ca469" stroke="#000" stroke-miterlimit="4.8" stroke-width="0.78"/><path d="M791.495,246.156s-1.288-4.261-2.814-3.136-1.126,4.18-1.126,4.18-3.056-3.134-1.288-5.629,5.228.242,5.228,4.584Z" transform="translate(-785.716 -236.907)" fill="#3ca469" stroke="#000" stroke-miterlimit="4.8" stroke-width="0.78"/><path d="M807.37,272.913s0,.8.563,1.044,1.608.642,1.608.162-.8-2.332-1.127-2.091S807.532,272.268,807.37,272.913Z" transform="translate(-798.131 -254.9)" fill="#862633" stroke="#000" stroke-miterlimit="4.8" stroke-width="0.78"/><path d="M805.107,254.78s-.161-3.7,2.25-5.067c0,0,.484.083.726-.641,0,0-1.932,4.662-1.369,6.994l-.08.322" transform="translate(-796.832 -241.751)" fill="#3ca469" stroke="#000" stroke-miterlimit="4.8" stroke-width="0.78"/><path d="M806.24,243.109s4.342-9.008,9.65-5.872c0,0-5.548,1.126-7.558,5.067l-2.012,2.973-.08-2.168Z" transform="translate(-797.483 -234.585)" fill="#3ca469" stroke="#000" stroke-miterlimit="4.8" stroke-width="0.78"/><path d="M792.88,248.341s-1.287-6.031-2.091-6.833-2.172-1.689-3.781-.323c0,0,2.816-2.494,5.791-.4a5.578,5.578,0,0,1,2.331,5.388l-.32,4.182L792.8,248.5" transform="translate(-786.457 -236.518)" fill="#3ca469" stroke="#000" stroke-miterlimit="4.8" stroke-width="0.78"/><path d="M798.312,266.542s-5.308-10.049-8.765-2.893c0,0-.645,1.848.078,2.571,0,0-1.93-1.446-1.045-4.984s6.753-1.93,8.444.966,2.172,4.343,1.93,4.5-.643-.161-.643-.161Z" transform="translate(-787.225 -247.565)" fill="#3ca469" stroke="#000" stroke-miterlimit="4.8" stroke-width="0.78"/><path d="M846.76,276.077s3.862-7.962,6.112-4.343c0,0,.643,1.768-.323,2.494,0,0-1.526-1.85-2.893.4s-.8,2.092-.8,2.092-1.448.4-2.091-.644Z" transform="translate(-820.714 -254.202)" fill="#3ca469" stroke="#000" stroke-miterlimit="4.8" stroke-width="0.78"/><path d="M860.32,275.489a2.878,2.878,0,0,1,1.369,3.376s2.813-5.387-1.046-5.87C860.644,272.995,861.368,274.684,860.32,275.489Z" transform="translate(-828.489 -255.466)" fill="#3ca469" stroke="#000" stroke-miterlimit="4.8" stroke-width="0.78"/><path d="M860.874,263.544s5.067,1.446,5.228,3.62c0,0,.886-4.184-2.01-5.47,0,0-3.459.564-3.217,1.85Z" transform="translate(-828.8 -248.987)" fill="#3ca469" stroke="#000" stroke-miterlimit="4.8" stroke-width="0.78"/><path d="M860.01,245.132c2.172-4.262,4.906,1.367,4.906,1.367s.964-4.422-1.768-5.228-4.5,9.408-4.5,9.408l-3.217.724s.885-8.925,5.71-9.73l.562.081" transform="translate(-825.683 -237.252)" fill="#3ca469" stroke="#000" stroke-miterlimit="4.8" stroke-width="0.78"/><path d="M849.28,245.8s-3.055-6.272-5.146-6.915,1.127-1.609,2.414-.4,3.7,2.734,3.457,5.951l-.724,1.367Z" transform="translate(-818.814 -235.352)" fill="#3ca469" stroke="#000" stroke-miterlimit="4.8" stroke-width="0.78"/><path d="M849.77,267.925s.884-4.26,3.3-5.548a7.445,7.445,0,0,1,4.664-.8s-2.9.642-3.377,2.092-1.288,1.526-1.288,1.526l-3.3,2.734Z" transform="translate(-822.44 -248.867)" fill="#3ca469" stroke="#000" stroke-miterlimit="4.8" stroke-width="0.78"/><path d="M843.992,283.18s-1.367,2.574-1.046,2.975c0,0-1.446,2.09-.884,3.136,0,0,1.448,1.126,2.092.643,0,0,1.687-2.331,1.2-3.618,0,0,1.126-1.526.725-2.491C846.083,283.824,844.4,283.9,843.992,283.18Z" transform="translate(-817.946 -261.305)" fill="#862633" stroke="#000" stroke-miterlimit="4.8" stroke-width="0.78"/><g transform="translate(11.061 16.974)"><path d="M830.18,272a2.329,2.329,0,0,0,1.449.258l.391-.334-.307-.153c-.2.4-1.084.07-1.38-.077Z" transform="translate(-822.27 -271.695)"/><path d="M829.781,277.883l-.067.337a3.44,3.44,0,0,0,2.479-.362l-.228-.255c-.65.577-2.168.285-2.184.281Z" transform="translate(-822.002 -275.082)"/><path d="M828.63,284.853l-.2.277c.019.015,1.915,1.365,3.129-.11l-.266-.218C830.284,286.026,828.7,284.9,828.63,284.853Z" transform="translate(-821.265 -279.21)"/><path d="M811.64,283.619l.071.184c.068-.028,1.675-.673,1.777-1.848l-.2-.018C813.2,282.992,811.655,283.613,811.64,283.619Z" transform="translate(-811.64 -277.567)"/><path d="M813.77,287.968l.014.2c.062,0,1.546-.116,1.8-1.153l-.191-.049C815.174,287.861,813.784,287.967,813.77,287.968Z" transform="translate(-812.861 -280.448)"/><path d="M814.476,291.889l-.011.2c.071,0,1.733.089,2.3-.831l-.167-.1C816.09,291.973,814.492,291.89,814.476,291.889Z" transform="translate(-813.26 -282.85)"/><path d="M844.02,290.113a2.434,2.434,0,0,0,1.583.708,1.478,1.478,0,0,0,1.08-.556l-.26-.225a1.149,1.149,0,0,1-.831.439,2.138,2.138,0,0,1-1.331-.608l-.241.243Z" transform="translate(-830.205 -282.115)"/></g></g><g transform="translate(60.697 35.114)"><g transform="translate(15.853 18.296)"><path d="M960.711,304.22a.709.709,0,0,0-.26.172Z" transform="translate(-959.497 -289.244)" fill="#862633" stroke="#000" stroke-miterlimit="4.8" stroke-width="0.42"/><path d="M966.623,282.615c-.057-.147-.095-.085-.17-.15-.108-.089-.171-.374-.266-.48-.056-.065-.121,0-.182-.018-.138-.3-.3-.625-.447-.918a.254.254,0,0,0,.04-.137c0-.012-.068-.246-.073-.257-.042-.065-.107-.027-.147-.127a1.971,1.971,0,0,1-.027-.418,1.237,1.237,0,0,1-.045-.294c.006-.121.071-.263.064-.369a1.253,1.253,0,0,0-.1-.273,2.024,2.024,0,0,1-.187-.73,4.044,4.044,0,0,1,.059-.636c.024-.267-.117-.4-.117-.643a4.662,4.662,0,0,1,.1-.569,4.255,4.255,0,0,0,.014-.8,2.353,2.353,0,0,1-.046-.618,1.823,1.823,0,0,0,.046-.2c0-.062,0-.123,0-.184v-.366c0-.119.012-.252,0-.368-.01-.1-.067-.2-.067-.271,0-.131.083-.193.065-.37a1.2,1.2,0,0,0-.059-.268,6.075,6.075,0,0,1-.052-.648,2.638,2.638,0,0,1-.061-.266.874.874,0,0,1,.044-.3,1.387,1.387,0,0,0,.016-.346,1.3,1.3,0,0,1-.061-.365l-.048,1.614c-.04-1.408-.1-2.712-.1-2.712l-2.141-1.006s-.181,3.931-.135,4.478.227,4.3.135,4.756-.318,2.743-.318,2.743a5.251,5.251,0,0,0-1.457,1.553c-.411.823-.319,1.1-.457,1.1l1.017-.159-.758.506a.463.463,0,0,1,.472.073,1.166,1.166,0,0,0,.145.111c.04,0,.1-.1.144-.12.158-.053.291.242.44.22a.486.486,0,0,0,.255-.182c.054-.073.075-.2.132-.249s.18.007.234.007c.15,0,.3,0,.451,0,.2-.006.36-.286.544-.445a.618.618,0,0,1,.48-.184c.2.015.381.2.585.214.154.008.261.027.385-.135.086-.113.147-.28.228-.4l.506-.078a.784.784,0,0,0,.289.084,1.926,1.926,0,0,1,.391,0c.049.006.145.12.185.092a1.969,1.969,0,0,0,.1-.221,1.894,1.894,0,0,0-.053-.268Z" transform="translate(-959.495 -269.119)" fill="#862633" stroke="#000" stroke-miterlimit="4.8" stroke-width="0.42"/><path d="M963.617,301.109c.129,0,.247-.03.356.065l.051.1a.111.111,0,0,0,.107.015c.073.049.088.077.167.1a1.211,1.211,0,0,0,.23,0,.574.574,0,0,1,.227.071c.153.062.253,0,.385-.092.153-.113.209-.027.356.115.11.1.088.1.187.024a.922.922,0,0,1,.049-.1.726.726,0,0,1,.149-.043c.082-.038.163-.034.241-.063s.141-.122.227-.105a2.452,2.452,0,0,1,.23.1.48.48,0,0,1,.155.078c.1-.21.328-.273.472-.375s.289.022.454.024c.088,0,.123-.051.185-.071s.149.011.217-.016.084-.1.163-.1c.145-.018.307.219.453.264.081.027.459.112.4-.166s-.29-.081-.341-.267c-.027-.105.028-.255,0-.374a.445.445,0,0,0-.218-.256c-.089-.028-.141.065-.217-.008s-.086-.274-.141-.36c-.073.053-.119.1-.215.083s-.1-.064-.181-.168c-.178-.223-.281.134-.445.077-.125-.04-.241-.354-.338-.482-.052-.068-.2-.289-.274-.24-.128.083-.012.324-.078.43-.048.074-.217,0-.277.01-.1.021-.114.046-.184.162-.141.233-.223.418-.442.392-.1-.012-.182-.117-.284-.079s-.169.157-.288.171a.627.627,0,0,1-.27-.022c-.083-.037-.177-.193-.252-.236a.1.1,0,0,0-.1-.019l-.125-.071c-.132-.038-.121-.034-.175.141-.031.108-.043.22-.083.322a1.245,1.245,0,0,1-.172.25c-.092.1-.137.073-.257.109-.1.031-.224.181-.276-.012-.077-.291.214-.726-.11-.65a.215.215,0,0,0-.187.16c-.057.144-.011.237-.037.395-.034.2-.413.532-.338.712.051.126.22-.068.266-.037.077.053.055.18.11.264.115.175.454-.271.474-.03" transform="translate(-960.82 -286.206)" fill="#862633" stroke="#000" stroke-miterlimit="4.8" stroke-width="0.42"/><path d="M959.637,300.145c0-.025-.006-.049-.007-.075-.091-.016-.193-.113-.276-.114s-.231.187-.285.279c-.166.274-.12.648-.4.643-.068,0-.228-.048-.288-.006-.1.074-.038.294-.038.443s.064,0-.011.183c-.023.05-.091.067-.109.134-.056.239.142.163.23.16q.338,0,.672,0a.807.807,0,0,0,.343-.094c.083-.028.26-.027.33-.1a1.421,1.421,0,0,0,.118-.261c.018-.092-.017-.2,0-.28.035-.135.156-.083.178-.266.058-.447-.419-.113-.344-.552" transform="translate(-958.214 -286.799)" fill="#862633" stroke="#000" stroke-miterlimit="4.8" stroke-width="0.42"/></g><g transform="translate(18.014 16.884)"><path d="M971.83,269.874a.9.9,0,1,1-.887-1.046A.973.973,0,0,1,971.83,269.874Z" transform="translate(-967.166 -267.54)" stroke="#000" stroke-miterlimit="4.8" stroke-width="0.78"/><path d="M965.049,266.855a.9.9,0,1,1-.885-1.046A.975.975,0,0,1,965.049,266.855Z" transform="translate(-963.278 -265.81)" stroke="#000" stroke-miterlimit="4.8" stroke-width="0.78"/><path d="M968.633,267.8a.9.9,0,1,1-.885-1.046A.974.974,0,0,1,968.633,267.8Z" transform="translate(-965.334 -266.349)" stroke="#000" stroke-miterlimit="4.8" stroke-width="0.78"/><path d="M965.162,270.036a.9.9,0,1,1-.886-1.044A.977.977,0,0,1,965.162,270.036Z" transform="translate(-963.343 -267.634)" stroke="#000" stroke-miterlimit="4.8" stroke-width="0.78"/><path d="M968.38,271.906a.9.9,0,1,1-.885-1.044A.979.979,0,0,1,968.38,271.906Z" transform="translate(-965.188 -268.706)" stroke="#000" stroke-miterlimit="4.8" stroke-width="0.78"/></g><path d="M942.691,234.917s8.925-12.463,18.5.484a4.8,4.8,0,0,1-.8,2.654l-.242-1.044-.563.16-.16-.643-1.048-.08.324-1.368-1.127.885.162-.966-1.287,1.289.162-2.736-1.368,2.332.16-1.607-.482.722-.29-.937-.432.937-.645-.481v.643l-1.124-.965-.4,1.286-.563-1.366-.161.964-.564-1.126-.078,1.207-1.851-.8.4,1.126-.883-.642.16.642-1.2-.24.079.723-1.287-.242.242.643-1.77-.24.641.723-.178.294s9.668-3.188,10.312,8.873l-1.769.884.483-.963-.483-.323-1.446-1.124.4-1.529-.482.162-.081-.884-.241.16-.564-.884-.16.322-.4-1.047-.4.726-.242-1.77-.642,1.127-.082-.644-.242.4-.8-.966-.239.644-.324-.482-.24.562-.885-.805v.646l-.562-.484-.244.322-1.365-.724-.083.642-.722-.642-.242.642s8.768,4.987,6.032,13.109l-.484,1.044-.159-2.733-.8,1.446.559-3.136-.559.562-.083-1.2-.721,1.2-.245-1.366-.319.4-.485-2.092-.4.886-.643-2.332-.482.964-.322-2.009-.322,1.206-.966-1.77-.159.722-.562-1.446-.324.484a5.271,5.271,0,0,1-2.09-.484c-.482-.4-1.85,2.414-1.85,2.414l.161-1.69-.562,1.124v-1.124l-1.046,3.377-.242-2.412-.563,2.09-.242-.642-.16.885-.322-.323-.281.949-.525-.386v1.286l-.482-.644-.4,1.93-.241-.8v.883l-.4-.48-.4,1.93-.562-.8-.079,1.365.239,1.047-.643-.322.242,1.687a9.458,9.458,0,0,1,.483-9.167,14.245,14.245,0,0,1,6.994-5.708l-.4-.4-.08-.4-2.412,1.206.081-.725-.644.564-.16-.8-.4.724-.078-.322-.564.886-.323-1.288-.4,1.529-.379-1.07-.826,2.274v-1.688l-.644,1.77-.241-1.93-.482,2.25v-2.01l-.726,2.01-.482-1.929-.322,1.848-.482-1.446-.484,2.17-.722-1.93-.4,2.9-.482-1.127-.081,2.092-.561-1.286.561,2.733-.724-1.044.242,1.688-1.044-1.85.08,2.173-.564-.725-.242.8s-.239-8.363,5.468-9.972,9.41.483,9.41.483l-2.17-1.768.241-.564h-.8l.322-.644-1.688.081.482-.644-1.288.16v-.4l-.8.642.322-.722-1.126.722-.069-1.07-.576.911-.319-.966-2.575,2.572.723-2.653-.482.564-.08-.564-.724,1.127-.161-.8-.322.964-.242-1.125L927.411,235l-.564-1.043-.24,1.368-.4-.725-.482,1.046-.642-.644-.081.644-1.287-.563.322.966-.966-.8-.242,1.286-.561-.644-.4,1.61-.4-1.529-.4,1.206s5.029-12.922,17.751-4.491A8.351,8.351,0,0,1,940.517,235c.322.966.081.162.081.162l-.242-8.926.482,3.86.322-1.368-.08,2.011,1.285-2.815s-1.526,4.665-.965,6.353c0,0,.564-5.387,2.5-6.031l-1.77,3.859.562-.081-.4.805h.482l-.583,1.276-.3.654.321.643.486-.487Z" transform="translate(-921.058 -226.238)" fill="#3ca469" stroke="#000" stroke-miterlimit="4.8" stroke-width="0.78"/><g transform="translate(17.05 8.011)"><path d="M968.66,258.262l.253.228c.034-.035.829-.883,2.165.245l.221-.263C969.7,257.122,968.667,258.249,968.66,258.262Z" transform="translate(-965.4 -252.35)"/><path d="M967.642,246.548l-.052.309.62-.265c-.1.177-.426.746-.426.746l.925-.308-1.147,1.5.273.211,1.825-2.39-1.134.378c.118-.206.486-.856.486-.856l-.98.421c.065-.4.2-1.226.2-1.226l-.339-.057-.253,1.534Z" transform="translate(-964.771 -245.014)"/><path d="M963.443,248.144s.225.5.395.87l-.629-.253,1.855,3.283.238-.3c-.187.479-.374.963-.374.963l.32.125.8-2.058-.295-.167-.644.825c-.174-.309-.816-1.445-1.12-1.982.038.014.515.206.515.206s-.35-.773-.514-1.132l.7.435v-1.224h-.343v.605l-1.136-.709.236.518Z" transform="translate(-962.274 -246.512)"/><path d="M961.02,258.2l.137.314a1.5,1.5,0,0,1,1.231-.1.979.979,0,0,1,.48.559l.331-.089a1.305,1.305,0,0,0-.658-.777A1.818,1.818,0,0,0,961.02,258.2Z" transform="translate(-961.02 -252.45)"/><rect width="1.82" height="0.344" transform="matrix(-0.155, -0.988, 0.988, -0.155, 1.44, 9.233)"/><rect width="1.448" height="0.344" transform="translate(3.91 8.934) rotate(-108.439)"/><rect width="1.415" height="0.344" transform="matrix(-0.243, -0.97, 0.97, -0.243, 4.817, 9.953)"/></g></g><g transform="translate(9.639 87.451)"><g transform="translate(0 0.966)"><path d="M806.866,364.547s-1.508-.685-2.194-.184-.592,1.234-1.187,1.188c0,0,2.285.5,2.787-.092a5.363,5.363,0,0,0,.595-.776" transform="translate(-802.591 -358.628)" fill="#00ad50" stroke="#000" stroke-miterlimit="4.8" stroke-width="0.78"/><path d="M811.091,366.52s-.992,1.327-.649,2.1,1.076.844.9,1.415c0,0,.982-2.122.51-2.742a5.517,5.517,0,0,0-.629-.744" transform="translate(-806.538 -359.97)" fill="#00ad50" stroke="#000" stroke-miterlimit="4.8" stroke-width="0.78"/><path d="M805.641,357.91s-1.583.491-1.76,1.32.375,1.317-.1,1.677c0,0,2.04-1.143,2.021-1.923a5.7,5.7,0,0,0-.07-.974" transform="translate(-802.761 -355.033)" fill="#00ad50" stroke="#000" stroke-miterlimit="4.8" stroke-width="0.78"/><path d="M808.795,354.591s.751-1.479.278-2.184-1.208-.649-1.136-1.239c0,0-.6,2.259-.031,2.789a5.626,5.626,0,0,0,.752.626" transform="translate(-804.985 -351.168)" fill="#00ad50" stroke="#000" stroke-miterlimit="4.8" stroke-width="0.78"/><path d="M803.647,354.286s.036-1.654-.7-2.086-1.369-.06-1.561-.626c0,0,.438,2.3,1.183,2.529a5.615,5.615,0,0,0,.95.238" transform="translate(-801.39 -351.401)" fill="#00ad50" stroke="#000" stroke-miterlimit="4.8" stroke-width="0.78"/><path d="M812.836,364.269a1.341,1.341,0,0,1,1.874,1.279c.137,1.873-.092,1.234-.092,1.234s-.914-2.011-1.918-2.331Z" transform="translate(-807.874 -358.628)" fill="#00ad50" stroke="#000" stroke-miterlimit="4.8" stroke-width="0.78"/></g><g transform="translate(1.236 2.511)"><path d="M811.99,362.355c0,.04.182,1.457.182,1.457l.244-.031-.184-1.417c.006,0,.593-3.115.593-3.115l-.242-.045Z" transform="translate(-808.704 -357.32)"/><path d="M808.181,364.679l-.081.231c.83.292,1.989-.621,2.037-.659l-.154-.191C809.973,364.068,808.884,364.928,808.181,364.679Z" transform="translate(-806.474 -360.104)"/><rect width="4.352" height="0.343" transform="translate(3.884 2.746) rotate(-153.166)"/><rect width="0.342" height="1.098" transform="translate(1.069 2.305) rotate(-134.968)"/><rect width="1.964" height="0.343" transform="translate(2.425 1.927) rotate(-114.758)"/><path d="M812.67,364.412l.022.343c1.056-.072,1.314.612,1.316.62l.337-.07A1.5,1.5,0,0,0,812.67,364.412Z" transform="translate(-809.094 -360.303)"/></g><path d="M828.953,356.313c1.295-.725,1.554-3.267,1.554-3.267-.31.935-2.693,1.867-2.693,1.867,1.761-1.091,3.883-6.009,3.883-6.009-.569,1.762-5.179,3.211-8.133,4.869s-1.4,6.425-1.4,6.425a9.847,9.847,0,0,1-2.744-5.337c-.313-2.227-1.193-3.106-3.213-3.366S813,353.513,813,353.513l-3,1.556,3.055.1s2.179.727,2.179,2.436-1.917,8.548,1.242,12.383c2.2,2.664,10.311,4.2,10.311,4.2" transform="translate(-806.322 -348.904)" fill="#fff" stroke="#000" stroke-miterlimit="4.8" stroke-width="1"/><path d="M840.47,364.449s.622-3.057,2.642-2.953,2.59-2.278,3.782-2.642,7.357-2.019,8.03-4.973a9.9,9.9,0,0,1-6.216,7.305s4.557-1.5,5.077-2.488a9.508,9.508,0,0,1-6.943,5.025s4.611-.362,5.284-1.6a8.677,8.677,0,0,1-5.491,3.108s3.16,1.295,3.989.206a6.539,6.539,0,0,1-3.835,2.174l.571.156s-2.02,2.384-4.249.777-2.28.416-2.28.416" transform="translate(-823.796 -351.757)" fill="#fff" stroke="#000" stroke-miterlimit="4.8" stroke-width="1"/><path d="M849.657,389.45s2.6,4.353,2.862,6.684c0,0,4.974,5.492,6.839,5.8,0,0-.881.362-2.488-.984a11.5,11.5,0,0,0,1.607,1.451c.258.053-1.089-.1-1.3-.467,0,0,.571.831.933.934l-.362-.1a2.529,2.529,0,0,1-.985-.364c-.311-.258-.1.672-.1.672a3.166,3.166,0,0,1-1.035-.466c-.26-.258.1.571.1.571l-.673-.156-.466.31s-.052.311-.365.052-.88,0-.88,0-.416.363-.622.1-.991,1-.991,1l-3.262-7.874" transform="translate(-828.384 -372.15)" fill="#fff" stroke="#000" stroke-miterlimit="4.8" stroke-width="1"/><g transform="translate(20.246 22.499)"><rect width="8.864" height="0.489" transform="matrix(-0.465, -0.885, 0.885, -0.465, 4.123, 9.086)"/><rect width="10.589" height="0.491" transform="translate(7.724 8.554) rotate(-131.769)"/><rect width="11.002" height="0.49" transform="matrix(-0.732, -0.682, 0.682, -0.732, 9.335, 7.859)"/></g><g transform="translate(6.533 4.426)"><path d="M821.048,359.944s-.525-.941-.983-.587-.719.417-.8.392a1.1,1.1,0,0,0,.719-.223c.262-.25.707-.092,1.061.418Z" transform="translate(-818.173 -359.278)"/><path d="M816.735,359.689s.288.6.292.607c-.029,0-.326.963-.326.963l.236.073.32-1.047a6.3,6.3,0,0,0-.3-.7Z" transform="translate(-816.702 -359.453)"/><path d="M821.194,360.5a1.006,1.006,0,0,1-.928.327l-.535-.131s.455.026.758.04S821.18,360.592,821.194,360.5Z" transform="translate(-818.439 -359.978)"/><path d="M821.771,360.183s-.483-.51-.81-.366a.813.813,0,0,1,.9.311Z" transform="translate(-819.143 -359.568)"/><path d="M821.073,360.377a1.037,1.037,0,0,1-1.151-.038l-.037-.028.078-.025S820.721,360.6,821.073,360.377Z" transform="translate(-818.527 -359.855)"/><circle cx="0.163" cy="0.163" r="0.163" transform="translate(1.915 0.266)"/></g><path d="M822.251,394.2s-.425.782-.2,1.254,1.233.715,1.368,1.342.472.628.942.54.561-.113.561-.113a5.607,5.607,0,0,1-2.489-2.757Z" transform="translate(-813.197 -374.874)"/></g><g transform="translate(61.223 87.142)"><path d="M971.669,351.878s3.592-4.736,6.776-3.492,5.255,1.844,5.255,1.844.06,3.189-1.633,3.189-3.31-3.185-4.849-2.238a8.067,8.067,0,0,0-2.909,2.686c-.1.447-4.08.547-2.639-1.989Z" transform="translate(-950.421 -348.178)" fill="#862633" stroke="#000" stroke-miterlimit="4.8" stroke-width="0.48"/><path d="M939.251,410.356s-.993,1.043-.545,1.293,1.343-.052,1.343-.4S939.453,410.257,939.251,410.356Z" transform="translate(-931.636 -383.821)" fill="#862633" stroke="#000" stroke-miterlimit="4.8" stroke-width="0.78"/><path d="M929.113,412.406s-1.84-1.048-3.283,1.44-2.637,6.518-3.483,7.066,8.21-3.98,8.309-5.87c0,0,.6-2.439-.349-2.39s-1,.152-1.195-.246Z" transform="translate(-922.292 -384.876)" fill="#862633" stroke="#000" stroke-miterlimit="4.8" stroke-width="0.78"/><path d="M931.507,413.4s-1.89.445-2.288,3.13-3.036,4.081-3.184,4.18" transform="translate(-924.438 -385.572)" fill="#862633" stroke="#000" stroke-miterlimit="4.8" stroke-width="0.48"/><path d="M997.027,352.99s-2.875,1-2.378,2.991" transform="translate(-963.743 -350.937)" fill="#862633" stroke="#000" stroke-miterlimit="4.8" stroke-width="0.48"/><path d="M948.54,357.868s.1-6.816,5.668-6.518c1.055.1.552,1.342.552,1.342a1.107,1.107,0,0,1,1.755.5s1.757-.8,1.956.947c0,0,1.907-.248,1.655,1.293,0,0,1.3-.3,1.255.8,0,0,1.5-.6,1.353.945,0,0,1.656-1.095,1.406.894a1.4,1.4,0,0,1,2.306.8c.6,1.989-1.7,6.218-3.962,7.312" transform="translate(-937.341 -349.991)" fill="#fcd93a" stroke="#000" stroke-miterlimit="4.8" stroke-width="0.48"/><g transform="translate(12.944 2.61)"><path d="M981.8,367.571c.008.053.751,5.332-2.243,7.264l.105.166c3.1-2,2.339-7.405,2.332-7.46l-.195.029Z" transform="translate(-968.066 -361.89)"/><path d="M976.36,371.885l.138.141c1.9-1.845,2.3-6.816,2.318-7.027l-.194-.016c0,.052-.417,5.109-2.263,6.9Z" transform="translate(-966.235 -360.422)"/><path d="M972.21,369.372l.2.016c.244-3.07,2.643-6.581,2.669-6.617l-.162-.11c-.025.035-2.454,3.59-2.7,6.711Z" transform="translate(-963.856 -359.091)"/><path d="M968.95,367.392l.2.019a12.687,12.687,0,0,1,2.811-6.51l-.145-.131a12.889,12.889,0,0,0-2.862,6.622Z" transform="translate(-961.987 -358.007)"/><path d="M964.4,364.4l.2.007a8.891,8.891,0,0,1,3.092-6.54l-.116-.159A9.1,9.1,0,0,0,964.4,364.4Z" transform="translate(-959.378 -356.25)"/><path d="M960.193,362.04l.2-.006a8.248,8.248,0,0,1,2.948-6.387l-.119-.156a8.463,8.463,0,0,0-3.026,6.548Z" transform="translate(-956.964 -354.981)"/><path d="M952.63,359.9l.194.024a6.543,6.543,0,0,1,4.406-5.44l-.053-.188a6.738,6.738,0,0,0-4.547,5.6Z" transform="translate(-952.63 -354.295)"/></g><path d="M940.7,374.823s-.944-6.32,2.836-8.308c0,0,.7-.15,1.095.746,0,0,1.991-.845,2.041.844,0,0,.994-.8,1.243.3,0,0,2.139-.446,1.741,1.145,0,0,1.79-.5,1.641,1.043,0,0,1.792-.646,1.492.7,0,0,1.89-.446,1.443,1.1,0,0,2.339-.248,1.642,1.393,0,0,1.741-.447,1.343.9,0,0,2.289.4,1.243,1.841a15.452,15.452,0,0,1-6.266,4.576" transform="translate(-932.785 -358.686)" fill="#3ca469" stroke="#000" stroke-miterlimit="4.8" stroke-width="0.48"/><path d="M935.516,392s-1.543-5.271,1.395-6.617a.5.5,0,0,1,.644.4s.648-.847,1.146-.1c0,0,1.491-.7,1.841.4a.882.882,0,0,1,1.493.4s.945-.4.945.6c0,0,1.293-.547,1.293.647,0,0,1.242-.5.994.845,0,0,1.891.3,1.344,1.193,0,0,1.694.446,1.044,1.145,0,0,1.84-.2.845,1.044,0,0,1.393-.446.6,1.1a7.826,7.826,0,0,1-5.024,3.431" transform="translate(-929.641 -369.5)" fill="#3ca469" stroke="#000" stroke-miterlimit="4.8" stroke-width="0.48"/><path d="M937.479,405.163s-3.283-3.184-1.739-4.128a1.524,1.524,0,0,1,.944.894s.8-1.144,1.245.049c0,0,1.195-.4,1.195.4l.944.7s1.1-.1.9.6c0,0,1.194-.15,1.143.5,0,0,1.046.049.947.744,0,0,1.789.3.994,1.2a10.968,10.968,0,0,1-5.323-.249s-1.147-.4-1.246-.7Z" transform="translate(-929.765 -378.482)" fill="#00ad50" stroke="#000" stroke-miterlimit="4.8" stroke-width="0.48"/><g transform="translate(6.622 8.515)"><path d="M966.76,391l.07.182c1.945-.749,5.324-5.361,5.468-5.557l-.159-.117c-.036.05-3.488,4.763-5.379,5.492Z" transform="translate(-954.408 -378.096)"/><path d="M964.17,388.957l.1.171c1.693-.944,5.063-5.408,5.205-5.6l-.156-.118c-.034.048-3.488,4.623-5.145,5.546Z" transform="translate(-952.923 -376.893)"/><path d="M961.92,386.709l.126.15c1.787-1.484,4.391-6.385,4.5-6.593l-.174-.092c-.026.05-2.7,5.076-4.455,6.535Z" transform="translate(-951.634 -375.037)"/><path d="M959.86,384.079l.195.027c.339-2.478,3.82-6.377,3.854-6.416l-.145-.131c-.144.162-3.556,3.983-3.9,6.52Z" transform="translate(-950.452 -373.538)"/><path d="M943.5,375.664l.2-.017c-.292-3.5,2.637-7.354,2.667-7.393l-.156-.118C946.178,368.173,943.2,372.087,943.5,375.664Z" transform="translate(-941.062 -368.135)"/><path d="M947.78,377.1l.195-.034c-.485-2.806,2.829-6.8,2.863-6.835l-.15-.127C950.549,370.268,947.282,374.2,947.78,377.1Z" transform="translate(-943.497 -369.263)"/><path d="M954.487,380.066l.2-.006c-.1-3.2,2.977-6.414,3.008-6.447l-.141-.137c-.031.033-3.164,3.3-3.064,6.589Z" transform="translate(-947.371 -371.198)"/><path d="M938.169,393.187l.184-.069c-1.116-2.959.821-6.749.841-6.786l-.177-.091c-.02.039-2,3.9-.848,6.945Z" transform="translate(-937.811 -378.516)"/><path d="M941.247,393.254l.187-.06c-.973-3.015.676-7.055.694-7.095l-.182-.075c-.016.039-1.692,4.148-.7,7.23Z" transform="translate(-939.601 -378.391)"/><path d="M954.17,404.664l.067.185a12.586,12.586,0,0,0,5.271-4.064l-.16-.115a12.316,12.316,0,0,1-5.177,3.994Z" transform="translate(-947.19 -386.788)"/><path d="M952.64,402.636l.08.18c2.532-1.142,4.893-4.329,4.915-4.362l-.157-.115c-.024.032-2.353,3.175-4.838,4.3Z" transform="translate(-946.313 -385.452)"/><path d="M951.2,401l.115.159a27.436,27.436,0,0,0,4.551-5.15l-.161-.11a27.168,27.168,0,0,1-4.5,5.1Z" transform="translate(-945.487 -384.052)"/><path d="M943.676,394.012l.195-.028c-.438-3.163,1.61-6.915,1.632-6.953l-.172-.1c-.022.039-2.1,3.848-1.654,7.076Z" transform="translate(-941.137 -378.914)"/><path d="M946.99,396.249l.132.145c2.043-1.844,2.739-6.815,2.767-7.025l-.195-.027c-.006.051-.714,5.112-2.7,6.907Z" transform="translate(-943.074 -380.294)"/><path d="M950.27,398.838l.115.159c2.884-2.085,3.665-6.09,3.672-6.129l-.192-.037c-.008.038-.775,3.966-3.595,6.007Z" transform="translate(-944.954 -382.294)"/><path d="M948.147,377.581c0,.187.009.373.027.562,0-.016-2.187,7.075-2.187,7.075l.187.058,2.192-7.114c-.338-3.439,2.686-7.193,2.716-7.23l-.151-.123c-.03.034-2.784,3.453-2.784,6.772Z" transform="translate(-942.499 -369.668)"/><path d="M951.957,382.271c-.029.1-.694,4.957-3.314,6.749l.111.162c2.694-1.843,3.348-6.632,3.375-6.834A65.945,65.945,0,0,0,956,376.064l-.172-.095a67.6,67.6,0,0,1-3.869,6.3Z" transform="translate(-944.021 -372.627)"/><path d="M938.28,403.134a15.343,15.343,0,0,0,.958,3.367l.169-.1a15.408,15.408,0,0,1-.933-3.3Z" transform="translate(-938.08 -388.181)"/><path d="M941.136,403.248c.021,1.2.027,3.173-.04,3.348l.182.072c.1-.252.063-2.894.055-3.421l-.2,0Z" transform="translate(-939.695 -388.266)"/><path d="M941.45,407.2l.178.08a15.954,15.954,0,0,0,1.1-3.1l-.193-.038A15.686,15.686,0,0,1,941.45,407.2Z" transform="translate(-939.897 -388.778)"/><path d="M941.89,408.193l.1.169a4.226,4.226,0,0,0,1.935-2.55l-.191-.043A4.115,4.115,0,0,1,941.89,408.193Z" transform="translate(-940.15 -389.712)"/><path d="M942.57,409.1l.019.194c1.529-.153,2.571-2.01,2.615-2.088l-.172-.1c-.01.019-1.036,1.847-2.462,1.99Z" transform="translate(-940.539 -390.479)"/><path d="M942.93,409.849l.012.2a4.882,4.882,0,0,0,3.6-1.68l-.159-.116A4.774,4.774,0,0,1,942.93,409.849Z" transform="translate(-940.746 -391.133)"/><path d="M943.286,410.974l-.04.191c.132.03,3.26.693,4.331-.937l-.164-.107C946.418,411.639,943.317,410.98,943.286,410.974Z" transform="translate(-940.927 -392.207)"/></g></g><path d="M778.8,143.94v87.505c0,28.621,51.712,45.615,51.712,45.615s51.712-17,51.712-45.615V143.94Z" transform="translate(-778.8 -143.94)" fill="none" stroke="#3a3a3a" stroke-miterlimit="4.8" stroke-width="4.2"/></g><g transform="translate(0 0.171)"><rect width="230" height="116" transform="translate(0 -0.171)" fill="#2f4ba1"/><path d="M95.68,0V38.456H0V76.912H95.68v38.456h38.289V76.912h95.765V38.456H133.969V0Z" fill="#fff"/><path d="M0,0V12.847l204.067,102.52h25.668V102.435L25.668,0Z" fill="#fff"/><path d="M204.067,0,0,102.435v12.933H25.668L229.735,12.847V0Z" fill="#fff"/><path d="M103.355,0V46.078H0V69.2H103.355v46.164H126.38V69.2H229.735V46.078H126.38V0Z" fill="#e0193a"/><path d="M136.016,38.456,212.594,0h17.14L153.157,38.456ZM59.437,38.37,0,8.565V0L76.578,38.37Z" transform="translate(0 0)" fill="#e0193a"/><path d="M153.157,0H170.3l59.437,29.891v8.565ZM0,38.456,76.578,0h17.14L17.14,38.456Z" transform="translate(0 76.972)" fill="#e0193a"/></g></g></svg>