<svg xmlns="http://www.w3.org/2000/svg" width="512" height="300"><defs><clipPath id="a"><path d="M0 0h512v300H0z"/></clipPath></defs><g clip-path="url(#a)"><path fill="#f23b27" d="M0 .2h512v300H0z"/><path fill="#fff" d="M256 149.881a45.345 45.345 0 0 1 20.9-87.2c-7.3 3.6-12.1 12.4-6.1 21.6 6.6 10 2.9 26.9-9.9 32.9-10.1 4.8-18.3 20.5-4.9 32.7"/><path fill="#f23b27" d="m251.9 102.703 5.7-13.1-12.2 7.3 14.1 1.3-10.7-9.4ZM256.2 149.328c-17-10.2-17.8-33.3-9.2-46.1l-1.1-.7c-8.3 11.8-9.1 36.7 9.7 47.9Z" data-name="Path"/><path fill="#fff" d="M256 150.046a45.285 45.285 0 0 1 89.3-7c-5.7-5.9-15.6-7.7-22.4.9-7.5 9.4-24.7 11.1-34.4.7-7.5-8.2-25-11.1-32.5 5.4" data-name="Path"/><path fill="#f23b27" d="m299.6 131.56 14.2 1.4-10.7-9.4 3.1 13.8 5.7-13ZM256.7 150.089c4.5-19.3 26.2-27.2 41-23l.3-1.3c-13.8-4.2-37.7 2.7-42.6 24Z" data-name="Path"/><path fill="#fff" d="M256 150.065a45.3 45.3 0 0 1-76.4-46.8c1.2 8.1 8.1 15.4 18.6 12.5 11.6-3.2 26.5 5.5 28.3 19.6 1.3 11 13.7 23.6 29.5 14.7" data-name="Path"/><path fill="#f23b27" d="m209.8 139.39-10.6-9.4 3.1 13.8 5.6-13-12.2 7.2ZM255.4 149.755c-15 13-37.1 6.6-46.6-5.5l-1 .8c8.7 11.5 32.1 20 48.6 5.6Z" data-name="Path"/><path fill="#fff" d="M256 150.396a45.314 45.314 0 0 1 34.3 82.8c3.8-7.2 2.5-17.2-7.7-21-11.2-4.2-18.2-20-11.3-32.5 5.3-9.8 2.7-27.3-15.3-29.3" data-name="Path"/><path fill="#f23b27" d="m287.1 186.145 3 13.9 5.7-13.1-12.2 7.3 14.1 1.3ZM256.2 150.928c19.7-1.7 33.9 16.5 34.5 31.9l1.3-.1c-.2-14.4-14.2-35.1-36-33.1Z" data-name="Path"/><path fill="#fff" d="M256 150.346a45.291 45.291 0 0 1-68.1 58.2c8.1 1.4 17.1-2.9 17.6-13.9.5-12 13.4-23.5 27.4-20.8 10.9 2.1 26.7-5.7 23.1-23.5" data-name="Path"/><path fill="#f23b27" d="m231.5 190.963-12.2 7.2 14.1 1.4-10.6-9.4 3.1 13.8ZM255.4 150.663c7.7 18.3-5.2 37.4-19.7 42.7l.5 1.2c13.6-4.7 28.9-24.4 20.3-44.4Z" data-name="Path"/><path fill="#f23b27" d="M256 148.15a2 2 0 1 1-2 2 2.006 2.006 0 0 1 2-2" data-name="Path"/></g></svg>