<svg xmlns="http://www.w3.org/2000/svg" xmlns:xlink="http://www.w3.org/1999/xlink" width="512" height="300" viewBox="0 0 512 300"><defs><clipPath id="b"><rect width="512" height="300"/></clipPath></defs><g id="a" clip-path="url(#b)"><g transform="translate(0 -0.5)"><rect width="512" height="300" transform="translate(0 0.7)" fill="#f23b27"/><path d="M28.327,87.367a45.345,45.345,0,0,1,20.9-87.2c-7.3,3.6-12.1,12.4-6.1,21.6,6.6,10,2.9,26.9-9.9,32.9-10.1,4.8-18.3,20.5-4.9,32.7" transform="translate(227.673 63.014)" fill="#fff"/><path d="M6.5,13.9,12.2.8,0,8.1,14.1,9.4,3.4,0Z" transform="translate(245.4 89.303)" fill="#f23b27"/><path d="M15.894,46.8c-17-10.2-17.8-33.3-9.2-46.1L5.594,0c-8.3,11.8-9.1,36.7,9.7,47.9Z" transform="translate(240.306 103.028)" fill="#f23b27"/><path d="M0,42.119a45.285,45.285,0,0,1,89.3-7c-5.7-5.9-15.6-7.7-22.4.9-7.5,9.4-24.7,11.1-34.4.7-7.5-8.2-25-11.1-32.5,5.4" transform="translate(256 108.427)" fill="#fff"/><path d="M0,8,14.2,9.4,3.5,0,6.6,13.8,12.3.8Z" transform="translate(299.6 124.06)" fill="#f23b27"/><path d="M1.3,25.47c4.5-19.3,26.2-27.2,41-23l.3-1.3C28.8-3.03,4.9,3.87,0,25.17Z" transform="translate(255.4 125.119)" fill="#f23b27"/><path d="M80.016,46.8A45.3,45.3,0,0,1,3.616,0c1.2,8.1,8.1,15.4,18.6,12.5,11.6-3.2,26.5,5.5,28.3,19.6,1.3,11,13.7,23.6,29.5,14.7" transform="translate(175.984 103.765)" fill="#fff"/><path d="M14.1,9.4,3.5,0,6.6,13.8,12.2.8,0,8Z" transform="translate(195.7 130.49)" fill="#f23b27"/><path d="M47.6,5.5C32.6,18.5,10.5,12.1,1,0L0,.8c8.7,11.5,32.1,20,48.6,5.6Z" transform="translate(207.8 144.755)" fill="#f23b27"/><path d="M0,1.373a45.314,45.314,0,0,1,34.3,82.8c3.8-7.2,2.5-17.2-7.7-21-11.2-4.2-18.2-20-11.3-32.5,5.3-9.8,2.7-27.3-15.3-29.3" transform="translate(256 149.523)" fill="#fff"/><path d="M3.5,0l3,13.9L12.2.8,0,8.1,14.1,9.4Z" transform="translate(283.6 186.645)" fill="#f23b27"/><path d="M.2,1.435c19.7-1.7,33.9,16.5,34.5,31.9l1.3-.1c-.2-14.4-14.2-35.1-36-33.1Z" transform="translate(256 149.993)" fill="#f23b27"/><path d="M68.1,0A45.291,45.291,0,0,1,0,58.2c8.1,1.4,17.1-2.9,17.6-13.9C18.1,32.3,31,20.8,45,23.5,55.9,25.6,71.7,17.8,68.1,0" transform="translate(187.9 150.846)" fill="#fff"/><path d="M12.2.8,0,8,14.1,9.4,3.5,0,6.6,13.8Z" transform="translate(219.3 190.663)" fill="#f23b27"/><path d="M19.7.5C27.4,18.8,14.5,37.9,0,43.2l.5,1.2C14.1,39.7,29.4,20,20.8,0Z" transform="translate(235.7 150.663)" fill="#f23b27"/><path d="M2,0A2,2,0,1,1,0,2,2.006,2.006,0,0,1,2,0" transform="translate(254 148.65)" fill="#f23b27"/></g></g></svg>