<svg xmlns="http://www.w3.org/2000/svg" width="512" height="300"><defs><clipPath id="a"><path d="M0 0h512v300H0z"/></clipPath></defs><g clip-path="url(#a)" data-name="india"><path fill="#fff" d="M0 .2h512v300H0Z"/><path fill="#feae2e" d="M0 .2h512v99.6H0Z" data-name="Rectangle"/><path fill="#3ca469" d="M0 200.6h512v99.6H0z" data-name="Rectangle"/><path fill="#2f4ba1" d="M211.2 150.15a44.8 44.8 0 1 1 44.8 44.8 44.854 44.854 0 0 1-44.8-44.8Z"/><path fill="#fff" d="M256 143.45a6.7 6.7 0 1 1-6.7 6.7 6.7 6.7 0 0 1 6.7-6.7"/><path fill="#2f4ba1" d="M256 144.95a5.164 5.164 0 0 1 5.2 5.2 5.164 5.164 0 0 1-5.2 5.2 5.164 5.164 0 0 1-5.2-5.2 5.3 5.3 0 0 1 5.2-5.2" data-name="Path"/></g></svg>