<svg xmlns="http://www.w3.org/2000/svg" xmlns:xlink="http://www.w3.org/1999/xlink" width="512" height="300" viewBox="0 0 512 300"><defs><clipPath id="b"><rect width="512" height="300"/></clipPath></defs><g id="a" clip-path="url(#b)"><g transform="translate(0 -0.5)"><path d="M0,0H512V300H0Z" transform="translate(0 0.7)" fill="#fff"/><path d="M0,0H512V99.6H0Z" transform="translate(0 0.7)" fill="#feae2e"/><rect width="512" height="99.6" transform="translate(0 201.1)" fill="#3ca469"/><path d="M0,44.8A44.8,44.8,0,1,1,44.8,89.6,44.854,44.854,0,0,1,0,44.8Z" transform="translate(211.2 105.85)" fill="#2f4ba1"/><path d="M6.7,0A6.7,6.7,0,1,1,0,6.7,6.7,6.7,0,0,1,6.7,0" transform="translate(249.3 143.95)" fill="#fff"/><path d="M5.2,0a5.164,5.164,0,0,1,5.2,5.2,5.164,5.164,0,0,1-5.2,5.2A5.164,5.164,0,0,1,0,5.2,5.3,5.3,0,0,1,5.2,0" transform="translate(250.8 145.45)" fill="#2f4ba1"/></g></g></svg>