<svg xmlns="http://www.w3.org/2000/svg" xmlns:xlink="http://www.w3.org/1999/xlink" width="512" height="300" viewBox="0 0 512 300"><defs><clipPath id="b"><rect width="512" height="300"/></clipPath></defs><g id="a" clip-path="url(#b)"><path d="M0,0H512V300H0Z" fill="#f23b27"/><rect width="512" height="195" fill="#fff"/><rect width="512" height="98" fill="#3ca469"/><g transform="translate(6.827 81.595)"><g transform="translate(0 115.647)"><g transform="translate(0 0)"><path d="M0,19.6H20.48m2.276,0h20.48" transform="translate(0 -19.6)" fill="none" stroke="#fff" stroke-width="5.6"/><path d="M0,1.138H29.582M1.138,11.378V5.689h9.1V10.24h9.1V5.689H13.653m-9.1,4.551H6.827m22.756,0H23.893V5.689H33M33,0V10.24h9.1V0M37.547,0V10.24" transform="translate(0 4.616)" fill="none" stroke="#fff" stroke-width="2.8"/></g><g transform="translate(45.511 0)"><path d="M0,19.6H20.48m2.276,0h20.48" transform="translate(0 -19.6)" fill="none" stroke="#fff" stroke-width="5.6"/><path d="M0,1.138H29.582M1.138,11.378V5.689h9.1V10.24h9.1V5.689H13.653m-9.1,4.551H6.827m22.756,0H23.893V5.689H33M33,0V10.24h9.1V0M37.547,0V10.24" transform="translate(0 4.616)" fill="none" stroke="#fff" stroke-width="2.8"/></g></g><g transform="translate(90.578 115.647)"><g transform="translate(0 0)"><path d="M0,19.6H20.48m2.276,0h20.48" transform="translate(0 -19.6)" fill="none" stroke="#fff" stroke-width="5.6"/><path d="M0,1.138H29.582M1.138,11.378V5.689h9.1V10.24h9.1V5.689H13.653m-9.1,4.551H6.827m22.756,0H23.893V5.689H33M33,0V10.24h9.1V0M37.547,0V10.24" transform="translate(0 4.616)" fill="none" stroke="#fff" stroke-width="2.8"/></g><g transform="translate(45.511 0)"><path d="M0,19.6H20.48m2.276,0h20.48" transform="translate(0 -19.6)" fill="none" stroke="#fff" stroke-width="5.6"/><path d="M0,1.138H29.582M1.138,11.378V5.689h9.1V10.24h9.1V5.689H13.653m-9.1,4.551H6.827m22.756,0H23.893V5.689H33M33,0V10.24h9.1V0M37.547,0V10.24" transform="translate(0 4.616)" fill="none" stroke="#fff" stroke-width="2.8"/></g></g><g transform="translate(181.156 115.647)"><g transform="translate(0 0)"><path d="M0,19.6H20.48m2.276,0h20.48" transform="translate(0 -19.6)" fill="none" stroke="#fff" stroke-width="5.6"/><path d="M0,1.138H29.582M1.138,11.378V5.689h9.1V10.24h9.1V5.689H13.653m-9.1,4.551H6.827m22.756,0H23.893V5.689H33M33,0V10.24h9.1V0M37.547,0V10.24" transform="translate(0 4.616)" fill="none" stroke="#fff" stroke-width="2.8"/></g><g transform="translate(45.511 0)"><path d="M0,19.6H20.48m2.276,0h20.48" transform="translate(0 -19.6)" fill="none" stroke="#fff" stroke-width="5.6"/><path d="M0,1.138H29.582M1.138,11.378V5.689h9.1V10.24h9.1V5.689H13.653m-9.1,4.551H6.827m22.756,0H23.893V5.689H33M33,0V10.24h9.1V0M37.547,0V10.24" transform="translate(0 4.616)" fill="none" stroke="#fff" stroke-width="2.8"/></g></g><g transform="translate(271.733 115.647)"><g transform="translate(0 0)"><path d="M0,19.6H20.48m2.276,0h20.48" transform="translate(0 -19.6)" fill="none" stroke="#fff" stroke-width="5.6"/><path d="M0,1.138H29.582M1.138,11.378V5.689h9.1V10.24h9.1V5.689H13.653m-9.1,4.551H6.827m22.756,0H23.893V5.689H33M33,0V10.24h9.1V0M37.547,0V10.24" transform="translate(0 4.616)" fill="none" stroke="#fff" stroke-width="2.8"/></g><g transform="translate(45.511 0)"><path d="M0,19.6H20.48m2.276,0h20.48" transform="translate(0 -19.6)" fill="none" stroke="#fff" stroke-width="5.6"/><path d="M0,1.138H29.582M1.138,11.378V5.689h9.1V10.24h9.1V5.689H13.653m-9.1,4.551H6.827m22.756,0H23.893V5.689H33M33,0V10.24h9.1V0M37.547,0V10.24" transform="translate(0 4.616)" fill="none" stroke="#fff" stroke-width="2.8"/></g></g><g transform="translate(362.089 115.647)"><g transform="translate(0 0)"><path d="M0,19.6H20.48m2.276,0h20.48" transform="translate(0 -19.6)" fill="none" stroke="#fff" stroke-width="5.6"/><path d="M0,1.138H29.582M1.138,11.378V5.689h9.1V10.24h9.1V5.689H13.653m-9.1,4.551H6.827m22.756,0H23.893V5.689H33M33,0V10.24h9.1V0M37.547,0V10.24" transform="translate(0 4.616)" fill="none" stroke="#fff" stroke-width="2.8"/></g><g transform="translate(45.511 0)"><path d="M0,19.6H20.48m2.276,0h20.48" transform="translate(0 -19.6)" fill="none" stroke="#fff" stroke-width="5.6"/><path d="M0,1.138H29.582M1.138,11.378V5.689h9.1V10.24h9.1V5.689H13.653m-9.1,4.551H6.827m22.756,0H23.893V5.689H33M33,0V10.24h9.1V0M37.547,0V10.24" transform="translate(0 4.616)" fill="none" stroke="#fff" stroke-width="2.8"/></g></g><g transform="translate(453.111 115.647)"><path d="M0,19.6H20.48m2.276,0h20.48" transform="translate(0 -19.6)" fill="none" stroke="#fff" stroke-width="5.6"/><path d="M0,1.138H29.582M1.138,11.378V5.689h9.1V10.24h9.1V5.689H13.653m-9.1,4.551H6.827m22.756,0H23.893V5.689H33M33,0V10.24h9.1V0M37.547,0V10.24" transform="translate(0 4.616)" fill="none" stroke="#fff" stroke-width="2.8"/></g><path d="M0,1.138H29.582M1.138,11.378V5.689h9.1V10.24h9.1V5.689H13.653m-9.1,4.551H6.827m22.756,0H23.893V5.689H33M33,0V10.24h9.1V0M37.547,0V10.24" fill="none" stroke="#fff" stroke-width="2.8"/><path d="M0,19.6H20.48m2.276,0h20.48" transform="translate(0 -3.671)" fill="none" stroke="#fff" stroke-width="5.6"/><g transform="translate(45.511)"><path d="M0,1.138H29.582M1.138,11.378V5.689h9.1V10.24h9.1V5.689H13.653m-9.1,4.551H6.827m22.756,0H23.893V5.689H33M33,0V10.24h9.1V0M37.547,0V10.24" fill="none" stroke="#fff" stroke-width="2.8"/><path d="M0,19.6H20.48m2.276,0h20.48" transform="translate(0 -3.671)" fill="none" stroke="#fff" stroke-width="5.6"/><g transform="translate(45.511)"><path d="M0,1.138H29.582M1.138,11.378V5.689h9.1V10.24h9.1V5.689H13.653m-9.1,4.551H6.827m22.756,0H23.893V5.689H33M33,0V10.24h9.1V0M37.547,0V10.24" fill="none" stroke="#fff" stroke-width="2.8"/><path d="M0,19.6H20.48m2.276,0h20.48" transform="translate(0 -3.671)" fill="none" stroke="#fff" stroke-width="5.6"/></g><g transform="translate(91.022)"><path d="M0,1.138H29.582M1.138,11.378V5.689h9.1V10.24h9.1V5.689H13.653m-9.1,4.551H6.827m22.756,0H23.893V5.689H33M33,0V10.24h9.1V0M37.547,0V10.24" fill="none" stroke="#fff" stroke-width="2.8"/><path d="M0,19.6H20.48m2.276,0h20.48" transform="translate(0 -3.671)" fill="none" stroke="#fff" stroke-width="5.6"/></g></g><g transform="translate(181.044)"><g transform="translate(0)"><path d="M0,1.138H29.582M1.138,11.378V5.689h9.1V10.24h9.1V5.689H13.653m-9.1,4.551H6.827m22.756,0H23.893V5.689H33M33,0V10.24h9.1V0M37.547,0V10.24" fill="none" stroke="#fff" stroke-width="2.8"/><path d="M0,19.6H20.48m2.276,0h20.48" transform="translate(0 -3.671)" fill="none" stroke="#fff" stroke-width="5.6"/></g><g transform="translate(45.511)"><path d="M0,1.138H29.582M1.138,11.378V5.689h9.1V10.24h9.1V5.689H13.653m-9.1,4.551H6.827m22.756,0H23.893V5.689H33M33,0V10.24h9.1V0M37.547,0V10.24" fill="none" stroke="#fff" stroke-width="2.8"/><path d="M0,19.6H20.48m2.276,0h20.48" transform="translate(0 -3.671)" fill="none" stroke="#fff" stroke-width="5.6"/></g><g transform="translate(91.022)"><path d="M0,1.138H29.582M1.138,11.378V5.689h9.1V10.24h9.1V5.689H13.653m-9.1,4.551H6.827m22.756,0H23.893V5.689H33M33,0V10.24h9.1V0M37.547,0V10.24" fill="none" stroke="#fff" stroke-width="2.8"/><path d="M0,19.6H20.48m2.276,0h20.48" transform="translate(0 -3.671)" fill="none" stroke="#fff" stroke-width="5.6"/></g></g><g transform="translate(316.578)"><path d="M0,1.138H29.582M1.138,11.378V5.689h9.1V10.24h9.1V5.689H13.653m-9.1,4.551H6.827m22.756,0H23.893V5.689H33M33,0V10.24h9.1V0M37.547,0V10.24" fill="none" stroke="#fff" stroke-width="2.8"/><path d="M0,19.6H20.48m2.276,0h20.48" transform="translate(0 -3.671)" fill="none" stroke="#fff" stroke-width="5.6"/><g transform="translate(45.511)"><path d="M0,1.138H29.582M1.138,11.378V5.689h9.1V10.24h9.1V5.689H13.653m-9.1,4.551H6.827m22.756,0H23.893V5.689H33M33,0V10.24h9.1V0M37.547,0V10.24" fill="none" stroke="#fff" stroke-width="2.8"/><path d="M0,19.6H20.48m2.276,0h20.48" transform="translate(0 -3.671)" fill="none" stroke="#fff" stroke-width="5.6"/><g transform="translate(45.511)"><path d="M0,1.138H29.582M1.138,11.378V5.689h9.1V10.24h9.1V5.689H13.653m-9.1,4.551H6.827m22.756,0H23.893V5.689H33M33,0V10.24h9.1V0M37.547,0V10.24" fill="none" stroke="#fff" stroke-width="2.8"/><path d="M0,19.6H20.48m2.276,0h20.48" transform="translate(0 -3.671)" fill="none" stroke="#fff" stroke-width="5.6"/></g><g transform="translate(91.022)"><path d="M0,1.138H29.582M1.138,11.378V5.689h9.1V10.24h9.1V5.689H13.653m-9.1,4.551H6.827m22.756,0H23.893V5.689H33M33,0V10.24h9.1V0M37.547,0V10.24" fill="none" stroke="#fff" stroke-width="2.8"/><path d="M0,19.6H20.48m2.276,0h20.48" transform="translate(0 -3.671)" fill="none" stroke="#fff" stroke-width="5.6"/></g></g></g></g><g transform="translate(218.432 110.895)"><g transform="translate(16.526)"><path d="M-24.667,24.5A33.355,33.355,0,0,0,14.713,9.128,33.355,33.355,0,0,0,7.4-32.507,36.571,36.571,0,0,1,8.97,5.9,36.571,36.571,0,0,1-24.667,24.5" transform="translate(24.667 41.479)" fill="#f23b27"/><path d="M26.167,17.943A27.938,27.938,0,0,0,39.855-10.126,27.938,27.938,0,0,0,18.974-33.347,36.571,36.571,0,0,1,33.214-9.2a36.571,36.571,0,0,1-7.047,27.138" transform="translate(16.493 41.636)" fill="#f23b27"/><path d="M-.421,29.936-2.25-6.636-.421-35.428A11.337,11.337,0,0,0,3.9-31.8v21.5L2.424,26.019Z" transform="translate(20.468 42.026)" fill="#f23b27"/><path d="M-.9-39.242l.731.687a5.278,5.278,0,0,0,6.83,1.6,5.278,5.278,0,0,0,2.389-6.6,4.989,4.989,0,0,1-4.062,3.992A4.989,4.989,0,0,1-.169-41.972" transform="translate(20.215 43.547)" fill="#f23b27"/></g><g transform="translate(56.619 71.962) rotate(180)"><path d="M0,1.637A33.355,33.355,0,0,1,32.062,58.643,36.571,36.571,0,0,0,0,1.637" transform="translate(0 4.347)" fill="#f23b27"/><path d="M7.193,0A27.938,27.938,0,0,1,20.881,28.069,27.938,27.938,0,0,1,0,51.29,36.571,36.571,0,0,0,14.24,27.138,36.571,36.571,0,0,0,7.193,0" transform="translate(35.467 12.383)" fill="#f23b27"/><path d="M1.829,0,0,36.571,1.829,65.363A11.337,11.337,0,0,1,6.145,61.74v-21.5L4.674,3.917Z" transform="translate(18.218)" fill="#f23b27"/><path d="M0,2.929l.731-.687A5.278,5.278,0,0,1,9.95,7.233,4.989,4.989,0,0,0,.731,5.658" transform="translate(19.315 64.728)" fill="#f23b27"/></g></g></g></svg>