<svg xmlns="http://www.w3.org/2000/svg" width="512" height="300"><defs><clipPath id="a"><path d="M0 0h512v300H0z"/></clipPath></defs><g clip-path="url(#a)"><path fill="#f23b27" d="M0 0h512v300H0Z" data-name="Path 831"/><path fill="#fff" d="M0 0h512v195H0z" data-name="Rectangle 17"/><path fill="#3ca469" d="M0 0h512v98H0z" data-name="Rectangle 18"/><g data-name="Group 123"><g fill="none" stroke="#fff" data-name="Group 128"><g data-name="Group 127"><path stroke-width="5.6" d="M6.827 197.242h20.48m2.276 0h20.48" data-name="Path 813"/><path stroke-width="2.8" d="M6.827 202.996h29.582m-28.444 10.24v-5.689h9.1v4.551h9.1v-4.551H20.48m-9.1 4.551h2.274m22.756 0h-5.69v-4.551h9.107m0-5.689v10.24h9.1v-10.24m-4.553 0v10.24" data-name="Path 814"/></g><g data-name="Group 126"><path stroke-width="5.6" d="M52.338 197.242h20.48m2.276 0h20.48" data-name="Path 815"/><path stroke-width="2.8" d="M52.338 202.996H81.92m-28.444 10.24v-5.689h9.1v4.551h9.1v-4.551h-5.685m-9.1 4.551h2.274m22.756 0h-5.69v-4.551h9.107m0-5.689v10.24h9.1v-10.24m-4.553 0v10.24" data-name="Path 816"/></g></g><g fill="none" stroke="#fff" data-name="Group 129"><g data-name="Group 127"><path stroke-width="5.6" d="M97.405 197.242h20.48m2.276 0h20.48" data-name="Path 813"/><path stroke-width="2.8" d="M97.405 202.996h29.582m-28.444 10.24v-5.689h9.1v4.551h9.1v-4.551h-5.685m-9.1 4.551h2.274m22.756 0h-5.69v-4.551h9.107m0-5.689v10.24h9.1v-10.24m-4.553 0v10.24" data-name="Path 814"/></g><g data-name="Group 126"><path stroke-width="5.6" d="M142.916 197.242h20.48m2.276 0h20.48" data-name="Path 815"/><path stroke-width="2.8" d="M142.916 202.996h29.582m-28.444 10.24v-5.689h9.1v4.551h9.1v-4.551h-5.685m-9.1 4.551h2.274m22.756 0h-5.69v-4.551h9.107m0-5.689v10.24h9.1v-10.24m-4.553 0v10.24" data-name="Path 816"/></g></g><g fill="none" stroke="#fff" data-name="Group 130"><g data-name="Group 127"><path stroke-width="5.6" d="M187.983 197.242h20.48m2.276 0h20.48" data-name="Path 813"/><path stroke-width="2.8" d="M187.983 202.996h29.582m-28.444 10.24v-5.689h9.1v4.551h9.1v-4.551h-5.685m-9.1 4.551h2.274m22.756 0h-5.69v-4.551h9.107m0-5.689v10.24h9.1v-10.24m-4.553 0v10.24" data-name="Path 814"/></g><g data-name="Group 126"><path stroke-width="5.6" d="M233.494 197.242h20.48m2.276 0h20.48" data-name="Path 815"/><path stroke-width="2.8" d="M233.494 202.996h29.582m-28.444 10.24v-5.689h9.1v4.551h9.1v-4.551h-5.685m-9.1 4.551h2.274m22.756 0h-5.69v-4.551h9.107m0-5.689v10.24h9.1v-10.24m-4.553 0v10.24" data-name="Path 816"/></g></g><g fill="none" stroke="#fff" data-name="Group 131"><g data-name="Group 127"><path stroke-width="5.6" d="M278.56 197.242h20.48m2.276 0h20.48" data-name="Path 813"/><path stroke-width="2.8" d="M278.56 202.996h29.582m-28.444 10.24v-5.689h9.1v4.551h9.1v-4.551h-5.685m-9.1 4.551h2.274m22.756 0h-5.69v-4.551h9.107m0-5.689v10.24h9.1v-10.24m-4.553 0v10.24" data-name="Path 814"/></g><g data-name="Group 126"><path stroke-width="5.6" d="M324.071 197.242h20.48m2.276 0h20.48" data-name="Path 815"/><path stroke-width="2.8" d="M324.071 202.996h29.582m-28.444 10.24v-5.689h9.1v4.551h9.1v-4.551h-5.685m-9.1 4.551h2.274m22.756 0h-5.69v-4.551h9.107m0-5.689v10.24h9.1v-10.24m-4.553 0v10.24" data-name="Path 816"/></g></g><g fill="none" stroke="#fff" data-name="Group 132"><g data-name="Group 127"><path stroke-width="5.6" d="M368.916 197.242h20.48m2.276 0h20.48" data-name="Path 813"/><path stroke-width="2.8" d="M368.916 202.996h29.582m-28.444 10.24v-5.689h9.1v4.551h9.1v-4.551h-5.685m-9.1 4.551h2.274m22.756 0h-5.69v-4.551h9.107m0-5.689v10.24h9.1v-10.24m-4.553 0v10.24" data-name="Path 814"/></g><g data-name="Group 126"><path stroke-width="5.6" d="M414.427 197.242h20.48m2.276 0h20.48" data-name="Path 815"/><path stroke-width="2.8" d="M414.427 202.996h29.582m-28.444 10.24v-5.689h9.1v4.551h9.1v-4.551h-5.685m-9.1 4.551h2.274m22.756 0h-5.69v-4.551h9.107m0-5.689v10.24h9.1v-10.24m-4.553 0v10.24" data-name="Path 816"/></g></g><g data-name="Group 133"><g fill="none" stroke="#fff" data-name="Group 127"><path stroke-width="5.6" d="M459.938 197.242h20.48m2.276 0h20.48" data-name="Path 813"/><path stroke-width="2.8" d="M459.938 202.996h29.582m-28.444 10.24v-5.689h9.1v4.551h9.1v-4.551h-5.685m-9.1 4.551h2.274m22.756 0h-5.69v-4.551h9.107m0-5.689v10.24h9.1v-10.24m-4.553 0v10.24" data-name="Path 814"/></g></g><g fill="none" stroke="#fff"><path stroke-width="2.8" d="M6.827 82.733h29.582M7.965 92.973v-5.689h9.1v4.551h9.1v-4.551H20.48m-9.1 4.551h2.274m22.756 0h-5.69v-4.551h9.107m0-5.689v10.24h9.1v-10.24m-4.553 0v10.24"/><path stroke-width="5.6" d="M6.827 97.524h20.48m2.276 0h20.48"/><g data-name="Group 112"><path stroke-width="2.8" d="M52.338 82.733H81.92m-28.444 10.24v-5.689h9.1v4.551h9.1v-4.551h-5.685m-9.1 4.551h2.274m22.756 0h-5.69v-4.551h9.107m0-5.689v10.24h9.1v-10.24m-4.553 0v10.24" data-name="tbp1"/><path stroke-width="5.6" d="M52.338 97.524h20.48m2.276 0h20.48" data-name="tbp2"/></g><g data-name="Group 113"><path stroke-width="2.8" d="M97.849 82.733h29.582m-28.444 10.24v-5.689h9.1v4.551h9.1v-4.551h-5.685m-9.1 4.551h2.274m22.756 0h-5.69v-4.551h9.107m0-5.689v10.24h9.1v-10.24m-4.553 0v10.24" data-name="tbp1"/><path stroke-width="5.6" d="M97.849 97.524h20.48m2.276 0h20.48" data-name="tbp2"/></g><g data-name="Group 114"><path stroke-width="2.8" d="M143.36 82.733h29.582m-28.444 10.24v-5.689h9.1v4.551h9.1v-4.551h-5.685m-9.1 4.551h2.274m22.756 0h-5.69v-4.551h9.107m0-5.689v10.24h9.1v-10.24m-4.553 0v10.24" data-name="tbp1"/><path stroke-width="5.6" d="M143.36 97.524h20.48m2.276 0h20.48" data-name="tbp2"/></g></g><g fill="none" stroke="#fff" data-name="Group 118"><g data-name="Group 115"><path stroke-width="2.8" d="M187.871 82.733h29.582m-28.444 10.24v-5.689h9.1v4.551h9.1v-4.551h-5.685m-9.1 4.551h2.274m22.756 0h-5.69v-4.551h9.107m0-5.689v10.24h9.1v-10.24m-4.553 0v10.24" data-name="tbp1"/><path stroke-width="5.6" d="M187.871 97.524h20.48m2.276 0h20.48" data-name="tbp2"/></g><g data-name="Group 116"><path stroke-width="2.8" d="M233.382 82.733h29.582m-28.444 10.24v-5.689h9.1v4.551h9.1v-4.551h-5.685m-9.1 4.551h2.274m22.756 0h-5.69v-4.551h9.107m0-5.689v10.24h9.1v-10.24m-4.553 0v10.24" data-name="tbp1"/><path stroke-width="5.6" d="M233.382 97.524h20.48m2.276 0h20.48" data-name="tbp2"/></g><g data-name="Group 117"><path stroke-width="2.8" d="M278.893 82.733h29.582m-28.444 10.24v-5.689h9.1v4.551h9.1v-4.551h-5.685m-9.1 4.551h2.274m22.756 0h-5.69v-4.551h9.107m0-5.689v10.24h9.1v-10.24m-4.553 0v10.24" data-name="tbp1"/><path stroke-width="5.6" d="M278.893 97.524h20.48m2.276 0h20.48" data-name="tbp2"/></g></g><g fill="none" stroke="#fff" data-name="Group 122"><g data-name="tb1"><path stroke-width="2.8" d="M323.405 82.733h29.582m-28.444 10.24v-5.689h9.1v4.551h9.1v-4.551h-5.685m-9.1 4.551h2.274m22.756 0h-5.69v-4.551h9.107m0-5.689v10.24h9.1v-10.24m-4.553 0v10.24" data-name="tbp1"/><path stroke-width="5.6" d="M323.405 97.524h20.48m2.276 0h20.48" data-name="tbp2"/></g><g data-name="tb3"><g data-name="Group 119"><path stroke-width="2.8" d="M368.916 82.733h29.582m-28.444 10.24v-5.689h9.1v4.551h9.1v-4.551h-5.685m-9.1 4.551h2.274m22.756 0h-5.69v-4.551h9.107m0-5.689v10.24h9.1v-10.24m-4.553 0v10.24" data-name="tbp1"/><path stroke-width="5.6" d="M368.916 97.524h20.48m2.276 0h20.48" data-name="tbp2"/></g><g data-name="Group 120"><path stroke-width="2.8" d="M414.427 82.733h29.582m-28.444 10.24v-5.689h9.1v4.551h9.1v-4.551h-5.685m-9.1 4.551h2.274m22.756 0h-5.69v-4.551h9.107m0-5.689v10.24h9.1v-10.24m-4.553 0v10.24" data-name="tbp1"/><path stroke-width="5.6" d="M414.427 97.524h20.48m2.276 0h20.48" data-name="tbp2"/></g><g data-name="Group 121"><path stroke-width="2.8" d="M459.938 82.733h29.582m-28.444 10.24v-5.689h9.1v4.551h9.1v-4.551h-5.685m-9.1 4.551h2.274m22.756 0h-5.69v-4.551h9.107m0-5.689v10.24h9.1v-10.24m-4.553 0v10.24" data-name="tbp1"/><path stroke-width="5.6" d="M459.938 97.524h20.48m2.276 0h20.48" data-name="tbp2"/></g></g></g></g><g fill="#f23b27" data-name="Group 125"><path d="M234.958 176.874a33.355 33.355 0 0 0 39.38-15.372 33.355 33.355 0 0 0-7.313-41.635 36.571 36.571 0 0 1 1.57 38.407 36.571 36.571 0 0 1-33.637 18.6" data-name="Path 823"/><path d="M277.618 170.474a27.938 27.938 0 0 0 13.688-28.069 27.938 27.938 0 0 0-20.881-23.221 36.571 36.571 0 0 1 14.24 24.147 36.571 36.571 0 0 1-7.047 27.138" data-name="Path 824"/><path d="m255.005 182.857-1.829-36.572 1.829-28.792a11.337 11.337 0 0 0 4.321 3.628v21.5l-1.476 36.319Z" data-name="Path 825"/><path d="m254.273 115.2.731.687a5.278 5.278 0 0 0 6.83 1.6 5.278 5.278 0 0 0 2.389-6.6 4.989 4.989 0 0 1-4.062 3.992 4.989 4.989 0 0 1-5.157-2.409" data-name="Path 826"/><g data-name="Group 124"><path d="M275.051 176.873a33.355 33.355 0 0 1-32.062-57.006 36.571 36.571 0 0 0 32.062 57.006" data-name="Path 827"/><path d="M232.391 170.474a27.938 27.938 0 0 1-13.688-28.069 27.938 27.938 0 0 1 20.881-23.221 36.571 36.571 0 0 0-14.24 24.152 36.571 36.571 0 0 0 7.047 27.138" data-name="Path 828"/><path d="m255.004 182.857 1.829-36.571-1.829-28.792a11.337 11.337 0 0 1-4.316 3.623v21.5l1.471 36.323Z" data-name="Path 829"/><path d="m255.736 115.2-.731.687a5.278 5.278 0 0 1-9.219-4.991 4.989 4.989 0 0 0 9.219 1.575" data-name="Path 830"/></g></g></g></svg>