<svg xmlns="http://www.w3.org/2000/svg" width="512" height="300"><defs><clipPath id="a"><path d="M0 0h512v300H0z"/></clipPath></defs><g clip-path="url(#a)"><path fill="#e0193a" d="M0 0h512v300H0Z" data-name="Path 1093"/><path fill="#fff" d="M0 100h512v200H0Z" data-name="Path 1094"/><path fill="#424242" d="M0 200h512v100H0Z" data-name="Path 1095"/><g fill="#358142" data-name="Group 156" transform="translate(166.326 120.422)"><path d="M133.541 10.867a5.454 5.454 0 0 1-1.527-1.154c-.344-.48-.145-.5 1.273-.114 2.538.689 4.176.419 5.8-.956l1.432-1.208 1.686.858a5.326 5.326 0 0 0 2.2.718 4.823 4.823 0 0 0 2.2-2.807c-.059-.831.643-.622.981.289a3.254 3.254 0 0 1-2.042 4.29 4.67 4.67 0 0 1-2.911-.308c-1.574-.55-1.844-.541-2.633.064a5.965 5.965 0 0 1-6.459.328Z" data-name="Path 1096"/><path d="M139.819 5.128a8.836 8.836 0 0 1-1.118-4.476c.21-.631.428-.757 1-.577 1.005.314 1.237 1.007 1.087 3.355-.117 1.913-.4 2.415-.97 1.7Z" data-name="Path 1097"/><path d="M65.897 2.997c-.2 1.435 2.546 5 3.786 5.647-.843.378-1.892.206-2.665.631-4.323 4.323-20.11 19.715-22.993 23.393 8.539.169 18.009-.116 26.016-.482-.008-5.8 5.494-6.1 9.176-8.214 1.894 2.984 6.651 2.755 7.246 7.245 0 5.376.01 13.475.01 19.32H13.526c-1.283 5.667-6.4 9.991-13.526 8.212 2.205-2.3 5.918-3.1 7.247-6.278 1.121-6.969-2.24-11.273-4.413-15.226a26.277 26.277 0 0 0 7.8-4.092c-2.566 7.8 6.669 6.939 13.525 6.761.231-2.646.1-5.771-1.934-6.158 2.623-.953 3.059-1.279 7.247-4.831v10.5c16.3 0 33.878-.122 50.517-.122 0-3.287.87-8.566-1.731-8.566-2.484 0-.117 6.759-2.047 6.759H37.196c0-1.454-.037-4.493-.037-6.683 1.653-1.653 1.457-1.51 12.753-12.807 1.126-1.129 9.05-8.286 15.984-15.014Z" data-name="Path 1098"/><path d="M163.407 2.719c2.723 1.466 4.88 3.494 8.214 4.349-.388 1.381-1.616 1.926-1.938 3.38v29.463c3.725.821 4.509-1.29 6.281-2.414.484 4.716 3.488 9.338 3.381 13.04h-15.94V2.719Z" data-name="Path 1099"/><path d="M142.154 18.499s5.8-4.9 5.8-5.084v25.712l4.176-.007c0-9.8-.129-19.732-.129-28.837 1.695-1.7 5.015-4.151 5.845-5.866v46.051c-11.766 0-33.715.013-36.616.013-.54-9.557-.632-19.457 10.511-17.328v-3.9c-.34-.667-.95.161-1.093-.706 1.768-1.77 2.368-2.222 7.158-6.407 0 5.05.088 16.971.088 16.971h4.223s.039-19.956.039-20.616ZM128.41 38.867c.784 1.177 3.453 1.156 3.328-.827-.45-1.635-3.959-1.012-3.329.827Z" data-name="Path 1100"/><circle cx="2.236" cy="2.236" r="2.236" data-name="Ellipse 128" transform="translate(20.176 53.731)"/><path d="M91.413 2.766c2.724 1.466 4.88 3.494 8.214 4.348-.386 1.38-1.616 1.927-1.936 3.38v29.465c3.724.82 4.508-1.292 6.28-2.415.483 4.717 3.487 9.337 3.381 13.04H91.411q.003-23.907.002-47.818Z" data-name="Path 1101"/></g></g></svg>