<svg xmlns="http://www.w3.org/2000/svg" xmlns:xlink="http://www.w3.org/1999/xlink" width="512" height="300" viewBox="0 0 512 300"><defs><clipPath id="b"><rect width="512" height="300"/></clipPath></defs><g id="a" clip-path="url(#b)"><g transform="translate(0 441.824)"><path d="M0-441.824H512v300H0Z" fill="#e0193a"/><path d="M0-241.824H512v200H0Z" transform="translate(0 -100)" fill="#fff"/><path d="M0-41.823H512v100H0Z" transform="translate(0 -200.001)" fill="#424242"/><g transform="translate(166.326 -321.402)"><path d="M537.069,257.979a5.454,5.454,0,0,1-1.527-1.154c-.344-.48-.145-.5,1.273-.114,2.538.689,4.176.419,5.8-.956l1.432-1.208,1.686.858a5.326,5.326,0,0,0,2.2.718,4.823,4.823,0,0,0,2.2-2.807c-.059-.831.643-.622.981.289a3.254,3.254,0,0,1-2.042,4.29,4.67,4.67,0,0,1-2.911-.308c-1.574-.55-1.844-.541-2.633.064A5.965,5.965,0,0,1,537.069,257.979Z" transform="translate(-403.528 -247.112)" fill="#358142"/><path d="M550.135,246.557a8.836,8.836,0,0,1-1.118-4.476c.21-.631.428-.757,1-.577,1.005.314,1.237,1.007,1.087,3.355-.117,1.913-.4,2.415-.97,1.7Z" transform="translate(-410.316 -241.429)" fill="#358142"/><path d="M337.557,247.423c-.2,1.435,2.546,5,3.786,5.647-.843.378-1.892.206-2.665.631-4.323,4.323-20.11,19.715-22.993,23.393,8.539.169,18.009-.116,26.016-.482-.008-5.8,5.494-6.1,9.176-8.214,1.894,2.984,6.651,2.755,7.246,7.245,0,5.376.01,13.475.01,19.32H285.186c-1.283,5.667-6.4,9.991-13.526,8.212,2.205-2.3,5.918-3.1,7.247-6.278,1.121-6.969-2.24-11.273-4.413-15.226a26.277,26.277,0,0,0,7.8-4.092c-2.566,7.8,6.669,6.939,13.525,6.761.231-2.646.1-5.771-1.934-6.158,2.623-.953,3.059-1.279,7.247-4.831v10.5c16.3,0,33.878-.122,50.517-.122,0-3.287.87-8.566-1.731-8.566-2.484,0-.117,6.759-2.047,6.759H308.856c0-1.454-.037-4.493-.037-6.683,1.653-1.653,1.457-1.51,12.753-12.807,1.126-1.129,9.05-8.286,15.984-15.014Z" transform="translate(-271.66 -244.426)" fill="#358142"/><path d="M598.473,246.867c2.723,1.466,4.88,3.494,8.214,4.349-.388,1.381-1.616,1.926-1.938,3.38v29.463c3.725.821,4.509-1.29,6.281-2.414.484,4.716,3.488,9.338,3.381,13.04h-15.94q0-23.9,0-47.818Z" transform="translate(-435.066 -244.148)" fill="#358142"/><path d="M534.856,264.345s5.8-4.9,5.8-5.084v25.712l4.176-.007c0-9.8-.129-19.732-.129-28.837,1.695-1.7,5.015-4.151,5.845-5.866v46.051c-11.766,0-33.715.013-36.616.013-.54-9.557-.632-19.457,10.511-17.328v-3.9c-.34-.667-.95.161-1.093-.706,1.768-1.77,2.368-2.222,7.158-6.407,0,5.05.088,16.971.088,16.971,1.172,0,3.452,0,4.223,0,0,0,.039-19.956.039-20.616Zm-13.744,20.368c.784,1.177,3.453,1.156,3.328-.827C523.99,282.251,520.481,282.874,521.111,284.713Z" transform="translate(-392.702 -245.846)" fill="#358142"/><ellipse cx="2.236" cy="2.236" rx="2.236" ry="2.236" transform="translate(20.176 53.731)" fill="#358142"/><path d="M454.484,246.961c2.724,1.466,4.88,3.494,8.214,4.348-.386,1.38-1.616,1.927-1.936,3.38v29.465c3.724.82,4.508-1.292,6.28-2.415.483,4.717,3.487,9.337,3.381,13.04H454.482Q454.485,270.872,454.484,246.961Z" transform="translate(-363.071 -244.195)" fill="#358142"/></g></g></g></svg>