<svg xmlns="http://www.w3.org/2000/svg" xmlns:xlink="http://www.w3.org/1999/xlink" width="512" height="300" viewBox="0 0 512 300"><defs><clipPath id="b"><rect width="512" height="300"/></clipPath></defs><g id="a" clip-path="url(#b)"><path d="M0,0H512V300H0Z" fill="#34bbe0"/><g transform="translate(187.158 40.077)"><circle cx="34.445" cy="34.445" r="34.445" transform="translate(54.998 54.998)" fill="#fcd93a"/><g transform="translate(13.378 13.378)"><g transform="translate(22.279 22.279)"><path d="M-2.684-90.407A2.584,2.584,0,0,0,.132-93.248c0-2.048-2.816-11.8-2.816-11.8S-5.5-95.3-5.5-93.248A2.573,2.573,0,0,0-2.684-90.407Z" transform="translate(56.47 105.05)" fill="#fcd93a"/><path d="M2.816,14.643A2.584,2.584,0,0,0,5.632,11.8C5.632,9.754,2.816,0,2.816,0S0,9.754,0,11.8A2.573,2.573,0,0,0,2.816,14.643Z" transform="translate(107.571 50.97) rotate(90)" fill="#fcd93a"/><path d="M2.816,14.643A2.584,2.584,0,0,0,5.632,11.8C5.632,9.754,2.816,0,2.816,0S0,9.754,0,11.8A2.573,2.573,0,0,0,2.816,14.643Z" transform="translate(56.602 107.571) rotate(180)" fill="#fcd93a"/><path d="M2.816,14.643A2.584,2.584,0,0,0,5.632,11.8C5.632,9.754,2.816,0,2.816,0S0,9.754,0,11.8A2.573,2.573,0,0,0,2.816,14.643Z" transform="translate(0 56.602) rotate(-90)" fill="#fcd93a"/></g><g transform="matrix(0.924, 0.383, -0.383, 0.924, 46.956, 5.791)"><path d="M2.816,14.643A2.584,2.584,0,0,0,5.632,11.8C5.632,9.754,2.816,0,2.816,0S0,9.754,0,11.8A2.573,2.573,0,0,0,2.816,14.643Z" transform="translate(50.97)" fill="#fcd93a"/><path d="M2.816,14.643A2.584,2.584,0,0,0,5.632,11.8C5.632,9.754,2.816,0,2.816,0S0,9.754,0,11.8A2.573,2.573,0,0,0,2.816,14.643Z" transform="translate(107.571 50.97) rotate(90)" fill="#fcd93a"/><path d="M2.816,14.643A2.584,2.584,0,0,0,5.632,11.8C5.632,9.754,2.816,0,2.816,0S0,9.754,0,11.8A2.573,2.573,0,0,0,2.816,14.643Z" transform="translate(56.602 107.571) rotate(180)" fill="#fcd93a"/><path d="M2.816,14.643A2.584,2.584,0,0,0,5.632,11.8C5.632,9.754,2.816,0,2.816,0S0,9.754,0,11.8A2.573,2.573,0,0,0,2.816,14.643Z" transform="translate(0 56.602) rotate(-90)" fill="#fcd93a"/></g><g transform="translate(76.065 0) rotate(45)"><path d="M2.816,14.643A2.584,2.584,0,0,0,5.632,11.8C5.632,9.754,2.816,0,2.816,0S0,9.754,0,11.8A2.574,2.574,0,0,0,2.816,14.643Z" transform="translate(50.97)" fill="#fcd93a"/><path d="M2.816,14.643A2.584,2.584,0,0,0,5.632,11.8C5.632,9.754,2.816,0,2.816,0S0,9.754,0,11.8A2.574,2.574,0,0,0,2.816,14.643Z" transform="translate(107.572 50.97) rotate(90)" fill="#fcd93a"/><path d="M2.816,14.643A2.584,2.584,0,0,0,5.632,11.8C5.632,9.754,2.816,0,2.816,0S0,9.754,0,11.8A2.574,2.574,0,0,0,2.816,14.643Z" transform="translate(56.602 107.572) rotate(180)" fill="#fcd93a"/><path d="M2.816,14.643A2.584,2.584,0,0,0,5.632,11.8C5.632,9.754,2.816,0,2.816,0S0,9.754,0,11.8A2.574,2.574,0,0,0,2.816,14.643Z" transform="translate(0 56.602) rotate(-90)" fill="#fcd93a"/></g><g transform="matrix(0.383, 0.924, -0.924, 0.383, 105.173, 5.791)"><path d="M2.816,14.643A2.584,2.584,0,0,0,5.632,11.8C5.632,9.754,2.816,0,2.816,0S0,9.754,0,11.8A2.573,2.573,0,0,0,2.816,14.643Z" transform="translate(50.97 0)" fill="#fcd93a"/><path d="M2.816,14.643A2.584,2.584,0,0,0,5.632,11.8C5.632,9.754,2.816,0,2.816,0S0,9.754,0,11.8A2.573,2.573,0,0,0,2.816,14.643Z" transform="translate(107.571 50.97) rotate(90)" fill="#fcd93a"/><path d="M2.816,14.643A2.584,2.584,0,0,0,5.632,11.8C5.632,9.754,2.816,0,2.816,0S0,9.754,0,11.8A2.573,2.573,0,0,0,2.816,14.643Z" transform="translate(56.602 107.571) rotate(180)" fill="#fcd93a"/><path d="M2.816,14.643A2.584,2.584,0,0,0,5.632,11.8C5.632,9.754,2.816,0,2.816,0S0,9.754,0,11.8A2.573,2.573,0,0,0,2.816,14.643Z" transform="translate(0 56.602) rotate(-90)" fill="#fcd93a"/></g></g><g transform="translate(29.679 0) rotate(11.25)"><g transform="translate(22.279 22.279)"><path d="M2.816,14.643A2.584,2.584,0,0,0,5.632,11.8C5.632,9.754,2.816,0,2.816,0S0,9.754,0,11.8A2.574,2.574,0,0,0,2.816,14.643Z" transform="translate(50.97)" fill="#fcd93a"/><path d="M2.816,14.643A2.584,2.584,0,0,0,5.632,11.8C5.632,9.754,2.816,0,2.816,0S0,9.754,0,11.8A2.574,2.574,0,0,0,2.816,14.643Z" transform="translate(107.572 50.97) rotate(90)" fill="#fcd93a"/><path d="M2.816,14.643A2.584,2.584,0,0,0,5.632,11.8C5.632,9.754,2.816,0,2.816,0S0,9.754,0,11.8A2.574,2.574,0,0,0,2.816,14.643Z" transform="translate(56.602 107.572) rotate(180)" fill="#fcd93a"/><path d="M2.816,14.643A2.584,2.584,0,0,0,5.632,11.8C5.632,9.754,2.816,0,2.816,0S0,9.754,0,11.8A2.574,2.574,0,0,0,2.816,14.643Z" transform="translate(0 56.602) rotate(-90)" fill="#fcd93a"/></g><g transform="matrix(0.924, 0.383, -0.383, 0.924, 46.956, 5.791)"><path d="M2.816,14.643A2.584,2.584,0,0,0,5.632,11.8C5.632,9.754,2.816,0,2.816,0S0,9.754,0,11.8A2.574,2.574,0,0,0,2.816,14.643Z" transform="translate(50.97)" fill="#fcd93a"/><path d="M2.816,14.643A2.584,2.584,0,0,0,5.632,11.8C5.632,9.754,2.816,0,2.816,0S0,9.754,0,11.8A2.574,2.574,0,0,0,2.816,14.643Z" transform="translate(107.572 50.97) rotate(90)" fill="#fcd93a"/><path d="M2.816,14.643A2.584,2.584,0,0,0,5.632,11.8C5.632,9.754,2.816,0,2.816,0S0,9.754,0,11.8A2.574,2.574,0,0,0,2.816,14.643Z" transform="translate(56.602 107.572) rotate(180)" fill="#fcd93a"/><path d="M2.816,14.643A2.584,2.584,0,0,0,5.632,11.8C5.632,9.754,2.816,0,2.816,0S0,9.754,0,11.8A2.574,2.574,0,0,0,2.816,14.643Z" transform="translate(0 56.602) rotate(-90)" fill="#fcd93a"/></g><g transform="translate(76.065 0) rotate(45)"><path d="M2.816,14.643A2.584,2.584,0,0,0,5.632,11.8C5.632,9.754,2.816,0,2.816,0S0,9.754,0,11.8A2.574,2.574,0,0,0,2.816,14.643Z" transform="translate(50.97)" fill="#fcd93a"/><path d="M2.816,14.643A2.584,2.584,0,0,0,5.632,11.8C5.632,9.754,2.816,0,2.816,0S0,9.754,0,11.8A2.574,2.574,0,0,0,2.816,14.643Z" transform="translate(107.572 50.97) rotate(90)" fill="#fcd93a"/><path d="M2.816,14.643A2.584,2.584,0,0,0,5.632,11.8C5.632,9.754,2.816,0,2.816,0S0,9.754,0,11.8A2.574,2.574,0,0,0,2.816,14.643Z" transform="translate(56.602 107.572) rotate(180)" fill="#fcd93a"/><path d="M2.816,14.643A2.584,2.584,0,0,0,5.632,11.8C5.632,9.754,2.816,0,2.816,0S0,9.754,0,11.8A2.574,2.574,0,0,0,2.816,14.643Z" transform="translate(0 56.602) rotate(-90)" fill="#fcd93a"/></g><g transform="matrix(0.383, 0.924, -0.924, 0.383, 105.174, 5.791)"><path d="M2.816,14.643A2.584,2.584,0,0,0,5.632,11.8C5.632,9.754,2.816,0,2.816,0S0,9.754,0,11.8A2.574,2.574,0,0,0,2.816,14.643Z" transform="translate(50.97)" fill="#fcd93a"/><path d="M2.816,14.643A2.584,2.584,0,0,0,5.632,11.8C5.632,9.754,2.816,0,2.816,0S0,9.754,0,11.8A2.574,2.574,0,0,0,2.816,14.643Z" transform="translate(107.572 50.97) rotate(90)" fill="#fcd93a"/><path d="M2.816,14.643A2.584,2.584,0,0,0,5.632,11.8C5.632,9.754,2.816,0,2.816,0S0,9.754,0,11.8A2.574,2.574,0,0,0,2.816,14.643Z" transform="translate(56.602 107.572) rotate(180)" fill="#fcd93a"/><path d="M2.816,14.643A2.584,2.584,0,0,0,5.632,11.8C5.632,9.754,2.816,0,2.816,0S0,9.754,0,11.8A2.574,2.574,0,0,0,2.816,14.643Z" transform="translate(0 56.602) rotate(-90)" fill="#fcd93a"/></g></g></g><g transform="translate(196.676 134.635)"><path d="M512.977,355.733a10.683,10.683,0,0,0-2.7.452c-1.2.162-2.355.58-3.55.777l-.478.077-.8.077a2.964,2.964,0,0,1,.085.666,2.155,2.155,0,0,1-.085.64,1.559,1.559,0,0,1-.341.538,1.878,1.878,0,0,1-.563.452,1.777,1.777,0,0,1-.666.162,1.733,1.733,0,0,1-.691-.085,1.937,1.937,0,0,1-.64-.392,5.526,5.526,0,0,1-.717.128,2.968,2.968,0,0,1-.674,0,7.141,7.141,0,0,1-.717-.239,4.132,4.132,0,0,1-.666-.35,6.085,6.085,0,0,0-2.372,1.894,2.854,2.854,0,0,0-.427,1.365,3.725,3.725,0,0,0,.367,1.784c.094.162.171-.589.461-.691a4.528,4.528,0,0,1,1.707-.853c.52-.265.452.017.239.426-.051.214-.341,1.024.051.614a16.649,16.649,0,0,1,5.521-1.067c2.714-.282,5.436-.341,8.158-.376,2.56.034,5.12.068,7.68.162a18.7,18.7,0,0,0,3.652.1c.29-.077.742-.094.913-.264a4.615,4.615,0,0,0-1.792-.4h-4.881a14.756,14.756,0,0,1-4.053-.666c-.342-.136-.657-.461-.982-.111a5.562,5.562,0,0,1-4.139-.128c.6-.828,1.314-1.553,1.971-2.321-.529-.085-1.041-.2-1.57-.324.93-.64,1.792-1.366,2.7-2.048Z" transform="translate(-439.197 -286.233)" fill="#fcd93a"/><path d="M555.493,298.334c-1.855,1.114-3.27-.861-4.821-1.453-1.107.6-1.211,2.613-2.245,3.566-1.238,1.409-2.755-.393-2.642-1.783-1.48,1.248-2.229,4.076-4.623,3.7-1.134-.925-1.977-2.867-2.843-.656-.707,1.081-2.588,2.619-3.562.987-.3-1.441-1.024-3.136-1.808-.847a3.051,3.051,0,0,1-3.937,2.1c-.915-.748.733-3.514-.431-3.317-1.741,1.151-2.753,4.008-5.182,3.78-.943-1.059.572-2.853-.462-4.028-1.221,1.568-2.576,3.863-4.689,4.028-1.021-.827.04-3.2-.612-3.551-2.168,1.3-4.455,3.617-7.181,2.891,1.062-4.064,5.5-5.489,9.235-5.806,6.423-.79,13.18.662,19.36-1.656,1-.607,3.418-1.469,2.556-2.878-.763-1.113,1.985-.678,2.249-1.977-.164-1.646,1.261-1.419,2.653-1.564,6.24-.269,12.4,1.045,18.626,1.268.47,3.032-2.893,5.16-5.6,4.224-1.293.21-3.232-2.973-2.852-.658-.261,1.215-.078,2.821-1.189,3.632M502.4,292.127c1.445,1.322,2.458-.249,3.808-.823,4.529-1.558,8.481-4.28,12.377-7,2.36-1.953,4.407-4.486,7.577-5.12,6.184-1.87,12.757-1.643,18.964-3.368,4.727-6.472,12.755-8.781,19.481-12.5,1.51-.469,2.094-1.712,2.576-3.084a31.068,31.068,0,0,1,10.2-10.1,9.535,9.535,0,0,1,6.507-1.2,10.856,10.856,0,0,1-3.5,6.8c1.5-.033,2.781-.978,4.292-.924.518,2.708-2.406,4.125-3.962,5.811.867.2,4.186.453,2.377,1.321-2.305,1.6-4.938,2.7-7.066,4.557,1.964.353,2.187.77.191,1.48-1.081.733-3.159.989-3.36,2.416,1.483.912-.683,1.817-1.519,2.113-1.6.372-3.276,1.066-1.154,2.28-.8,1.213-2.525,1.472-3.931,1.352.427,1.375,1.044,2.913-.74,3.52a27.584,27.584,0,0,1-13.722,5.726,29.476,29.476,0,0,0,18.118-4.1c.709-.838,4.424-1.738,2.346-2.443-.978-.407-3.076-.859-3.218-1.605,2.907-1.794,6.57-1.156,9.7-2.221.081-1.012-2.379-.731-3.3-.961-2.187-.179-2.059-.737.05-.944,2.668-.707,5.69-.846,7.934-2.585-1.827-.847-4.126-.1-6.075-.793,3.305-1.446,7.2-1.592,10.17-3.764,1.351-1.5-1.731-1.033-2.628-1-1.83.319-2.677-.558-.6-1.318,3.551-2.618,8.047-4.319,10.541-8.114.591-.85,1.391-3.41-.494-2.489-2.478.824-4.659,3.61-7.482,2.748,5.564-4.312,10.858-9.221,14.66-15.188.2-1.721-2.505-1.907-3.208-.556-3.574,3.444-6.81,7.51-11.386,9.669A71.707,71.707,0,0,0,598.095,235.3c.678-1.544,2.5-3.4,1.511-5.116-1.594-1.319-3.587-.112-4.416,1.467-2.779,3.628-4.889,7.862-8.462,10.816,3.128-5.97,6.367-12.326,6.446-19.212-.01-1.418-.294-3.506-2.219-3.241-1.526.274-1.164,2.558-1.793,3.713-1.385,4.7-2.035,9.8-4.877,13.919.639-3.823,1.758-7.808.9-11.668-.4-1.725-3.187-.983-2.828.724-3.328,16.86-14.642,31.606-29.437,40.136a63.453,63.453,0,0,1-22.041,7.425c-2.071.453-4.311.187-6.29.893-4.8,3.678-7.7,9.832-13.773,11.759-2.722,1.353-6.271,1.627-8.217,4.156a2.191,2.191,0,0,0-.2,1.057" transform="translate(-441.846 -219.991)" fill="#fcd93a"/><path d="M462.861,275.09c-.9,1.627-1.423,3.5-2.575,4.953-3.466-3.154-8.492-3.05-12.889-3.26-3.629-.194-7.576-.529-10.384-3.117-2.954-2.42-5.365-5.561-8.666-7.525a21.306,21.306,0,0,1-8.472-3.909c-5.176-4.219-8.141-10.48-13.2-14.831a29.484,29.484,0,0,0-3.182-2.49c-1.027.25-.562,2.466-1.818,1.336-.684-.486-2.393-.534-2.547.146,1.547,2.038,3.095,4.365,3.309,6.971-1.055.108-2.93-.223-3.453.17a21.57,21.57,0,0,0,5.236,5.443c-.978.157-2.906.072-3.281.466,2.025,1.65,4.2,3.337,6.847,3.761.543.715-.794,2.1.33,2.707.652.266,2.8.712,1.321,1.453a1.207,1.207,0,0,0,.66,2.245c.822.42,2.667.522,2.811,1.249-.728.741-2.995,1.62-1.066,2.314a13.317,13.317,0,0,0,5.915,1.72c-1.033.869-2.305,1.362-3.368,2.179,4.749,2.785,10.013,4.616,15.215,6.379a48.429,48.429,0,0,0,6.313,1.743,51.75,51.75,0,0,1-17.949-4.735c-2.945-1.292-5.91-2.54-8.927-3.652,1.323-.689,2.854-.857,4.226-1.453-2.849-.571-5.961-.758-8.465-2.324.384-.685,1.839-.717,2.643-1.066,1.513-.362,2.452-.8.318-.934-2.152-.584-4.62-.322-6.516-1.62.122-.778,2.107-.507,2.915-.843a6.05,6.05,0,0,0,2.963-1.006c-3.326-1.379-7.677-.4-10.283-3.339-.6-1.119,1.866-.218,2.568-.4,1.785,0,3.7.567,5.4-.152-4.847-2.128-10.039-4.12-13.736-8.057-.41-.633-1.64-2.362-.648-2.575,2.877.381,4.96,3.521,8.037,3.032.409-.551-1.788-1.454-2.336-2.242-4.487-3.851-8.842-8.029-11.987-13.073-.216-1.684,2.431-1.937,3.128-.636,3.432,3.305,6.532,7.162,10.806,9.419,1.517.735-.871-.87-1.189-1.453a76.473,76.473,0,0,1-10.469-14.831c-.494-.973-1.313-2.736.165-3.254,1.478-.74,2.944.268,3.694,1.538,2.9,3.662,5.04,8.015,8.657,11.066-3.081-5.98-6.372-12.275-6.451-19.156.072-1.334.158-3.352,1.967-3.3,1.519-.23,1.279,1.714,1.777,2.641,1.5,5.055,2.149,10.527,5.151,14.99-.663-3.75-1.639-7.612-.991-11.425a1.474,1.474,0,0,1,2.479-.874c.744,1.82.9,4.068,1.576,6.014a60.778,60.778,0,0,0,23.793,32.573,62.653,62.653,0,0,0,31.57,10.839c1.016.089,2.037.119,3.055.182" transform="translate(-384.132 -220.058)" fill="#fcd93a"/><circle cx="0.606" cy="0.606" r="0.606" transform="translate(63.838 71.306)" fill="#fcd93a"/><circle cx="0.247" cy="0.247" r="0.247" transform="translate(64.146 71.567)" fill="#fcd93a" stroke="#00afca" stroke-width="0.191"/></g><g transform="translate(15.359 36.08)"><path d="M46.572,32.088s-2.46-2.067-3.3-1.03c-1.344,1.668,4.132,9.976,4.132,12.9,0,4.8-3.2,6.108-7.161,6.794a28.124,28.124,0,0,1-6.978-.193,3.006,3.006,0,0,1,2.715-1.5A5.718,5.718,0,0,1,32.9,43.864c0-4.131,1.7-5.834,1.7-10.492,0-2.584-2.119-5.873-2.119-5.873a5.024,5.024,0,0,1,4.545,6.614,1.829,1.829,0,0,0,1.6-.489,2.77,2.77,0,0,1-.738,2.428c.467.249.809.1,1.553-.054a3.377,3.377,0,0,1-1.7,2.424,4.074,4.074,0,0,1,5.438,3.929,2.97,2.97,0,0,1-2.571,3.185,2.6,2.6,0,0,1-1.354-.423,2.1,2.1,0,0,0,.131,1.7c-.931-.246-1.523-.8-1.1-1.951a2.362,2.362,0,0,1-1.672-.768,1.992,1.992,0,0,1,1.672-.768c-.521-1.075.06-1.677.906-2.165,0,0-.538,2.165.836,2.165.618,0,1.181-.2,1.181-1.112a1.986,1.986,0,0,0-2.3-1.821c-1.6.07-2.9,1.1-2.9,3.662,0,2.359,1.9,3.533,4.411,3.609,2.261.07,3.968-1.155,3.968-3.488,0-3.1-4.482-10.182-4.482-12.948A3.424,3.424,0,0,1,43.6,28c2.369,0,4.367,2.345,4.367,2.345l-1.391,1.745Z" transform="translate(-31.212 -27.5)" fill="#fcd93a"/><path d="M45.877,109.656c0,5.189-4.659,7.856-8.319,7.856-4.932,0-7.558-2.949-7.558-6.809a11.489,11.489,0,0,1,1.41-5.656s8.136-16.919,11.3-23.463a6.9,6.9,0,0,0,.522-3.107,4.134,4.134,0,0,0-8.255.07c0,2.584,1.34,3.736,2.717,3.736,1.694,0,2.369-.7,2.369-1.885,0-.829-.4-1.187-.975-1.187-1.453,0-1.045,1.955-1.045,1.955a1.334,1.334,0,0,1-.975-1.816,2.619,2.619,0,0,1-1.411-.838,2.643,2.643,0,0,1,1.411-.768,1.308,1.308,0,0,1,1.1-1.9,1.958,1.958,0,0,0-.139,1.2,2.964,2.964,0,0,1,3.918,2.933c0,2.653-1.842,4.888-5.294,4.329A2.459,2.459,0,0,1,37.975,86.4a4.838,4.838,0,0,0-1.324-.279,4.448,4.448,0,0,1,.94,2.723c-.64-.291-1.235-.83-2.055-.489,1.288,2.534-.294,6.019-4.319,6.844a8.368,8.368,0,0,0,2.194-5.447c0-6.015-1.672-7.026-1.672-11.208a6.176,6.176,0,0,1,2.682-4.923v.07a3.574,3.574,0,0,1-2.367-1.684,16.1,16.1,0,0,1,8.706.077,6.455,6.455,0,0,1,4.6,3.073,9.3,9.3,0,0,1,0,7.4c-1.6,3.351-9.142,19.343-11.494,24.371a7.989,7.989,0,0,0-.8,3.422c0,3.08,2.821,4.155,4.424,4.155,1.916,0,3.866-1.459,3.866-3.282,0-1.155-.627-1.85-1.533-1.85-2.165,0-2.034,1.842-1.6,3-1.348-.606-2.131-1.688-1.916-2.828a3.45,3.45,0,0,1-2.159-1.222,2.709,2.709,0,0,1,2.159-1.187c-.432-1.769.753-2.518,1.916-2.933-.368,1.3-.609,2.793,1.6,2.793,1.613,0,2.882.279,3.622,1.327.044-1.4.174-6.913.174-6.913.093-2.073-2.775-2.014-4.6-1.4.688-2.388,2.1-3.679,5.364-3.352a2.576,2.576,0,0,1-1.637-2.514,6.58,6.58,0,0,1,2.613-4.734l.518,20.237Z" transform="translate(-29.999 -48.948)" fill="#fcd93a"/><path d="M45.877-153.558c0-5.189-4.659-7.856-8.319-7.856-4.932,0-7.558,2.949-7.558,6.809a11.489,11.489,0,0,0,1.41,5.656s8.136,16.919,11.3,23.463a6.9,6.9,0,0,1,.522,3.107,4.214,4.214,0,0,1-4.18,3.876,4.22,4.22,0,0,1-4.075-3.945c0-2.584,1.34-3.736,2.717-3.736,1.694,0,2.369.7,2.369,1.885,0,.829-.4,1.187-.975,1.187-1.453,0-1.045-1.955-1.045-1.955a1.334,1.334,0,0,0-.975,1.816,2.619,2.619,0,0,0-1.411.838,2.643,2.643,0,0,0,1.411.768,1.308,1.308,0,0,0,1.1,1.9,1.958,1.958,0,0,1-.139-1.2,2.964,2.964,0,0,0,3.918-2.933c0-2.653-1.842-4.888-5.294-4.329a2.459,2.459,0,0,0,1.324-2.095,4.838,4.838,0,0,1-1.324.279,4.448,4.448,0,0,0,.94-2.723c-.64.291-1.235.83-2.055.489,1.288-2.534-.294-6.019-4.319-6.844a8.368,8.368,0,0,1,2.194,5.447c0,6.015-1.672,7.026-1.672,11.208a6.176,6.176,0,0,0,2.682,4.923v-.07a3.574,3.574,0,0,0-2.367,1.684,16.1,16.1,0,0,0,8.706-.077,6.455,6.455,0,0,0,4.6-3.073,9.3,9.3,0,0,0,0-7.4c-1.6-3.351-9.142-19.343-11.494-24.371a7.989,7.989,0,0,1-.8-3.422c0-3.08,2.821-4.155,4.424-4.155,1.916,0,3.866,1.459,3.866,3.282,0,1.155-.627,1.85-1.533,1.85-2.165,0-2.034-1.842-1.6-3-1.348.606-2.131,1.688-1.916,2.828a3.45,3.45,0,0,0-2.159,1.222,2.709,2.709,0,0,0,2.159,1.187c-.432,1.769.753,2.518,1.916,2.933-.368-1.3-.609-2.793,1.6-2.793,1.613,0,2.882-.279,3.622-1.327.044,1.4.174,6.913.174,6.913.093,2.073-2.775,2.014-4.6,1.4.688,2.388,2.1,3.679,5.364,3.352a2.576,2.576,0,0,0-1.637,2.514,6.58,6.58,0,0,0,2.613,4.734l.518-20.237Z" transform="translate(-29.999 229.831)" fill="#fcd93a"/><g transform="translate(30.721 114.478) rotate(180)"><path d="M14.088,18.829s-2.46,2.067-3.3,1.03c-1.344-1.668,4.132-9.976,4.132-12.9,0-4.8-3.2-6.108-7.161-6.794A28.124,28.124,0,0,0,.785.357,3.006,3.006,0,0,0,3.5,1.86,5.718,5.718,0,0,0,.418,7.053c0,4.131,1.7,5.834,1.7,10.492C2.119,20.128,0,23.418,0,23.418A5.024,5.024,0,0,0,4.545,16.8a1.829,1.829,0,0,1,1.6.489,2.77,2.77,0,0,0-.738-2.428c.467-.249.809-.1,1.553.054a3.377,3.377,0,0,0-1.7-2.424A4.074,4.074,0,0,0,10.7,8.566,2.97,2.97,0,0,0,8.124,5.381,2.6,2.6,0,0,0,6.77,5.8,2.1,2.1,0,0,1,6.9,4.1c-.931.246-1.523.8-1.1,1.951a2.362,2.362,0,0,0-1.672.768A1.992,1.992,0,0,0,5.8,7.587c-.521,1.075.06,1.677.906,2.165,0,0-.538-2.165.836-2.165.618,0,1.181.2,1.181,1.112a1.986,1.986,0,0,1-2.3,1.821c-1.6-.07-2.9-1.1-2.9-3.662,0-2.359,1.9-3.533,4.411-3.609C10.2,3.179,11.9,4.4,11.9,6.737c0,3.1-4.482,10.182-4.482,12.948a3.424,3.424,0,0,0,3.693,3.235c2.369,0,4.367-2.345,4.367-2.345L14.09,18.83Z" transform="translate(1.272 91.06)" fill="#fcd93a"/><path d="M15.878,7.856C15.878,2.667,11.219,0,7.558,0,2.626,0,0,2.949,0,6.809a11.489,11.489,0,0,0,1.41,5.656s8.136,16.919,11.3,23.463a6.9,6.9,0,0,1,.522,3.107,4.214,4.214,0,0,1-4.18,3.876,4.22,4.22,0,0,1-4.075-3.945c0-2.584,1.34-3.736,2.717-3.736,1.694,0,2.369.7,2.369,1.885,0,.829-.4,1.187-.975,1.187-1.453,0-1.045-1.955-1.045-1.955a1.334,1.334,0,0,0-.975,1.816A2.619,2.619,0,0,0,5.66,39a2.643,2.643,0,0,0,1.411.768,1.308,1.308,0,0,0,1.1,1.9,1.958,1.958,0,0,1-.139-1.2,2.964,2.964,0,0,0,3.918-2.933c0-2.653-1.842-4.888-5.294-4.329A2.459,2.459,0,0,0,7.976,31.11a4.838,4.838,0,0,1-1.324.279,4.448,4.448,0,0,0,.94-2.723c-.64.291-1.235.83-2.055.489,1.288-2.534-.294-6.019-4.319-6.844a8.368,8.368,0,0,1,2.194,5.447c0,6.015-1.672,7.026-1.672,11.208a6.176,6.176,0,0,0,2.682,4.923v-.07A3.574,3.574,0,0,0,2.056,45.5a16.1,16.1,0,0,0,8.706-.077,6.455,6.455,0,0,0,4.6-3.073,9.3,9.3,0,0,0,0-7.4C13.76,31.6,6.217,15.608,3.866,10.58a7.989,7.989,0,0,1-.8-3.422C3.065,4.079,5.886,3,7.488,3,9.4,3,11.354,4.463,11.354,6.286c0,1.155-.627,1.85-1.533,1.85-2.165,0-2.034-1.842-1.6-3C6.872,5.739,6.089,6.821,6.3,7.961A3.45,3.45,0,0,0,4.145,9.183,2.709,2.709,0,0,0,6.3,10.371c-.432,1.769.753,2.518,1.916,2.933-.368-1.3-.609-2.793,1.6-2.793,1.613,0,2.882-.279,3.622-1.327.044,1.4.174,6.913.174,6.913.093,2.073-2.775,2.014-4.6,1.4.688,2.388,2.1,3.679,5.364,3.352a2.576,2.576,0,0,0-1.637,2.514,6.58,6.58,0,0,0,2.613,4.734l.518-20.237Z" transform="translate(0 45.913)" fill="#fcd93a"/><path d="M15.878,38.2c0,5.189-4.659,7.856-8.319,7.856C2.626,46.061,0,43.112,0,39.252A11.489,11.489,0,0,1,1.41,33.6s8.136-16.919,11.3-23.463a6.9,6.9,0,0,0,.522-3.107A4.214,4.214,0,0,0,9.056,3.15,4.22,4.22,0,0,0,4.981,7.1c0,2.584,1.34,3.736,2.717,3.736,1.694,0,2.369-.7,2.369-1.885,0-.829-.4-1.187-.975-1.187-1.453,0-1.045,1.955-1.045,1.955A1.334,1.334,0,0,1,7.07,7.9,2.619,2.619,0,0,1,5.66,7.06,2.643,2.643,0,0,1,7.07,6.292a1.308,1.308,0,0,1,1.1-1.9,1.958,1.958,0,0,0-.139,1.2,2.964,2.964,0,0,1,3.918,2.933c0,2.653-1.842,4.888-5.294,4.329a2.459,2.459,0,0,1,1.324,2.095,4.838,4.838,0,0,0-1.324-.279,4.448,4.448,0,0,1,.94,2.723c-.64-.291-1.235-.83-2.055-.489,1.288,2.534-.294,6.019-4.319,6.844A8.368,8.368,0,0,0,3.413,18.3c0-6.015-1.672-7.026-1.672-11.208A6.176,6.176,0,0,1,4.423,2.172v.07A3.574,3.574,0,0,1,2.056.558a16.1,16.1,0,0,1,8.706.077,6.455,6.455,0,0,1,4.6,3.073,9.3,9.3,0,0,1,0,7.4C13.76,14.46,6.217,30.453,3.866,35.481a7.989,7.989,0,0,0-.8,3.422c0,3.08,2.821,4.155,4.424,4.155,1.916,0,3.866-1.459,3.866-3.282,0-1.155-.627-1.85-1.533-1.85-2.165,0-2.034,1.842-1.6,3C6.872,40.322,6.089,39.24,6.3,38.1a3.45,3.45,0,0,1-2.159-1.222A2.709,2.709,0,0,1,6.3,35.69c-.432-1.769.753-2.518,1.916-2.933-.368,1.3-.609,2.793,1.6,2.793,1.613,0,2.882.279,3.622,1.327.044-1.4.174-6.913.174-6.913.093-2.073-2.775-2.014-4.6-1.4.688-2.388,2.1-3.679,5.364-3.352A2.576,2.576,0,0,1,12.748,22.7a6.58,6.58,0,0,1,2.613-4.734L15.878,38.2Z" transform="translate(0)" fill="#fcd93a"/></g><g transform="translate(0 113.363)"><path d="M46.572-54.408s-2.46,2.067-3.3,1.03c-1.344-1.668,4.132-9.976,4.132-12.9,0-4.8-3.2-6.108-7.161-6.794a28.124,28.124,0,0,0-6.978.193,3.006,3.006,0,0,0,2.715,1.5A5.718,5.718,0,0,0,32.9-66.184c0,4.131,1.7,5.834,1.7,10.492,0,2.584-2.119,5.873-2.119,5.873a5.024,5.024,0,0,0,4.545-6.614,1.829,1.829,0,0,1,1.6.489,2.77,2.77,0,0,0-.738-2.428c.467-.249.809-.1,1.553.054a3.377,3.377,0,0,0-1.7-2.424,4.074,4.074,0,0,0,5.438-3.929,2.97,2.97,0,0,0-2.571-3.185,2.6,2.6,0,0,0-1.354.423,2.1,2.1,0,0,1,.131-1.7c-.931.246-1.523.8-1.1,1.951a2.362,2.362,0,0,0-1.672.768,1.992,1.992,0,0,0,1.672.768c-.521,1.075.06,1.677.906,2.165,0,0-.538-2.165.836-2.165.618,0,1.181.2,1.181,1.112a1.986,1.986,0,0,1-2.3,1.821c-1.6-.07-2.9-1.1-2.9-3.662,0-2.359,1.9-3.533,4.411-3.609,2.261-.07,3.968,1.155,3.968,3.488,0,3.1-4.482,10.182-4.482,12.948A3.424,3.424,0,0,0,43.6-50.317c2.369,0,4.367-2.345,4.367-2.345l-1.391-1.745Z" transform="translate(-31.212 164.297)" fill="#fcd93a"/><path d="M45.877-153.558c0-5.189-4.659-7.856-8.319-7.856-4.932,0-7.558,2.949-7.558,6.809a11.489,11.489,0,0,0,1.41,5.656s8.136,16.919,11.3,23.463a6.9,6.9,0,0,1,.522,3.107,4.214,4.214,0,0,1-4.18,3.876,4.22,4.22,0,0,1-4.075-3.945c0-2.584,1.34-3.736,2.717-3.736,1.694,0,2.369.7,2.369,1.885,0,.829-.4,1.187-.975,1.187-1.453,0-1.045-1.955-1.045-1.955a1.334,1.334,0,0,0-.975,1.816,2.619,2.619,0,0,0-1.411.838,2.643,2.643,0,0,0,1.411.768,1.308,1.308,0,0,0,1.1,1.9,1.958,1.958,0,0,1-.139-1.2,2.964,2.964,0,0,0,3.918-2.933c0-2.653-1.842-4.888-5.294-4.329a2.459,2.459,0,0,0,1.324-2.095,4.838,4.838,0,0,1-1.324.279,4.448,4.448,0,0,0,.94-2.723c-.64.291-1.235.83-2.055.489,1.288-2.534-.294-6.019-4.319-6.844a8.368,8.368,0,0,1,2.194,5.447c0,6.015-1.672,7.026-1.672,11.208a6.176,6.176,0,0,0,2.682,4.923v-.07a3.574,3.574,0,0,0-2.367,1.684,16.1,16.1,0,0,0,8.706-.077,6.455,6.455,0,0,0,4.6-3.073,9.3,9.3,0,0,0,0-7.4c-1.6-3.351-9.142-19.343-11.494-24.371a7.989,7.989,0,0,1-.8-3.422c0-3.08,2.821-4.155,4.424-4.155,1.916,0,3.866,1.459,3.866,3.282,0,1.155-.627,1.85-1.533,1.85-2.165,0-2.034-1.842-1.6-3-1.348.606-2.131,1.688-1.916,2.828a3.45,3.45,0,0,0-2.159,1.222,2.709,2.709,0,0,0,2.159,1.187c-.432,1.769.753,2.518,1.916,2.933-.368-1.3-.609-2.793,1.6-2.793,1.613,0,2.882-.279,3.622-1.327.044,1.4.174,6.913.174,6.913.093,2.073-2.775,2.014-4.6,1.4.688,2.388,2.1,3.679,5.364,3.352a2.576,2.576,0,0,0-1.637,2.514,6.58,6.58,0,0,0,2.613,4.734l.518-20.237Z" transform="translate(-29.999 207.327)" fill="#fcd93a"/><path d="M45.877,109.656c0,5.189-4.659,7.856-8.319,7.856-4.932,0-7.558-2.949-7.558-6.809a11.489,11.489,0,0,1,1.41-5.656s8.136-16.919,11.3-23.463a6.9,6.9,0,0,0,.522-3.107,4.134,4.134,0,0,0-8.255.07c0,2.584,1.34,3.736,2.717,3.736,1.694,0,2.369-.7,2.369-1.885,0-.829-.4-1.187-.975-1.187-1.453,0-1.045,1.955-1.045,1.955a1.334,1.334,0,0,1-.975-1.816,2.619,2.619,0,0,1-1.411-.838,2.643,2.643,0,0,1,1.411-.768,1.308,1.308,0,0,1,1.1-1.9,1.958,1.958,0,0,0-.139,1.2,2.964,2.964,0,0,1,3.918,2.933c0,2.653-1.842,4.888-5.294,4.329A2.459,2.459,0,0,1,37.975,86.4a4.838,4.838,0,0,0-1.324-.279,4.448,4.448,0,0,1,.94,2.723c-.64-.291-1.235-.83-2.055-.489,1.288,2.534-.294,6.019-4.319,6.844a8.368,8.368,0,0,0,2.194-5.447c0-6.015-1.672-7.026-1.672-11.208a6.176,6.176,0,0,1,2.682-4.923v.07a3.574,3.574,0,0,1-2.367-1.684,16.1,16.1,0,0,1,8.706.077,6.455,6.455,0,0,1,4.6,3.073,9.3,9.3,0,0,1,0,7.4c-1.6,3.351-9.142,19.343-11.494,24.371a7.989,7.989,0,0,0-.8,3.422c0,3.08,2.821,4.155,4.424,4.155,1.916,0,3.866-1.459,3.866-3.282,0-1.155-.627-1.85-1.533-1.85-2.165,0-2.034,1.842-1.6,3-1.348-.606-2.131-1.688-1.916-2.828a3.45,3.45,0,0,1-2.159-1.222,2.709,2.709,0,0,1,2.159-1.187c-.432-1.769.753-2.518,1.916-2.933-.368,1.3-.609,2.793,1.6,2.793,1.613,0,2.882.279,3.622,1.327.044-1.4.174-6.913.174-6.913.093-2.073-2.775-2.014-4.6-1.4.688-2.388,2.1-3.679,5.364-3.352a2.576,2.576,0,0,1-1.637-2.514,6.58,6.58,0,0,1,2.613-4.734l.518,20.237Z" transform="translate(-29.999 -71.451)" fill="#fcd93a"/><g transform="translate(30.721 114.478) rotate(180)"><path d="M14.088,4.588s-2.46-2.067-3.3-1.03c-1.344,1.668,4.132,9.976,4.132,12.9,0,4.8-3.2,6.108-7.161,6.794a28.124,28.124,0,0,1-6.978-.193,3.006,3.006,0,0,1,2.715-1.5A5.718,5.718,0,0,1,.418,16.365c0-4.131,1.7-5.834,1.7-10.492C2.119,3.289,0,0,0,0A5.024,5.024,0,0,1,4.545,6.614a1.829,1.829,0,0,0,1.6-.489,2.77,2.77,0,0,1-.738,2.428c.467.249.809.1,1.553-.054a3.377,3.377,0,0,1-1.7,2.424A4.074,4.074,0,0,1,10.7,14.851a2.97,2.97,0,0,1-2.571,3.185,2.6,2.6,0,0,1-1.354-.423,2.1,2.1,0,0,0,.131,1.7c-.931-.246-1.523-.8-1.1-1.951A2.362,2.362,0,0,1,4.127,16.6,1.992,1.992,0,0,1,5.8,15.831c-.521-1.075.06-1.677.906-2.165,0,0-.538,2.165.836,2.165.618,0,1.181-.2,1.181-1.112a1.986,1.986,0,0,0-2.3-1.821c-1.6.07-2.9,1.1-2.9,3.662,0,2.359,1.9,3.533,4.411,3.609,2.261.07,3.968-1.155,3.968-3.488,0-3.1-4.482-10.182-4.482-12.948A3.424,3.424,0,0,1,11.114.5c2.369,0,4.367,2.345,4.367,2.345L14.09,4.588Z" transform="translate(1.272 0)" fill="#fcd93a"/><path d="M15.878,38.2c0,5.189-4.659,7.856-8.319,7.856C2.626,46.061,0,43.112,0,39.252A11.489,11.489,0,0,1,1.41,33.6s8.136-16.919,11.3-23.463a6.9,6.9,0,0,0,.522-3.107A4.214,4.214,0,0,0,9.056,3.15,4.22,4.22,0,0,0,4.981,7.1c0,2.584,1.34,3.736,2.717,3.736,1.694,0,2.369-.7,2.369-1.885,0-.829-.4-1.187-.975-1.187-1.453,0-1.045,1.955-1.045,1.955A1.334,1.334,0,0,1,7.07,7.9,2.619,2.619,0,0,1,5.66,7.06,2.643,2.643,0,0,1,7.07,6.292a1.308,1.308,0,0,1,1.1-1.9,1.958,1.958,0,0,0-.139,1.2,2.964,2.964,0,0,1,3.918,2.933c0,2.653-1.842,4.888-5.294,4.329a2.459,2.459,0,0,1,1.324,2.095,4.838,4.838,0,0,0-1.324-.279,4.448,4.448,0,0,1,.94,2.723c-.64-.291-1.235-.83-2.055-.489,1.288,2.534-.294,6.019-4.319,6.844A8.368,8.368,0,0,0,3.413,18.3c0-6.015-1.672-7.026-1.672-11.208A6.176,6.176,0,0,1,4.423,2.172v.07A3.574,3.574,0,0,1,2.056.558a16.1,16.1,0,0,1,8.706.077,6.455,6.455,0,0,1,4.6,3.073,9.3,9.3,0,0,1,0,7.4C13.76,14.46,6.217,30.453,3.866,35.481a7.989,7.989,0,0,0-.8,3.422c0,3.08,2.821,4.155,4.424,4.155,1.916,0,3.866-1.459,3.866-3.282,0-1.155-.627-1.85-1.533-1.85-2.165,0-2.034,1.842-1.6,3C6.872,40.322,6.089,39.24,6.3,38.1a3.45,3.45,0,0,1-2.159-1.222A2.709,2.709,0,0,1,6.3,35.69c-.432-1.769.753-2.518,1.916-2.933-.368,1.3-.609,2.793,1.6,2.793,1.613,0,2.882.279,3.622,1.327.044-1.4.174-6.913.174-6.913.093-2.073-2.775-2.014-4.6-1.4.688-2.388,2.1-3.679,5.364-3.352A2.576,2.576,0,0,1,12.748,22.7a6.58,6.58,0,0,1,2.613-4.734L15.878,38.2Z" transform="translate(0 22.503)" fill="#fcd93a"/><path d="M15.878,7.856C15.878,2.667,11.219,0,7.558,0,2.626,0,0,2.949,0,6.809a11.489,11.489,0,0,0,1.41,5.656s8.136,16.919,11.3,23.463a6.9,6.9,0,0,1,.522,3.107,4.214,4.214,0,0,1-4.18,3.876,4.22,4.22,0,0,1-4.075-3.945c0-2.584,1.34-3.736,2.717-3.736,1.694,0,2.369.7,2.369,1.885,0,.829-.4,1.187-.975,1.187-1.453,0-1.045-1.955-1.045-1.955a1.334,1.334,0,0,0-.975,1.816A2.619,2.619,0,0,0,5.66,39a2.643,2.643,0,0,0,1.411.768,1.308,1.308,0,0,0,1.1,1.9,1.958,1.958,0,0,1-.139-1.2,2.964,2.964,0,0,0,3.918-2.933c0-2.653-1.842-4.888-5.294-4.329A2.459,2.459,0,0,0,7.976,31.11a4.838,4.838,0,0,1-1.324.279,4.448,4.448,0,0,0,.94-2.723c-.64.291-1.235.83-2.055.489,1.288-2.534-.294-6.019-4.319-6.844a8.368,8.368,0,0,1,2.194,5.447c0,6.015-1.672,7.026-1.672,11.208a6.176,6.176,0,0,0,2.682,4.923v-.07A3.574,3.574,0,0,0,2.056,45.5a16.1,16.1,0,0,0,8.706-.077,6.455,6.455,0,0,0,4.6-3.073,9.3,9.3,0,0,0,0-7.4C13.76,31.6,6.217,15.608,3.866,10.58a7.989,7.989,0,0,1-.8-3.422C3.065,4.079,5.886,3,7.488,3,9.4,3,11.354,4.463,11.354,6.286c0,1.155-.627,1.85-1.533,1.85-2.165,0-2.034-1.842-1.6-3C6.872,5.739,6.089,6.821,6.3,7.961A3.45,3.45,0,0,0,4.145,9.183,2.709,2.709,0,0,0,6.3,10.371c-.432,1.769.753,2.518,1.916,2.933-.368-1.3-.609-2.793,1.6-2.793,1.613,0,2.882-.279,3.622-1.327.044,1.4.174,6.913.174,6.913.093,2.073-2.775,2.014-4.6,1.4.688,2.388,2.1,3.679,5.364,3.352a2.576,2.576,0,0,0-1.637,2.514,6.58,6.58,0,0,0,2.613,4.734l.518-20.237Z" transform="translate(0 68.417)" fill="#fcd93a"/></g></g></g></g></svg>