<svg xmlns="http://www.w3.org/2000/svg" width="512" height="300"><defs><clipPath id="a"><path d="M0 0h512v300H0z"/></clipPath></defs><g clip-path="url(#a)"><path fill="#34bbe0" d="M0 0h512v300H0Z" data-name="Path 1312"/><g fill="#fcd93a" data-name="Group 193" transform="translate(187.158 40.077)"><circle cx="34.445" cy="34.445" r="34.445" data-name="Ellipse 139" transform="translate(54.998 54.998)"/><path d="M89.443 50.3a2.584 2.584 0 0 0 2.816-2.841c0-2.048-2.816-11.8-2.816-11.8s-2.816 9.748-2.816 11.8a2.573 2.573 0 0 0 2.816 2.841Z"/><path d="M128.585 89.443a2.584 2.584 0 0 0 2.843 2.816c2.046 0 11.8-2.816 11.8-2.816s-9.754-2.816-11.8-2.816a2.573 2.573 0 0 0-2.843 2.816Z" data-name="Path 1313"/><path d="M89.443 128.585a2.584 2.584 0 0 0-2.816 2.843c0 2.046 2.816 11.8 2.816 11.8s2.816-9.754 2.816-11.8a2.573 2.573 0 0 0-2.816-2.843Z" data-name="Path 1314"/><path d="M50.3 89.443a2.584 2.584 0 0 0-2.843-2.816c-2.046 0-11.8 2.816-11.8 2.816s9.754 2.816 11.8 2.816a2.573 2.573 0 0 0 2.843-2.816Z" data-name="Path 1315"/><g data-name="Group 186"><path d="M104.424 53.3a2.585 2.585 0 0 0 3.69-1.55c.784-1.89 1.918-11.981 1.918-11.981s-6.338 7.934-7.121 9.825a2.574 2.574 0 0 0 1.513 3.705Z" data-name="a"/><path d="M125.6 104.459a2.585 2.585 0 0 0 1.548 3.69c1.89.784 11.982 1.918 11.982 1.918s-7.935-6.338-9.825-7.121a2.574 2.574 0 0 0-3.706 1.513Z" data-name="Path 1316"/><path d="M74.44 125.635a2.585 2.585 0 0 0-3.69 1.548c-.784 1.89-1.917 11.982-1.917 11.982s6.337-7.935 7.121-9.825a2.574 2.574 0 0 0-1.513-3.705Z" data-name="Path 1317"/><path d="M53.264 74.476a2.585 2.585 0 0 0-1.548-3.691c-1.89-.784-11.982-1.918-11.982-1.918s7.934 6.338 9.825 7.122a2.574 2.574 0 0 0 3.705-1.513Z" data-name="Path 1318"/></g><g data-name="Group 187"><path d="M117.121 61.765a2.584 2.584 0 0 0 4.002-.02c1.447-1.446 6.352-10.335 6.352-10.335s-8.888 4.906-10.335 6.353a2.574 2.574 0 0 0-.019 4.002Z" data-name="a"/><path d="M117.121 117.121a2.584 2.584 0 0 0 .02 4.002c1.446 1.446 10.334 6.352 10.334 6.352s-4.905-8.888-6.352-10.335a2.574 2.574 0 0 0-4.002-.019Z" data-name="Path 1319"/><path d="M61.765 117.121a2.584 2.584 0 0 0-4.002.02c-1.447 1.446-6.352 10.334-6.352 10.334s8.888-4.906 10.335-6.352a2.574 2.574 0 0 0 .019-4.002Z" data-name="Path 1320"/><path d="M61.765 61.765a2.584 2.584 0 0 0-.02-4.002C60.3 56.316 51.412 51.41 51.412 51.41s4.905 8.889 6.352 10.336a2.574 2.574 0 0 0 4.002.019Z" data-name="Path 1321"/></g><g data-name="Group 188"><path d="M125.62 74.476a2.585 2.585 0 0 0 3.706 1.513c1.89-.784 9.825-7.122 9.825-7.122s-10.091 1.134-11.982 1.918a2.574 2.574 0 0 0-1.548 3.69Z" data-name="a"/><path d="M104.444 125.635a2.585 2.585 0 0 0-1.513 3.705c.784 1.89 7.121 9.825 7.121 9.825s-1.133-10.092-1.917-11.982a2.574 2.574 0 0 0-3.69-1.548Z" data-name="Path 1322"/><path d="M53.286 104.459a2.585 2.585 0 0 0-3.706-1.513c-1.89.783-9.825 7.121-9.825 7.121s10.092-1.134 11.982-1.917a2.574 2.574 0 0 0 1.549-3.691Z" data-name="Path 1323"/><path d="M74.461 53.3a2.585 2.585 0 0 0 1.513-3.706c-.783-1.89-7.121-9.825-7.121-9.825s1.134 10.091 1.917 11.982a2.574 2.574 0 0 0 3.691 1.548Z" data-name="Path 1324"/></g><g data-name="Group 192"><g data-name="b"><path d="M97.08 51.052a2.584 2.584 0 0 0 3.316-2.239c.399-2.007-.46-12.123-.46-12.123s-4.665 9.018-5.064 11.024a2.574 2.574 0 0 0 2.207 3.338Z" data-name="a"/><path d="M127.834 97.08a2.584 2.584 0 0 0 2.239 3.316c2.006.4 12.122-.46 12.122-.46s-9.017-4.665-11.023-5.064a2.574 2.574 0 0 0-3.338 2.207Z" data-name="Path 1325"/><path d="M81.806 127.834a2.584 2.584 0 0 0-3.316 2.239c-.4 2.007.46 12.122.46 12.122s4.665-9.017 5.064-11.023a2.574 2.574 0 0 0-2.208-3.338Z" data-name="Path 1326"/><path d="M51.052 81.807a2.584 2.584 0 0 0-2.239-3.317c-2.007-.4-12.123.46-12.123.46s9.018 4.665 11.024 5.064a2.574 2.574 0 0 0 3.338-2.207Z" data-name="Path 1327"/></g><g data-name="Group 189"><path d="M111.187 56.916a2.585 2.585 0 0 0 3.922-.798c1.138-1.702 4.218-11.378 4.218-11.378s-7.763 6.546-8.9 8.247a2.575 2.575 0 0 0 .76 3.93Z" data-name="a"/><path d="M121.976 111.224a2.585 2.585 0 0 0 .799 3.922c1.7 1.138 11.377 4.219 11.377 4.219s-6.545-7.764-8.247-8.902a2.575 2.575 0 0 0-3.929.761Z" data-name="Path 1328"/><path d="M67.668 122.013a2.585 2.585 0 0 0-3.922.799c-1.138 1.701-4.218 11.377-4.218 11.377s7.764-6.545 8.901-8.246a2.575 2.575 0 0 0-.761-3.93Z" data-name="Path 1329"/><path d="M56.88 67.705a2.585 2.585 0 0 0-.8-3.922c-1.7-1.137-11.377-4.218-11.377-4.218s6.545 7.764 8.247 8.901a2.575 2.575 0 0 0 3.93-.761Z" data-name="Path 1330"/></g><g data-name="Group 190"><path d="M121.99 67.696a2.584 2.584 0 0 0 3.927.762c1.702-1.137 8.247-8.897 8.247-8.897s-9.674 3.078-11.375 4.214a2.574 2.574 0 0 0-.8 3.921Z" data-name="a"/><path d="M111.19 121.99a2.584 2.584 0 0 0-.762 3.927c1.136 1.702 8.897 8.247 8.897 8.247s-3.078-9.674-4.215-11.376a2.574 2.574 0 0 0-3.92-.799Z" data-name="Path 1331"/><path d="M56.897 111.19a2.584 2.584 0 0 0-3.929-.762c-1.7 1.136-8.247 8.897-8.247 8.897s9.675-3.078 11.376-4.215a2.574 2.574 0 0 0 .8-3.92Z" data-name="Path 1332"/><path d="M67.696 56.897a2.584 2.584 0 0 0 .762-3.929c-1.137-1.7-8.897-8.247-8.897-8.247s3.078 9.675 4.214 11.376a2.574 2.574 0 0 0 3.921.8Z" data-name="Path 1333"/></g><g data-name="Group 191"><path d="M127.847 81.821a2.585 2.585 0 0 0 3.339 2.207c2.007-.4 11.025-5.068 11.025-5.068s-10.119-.856-12.126-.457a2.575 2.575 0 0 0-2.238 3.318Z" data-name="a"/><path d="M97.096 127.867a2.585 2.585 0 0 0-2.207 3.339c.4 2.007 5.068 11.025 5.068 11.025s.857-10.118.457-12.125a2.575 2.575 0 0 0-3.318-2.24Z" data-name="Path 1334"/><path d="M51.05 97.117a2.585 2.585 0 0 0-3.338-2.207c-2.007.4-11.025 5.067-11.025 5.067s10.118.857 12.125.457a2.575 2.575 0 0 0 2.239-3.317Z" data-name="Path 1335"/><path d="M81.801 51.071a2.585 2.585 0 0 0 2.207-3.34c-.4-2.006-5.068-11.024-5.068-11.024s-.857 10.118-.457 12.125a2.575 2.575 0 0 0 3.318 2.239Z" data-name="Path 1336"/></g></g></g><g fill="#fcd93a" data-name="Group 194" transform="translate(196.676 134.635)"><path d="M73.78 69.5a10.683 10.683 0 0 0-2.7.452c-1.2.162-2.355.58-3.55.777l-.478.077-.8.077a2.964 2.964 0 0 1 .085.666 2.155 2.155 0 0 1-.085.64 1.559 1.559 0 0 1-.341.538 1.878 1.878 0 0 1-.563.452 1.777 1.777 0 0 1-.666.162 1.733 1.733 0 0 1-.691-.085 1.937 1.937 0 0 1-.64-.392 5.526 5.526 0 0 1-.717.128 2.968 2.968 0 0 1-.674 0 7.141 7.141 0 0 1-.717-.239 4.132 4.132 0 0 1-.666-.35 6.085 6.085 0 0 0-2.372 1.894 2.854 2.854 0 0 0-.427 1.365 3.725 3.725 0 0 0 .367 1.784c.094.162.171-.589.461-.691a4.528 4.528 0 0 1 1.707-.853c.52-.265.452.017.239.426-.051.214-.341 1.024.051.614a16.649 16.649 0 0 1 5.521-1.067c2.714-.282 5.436-.341 8.158-.376 2.56.034 5.12.068 7.68.162a18.7 18.7 0 0 0 3.652.1c.29-.077.742-.094.913-.264a4.615 4.615 0 0 0-1.792-.4h-4.881a14.756 14.756 0 0 1-4.053-.666c-.342-.136-.657-.461-.982-.111a5.562 5.562 0 0 1-4.139-.128c.6-.828 1.314-1.553 1.971-2.321-.529-.085-1.041-.2-1.57-.324.93-.64 1.792-1.366 2.7-2.048Z" data-name="Path 1337"/><path d="M113.647 78.343c-1.855 1.114-3.27-.861-4.821-1.453-1.107.6-1.211 2.613-2.245 3.566-1.238 1.409-2.755-.393-2.642-1.783-1.48 1.248-2.229 4.076-4.623 3.7-1.134-.925-1.977-2.867-2.843-.656-.707 1.081-2.588 2.619-3.562.987-.3-1.441-1.024-3.136-1.808-.847a3.051 3.051 0 0 1-3.937 2.1c-.915-.748.733-3.514-.431-3.317-1.741 1.151-2.753 4.008-5.182 3.78-.943-1.059.572-2.853-.462-4.028-1.221 1.568-2.576 3.863-4.689 4.028-1.021-.827.04-3.2-.612-3.551-2.168 1.3-4.455 3.617-7.181 2.891 1.062-4.064 5.5-5.489 9.235-5.806 6.423-.79 13.18.662 19.36-1.656 1-.607 3.418-1.469 2.556-2.878-.763-1.113 1.985-.678 2.249-1.977-.164-1.646 1.261-1.419 2.653-1.564 6.24-.269 12.4 1.045 18.626 1.268.47 3.032-2.893 5.16-5.6 4.224-1.293.21-3.232-2.973-2.852-.658-.261 1.215-.078 2.821-1.189 3.632m-53.093-6.209c1.445 1.322 2.458-.249 3.808-.823 4.529-1.558 8.481-4.28 12.377-7 2.36-1.953 4.407-4.486 7.577-5.12 6.184-1.87 12.757-1.643 18.964-3.368 4.727-6.472 12.755-8.781 19.481-12.5 1.51-.469 2.094-1.712 2.576-3.084a31.068 31.068 0 0 1 10.2-10.1 9.535 9.535 0 0 1 6.507-1.2 10.856 10.856 0 0 1-3.5 6.8c1.5-.033 2.781-.978 4.292-.924.518 2.708-2.406 4.125-3.962 5.811.867.2 4.186.453 2.377 1.321-2.305 1.6-4.938 2.7-7.066 4.557 1.964.353 2.187.77.191 1.48-1.081.733-3.159.989-3.36 2.416 1.483.912-.683 1.817-1.519 2.113-1.6.372-3.276 1.066-1.154 2.28-.8 1.213-2.525 1.472-3.931 1.352.427 1.375 1.044 2.913-.74 3.52a27.584 27.584 0 0 1-13.722 5.726 29.476 29.476 0 0 0 18.118-4.1c.709-.838 4.424-1.738 2.346-2.443-.978-.407-3.076-.859-3.218-1.605 2.907-1.794 6.57-1.156 9.7-2.221.081-1.012-2.379-.731-3.3-.961-2.187-.179-2.059-.737.05-.944 2.668-.707 5.69-.846 7.934-2.585-1.827-.847-4.126-.1-6.075-.793 3.305-1.446 7.2-1.592 10.17-3.764 1.351-1.5-1.731-1.033-2.628-1-1.83.319-2.677-.558-.6-1.318 3.551-2.618 8.047-4.319 10.541-8.114.591-.85 1.391-3.41-.494-2.489-2.478.824-4.659 3.61-7.482 2.748 5.564-4.312 10.858-9.221 14.66-15.188.2-1.721-2.505-1.907-3.208-.556-3.574 3.444-6.81 7.51-11.386 9.669a71.707 71.707 0 0 0 11.171-14.42c.678-1.544 2.5-3.4 1.511-5.116-1.594-1.319-3.587-.112-4.416 1.467-2.779 3.628-4.889 7.862-8.462 10.816 3.128-5.97 6.367-12.326 6.446-19.212-.01-1.418-.294-3.506-2.219-3.241-1.526.274-1.164 2.558-1.793 3.713-1.385 4.7-2.035 9.8-4.877 13.919.639-3.823 1.758-7.808.9-11.668-.4-1.725-3.187-.983-2.828.724-3.328 16.86-14.642 31.606-29.437 40.136a63.453 63.453 0 0 1-22.041 7.425c-2.071.453-4.311.187-6.29.893-4.8 3.678-7.7 9.832-13.773 11.759-2.722 1.353-6.271 1.627-8.217 4.156a2.191 2.191 0 0 0-.2 1.057" data-name="Path 1338"/><path d="M78.729 55.032c-.9 1.627-1.423 3.5-2.575 4.953-3.466-3.154-8.492-3.05-12.889-3.26-3.629-.194-7.576-.529-10.384-3.117-2.954-2.42-5.365-5.561-8.666-7.525a21.306 21.306 0 0 1-8.472-3.909c-5.176-4.219-8.141-10.48-13.2-14.831a29.484 29.484 0 0 0-3.182-2.49c-1.027.25-.562 2.466-1.818 1.336-.684-.486-2.393-.534-2.547.146 1.547 2.038 3.095 4.365 3.309 6.971-1.055.108-2.93-.223-3.453.17a21.57 21.57 0 0 0 5.236 5.443c-.978.157-2.906.072-3.281.466 2.025 1.65 4.2 3.337 6.847 3.761.543.715-.794 2.1.33 2.707.652.266 2.8.712 1.321 1.453a1.207 1.207 0 0 0 .66 2.245c.822.42 2.667.522 2.811 1.249-.728.741-2.995 1.62-1.066 2.314a13.317 13.317 0 0 0 5.915 1.72c-1.033.869-2.305 1.362-3.368 2.179 4.749 2.785 10.013 4.616 15.215 6.379a48.429 48.429 0 0 0 6.313 1.743A51.75 51.75 0 0 1 33.836 60.4c-2.945-1.292-5.91-2.54-8.927-3.652 1.323-.689 2.854-.857 4.226-1.453-2.849-.571-5.961-.758-8.465-2.324.384-.685 1.839-.717 2.643-1.066 1.513-.362 2.452-.8.318-.934-2.152-.584-4.62-.322-6.516-1.62.122-.778 2.107-.507 2.915-.843a6.05 6.05 0 0 0 2.963-1.006c-3.326-1.379-7.677-.4-10.283-3.339-.6-1.119 1.866-.218 2.568-.4 1.785 0 3.7.567 5.4-.152-4.847-2.128-10.039-4.12-13.736-8.057-.41-.633-1.64-2.362-.648-2.575 2.877.381 4.96 3.521 8.037 3.032.409-.551-1.788-1.454-2.336-2.242C7.508 29.918 3.153 25.74.008 20.696c-.216-1.684 2.431-1.937 3.128-.636 3.432 3.305 6.532 7.162 10.806 9.419 1.517.735-.871-.87-1.189-1.453A76.473 76.473 0 0 1 2.284 13.195c-.494-.973-1.313-2.736.165-3.254 1.478-.74 2.944.268 3.694 1.538 2.9 3.662 5.04 8.015 8.657 11.066-3.081-5.98-6.372-12.275-6.451-19.156.072-1.334.158-3.352 1.967-3.3 1.519-.23 1.279 1.714 1.777 2.641 1.5 5.055 2.149 10.527 5.151 14.99-.663-3.75-1.639-7.612-.991-11.425a1.474 1.474 0 0 1 2.479-.874c.744 1.82.9 4.068 1.576 6.014a60.778 60.778 0 0 0 23.793 32.573 62.653 62.653 0 0 0 31.57 10.839c1.016.089 2.037.119 3.055.182" data-name="Path 1339"/><circle cx=".606" cy=".606" r=".606" data-name="Ellipse 140" transform="translate(63.838 71.306)"/><circle cx=".247" cy=".247" r=".247" stroke="#00afca" stroke-width=".191" data-name="Ellipse 141" transform="translate(64.146 71.567)"/></g><g fill="#fcd93a" data-name="Group 198"><path d="M30.719 40.668s-2.46-2.067-3.3-1.03c-1.344 1.668 4.132 9.976 4.132 12.9 0 4.8-3.2 6.108-7.161 6.794a28.124 28.124 0 0 1-6.978-.193 3.006 3.006 0 0 1 2.715-1.5 5.718 5.718 0 0 1-3.08-5.195c0-4.131 1.7-5.834 1.7-10.492 0-2.584-2.119-5.873-2.119-5.873a5.024 5.024 0 0 1 4.545 6.614 1.829 1.829 0 0 0 1.6-.489 2.77 2.77 0 0 1-.738 2.428c.467.249.809.1 1.553-.054a3.377 3.377 0 0 1-1.7 2.424 4.074 4.074 0 0 1 5.438 3.929 2.97 2.97 0 0 1-2.571 3.185 2.6 2.6 0 0 1-1.354-.423 2.1 2.1 0 0 0 .131 1.7c-.931-.246-1.523-.8-1.1-1.951a2.362 2.362 0 0 1-1.672-.768 1.992 1.992 0 0 1 1.672-.768c-.521-1.075.06-1.677.906-2.165 0 0-.538 2.165.836 2.165.618 0 1.181-.2 1.181-1.112a1.986 1.986 0 0 0-2.3-1.821c-1.6.07-2.9 1.1-2.9 3.662 0 2.359 1.9 3.533 4.411 3.609 2.261.07 3.968-1.155 3.968-3.488 0-3.1-4.482-10.182-4.482-12.948a3.424 3.424 0 0 1 3.695-3.228c2.369 0 4.367 2.345 4.367 2.345l-1.391 1.745Z" data-name="Path 1340"/><path d="M31.237 96.788c0 5.189-4.659 7.856-8.319 7.856-4.932 0-7.558-2.949-7.558-6.809a11.489 11.489 0 0 1 1.41-5.656s8.136-16.919 11.3-23.463a6.9 6.9 0 0 0 .522-3.107 4.134 4.134 0 0 0-8.255.07c0 2.584 1.34 3.736 2.717 3.736 1.694 0 2.369-.7 2.369-1.885 0-.829-.4-1.187-.975-1.187-1.453 0-1.045 1.955-1.045 1.955a1.334 1.334 0 0 1-.975-1.816 2.619 2.619 0 0 1-1.411-.838 2.643 2.643 0 0 1 1.411-.768 1.308 1.308 0 0 1 1.1-1.9 1.958 1.958 0 0 0-.139 1.2 2.964 2.964 0 0 1 3.918 2.933c0 2.653-1.842 4.888-5.294 4.329a2.459 2.459 0 0 1 1.322 2.094 4.838 4.838 0 0 0-1.324-.279 4.448 4.448 0 0 1 .94 2.723c-.64-.291-1.235-.83-2.055-.489 1.288 2.534-.294 6.019-4.319 6.844a8.368 8.368 0 0 0 2.194-5.447c0-6.015-1.672-7.026-1.672-11.208a6.176 6.176 0 0 1 2.682-4.923v.07a3.574 3.574 0 0 1-2.367-1.684 16.1 16.1 0 0 1 8.706.077 6.455 6.455 0 0 1 4.6 3.073 9.3 9.3 0 0 1 0 7.4c-1.6 3.351-9.142 19.343-11.494 24.371a7.989 7.989 0 0 0-.8 3.422c0 3.08 2.821 4.155 4.424 4.155 1.916 0 3.866-1.459 3.866-3.282 0-1.155-.627-1.85-1.533-1.85-2.165 0-2.034 1.842-1.6 3-1.348-.606-2.131-1.688-1.916-2.828a3.45 3.45 0 0 1-2.159-1.222 2.709 2.709 0 0 1 2.159-1.187c-.432-1.769.753-2.518 1.916-2.933-.368 1.3-.609 2.793 1.6 2.793 1.613 0 2.882.279 3.622 1.327.044-1.4.174-6.913.174-6.913.093-2.073-2.775-2.014-4.6-1.4.688-2.388 2.1-3.679 5.364-3.352a2.576 2.576 0 0 1-1.637-2.514 6.58 6.58 0 0 1 2.613-4.734l.518 20.237Z"/><path d="M31.237 112.353c0-5.189-4.659-7.856-8.319-7.856-4.932 0-7.558 2.949-7.558 6.809a11.489 11.489 0 0 0 1.41 5.656s8.136 16.919 11.3 23.463a6.9 6.9 0 0 1 .522 3.107 4.214 4.214 0 0 1-4.18 3.876 4.22 4.22 0 0 1-4.075-3.945c0-2.584 1.34-3.736 2.717-3.736 1.694 0 2.369.7 2.369 1.885 0 .829-.4 1.187-.975 1.187-1.453 0-1.045-1.955-1.045-1.955a1.334 1.334 0 0 0-.975 1.816 2.619 2.619 0 0 0-1.411.838 2.643 2.643 0 0 0 1.411.768 1.308 1.308 0 0 0 1.1 1.9 1.958 1.958 0 0 1-.139-1.2 2.964 2.964 0 0 0 3.918-2.933c0-2.653-1.842-4.888-5.294-4.329a2.459 2.459 0 0 0 1.324-2.095 4.838 4.838 0 0 1-1.324.279 4.448 4.448 0 0 0 .94-2.723c-.64.291-1.235.83-2.055.489 1.288-2.534-.294-6.019-4.319-6.844a8.368 8.368 0 0 1 2.194 5.447c0 6.015-1.672 7.026-1.672 11.208a6.176 6.176 0 0 0 2.682 4.923v-.07a3.574 3.574 0 0 0-2.367 1.684 16.1 16.1 0 0 0 8.706-.077 6.455 6.455 0 0 0 4.6-3.073 9.3 9.3 0 0 0 0-7.4c-1.6-3.351-9.142-19.343-11.494-24.371a7.989 7.989 0 0 1-.8-3.422c0-3.08 2.821-4.155 4.424-4.155 1.916 0 3.866 1.459 3.866 3.282 0 1.155-.627 1.85-1.533 1.85-2.165 0-2.034-1.842-1.6-3-1.348.606-2.131 1.688-1.916 2.828a3.45 3.45 0 0 0-2.159 1.222 2.709 2.709 0 0 0 2.159 1.187c-.432 1.769.753 2.518 1.916 2.933-.368-1.3-.609-2.793 1.6-2.793 1.613 0 2.882-.279 3.622-1.327.044 1.4.174 6.913.174 6.913.093 2.073-2.775 2.014-4.6 1.4.688 2.388 2.1 3.679 5.364 3.352a2.576 2.576 0 0 0-1.637 2.514 6.58 6.58 0 0 0 2.613 4.734l.518-20.237Z" data-name="Path 1341"/><g data-name="Group 195"><path d="M30.72 40.669s2.46-2.067 3.3-1.03c1.344 1.668-4.132 9.976-4.132 12.9 0 4.8 3.2 6.108 7.161 6.794a28.124 28.124 0 0 0 6.974-.192 3.006 3.006 0 0 0-2.715-1.503 5.718 5.718 0 0 0 3.082-5.193c0-4.131-1.7-5.834-1.7-10.492-.001-2.583 2.118-5.873 2.118-5.873a5.024 5.024 0 0 0-4.545 6.618 1.829 1.829 0 0 1-1.6-.489 2.77 2.77 0 0 0 .738 2.428c-.467.249-.809.1-1.553-.054a3.377 3.377 0 0 0 1.7 2.424 4.074 4.074 0 0 0-5.44 3.925 2.97 2.97 0 0 0 2.576 3.185 2.6 2.6 0 0 0 1.354-.419 2.1 2.1 0 0 1-.13 1.7c.931-.246 1.523-.8 1.1-1.951a2.362 2.362 0 0 0 1.672-.768 1.992 1.992 0 0 0-1.672-.768c.521-1.075-.06-1.677-.906-2.165 0 0 .538 2.165-.836 2.165-.618 0-1.181-.2-1.181-1.112a1.986 1.986 0 0 1 2.3-1.821c1.6.07 2.9 1.1 2.9 3.662 0 2.359-1.9 3.533-4.411 3.609-2.266.07-3.966-1.151-3.966-3.488 0-3.1 4.482-10.182 4.482-12.948a3.424 3.424 0 0 0-3.693-3.235c-2.369 0-4.367 2.345-4.367 2.345l1.388 1.745Z" data-name="Path 1342"/><path d="M30.202 96.789c0 5.189 4.659 7.856 8.32 7.856 4.932 0 7.558-2.949 7.558-6.809a11.489 11.489 0 0 0-1.41-5.656s-8.136-16.919-11.3-23.463a6.9 6.9 0 0 1-.522-3.107 4.214 4.214 0 0 1 4.18-3.876 4.22 4.22 0 0 1 4.075 3.945c0 2.584-1.34 3.736-2.717 3.736-1.694 0-2.369-.7-2.369-1.885 0-.829.4-1.187.975-1.187 1.453 0 1.045 1.955 1.045 1.955a1.334 1.334 0 0 0 .975-1.816 2.619 2.619 0 0 0 1.408-.837 2.643 2.643 0 0 0-1.411-.768 1.308 1.308 0 0 0-1.1-1.9 1.958 1.958 0 0 1 .139 1.2 2.964 2.964 0 0 0-3.918 2.933c0 2.653 1.842 4.888 5.294 4.329a2.459 2.459 0 0 0-1.32 2.096 4.838 4.838 0 0 1 1.324-.279 4.448 4.448 0 0 0-.94 2.723c.64-.291 1.235-.83 2.055-.489-1.288 2.534.294 6.019 4.319 6.844a8.368 8.368 0 0 1-2.194-5.447c0-6.015 1.672-7.026 1.672-11.208a6.176 6.176 0 0 0-2.682-4.923v.07a3.574 3.574 0 0 0 2.366-1.681 16.1 16.1 0 0 0-8.706.077 6.455 6.455 0 0 0-4.6 3.073 9.3 9.3 0 0 0 0 7.4c1.602 3.35 9.145 19.342 11.496 24.37a7.989 7.989 0 0 1 .8 3.422c.001 3.079-2.82 4.158-4.422 4.158-1.912 0-3.866-1.463-3.866-3.286 0-1.155.627-1.85 1.533-1.85 2.165 0 2.034 1.842 1.6 3 1.349-.603 2.132-1.685 1.921-2.825a3.45 3.45 0 0 0 2.155-1.222 2.709 2.709 0 0 0-2.155-1.188c.432-1.769-.753-2.518-1.916-2.933.368 1.3.609 2.793-1.6 2.793-1.613 0-2.882.279-3.622 1.327-.044-1.4-.174-6.913-.174-6.913-.093-2.073 2.775-2.014 4.6-1.4-.688-2.388-2.1-3.679-5.364-3.352a2.576 2.576 0 0 0 1.637-2.514 6.58 6.58 0 0 0-2.613-4.734l-.518 20.237Z" data-name="d"/><path d="M30.202 112.358c0-5.189 4.659-7.856 8.319-7.856 4.933-.005 7.559 2.944 7.559 6.804a11.489 11.489 0 0 1-1.41 5.652s-8.136 16.919-11.3 23.463a6.9 6.9 0 0 0-.522 3.107 4.214 4.214 0 0 0 4.176 3.88 4.22 4.22 0 0 0 4.075-3.95c0-2.584-1.34-3.736-2.717-3.736-1.694 0-2.369.7-2.369 1.885 0 .829.4 1.187.975 1.187 1.453 0 1.045-1.955 1.045-1.955a1.334 1.334 0 0 1 .977 1.819 2.619 2.619 0 0 1 1.41.84 2.643 2.643 0 0 1-1.41.768 1.308 1.308 0 0 1-1.1 1.9 1.958 1.958 0 0 0 .139-1.2 2.964 2.964 0 0 1-3.918-2.933c0-2.653 1.842-4.888 5.294-4.329a2.459 2.459 0 0 1-1.324-2.095 4.838 4.838 0 0 0 1.324.279 4.448 4.448 0 0 1-.94-2.723c.64.291 1.235.83 2.055.489-1.288-2.534.294-6.019 4.319-6.844a8.368 8.368 0 0 0-2.192 5.448c0 6.015 1.672 7.026 1.672 11.208a6.176 6.176 0 0 1-2.682 4.92v-.07A3.574 3.574 0 0 1 44.024 150a16.1 16.1 0 0 1-8.706-.077 6.455 6.455 0 0 1-4.6-3.073 9.3 9.3 0 0 1 0-7.4 6429.604 6429.604 0 0 0 11.496-24.373 7.989 7.989 0 0 0 .8-3.422c0-3.08-2.821-4.155-4.424-4.155-1.916 0-3.866 1.459-3.866 3.282 0 1.155.627 1.85 1.533 1.85 2.165 0 2.034-1.842 1.6-3 1.351.604 2.134 1.686 1.923 2.826a3.45 3.45 0 0 1 2.159 1.222 2.709 2.709 0 0 1-2.159 1.188c.432 1.769-.753 2.518-1.916 2.933.368-1.3.609-2.793-1.6-2.793-1.613 0-2.882-.279-3.622-1.327-.044 1.4-.174 6.913-.174 6.913-.093 2.073 2.775 2.014 4.6 1.4-.688 2.388-2.1 3.679-5.364 3.352a2.576 2.576 0 0 1 1.628 2.512 6.58 6.58 0 0 1-2.613 4.734l-.517-20.234Z" data-name="Path 1343"/></g><g data-name="Group 197"><g data-name="e"><path d="M30.719 259.332s-2.46 2.067-3.3 1.03c-1.344-1.668 4.132-9.976 4.132-12.9 0-4.8-3.2-6.108-7.161-6.794a28.124 28.124 0 0 0-6.978.193 3.006 3.006 0 0 0 2.715 1.5 5.718 5.718 0 0 0-3.08 5.195c0 4.131 1.7 5.834 1.7 10.492 0 2.584-2.119 5.873-2.119 5.873a5.024 5.024 0 0 0 4.545-6.614 1.829 1.829 0 0 1 1.6.489 2.77 2.77 0 0 0-.738-2.428c.467-.249.809-.1 1.553.054a3.377 3.377 0 0 0-1.7-2.424 4.074 4.074 0 0 0 5.438-3.929 2.97 2.97 0 0 0-2.571-3.185 2.6 2.6 0 0 0-1.354.423 2.1 2.1 0 0 1 .131-1.7c-.931.246-1.523.8-1.1 1.951a2.362 2.362 0 0 0-1.672.768 1.992 1.992 0 0 0 1.672.768c-.521 1.075.06 1.677.906 2.165 0 0-.538-2.165.836-2.165.618 0 1.181.2 1.181 1.112a1.986 1.986 0 0 1-2.3 1.821c-1.6-.07-2.9-1.1-2.9-3.662 0-2.359 1.9-3.533 4.411-3.609 2.261-.07 3.968 1.155 3.968 3.488 0 3.1-4.482 10.182-4.482 12.948a3.424 3.424 0 0 0 3.695 3.231c2.369 0 4.367-2.345 4.367-2.345l-1.391-1.745Z" data-name="Path 1344"/><path d="M31.237 203.212c0-5.189-4.659-7.856-8.319-7.856-4.932 0-7.558 2.949-7.558 6.809a11.489 11.489 0 0 0 1.41 5.656s8.136 16.919 11.3 23.463a6.9 6.9 0 0 1 .522 3.107 4.214 4.214 0 0 1-4.18 3.876 4.22 4.22 0 0 1-4.075-3.945c0-2.584 1.34-3.736 2.717-3.736 1.694 0 2.369.7 2.369 1.885 0 .829-.4 1.187-.975 1.187-1.453 0-1.045-1.955-1.045-1.955a1.334 1.334 0 0 0-.975 1.816 2.619 2.619 0 0 0-1.411.838 2.643 2.643 0 0 0 1.411.768 1.308 1.308 0 0 0 1.1 1.9 1.958 1.958 0 0 1-.139-1.2 2.964 2.964 0 0 0 3.918-2.933c0-2.653-1.842-4.888-5.294-4.329a2.459 2.459 0 0 0 1.324-2.095 4.838 4.838 0 0 1-1.324.279 4.448 4.448 0 0 0 .94-2.723c-.64.291-1.235.83-2.055.489 1.288-2.534-.294-6.019-4.319-6.844a8.368 8.368 0 0 1 2.194 5.447c0 6.015-1.672 7.026-1.672 11.208a6.176 6.176 0 0 0 2.682 4.923v-.07a3.574 3.574 0 0 0-2.367 1.684 16.1 16.1 0 0 0 8.706-.077 6.455 6.455 0 0 0 4.6-3.073 9.3 9.3 0 0 0 0-7.4c-1.6-3.351-9.142-19.343-11.494-24.371a7.989 7.989 0 0 1-.8-3.422c0-3.08 2.821-4.155 4.424-4.155 1.916 0 3.866 1.459 3.866 3.282 0 1.155-.627 1.85-1.533 1.85-2.165 0-2.034-1.842-1.6-3-1.348.606-2.131 1.688-1.916 2.828a3.45 3.45 0 0 0-2.159 1.222 2.709 2.709 0 0 0 2.159 1.187c-.432 1.769.753 2.518 1.916 2.933-.368-1.3-.609-2.793 1.6-2.793 1.613 0 2.882-.279 3.622-1.327.044 1.4.174 6.913.174 6.913.093 2.073-2.775 2.014-4.6 1.4.688 2.388 2.1 3.679 5.364 3.352a2.576 2.576 0 0 0-1.637 2.514 6.58 6.58 0 0 0 2.613 4.734l.518-20.237Z" data-name="d"/><path d="M31.237 187.648c0 5.189-4.659 7.856-8.319 7.856-4.932 0-7.558-2.949-7.558-6.809a11.489 11.489 0 0 1 1.41-5.656s8.136-16.919 11.3-23.463a6.9 6.9 0 0 0 .522-3.107 4.134 4.134 0 0 0-8.255.07c0 2.584 1.34 3.736 2.717 3.736 1.694 0 2.369-.7 2.369-1.885 0-.829-.4-1.187-.975-1.187-1.453 0-1.045 1.955-1.045 1.955a1.334 1.334 0 0 1-.975-1.816 2.619 2.619 0 0 1-1.411-.838 2.643 2.643 0 0 1 1.411-.768 1.308 1.308 0 0 1 1.1-1.9 1.958 1.958 0 0 0-.139 1.2 2.964 2.964 0 0 1 3.918 2.933c0 2.653-1.842 4.888-5.294 4.329a2.459 2.459 0 0 1 1.322 2.094 4.838 4.838 0 0 0-1.324-.279 4.448 4.448 0 0 1 .94 2.723c-.64-.291-1.235-.83-2.055-.489 1.288 2.534-.294 6.019-4.319 6.844a8.368 8.368 0 0 0 2.194-5.447c0-6.015-1.672-7.026-1.672-11.208a6.176 6.176 0 0 1 2.682-4.923v.07a3.574 3.574 0 0 1-2.367-1.684 16.1 16.1 0 0 1 8.706.077 6.455 6.455 0 0 1 4.6 3.073 9.3 9.3 0 0 1 0 7.4c-1.6 3.351-9.142 19.343-11.494 24.371a7.989 7.989 0 0 0-.8 3.422c0 3.08 2.821 4.155 4.424 4.155 1.916 0 3.866-1.459 3.866-3.282 0-1.155-.627-1.85-1.533-1.85-2.165 0-2.034 1.842-1.6 3-1.348-.606-2.131-1.688-1.916-2.828a3.45 3.45 0 0 1-2.159-1.222 2.709 2.709 0 0 1 2.159-1.187c-.432-1.769.753-2.518 1.916-2.933-.368 1.3-.609 2.793 1.6 2.793 1.613 0 2.882.279 3.622 1.327.044-1.4.174-6.913.174-6.913.093-2.073-2.775-2.014-4.6-1.4.688-2.388 2.1-3.679 5.364-3.352a2.576 2.576 0 0 1-1.637-2.514 6.58 6.58 0 0 1 2.613-4.734l.518 20.237Z" data-name="Path 1345"/></g><g data-name="Group 196"><path d="M30.72 259.333s2.46 2.067 3.3 1.03c1.344-1.668-4.132-9.976-4.132-12.9 0-4.8 3.2-6.108 7.161-6.794a28.124 28.124 0 0 1 6.978.193 3.006 3.006 0 0 1-2.715 1.5 5.718 5.718 0 0 1 3.078 5.194c0 4.131-1.7 5.834-1.7 10.492-.001 2.584 2.118 5.873 2.118 5.873a5.024 5.024 0 0 1-4.545-6.614 1.829 1.829 0 0 0-1.6.489 2.77 2.77 0 0 1 .738-2.428c-.467-.249-.809-.1-1.553.054a3.377 3.377 0 0 1 1.7-2.424 4.074 4.074 0 0 1-5.44-3.928 2.97 2.97 0 0 1 2.571-3.185 2.6 2.6 0 0 1 1.354.423 2.1 2.1 0 0 0-.131-1.7c.931.246 1.523.8 1.1 1.951a2.362 2.362 0 0 1 1.679.762 1.992 1.992 0 0 1-1.673.769c.521 1.075-.06 1.677-.906 2.165 0 0 .538-2.165-.836-2.165-.618 0-1.181.2-1.181 1.112a1.986 1.986 0 0 0 2.3 1.821c1.6-.07 2.9-1.1 2.9-3.662 0-2.359-1.9-3.533-4.411-3.609-2.261-.07-3.968 1.155-3.968 3.488 0 3.1 4.482 10.182 4.482 12.948a3.424 3.424 0 0 1-3.694 3.233c-2.369 0-4.367-2.345-4.367-2.345l1.391-1.743Z" data-name="Path 1346"/><path d="M30.202 203.218c0-5.189 4.659-7.856 8.319-7.856 4.933-.005 7.559 2.944 7.559 6.804a11.489 11.489 0 0 1-1.41 5.652s-8.136 16.919-11.3 23.463a6.9 6.9 0 0 0-.522 3.107 4.214 4.214 0 0 0 4.176 3.88 4.22 4.22 0 0 0 4.075-3.95c0-2.584-1.34-3.736-2.717-3.736-1.694 0-2.369.7-2.369 1.885 0 .829.4 1.187.975 1.187 1.453 0 1.045-1.955 1.045-1.955a1.334 1.334 0 0 1 .977 1.819 2.619 2.619 0 0 1 1.41.84 2.643 2.643 0 0 1-1.41.768 1.308 1.308 0 0 1-1.1 1.9 1.958 1.958 0 0 0 .139-1.2 2.964 2.964 0 0 1-3.918-2.933c0-2.653 1.842-4.888 5.294-4.329a2.459 2.459 0 0 1-1.324-2.095 4.838 4.838 0 0 0 1.324.279 4.448 4.448 0 0 1-.94-2.723c.64.291 1.235.83 2.055.489-1.288-2.534.294-6.019 4.319-6.844a8.368 8.368 0 0 0-2.192 5.448c0 6.015 1.672 7.026 1.672 11.208a6.176 6.176 0 0 1-2.682 4.92v-.07a3.574 3.574 0 0 1 2.367 1.684 16.1 16.1 0 0 1-8.706-.077 6.455 6.455 0 0 1-4.6-3.073 9.3 9.3 0 0 1 0-7.4 6429.604 6429.604 0 0 0 11.496-24.373 7.989 7.989 0 0 0 .8-3.422c0-3.08-2.821-4.155-4.424-4.155-1.916 0-3.866 1.459-3.866 3.282 0 1.155.627 1.85 1.533 1.85 2.165 0 2.034-1.842 1.6-3 1.351.604 2.134 1.686 1.923 2.826a3.45 3.45 0 0 1 2.159 1.222 2.709 2.709 0 0 1-2.159 1.188c.432 1.769-.753 2.518-1.916 2.933.368-1.3.609-2.793-1.6-2.793-1.613 0-2.882-.279-3.622-1.327-.044 1.4-.174 6.913-.174 6.913-.093 2.073 2.775 2.014 4.6 1.4-.688 2.388-2.1 3.679-5.364 3.352a2.576 2.576 0 0 1 1.628 2.512 6.58 6.58 0 0 1-2.613 4.734l-.517-20.234Z" data-name="d"/><path d="M30.202 187.648c0 5.189 4.659 7.856 8.32 7.856 4.932 0 7.558-2.949 7.558-6.809a11.489 11.489 0 0 0-1.41-5.656s-8.136-16.919-11.3-23.463a6.9 6.9 0 0 1-.522-3.107 4.214 4.214 0 0 1 4.18-3.876 4.22 4.22 0 0 1 4.075 3.945c0 2.584-1.34 3.736-2.717 3.736-1.694 0-2.369-.7-2.369-1.885 0-.829.4-1.187.975-1.187 1.453 0 1.045 1.955 1.045 1.955a1.334 1.334 0 0 0 .975-1.816 2.619 2.619 0 0 0 1.408-.837 2.643 2.643 0 0 0-1.411-.768 1.308 1.308 0 0 0-1.1-1.9 1.958 1.958 0 0 1 .139 1.2 2.964 2.964 0 0 0-3.918 2.933c0 2.653 1.842 4.888 5.294 4.329a2.459 2.459 0 0 0-1.32 2.096 4.838 4.838 0 0 1 1.324-.279 4.448 4.448 0 0 0-.94 2.723c.64-.291 1.235-.83 2.055-.489-1.288 2.534.294 6.019 4.319 6.844a8.368 8.368 0 0 1-2.194-5.447c0-6.015 1.672-7.026 1.672-11.208a6.176 6.176 0 0 0-2.682-4.923v.07a3.574 3.574 0 0 0 2.366-1.681 16.1 16.1 0 0 0-8.706.077 6.455 6.455 0 0 0-4.6 3.073 9.3 9.3 0 0 0 0 7.4c1.602 3.35 9.145 19.342 11.496 24.37a7.989 7.989 0 0 1 .8 3.422c.001 3.079-2.82 4.158-4.422 4.158-1.912 0-3.866-1.463-3.866-3.286 0-1.155.627-1.85 1.533-1.85 2.165 0 2.034 1.842 1.6 3 1.349-.603 2.132-1.685 1.921-2.825a3.45 3.45 0 0 0 2.155-1.222 2.709 2.709 0 0 0-2.155-1.188c.432-1.769-.753-2.518-1.916-2.933.368 1.3.609 2.793-1.6 2.793-1.613 0-2.882.279-3.622 1.327-.044-1.4-.174-6.913-.174-6.913-.093-2.073 2.775-2.014 4.6-1.4-.688-2.388-2.1-3.679-5.364-3.352a2.576 2.576 0 0 0 1.637-2.514 6.58 6.58 0 0 0-2.613-4.734l-.518 20.237Z" data-name="Path 1347"/></g></g></g></g></svg>