<svg xmlns="http://www.w3.org/2000/svg" xmlns:xlink="http://www.w3.org/1999/xlink" width="512" height="300" viewBox="0 0 512 300"><defs><clipPath id="b"><rect width="512" height="300"/></clipPath></defs><g id="a" clip-path="url(#b)"><g transform="translate(-1094.5 -1096.5)"><rect width="512" height="300" transform="translate(1094.5 1096.5)" fill="#e0193a"/><rect width="512" height="21.572" transform="translate(1094.5 1374.928)" fill="#fff"/><rect width="512" height="21.572" transform="translate(1094.5 1331.783)" fill="#fff"/><rect width="512" height="21.572" transform="translate(1094.5 1289.256)" fill="#fff"/><rect width="512" height="21.572" transform="translate(1094.5 1246.422)" fill="#fff"/><rect width="512" height="21.572" transform="translate(1094.5 1203.587)" fill="#fff"/><rect width="512" height="21.572" transform="translate(1094.5 1160.753)" fill="#fff"/><rect width="512" height="21.572" transform="translate(1094.5 1118.072)" fill="#fff"/><path d="M0,0H256.013V172.578H0Z" transform="translate(1094.5 1096.5)" fill="#2f4ba1"/><path d="M1172.275,1107.214a48.15,48.15,0,1,0,26.151,88.631,42.691,42.691,0,1,1,.855-80.4A48.183,48.183,0,0,0,1172.275,1107.214Z" transform="translate(30.859 26.858)" fill="#fcd93a"/><path d="M1233.718,1177.763l-20.35-10.618,6.016,21.73-13.611-18.177-4.247,22.124-4.176-22.136-13.668,18.136,6.087-21.712-20.384,10.556,15.142-16.986-23.062.885,21.2-8.9-21.171-8.961,23.059.954-15.088-17.032,20.35,10.618-6.016-21.73,13.611,18.177,4.247-22.124,4.177,22.136,13.668-18.137-6.087,21.712,20.384-10.557-15.142,16.986,23.062-.885-21.2,8.9,21.171,8.961-23.059-.956Z" transform="translate(50.929 29.526)" fill="#fcd93a"/></g></g></svg>