<svg xmlns="http://www.w3.org/2000/svg" width="512" height="300"><defs><clipPath id="a"><path d="M0 0h512v300H0z"/></clipPath></defs><g clip-path="url(#a)"><path fill="#e0193a" d="M0 0h512v300H0z"/><path fill="#fff" d="M0 278.428h512V300H0zM0 235.283h512v21.572H0zM0 192.756h512v21.572H0zM0 149.922h512v21.572H0zM0 107.087h512v21.572H0zM0 64.253h512v21.572H0zM0 21.572h512v21.572H0z"/><path fill="#2f4ba1" d="M0 0h256.013v172.578H0Z"/><path fill="#fcd93a" d="M108.634 37.572a48.15 48.15 0 1 0 26.151 88.631 42.691 42.691 0 1 1 .855-80.4 48.183 48.183 0 0 0-27.006-8.231Z"/><path fill="#fcd93a" d="m190.147 110.789-20.35-10.618 6.016 21.73-13.611-18.177-4.247 22.124-4.176-22.136-13.668 18.136 6.087-21.712-20.384 10.556 15.142-16.986-23.062.885 21.2-8.9-21.171-8.961 23.059.954-15.088-17.032 20.35 10.618-6.016-21.73 13.611 18.177 4.247-22.124 4.177 22.136 13.668-18.137-6.087 21.712 20.384-10.557-15.142 16.986 23.062-.885-21.2 8.9 21.171 8.961-23.059-.956Z"/></g></svg>