<svg xmlns="http://www.w3.org/2000/svg" xmlns:xlink="http://www.w3.org/1999/xlink" width="512" height="300" viewBox="0 0 512 300"><defs><clipPath id="b"><rect width="512" height="300"/></clipPath></defs><g id="a" clip-path="url(#b)"><rect width="512" height="300" fill="#fcd93a"/><rect width="512" height="201" transform="translate(0 99)" fill="#3ca469"/><path d="M0,0H512V99H0Z" transform="translate(0 201)" fill="#f23b27"/><g transform="translate(140.061 50.087)"><path d="M-1.437,106.32,34.546-4.422,70.528,106.32Z" transform="translate(81.896 4.422)" fill="#fff"/><path d="M0,110.743,35.983,0,71.965,110.743Z" transform="matrix(-0.809, -0.588, 0.588, -0.809, 80.459, 221.485)" fill="#fff"/><path d="M0,110.743,35.982,0,71.965,110.743Z" transform="translate(0 110.742) rotate(-72)" fill="#fff"/><path d="M0,110.743,35.982,0,71.965,110.743Z" transform="translate(210.645 42.299) rotate(72)" fill="#fff"/><path d="M0,110.743,35.983,0,71.965,110.743Z" transform="matrix(-0.809, 0.588, -0.588, -0.809, 210.645, 179.185)" fill="#fff"/></g></g></svg>