<svg xmlns="http://www.w3.org/2000/svg" width="512" height="300"><defs><clipPath id="b"><path d="M0 0h512v300H0Z" data-name="Path 1518"/></clipPath><clipPath id="a"><path d="M0 0h512v300H0z"/></clipPath></defs><g clip-path="url(#a)"><path fill="#2f4ba1" d="M0 300V0h512Z" data-name="Path 1514"/><path fill="#358142" d="M512 0v300H0Z" data-name="Path 1515"/><g fill="none" clip-path="url(#b)" data-name="Group 232"><path stroke="#fff" stroke-width="20" d="M0 300 512 0" data-name="Path 1516"/><path stroke="#f41b36" stroke-width="15" d="M0 300 512 0" data-name="Path 1517"/></g><g fill="#fcd93a" data-name="Group 233" transform="translate(40 31.707)"><path d="m50 0 7.75 21L75 6.7l-3.8 22.1L93.3 25 79 42.25 100 50l-21 7.75L93.3 75l-22.1-3.8L75 93.3 57.75 79 50 100l-7.75-21L25 93.3l3.8-22.1L6.7 75 21 57.75 0 50l21-7.75L6.7 25l22.1 3.8L25 6.7 42.25 21Z" data-name="Path 1519"/><circle cx="27.5" cy="27.5" r="27.5" stroke="#003580" data-name="Ellipse 144" transform="translate(22.5 22.5)"/></g></g></svg>