<svg xmlns="http://www.w3.org/2000/svg" xmlns:xlink="http://www.w3.org/1999/xlink" width="512" height="300" viewBox="0 0 512 300"><defs><clipPath id="a"><path d="M0,0H512V300H0Z"/></clipPath><clipPath id="c"><rect width="512" height="300"/></clipPath></defs><g id="b" clip-path="url(#c)"><path d="M0,300V0H512Z" fill="#2f4ba1"/><path d="M512,0V300H0Z" fill="#358142"/><g clip-path="url(#a)"><path d="M0,300,512,0" fill="none" stroke="#fff" stroke-width="20"/><path d="M0,300,512,0" fill="none" stroke="#f41b36" stroke-width="15"/></g><g transform="translate(40 31.707)"><path d="M40-10l7.75,21L65-3.3,61.2,18.8,83.3,15,69,32.25,90,40,69,47.75,83.3,65,61.2,61.2,65,83.3,47.75,69,40,90,32.25,69,15,83.3l3.8-22.1L-3.3,65,11,47.75-10,40l21-7.75L-3.3,15l22.1,3.8L15-3.3,32.25,11Z" transform="translate(10 10)" fill="#fcd93a"/><circle cx="27.5" cy="27.5" r="27.5" transform="translate(22.5 22.5)" fill="#fcd93a" stroke="#003580" stroke-width="1"/></g></g></svg>