<svg xmlns="http://www.w3.org/2000/svg" width="512" height="300"><defs><clipPath id="b"><path d="M0 0h254.509v127.254H0Z" data-name="Path 17"/></clipPath><clipPath id="c"><path d="m0 0 127.254 63.627H0Zm127.254 0h127.255L127.254 63.627Zm0 63.627h127.255v63.627Zm0 0v63.627H0Z" data-name="Path 18"/></clipPath><clipPath id="a"><path d="M0 0h512v300H0z"/></clipPath></defs><g clip-path="url(#a)"><path fill="#2f4ba1" d="M0 0h512v300H0z" data-name="Rectangle 4"/><g clip-path="url(#b)" data-name="Group 3"><path stroke="#fff" stroke-width="25.451" d="m0 0 254.509 127.254M0 127.254 254.509 0"/></g><g clip-path="url(#c)" data-name="Group 4"><path stroke="#e0193a" stroke-width="16.967" d="m0 0 254.509 127.254M0 127.254 254.509 0"/></g><g clip-path="url(#b)" data-name="Group 5"><path stroke="#fff" stroke-width="42.418" d="M127.254 0v127.254M0 63.627h254.509" data-name="Path 19"/></g><g clip-path="url(#b)" data-name="Group 6"><path fill="#e0193a" stroke="#e0193a" stroke-width="25.451" d="M127.254 0v127.254M0 63.627h254.509" data-name="Path 21"/></g><g fill="#fff" data-name="Group 11"><path d="M384.746 44.644v9.629l19.258-9.629Z" data-name="Path 23"/><path d="m388.426 55.964-5.662-7.79 21.242-3.534Z" data-name="Path 24"/><g data-name="Group 7"><path d="M384.746 44.643v9.629l-19.258-9.629Z" data-name="Path 25"/><path d="m381.068 55.963 5.662-7.79-21.242-3.534Z" data-name="Path 26"/></g><g data-name="Group 8"><path d="m390.697 48.967-9.158 2.976 15.109 15.34Z" data-name="Path 27"/><path d="m381.068 55.965 5.659-7.792 9.925 19.11Z" data-name="Path 28"/></g><g data-name="Group 9"><path d="m378.795 48.967 9.158 2.976-3.207-21.291Z" data-name="Path 29"/><path d="m390.698 48.966-9.158 2.977 3.203-21.294Z" data-name="Path 30"/></g><g data-name="Group 10"><path d="m378.795 48.968 9.157 2.975-15.108 15.34Z" data-name="Path 31"/><path d="m388.424 55.964-5.659-7.792-9.925 19.11Z" data-name="Path 32"/></g></g><g fill="#e0193a" data-name="Group 16"><g data-name="Arm"><path d="M384.746 46.767v6.363l12.725-6.363Z" data-name="Path 33"/><path d="m387.177 54.247-3.741-5.148 14.037-2.335Z" data-name="Path 34"/></g><g data-name="Group 12"><path d="M384.745 46.766v6.363l-12.725-6.363Z" data-name="Path 35"/><path d="m382.315 54.246 3.741-5.148-14.036-2.335Z" data-name="Path 36"/></g><g data-name="Group 13"><path d="m388.678 49.624-6.052 1.966 9.984 10.136Z" data-name="Path 37"/><path d="m382.316 54.247 3.74-5.149 6.558 12.629Z" data-name="Path 38"/></g><g data-name="Group 14"><path d="m380.814 49.623 6.051 1.966-2.119-14.068Z" data-name="Path 39"/><path d="m388.679 49.622-6.052 1.967 2.117-14.07Z" data-name="Path 40"/></g><g data-name="Group 15"><path d="m380.813 49.623 6.052 1.967-9.984 10.136Z" data-name="Path 41"/><path d="m387.176 54.246-3.74-5.15-6.558 12.63Z" data-name="Path 42"/></g></g><g data-name="Group 37"><g fill="#fff" data-name="Group 21"><g data-name="Arm"><path d="M435.151 102.822v8.568l17.137-8.568Z" data-name="Path 43"/><path d="m438.426 112.895-5.039-6.932 18.903-3.145Z" data-name="Path 44"/></g><g data-name="Group 17"><path d="M435.151 102.823v8.568l-17.137-8.568Z" data-name="Path 45"/><path d="m431.88 112.895 5.038-6.933-18.903-3.144Z" data-name="Path 46"/></g><g data-name="Group 18"><path d="m440.448 106.67-8.15 2.647 13.445 13.65Z" data-name="Path 47"/><path d="m431.88 112.897 5.035-6.935 8.832 17.006Z" data-name="Path 48"/></g><g data-name="Group 19"><path d="m429.856 106.67 8.15 2.647-2.854-18.946Z" data-name="Path 49"/><path d="m440.448 106.668-8.15 2.65 2.851-18.95Z" data-name="Path 50"/></g><g data-name="Group 20"><path d="m429.855 106.67 8.15 2.648-13.445 13.65Z" data-name="Path 51"/><path d="m438.424 112.894-5.036-6.934-8.831 17.006Z" data-name="Path 52"/></g></g><g fill="#e0193a" data-name="Group 26"><g data-name="Arm"><path d="M435.15 104.945v5.3l10.6-5.3Z" data-name="Path 53"/><path d="m437.176 111.176-3.116-4.288 11.691-1.945Z" data-name="Path 54"/></g><g data-name="Group 22"><path d="M435.152 104.946v5.3l-10.6-5.3Z" data-name="Path 55"/><path d="m433.126 111.177 3.116-4.288-11.692-1.945Z" data-name="Path 56"/></g><g data-name="Group 23"><path d="m438.428 107.325-5.04 1.638 8.315 8.443Z" data-name="Path 57"/><path d="m433.128 111.177 3.115-4.289 5.463 10.518Z" data-name="Path 58"/></g><g data-name="Group 24"><path d="m431.875 107.326 5.04 1.638-1.765-11.72Z" data-name="Path 59"/><path d="m438.426 107.325-5.04 1.639 1.763-11.72Z" data-name="Path 60"/></g><g data-name="Group 25"><path d="m431.876 107.325 5.041 1.638-8.316 8.443Z" data-name="Path 61"/><path d="m437.176 111.177-3.114-4.289-5.463 10.519Z" data-name="Path 62"/></g></g><g fill="#fff" data-name="Group 31"><g data-name="Arm"><path d="M325.938 117.481v9.63l19.258-9.63Z" data-name="Path 63"/><path d="m329.617 128.801-5.661-7.79 21.241-3.533Z" data-name="Path 64"/></g><g data-name="Group 27"><path d="M325.938 117.48v9.63l-19.258-9.63Z" data-name="Path 65"/><path d="m322.26 128.8 5.661-7.79-21.241-3.533Z" data-name="Path 66"/></g><g data-name="Group 28"><path d="m331.888 121.805-9.157 2.975 15.108 15.34Z" data-name="Path 67"/><path d="m322.26 128.802 5.659-7.792 9.925 19.11Z" data-name="Path 68"/></g><g data-name="Group 29"><path d="m319.987 121.805 9.158 2.975-3.207-21.29Z" data-name="Path 69"/><path d="m331.89 121.803-9.158 2.977 3.203-21.293Z" data-name="Path 70"/></g><g data-name="Group 30"><path d="m319.986 121.805 9.158 2.976-15.109 15.34Z" data-name="Path 71"/><path d="m329.616 128.801-5.66-7.792-9.924 19.11Z" data-name="Path 72"/></g></g><g fill="#e0193a" data-name="Group 36"><g data-name="Arm"><path d="M325.938 119.605v6.363l12.725-6.363Z" data-name="Path 73"/><path d="m328.37 127.084-3.742-5.147 14.037-2.336Z" data-name="Path 74"/></g><g data-name="Group 32"><path d="M325.937 119.604v6.363l-12.725-6.363Z" data-name="Path 75"/><path d="m323.507 127.084 3.741-5.148-14.036-2.335Z" data-name="Path 76"/></g><g data-name="Group 33"><path d="m329.87 122.461-6.052 1.967 9.984 10.136Z" data-name="Path 77"/><path d="m323.508 127.085 3.74-5.149 6.558 12.628Z" data-name="Path 78"/></g><g data-name="Group 34"><path d="m322.006 122.46 6.051 1.967-2.119-14.07Z" data-name="Path 79"/><path d="m329.87 122.46-6.051 1.967 2.117-14.071Z" data-name="Path 80"/></g><g data-name="Group 35"><path d="m322.005 122.461 6.052 1.966-9.984 10.137Z" data-name="Path 81"/><path d="m328.368 127.084-3.74-5.15-6.558 12.629Z" data-name="Path 82"/></g></g></g><g fill="#fff" data-name="Group 42"><g data-name="Arm"><path d="M384.745 242.151v10.689l21.379-10.689Z" data-name="Path 83"/><path d="m388.83 254.716-6.285-8.647 23.58-3.923Z" data-name="Path 84"/></g><g data-name="Group 38"><path d="M384.746 242.151v10.689l-21.379-10.689Z" data-name="Path 85"/><path d="m380.663 254.717 6.285-8.647-23.58-3.924Z" data-name="Path 86"/></g><g data-name="Group 39"><path d="m391.352 246.95-10.166 3.304 16.773 17.03Z" data-name="Path 87"/><path d="m380.664 254.719 6.282-8.65 11.018 21.214Z" data-name="Path 88"/></g><g data-name="Group 40"><path d="m378.14 246.951 10.165 3.303-3.559-23.636Z" data-name="Path 89"/><path d="m391.352 246.949-10.166 3.305 3.555-23.639Z" data-name="Path 90"/></g><g data-name="Group 41"><path d="m378.14 246.951 10.165 3.303-16.772 17.03Z" data-name="Path 91"/><path d="m388.828 254.717-6.282-8.65-11.018 21.215Z" data-name="Path 92"/></g></g><g fill="#e0193a" data-name="Group 47"><g data-name="Arm"><path d="M384.745 244.273v7.423l14.846-7.423Z" data-name="Path 93"/><path d="m387.582 253-4.365-6.005 16.375-2.724Z" data-name="Path 94"/></g><g data-name="Group 43"><path d="M384.745 244.274v7.423l-14.846-7.423Z" data-name="Path 95"/><path d="m381.91 253 4.365-6.005-16.375-2.724Z" data-name="Path 96"/></g><g data-name="Group 44"><path d="m389.332 247.607-7.06 2.294 11.648 11.826Z" data-name="Path 97"/><path d="m381.91 253.002 4.362-6.007 7.651 14.732Z" data-name="Path 98"/></g><g data-name="Group 45"><path d="m380.158 247.607 7.06 2.294-2.472-16.414Z" data-name="Path 99"/><path d="m389.334 247.605-7.06 2.296 2.47-16.416Z" data-name="Path 100"/></g><g data-name="Group 46"><path d="m380.158 247.607 7.06 2.294-11.648 11.825Z" data-name="Path 101"/><path d="m387.58 253-4.362-6.007-7.65 14.731Z" data-name="Path 102"/></g></g></g></svg>