<svg xmlns="http://www.w3.org/2000/svg" xmlns:xlink="http://www.w3.org/1999/xlink" width="512" height="300" viewBox="0 0 512 300"><defs><clipPath id="a"><path d="M0,0H254.509V127.254H0Z"/></clipPath><clipPath id="b"><path d="M0,0,127.254,63.627H0ZM127.254,0H254.509L127.254,63.627Zm0,63.627H254.509v63.627Zm0,0v63.627H0Z"/></clipPath><clipPath id="f"><rect width="512" height="300"/></clipPath></defs><g id="e" clip-path="url(#f)"><rect width="512" height="300" fill="#2f4ba1"/><g clip-path="url(#a)"><path d="M0,0,254.509,127.254M0,127.254,254.509,0" stroke="#fff" stroke-width="25.451"/></g><g clip-path="url(#b)"><path d="M0,0,254.509,127.254M0,127.254,254.509,0" stroke="#e0193a" stroke-width="16.967"/></g><g clip-path="url(#a)"><path d="M127.254,0V127.254M0,63.627H254.509" stroke="#fff" stroke-width="42.418"/></g><g clip-path="url(#a)"><path d="M127.254,0V127.254M0,63.627H254.509" fill="#e0193a" stroke="#e0193a" stroke-width="25.451"/></g><g transform="translate(300.764 28.245)"><g transform="translate(64.671)"><g transform="translate(17.329 8.609)"><path d="M0,0V9.629L19.258,0Z" transform="translate(1.982 7.79)" fill="#fff"/><path d="M0,9.629V0L19.258,9.629Z" transform="matrix(0.809, -0.588, 0.588, 0.809, 0, 11.32)" fill="#fff"/></g><g transform="translate(21.293 27.718) rotate(180)"><path d="M0,9.629V0L19.258,9.629Z" transform="translate(1.982 1.691)" fill="#fff"/><path d="M0,0V9.629L19.258,0Z" transform="matrix(0.809, 0.588, -0.588, 0.809, 5.66, 0)" fill="#fff"/></g><g transform="translate(32.058 16.43) rotate(72)"><path d="M0,0V9.629L19.258,0Z" transform="translate(1.982 7.79)" fill="#fff"/><path d="M0,9.629V0L19.258,9.629Z" transform="matrix(0.809, -0.588, 0.588, 0.809, 0, 11.32)" fill="#fff"/></g><g transform="translate(5.339 20.2) rotate(-72)"><path d="M0,0V9.629L19.258,0Z" transform="translate(1.982 7.79)" fill="#fff"/><path d="M0,9.629V0L19.258,9.629Z" transform="matrix(0.809, -0.588, 0.588, 0.809, 0, 11.32)" fill="#fff"/></g><g transform="translate(24.738 22.336) rotate(108)"><path d="M0,9.629V0L19.258,9.629Z" transform="translate(1.982 1.691)" fill="#fff"/><path d="M0,0V9.629L19.258,0Z" transform="matrix(0.809, 0.588, -0.588, 0.809, 5.66, 0)" fill="#fff"/></g><g transform="translate(6.55 7.685)"><g transform="translate(11.451 5.689)"><path d="M0,0V6.363L12.725,0Z" transform="translate(1.31 5.148)" fill="#e0193a"/><path d="M0,6.363V0L12.726,6.363Z" transform="matrix(0.809, -0.588, 0.588, 0.809, 0, 7.48)" fill="#e0193a"/></g><g transform="translate(14.07 18.316) rotate(180)"><path d="M0,6.363V0L12.725,6.363Z" transform="translate(1.31 1.117)" fill="#e0193a"/><path d="M0,0V6.363L12.726,0Z" transform="matrix(0.809, 0.588, -0.588, 0.809, 3.74, 0)" fill="#e0193a"/></g><g transform="translate(21.184 10.857) rotate(72)"><path d="M0,0V6.363L12.725,0Z" transform="translate(1.31 5.148)" fill="#e0193a"/><path d="M0,6.363V0L12.726,6.363Z" transform="matrix(0.809, -0.588, 0.588, 0.809, 0, 7.48)" fill="#e0193a"/></g><g transform="translate(3.528 13.348) rotate(-72)"><path d="M0,0V6.363L12.725,0Z" transform="translate(1.31 5.148)" fill="#e0193a"/><path d="M0,6.363V0L12.726,6.363Z" transform="matrix(0.809, -0.588, 0.588, 0.809, 0, 7.48)" fill="#e0193a"/></g><g transform="translate(16.347 14.759) rotate(108)"><path d="M0,6.363V0L12.725,6.363Z" transform="translate(1.31 1.117)" fill="#e0193a"/><path d="M0,0V6.363L12.726,0Z" transform="matrix(0.809, 0.588, -0.588, 0.809, 3.74, 0)" fill="#e0193a"/></g></g></g><g transform="translate(150.521 52.507) rotate(82)"><g transform="translate(2.767)"><g transform="translate(0 34.034) rotate(-82)"><g transform="translate(15.42 7.661)"><path d="M0,0V8.568L17.137,0Z" transform="translate(1.764 6.932)" fill="#fff"/><path d="M0,8.569V0L17.137,8.569Z" transform="matrix(0.809, -0.588, 0.588, 0.809, 0, 10.073)" fill="#fff"/></g><g transform="translate(18.948 24.666) rotate(180)"><path d="M0,8.568V0L17.137,8.568Z" transform="translate(1.764 1.504)" fill="#fff"/><path d="M0,0V8.569L17.137,0Z" transform="matrix(0.809, 0.588, -0.588, 0.809, 5.036, 0)" fill="#fff"/></g><g transform="translate(28.528 14.621) rotate(72)"><path d="M0,0V8.569L17.137,0Z" transform="translate(1.764 6.932)" fill="#fff"/><path d="M0,8.569V0L17.137,8.569Z" transform="matrix(0.809, -0.588, 0.588, 0.809, 0, 10.073)" fill="#fff"/></g><g transform="translate(4.751 17.976) rotate(-72)"><path d="M0,0V8.569L17.137,0Z" transform="translate(1.764 6.932)" fill="#fff"/><path d="M0,8.569V0L17.137,8.569Z" transform="matrix(0.809, -0.588, 0.588, 0.809, 0, 10.073)" fill="#fff"/></g><g transform="translate(22.013 19.876) rotate(108)"><path d="M0,8.569V0L17.137,8.569Z" transform="translate(1.764 1.504)" fill="#fff"/><path d="M0,0V8.569L17.137,0Z" transform="matrix(0.809, 0.588, -0.588, 0.809, 5.036, 0)" fill="#fff"/></g></g><g transform="translate(8.522 28.617) rotate(-82)"><g transform="translate(9.542 4.741)"><path d="M0,0V5.3L10.6,0Z" transform="translate(1.091 4.29)" fill="#e0193a"/><path d="M0,5.3V0L10.6,5.3Z" transform="matrix(0.809, -0.588, 0.588, 0.809, 0, 6.233)" fill="#e0193a"/></g><g transform="translate(11.725 15.263) rotate(180)"><path d="M0,5.3V0L10.6,5.3Z" transform="translate(1.091 0.931)" fill="#e0193a"/><path d="M0,0V5.3L10.6,0Z" transform="matrix(0.809, 0.588, -0.588, 0.809, 3.117, 0)" fill="#e0193a"/></g><g transform="translate(17.653 9.048) rotate(72)"><path d="M0,0V5.3L10.6,0Z" transform="translate(1.091 4.29)" fill="#e0193a"/><path d="M0,5.3V0L10.6,5.3Z" transform="matrix(0.809, -0.588, 0.588, 0.809, 0, 6.233)" fill="#e0193a"/></g><g transform="translate(2.94 11.124) rotate(-72)"><path d="M0,0V5.3L10.6,0Z" transform="translate(1.091 4.29)" fill="#e0193a"/><path d="M0,5.3V0L10.6,5.3Z" transform="matrix(0.809, -0.588, 0.588, 0.809, 0, 6.233)" fill="#e0193a"/></g><g transform="translate(13.622 12.299) rotate(108)"><path d="M0,5.3V0L10.6,5.3Z" transform="translate(1.091 0.931)" fill="#e0193a"/><path d="M0,0V5.3L10.6,0Z" transform="matrix(0.809, 0.588, -0.588, 0.809, 3.117, 0)" fill="#e0193a"/></g></g></g><g transform="translate(0 107.834)"><g transform="translate(0 38.246) rotate(-82)"><g transform="translate(17.329 8.609)"><path d="M0,0V9.629L19.258,0Z" transform="translate(1.982 7.79)" fill="#fff"/><path d="M0,9.629V0L19.258,9.629Z" transform="matrix(0.809, -0.588, 0.588, 0.809, 0, 11.32)" fill="#fff"/></g><g transform="translate(21.293 27.718) rotate(180)"><path d="M0,9.629V0L19.258,9.629Z" transform="translate(1.982 1.691)" fill="#fff"/><path d="M0,0V9.629L19.258,0Z" transform="matrix(0.809, 0.588, -0.588, 0.809, 5.66, 0)" fill="#fff"/></g><g transform="translate(32.058 16.43) rotate(72)"><path d="M0,0V9.629L19.258,0Z" transform="translate(1.982 7.79)" fill="#fff"/><path d="M0,9.629V0L19.258,9.629Z" transform="matrix(0.809, -0.588, 0.588, 0.809, 0, 11.32)" fill="#fff"/></g><g transform="translate(5.339 20.2) rotate(-72)"><path d="M0,0V9.629L19.258,0Z" transform="translate(1.982 7.79)" fill="#fff"/><path d="M0,9.629V0L19.258,9.629Z" transform="matrix(0.809, -0.588, 0.588, 0.809, 0, 11.32)" fill="#fff"/></g><g transform="translate(24.738 22.336) rotate(108)"><path d="M0,9.629V0L19.258,9.629Z" transform="translate(1.982 1.691)" fill="#fff"/><path d="M0,0V9.629L19.258,0Z" transform="matrix(0.809, 0.588, -0.588, 0.809, 5.66, 0)" fill="#fff"/></g></g><g transform="translate(8.522 32.829) rotate(-82)"><g transform="translate(11.451 5.689)"><path d="M0,0V6.363L12.725,0Z" transform="translate(1.31 5.148)" fill="#e0193a"/><path d="M0,6.363V0L12.726,6.363Z" transform="matrix(0.809, -0.588, 0.588, 0.809, 0, 7.48)" fill="#e0193a"/></g><g transform="translate(14.07 18.316) rotate(180)"><path d="M0,6.363V0L12.725,6.363Z" transform="translate(1.31 1.117)" fill="#e0193a"/><path d="M0,0V6.363L12.726,0Z" transform="matrix(0.809, 0.588, -0.588, 0.809, 3.74, 0)" fill="#e0193a"/></g><g transform="translate(21.184 10.857) rotate(72)"><path d="M0,0V6.363L12.726,0Z" transform="translate(1.31 5.148)" fill="#e0193a"/><path d="M0,6.363V0L12.726,6.363Z" transform="matrix(0.809, -0.588, 0.588, 0.809, 0, 7.48)" fill="#e0193a"/></g><g transform="translate(3.528 13.348) rotate(-72)"><path d="M0,0V6.363L12.726,0Z" transform="translate(1.31 5.148)" fill="#e0193a"/><path d="M0,6.363V0L12.726,6.363Z" transform="matrix(0.809, -0.588, 0.588, 0.809, 0, 7.48)" fill="#e0193a"/></g><g transform="translate(16.347 14.759) rotate(108)"><path d="M0,6.363V0L12.726,6.363Z" transform="translate(1.31 1.117)" fill="#e0193a"/><path d="M0,0V6.363L12.726,0Z" transform="matrix(0.809, 0.588, -0.588, 0.809, 3.74, 0)" fill="#e0193a"/></g></g></g></g><g transform="translate(62.544 195.701)"><g transform="translate(19.237 9.557)"><path d="M0,0V10.689L21.379,0Z" transform="translate(2.2 8.648)" fill="#fff"/><path d="M0,10.689V0L21.379,10.689Z" transform="matrix(0.809, -0.588, 0.588, 0.809, 0, 12.566)" fill="#fff"/></g><g transform="translate(23.638 30.771) rotate(180)"><path d="M0,10.689V0L21.379,10.689Z" transform="translate(2.2 1.877)" fill="#fff"/><path d="M0,0V10.689L21.379,0Z" transform="matrix(0.809, 0.588, -0.588, 0.809, 6.283, 0)" fill="#fff"/></g><g transform="translate(35.589 18.24) rotate(72)"><path d="M0,0V10.689L21.379,0Z" transform="translate(2.2 8.648)" fill="#fff"/><path d="M0,10.689V0L21.379,10.689Z" transform="matrix(0.809, -0.588, 0.588, 0.809, 0, 12.566)" fill="#fff"/></g><g transform="translate(5.927 22.425) rotate(-72)"><path d="M0,0V10.689L21.379,0Z" transform="translate(2.2 8.648)" fill="#fff"/><path d="M0,10.689V0L21.379,10.689Z" transform="matrix(0.809, -0.588, 0.588, 0.809, 0, 12.566)" fill="#fff"/></g><g transform="translate(27.462 24.796) rotate(108)"><path d="M0,10.689V0L21.379,10.689Z" transform="translate(2.2 1.877)" fill="#fff"/><path d="M0,0V10.689L21.379,0Z" transform="matrix(0.809, 0.588, -0.588, 0.809, 6.283, 0)" fill="#fff"/></g><g transform="translate(6.55 7.685)"><g transform="translate(13.359 6.637)"><path d="M0,0V7.423L14.846,0Z" transform="translate(1.528 6.005)" fill="#e0193a"/><path d="M0,7.423V0L14.846,7.423Z" transform="matrix(0.809, -0.588, 0.588, 0.809, 0, 8.727)" fill="#e0193a"/></g><g transform="translate(16.415 21.369) rotate(180)"><path d="M0,7.423V0L14.846,7.423Z" transform="translate(1.528 1.303)" fill="#e0193a"/><path d="M0,0V7.423L14.846,0Z" transform="matrix(0.809, 0.588, -0.588, 0.809, 4.363, 0)" fill="#e0193a"/></g><g transform="translate(24.714 12.667) rotate(72)"><path d="M0,0V7.423L14.846,0Z" transform="translate(1.528 6.006)" fill="#e0193a"/><path d="M0,7.423V0L14.846,7.423Z" transform="matrix(0.809, -0.588, 0.588, 0.809, 0, 8.727)" fill="#e0193a"/></g><g transform="translate(4.116 15.573) rotate(-72)"><path d="M0,0V7.423L14.846,0Z" transform="translate(1.528 6.006)" fill="#e0193a"/><path d="M0,7.423V0L14.846,7.423Z" transform="matrix(0.809, -0.588, 0.588, 0.809, 0, 8.727)" fill="#e0193a"/></g><g transform="translate(19.071 17.219) rotate(108)"><path d="M0,7.423V0L14.846,7.423Z" transform="translate(1.528 1.303)" fill="#e0193a"/><path d="M0,0V7.423L14.846,0Z" transform="matrix(0.809, 0.588, -0.588, 0.809, 4.363, 0)" fill="#e0193a"/></g></g></g></g></g></svg>