<svg xmlns="http://www.w3.org/2000/svg" xmlns:xlink="http://www.w3.org/1999/xlink" width="512" height="300" viewBox="0 0 512 300"><defs><clipPath id="b"><rect width="512" height="300"/></clipPath></defs><g id="a" clip-path="url(#b)"><g transform="translate(0 0.5)"><rect width="512" height="300" transform="translate(0 -0.5)" fill="#2f4ba1"/><path d="M0,0H512V150H0Z" transform="translate(0 149.5)" fill="#e0193a"/><path d="M221.7,150,0,300V0" transform="translate(0 -0.5)" fill="#fff"/><path d="M9.613,10.392l7.706,6.659L26.24,12.14l-3.952,9.386,7.428,6.967-10.148-.858-4.331,9.218-2.32-9.917-10.1-1.271L11.527,20.4Z" transform="translate(3.187 19.108)" fill="#fcd93a"/><path d="M15.237,97.2l4.331,9.218,10.148-.858-7.428,6.967,3.952,9.386-8.922-4.911-7.706,6.659,1.914-10-8.714-5.271,10.1-1.271Z" transform="translate(3.187 142.296)" fill="#fcd93a"/><path d="M95.764,53.66l.207,10.182,9.62,3.344-9.62,3.344-.207,10.182L89.611,72.6l-9.748,2.949,5.817-8.36-5.817-8.36,9.748,2.949Z" transform="translate(90.511 82.814)" fill="#fcd93a"/><path d="M66.044,34.667,62.721,37.99l1.648,25.175q-.841.054-1.665.162L59.677,40.355l-2.712,2.712L61.049,63.6a25.448,25.448,0,0,0-9.228,3.824L40.191,50.019H36.354L50.459,68.4c-.443.34-.871.7-1.29,1.064L32.53,50.495h-4.7v4.7L46.8,71.836q-.552.629-1.064,1.294L27.352,59.02v3.837L44.761,74.491a25.447,25.447,0,0,0-3.827,9.225L20.4,79.632l-2.712,2.712L40.66,85.37q-.108.825-.162,1.665L15.324,85.387,12,88.711l3.324,3.324L40.5,90.386c.036.561.09,1.118.162,1.669L17.688,95.078,20.4,97.791l20.534-4.084a25.447,25.447,0,0,0,3.824,9.228l-17.406,11.63V118.4L45.737,104.3c.34.443.7.871,1.064,1.29L27.828,122.225v4.7h4.7l16.639-18.973q.63.553,1.294,1.064L36.354,127.4h3.837l11.633-17.409a25.417,25.417,0,0,0,9.225,3.83l-4.084,20.53,2.712,2.712L62.7,114.1q.825.108,1.665.162l-1.648,25.175,3.324,3.324,3.324-3.324L67.72,114.257q.841-.055,1.665-.162l3.026,22.972,2.712-2.712L71.04,113.822A25.447,25.447,0,0,0,80.268,110L91.9,127.4h3.837L81.63,109.018c.443-.34.871-.7,1.29-1.064l16.639,18.973h4.7v-4.7L85.288,105.586q.552-.629,1.064-1.294L104.737,118.4v-3.837L87.328,102.932a25.446,25.446,0,0,0,3.827-9.225l20.534,4.084,2.712-2.712L91.428,92.052q.108-.825.162-1.665l25.175,1.648,3.324-3.324-3.324-3.324L91.591,87.036q-.054-.841-.162-1.665L114.4,82.344l-2.712-2.712L91.155,83.715a25.448,25.448,0,0,0-3.824-9.228l17.406-11.63V59.02L86.352,73.126c-.34-.443-.7-.871-1.064-1.29L104.261,55.2v-4.7h-4.7L82.92,69.468q-.629-.552-1.294-1.064L95.735,50.019H91.9L80.265,67.428A25.448,25.448,0,0,0,71.04,63.6l4.084-20.534-2.712-2.712L69.385,63.327q-.825-.108-1.665-.162L69.368,37.99Z" transform="translate(13.6 61.289)" fill="#fcd93a"/></g></g></svg>