<svg xmlns="http://www.w3.org/2000/svg" width="512" height="300"><defs><clipPath id="a"><path d="M0 0h512v300H0z"/></clipPath></defs><g clip-path="url(#a)"><path fill="#2f4ba1" d="M0 0h512v300H0z" data-name="Rectangle 15"/><path fill="#e0193a" d="M0 150h512v150H0Z" data-name="Path 800"/><g data-name="Group 111"><path fill="#fff" d="M221.7 150 0 300V0" data-name="Path 795"/><path fill="#fcd93a" d="m12.8 30 7.706 6.659 8.921-4.911-3.952 9.386 7.428 6.967-10.148-.858-4.331 9.218-2.32-9.917-10.1-1.271 8.71-5.265Z" data-name="Path 796"/><path fill="#fcd93a" d="m18.424 239.996 4.331 9.218 10.148-.858-7.428 6.967 3.952 9.386-8.922-4.911-7.706 6.659 1.914-10-8.714-5.271 10.1-1.271Z" data-name="Path 798"/></g><path fill="#fcd93a" d="m186.275 136.974.207 10.182 9.62 3.344-9.62 3.344-.207 10.182-6.153-8.112-9.748 2.949 5.817-8.36-5.817-8.36 9.748 2.949Z" data-name="Path 797"/><path fill="#fcd93a" d="m79.644 96.456-3.323 3.323 1.648 25.175q-.841.054-1.665.162l-3.027-22.972-2.712 2.712 4.084 20.533a25.448 25.448 0 0 0-9.228 3.824l-11.63-17.405h-3.837l14.105 18.381c-.443.34-.871.7-1.29 1.064L46.13 112.284h-4.7v4.7l18.97 16.641q-.552.629-1.064 1.294l-18.384-14.11v3.837l17.409 11.634a25.447 25.447 0 0 0-3.827 9.225L34 141.421l-2.712 2.712 22.972 3.026q-.108.825-.162 1.665l-25.174-1.648L25.6 150.5l3.324 3.324 25.176-1.649c.036.561.09 1.118.162 1.669l-22.974 3.023L34 159.58l20.534-4.084a25.447 25.447 0 0 0 3.824 9.228l-17.406 11.63v3.835l18.385-14.1c.34.443.7.871 1.064 1.29l-18.973 16.635v4.7h4.7l16.639-18.973q.63.553 1.294 1.064l-14.107 18.384h3.837l11.633-17.409a25.417 25.417 0 0 0 9.225 3.83l-4.084 20.53 2.712 2.712 3.023-22.963q.825.108 1.665.162l-1.648 25.175 3.324 3.324 3.324-3.324-1.645-25.18q.841-.055 1.665-.162l3.026 22.972 2.712-2.712-4.083-20.533a25.447 25.447 0 0 0 9.228-3.822l11.632 17.4h3.837L95.23 170.807c.443-.34.871-.7 1.29-1.064l16.639 18.973h4.7v-4.7l-18.971-16.641q.552-.629 1.064-1.294l18.385 14.108v-3.837l-17.409-11.631a25.446 25.446 0 0 0 3.827-9.225l20.534 4.084 2.712-2.712-22.973-3.027q.108-.825.162-1.665l25.175 1.648 3.324-3.324-3.324-3.324-25.174 1.649q-.054-.841-.162-1.665L128 144.133l-2.712-2.712-20.533 4.083a25.448 25.448 0 0 0-3.824-9.228l17.406-11.63v-3.837l-18.385 14.106c-.34-.443-.7-.871-1.064-1.29l18.973-16.636v-4.7h-4.7L96.52 131.257q-.629-.552-1.294-1.064l14.109-18.385H105.5l-11.635 17.409a25.448 25.448 0 0 0-9.225-3.828l4.084-20.534-2.712-2.712-3.027 22.973q-.825-.108-1.665-.162l1.648-25.175Z" data-name="Path 799"/></g></svg>