<svg xmlns="http://www.w3.org/2000/svg" xmlns:xlink="http://www.w3.org/1999/xlink" width="512" height="300" viewBox="0 0 512 300"><defs><clipPath id="b"><rect width="512" height="300"/></clipPath></defs><g id="a" clip-path="url(#b)"><g transform="translate(1)"><rect width="511" height="300" fill="#f23b27"/><rect width="201" height="300" fill="#358142"/><g transform="translate(126.072 74.659)"><path d="M275.818,233.563c-22.658-.682-126.555-65.535-127.268-75.862l5.737-9.568c10.306,14.975,116.52,78.045,126.952,75.81l-5.422,9.617" transform="translate(-141.885 -111.693)" fill="#fcd93a" stroke="#000" stroke-linecap="round" stroke-linejoin="round" stroke-width="0.573" fill-rule="evenodd"/><path d="M152.748,145.806c-2.033,5.47,27.112,23.488,62.177,44.816s65.3,34.5,67.54,32.614a19.645,19.645,0,0,0,1.014-1.892c-.42.633-1.443.833-3.038.373-9.473-2.732-34.181-14.074-64.78-32.63S158.44,153.43,154.3,146.164a4.4,4.4,0,0,1-.451-2.137h-.1l-.881,1.54-.121.241h0Zm123.27,87.03c-.384.7-1.1.72-2.461.571-8.475-.938-34.192-13.444-64.621-31.66-35.408-21.2-64.65-40.508-61.478-45.555l.863-1.526.17.053c-2.853,8.554,57.711,43.184,61.276,45.392,35.043,21.71,64.586,34.388,67.2,31.093l-.951,1.636v0Z" transform="translate(-141.553 -110.666)" fill="#fcd93a" stroke="#000" stroke-linecap="round" stroke-linejoin="round" stroke-width="0.573" fill-rule="evenodd"/><path d="M218.04,163.8c22.678-.179,50.663-3.1,66.767-9.518l-3.47-5.638c-9.519,5.269-37.657,8.733-63.489,9.251-30.552-.281-52.117-3.126-62.923-10.376l-3.275,6c19.863,8.405,40.217,10.19,66.39,10.277" transform="translate(-142.661 -111.54)" fill="#fcd93a" stroke="#000" stroke-linecap="round" stroke-linejoin="round" stroke-width="0.573" fill-rule="evenodd"/><path d="M285.434,154.191c-.554.886-11.057,4.508-26.53,7.181a274.246,274.246,0,0,1-41.253,2.983,292.721,292.721,0,0,1-39.513-2.5c-16.242-2.547-24.625-6.09-27.724-7.342.3-.589.487-1,.773-1.553a120.008,120.008,0,0,0,27.209,7.212,289.312,289.312,0,0,0,39.207,2.506,275.431,275.431,0,0,0,40.962-3.04c15.866-2.559,24.533-5.853,25.75-7.382l1.121,1.934h0Zm-3.045-5.717c-1.72,1.381-10.288,4.42-25.364,6.828a272.946,272.946,0,0,1-39.2,2.748,264.137,264.137,0,0,1-37.864-2.437,104.443,104.443,0,0,1-26.4-6.658c.292-.505.59-1.007.9-1.51,2.286,1.151,10.15,4.343,25.669,6.542a271.069,271.069,0,0,0,37.7,2.345,269.481,269.481,0,0,0,38.912-2.766c15.154-2.085,23.308-5.96,24.546-6.931l1.1,1.838v0Z" transform="translate(-142.352 -111.318)" fill="#fcd93a" stroke="#000" stroke-linecap="round" stroke-linejoin="round" stroke-width="0.573" fill-rule="evenodd"/><path d="M140.86,203.332c13.949,7.5,44.929,11.283,74.245,11.543,26.693.042,61.468-4.126,74.473-11.018l-.358-7.509c-4.068,6.358-41.335,12.457-74.4,12.207S151.038,203.2,140.8,196.587l.06,6.744" transform="translate(-139.948 -123.747)" fill="#fcd93a" stroke="#000" stroke-linecap="round" stroke-linejoin="round" stroke-width="0.573" fill-rule="evenodd"/><path d="M290.008,202.027v1.791c-1.955,2.337-14.21,5.869-29.578,8.357a305.226,305.226,0,0,1-45.947,3.146,288.335,288.335,0,0,1-43.611-3c-17.647-2.57-28.934-7.07-31.2-8.413l.01-2.089c6.806,4.525,25.246,7.835,31.438,8.849a286.749,286.749,0,0,0,43.363,2.98,303.711,303.711,0,0,0,45.7-3.125c11.026-1.593,26.733-5.735,29.825-8.493h0Zm.008-6.369v1.791c-1.955,2.336-14.21,5.868-29.578,8.355a305.228,305.228,0,0,1-45.947,3.146,288.159,288.159,0,0,1-43.611-3c-17.647-2.568-28.934-7.068-31.2-8.412l.01-2.089c6.806,4.524,25.246,7.835,31.438,8.847a286.532,286.532,0,0,0,43.363,2.982,303.492,303.492,0,0,0,45.7-3.127c11.026-1.593,26.733-5.735,29.825-8.493h0Z" transform="translate(-139.666 -123.521)" fill="#fcd93a" stroke="#000" stroke-linecap="round" stroke-linejoin="round" stroke-width="0.573" fill-rule="evenodd"/><path d="M218,256.894c-32.079-.191-59.566-8.744-65.37-10.158l4.232,6.626c10.253,4.313,37.068,10.74,61.445,10.028s45.682-2.6,60.7-9.908l4.34-6.867c-10.231,4.819-45.051,10.229-65.344,10.279" transform="translate(-142.906 -136.313)" fill="#fcd93a" stroke="#000" stroke-linecap="round" stroke-linejoin="round" stroke-width="0.573" fill-rule="evenodd"/><path d="M280.194,251.651c-.638.974-1.288,1.937-1.947,2.872a170.729,170.729,0,0,1-22.948,5.883,207.806,207.806,0,0,1-37.706,3.452c-28.417-.416-51.679-5.979-62.622-10.724l-.883-1.518.144-.228,1.5.581c19.461,6.963,41.318,9.74,62.023,10.239a211.419,211.419,0,0,0,36.969-3.412c16.328-3.272,22.93-5.737,24.956-6.855l.515-.289h0Zm3.763-6.206c.017.019.033.038.049.058-.477.8-.968,1.624-1.472,2.447-3.777,1.35-14.027,4.349-28.994,6.442-9.862,1.343-15.991,2.645-35.609,3.025-36.761-.935-60.562-8.123-66.217-9.9l-.838-1.607c21.3,5.562,43.066,9.444,67.056,9.841a247.964,247.964,0,0,0,35.364-3.037c17.453-2.714,26.247-5.587,28.886-6.417-.033-.048-.072-.1-.116-.149l1.892-.707v0Z" transform="translate(-142.467 -136.02)" fill="#fcd93a" stroke="#000" stroke-linecap="round" stroke-linejoin="round" stroke-width="0.55" fill-rule="evenodd"/><path d="M281.8,173.674c.1,21.1-10.7,40.04-19.393,48.394a69.805,69.805,0,0,1-47.677,19.772c-21.277.391-41.34-13.48-46.721-19.574-10.521-11.914-19.087-27.043-19.361-47.432,1.3-23.032,10.345-39.075,23.451-50.077s30.557-16.36,45.091-15.977c16.768.443,36.356,8.668,49.891,25,8.867,10.7,12.707,22.311,14.72,39.895Zm-66.89-72.256c40.864,0,74.472,33.254,74.472,74.027s-33.608,74.028-74.472,74.028a74.028,74.028,0,1,1,0-148.055" transform="translate(-139.928 -100.014)" fill="#fcd93a" stroke="#000" stroke-linecap="round" stroke-linejoin="round" stroke-width="0.573" fill-rule="evenodd"/><path d="M215.157,101.08A74.266,74.266,0,1,1,140.9,175.347a74.406,74.406,0,0,1,74.258-74.267Zm-72.624,74.267a72.624,72.624,0,1,0,72.624-72.633,72.921,72.921,0,0,0-72.624,72.633Z" transform="translate(-139.973 -99.929)" fill="#fcd93a" stroke="#000" stroke-linecap="round" stroke-linejoin="round" stroke-width="0.573" fill-rule="evenodd"/><path d="M217.317,109.31a68.028,68.028,0,1,1-68.02,68.028,68.3,68.3,0,0,1,68.02-68.028Zm-66.386,68.028a66.386,66.386,0,1,0,66.386-66.394,66.658,66.658,0,0,0-66.386,66.394Z" transform="translate(-142.072 -101.987)" fill="#fcd93a" stroke="#000" stroke-linecap="round" stroke-linejoin="round" stroke-width="0.573" fill-rule="evenodd"/><path d="M241.859,100.68h-6.364L235.5,249.9h6.386Z" transform="translate(-163.622 -99.829)" fill="#fcd93a" stroke="#000" stroke-linecap="round" stroke-linejoin="round" stroke-width="0.573" fill-rule="evenodd"/><path d="M241.025,99.546h1.62l.014,150.937h-1.621l-.012-150.938Zm-6.316,0h1.632l0,150.937H234.71V99.547Z" transform="translate(-163.425 -99.546)" fill="#fcd93a" stroke="#000" stroke-linecap="round" stroke-linejoin="round" stroke-width="0.573" fill-rule="evenodd"/><path d="M289.372,197.2v-5.517L284.88,187.5l-25.5-6.75L222.63,177l-44.25,2.25-31.5,7.5-6.36,4.71v5.518l16.11-7.228,38.25-6h36.75l27,3,18.75,4.5Z" transform="translate(-139.878 -118.909)" fill="#fcd93a" stroke="#000" stroke-linecap="round" stroke-linejoin="round" stroke-width="0.573" fill-rule="evenodd"/><path d="M214.878,182.647a257.447,257.447,0,0,1,48.049,4.29c13.927,2.784,23.728,6.267,27.079,10.178l0,1.937c-4.041-4.868-17.23-8.436-27.388-10.476a255.982,255.982,0,0,0-47.735-4.255,265.633,265.633,0,0,0-48.738,4.352c-10.59,2.1-24.713,6.276-26.477,10.393v-2.017c.968-2.85,11.485-7.109,26.238-10.063a266.8,266.8,0,0,1,48.977-4.34Zm.008-6.369a257.621,257.621,0,0,1,48.049,4.29c13.927,2.785,23.728,6.267,27.079,10.178l0,1.937c-4.041-4.866-17.23-8.435-27.389-10.475a255.766,255.766,0,0,0-47.735-4.255A264.705,264.705,0,0,0,166.23,182.3c-10.22,1.937-24.92,6.277-26.559,10.4V190.68c.968-2.819,11.7-7.231,26.239-10.063a266.917,266.917,0,0,1,48.977-4.34Z" transform="translate(-139.664 -118.729)" fill="#fcd93a" stroke="#000" stroke-linecap="round" stroke-linejoin="round" stroke-width="0.573" fill-rule="evenodd"/><path d="M217.449,132.959c27.637-.138,51.743,3.864,62.771,9.514l4.023,6.959c-9.586-5.166-35.592-10.538-66.754-9.734-25.391.156-52.52,2.8-66.132,10.057l4.8-8.032c11.171-5.793,37.516-8.732,61.29-8.763" transform="translate(-142.587 -107.898)" fill="#fcd93a" stroke="#000" stroke-linecap="round" stroke-linejoin="round" stroke-width="0.573" fill-rule="evenodd"/><path d="M217.669,138.5c15.763-.042,30.994.847,43.107,3.033,11.281,2.1,22.039,5.251,23.577,6.945l1.193,2.107c-3.741-2.443-13.051-5.163-25-7.43-12-2.256-27.225-3-42.9-2.963-17.792-.061-31.614.878-43.477,2.947-12.546,2.348-21.251,5.7-23.4,7.295l1.169-2.228c4.172-2.129,10.792-4.694,21.917-6.7,12.268-2.241,26.237-2.913,43.817-3.01h0Zm-.007-6.363c15.085-.04,29.979.8,41.589,2.888,9.157,1.783,18.212,4.565,21.528,7.042l1.744,2.772c-2.965-3.3-14.127-6.419-23.98-8.169-11.521-1.987-25.8-2.773-40.881-2.9-15.831.044-30.461,1.014-41.814,3.081-10.831,2.061-17.82,4.5-20.777,6.407l1.534-2.315c4.081-2.148,10.674-4.122,18.977-5.735,11.437-2.082,26.157-3.027,42.081-3.071Z" transform="translate(-142.44 -107.693)" fill="#fcd93a" stroke="#000" stroke-linecap="round" stroke-linejoin="round" stroke-width="0.573" fill-rule="evenodd"/><path d="M254.782,238.235a193.843,193.843,0,0,0-36.913-2.809c-46.055.54-60.933,9.457-62.749,12.157l-3.442-5.611c11.725-8.5,36.8-13.265,66.44-12.778,15.389.252,28.668,1.274,39.839,3.438l-3.177,5.6" transform="translate(-142.668 -131.95)" fill="#fcd93a" stroke="#000" stroke-linecap="round" stroke-linejoin="round" stroke-width="0.573" fill-rule="evenodd"/><path d="M217.388,234.311c12.811.191,25.387.72,37.525,2.984l-.879,1.552a195.827,195.827,0,0,0-36.6-2.812c-17-.133-34.189,1.455-49.156,5.75-4.723,1.314-12.541,4.35-13.338,6.859l-.874-1.442c.252-1.483,4.977-4.561,13.81-7.043,17.143-4.909,33.179-5.737,49.514-5.849h0Zm.581-6.447c13.273.248,26.981.862,40.3,3.5l-.915,1.615c-12.031-2.389-23.527-3.185-39.311-3.428-17.051.031-35.138,1.247-51.583,6.028-5.309,1.547-14.473,4.89-14.778,7.538l-.874-1.549c.2-2.4,8.132-5.541,15.268-7.617,16.572-4.818,34.706-6.057,51.889-6.088Z" transform="translate(-142.451 -131.625)" fill="#fcd93a" stroke="#000" stroke-linecap="round" stroke-linejoin="round" stroke-width="0.55" fill-rule="evenodd"/><path d="M283.138,221.535l-5.534,8.587L261.7,216l-41.25-27.75-46.5-25.5-24.143-8.257,5.145-9.54L156.7,144l15,3.75,49.5,25.5,28.5,18,24,17.25,9.75,11.25Z" transform="translate(-142.201 -110.659)" fill="#fcd93a" stroke="#000" stroke-linecap="round" stroke-linejoin="round" stroke-width="0.573" fill-rule="evenodd"/><path d="M148.338,154.467c4.234-2.872,35.354,10.991,67.916,30.625,32.476,19.691,63.508,41.941,60.706,46.1l-.921,1.449-.423.333c.091-.065.558-.636-.046-2.18-1.384-4.553-23.4-22.118-59.921-44.171C180.045,165.4,150.37,152.6,147.4,156.259l.935-1.792h0Zm135.33,66.7c2.677-5.289-26.187-27.033-61.974-48.2-36.61-20.749-63-32.963-67.815-29.321l-1.071,1.949c-.009.107.039-.133.265-.308a4.715,4.715,0,0,1,2.984-.725c8.3.124,32,11.032,65.254,30.1,14.571,8.486,61.553,38.618,61.374,47.092.013.728.06.878-.214,1.239l1.2-1.818v0Z" transform="translate(-141.599 -110.409)" fill="#fcd93a" stroke="#000" stroke-linecap="round" stroke-linejoin="round" stroke-width="0.573" fill-rule="evenodd"/></g><g transform="translate(158.329 98.799)"><path d="M180.6,191.19a44.863,44.863,0,0,0,44.449,44.491,44.6,44.6,0,0,0,44.6-44.452h0V131.838l-89.055-.106.009,59.458h0Z" transform="translate(-180.586 -131.732)" fill="#fff" stroke="#000" stroke-width="0.67"/><path d="M182.82,191.933v.034A42.292,42.292,0,0,0,195.4,221.973a42.639,42.639,0,0,0,60.327.064A42.291,42.291,0,0,0,268.252,192h0V134.385l-85.38-.014-.052,57.561m68.266-40.31,0,36.668-.031,3.879h0a27.986,27.986,0,0,1-.181,3.175,24.9,24.9,0,0,1-7.309,14.781,25.5,25.5,0,0,1-18.035,7.456,25.78,25.78,0,0,1-25.394-25.535l-.01-40.517,50.955.092h0Z" transform="translate(-181.144 -132.392)" fill="#f23b27" stroke="#000" stroke-width="0.507"/><g transform="translate(3.461 3.098)"><path d="M190.19,152.718c.1-4.141,3.039-5.121,3.06-5.136s3.174,1.056,3.163,5.174l-6.223-.038" transform="translate(-186.448 -138.793)" fill="#ff0"/><path d="M186.64,147.68l-.511,4.759,3.105.007c.03-3.937,2.98-4.592,3.052-4.577a4.586,4.586,0,0,1,3.07,4.577h3.113l-.562-4.795-11.267.028h0Z" transform="translate(-185.433 -138.81)" fill="#ff0" stroke="#000" stroke-width="0.5"/><path d="M185.688,154.06H198.4a.6.6,0,0,1,0,1.174H185.688a.6.6,0,0,1,0-1.174Z" transform="translate(-185.201 -140.412)" fill="#ff0" stroke="#000" stroke-width="0.5"/><path d="M192.01,152.968a3.277,3.277,0,0,1,1.705-3.186,3.325,3.325,0,0,1,1.771,3.186H192.01" transform="translate(-186.903 -139.342)" fill="#ff0" stroke="#000" stroke-width="0.5"/><path d="M186.054,145.05h12.184a.533.533,0,0,1,0,1.057H186.054a.533.533,0,0,1,0-1.057Z" transform="translate(-185.298 -138.159)" fill="#ff0" stroke="#000" stroke-width="0.5"/><path d="M186.4,146.47h11.653a.536.536,0,0,1,0,1.056H186.4a.536.536,0,0,1,0-1.056Z" transform="translate(-185.389 -138.514)" fill="#ff0" stroke="#000" stroke-width="0.5"/><path d="M191.57,135.876h.92v.654h.671v-.668l.943,0v.665h.673v-.668h.943l0,1.509a.392.392,0,0,1-.411.39H192a.423.423,0,0,1-.428-.395l0-1.491h0Z" transform="translate(-186.793 -135.863)" fill="#ff0" stroke="#000" stroke-width="0.5"/><path d="M195.184,138.566l.208,4.839-3.227-.012.214-4.839,2.806.013" transform="translate(-186.942 -136.535)" fill="#ff0" stroke="#000" stroke-width="0.5"/><path d="M189.941,141.56l.1,2.608h-3.094l.087-2.609h2.908Z" transform="translate(-185.637 -137.287)" fill="#ff0" stroke="#000" stroke-width="0.5"/><path d="M189.941,141.56l.1,2.608h-3.094l.087-2.609h2.908Z" transform="translate(-177.68 -137.287)" fill="#ff0" stroke="#000" stroke-width="0.5"/><path d="M186.3,139.036l.9,0v.654h.658v-.669l.922,0v.667h.659v-.669l.923,0v1.509a.387.387,0,0,1-.4.389H186.72a.417.417,0,0,1-.419-.394l0-1.492h0Z" transform="translate(-185.475 -136.653)" fill="#ff0" stroke="#000" stroke-width="0.5"/><path d="M186.3,139.036l.9,0v.654h.658v-.669l.922,0v.667h.659v-.669l.923,0v1.509a.387.387,0,0,1-.4.389H186.72a.417.417,0,0,1-.419-.394l0-1.492h0Z" transform="translate(-177.519 -136.653)" fill="#ff0" stroke="#000" stroke-width="0.5"/><path d="M193.9,140.492a.326.326,0,1,1,.65,0v1.152h-.65v-1.152" transform="translate(-187.376 -136.931)"/><path d="M188.57,142.725a.312.312,0,1,1,.62,0v.89h-.62v-.89" transform="translate(-186.043 -137.492)"/><path d="M188.57,142.725a.312.312,0,1,1,.62,0v.89h-.62v-.89" transform="translate(-178.062 -137.492)" stroke="#000" stroke-width="0.5"/><g transform="translate(0 34.74)"><path d="M190.19,152.718c.1-4.141,3.039-5.121,3.06-5.136s3.174,1.056,3.163,5.174l-6.223-.038" transform="translate(-186.448 -138.793)" fill="#ff0"/><path d="M186.64,147.68l-.511,4.759,3.105.007c.03-3.937,2.98-4.592,3.052-4.577a4.586,4.586,0,0,1,3.07,4.577h3.113l-.562-4.795-11.267.028h0Z" transform="translate(-185.433 -138.81)" fill="#ff0" stroke="#000" stroke-width="0.5"/><path d="M185.688,154.06H198.4a.6.6,0,0,1,0,1.174H185.688a.6.6,0,0,1,0-1.174Z" transform="translate(-185.201 -140.412)" fill="#ff0" stroke="#000" stroke-width="0.5"/><path d="M192.01,152.968a3.277,3.277,0,0,1,1.705-3.186,3.325,3.325,0,0,1,1.771,3.186H192.01" transform="translate(-186.903 -139.342)" fill="#ff0" stroke="#000" stroke-width="0.5"/><path d="M186.054,145.05h12.184a.533.533,0,0,1,0,1.057H186.054a.533.533,0,0,1,0-1.057Z" transform="translate(-185.298 -138.159)" fill="#ff0" stroke="#000" stroke-width="0.5"/><path d="M186.4,146.47h11.653a.536.536,0,0,1,0,1.056H186.4a.536.536,0,0,1,0-1.056Z" transform="translate(-185.389 -138.514)" fill="#ff0" stroke="#000" stroke-width="0.5"/><path d="M191.57,135.876h.92v.654h.671v-.668l.943,0v.665h.673v-.668h.943l0,1.509a.392.392,0,0,1-.411.39H192a.423.423,0,0,1-.428-.395l0-1.491h0Z" transform="translate(-186.793 -135.863)" fill="#ff0" stroke="#000" stroke-width="0.5"/><path d="M195.184,138.566l.208,4.839-3.227-.012.214-4.839,2.806.013" transform="translate(-186.942 -136.535)" fill="#ff0" stroke="#000" stroke-width="0.5"/><path d="M189.941,141.56l.1,2.608h-3.094l.087-2.609h2.908Z" transform="translate(-185.637 -137.287)" fill="#ff0" stroke="#000" stroke-width="0.5"/><path d="M189.941,141.56l.1,2.608h-3.094l.087-2.609h2.908Z" transform="translate(-177.68 -137.287)" fill="#ff0" stroke="#000" stroke-width="0.5"/><path d="M186.3,139.036l.9,0v.654h.658v-.669l.922,0v.667h.659v-.669l.923,0v1.509a.387.387,0,0,1-.4.389H186.72a.417.417,0,0,1-.419-.394l0-1.492h0Z" transform="translate(-185.475 -136.653)" fill="#ff0" stroke="#000" stroke-width="0.5"/><path d="M186.3,139.036l.9,0v.654h.658v-.669l.922,0v.667h.659v-.669l.923,0v1.509a.387.387,0,0,1-.4.389H186.72a.417.417,0,0,1-.419-.394l0-1.492h0Z" transform="translate(-177.519 -136.653)" fill="#ff0" stroke="#000" stroke-width="0.5"/><path d="M193.9,140.492a.326.326,0,1,1,.65,0v1.152h-.65v-1.152" transform="translate(-187.376 -136.931)"/><path d="M188.57,142.725a.312.312,0,1,1,.62,0v.89h-.62v-.89" transform="translate(-186.043 -137.492)"/><path d="M188.57,142.725a.312.312,0,1,1,.62,0v.89h-.62v-.89" transform="translate(-178.062 -137.492)" stroke="#000" stroke-width="0.5"/></g><g transform="translate(4.77 77.668) rotate(-45.202)"><path d="M0,5.136C.1.995,3.039.015,3.06,0S6.234,1.056,6.223,5.174L0,5.136" transform="translate(3.742 8.79)" fill="#ff0"/><path d="M.511.03,0,4.788l3.105.007C3.135.858,6.086.2,6.157.218a4.586,4.586,0,0,1,3.07,4.577H12.34L11.778,0,.512.028v0Z" transform="translate(0.696 8.841)" fill="#ff0" stroke="#000" stroke-width="0.5"/><path d="M.487,0H13.2a.546.546,0,0,1,.487.588.545.545,0,0,1-.487.586H.487A.545.545,0,0,1,0,.588.546.546,0,0,1,.487,0Z" transform="translate(0 13.648)" fill="#ff0" stroke="#000" stroke-width="0.5"/><path d="M0,3.186A3.277,3.277,0,0,1,1.705,0,3.325,3.325,0,0,1,3.476,3.186H0" transform="translate(5.107 10.439)" fill="#ff0" stroke="#000" stroke-width="0.5"/><path d="M.467,0H12.651a.5.5,0,0,1,.467.529.5.5,0,0,1-.467.529H.467A.5.5,0,0,1,0,.529.5.5,0,0,1,.467,0Z" transform="translate(0.29 6.891)" fill="#ff0" stroke="#000" stroke-width="0.5"/><path d="M.446,0H12.1a.494.494,0,0,1,.446.528.494.494,0,0,1-.446.528H.446A.494.494,0,0,1,0,.528.494.494,0,0,1,.446,0Z" transform="translate(0.565 7.956)" fill="#ff0" stroke="#000" stroke-width="0.5"/><path d="M0,.013h.92V.668h.671V0l.943,0V.668h.673V0h.943l0,1.509a.392.392,0,0,1-.411.39H.43A.423.423,0,0,1,0,1.5L0,.014H0Z" transform="translate(4.776)" fill="#ff0" stroke="#000" stroke-width="0.5"/><path d="M3.019.013l.208,4.839L0,4.839.214,0,3.019.013" transform="translate(5.222 2.018)" fill="#ff0" stroke="#000" stroke-width="0.5"/><path d="M3,0l.1,2.608H0L.087,0H3Z" transform="translate(1.309 4.273)" fill="#ff0" stroke="#000" stroke-width="0.5"/><path d="M3,0l.1,2.608H0L.087,0H3Z" transform="translate(9.265 4.273)" fill="#ff0" stroke="#000" stroke-width="0.5"/><path d="M0,.013l.9,0V.669h.658V0l.922,0V.67H3.14V0l.923,0V1.511a.387.387,0,0,1-.4.389H.422A.417.417,0,0,1,0,1.505L0,.014H0Z" transform="translate(0.823 2.37)" fill="#ff0" stroke="#000" stroke-width="0.5"/><path d="M0,.013l.9,0V.669h.658V0l.922,0V.67H3.14V0l.923,0V1.511a.387.387,0,0,1-.4.389H.422A.417.417,0,0,1,0,1.505L0,.014H0Z" transform="translate(8.78 2.37)" fill="#ff0" stroke="#000" stroke-width="0.5"/><path d="M0,.355a.326.326,0,1,1,.65,0V1.507H0V.355" transform="translate(6.524 3.206)"/><path d="M0,.344a.312.312,0,1,1,.62,0v.89H0V.344" transform="translate(2.527 4.889)"/><path d="M0,.344a.312.312,0,1,1,.62,0v.89H0V.344" transform="translate(10.508 4.889)" stroke="#000" stroke-width="0.5"/></g></g><g transform="translate(37.747 3.098)"><path d="M190.19,152.718c.1-4.141,3.039-5.121,3.06-5.136s3.174,1.056,3.163,5.174l-6.223-.038" transform="translate(-186.448 -138.793)" fill="#ff0"/><path d="M186.64,147.68l-.511,4.759,3.105.007c.03-3.937,2.98-4.592,3.052-4.577a4.586,4.586,0,0,1,3.07,4.577h3.113l-.562-4.795-11.267.028h0Z" transform="translate(-185.433 -138.81)" fill="#ff0" stroke="#000" stroke-width="0.5"/><path d="M185.688,154.06H198.4a.6.6,0,0,1,0,1.174H185.688a.6.6,0,0,1,0-1.174Z" transform="translate(-185.201 -140.412)" fill="#ff0" stroke="#000" stroke-width="0.5"/><path d="M192.01,152.968a3.277,3.277,0,0,1,1.705-3.186,3.325,3.325,0,0,1,1.771,3.186H192.01" transform="translate(-186.903 -139.342)" fill="#ff0" stroke="#000" stroke-width="0.5"/><path d="M186.054,145.05h12.184a.533.533,0,0,1,0,1.057H186.054a.533.533,0,0,1,0-1.057Z" transform="translate(-185.298 -138.159)" fill="#ff0" stroke="#000" stroke-width="0.5"/><path d="M186.4,146.47h11.653a.536.536,0,0,1,0,1.056H186.4a.536.536,0,0,1,0-1.056Z" transform="translate(-185.389 -138.514)" fill="#ff0" stroke="#000" stroke-width="0.5"/><path d="M191.57,135.876h.92v.654h.671v-.668l.943,0v.665h.673v-.668h.943l0,1.509a.392.392,0,0,1-.411.39H192a.423.423,0,0,1-.428-.395l0-1.491h0Z" transform="translate(-186.793 -135.863)" fill="#ff0" stroke="#000" stroke-width="0.5"/><path d="M195.184,138.566l.208,4.839-3.227-.012.214-4.839,2.806.013" transform="translate(-186.942 -136.535)" fill="#ff0" stroke="#000" stroke-width="0.5"/><path d="M189.941,141.56l.1,2.608h-3.094l.087-2.609h2.908Z" transform="translate(-185.637 -137.287)" fill="#ff0" stroke="#000" stroke-width="0.5"/><path d="M189.941,141.56l.1,2.608h-3.094l.087-2.609h2.908Z" transform="translate(-177.68 -137.287)" fill="#ff0" stroke="#000" stroke-width="0.5"/><path d="M186.3,139.036l.9,0v.654h.658v-.669l.922,0v.667h.659v-.669l.923,0v1.509a.387.387,0,0,1-.4.389H186.72a.417.417,0,0,1-.419-.394l0-1.492h0Z" transform="translate(-185.475 -136.653)" fill="#ff0" stroke="#000" stroke-width="0.5"/><path d="M186.3,139.036l.9,0v.654h.658v-.669l.922,0v.667h.659v-.669l.923,0v1.509a.387.387,0,0,1-.4.389H186.72a.417.417,0,0,1-.419-.394l0-1.492h0Z" transform="translate(-177.519 -136.653)" fill="#ff0" stroke="#000" stroke-width="0.5"/><path d="M193.9,140.492a.326.326,0,1,1,.65,0v1.152h-.65v-1.152" transform="translate(-187.376 -136.931)"/><path d="M188.57,142.725a.312.312,0,1,1,.62,0v.89h-.62v-.89" transform="translate(-186.043 -137.492)"/><path d="M188.57,142.725a.312.312,0,1,1,.62,0v.89h-.62v-.89" transform="translate(-178.062 -137.492)" stroke="#000" stroke-width="0.5"/></g><g transform="translate(85.504 91.21) rotate(180)"><g transform="translate(0 73.29)"><path d="M0,.038C.1,4.179,3.039,5.159,3.06,5.174S6.234,4.118,6.223,0L0,.038" transform="translate(3.742 0.858)" fill="#ff0"/><path d="M.511,4.765,0,.007,3.105,0c.03,3.937,2.98,4.592,3.052,4.577A4.586,4.586,0,0,0,9.227,0H12.34l-.562,4.795L.512,4.766v0Z" transform="translate(0.696 1.186)" fill="#ff0" stroke="#000" stroke-width="0.5"/><path d="M.487,1.174H13.2a.546.546,0,0,0,.487-.588A.545.545,0,0,0,13.2,0H.487A.545.545,0,0,0,0,.586.546.546,0,0,0,.487,1.174Z" fill="#ff0" stroke="#000" stroke-width="0.5"/><path d="M0,0A3.277,3.277,0,0,0,1.705,3.186,3.325,3.325,0,0,0,3.476,0H0" transform="translate(5.107 1.197)" fill="#ff0" stroke="#000" stroke-width="0.5"/><path d="M.467,1.057H12.651a.5.5,0,0,0,.467-.529A.5.5,0,0,0,12.651,0H.467A.5.5,0,0,0,0,.529.5.5,0,0,0,.467,1.057Z" transform="translate(0.29 6.875)" fill="#ff0" stroke="#000" stroke-width="0.5"/><path d="M.446,1.056H12.1a.494.494,0,0,0,.446-.528A.494.494,0,0,0,12.1,0H.446A.494.494,0,0,0,0,.528.494.494,0,0,0,.446,1.056Z" transform="translate(0.565 5.81)" fill="#ff0" stroke="#000" stroke-width="0.5"/><path d="M0,1.886h.92V1.231h.671V1.9l.943,0V1.231h.673V1.9h.943L4.15.39A.392.392,0,0,0,3.739,0H.43A.423.423,0,0,0,0,.395L0,1.886H0Z" transform="translate(4.776 12.923)" fill="#ff0" stroke="#000" stroke-width="0.5"/><path d="M3.019,4.839,3.227,0,0,.012.214,4.851l2.806-.013" transform="translate(5.222 7.953)" fill="#ff0" stroke="#000" stroke-width="0.5"/><path d="M3,2.61,3.094,0H0L.087,2.609H3Z" transform="translate(1.309 7.939)" fill="#ff0" stroke="#000" stroke-width="0.5"/><path d="M3,2.61,3.094,0H0L.087,2.609H3Z" transform="translate(9.265 7.939)" fill="#ff0" stroke="#000" stroke-width="0.5"/><path d="M0,1.887l.9,0V1.23h.658V1.9l.922,0V1.23H3.14V1.9l.923,0V.389A.387.387,0,0,0,3.659,0H.422A.417.417,0,0,0,0,.394L0,1.886H0Z" transform="translate(0.823 10.552)" fill="#ff0" stroke="#000" stroke-width="0.5"/><path d="M0,1.887l.9,0V1.23h.658V1.9l.922,0V1.23H3.14V1.9l.923,0V.389A.387.387,0,0,0,3.659,0H.422A.417.417,0,0,0,0,.394L0,1.886H0Z" transform="translate(8.78 10.552)" fill="#ff0" stroke="#000" stroke-width="0.5"/><path d="M0,1.152a.326.326,0,1,0,.65,0V0H0V1.152" transform="translate(6.524 10.109)"/><path d="M0,.89a.312.312,0,1,0,.62,0V0H0V.89" transform="translate(2.527 8.699)"/><path d="M0,.89a.312.312,0,1,0,.62,0V0H0V.89" transform="translate(10.508 8.699)" stroke="#000" stroke-width="0.5"/></g><g transform="translate(0 38.55)"><path d="M0,.038C.1,4.179,3.039,5.159,3.06,5.174S6.234,4.118,6.223,0L0,.038" transform="translate(3.742 0.858)" fill="#ff0"/><path d="M.511,4.765,0,.007,3.105,0c.03,3.937,2.98,4.592,3.052,4.577A4.586,4.586,0,0,0,9.227,0H12.34l-.562,4.795L.512,4.766v0Z" transform="translate(0.696 1.186)" fill="#ff0" stroke="#000" stroke-width="0.5"/><path d="M.487,1.174H13.2a.546.546,0,0,0,.487-.588A.545.545,0,0,0,13.2,0H.487A.545.545,0,0,0,0,.586.546.546,0,0,0,.487,1.174Z" fill="#ff0" stroke="#000" stroke-width="0.5"/><path d="M0,0A3.277,3.277,0,0,0,1.705,3.186,3.325,3.325,0,0,0,3.476,0H0" transform="translate(5.107 1.197)" fill="#ff0" stroke="#000" stroke-width="0.5"/><path d="M.467,1.057H12.651a.5.5,0,0,0,.467-.529A.5.5,0,0,0,12.651,0H.467A.5.5,0,0,0,0,.529.5.5,0,0,0,.467,1.057Z" transform="translate(0.29 6.875)" fill="#ff0" stroke="#000" stroke-width="0.5"/><path d="M.446,1.056H12.1a.494.494,0,0,0,.446-.528A.494.494,0,0,0,12.1,0H.446A.494.494,0,0,0,0,.528.494.494,0,0,0,.446,1.056Z" transform="translate(0.565 5.81)" fill="#ff0" stroke="#000" stroke-width="0.5"/><path d="M0,1.886h.92V1.231h.671V1.9l.943,0V1.231h.673V1.9h.943L4.15.39A.392.392,0,0,0,3.739,0H.43A.423.423,0,0,0,0,.395L0,1.886H0Z" transform="translate(4.776 12.923)" fill="#ff0" stroke="#000" stroke-width="0.5"/><path d="M3.019,4.839,3.227,0,0,.012.214,4.851l2.806-.013" transform="translate(5.222 7.953)" fill="#ff0" stroke="#000" stroke-width="0.5"/><path d="M3,2.61,3.094,0H0L.087,2.609H3Z" transform="translate(1.309 7.939)" fill="#ff0" stroke="#000" stroke-width="0.5"/><path d="M3,2.61,3.094,0H0L.087,2.609H3Z" transform="translate(9.265 7.939)" fill="#ff0" stroke="#000" stroke-width="0.5"/><path d="M0,1.887l.9,0V1.23h.658V1.9l.922,0V1.23H3.14V1.9l.923,0V.389A.387.387,0,0,0,3.659,0H.422A.417.417,0,0,0,0,.394L0,1.886H0Z" transform="translate(0.823 10.552)" fill="#ff0" stroke="#000" stroke-width="0.5"/><path d="M0,1.887l.9,0V1.23h.658V1.9l.922,0V1.23H3.14V1.9l.923,0V.389A.387.387,0,0,0,3.659,0H.422A.417.417,0,0,0,0,.394L0,1.886H0Z" transform="translate(8.78 10.552)" fill="#ff0" stroke="#000" stroke-width="0.5"/><path d="M0,1.152a.326.326,0,1,0,.65,0V0H0V1.152" transform="translate(6.524 10.109)"/><path d="M0,.89a.312.312,0,1,0,.62,0V0H0V.89" transform="translate(2.527 8.699)"/><path d="M0,.89a.312.312,0,1,0,.62,0V0H0V.89" transform="translate(10.508 8.699)" stroke="#000" stroke-width="0.5"/></g><g transform="translate(15.288 0) rotate(45.202)"><path d="M0,.038C.1,4.179,3.039,5.159,3.06,5.174S6.234,4.118,6.223,0L0,.038" transform="translate(3.742 0.858)" fill="#ff0"/><path d="M.511,4.765,0,.007,3.105,0c.03,3.937,2.98,4.592,3.052,4.577A4.586,4.586,0,0,0,9.227,0H12.34l-.562,4.795L.512,4.766v0Z" transform="translate(0.696 1.186)" fill="#ff0" stroke="#000" stroke-width="0.5"/><path d="M.487,1.174H13.2a.546.546,0,0,0,.487-.588A.545.545,0,0,0,13.2,0H.487A.545.545,0,0,0,0,.586.546.546,0,0,0,.487,1.174Z" fill="#ff0" stroke="#000" stroke-width="0.5"/><path d="M0,0A3.277,3.277,0,0,0,1.705,3.186,3.325,3.325,0,0,0,3.476,0H0" transform="translate(5.107 1.197)" fill="#ff0" stroke="#000" stroke-width="0.5"/><path d="M.467,1.057H12.651a.5.5,0,0,0,.467-.529A.5.5,0,0,0,12.651,0H.467A.5.5,0,0,0,0,.528.5.5,0,0,0,.467,1.057Z" transform="translate(0.29 6.875)" fill="#ff0" stroke="#000" stroke-width="0.5"/><path d="M.446,1.056H12.1a.494.494,0,0,0,.446-.528A.494.494,0,0,0,12.1,0H.446A.494.494,0,0,0,0,.528.494.494,0,0,0,.446,1.056Z" transform="translate(0.565 5.81)" fill="#ff0" stroke="#000" stroke-width="0.5"/><path d="M0,1.886h.92V1.231h.671V1.9l.943,0V1.231h.673V1.9h.943L4.15.39A.392.392,0,0,0,3.739,0H.43A.423.423,0,0,0,0,.395L0,1.886H0Z" transform="translate(4.776 12.923)" fill="#ff0" stroke="#000" stroke-width="0.5"/><path d="M3.019,4.839,3.227,0,0,.012.214,4.851l2.806-.013" transform="translate(5.222 7.953)" fill="#ff0" stroke="#000" stroke-width="0.5"/><path d="M3,2.61,3.094,0H0L.087,2.609H3Z" transform="translate(1.309 7.939)" fill="#ff0" stroke="#000" stroke-width="0.5"/><path d="M3,2.61,3.094,0H0L.087,2.609H3Z" transform="translate(9.265 7.939)" fill="#ff0" stroke="#000" stroke-width="0.5"/><path d="M0,1.887l.9,0V1.23h.658V1.9l.922,0V1.23H3.14V1.9h.923l0-1.509A.387.387,0,0,0,3.659,0H.422A.418.418,0,0,0,0,.394L0,1.886H0Z" transform="translate(0.823 10.553)" fill="#ff0" stroke="#000" stroke-width="0.5"/><path d="M0,1.887l.9,0V1.23h.658V1.9l.922,0V1.23H3.14V1.9h.923l0-1.509A.387.387,0,0,0,3.659,0H.422A.418.418,0,0,0,0,.394L0,1.886H0Z" transform="translate(8.78 10.553)" fill="#ff0" stroke="#000" stroke-width="0.5"/><path d="M0,1.152a.326.326,0,1,0,.65,0V0H0V1.152" transform="translate(6.524 10.109)"/><path d="M0,.89a.312.312,0,1,0,.62,0V0H0V.89" transform="translate(2.527 8.699)"/><path d="M0,.89a.312.312,0,1,0,.62,0V0H0V.89" transform="translate(10.508 8.699)" stroke="#000" stroke-width="0.5"/></g></g><g transform="translate(39.037 44.931)"><path d="M232.636,199.714v0a6.256,6.256,0,0,0,1.659,4.267,5.335,5.335,0,0,0,7.954.009,6.255,6.255,0,0,0,1.652-4.27v-8.076l-11.244-.009-.02,8.075" transform="translate(-232.636 -191.639)" fill="#2f4ba1"/><circle cx="1.114" cy="1.114" r="1.114" transform="translate(1.464 1.957)" fill="#fff"/><circle cx="1.114" cy="1.114" r="1.114" transform="translate(7.703 1.962)" fill="#fff"/><circle cx="1.114" cy="1.114" r="1.114" transform="translate(4.578 4.957)" fill="#fff"/><circle cx="1.114" cy="1.114" r="1.114" transform="translate(1.464 8.093)" fill="#fff"/><circle cx="1.114" cy="1.114" r="1.114" transform="translate(7.696 8.085)" fill="#fff"/></g><g transform="translate(39.037 25.419)"><path d="M232.636,199.714v0a6.256,6.256,0,0,0,1.659,4.267,5.335,5.335,0,0,0,7.954.009,6.255,6.255,0,0,0,1.652-4.27v-8.076l-11.244-.009-.02,8.075" transform="translate(-232.636 -191.639)" fill="#2f4ba1"/><circle cx="1.114" cy="1.114" r="1.114" transform="translate(1.464 1.957)" fill="#fff"/><circle cx="1.114" cy="1.114" r="1.114" transform="translate(7.703 1.962)" fill="#fff"/><circle cx="1.114" cy="1.114" r="1.114" transform="translate(4.578 4.957)" fill="#fff"/><circle cx="1.114" cy="1.114" r="1.114" transform="translate(1.464 8.093)" fill="#fff"/><circle cx="1.114" cy="1.114" r="1.114" transform="translate(7.696 8.085)" fill="#fff"/></g><g transform="translate(23.438 44.931)"><path d="M232.636,199.714v0a6.256,6.256,0,0,0,1.659,4.267,5.335,5.335,0,0,0,7.954.009,6.255,6.255,0,0,0,1.652-4.27v-8.076l-11.244-.009-.02,8.075" transform="translate(-232.636 -191.639)" fill="#2f4ba1"/><circle cx="1.114" cy="1.114" r="1.114" transform="translate(1.464 1.957)" fill="#fff"/><circle cx="1.114" cy="1.114" r="1.114" transform="translate(7.703 1.962)" fill="#fff"/><circle cx="1.114" cy="1.114" r="1.114" transform="translate(4.578 4.957)" fill="#fff"/><circle cx="1.114" cy="1.114" r="1.114" transform="translate(1.464 8.093)" fill="#fff"/><circle cx="1.114" cy="1.114" r="1.114" transform="translate(7.696 8.085)" fill="#fff"/></g><g transform="translate(54.596 44.931)"><path d="M232.636,199.714v0a6.256,6.256,0,0,0,1.659,4.267,5.335,5.335,0,0,0,7.954.009,6.255,6.255,0,0,0,1.652-4.27v-8.076l-11.244-.009-.02,8.075" transform="translate(-232.636 -191.639)" fill="#2f4ba1"/><circle cx="1.114" cy="1.114" r="1.114" transform="translate(1.464 1.957)" fill="#fff"/><circle cx="1.114" cy="1.114" r="1.114" transform="translate(7.703 1.962)" fill="#fff"/><circle cx="1.114" cy="1.114" r="1.114" transform="translate(4.578 4.957)" fill="#fff"/><circle cx="1.114" cy="1.114" r="1.114" transform="translate(1.464 8.093)" fill="#fff"/><circle cx="1.114" cy="1.114" r="1.114" transform="translate(7.696 8.085)" fill="#fff"/></g><g transform="translate(39.037 64.269)"><path d="M232.636,199.714v0a6.256,6.256,0,0,0,1.659,4.267,5.335,5.335,0,0,0,7.954.009,6.255,6.255,0,0,0,1.652-4.27v-8.076l-11.244-.009-.02,8.075" transform="translate(-232.636 -191.639)" fill="#2f4ba1"/><circle cx="1.114" cy="1.114" r="1.114" transform="translate(1.464 1.957)" fill="#fff"/><circle cx="1.114" cy="1.114" r="1.114" transform="translate(7.703 1.962)" fill="#fff"/><circle cx="1.114" cy="1.114" r="1.114" transform="translate(4.578 4.957)" fill="#fff"/><circle cx="1.114" cy="1.114" r="1.114" transform="translate(1.464 8.093)" fill="#fff"/><circle cx="1.114" cy="1.114" r="1.114" transform="translate(7.696 8.085)" fill="#fff"/></g></g></g></g></svg>