<svg xmlns="http://www.w3.org/2000/svg" width="512" height="300"><defs><clipPath id="a"><path d="M0 0h512v300H0z"/></clipPath></defs><g clip-path="url(#a)"><path fill="#f23b27" d="M1 0h511v300H1z" data-name="Rectangle 11"/><path fill="#358142" d="M1 0h201v300H1z" data-name="Rectangle 12"/><g fill="#fcd93a" fill-rule="evenodd" stroke="#000" stroke-linecap="round" stroke-linejoin="round" data-name="Group 71"><path stroke-width=".573" d="M261.005 196.529c-22.658-.682-126.555-65.535-127.268-75.862l5.737-9.568c10.306 14.975 116.52 78.045 126.952 75.81l-5.422 9.617" data-name="Path 414"/><path stroke-width=".573" d="M138.267 109.799c-2.033 5.47 27.112 23.488 62.177 44.816s65.3 34.5 67.54 32.614a19.645 19.645 0 0 0 1.014-1.892c-.42.633-1.443.833-3.038.373-9.473-2.732-34.181-14.074-64.78-32.63s-57.221-35.657-61.361-42.923a4.4 4.4 0 0 1-.451-2.137h-.1l-.881 1.54-.121.241h0Zm123.27 87.03c-.384.7-1.1.72-2.461.571-8.475-.938-34.192-13.444-64.621-31.66-35.408-21.2-64.65-40.508-61.478-45.555l.863-1.526.17.053c-2.853 8.554 57.711 43.184 61.276 45.392 35.043 21.71 64.586 34.388 67.2 31.093l-.951 1.636h0Z" data-name="Path 415"/><path stroke-width=".573" d="M202.451 126.919c22.678-.179 50.663-3.1 66.767-9.518l-3.47-5.638c-9.519 5.269-37.657 8.733-63.489 9.251-30.552-.281-52.117-3.126-62.923-10.376l-3.275 6c19.863 8.405 40.217 10.19 66.39 10.277" data-name="Path 416"/><path stroke-width=".573" d="M270.154 117.532c-.554.886-11.057 4.508-26.53 7.181a274.246 274.246 0 0 1-41.253 2.983 292.721 292.721 0 0 1-39.513-2.5c-16.242-2.547-24.625-6.09-27.724-7.342.3-.589.487-1 .773-1.553a120.008 120.008 0 0 0 27.209 7.212 289.312 289.312 0 0 0 39.207 2.506 275.431 275.431 0 0 0 40.962-3.04c15.866-2.559 24.533-5.853 25.75-7.382l1.121 1.934h0Zm-3.045-5.717c-1.72 1.381-10.288 4.42-25.364 6.828a272.946 272.946 0 0 1-39.2 2.748 264.137 264.137 0 0 1-37.864-2.437 104.443 104.443 0 0 1-26.4-6.658c.292-.505.59-1.007.9-1.51 2.286 1.151 10.15 4.343 25.669 6.542a271.069 271.069 0 0 0 37.7 2.345 269.481 269.481 0 0 0 38.912-2.766c15.154-2.085 23.308-5.96 24.546-6.931l1.1 1.838h0Z" data-name="Path 417"/><path stroke-width=".573" d="M127.984 154.244c13.949 7.5 44.929 11.283 74.245 11.543 26.693.042 61.468-4.126 74.473-11.018l-.358-7.509c-4.068 6.358-41.335 12.457-74.4 12.207s-63.782-5.355-74.02-11.968l.06 6.744" data-name="Path 418"/><path stroke-width=".573" d="M277.414 153.165v1.791c-1.955 2.337-14.21 5.869-29.578 8.357a305.226 305.226 0 0 1-45.947 3.146 288.335 288.335 0 0 1-43.611-3c-17.647-2.57-28.934-7.07-31.2-8.413l.01-2.089c6.806 4.525 25.246 7.835 31.438 8.849a286.749 286.749 0 0 0 43.363 2.98 303.711 303.711 0 0 0 45.7-3.125c11.026-1.593 26.733-5.735 29.825-8.493h0Zm.008-6.369v1.791c-1.955 2.336-14.21 5.868-29.578 8.355a305.228 305.228 0 0 1-45.947 3.146 288.159 288.159 0 0 1-43.611-3c-17.647-2.568-28.934-7.068-31.2-8.412l.01-2.089c6.806 4.524 25.246 7.835 31.438 8.847a286.532 286.532 0 0 0 43.363 2.982 303.492 303.492 0 0 0 45.7-3.127c11.026-1.593 26.733-5.735 29.825-8.493h0Z" data-name="Path 419"/><path stroke-width=".573" d="M202.166 195.24c-32.079-.191-59.566-8.744-65.37-10.158l4.232 6.626c10.253 4.313 37.068 10.74 61.445 10.028s45.682-2.6 60.7-9.908l4.34-6.867c-10.231 4.819-45.051 10.229-65.344 10.279" data-name="Path 420"/><path stroke-width=".55" d="M264.799 190.29c-.638.974-1.288 1.937-1.947 2.872a170.729 170.729 0 0 1-22.948 5.883 207.806 207.806 0 0 1-37.706 3.452c-28.417-.416-51.679-5.979-62.622-10.724l-.883-1.518.144-.228 1.5.581c19.461 6.963 41.318 9.74 62.023 10.239a211.419 211.419 0 0 0 36.969-3.412c16.328-3.272 22.93-5.737 24.956-6.855l.515-.289h0Zm3.763-6.206.049.058c-.477.8-.968 1.624-1.472 2.447-3.777 1.35-14.027 4.349-28.994 6.442-9.862 1.343-15.991 2.645-35.609 3.025-36.761-.935-60.562-8.123-66.217-9.9l-.838-1.607c21.3 5.562 43.066 9.444 67.056 9.841a247.964 247.964 0 0 0 35.364-3.037c17.453-2.714 26.247-5.587 28.886-6.417a1.474 1.474 0 0 0-.116-.149l1.892-.707h0Z" data-name="Path 421"/><path stroke-width=".573" d="M268.944 148.319c.1 21.1-10.7 40.04-19.393 48.394a69.805 69.805 0 0 1-47.677 19.772c-21.277.391-41.34-13.48-46.721-19.574-10.521-11.914-19.087-27.043-19.361-47.432 1.3-23.032 10.345-39.075 23.451-50.077s30.557-16.36 45.091-15.977c16.768.443 36.356 8.668 49.891 25 8.867 10.7 12.707 22.311 14.72 39.895Zm-66.89-72.256c40.864 0 74.472 33.254 74.472 74.027s-33.608 74.028-74.472 74.028a74.028 74.028 0 1 1 0-148.055" data-name="Path 422"/><path stroke-width=".573" d="M202.256 75.81a74.266 74.266 0 1 1-74.257 74.267 74.406 74.406 0 0 1 74.258-74.267Zm-72.624 74.267a72.624 72.624 0 1 0 72.624-72.633 72.921 72.921 0 0 0-72.624 72.633Z" data-name="Path 423"/><path stroke-width=".573" d="M202.317 81.982a68.028 68.028 0 1 1-68.02 68.028 68.3 68.3 0 0 1 68.02-68.028Zm-66.386 68.028a66.386 66.386 0 1 0 66.386-66.394 66.658 66.658 0 0 0-66.386 66.394Z" data-name="Path 424"/><path stroke-width=".573" d="M205.309 75.51h-6.364l.005 149.22h6.386Z" data-name="Path 425"/><path stroke-width=".573" d="M204.672 74.659h1.62l.014 150.937h-1.621l-.012-150.938Zm-6.316 0h1.632v150.937h-1.631V74.66Z" data-name="Path 426"/><path stroke-width=".573" d="M276.566 152.95v-5.517l-4.492-4.183-25.5-6.75-36.75-3.75-44.25 2.25-31.5 7.5-6.36 4.71v5.518l16.11-7.228 38.25-6h36.75l27 3 18.75 4.5Z" data-name="Path 427"/><path stroke-width=".573" d="M202.286 138.577a257.447 257.447 0 0 1 48.049 4.29c13.927 2.784 23.728 6.267 27.079 10.178v1.937c-4.041-4.868-17.23-8.436-27.388-10.476a255.982 255.982 0 0 0-47.735-4.255 265.633 265.633 0 0 0-48.738 4.352c-10.59 2.1-24.713 6.276-26.477 10.393v-2.017c.968-2.85 11.485-7.109 26.238-10.063a266.8 266.8 0 0 1 48.977-4.34Zm.008-6.369a257.621 257.621 0 0 1 48.049 4.29c13.927 2.785 23.728 6.267 27.079 10.178v1.937c-4.041-4.866-17.23-8.435-27.389-10.475a255.766 255.766 0 0 0-47.735-4.255 264.705 264.705 0 0 0-48.66 4.347c-10.22 1.937-24.92 6.277-26.559 10.4v-2.02c.968-2.819 11.7-7.231 26.239-10.063a266.917 266.917 0 0 1 48.977-4.34Z" data-name="Path 428"/><path stroke-width=".573" d="M201.934 99.72c27.637-.138 51.743 3.864 62.771 9.514l4.023 6.959c-9.586-5.166-35.592-10.538-66.754-9.734-25.391.156-52.52 2.8-66.132 10.057l4.8-8.032c11.171-5.793 37.516-8.732 61.29-8.763" data-name="Path 429"/><path stroke-width=".573" d="M202.301 105.466c15.763-.042 30.994.847 43.107 3.033 11.281 2.1 22.039 5.251 23.577 6.945l1.193 2.107c-3.741-2.443-13.051-5.163-25-7.43-12-2.256-27.225-3-42.9-2.963-17.792-.061-31.614.878-43.477 2.947-12.546 2.348-21.251 5.7-23.4 7.295l1.169-2.228c4.172-2.129 10.792-4.694 21.917-6.7 12.268-2.241 26.237-2.913 43.817-3.01h0Zm-.007-6.363c15.085-.04 29.979.8 41.589 2.888 9.157 1.783 18.212 4.565 21.528 7.042l1.744 2.772c-2.965-3.3-14.127-6.419-23.98-8.169-11.521-1.987-25.8-2.773-40.881-2.9-15.831.044-30.461 1.014-41.814 3.081-10.831 2.061-17.82 4.5-20.777 6.407l1.534-2.315c4.081-2.148 10.674-4.122 18.977-5.735 11.437-2.082 26.157-3.027 42.081-3.071Z" data-name="Path 430"/><path stroke-width=".573" d="M239.186 180.944a193.843 193.843 0 0 0-36.913-2.809c-46.055.54-60.933 9.457-62.749 12.157l-3.442-5.611c11.725-8.5 36.8-13.265 66.44-12.778 15.389.252 28.668 1.274 39.839 3.438l-3.177 5.6" data-name="Path 431"/><path stroke-width=".55" d="M202.009 177.345c12.811.191 25.387.72 37.525 2.984l-.879 1.552a195.827 195.827 0 0 0-36.6-2.812c-17-.133-34.189 1.455-49.156 5.75-4.723 1.314-12.541 4.35-13.338 6.859l-.874-1.442c.252-1.483 4.977-4.561 13.81-7.043 17.143-4.909 33.179-5.737 49.514-5.849h0Zm.581-6.447c13.273.248 26.981.862 40.3 3.5l-.915 1.615c-12.031-2.389-23.527-3.185-39.311-3.428-17.051.031-35.138 1.247-51.583 6.028-5.309 1.547-14.473 4.89-14.778 7.538l-.874-1.549c.2-2.4 8.132-5.541 15.268-7.617 16.572-4.818 34.706-6.057 51.889-6.088Z" data-name="Path 432"/><path stroke-width=".573" d="m268.009 185.535-5.534 8.587L246.571 180l-41.25-27.75-46.5-25.5-24.143-8.257 5.145-9.54 1.748-.953 15 3.75 49.5 25.5 28.5 18 24 17.25 9.75 11.25Z" data-name="Path 433"/><path stroke-width=".573" d="M133.811 118.717c4.234-2.872 35.354 10.991 67.916 30.625 32.476 19.691 63.508 41.941 60.706 46.1l-.921 1.449-.423.333c.091-.065.558-.636-.046-2.18-1.384-4.553-23.4-22.118-59.921-44.171-35.604-21.223-65.279-34.023-68.249-30.364l.935-1.792h0Zm135.33 66.7c2.677-5.289-26.187-27.033-61.974-48.2-36.61-20.749-63-32.963-67.815-29.321l-1.071 1.949c-.009.107.039-.133.265-.308a4.715 4.715 0 0 1 2.984-.725c8.3.124 32 11.032 65.254 30.1 14.571 8.486 61.553 38.618 61.374 47.092.013.728.06.878-.214 1.239l1.2-1.818h0Z" data-name="Path 434"/></g><g data-name="Group 82"><path fill="#fff" stroke="#000" stroke-width=".67" d="M159.343 158.257a44.863 44.863 0 0 0 44.449 44.491 44.6 44.6 0 0 0 44.6-44.452V98.905l-89.055-.106.009 59.458Z" data-name="Path 435"/><path fill="#f23b27" stroke="#000" stroke-width=".507" d="M161.005 158.34v.034a42.292 42.292 0 0 0 12.58 30.006 42.639 42.639 0 0 0 60.327.064 42.291 42.291 0 0 0 12.525-30.037v-57.615l-85.38-.014-.052 57.561m68.266-40.31v36.668l-.031 3.879a27.986 27.986 0 0 1-.181 3.175 24.9 24.9 0 0 1-7.309 14.781 25.5 25.5 0 0 1-18.035 7.456 25.78 25.78 0 0 1-25.394-25.535l-.01-40.517 50.955.092Z" data-name="Path 436"/><path fill="#ff0" d="M166.532 115.822c.1-4.141 3.039-5.121 3.06-5.136s3.174 1.056 3.163 5.174l-6.223-.038" data-name="Path 437"/><path fill="#ff0" stroke="#000" stroke-width=".5" d="m163.997 110.767-.511 4.759 3.105.007c.03-3.937 2.98-4.592 3.052-4.577a4.586 4.586 0 0 1 3.07 4.577h3.113l-.562-4.795-11.267.028Z" data-name="Path 438"/><path fill="#ff0" stroke="#000" stroke-width=".5" d="M163.277 115.545h12.712a.6.6 0 0 1 0 1.174h-12.712a.6.6 0 0 1 0-1.174Z" data-name="Path 439"/><path fill="#ff0" stroke="#000" stroke-width=".5" d="M167.897 115.523a3.277 3.277 0 0 1 1.705-3.186 3.325 3.325 0 0 1 1.771 3.186h-3.476" data-name="Path 440"/><path fill="#ff0" stroke="#000" stroke-width=".5" d="M163.546 108.788h12.184a.533.533 0 0 1 0 1.057h-12.184a.533.533 0 0 1 0-1.057Z" data-name="Path 441"/><path fill="#ff0" stroke="#000" stroke-width=".5" d="M163.801 109.853h11.653a.536.536 0 0 1 0 1.056h-11.653a.536.536 0 0 1 0-1.056Z" data-name="Path 442"/><path fill="#ff0" stroke="#000" stroke-width=".5" d="M167.567 101.91h.92v.654h.671v-.668h.943v.665h.673v-.668h.943v1.509a.392.392 0 0 1-.411.39h-3.309a.423.423 0 0 1-.428-.395v-1.491Z" data-name="Path 443"/><path fill="#ff0" stroke="#000" stroke-width=".5" d="m171.032 103.928.208 4.839-3.227-.012.214-4.839 2.806.013" data-name="Path 444"/><path fill="#ff0" stroke="#000" stroke-width=".5" d="m167.094 106.17.1 2.608H164.1l.087-2.609h2.908Z"/><path fill="#ff0" stroke="#000" stroke-width=".5" d="m175.051 106.17.1 2.608h-3.094l.087-2.609h2.908Z" data-name="Path 445"/><path fill="#ff0" stroke="#000" stroke-width=".5" d="M163.615 104.28h.9v.654h.658v-.669h.922v.667h.659v-.669h.923v1.509a.387.387 0 0 1-.4.389h-3.242a.417.417 0 0 1-.419-.394v-1.492Z"/><path fill="#ff0" stroke="#000" stroke-width=".5" d="M171.571 104.28h.9v.654h.658v-.669h.922v.667h.659v-.669h.923v1.509a.387.387 0 0 1-.4.389h-3.242a.417.417 0 0 1-.419-.394v-1.492Z" data-name="Path 446"/><path d="M169.314 105.458a.326.326 0 1 1 .65 0v1.152h-.65v-1.152" data-name="Path 447"/><path d="M165.317 107.13a.312.312 0 1 1 .62 0v.89h-.62v-.89"/><path stroke="#000" stroke-width=".5" d="M173.298 107.13a.312.312 0 1 1 .62 0v.89h-.62v-.89" data-name="Path 448"/><g data-name="Group 72"><path fill="#ff0" d="M166.532 150.562c.1-4.141 3.039-5.121 3.06-5.136s3.174 1.056 3.163 5.174l-6.223-.038" data-name="Path 449"/><path fill="#ff0" stroke="#000" stroke-width=".5" d="m163.997 145.507-.511 4.759 3.105.007c.03-3.937 2.98-4.592 3.052-4.577a4.586 4.586 0 0 1 3.07 4.577h3.113l-.562-4.795-11.267.028Z" data-name="Path 450"/><path fill="#ff0" stroke="#000" stroke-width=".5" d="M163.277 150.285h12.712a.6.6 0 0 1 0 1.174h-12.712a.6.6 0 0 1 0-1.174Z" data-name="Path 451"/><path fill="#ff0" stroke="#000" stroke-width=".5" d="M167.897 150.263a3.277 3.277 0 0 1 1.705-3.186 3.325 3.325 0 0 1 1.771 3.186h-3.476" data-name="Path 452"/><path fill="#ff0" stroke="#000" stroke-width=".5" d="M163.546 143.528h12.184a.533.533 0 0 1 0 1.057h-12.184a.533.533 0 0 1 0-1.057Z" data-name="Path 453"/><path fill="#ff0" stroke="#000" stroke-width=".5" d="M163.801 144.593h11.653a.536.536 0 0 1 0 1.056h-11.653a.536.536 0 0 1 0-1.056Z" data-name="Path 454"/><path fill="#ff0" stroke="#000" stroke-width=".5" d="M167.567 136.65h.92v.654h.671v-.668h.943v.665h.673v-.668h.943v1.509a.392.392 0 0 1-.411.39h-3.309a.423.423 0 0 1-.428-.395v-1.491Z" data-name="Path 455"/><path fill="#ff0" stroke="#000" stroke-width=".5" d="m171.032 138.668.208 4.839-3.227-.012.214-4.839 2.806.013" data-name="Path 456"/><path fill="#ff0" stroke="#000" stroke-width=".5" d="m167.094 140.91.1 2.608H164.1l.087-2.609h2.908Z" data-name="cp1"/><path fill="#ff0" stroke="#000" stroke-width=".5" d="m175.051 140.91.1 2.608h-3.094l.087-2.609h2.908Z" data-name="Path 457"/><path fill="#ff0" stroke="#000" stroke-width=".5" d="M163.615 139.02h.9v.654h.658v-.669h.922v.667h.659v-.669h.923v1.509a.387.387 0 0 1-.4.389h-3.242a.417.417 0 0 1-.419-.394v-1.492Z" data-name="cp2"/><path fill="#ff0" stroke="#000" stroke-width=".5" d="M171.571 139.02h.9v.654h.658v-.669h.922v.667h.659v-.669h.923v1.509a.387.387 0 0 1-.4.389h-3.242a.417.417 0 0 1-.419-.394v-1.492Z" data-name="Path 458"/><path d="M169.314 140.198a.326.326 0 1 1 .65 0v1.152h-.65v-1.152" data-name="Path 459"/><path d="M165.317 141.87a.312.312 0 1 1 .62 0v.89h-.62v-.89" data-name="cp3"/><path stroke="#000" stroke-width=".5" d="M173.298 141.87a.312.312 0 1 1 .62 0v.89h-.62v-.89" data-name="Path 460"/></g><g data-name="Group 73"><path fill="#ff0" d="M180.078 186.722c-2.868-2.989-1.492-5.765-1.488-5.79s2.986-1.508 5.9 1.401l-4.412 4.39" data-name="Path 461"/><path fill="#ff0" stroke="#000" stroke-width=".5" d="m174.705 184.96 3.016 3.714 2.193-2.198c-2.772-2.795-1.16-5.353-1.097-5.39a4.586 4.586 0 0 1 5.41 1.046l2.194-2.21-3.798-2.979-7.918 8.014Z" data-name="Path 462"/><path fill="#ff0" stroke="#000" stroke-width=".5" d="m177.588 188.836 8.957-9.021a.546.546 0 0 1 .76.069.545.545 0 0 1 .073.758l-8.957 9.021a.545.545 0 0 1-.76-.067.546.546 0 0 1-.073-.76Z" data-name="Path 463"/><path fill="#ff0" stroke="#000" stroke-width=".5" d="M180.827 185.541a3.277 3.277 0 0 1-1.06-3.454 3.325 3.325 0 0 1 3.509.988l-2.45 2.466" data-name="Path 464"/><path fill="#ff0" stroke="#000" stroke-width=".5" d="m172.983 183.883 8.585-8.645a.5.5 0 0 1 .705.04.5.5 0 0 1 .046.705l-8.585 8.646a.5.5 0 0 1-.704-.042.5.5 0 0 1-.047-.704Z" data-name="Path 465"/><path fill="#ff0" stroke="#000" stroke-width=".5" d="m173.918 184.453 8.211-8.27a.494.494 0 0 1 .69.056.494.494 0 0 1 .06.689l-8.212 8.27a.494.494 0 0 1-.689-.056.494.494 0 0 1-.06-.689Z" data-name="Path 466"/><path fill="#ff0" stroke="#000" stroke-width=".5" d="m170.934 176.185.649-.653.464.462.473-.476-.474-.471.665-.67.474.472.474-.478-.474-.47.664-.67 1.071 1.063a.392.392 0 0 1-.013.567l-2.331 2.348a.423.423 0 0 1-.586.024l-1.055-1.047Z" data-name="Path 467"/><path fill="#ff0" stroke="#000" stroke-width=".5" d="m174.808 175.148 3.58 3.262-2.283 2.281-3.283-3.561 1.986-1.982" data-name="Path 468"/><path fill="#ff0" stroke="#000" stroke-width=".5" d="m173.628 179.518 1.921 1.767-2.184 2.2-1.79-1.9 2.053-2.067Z" data-name="cp1"/><path fill="#ff0" stroke="#000" stroke-width=".5" d="m179.234 173.873 1.921 1.766-2.184 2.2-1.79-1.9 2.053-2.066Z" data-name="Path 469"/><path fill="#ff0" stroke="#000" stroke-width=".5" d="m169.83 180.66.635-.639.466.463.463-.467-.475-.472.65-.654.475.472.466-.468-.476-.472.65-.655 1.073 1.065a.387.387 0 0 1-.006.557l-2.284 2.3a.417.417 0 0 1-.577.021l-1.058-1.05Z" data-name="cp2"/><path fill="#ff0" stroke="#000" stroke-width=".5" d="m175.437 175.014.635-.639.465.462.464-.466-.475-.472.65-.654.475.472.465-.468-.475-.472.65-.655 1.072 1.064a.387.387 0 0 1-.006.558l-2.283 2.3a.417.417 0 0 1-.578.021l-1.058-1.05Z" data-name="Path 470"/><path d="M174.684 177.445a.326.326 0 1 1 .458-.462l.817.812-.458.461-.817-.811" data-name="Path 471"/><path d="M173.054 181.46a.312.312 0 1 1 .437-.44l.631.626-.437.44-.631-.627" data-name="cp3"/><path stroke="#000" stroke-width=".5" d="M178.677 175.796a.312.312 0 1 1 .437-.44l.632.627-.437.44-.632-.627" data-name="Path 472"/></g><g data-name="Group 74"><path fill="#ff0" d="M200.818 115.822c.1-4.141 3.039-5.121 3.06-5.136s3.174 1.056 3.163 5.174l-6.223-.038" data-name="Path 473"/><path fill="#ff0" stroke="#000" stroke-width=".5" d="m198.283 110.767-.511 4.759 3.105.007c.03-3.937 2.98-4.592 3.052-4.577a4.586 4.586 0 0 1 3.07 4.577h3.113l-.562-4.795-11.267.028Z" data-name="Path 474"/><path fill="#ff0" stroke="#000" stroke-width=".5" d="M197.563 115.545h12.712a.6.6 0 0 1 0 1.174h-12.712a.6.6 0 0 1 0-1.174Z" data-name="Path 475"/><path fill="#ff0" stroke="#000" stroke-width=".5" d="M202.183 115.523a3.277 3.277 0 0 1 1.705-3.186 3.325 3.325 0 0 1 1.771 3.186h-3.476" data-name="Path 476"/><path fill="#ff0" stroke="#000" stroke-width=".5" d="M197.832 108.788h12.184a.533.533 0 0 1 0 1.057h-12.184a.533.533 0 0 1 0-1.057Z" data-name="Path 477"/><path fill="#ff0" stroke="#000" stroke-width=".5" d="M198.087 109.853h11.653a.536.536 0 0 1 0 1.056h-11.653a.536.536 0 0 1 0-1.056Z" data-name="Path 478"/><path fill="#ff0" stroke="#000" stroke-width=".5" d="M201.853 101.91h.92v.654h.671v-.668h.943v.665h.673v-.668h.943v1.509a.392.392 0 0 1-.411.39h-3.309a.423.423 0 0 1-.428-.395v-1.491Z" data-name="Path 479"/><path fill="#ff0" stroke="#000" stroke-width=".5" d="m205.318 103.928.208 4.839-3.227-.012.214-4.839 2.806.013" data-name="Path 480"/><path fill="#ff0" stroke="#000" stroke-width=".5" d="m201.38 106.17.1 2.608h-3.094l.087-2.609h2.908Z" data-name="cp1"/><path fill="#ff0" stroke="#000" stroke-width=".5" d="m209.337 106.17.1 2.608h-3.094l.087-2.609h2.908Z" data-name="Path 481"/><path fill="#ff0" stroke="#000" stroke-width=".5" d="M197.901 104.28h.9v.654h.658v-.669h.922v.667h.659v-.669h.923v1.509a.387.387 0 0 1-.4.389h-3.242a.417.417 0 0 1-.419-.394v-1.492Z" data-name="cp2"/><path fill="#ff0" stroke="#000" stroke-width=".5" d="M205.857 104.28h.9v.654h.658v-.669h.922v.667h.659v-.669h.923v1.509a.387.387 0 0 1-.4.389h-3.242a.417.417 0 0 1-.419-.394v-1.492Z" data-name="Path 482"/><path d="M203.6 105.458a.326.326 0 1 1 .65 0v1.152h-.65v-1.152" data-name="Path 483"/><path d="M199.603 107.13a.312.312 0 1 1 .62 0v.89h-.62v-.89" data-name="cp3"/><path stroke="#000" stroke-width=".5" d="M207.584 107.13a.312.312 0 1 1 .62 0v.89h-.62v-.89" data-name="Path 484"/></g><g data-name="Group 77"><g data-name="castle"><path fill="#ff0" d="M241.091 115.823c-.1-4.141-3.039-5.121-3.06-5.136s-3.174 1.056-3.163 5.174l6.223-.038" data-name="Path 485"/><path fill="#ff0" stroke="#000" stroke-width=".5" d="m243.626 110.768.511 4.758-3.105.007c-.03-3.937-2.98-4.592-3.052-4.577a4.586 4.586 0 0 0-3.07 4.577h-3.113l.562-4.795 11.266.029Z" data-name="Path 486"/><path fill="#ff0" stroke="#000" stroke-width=".5" d="M244.346 115.545h-12.713a.546.546 0 0 0-.487.588.545.545 0 0 0 .487.586h12.713a.545.545 0 0 0 .487-.586.546.546 0 0 0-.487-.588Z" data-name="Path 487"/><path fill="#ff0" stroke="#000" stroke-width=".5" d="M239.726 115.522a3.277 3.277 0 0 0-1.705-3.186 3.325 3.325 0 0 0-1.771 3.186h3.476" data-name="Path 488"/><path fill="#ff0" stroke="#000" stroke-width=".5" d="M244.076 108.787h-12.184a.5.5 0 0 0-.467.529.5.5 0 0 0 .467.528h12.184a.5.5 0 0 0 .467-.529.5.5 0 0 0-.467-.528Z" data-name="Path 489"/><path fill="#ff0" stroke="#000" stroke-width=".5" d="M243.822 109.853h-11.654a.494.494 0 0 0-.446.528.494.494 0 0 0 .446.528h11.654a.494.494 0 0 0 .446-.528.494.494 0 0 0-.446-.528Z" data-name="Path 490"/><path fill="#ff0" stroke="#000" stroke-width=".5" d="M240.057 101.91h-.92v.655h-.671v-.669h-.943v.669h-.673v-.669h-.943v1.51a.392.392 0 0 0 .411.39h3.309a.423.423 0 0 0 .43-.395v-1.491Z" data-name="Path 491"/><path fill="#ff0" stroke="#000" stroke-width=".5" d="m236.592 103.927-.208 4.839 3.227-.012-.214-4.839-2.806.013" data-name="Path 492"/><path fill="#ff0" stroke="#000" stroke-width=".5" d="m240.524 106.17-.094 2.61h3.094l-.087-2.609h-2.913Z" data-name="cp1"/><path fill="#ff0" stroke="#000" stroke-width=".5" d="m232.568 106.17-.094 2.61h3.094l-.087-2.609h-2.913Z" data-name="Path 493"/><path fill="#ff0" stroke="#000" stroke-width=".5" d="M244.01 104.28h-.9v.657h-.658v-.67h-.922v.67h-.66v-.67h-.923v1.511a.387.387 0 0 0 .404.389h3.237a.417.417 0 0 0 .422-.394v-1.492Z" data-name="cp2"/><path fill="#ff0" stroke="#000" stroke-width=".5" d="M236.053 104.28h-.9v.657h-.658v-.67h-.922v.67h-.66v-.67h-.923v1.511a.387.387 0 0 0 .404.389h3.237a.417.417 0 0 0 .422-.394v-1.492Z" data-name="Path 494"/><path d="M238.309 105.458a.326.326 0 1 0-.65 0v1.152h.65v-1.152" data-name="Path 495"/><path d="M242.306 107.13a.312.312 0 1 0-.62 0v.89h.62v-.89" data-name="cp3"/><path stroke="#000" stroke-width=".5" d="M234.325 107.13a.312.312 0 1 0-.62 0v.89h.62v-.89" data-name="Path 496"/></g><g data-name="Group 75"><path fill="#ff0" d="M241.091 150.563c-.1-4.141-3.039-5.121-3.06-5.136s-3.174 1.056-3.163 5.174l6.223-.038" data-name="Path 497"/><path fill="#ff0" stroke="#000" stroke-width=".5" d="m243.626 145.508.511 4.758-3.105.007c-.03-3.937-2.98-4.592-3.052-4.577a4.586 4.586 0 0 0-3.07 4.577h-3.113l.562-4.795 11.266.029Z" data-name="Path 498"/><path fill="#ff0" stroke="#000" stroke-width=".5" d="M244.346 150.285h-12.713a.546.546 0 0 0-.487.588.545.545 0 0 0 .487.586h12.713a.545.545 0 0 0 .487-.586.546.546 0 0 0-.487-.588Z" data-name="Path 499"/><path fill="#ff0" stroke="#000" stroke-width=".5" d="M239.726 150.262a3.277 3.277 0 0 0-1.705-3.186 3.325 3.325 0 0 0-1.771 3.186h3.476" data-name="Path 500"/><path fill="#ff0" stroke="#000" stroke-width=".5" d="M244.076 143.527h-12.184a.5.5 0 0 0-.467.529.5.5 0 0 0 .467.528h12.184a.5.5 0 0 0 .467-.529.5.5 0 0 0-.467-.528Z" data-name="Path 501"/><path fill="#ff0" stroke="#000" stroke-width=".5" d="M243.822 144.593h-11.654a.494.494 0 0 0-.446.528.494.494 0 0 0 .446.528h11.654a.494.494 0 0 0 .446-.528.494.494 0 0 0-.446-.528Z" data-name="Path 502"/><path fill="#ff0" stroke="#000" stroke-width=".5" d="M240.057 136.65h-.92v.655h-.671v-.669h-.943v.669h-.673v-.669h-.943v1.51a.392.392 0 0 0 .411.39h3.309a.423.423 0 0 0 .43-.395v-1.491Z" data-name="Path 503"/><path fill="#ff0" stroke="#000" stroke-width=".5" d="m236.592 138.667-.208 4.839 3.227-.012-.214-4.839-2.806.013" data-name="Path 504"/><path fill="#ff0" stroke="#000" stroke-width=".5" d="m240.524 140.91-.094 2.61h3.094l-.087-2.609h-2.913Z" data-name="cp1"/><path fill="#ff0" stroke="#000" stroke-width=".5" d="m232.568 140.91-.094 2.61h3.094l-.087-2.609h-2.913Z" data-name="Path 505"/><path fill="#ff0" stroke="#000" stroke-width=".5" d="M244.01 139.02h-.9v.657h-.658v-.67h-.922v.67h-.66v-.67h-.923v1.511a.387.387 0 0 0 .404.389h3.237a.417.417 0 0 0 .422-.394v-1.492Z" data-name="cp2"/><path fill="#ff0" stroke="#000" stroke-width=".5" d="M236.053 139.02h-.9v.657h-.658v-.67h-.922v.67h-.66v-.67h-.923v1.511a.387.387 0 0 0 .404.389h3.237a.417.417 0 0 0 .422-.394v-1.492Z" data-name="Path 506"/><path d="M238.309 140.198a.326.326 0 1 0-.65 0v1.152h.65v-1.152" data-name="Path 507"/><path d="M242.306 141.87a.312.312 0 1 0-.62 0v.89h.62v-.89" data-name="cp3"/><path stroke="#000" stroke-width=".5" d="M234.325 141.87a.312.312 0 1 0-.62 0v.89h.62v-.89" data-name="Path 508"/></g><g data-name="Group 76"><path fill="#ff0" d="M227.544 186.722c2.868-2.988 1.493-5.764 1.489-5.79s-2.986-1.508-5.9 1.401l4.411 4.39" data-name="Path 509"/><path fill="#ff0" stroke="#000" stroke-width=".5" d="m232.917 184.96-3.016 3.715-2.193-2.199c2.773-2.795 1.16-5.35 1.098-5.39a4.586 4.586 0 0 0-5.411 1.046l-2.194-2.209 3.799-2.98 7.917 8.015Z" data-name="Path 510"/><path fill="#ff0" stroke="#000" stroke-width=".5" d="m230.035 188.836-8.958-9.02a.546.546 0 0 0-.76.068.545.545 0 0 0-.073.758l8.958 9.021a.545.545 0 0 0 .759-.067.546.546 0 0 0 .074-.76Z" data-name="Path 511"/><path fill="#ff0" stroke="#000" stroke-width=".5" d="M226.796 185.542a3.277 3.277 0 0 0 1.06-3.455 3.325 3.325 0 0 0-3.51.988l2.45 2.467" data-name="Path 512"/><path fill="#ff0" stroke="#000" stroke-width=".5" d="m234.64 183.883-8.585-8.646a.5.5 0 0 0-.704.042.5.5 0 0 0-.046.703l8.585 8.646a.5.5 0 0 0 .704-.041.5.5 0 0 0 .046-.704Z" data-name="Path 513"/><path fill="#ff0" stroke="#000" stroke-width=".5" d="m233.705 184.454-8.212-8.27a.494.494 0 0 0-.689.056.494.494 0 0 0-.06.688l8.211 8.27a.494.494 0 0 0 .69-.056.494.494 0 0 0 .06-.688Z" data-name="Path 514"/><path fill="#ff0" stroke="#000" stroke-width=".5" d="m236.688 176.185-.648-.652-.465.461-.473-.476.475-.471-.664-.67-.475.472-.474-.478.474-.471-.664-.67-1.072 1.065a.392.392 0 0 0 .013.566l2.332 2.348a.423.423 0 0 0 .583.027l1.058-1.05Z" data-name="Path 515"/><path fill="#ff0" stroke="#000" stroke-width=".5" d="m232.815 175.148-3.58 3.262 2.282 2.281 3.283-3.561-1.986-1.982" data-name="Path 516"/><path fill="#ff0" stroke="#000" stroke-width=".5" d="m233.994 179.518-1.918 1.773 2.18 2.195 1.79-1.9-2.052-2.067Z" data-name="cp1"/><path fill="#ff0" stroke="#000" stroke-width=".5" d="m228.388 173.873-1.918 1.772 2.18 2.196 1.79-1.9-2.052-2.067Z" data-name="Path 517"/><path fill="#ff0" stroke="#000" stroke-width=".5" d="m237.792 180.66-.634-.639-.466.463-.464-.467.476-.472-.65-.654-.475.472-.465-.469.475-.472-.65-.655-1.07 1.064a.387.387 0 0 0 .006.562l2.281 2.297a.418.418 0 0 0 .577.022l1.059-1.052Z" data-name="cp2"/><path fill="#ff0" stroke="#000" stroke-width=".5" d="m232.186 175.013-.634-.638-.466.463-.464-.467.475-.472-.65-.655-.475.473-.465-.469.476-.472-.65-.655-1.071 1.063a.387.387 0 0 0 .007.563l2.28 2.297a.418.418 0 0 0 .577.021l1.06-1.05Z" data-name="Path 518"/><path d="M232.939 177.445a.326.326 0 1 0-.458-.461l-.818.811.458.462.818-.812" data-name="Path 519"/><path d="M234.569 181.46a.312.312 0 1 0-.437-.44l-.632.627.437.44.632-.628" data-name="cp3"/><path stroke="#000" stroke-width=".5" d="M228.945 175.796a.312.312 0 1 0-.437-.44l-.631.627.437.44.631-.627" data-name="Path 520"/></g></g><g transform="translate(198.366 143.73)"><path fill="#2f4ba1" d="M0 8.075a6.256 6.256 0 0 0 1.659 4.267 5.335 5.335 0 0 0 7.954.009 6.255 6.255 0 0 0 1.652-4.27V.005L.021-.004l-.02 8.075" data-name="Path 521"/><circle cx="1.114" cy="1.114" r="1.114" fill="#fff" data-name="Ellipse 100" transform="translate(1.464 1.957)"/><circle cx="1.114" cy="1.114" r="1.114" fill="#fff" data-name="Ellipse 101" transform="translate(7.703 1.962)"/><circle cx="1.114" cy="1.114" r="1.114" fill="#fff" data-name="Ellipse 102" transform="translate(4.578 4.957)"/><circle cx="1.114" cy="1.114" r="1.114" fill="#fff" data-name="Ellipse 103" transform="translate(1.464 8.093)"/><circle cx="1.114" cy="1.114" r="1.114" fill="#fff" data-name="Ellipse 104" transform="translate(7.696 8.085)"/></g><g data-name="Group 78" transform="translate(198.366 124.218)"><path fill="#2f4ba1" d="M0 8.075a6.256 6.256 0 0 0 1.659 4.267 5.335 5.335 0 0 0 7.954.009 6.255 6.255 0 0 0 1.652-4.27V.005L.021-.004l-.02 8.075" data-name="Path 522"/><circle cx="1.114" cy="1.114" r="1.114" fill="#fff" data-name="Ellipse 105" transform="translate(1.464 1.957)"/><circle cx="1.114" cy="1.114" r="1.114" fill="#fff" data-name="Ellipse 106" transform="translate(7.703 1.962)"/><circle cx="1.114" cy="1.114" r="1.114" fill="#fff" data-name="Ellipse 107" transform="translate(4.578 4.957)"/><circle cx="1.114" cy="1.114" r="1.114" fill="#fff" data-name="Ellipse 108" transform="translate(1.464 8.093)"/><circle cx="1.114" cy="1.114" r="1.114" fill="#fff" data-name="Ellipse 109" transform="translate(7.696 8.085)"/></g><g data-name="Group 79" transform="translate(182.767 143.73)"><path fill="#2f4ba1" d="M0 8.075a6.256 6.256 0 0 0 1.659 4.267 5.335 5.335 0 0 0 7.954.009 6.255 6.255 0 0 0 1.652-4.27V.005L.021-.004l-.02 8.075" data-name="Path 523"/><circle cx="1.114" cy="1.114" r="1.114" fill="#fff" data-name="Ellipse 110" transform="translate(1.464 1.957)"/><circle cx="1.114" cy="1.114" r="1.114" fill="#fff" data-name="Ellipse 111" transform="translate(7.703 1.962)"/><circle cx="1.114" cy="1.114" r="1.114" fill="#fff" data-name="Ellipse 112" transform="translate(4.578 4.957)"/><circle cx="1.114" cy="1.114" r="1.114" fill="#fff" data-name="Ellipse 113" transform="translate(1.464 8.093)"/><circle cx="1.114" cy="1.114" r="1.114" fill="#fff" data-name="Ellipse 114" transform="translate(7.696 8.085)"/></g><g data-name="Group 80" transform="translate(213.925 143.73)"><path fill="#2f4ba1" d="M0 8.075a6.256 6.256 0 0 0 1.659 4.267 5.335 5.335 0 0 0 7.954.009 6.255 6.255 0 0 0 1.652-4.27V.005L.021-.004l-.02 8.075" data-name="Path 524"/><circle cx="1.114" cy="1.114" r="1.114" fill="#fff" data-name="Ellipse 115" transform="translate(1.464 1.957)"/><circle cx="1.114" cy="1.114" r="1.114" fill="#fff" data-name="Ellipse 116" transform="translate(7.703 1.962)"/><circle cx="1.114" cy="1.114" r="1.114" fill="#fff" data-name="Ellipse 117" transform="translate(4.578 4.957)"/><circle cx="1.114" cy="1.114" r="1.114" fill="#fff" data-name="Ellipse 118" transform="translate(1.464 8.093)"/><circle cx="1.114" cy="1.114" r="1.114" fill="#fff" data-name="Ellipse 119" transform="translate(7.696 8.085)"/></g><g data-name="Group 81" transform="translate(198.366 163.068)"><path fill="#2f4ba1" d="M0 8.075a6.256 6.256 0 0 0 1.659 4.267 5.335 5.335 0 0 0 7.954.009 6.255 6.255 0 0 0 1.652-4.27V.005L.021-.004l-.02 8.075" data-name="Path 525"/><circle cx="1.114" cy="1.114" r="1.114" fill="#fff" data-name="Ellipse 120" transform="translate(1.464 1.957)"/><circle cx="1.114" cy="1.114" r="1.114" fill="#fff" data-name="Ellipse 121" transform="translate(7.703 1.962)"/><circle cx="1.114" cy="1.114" r="1.114" fill="#fff" data-name="Ellipse 122" transform="translate(4.578 4.957)"/><circle cx="1.114" cy="1.114" r="1.114" fill="#fff" data-name="Ellipse 123" transform="translate(1.464 8.093)"/><circle cx="1.114" cy="1.114" r="1.114" fill="#fff" data-name="Ellipse 124" transform="translate(7.696 8.085)"/></g></g></g></svg>