<svg xmlns="http://www.w3.org/2000/svg" xmlns:xlink="http://www.w3.org/1999/xlink" width="512" height="300" viewBox="0 0 512 300"><defs><clipPath id="b"><rect width="512" height="300"/></clipPath></defs><g id="a" clip-path="url(#b)"><g transform="translate(0 -0.5)"><rect width="512" height="298.7" transform="translate(0 0.7)" fill="#358142"/><path d="M.3,10.94c-.5,7-1.1,19.2,4.8,20.5,7.2.7,3.2-12.1,5.8-14.5.5-1.1,1.4-1.2,1.5.3v10.9c-.1,3.5,2.3,4.6,4.1,5.3,1.9-.1,3.1-.1,3.9,1.8.3,6.3.6,12.5.9,18.8,0,0,4.4,1.3,4.6-10.6.2-6.9-1.4-12.8-.4-14.1,0-1.3,1.7-1.4,2.9-.8,1.9,1.3,2.7,3,5.6,2.3,4.4-1.2,7.1-3.4,7.2-6.8a30.543,30.543,0,0,0-2-9.7c.2-.6-.9-2.1-.7-2.7.8,1.3,2,1.1,2.3,0-.8-2.5-1.9-4.9-3.8-5.9-1.6-1.4-3.9-1.1-4.7,1.8-.4,3.3,1.2,7.3,3.6,10.5a10.765,10.765,0,0,1,.9,5.2,2.8,2.8,0,0,1-3.6-.7s-3.5-2.6-3.5-3.2c.9-6,.2-6.7-.3-8.3-.4-2.3-1.5-3-2.3-4.6-.9-.9-2.1-.9-2.6,0-1.6,2.7-.8,8.5.3,11.1.8,2.4,2.1,3.9,1.5,3.9-.5,1.4-1.5,1-2.2-.5a40.611,40.611,0,0,1-1.3-10.2c-.3-2.7-.7-8.4-2.4-9.9-1.1-1.5-2.7-.8-3.2.6a50.167,50.167,0,0,0,.2,7.8,88.394,88.394,0,0,1,2.2,12.5c.2,5.9-3.4,2.6-3.2-.4.8-3.8.6-9.8-.1-11.3-.6-1.5-1.3-1.9-2.7-1.6-1.1-.1-4,3.1-4.8,8.3a47.3,47.3,0,0,0-1,5.1c-.4,2.7-2.2,4.6-3.4-.4C2.8,17.84,2.1,8.84.3,10.94" transform="translate(144.601 74.36)" fill="#fff"/><path d="M18.7,3C12.4,6.1,6.3,9,0,12,.2,7.8,8.9.1,14.8,0c3.8,0,2.9,1.4,3.9,3" transform="translate(145.7 111)" fill="#fff"/><path d="M.011,64.7a31.539,31.539,0,0,1,.3-6.1c.3-3.4,1.6-5.3,2.6-4.6a4.363,4.363,0,0,1,1,2.7c.2,2.5.5,6.6,1.5,8.5,4.2,8,28.8,6.2,29.6-19-.1-.6-.3-.9-.5-1-.5-.2-1.3.6-1.5,1.4-3.7,27.9-36.5,24.4-26.7-1,3.3-2.3,1.8,7.6,3.2,10.2,2.2,4.1,6.2,3.6,11.3,1.3,8.3-4.4,8.7-10.1,8.3-10.8-.6-.4-2,1.4-3.8,2.1-2.2.5-4.7.8-6.7-1.7a14.6,14.6,0,0,1,0-7.2c.5-3.1,3.8-6.3,6.7-6.3,4.1-.1,4.6,3.1,7,4.7,1.4.2,2.5-1.5,2.2-2.8-1.8-11-3-19.3-4.8-30.3a3.562,3.562,0,0,1,2.5-4.4c.5-.1.8-.4,1.2-.4.2,0,.3,0,.3.4.1.1.1.1.2.1a.1.1,0,0,0,.1.1.1.1,0,0,0,.1.1c.1,0,.1.1.2.2,1.5.7,4,8.3,5.2,12-1.1,1.4-2.2.5-3.4.5.9,7.1,1.9,14,2.8,21.1,3-1.7,4.4-1.2,4.1,2.4.3,1.5,2.6,1.3,3.9.3,1.9-5.3,5-4.9,5.8-1.4a1.068,1.068,0,0,0,1.6.7l.3-.3c.1-.1.1-.1.1-.2.1-.9.3-1.8.4-2.7a.768.768,0,0,1,.2-.5,10.379,10.379,0,0,1,3.4-1.4,93.077,93.077,0,0,1-1.1,9.4c-.9,3.1-5.2,4-7.7,2.2a1.409,1.409,0,0,0-2.2.2c-1,1.1-5.4,4.1-8.6.7h-.1c-.8.8,1.8,7.2-.8,15.7-3,9.719-15.269,16.662-25.111,16.661C6.233,76.261.545,72.879.011,64.7Z" transform="translate(154.789 74.4)" fill="#fff"/><path d="M0,19.926c.5-1.1,9.7-7.4,13.2-11.2.8-.6-.5-1.9-1.7-2.5-1.3-1.5-.9-4,.7-5.6a5.112,5.112,0,0,1,2.2-.6,7.3,7.3,0,0,1,2.8.4c1.2,1.4,1.9,4.4-.4,5.7a.75.75,0,0,0,0,1.3c.5.4.9.7,1.4,1.1,0,0-9.3,10.7-11.3,11.4a17.118,17.118,0,0,1-3.525.225A14.751,14.751,0,0,1,0,19.926Z" transform="translate(196 73.874)" fill="#fff"/><path d="M3.06.976c-3.5,5.6-3.8,13.9-1.9,16.4a3.951,3.951,0,0,0,4,1.3c2.2-1,3.2-5.4,2.6-7.1-.7-1.2-1.3-1.3-2-.4-1.6,3.2-2.2,1-2.3-.8a47.706,47.706,0,0,1,.4-8.8c.3-2.4-.1-1.6-.8-.6" transform="translate(143.34 130.924)" fill="#fff"/><path d="M34.944,50.682c-3.4-7.3-8.1-14.5-9.6-17.3s-12.8-19.2-14.4-21c-3.7-4.4,6,1.8-1.2-6.8-2.7-2.3-2.9-2.5-5.2-4.4-1.1-.8-3.9-2.3-4.4.2a12.63,12.63,0,0,0,.3,5.2c.3,1.2,2,3.2,2.9,4.4a329.863,329.863,0,0,1,31.4,50.5c1.5-.9,1.1-9.6.2-10.8" transform="translate(261.356 72.318)" fill="#fff"/><path d="M.126,73.559c-.7.7,1.6,4,4.7,3.9,5-.6,9.5-3.4,13.6-10.8,1.1-1.7,3-5.4,3.1-8.3.4-16.9-.8-30-3.4-42.2a6.263,6.263,0,0,1,.1-2.9c.3-.4,1.4,0,2-1,.9-.9-2.3-8.2-4.1-11-.6-1.3-.9-2.1-1.9.2a15.654,15.654,0,0,0-1.8,7.9c2.4,16.6,3.1,31.2,4.7,47.8.1,1.6-.1,3.9-1.2,4.9-3.9,4.1-9.6,9.2-15.8,11.5" transform="translate(281.274 73.841)" fill="#fff"/><path d="M2.795,74.159c-3.6,2.1-3.6,4.5-.7,4.6,5-.6,11-1,15.1-7.2,1.1-1.7,2.4-6.4,2.5-9.3.4-16.9-.2-33.4-2.8-45.6-.2-1.2-.7-3.9-.5-4.3.3-.8,2,.1,2.5-.9.9-.9-4.2-7.4-6-10.2-.6-1.3-.9-2.1-1.9.2-1.1,1.8-1.5,5.1-1,7.9,2.7,18,4.7,35.5,5.1,51.5a17.273,17.273,0,0,1-1,4.3c-1.6,2-3.3,4.5-5,5.8-1.7,1.1-5.2,2.3-6.3,3.2" transform="translate(346.605 73.141)" fill="#fff"/><path d="M11.6,58.075c0-4.2.1-7.9-.1-11-.1-3.1-1.6-15-2.1-17.5s-1-6.4-1.7-9.4c-.2-1.2-.8-5-.6-5.3.3-.9,1.4,0,2-1,.8-.9-2.9-10.5-4.8-13.2-.7-1.2-1.9-.8-3.4,1.2-1.4,1.3-.9,4.3-.3,7.2,3.6,18.8,6.3,38.6,5.7,56.5-.2,1.5,5.3-4.6,5.3-7.5" transform="translate(340.498 73.025)" fill="#fff"/><path d="M8.657,14.848c-2.3,0-7-4.4-8.4-7a4.79,4.79,0,0,1,.3-3.8c.8-.5,2.1-1.2,3.1-.6,0,0,1,1.4.8,1.6,1.2.6,1.8.3,1.9-.3.1-.9-.4-1.4-.4-2.4a2.685,2.685,0,0,1,4.7-1.4c.8,1,1.1,3.2,1.3,4.7,0,.8-1.2-.1-1.9,0-.7.2-.9,1-.9,1.7-.2,2.1-.5,5.2-.5,7.5" transform="translate(316.743 92.952)" fill="#fff"/><path d="M10.993,62.813c.6-5.7-.2-17.4-.3-20.8-.2-8-1.5-23.4-2.2-26-.7-4.9,2,.5,1.6-2.3-.9-4.8-3.6-8.1-6.7-12.6-1-1.4-1-1.7-2.6.4-1.7,4-.2,6.7.2,9.8a177.377,177.377,0,0,1,4.2,28.4,251.179,251.179,0,0,1,.2,30.1c1.9,0,4.7-2.8,5.6-7" transform="translate(272.507 72.987)" fill="#fff"/><path d="M37.939,53.62c-4-6.7-10-14.6-11.6-17.3s-15.3-22.7-17-24.5c-5-5.2,2.3-.9-.9-4.9-2.8-3-3.5-4-5.9-5.8-1.2-.8-1.9-2.2-2.3.3a48.967,48.967,0,0,0-.2,6.5,8.619,8.619,0,0,0,2,4.1c12.1,14.9,25.3,33.1,35.9,52.2,1.5-.8,1-9.4,0-10.6" transform="translate(321.861 72.98)" fill="#fff"/><path d="M156.9,19.6c-1.2.4-14.5.2-16.8,0-.5.8-1.1,1.8-2.6,1.5h-.2a.1.1,0,0,0-.1-.1c-1.3-.8-3-5.2-1.4-8-21.9,0-98.9.2-115.5.2C11.4,13,4.7,11.6,0,4.8c.4,0,22.2.8,29.1.8,12.3,0,69.7.6,107.1.6-2.3-1.6-2.4-5.3,1.2-6.2l.2.2c.2.2.3,1.2.6,1.6l.1.1h.1a1.693,1.693,0,0,1,1.3.3c1.1.9.2,3.5-.3,4.1,5.3.2,8.8.2,13.6.8,0,0,4.1-.4,5.6-.6,6.2-.6,6.5,8.8,6.5,8.8-.1,5.5-2.3,5.8-5,6.4a2.968,2.968,0,0,1-.368.024C158.372,21.723,157.636,20.7,156.9,19.6Z" transform="translate(173.9 205.9)" fill="#fff"/><path d="M1.143,8.354c-3.6,10.4,2.1,21.8,6.1,20.7,2.9,1.2,4.7-4.3,5.9-10.3.8-1.7,1.4-1.9,1.8-1-.1,7.9.6,9.7,2.6,12.1a6.731,6.731,0,0,0,8.6.2l3.6-3.6a2.155,2.155,0,0,1,3-.1c1.1,1,.9,2.7,3.2,3.9,2,.8,6.1.2,7.1-1.5,1.3-2.2,1.6-3,2.2-3.8.9-1.2,2.5-.7,2.5-.3-.1.7-1.1,1.4-.4,2.6,1.1.8,1.4.3,2,.1,2.3-1.1,4.1-6.1,4.1-6.1.1-1.9-.9-1.7-1.6-1.3a20.279,20.279,0,0,0-1.8,1.3c-1.1.2-3.3.9-4.4-.8-1.1-2-1.1-4.8-2-6.9,0-.2-1.5-3.2-.1-3.4.7.1,2.2.5,2.4-.7.7-1.2-1.6-4.6-3.1-6.4-1.3-1.5-3.2-1.7-5-.2-1.3,1.2-1.1,2.5-1.3,3.7a5.564,5.564,0,0,0,1.2,5c1.3,2.5,3.6,5.7,2.8,10.2a4.22,4.22,0,0,1-3.7,1.9c-1-.2-2.6-.6-3.4-6.9-.6-4.7.1-11.4-1.9-14.5-.7-1.9-1.3-3.7-3-.5-.5,1.3-2.5,3.2-1,7.1,1.2,2.5,1.7,6.5,1.2,11a18.211,18.211,0,0,1-2.1,3c-1.5,1.7-3.2,1.2-4.5.6a4.881,4.881,0,0,1-2.7-3.8c.1-4.1.3-10.8-.4-12.2-1.1-2.2-2.9-1.4-3.7-.7-3.7,3.4-5.6,9.2-6.7,13.8-1,3.3-2.1,2.4-2.9,1-2.2-1.7-2.3-15.5-4.6-13.2" transform="translate(215.557 71.246)" fill="#fff"/><path d="M21.007,45.8c-1.2-1.5-1.3-3.1-1.7-3.6l-.1-.1c-2.2,1-21.4,9.2-19,5.4,4.6-5,12.7-8.7,19.9-13.6.5-1.7,1.5-7.3,4.3-9.1.1.5-.5,3.3-.4,4.6v1.3c.6-.4,9.1-7.1,9.8-9.2.9-1.2.3-4,.3-4.3-1.7-4.2-4-4.5-4.8-6.6-.7-2.8-.4-5.9,1.2-6.8,1.4-1.3,3.1-1.1,4.6.3a13.845,13.845,0,0,1,3.8,6.9c-.173.517-.875.274-1.572.031a2.28,2.28,0,0,0-1.327-.231,9.084,9.084,0,0,1,2.2,4.5c1.1,4.8.7,6.7-.4,9.8-3.9,8.1-8.8,10.5-13.1,13.5a3.713,3.713,0,0,0,1.5,3.1c.6.6,2.8.8,5.4,0a31.663,31.663,0,0,0,13-13.6c.8-4.3-.3-8.9-1.4-12.9-1.7-3.9-3.6-9.3-3.7-9.6-.1-2.4.1-3.3,1.2-4.5.6-.4.9-.8,1.2-1l.1-.1V.2h.6c.3,0,.8.5,1.9,1.6a42.21,42.21,0,0,1,5.4,18.3,2.078,2.078,0,0,0,1.1,2.2h.1c.3-3.5,8.9-8.4,16.7-9.1,1.2-.2.6-2.5.8-3.7-.5-4.3,2.4-8.3,6.5-8.6,5.6.8,7.4,3.8,7.5,8.3-.7,8.7-9.7,10.2-14.8,10.9a2.143,2.143,0,0,0-.7.4,1.626,1.626,0,0,0,.6.3l21.3.1,1.3.6v.2a2.972,2.972,0,0,0-1.1,1.2,17.1,17.1,0,0,0-2.2,6.7c-6.3,2.1-12.9,3-19.6,3.8-2.3,1.2-3.5,2.7-3,4.5.7,1.9,5.6,3.8,5.9,4,1,.6,2.1,2.1-.3,5-10.5-.5-18.5-4.9-21.3-11.2-.8-.6-1.7,0-2.3.9-4.1,5.3-8.1,10-15,12.5a10.387,10.387,0,0,1-2.634.339A9.782,9.782,0,0,1,21.007,45.8Zm21-45.8Z" transform="translate(186.993 101.1)" fill="#fff"/><path d="M1.735,5.964c2.5,1.2,7.1.7,6.9-3.3,0-.3-.1-1.5-.1-1.9-.5-1.2-1.9-.9-2.2.3-.1.4.2,1-.2,1.2-.2.2-1,.1-1-1a2.471,2.471,0,0,0-.4-.9.9.9,0,0,0-.5-.1c-.3,0-.3.1-.5.4a2.92,2.92,0,0,0-.2.9c0,.4-.2.5-.5.6a.9.9,0,0,1-.5-.1c-.2-.2-.3-.2-.3-.5a2.959,2.959,0,0,0-.2-1,.6.6,0,0,0-.6-.3c-1.3,0-1.4,1.5-1.4,2.1-.1.1-.1,2.8,1.7,3.6" transform="translate(170.065 73.736)" fill="#fff"/><path d="M1.735,5.964c2.5,1.2,8.3.5,6.9-3.3,0-.3-.1-1.5-.1-1.9-.5-1.2-1.9-.9-2.2.3-.1.4.2,1-.2,1.2-.2.2-1,.1-1-1a2.471,2.471,0,0,0-.4-.9.9.9,0,0,0-.5-.1c-.3,0-.3.1-.5.4a2.92,2.92,0,0,0-.2.9c0,.4-.2.5-.5.6a.9.9,0,0,1-.5-.1c-.2-.2-.3-.2-.3-.5a2.959,2.959,0,0,0-.2-1,.6.6,0,0,0-.6-.3c-1.3,0-1.4,1.5-1.4,2.1-.1.1-.1,2.8,1.7,3.6" transform="translate(242.065 104.236)" fill="#fff"/><path d="M1.688,5.964c2.5,1.2,7.1.7,6.9-3.3,0-.4-.1-1.5-.1-1.9-.5-1.2-1.9-.9-2.2.3-.1.4.2,1-.2,1.2-.2.2-1,.1-.9-1a2.471,2.471,0,0,0-.4-.9.749.749,0,0,0-.5-.1c-.3,0-.3.1-.5.4a2.92,2.92,0,0,0-.2.9c0,.4-.2.5-.5.6a.749.749,0,0,1-.5-.1c-.2-.2-.3-.2-.3-.5a2.959,2.959,0,0,0-.2-1,.713.713,0,0,0-.6-.3c-1.3,0-1.4,1.5-1.4,2.1-.2.1-.2,2.8,1.6,3.6" transform="translate(284.112 91.636)" fill="#fff"/><path d="M2.692,56.159c-4.3,4.8-2.4,12.8-1.4,14.5,1.4,2.8,2.5,4.6,5.3,6a3.646,3.646,0,0,0,5.5-.6c2.5-2.6,2.5-9.3,3.7-10.6.8-2.4,2.9-2,3.9-.9a9.78,9.78,0,0,0,3.6,3.1,6.063,6.063,0,0,0,7.9.6,9.151,9.151,0,0,0,4.2-5.1c1.2-3.3.6-21.2.3-30.2-.1-.7-2.4-12.4-2.4-12.5s-.3-6-.6-7.3c0-.6-.2-.7.4-.6.6.5.7.6,1.1.7.6.1,1.2-1,.8-1.9-1.9-3.6-3.9-7.2-5.9-10.8-.5-.5-1.1-1-1.8.1a4.427,4.427,0,0,0-1.5,3.2c.2,2.6.6,5.2.8,7.7.8,4.4,1.6,8.8,2.3,13.2.7,9.4.9,18,1.7,27.3-.1,4-1.3,9.2-2.5,9.7,0,0-1.8,1-2.9-.1-.9-.3-4.3-5.7-4.3-5.7-1.8-1.6-2.9-1.2-4.2,0-3.5,3.3-5,9.6-7.3,13.9-.6.9-2.3,1.8-4.2-.1-4.8-6.6-1.9-16-2.5-13.6" transform="translate(304.908 73.041)" fill="#fff"/><path d="M2.854.1c2.2.9,3.8,5.4,3.2,7.6-.4,2.7-1.6,5.6-2.5,5.2-.9-.3.6-2.7-.3-5.1-.5-1.6-3.5-4.5-3.2-5.4-.4-1.9,1.5-2.7,2.8-2.3" transform="translate(284.046 74.5)" fill="#fff"/><path d="M11.55,58.4c.5-5.4-.3-8.6-.5-11.8-.1-3.1-3.6-28.7-4.3-31-.8-4.5,3.3-.6,2.9-3.2-1.4-3.3-5-8.1-6.2-11-.7-1.2-.4-2.3-1.9-.3C.15,5.7-.35,9.4.25,12.3c3.6,18.8,7.3,36,6.7,53.9,1.7,0,3.7-3.9,4.6-7.8" transform="translate(303.15 73.496)" fill="#fff"/><path d="M2.463.061c2,1,3.2,6.6,3,8.2-.4,2.9-1.5,6.1-2.2,5.7-.8-.4.2-4.3-.2-5.6-.4-1.7-3.2-4.9-2.9-5.8-.7-2,1-2.8,2.3-2.5" transform="translate(349.837 80.839)" fill="#fff"/><path d="M2.394.1c1.9.7,3.1,4.8,2.8,6-.4,2.1-1.4,4.5-2.1,4.2-.8-.3.2-3.2-.2-4.1-.2-2.2-2.8-3.3-2.8-4.3-.5-1.8,1.1-2.1,2.3-1.8" transform="translate(200.706 121.699)" fill="#fff"/><path d="M2.325.037c2.8.9,3,5,2.8,6.2-.4,2.2-1.4,4.6-2.1,4.3-.8-.3,0-3.3-.4-4.2-.4-1.3-2.8-3.7-2.5-4.4-.6-1.5,1.1-2.1,2.2-1.9" transform="translate(149.475 73.163)" fill="#fff"/><path d="M2.326.393a5.11,5.11,0,0,0-1.7,6.7,3.209,3.209,0,0,0,3.5,1.1c2.1.3,3.4-4,3.4-4s.1-1.2-2.5,1.1c-1.1.2-1.2-.2-1.5-.8a5.38,5.38,0,0,1,.3-3.3c.6-1.1-.2-1.6-1.5-.8" transform="translate(205.374 92.507)" fill="#fff"/><path d="M3.391.389c-1.1.7-3.3,3-3.3,5.6-.1,1.5-.3,1.5.6,2.4.7,1,1.4.9,2.8.2a2.766,2.766,0,0,0,1.3-2c.3-1.7-1.8.8-2-1.1-.5-1.7.9-2.4,2.1-4.1.1-1.1.1-1.9-1.5-1" transform="translate(220.609 71.211)" fill="#fff"/><path d="M.95,2.117c-.5,1-1,6.5-.9,6.5-.4,1.6,1.7,2.3,2.6.2a19.919,19.919,0,0,0,1.5-7.1c-.5-2.4-2.1-2.3-3.2.4" transform="translate(236.25 71.783)" fill="#fff"/><path d="M.685,8.425c.3-.3,11.7-8.4,11.7-8.4,1.2-.4.9,4.2.4,4.1.2.9-11.2,8.7-12,8.4-.7.4-1.3-3.1-.1-4.1" transform="translate(319.315 107.675)" fill="#fff"/><path d="M2.394.052c2,1,2.8,6.9,2.6,8.5.1,3.1-1.9,5.6-2.7,5.2s.1-3.8-.3-5.1c-.4-1.7-2.1-5-1.9-5.9a2.014,2.014,0,0,1,2.3-2.7" transform="translate(327.906 115.948)" fill="#fff"/><path d="M.364,2.992a12.91,12.91,0,0,1,3.3-2.8,2.071,2.071,0,0,1,2.2.4c.2,1.1-.7,2.2-.4,3.7.2.6.4,1.3,1.5,1a8.423,8.423,0,0,1,5.3-1.6c1.4.1,1.4,2.4.6,2.5a39.848,39.848,0,0,0-7.2,2.5,1.614,1.614,0,0,1-2.1-.3,2,2,0,0,1-.2-2.1c.1-1.2-.4-1.9-1.4-1.7-.8.4-1.4.7-1.8-.2-.2-.7-.3-1,.2-1.4" transform="translate(262.236 138.308)" fill="#fff"/><path d="M2.518,3.215a1.469,1.469,0,0,1,0,2.2c-.8.7-1.4,1.1-2.2,1.9-.4.6-.6,1.6.5,1.9,2.1.6,7-2.6,7-2.7a1.688,1.688,0,0,0,.5-1.7c-.5-.5-1.5-.2-2.2-.3-.3,0-1.4-.2-.9-1.1a9.147,9.147,0,0,0,.9-1.7c.3-.7,0-1.2-1.2-1.6a10.709,10.709,0,0,0-3.1,0c-.7.2-1,.5-1.1,1.4.2,1.2,1,1.1,1.8,1.7" transform="translate(339.782 141.285)" fill="#fff"/></g></g></svg>