<svg xmlns="http://www.w3.org/2000/svg" xmlns:xlink="http://www.w3.org/1999/xlink" width="512" height="300" viewBox="0 0 512 300"><defs><clipPath id="b"><rect width="512" height="300"/></clipPath></defs><g id="a" clip-path="url(#b)"><g transform="translate(0 -0.5)"><rect width="512" height="149.4" transform="translate(0 0.7)" fill="#e0193a"/><rect width="512" height="149.3" transform="translate(0 151.4)" fill="#fff"/><path d="M112.4,56.2A56.2,56.2,0,1,1,56.2,0a56.185,56.185,0,0,1,56.2,56.2" transform="translate(41.3 19.1)" fill="#fff"/><path d="M106.2,53.1A53.1,53.1,0,1,1,53.1,0a53.134,53.134,0,0,1,53.1,53.1" transform="translate(65.1 22.2)" fill="#d91d42"/><path d="M19.9,24.7l-7.6-5.9L4.7,24.7l2.9-9.5L0,9.4l9.4.1L12.3,0l2.9,9.5,9.5-.1L17,15.2Z" transform="translate(84.5 52.262)" fill="#fff"/><path d="M20,24.7l-7.6-5.9L4.7,24.7l3-9.5L0,9.4l9.5.1L12.4,0l2.9,9.5,9.4-.1-7.6,5.8Z" transform="translate(144.3 52.262)" fill="#fff"/><path d="M20,24.7l-7.6-5.9L4.7,24.7l3-9.5L0,9.4H9.5L12.4,0l2.9,9.4h9.4l-7.6,5.8Z" transform="translate(114.4 29.8)" fill="#fff"/><path d="M20,24.6l-7.7-5.8L4.7,24.6l2.9-9.4L0,9.4H9.4L12.3,0l2.9,9.4h9.5L17,15.2Z" transform="translate(95.7 88.044)" fill="#fff"/><path d="M20,24.6l-7.6-5.8L4.8,24.6l2.9-9.4L0,9.4H9.5L12.4,0l2.9,9.4h9.4l-7.6,5.8Z" transform="translate(133.1 88.044)" fill="#fff"/></g></g></svg>