<svg xmlns="http://www.w3.org/2000/svg" width="512" height="300"><defs><clipPath id="a"><path d="M0 0h512v300H0z"/></clipPath></defs><g clip-path="url(#a)" data-name="singapore"><path fill="#e0193a" d="M0 .2h512v149.4H0z"/><path fill="#fff" d="M0 150.9h512v149.3H0z" data-name="Rectangle"/><path fill="#fff" d="M153.7 74.8a56.2 56.2 0 1 1-56.2-56.2 56.185 56.185 0 0 1 56.2 56.2"/><path fill="#d91d42" d="M171.3 74.8a53.1 53.1 0 1 1-53.1-53.1 53.134 53.134 0 0 1 53.1 53.1" data-name="Path"/><path fill="#fff" d="m104.4 76.462-7.6-5.9-7.6 5.9 2.9-9.5-7.6-5.8 9.4.1 2.9-9.5 2.9 9.5 9.5-.1-7.7 5.8ZM164.3 76.462l-7.6-5.9-7.7 5.9 3-9.5-7.7-5.8 9.5.1 2.9-9.5 2.9 9.5 9.4-.1-7.6 5.8ZM134.4 54l-7.6-5.9-7.7 5.9 3-9.5-7.7-5.8h9.5l2.9-9.4 2.9 9.4h9.4l-7.6 5.8ZM115.7 112.144l-7.7-5.8-7.6 5.8 2.9-9.4-7.6-5.8h9.4l2.9-9.4 2.9 9.4h9.5l-7.7 5.8ZM153.1 112.144l-7.6-5.8-7.6 5.8 2.9-9.4-7.7-5.8h9.5l2.9-9.4 2.9 9.4h9.4l-7.6 5.8Z" data-name="Path"/></g></svg>