<svg xmlns="http://www.w3.org/2000/svg" width="512" height="300"><defs><clipPath id="a"><path d="M0 0h512v300H0z"/></clipPath></defs><g clip-path="url(#a)"><path fill="#4189dd" d="M0 0h512v300H0z" data-name="Rectangle 38"/><g fill="#fff" data-name="Group 184"><path d="m255.71 77.376-22.358 68.812 34.406 11.18Z"/><path d="m255.71 77.376 22.358 68.812-34.406 11.18Z" data-name="Path 1305"/><g data-name="Group 180"><path d="M324.522 127.37h-72.353v36.177Z" data-name="w"/><path d="M324.522 127.37 265.987 169.9l-21.264-29.268Z" data-name="Path 1306"/></g><g data-name="Group 181"><path d="m186.898 127.37 58.535 42.528 21.264-29.268Z" data-name="w"/><path d="M186.898 127.37h72.353v36.176Z" data-name="Path 1307"/></g><g data-name="Group 182"><path d="m298.239 208.27-22.374-68.815-34.408 11.187Z" data-name="w"/><path d="m298.238 208.271-58.55-42.522 21.262-29.275Z" data-name="Path 1308"/></g><g data-name="Group 183"><path d="m213.183 208.256 58.549-42.522-21.262-29.275Z" data-name="w"/><path d="m213.182 208.256 22.374-68.816 34.408 11.187Z" data-name="Path 1309"/></g></g></g></svg>