<svg xmlns="http://www.w3.org/2000/svg" xmlns:xlink="http://www.w3.org/1999/xlink" width="512" height="300" viewBox="0 0 512 300"><defs><clipPath id="b"><rect width="512" height="300"/></clipPath></defs><g id="a" clip-path="url(#b)"><g transform="translate(-0.11 -0.407)"><rect width="512" height="300" transform="translate(0.11 0.407)" fill="#4189dd"/><g transform="translate(176.376 77.783)"><g transform="translate(45.038 0)"><path d="M0,0V72.353H36.177Z" transform="translate(34.406 0) rotate(18)" fill="#fff"/><path d="M0,72.353V0H36.177Z" transform="translate(56.764 68.812) rotate(162)" fill="#fff"/></g><g transform="translate(137.624 17.272) rotate(72)"><path d="M0,0V72.353H36.177Z" transform="translate(34.406 0) rotate(18)" fill="#fff"/><path d="M0,72.353V0H36.177Z" transform="translate(56.765 68.812) rotate(162)" fill="#fff"/></g><g transform="translate(0 82.716) rotate(-72)"><path d="M0,0V72.353H36.177Z" transform="translate(34.406 0) rotate(18)" fill="#fff"/><path d="M0,72.353V0H36.177Z" transform="translate(56.765 68.812) rotate(162)" fill="#fff"/></g><g transform="matrix(-0.809, 0.588, -0.588, -0.809, 149.807, 110.664)"><path d="M0,0V72.353H36.177Z" transform="translate(34.406 0) rotate(18)" fill="#fff"/><path d="M0,72.353V0H36.177Z" transform="translate(56.765 68.812) rotate(162)" fill="#fff"/></g><g transform="matrix(-0.809, -0.588, 0.588, -0.809, 64.751, 151.111)"><path d="M0,0V72.353H36.177Z" transform="translate(34.406 0) rotate(18)" fill="#fff"/><path d="M0,72.353V0H36.177Z" transform="translate(56.765 68.812) rotate(162)" fill="#fff"/></g></g></g></g></svg>