<svg xmlns="http://www.w3.org/2000/svg" xmlns:xlink="http://www.w3.org/1999/xlink" width="512" height="300" viewBox="0 0 512 300"><defs><clipPath id="b"><rect width="512" height="300"/></clipPath></defs><g id="a" clip-path="url(#b)"><g transform="translate(0 -0.5)"><rect width="512" height="300" transform="translate(0 0.7)" fill="#fff"/><rect width="12.4" height="34.2" transform="translate(328.466 56.829) rotate(-33.684)" fill="#424242"/><rect width="12.401" height="34.201" transform="translate(350.946 90.401) rotate(-33.688)" fill="#424242"/><rect width="12.4" height="74.699" transform="translate(344.015 46.421) rotate(-33.684)" fill="#424242"/><rect width="12.401" height="34.201" transform="translate(359.585 36.1) rotate(-33.688)" fill="#424242"/><rect width="12.401" height="34.201" transform="translate(381.962 69.734) rotate(-33.688)" fill="#424242"/><rect width="12.4" height="74.699" transform="translate(131.703 187.937) rotate(-33.684)" fill="#424242"/><rect width="12.401" height="34.201" transform="translate(116.262 198.302) rotate(-33.688)" fill="#424242"/><rect width="12.401" height="34.201" transform="translate(138.691 232.017) rotate(-33.688)" fill="#424242"/><rect width="12.4" height="74.699" transform="translate(100.658 208.74) rotate(-33.684)" fill="#424242"/><rect width="74.699" height="12.4" transform="translate(131.751 112.026) rotate(-56.316)" fill="#424242"/><rect width="74.699" height="12.4" transform="translate(116.198 101.621) rotate(-56.316)" fill="#424242"/><rect width="74.699" height="12.4" transform="translate(100.675 91.353) rotate(-56.316)" fill="#424242"/><rect width="34.201" height="12.401" transform="translate(328.488 243.244) rotate(-56.312)" fill="#424242"/><rect width="34.2" height="12.4" transform="translate(350.898 209.517) rotate(-56.316)" fill="#424242"/><rect width="34.201" height="12.401" transform="translate(344.013 253.512) rotate(-56.312)" fill="#424242"/><rect width="34.201" height="12.401" transform="translate(366.473 219.913) rotate(-56.312)" fill="#424242"/><rect width="34.201" height="12.401" transform="translate(359.564 263.919) rotate(-56.312)" fill="#424242"/><rect width="34.201" height="12.401" transform="translate(381.943 230.264) rotate(-56.312)" fill="#424242"/><path d="M.9,0C.6.4.4.8.1,1.2A8.342,8.342,0,0,1,.9,0" transform="translate(193 108.6)" fill="#b51e3a"/><path d="M109.755,12.559a74.589,74.589,0,0,0-103.5,20.7,37.359,37.359,0,1,0,62.2,41.4,37.359,37.359,0,0,1,62.2,41.4,74.814,74.814,0,0,0-20.9-103.5" transform="translate(187.645 75.341)" fill="#e0193a"/><path d="M12.5,0A37.359,37.359,0,0,0,74.7,41.4a37.359,37.359,0,1,1,62.2,41.4A74.606,74.606,0,0,1,33.4,103.5C-.9,80.6-10.4,34.3,12.5,0" transform="translate(181.403 108.6)" fill="#2f4ba1"/></g></g></svg>