<svg xmlns="http://www.w3.org/2000/svg" xmlns:xlink="http://www.w3.org/1999/xlink" width="512" height="300" viewBox="0 0 512 300"><defs><clipPath id="b"><rect width="512" height="300"/></clipPath></defs><g id="a" clip-path="url(#b)"><g transform="translate(0 -0.5)"><path d="M0,0H512V298.7H0Z" transform="translate(0 0.7)" fill="#fff"/><path d="M0,0,149.4,99.5H422.3V0Z" transform="translate(89.7 0.7)" fill="#f23b27"/><path d="M149.4,0,0,99.6H422.3V0Z" transform="translate(89.7 199.8)" fill="#2f4ba1"/><path d="M59.6,39.7,0,0V179l59.6-39.7,74.7-49.8Z" transform="translate(0 60.5)" fill="#424242"/><path d="M0,23.9l134.3,89.5L0,202.9v23.9L170.2,113.4,0,0Z" transform="translate(0 36.6)" fill="#fcd93a"/><path d="M0,0V35.9L170.2,149.3,0,262.7v36H53.8L233,179.2H512V119.4H233L53.8,0Z" transform="translate(0 0.7)" fill="#358142"/></g></g></svg>