<svg xmlns="http://www.w3.org/2000/svg" width="512" height="300"><defs><clipPath id="a"><path d="M0 0h512v300H0z"/></clipPath></defs><g clip-path="url(#a)"><path fill="#fff" d="M0 .2h512v300H0z"/><path fill="#424242" d="m328.466 56.329 10.318-6.877 18.968 28.458-10.318 6.877zM350.946 89.901l10.319-6.878 18.97 28.457-10.319 6.879zM344.015 45.921l10.318-6.877 41.43 62.158-10.319 6.877zM359.585 35.6l10.319-6.878 18.97 28.457-10.319 6.879zM381.962 69.234l10.319-6.878 18.97 28.457-10.319 6.879zM131.703 187.437l10.318-6.877 41.43 62.158-10.319 6.877zM116.262 197.802l10.319-6.878 18.97 28.457-10.319 6.879zM138.691 231.517l10.319-6.878 18.97 28.457-10.319 6.879zM100.658 208.24l10.318-6.877 41.43 62.158-10.319 6.877zM131.751 111.526l41.429-62.158 10.318 6.877-41.429 62.158zM116.198 101.121l41.429-62.158 10.318 6.877-41.429 62.158zM100.675 90.853l41.429-62.158 10.318 6.877-41.429 62.158zM328.488 242.744l18.97-28.458 10.319 6.879-18.97 28.457zM350.898 209.017l18.968-28.458 10.318 6.877-18.968 28.458zM344.013 253.012l18.97-28.458 10.319 6.879-18.97 28.457zM366.473 219.413l18.97-28.458 10.319 6.879-18.97 28.457zM359.564 263.419l18.97-28.458 10.319 6.879-18.97 28.457zM381.943 229.764l18.97-28.458 10.319 6.879-18.97 28.457z" data-name="Rectangle"/><path fill="#b51e3a" d="M193.9 108.1c-.3.4-.5.8-.8 1.2a8.342 8.342 0 0 1 .8-1.2"/><path fill="#e0193a" d="M297.4 87.4a74.589 74.589 0 0 0-103.5 20.7 37.36 37.36 0 1 0 62.2 41.4 37.36 37.36 0 0 1 62.2 41.4 74.814 74.814 0 0 0-20.9-103.5" data-name="Path"/><path fill="#2f4ba1" d="M193.903 108.1a37.36 37.36 0 0 0 62.2 41.4 37.36 37.36 0 1 1 62.2 41.4 74.606 74.606 0 0 1-103.5 20.7c-34.3-22.9-43.8-69.2-20.9-103.5" data-name="Path"/></g></svg>