<svg xmlns="http://www.w3.org/2000/svg" width="512" height="300"><defs><clipPath id="a"><path d="M0 0h512v300H0z"/></clipPath></defs><g clip-path="url(#a)"><path fill="#fff" d="M0 .2h512v298.7H0Z"/><path fill="#f23b27" d="m89.7.2 149.4 99.5H512V.2Z"/><path fill="#2f4ba1" d="M239.1 199.3 89.7 298.9H512v-99.6Z" data-name="Path"/><path fill="#424242" d="M59.6 99.7 0 60v179l59.6-39.7 74.7-49.8Z" data-name="Path"/><path fill="#fcd93a" d="m0 60 134.3 89.5L0 239v23.9l170.2-113.4L0 36.1Z" data-name="Path"/><path fill="#358142" d="M0 .2v35.9l170.2 113.4L0 262.9v36h53.8L233 179.4h279v-59.8H233L53.8.2Z" data-name="Path"/></g></svg>