<svg xmlns="http://www.w3.org/2000/svg" width="512" height="300"><defs><clipPath id="a"><path d="M0 0h512v300H0z"/></clipPath></defs><g clip-path="url(#a)"><path fill="#f23b27" d="M0 0h512v300H0Z" data-name="Path 410"/><path fill="#fcd93a" d="M0 75h512v150H0Z" data-name="Path 411"/><path fill="#ad1519" stroke="#000" stroke-linejoin="round" stroke-width=".26" d="M118.017 133.344a1.193 1.193 0 0 1-.474-.1 7.229 7.229 0 0 1-.678-.576l-.408-.294-.372-.51a1.738 1.738 0 0 1-.24-1.254 1.556 1.556 0 0 1 .852-.9 8.18 8.18 0 0 1 .948-.354 5.567 5.567 0 0 1 .678-.252c.168-.036.78-.192.78-.192a2.987 2.987 0 0 1 .336-.162 3.5 3.5 0 0 1 .546-.1 4.069 4.069 0 0 1 .678-.156c.312-.012.816.06.984.06s.744.03.984.03 1.08-.066 1.32-.066a5.105 5.105 0 0 1 .678 0 4.247 4.247 0 0 1 .882.258c.138.066.948.354 1.254.45a12.863 12.863 0 0 1 1.392.384 1.963 1.963 0 0 1 .714.66 2.223 2.223 0 0 1 .27.63 1.145 1.145 0 0 1 0 .666 3.846 3.846 0 0 1-.306.486l-.372.612-.474.384s-.342.324-.612.288a39.68 39.68 0 0 0-4.782-.516 33.071 33.071 0 0 0-4.584.516h.006Z" data-name="Path 107"/><g data-name="Group 48" transform="translate(117.627 126.168)"><ellipse cx=".828" cy="1.5" fill="#c8b100" stroke="#000" stroke-width=".26" data-name="Ellipse 1" rx=".828" ry="1.5" transform="translate(4.164 1.74)"/><ellipse cx=".384" cy="1.38" fill="#c8b100" stroke="#000" stroke-width=".26" data-name="Ellipse 2" rx=".384" ry="1.38" transform="translate(4.62 1.86)"/><ellipse cx=".558" cy=".522" fill="#c8b100" data-name="Ellipse 3" rx=".558" ry=".522" transform="translate(4.446 1.134)"/><path fill="#c8b100" stroke="#000" stroke-width=".3" d="M5.772 1.476v.348H4.254v-.348h.564V.684h-.372V.342h.372V0h.36v.342h.372v.342h-.372v.792h.594" data-name="Path 108"/><path fill="none" stroke="#000" stroke-width=".26" d="M5.16 1.152a.523.523 0 0 1 .4.574.564.564 0 0 1-1.106 0 .523.523 0 0 1 .4-.574" data-name="Path 109"/><path fill="#c8b100" stroke="#000" stroke-width=".26" d="M5.004 7.084H2.118l-.066-.708-.138-.738-.138-.918C.976 3.67.246 2.98 0 3.13a.685.685 0 0 1 .282-.426c.708-.42 2.166.588 3.264 2.244.1.15.192.3.276.45h2.382c.084-.15.18-.3.276-.45 1.092-1.656 2.556-2.664 3.258-2.244a.662.662 0 0 1 .282.426c-.246-.144-.972.54-1.776 1.59l-.138.918-.138.738-.06.708h-2.9Z" data-name="Path 110"/><path fill="none" stroke="#000" stroke-width=".26" d="M.126 3.095c.546-.318 1.812.684 2.838 2.244m6.93-2.244c-.546-.318-1.806.684-2.838 2.244" data-name="Path 111"/></g><g fill="#c8b100" stroke="#000" stroke-width=".26" transform="translate(115.683 130.29)"><path d="M2.688 4.26a2.8 2.8 0 0 0-.348-.648 19.106 19.106 0 0 1 9.216 0s-.132.228-.312.546a4.122 4.122 0 0 0-.228.486 14.362 14.362 0 0 0-4.08-.492 14.076 14.076 0 0 0-4.116.516 3.219 3.219 0 0 0-.138-.408h.006" data-name="Path 112"/><path d="M6.942 5.748a18.922 18.922 0 0 0 3.66-.378c.4-.12.63-.294.588-.5a.361.361 0 0 0-.222-.228 17.149 17.149 0 0 0-8.058 0 .361.361 0 0 0-.222.228c-.042.21.192.384.588.5a19 19 0 0 0 3.666.378Z" data-name="Path 113"/><path d="m11.628 2.958-.354-.318a1.289 1.289 0 0 1-.768.144c-.42-.066-.558-.582-.558-.582a1.538 1.538 0 0 1-.864.372 1.012 1.012 0 0 1-.642-.372 1.473 1.473 0 0 1-.8.276 1.358 1.358 0 0 1-.726-.5s-.378.48-.75.516a.943.943 0 0 1-.678-.324.872.872 0 0 1-.642.432 1.13 1.13 0 0 1-.882-.372 1.494 1.494 0 0 1-.594.552 1.054 1.054 0 0 1-.744-.162s-.072.162-.12.258a.265.265 0 0 1-.186.114l.108.282a19.063 19.063 0 0 1 9.084.006l.12-.324h-.006Z" data-name="Path 114"/><path d="m6.954 1.404.168.03a.569.569 0 0 0-.036.228.651.651 0 0 0 .672.63.675.675 0 0 0 .636-.438c.006.006.066-.228.09-.228s.018.246.03.246a.67.67 0 0 0 1.326-.1.293.293 0 0 0-.006-.072l.21-.21.114.264a.6.6 0 0 0-.06.276.619.619 0 0 0 .636.606.642.642 0 0 0 .528-.27l.138-.174v.216c0 .2.084.4.294.426a.878.878 0 0 0 .546-.228 3.4 3.4 0 0 0 .48-.45l.018.252a2.346 2.346 0 0 1-.582.66.909.909 0 0 1-.57.15.55.55 0 0 1-.4-.366 1.6 1.6 0 0 0-2.028-.084.984.984 0 0 1-.756-.348.941.941 0 0 1-.654.258.974.974 0 0 1-.8-.414.985.985 0 0 1-.8.414.941.941 0 0 1-.654-.258.981.981 0 0 1-.75.348.94.94 0 0 1-.7-.3.922.922 0 0 1-.852.516.908.908 0 0 1-.474-.132.548.548 0 0 1-.408.366.9.9 0 0 1-.564-.15 2.529 2.529 0 0 1-.612-.66l.042-.252a3.721 3.721 0 0 0 .486.45.868.868 0 0 0 .546.228.384.384 0 0 0 .294-.426v-.216l.132.174a.642.642 0 0 0 .528.27.619.619 0 0 0 .636-.606.534.534 0 0 0-.06-.276l.114-.264.21.21a.293.293 0 0 0-.006.072.674.674 0 0 0 1.332.1 1.706 1.706 0 0 1 .024-.246c.03 0 .084.234.1.228a.664.664 0 0 0 .636.438.65.65 0 0 0 .666-.63.569.569 0 0 0-.03-.228l.174-.03h.006Z" data-name="Path 115"/><path stroke-linejoin="round" d="M6.942 3.048a17.36 17.36 0 0 0-4.6.564.177.177 0 0 1-.2-.1.162.162 0 0 1 .108-.192 19.039 19.039 0 0 1 9.39 0 .162.162 0 0 1 .108.192.177.177 0 0 1-.2.1 17.409 17.409 0 0 0-4.606-.564Z" data-name="Path 116"/><path d="M.8 2.31c-.006.006-.228-.288-.39-.438a1.44 1.44 0 0 0-.408-.2c0-.048.168-.168.348-.168a.337.337 0 0 1 .27.12l.024-.12a.317.317 0 0 1 .21.192.959.959 0 0 1 .03.432.516.516 0 0 1-.084.18Z" data-name="Path 117"/><path d="m1.932 1.842-.066.4-.84.09L.9 2.26l.024-.138.636-.522.372.246" data-name="Path 118"/><path d="M.81 2.16a.244.244 0 0 1 .318.036c.108.09.144.228.072.3a.231.231 0 0 1-.318-.036c-.108-.09-.144-.228-.072-.3Z" data-name="Path 119"/><path d="M2.352 2.238a.2.2 0 0 1 .078-.252.221.221 0 0 1 .222.162c.036.114 0 .228-.084.252s-.174-.048-.216-.162Z" data-name="Path 120"/><path d="m2.742 1.734.306.288.732-.4.054-.126-.1-.1-.84-.072-.15.408" data-name="Path 121"/><path d="m3.588.366-.4.384.516.684.138.054.1-.108.18-.822-.534-.192" data-name="Path 122"/><path d="m4.956 1.29-.156.378-.84-.078-.108-.1.06-.132.732-.384.312.312" data-name="Path 123"/><ellipse cx=".294" cy=".282" data-name="Ellipse 4" rx=".294" ry=".282" transform="translate(3.552 1.218)"/><path d="M5.262 1.68a.191.191 0 0 1 .126-.234c.084-.012.168.078.18.2s-.042.222-.126.228-.168-.08-.18-.194Z" data-name="Path 124"/><path d="m5.808 1.254.24.342.8-.252.084-.108-.09-.12-.8-.234-.24.372" data-name="Path 125"/><path d="M6.936 0 6.42.312l.384.828.132.084.132-.084.384-.828L6.936 0" data-name="Path 126"/><path d="m8.068 1.254-.234.342-.8-.252-.084-.108.084-.12.8-.234.234.372" data-name="Path 127"/><ellipse cx=".294" cy=".282" data-name="Ellipse 5" rx=".294" ry=".282" transform="translate(6.648 .954)"/><path d="M8.64 1.68a.2.2 0 0 0-.132-.234c-.084-.012-.168.078-.18.2s.042.222.126.228.168-.08.186-.194Z" data-name="Path 128"/><path d="m8.934 1.29.156.378.84-.078.108-.1-.06-.132-.732-.384-.312.312" data-name="Path 129"/><path d="m10.302.366.4.384-.516.684-.138.054-.1-.108-.18-.822.534-.192" data-name="Path 130"/><path d="m11.148 1.734-.306.288-.732-.4-.06-.126.114-.1.84-.072.144.408" data-name="Path 131"/><ellipse cx=".294" cy=".282" data-name="Ellipse 6" rx=".294" ry=".282" transform="translate(9.756 1.218)"/><path d="M11.544 2.238a.2.2 0 0 0-.078-.252.221.221 0 0 0-.222.162c-.036.114 0 .228.084.252s.174-.048.216-.162Z" data-name="Path 132"/><path d="M12.978 2.31c.006.006.228-.288.4-.438a1.358 1.358 0 0 1 .4-.2c0-.048-.168-.168-.348-.168a.337.337 0 0 0-.27.12l-.024-.12a.333.333 0 0 0-.216.192.975.975 0 0 0-.018.432.462.462 0 0 0 .078.18Z" data-name="Path 133"/><path d="m11.844 1.842.066.4.84.09.126-.072-.03-.138-.63-.522-.372.246" data-name="Path 134"/><path d="M12.984 2.16c-.066-.072-.21-.054-.318.036s-.144.228-.072.3a.239.239 0 0 0 .324-.036c.111-.09.138-.228.066-.3Z" data-name="Path 135"/></g><g stroke="#000" transform="translate(118.053 133.716)"><path fill="#ad1519" stroke-width=".26" d="m0 .864.186-.3.39.078-.228.336L0 .864" data-name="Path 136"/><path fill="#058e6e" stroke-width=".26" d="m1.68.57-.414.066A.2.2 0 0 1 1.038.48.192.192 0 0 1 1.2.27l.42-.06.426-.066a.2.2 0 0 1 .222.15.189.189 0 0 1-.162.21L1.68.57" data-name="Path 137"/><ellipse cx=".264" cy=".246" fill="#fff" stroke-width=".26" data-name="Ellipse 7" rx=".264" ry=".246" transform="translate(2.82 .018)"/><path fill="#ad1519" stroke-width=".26" d="M4.59.372h-.576a.194.194 0 0 1-.2-.186A.188.188 0 0 1 4.006 0h1.176a.19.19 0 0 1 .2.186.194.194 0 0 1-.2.186h-.594" data-name="Path 138"/><ellipse cx=".264" cy=".246" fill="#fff" stroke-width=".26" data-name="Ellipse 8" rx=".264" ry=".246" transform="translate(5.802 .018)"/><path fill="#058e6e" stroke-width=".26" d="m7.47.57.414.066A.2.2 0 0 0 8.112.48.188.188 0 0 0 7.95.27L7.53.21 7.104.144a.194.194 0 0 0-.222.15.181.181 0 0 0 .162.21L7.47.57" data-name="Path 139"/><path fill="#ad1519" stroke-width=".26" d="m9.114.882-.15-.318-.4.036.192.354.36-.072" data-name="Path 140"/><path fill="#ad1519" stroke-linejoin="round" stroke-width=".26" d="M4.566 1.98a15.809 15.809 0 0 1-3.78-.39 17.3 17.3 0 0 1 7.578 0 15.97 15.97 0 0 1-3.798.39Z" data-name="Path 141"/><path fill="none" stroke-width=".01" d="M5.25 1.932v-.7m-.348.72.006-.738m-.258.75v-.756" data-name="Path 142"/><path fill="none" stroke-width=".02" d="M4.434 1.974v-.762" data-name="Path 143"/><path fill="none" stroke-width=".03" d="M4.224 1.974v-.762" data-name="Path 144"/><path fill="none" stroke-width=".04" d="M4.032 1.974v-.762" data-name="Path 145"/><path fill="none" stroke-width=".04" d="M3.834 1.974v-.762" data-name="Path 146"/><path fill="none" stroke-width=".05" d="M3.666 1.974v-.762" data-name="Path 147"/><path fill="none" stroke-width=".06" d="m3.336 1.928-.006-.69m.162.7v-.726" data-name="Path 148"/><path fill="none" stroke-width=".07" d="M3.03 1.902v-.636m.156.654-.006-.678" data-name="Path 149"/><path fill="none" stroke-width=".08" d="M2.622 1.866v-.558m.138.564v-.588m.138.612v-.612" data-name="Path 150"/><path fill="none" stroke-width=".09" d="M2.484 1.86v-.54" data-name="Path 151"/><path fill="none" stroke-width=".1" d="M2.352 1.836v-.51" data-name="Path 152"/><path fill="none" stroke-width=".11" d="M2.208 1.818V1.35" data-name="Path 153"/><path fill="none" stroke-width=".12" d="m1.914 1.776-.006-.372m.156.4v-.42" data-name="Path 154"/><path fill="none" stroke-width=".12" d="M1.764 1.746v-.33" data-name="Path 155"/><path fill="none" stroke-width=".13" d="M1.626 1.722v-.276" data-name="Path 156"/><path fill="none" stroke-width=".14" d="M1.476 1.686V1.47" data-name="Path 157"/><path fill="none" stroke-width=".15" d="M1.326 1.668v-.162" data-name="Path 158"/><path fill="none" stroke-width=".18" d="M1.164 1.632v-.078" data-name="Path 159"/></g><g stroke="#000" stroke-width=".39"><g data-name="Group 49"><path fill="#005bbf" d="M131.991 198.404a5.111 5.111 0 0 1-2.358-.522 5.207 5.207 0 0 0-2.316-.492 5.343 5.343 0 0 0-2.346.5 5.182 5.182 0 0 1-2.352.516 5.089 5.089 0 0 1-2.358-.54 5.267 5.267 0 0 0-2.274-.474 5.094 5.094 0 0 0-2.316.486 5.18 5.18 0 0 1-2.37.528v1.446a5.259 5.259 0 0 0 2.37-.528 5.091 5.091 0 0 1 2.316-.492 5.285 5.285 0 0 1 2.274.48 5.516 5.516 0 0 0 4.71.024 5.258 5.258 0 0 1 2.346-.5 5.205 5.205 0 0 1 2.316.5 5.06 5.06 0 0 0 2.346.522Z" data-name="Path 160"/><path fill="#ccc" d="M131.991 199.854a5.112 5.112 0 0 1-2.358-.522 5.205 5.205 0 0 0-2.316-.5 5.258 5.258 0 0 0-2.346.5 5.516 5.516 0 0 1-4.71-.024 5.266 5.266 0 0 0-2.274-.48 5.091 5.091 0 0 0-2.316.492 5.259 5.259 0 0 1-2.37.528v1.446a5.259 5.259 0 0 0 2.37-.528 5.092 5.092 0 0 1 2.316-.492 5.285 5.285 0 0 1 2.274.48 5.089 5.089 0 0 0 2.358.54 5.262 5.262 0 0 0 2.352-.516 5.258 5.258 0 0 1 2.346-.5 5.123 5.123 0 0 1 2.316.5 5.137 5.137 0 0 0 2.346.516l.012-1.446" data-name="Path 161"/><path fill="#005bbf" d="M131.991 201.3a5.191 5.191 0 0 1-2.358-.516 5.123 5.123 0 0 0-2.316-.5 5.258 5.258 0 0 0-2.346.5 5.262 5.262 0 0 1-2.352.516 5.088 5.088 0 0 1-2.358-.54 5.266 5.266 0 0 0-2.274-.48 5.091 5.091 0 0 0-2.316.492 5.259 5.259 0 0 1-2.37.528v1.44a5.181 5.181 0 0 0 2.37-.528 5.176 5.176 0 0 1 2.316-.48 5.287 5.287 0 0 1 2.274.474 5.09 5.09 0 0 0 2.358.534 5.184 5.184 0 0 0 2.352-.51 5.26 5.26 0 0 1 2.346-.5 5.208 5.208 0 0 1 2.316.492 4.988 4.988 0 0 0 2.346.516l.012-1.44" data-name="Path 162"/><path fill="#ccc" d="M131.979 204.192a5.06 5.06 0 0 1-2.346-.522 5.207 5.207 0 0 0-2.316-.492 5.26 5.26 0 0 0-2.346.5 5.262 5.262 0 0 1-2.352.516 5.164 5.164 0 0 1-2.358-.54 5.181 5.181 0 0 0-2.274-.474 5.094 5.094 0 0 0-2.316.486 5.259 5.259 0 0 1-2.37.528v-1.44a5.178 5.178 0 0 0 2.37-.54 5.176 5.176 0 0 1 2.316-.48 5.287 5.287 0 0 1 2.274.474 5.09 5.09 0 0 0 2.358.534 5.184 5.184 0 0 0 2.352-.51 5.736 5.736 0 0 1 4.662-.006 5.039 5.039 0 0 0 2.358.516l-.012 1.452" data-name="Path 163"/><path fill="#005bbf" d="M131.979 205.638a5.138 5.138 0 0 1-2.346-.516 5.123 5.123 0 0 0-2.316-.5 5.258 5.258 0 0 0-2.346.5 5.262 5.262 0 0 1-2.352.516 5.164 5.164 0 0 1-2.358-.54 5.18 5.18 0 0 0-2.274-.48 5.091 5.091 0 0 0-2.316.492 5.259 5.259 0 0 1-2.37.528v-1.434a5.256 5.256 0 0 0 2.37-.54 5.093 5.093 0 0 1 2.316-.486 5.286 5.286 0 0 1 2.274.474 5.164 5.164 0 0 0 2.358.54 5.262 5.262 0 0 0 2.352-.516 5.26 5.26 0 0 1 2.346-.5 5.207 5.207 0 0 1 2.316.492 5.094 5.094 0 0 0 2.358.522l-.012 1.446Z" data-name="Path 164"/></g><g fill="#c8b100" data-name="Group 50"><path stroke-linejoin="round" d="M117.375 192.468a1.58 1.58 0 0 1 .078.372 1.636 1.636 0 0 1-1.686 1.578h13.76a1.632 1.632 0 0 1-1.686-1.578 1.593 1.593 0 0 1 .054-.372.76.76 0 0 1-.264.036h-10.01a.841.841 0 0 1-.246-.036Z" data-name="Path 165"/><path d="M117.621 191.562h10.014a.487.487 0 1 1 0 .942h-10.014a.487.487 0 1 1 0-.942Z" data-name="Path 166"/><path d="M115.785 197.916h13.722v-3.5h-13.722Z" data-name="Path 167"/></g><path fill="#ccc" d="M117.753 190.992h9.75v-47.778h-9.75Z" data-name="Path 168"/><path fill="none" d="M124.701 143.28v47.676m1.1-47.676v47.676" data-name="Path 169"/><g fill="#c8b100" data-name="Group 51"><path d="M115.971 139.422h13.374v-3.5h-13.374v3.5Z" data-name="Path 170"/><path stroke-linejoin="round" d="M117.379 141.752a.545.545 0 0 1 .246-.042h10.014a.807.807 0 0 1 .276.048.841.841 0 0 1-.594-.792.871.871 0 0 1 .618-.8 1.16 1.16 0 0 1-.294.048h-10.02a.846.846 0 0 1-.282-.036l.054.012a.788.788 0 0 1 .564.774.837.837 0 0 1-.582.786Z" data-name="Path 171"/><path d="M117.621 141.714h10.014a.487.487 0 1 1 0 .942h-10.014a.487.487 0 1 1 0-.942Z" data-name="Path 172"/><path d="M117.621 139.422h10.02c.342 0 .618.18.618.4s-.276.4-.618.4h-10.02c-.336 0-.612-.18-.612-.4s.276-.4.612-.4Z" data-name="Path 173"/></g></g><g fill="#ad1519" stroke="#000" stroke-width=".39"><path d="M114.71 179.172c-1.356.78-2.28 1.584-2.13 1.986.072.366.5.642 1.122 1.05.972.678 1.56 1.884 1.1 2.442a3.441 3.441 0 0 0-.09-5.478Z" data-name="Path 174"/><path stroke-linejoin="round" d="M137.465 161.082a28.8 28.8 0 0 0-14.57-1.249c-5.832.978-10.278 3.306-9.924 5.2l.03.156s-2.184-4.926-2.22-5.112c-.39-2.106 4.536-4.692 11.01-5.772a33.029 33.029 0 0 1 5.736-.456 31.063 31.063 0 0 1 9.912 1.338l.024 5.892" data-name="Path 175"/><path d="M117.735 167.082c-2.706-.192-4.548-.918-4.764-2.046-.168-.9.75-1.9 2.382-2.808a20.705 20.705 0 0 0 2.4.18l-.018 4.674" data-name="Path 176"/><path d="M127.521 163.428a8.055 8.055 0 0 1 3.588 1.194l.06.1c.3.618-1.182 1.932-3.666 3.4l.018-4.7" data-name="Path 177"/><path stroke-linejoin="round" d="M111.674 176.298c-.258-.768 2.382-2.316 6.108-3.684 1.7-.606 3.108-1.242 4.854-2.01 5.178-2.292 9-4.92 8.532-5.874l-.054-.1c.276.228.708 4.944.708 4.944.468.876-3.03 3.468-7.8 5.748-1.524.732-4.746 1.92-6.264 2.454-2.724.942-5.424 2.724-5.178 3.384l-.906-4.854v-.006Z" data-name="Path 178"/></g><path fill="#ad1519" stroke="#000" stroke-width=".27" d="M212.132 132.252a2.125 2.125 0 0 1-.768.534c-.318.06-.726-.294-.726-.294a1.456 1.456 0 0 1-.648.384c-.354.084-.846-.4-.846-.4a2.011 2.011 0 0 1-.642.594.9.9 0 0 1-.678-.144 1.086 1.086 0 0 1-.39.366.415.415 0 0 1-.288-.03l-.36-.228-.408-.432-.372-.144s-.168-.546-.186-.642-.048-.342-.048-.342c-.078-.39.522-.84 1.38-1.032a2.455 2.455 0 0 1 1.236-.012 3.226 3.226 0 0 1 1.92-.492 3.423 3.423 0 0 1 1.824.42 3.385 3.385 0 0 1 1.818-.42 3.2 3.2 0 0 1 1.914.492 2.479 2.479 0 0 1 1.242.012c.852.192 1.458.642 1.38 1.032 0 0-.036.246-.048.342s-.192.642-.192.642l-.372.144-.408.432-.348.228a.415.415 0 0 1-.288.03 1.022 1.022 0 0 1-.4-.366.9.9 0 0 1-.678.144 1.943 1.943 0 0 1-.642-.594s-.492.48-.852.4a1.459 1.459 0 0 1-.642-.384s-.408.354-.726.294a2.085 2.085 0 0 1-.762-.534Z" data-name="Path 179"/><g data-name="Group 52" transform="translate(211.287 126.708)"><ellipse cx=".828" cy="1.176" fill="#c8b100" stroke="#000" stroke-width=".26" data-name="Ellipse 9" rx=".828" ry="1.176" transform="translate(0 1.836)"/><ellipse cx=".378" cy="1.086" fill="#c8b100" stroke="#000" stroke-width=".26" data-name="Ellipse 10" rx=".378" ry="1.086" transform="translate(.468 1.926)"/><ellipse cx=".558" cy=".528" fill="#c8b100" data-name="Ellipse 11" rx=".558" ry=".528" transform="translate(.282 1.134)"/><path fill="#c8b100" stroke="#000" stroke-width=".3" d="M1.614 1.476v.344H.096v-.348H.66v-.78H.288V.344H.66v-.348h.366v.348h.366v.348h-.366v.78h.588" data-name="Path 180"/><path fill="none" stroke="#000" stroke-width=".26" d="M1.002 1.164a.527.527 0 0 1 .387.589.563.563 0 0 1-1.1-.022.53.53 0 0 1 .412-.573" data-name="Path 181"/></g><g stroke="#000" data-name="Group 53" transform="translate(205.095 128.256)"><path fill="none" stroke-linecap="round" stroke-width=".26" d="M.774 3.738a1.784 1.784 0 0 1-.132-.648 1.711 1.711 0 0 1 1.7-1.728 1.607 1.607 0 0 1 .822.222" data-name="Path 182"/><path fill="none" stroke-width=".26" d="M3.816 2.502a1.037 1.037 0 0 1-.174-.5A1.449 1.449 0 0 1 5.226.754a1.891 1.891 0 0 1 .99.27" data-name="Path 183"/><path fill="none" stroke-width=".26" d="M10.23 2.52a1.073 1.073 0 0 0 .15-.522A1.445 1.445 0 0 0 8.796.75a1.869 1.869 0 0 0-.984.27" data-name="Path 184"/><path fill="none" stroke-linecap="round" stroke-width=".26" d="M13.254 3.738a1.78 1.78 0 0 0 .126-.648 1.71 1.71 0 0 0-1.692-1.728 1.629 1.629 0 0 0-.828.222" data-name="Path 185"/><ellipse cx=".27" cy=".258" fill="none" stroke-width=".21" data-name="Ellipse 12" rx=".27" ry=".258" transform="translate(0 2.694)"/><ellipse cx=".27" cy=".258" fill="none" stroke-width=".21" data-name="Ellipse 13" rx=".27" ry=".258" transform="translate(.102 1.746)"/><ellipse cx=".27" cy=".258" fill="none" stroke-width=".21" data-name="Ellipse 14" rx=".27" ry=".258" transform="translate(.714 1.026)"/><ellipse cx=".27" cy=".258" fill="none" stroke-width=".21" data-name="Ellipse 15" rx=".27" ry=".258" transform="translate(1.524 .636)"/><ellipse cx=".27" cy=".258" fill="none" stroke-width=".21" data-name="Ellipse 16" rx=".27" ry=".258" transform="translate(2.388 .672)"/><ellipse cx=".27" cy=".258" fill="#fff" stroke-width=".21" data-name="Ellipse 17" rx=".27" ry=".258" transform="translate(2.916 1.734)"/><ellipse cx=".27" cy=".258" fill="none" stroke-width=".21" data-name="Ellipse 18" rx=".27" ry=".258" transform="translate(3.066 .834)"/><ellipse cx=".27" cy=".258" fill="none" stroke-width=".21" data-name="Ellipse 19" rx=".27" ry=".258" transform="translate(3.744 .27)"/><ellipse cx=".27" cy=".258" fill="none" stroke-width=".21" data-name="Ellipse 20" rx=".27" ry=".258" transform="translate(4.596)"/><ellipse cx=".27" cy=".258" fill="none" stroke-width=".21" data-name="Ellipse 21" rx=".27" ry=".258" transform="translate(5.46 .03)"/><ellipse cx=".27" cy=".258" fill="none" stroke-width=".21" data-name="Ellipse 22" rx=".27" ry=".258" transform="translate(8.022 .03)"/><ellipse cx=".27" cy=".258" fill="none" stroke-width=".21" data-name="Ellipse 23" rx=".27" ry=".258" transform="translate(8.892)"/><ellipse cx=".27" cy=".258" fill="none" stroke-width=".21" data-name="Ellipse 24" rx=".27" ry=".258" transform="translate(9.738 .27)"/><ellipse cx=".27" cy=".258" fill="none" stroke-width=".21" data-name="Ellipse 25" rx=".27" ry=".258" transform="translate(10.416 .834)"/><ellipse cx=".27" cy=".258" fill="#fff" stroke-width=".21" data-name="Ellipse 26" rx=".27" ry=".258" transform="translate(10.566 1.734)"/><ellipse cx=".27" cy=".258" fill="none" stroke-width=".21" data-name="Ellipse 27" rx=".27" ry=".258" transform="translate(11.094 .672)"/><ellipse cx=".27" cy=".258" fill="none" stroke-width=".21" data-name="Ellipse 28" rx=".27" ry=".258" transform="translate(11.964 .636)"/><ellipse cx=".27" cy=".258" fill="none" stroke-width=".21" data-name="Ellipse 29" rx=".27" ry=".258" transform="translate(12.774 1.026)"/><ellipse cx=".27" cy=".258" fill="none" stroke-width=".21" data-name="Ellipse 30" rx=".27" ry=".258" transform="translate(13.386 1.746)"/><ellipse cx=".27" cy=".258" fill="none" stroke-width=".21" data-name="Ellipse 31" rx=".27" ry=".258" transform="translate(13.488 2.694)"/></g><g fill="#c8b100" stroke="#000" stroke-width=".26" data-name="Group 54" transform="translate(205.185 130.29)"><path d="M2.688 4.26a2.8 2.8 0 0 0-.348-.648 19.106 19.106 0 0 1 9.216 0s-.132.228-.312.546a4.122 4.122 0 0 0-.228.486 14.362 14.362 0 0 0-4.08-.492 14.076 14.076 0 0 0-4.116.516 3.219 3.219 0 0 0-.138-.408h.006" data-name="Path 186"/><path d="M6.942 5.748a18.922 18.922 0 0 0 3.66-.378c.4-.12.63-.294.588-.5a.361.361 0 0 0-.222-.228 17.149 17.149 0 0 0-8.058 0 .361.361 0 0 0-.222.228c-.042.21.192.384.588.5a19 19 0 0 0 3.666.378Z" data-name="Path 187"/><path d="m11.628 2.958-.354-.318a1.289 1.289 0 0 1-.768.144c-.42-.066-.558-.582-.558-.582a1.538 1.538 0 0 1-.864.372 1.012 1.012 0 0 1-.642-.372 1.473 1.473 0 0 1-.8.276 1.358 1.358 0 0 1-.726-.5s-.378.48-.75.516a.943.943 0 0 1-.678-.324.872.872 0 0 1-.642.432 1.13 1.13 0 0 1-.882-.372 1.494 1.494 0 0 1-.594.552 1.054 1.054 0 0 1-.744-.162s-.072.162-.12.258a.265.265 0 0 1-.186.114l.108.282a19.063 19.063 0 0 1 9.084.006l.12-.324h-.006Z" data-name="Path 188"/><path d="m6.954 1.404.168.03a.569.569 0 0 0-.036.228.651.651 0 0 0 .672.63.675.675 0 0 0 .636-.438c.006.006.066-.228.09-.228s.018.246.03.246a.67.67 0 0 0 1.326-.1.293.293 0 0 0-.006-.072l.21-.21.114.264a.6.6 0 0 0-.06.276.619.619 0 0 0 .636.606.642.642 0 0 0 .528-.27l.138-.174v.216c0 .2.084.4.294.426a.878.878 0 0 0 .546-.228 3.4 3.4 0 0 0 .48-.45l.018.252a2.346 2.346 0 0 1-.582.66.909.909 0 0 1-.57.15.55.55 0 0 1-.4-.366 1.6 1.6 0 0 0-2.028-.084.984.984 0 0 1-.756-.348.941.941 0 0 1-.654.258.974.974 0 0 1-.8-.414.985.985 0 0 1-.8.414.941.941 0 0 1-.654-.258.981.981 0 0 1-.75.348.94.94 0 0 1-.7-.3.922.922 0 0 1-.852.516.908.908 0 0 1-.474-.132.548.548 0 0 1-.408.366.9.9 0 0 1-.564-.15 2.529 2.529 0 0 1-.612-.66l.042-.252a3.721 3.721 0 0 0 .486.45.868.868 0 0 0 .546.228.384.384 0 0 0 .294-.426v-.216l.132.174a.642.642 0 0 0 .528.27.619.619 0 0 0 .636-.606.534.534 0 0 0-.06-.276l.114-.264.21.21a.293.293 0 0 0-.006.072.674.674 0 0 0 1.332.1 1.706 1.706 0 0 1 .024-.246c.03 0 .084.234.1.228a.664.664 0 0 0 .636.438.65.65 0 0 0 .666-.63.569.569 0 0 0-.03-.228l.174-.03h.006Z" data-name="Path 189"/><path stroke-linejoin="round" d="M6.942 3.048a17.36 17.36 0 0 0-4.6.564.177.177 0 0 1-.2-.1.162.162 0 0 1 .108-.192 19.039 19.039 0 0 1 9.39 0 .162.162 0 0 1 .108.192.177.177 0 0 1-.2.1 17.409 17.409 0 0 0-4.606-.564Z" data-name="Path 190"/><path d="M.8 2.31c-.006.006-.228-.288-.39-.438a1.44 1.44 0 0 0-.408-.2c0-.048.168-.168.348-.168a.337.337 0 0 1 .27.12l.024-.12a.317.317 0 0 1 .21.192.959.959 0 0 1 .03.432.516.516 0 0 1-.084.18Z" data-name="Path 191"/><path d="m1.932 1.842-.066.4-.84.09L.9 2.26l.024-.138.636-.522.372.246" data-name="Path 192"/><path d="M.81 2.16a.244.244 0 0 1 .318.036c.108.09.144.228.072.3a.231.231 0 0 1-.318-.036c-.108-.09-.144-.228-.072-.3Z" data-name="Path 193"/><path d="M2.352 2.238a.2.2 0 0 1 .078-.252.221.221 0 0 1 .222.162c.036.114 0 .228-.084.252s-.174-.048-.216-.162Z" data-name="Path 194"/><path d="m2.742 1.734.306.288.732-.4.054-.126-.1-.1-.84-.072-.15.408" data-name="Path 195"/><path d="m3.588.366-.4.384.516.684.138.054.1-.108.18-.822-.534-.192" data-name="Path 196"/><path d="m4.956 1.29-.156.378-.84-.078-.108-.1.06-.132.732-.384.312.312" data-name="Path 197"/><ellipse cx=".294" cy=".282" data-name="Ellipse 32" rx=".294" ry=".282" transform="translate(3.552 1.218)"/><path d="M5.262 1.68a.191.191 0 0 1 .126-.234c.084-.012.168.078.18.2s-.042.222-.126.228-.168-.08-.18-.194Z" data-name="Path 198"/><path d="m5.808 1.254.24.342.8-.252.084-.108-.09-.12-.8-.234-.24.372" data-name="Path 199"/><path d="M6.936 0 6.42.312l.384.828.132.084.132-.084.384-.828L6.936 0" data-name="Path 200"/><path d="m8.068 1.254-.234.342-.8-.252-.084-.108.084-.12.8-.234.234.372" data-name="Path 201"/><ellipse cx=".294" cy=".282" data-name="Ellipse 33" rx=".294" ry=".282" transform="translate(6.648 .954)"/><path d="M8.64 1.68a.2.2 0 0 0-.132-.234c-.084-.012-.168.078-.18.2s.042.222.126.228.168-.08.186-.194Z" data-name="Path 202"/><path d="m8.934 1.29.156.378.84-.078.108-.1-.06-.132-.732-.384-.312.312" data-name="Path 203"/><path d="m10.302.366.4.384-.516.684-.138.054-.1-.108-.18-.822.534-.192" data-name="Path 204"/><path d="m11.148 1.734-.306.288-.732-.4-.06-.126.114-.1.84-.072.144.408" data-name="Path 205"/><ellipse cx=".294" cy=".282" data-name="Ellipse 34" rx=".294" ry=".282" transform="translate(9.756 1.218)"/><path d="M11.544 2.238a.2.2 0 0 0-.078-.252.221.221 0 0 0-.222.162c-.036.114 0 .228.084.252s.174-.048.216-.162Z" data-name="Path 206"/><path d="M12.978 2.31c.006.006.228-.288.4-.438a1.358 1.358 0 0 1 .4-.2c0-.048-.168-.168-.348-.168a.337.337 0 0 0-.27.12l-.024-.12a.333.333 0 0 0-.216.192.975.975 0 0 0-.018.432.462.462 0 0 0 .078.18Z" data-name="Path 207"/><path d="m11.844 1.842.066.4.84.09.126-.072-.03-.138-.63-.522-.372.246" data-name="Path 208"/><path d="M12.984 2.16c-.066-.072-.21-.054-.318.036s-.144.228-.072.3a.239.239 0 0 0 .324-.036c.111-.09.138-.228.066-.3Z" data-name="Path 209"/></g><g stroke="#000" data-name="Group 55" transform="translate(207.555 133.716)"><path fill="#ad1519" stroke-width=".26" d="m0 .864.186-.3.39.078-.228.336L0 .864" data-name="Path 210"/><path fill="#058e6e" stroke-width=".26" d="m1.68.57-.414.066A.2.2 0 0 1 1.038.48.192.192 0 0 1 1.2.27l.42-.06.426-.066a.2.2 0 0 1 .222.15.189.189 0 0 1-.162.21L1.68.57" data-name="Path 211"/><ellipse cx=".264" cy=".246" fill="#fff" stroke-width=".26" data-name="Ellipse 35" rx=".264" ry=".246" transform="translate(2.82 .018)"/><path fill="#ad1519" stroke-width=".26" d="M4.59.372h-.576a.194.194 0 0 1-.2-.186A.188.188 0 0 1 4.006 0h1.176a.19.19 0 0 1 .2.186.194.194 0 0 1-.2.186h-.594" data-name="Path 212"/><ellipse cx=".264" cy=".246" fill="#fff" stroke-width=".26" data-name="Ellipse 36" rx=".264" ry=".246" transform="translate(5.802 .018)"/><path fill="#058e6e" stroke-width=".26" d="m7.47.57.414.066A.2.2 0 0 0 8.112.48.188.188 0 0 0 7.95.27L7.53.21 7.104.144a.194.194 0 0 0-.222.15.181.181 0 0 0 .162.21L7.47.57" data-name="Path 213"/><path fill="#ad1519" stroke-width=".26" d="m9.114.882-.15-.318-.4.036.192.354.36-.072" data-name="Path 214"/><path fill="#ad1519" stroke-linejoin="round" stroke-width=".26" d="M4.566 1.98a15.809 15.809 0 0 1-3.78-.39 17.3 17.3 0 0 1 7.578 0 15.97 15.97 0 0 1-3.798.39Z" data-name="Path 215"/><path fill="none" stroke-width=".01" d="M5.25 1.932v-.7m-.348.72.006-.738m-.258.75v-.756" data-name="Path 216"/><path fill="none" stroke-width=".02" d="M4.434 1.974v-.762" data-name="Path 217"/><path fill="none" stroke-width=".03" d="M4.224 1.974v-.762" data-name="Path 218"/><path fill="none" stroke-width=".04" d="M4.032 1.974v-.762" data-name="Path 219"/><path fill="none" stroke-width=".04" d="M3.834 1.974v-.762" data-name="Path 220"/><path fill="none" stroke-width=".05" d="M3.666 1.974v-.762" data-name="Path 221"/><path fill="none" stroke-width=".06" d="m3.336 1.928-.006-.69m.162.7v-.726" data-name="Path 222"/><path fill="none" stroke-width=".07" d="M3.03 1.902v-.636m.156.654-.006-.678" data-name="Path 223"/><path fill="none" stroke-width=".08" d="M2.622 1.866v-.558m.138.564v-.588m.138.612v-.612" data-name="Path 224"/><path fill="none" stroke-width=".09" d="M2.484 1.86v-.54" data-name="Path 225"/><path fill="none" stroke-width=".1" d="M2.352 1.836v-.51" data-name="Path 226"/><path fill="none" stroke-width=".11" d="M2.208 1.818V1.35" data-name="Path 227"/><path fill="none" stroke-width=".12" d="m1.914 1.776-.006-.372m.156.4v-.42" data-name="Path 228"/><path fill="none" stroke-width=".12" d="M1.764 1.746v-.33" data-name="Path 229"/><path fill="none" stroke-width=".13" d="M1.626 1.722v-.276" data-name="Path 230"/><path fill="none" stroke-width=".14" d="M1.476 1.686V1.47" data-name="Path 231"/><path fill="none" stroke-width=".15" d="M1.326 1.668v-.162" data-name="Path 232"/><path fill="none" stroke-width=".18" d="M1.164 1.632v-.078" data-name="Path 233"/></g><g stroke="#000" stroke-width=".39"><g data-name="Group 56"><path fill="#005bbf" d="M221.493 198.404a5.111 5.111 0 0 1-2.358-.522 5.207 5.207 0 0 0-2.316-.492 5.343 5.343 0 0 0-2.346.5 5.182 5.182 0 0 1-2.352.516 5.089 5.089 0 0 1-2.358-.54 5.267 5.267 0 0 0-2.274-.474 5.094 5.094 0 0 0-2.316.486 5.18 5.18 0 0 1-2.37.528v1.446a5.259 5.259 0 0 0 2.37-.528 5.091 5.091 0 0 1 2.316-.492 5.285 5.285 0 0 1 2.274.48 5.516 5.516 0 0 0 4.71.024 5.258 5.258 0 0 1 2.346-.5 5.205 5.205 0 0 1 2.316.5 5.06 5.06 0 0 0 2.346.522Z" data-name="Path 234"/><path fill="#ccc" d="M221.493 199.854a5.112 5.112 0 0 1-2.358-.522 5.205 5.205 0 0 0-2.316-.5 5.258 5.258 0 0 0-2.346.5 5.516 5.516 0 0 1-4.71-.024 5.266 5.266 0 0 0-2.274-.48 5.091 5.091 0 0 0-2.316.492 5.259 5.259 0 0 1-2.37.528v1.446a5.259 5.259 0 0 0 2.37-.528 5.092 5.092 0 0 1 2.316-.492 5.285 5.285 0 0 1 2.274.48 5.089 5.089 0 0 0 2.358.54 5.262 5.262 0 0 0 2.352-.516 5.258 5.258 0 0 1 2.346-.5 5.123 5.123 0 0 1 2.316.5 5.137 5.137 0 0 0 2.346.516l.012-1.446" data-name="Path 235"/><path fill="#005bbf" d="M221.493 201.3a5.191 5.191 0 0 1-2.358-.516 5.123 5.123 0 0 0-2.316-.5 5.258 5.258 0 0 0-2.346.5 5.262 5.262 0 0 1-2.352.516 5.088 5.088 0 0 1-2.358-.54 5.266 5.266 0 0 0-2.274-.48 5.091 5.091 0 0 0-2.316.492 5.259 5.259 0 0 1-2.37.528v1.44a5.181 5.181 0 0 0 2.37-.528 5.176 5.176 0 0 1 2.316-.48 5.287 5.287 0 0 1 2.274.474 5.09 5.09 0 0 0 2.358.534 5.184 5.184 0 0 0 2.352-.51 5.26 5.26 0 0 1 2.346-.5 5.208 5.208 0 0 1 2.316.492 4.988 4.988 0 0 0 2.346.516l.012-1.44" data-name="Path 236"/><path fill="#ccc" d="M221.481 204.192a5.06 5.06 0 0 1-2.346-.522 5.207 5.207 0 0 0-2.316-.492 5.26 5.26 0 0 0-2.346.5 5.262 5.262 0 0 1-2.352.516 5.164 5.164 0 0 1-2.358-.54 5.181 5.181 0 0 0-2.274-.474 5.094 5.094 0 0 0-2.316.486 5.259 5.259 0 0 1-2.37.528v-1.44a5.178 5.178 0 0 0 2.37-.54 5.176 5.176 0 0 1 2.316-.48 5.287 5.287 0 0 1 2.274.474 5.09 5.09 0 0 0 2.358.534 5.184 5.184 0 0 0 2.352-.51 5.736 5.736 0 0 1 4.662-.006 5.039 5.039 0 0 0 2.358.516l-.012 1.452" data-name="Path 237"/><path fill="#005bbf" d="M221.481 205.638a5.138 5.138 0 0 1-2.346-.516 5.123 5.123 0 0 0-2.316-.5 5.258 5.258 0 0 0-2.346.5 5.262 5.262 0 0 1-2.352.516 5.164 5.164 0 0 1-2.358-.54 5.18 5.18 0 0 0-2.274-.48 5.091 5.091 0 0 0-2.316.492 5.259 5.259 0 0 1-2.37.528v-1.434a5.256 5.256 0 0 0 2.37-.54 5.093 5.093 0 0 1 2.316-.486 5.286 5.286 0 0 1 2.274.474 5.164 5.164 0 0 0 2.358.54 5.262 5.262 0 0 0 2.352-.516 5.26 5.26 0 0 1 2.346-.5 5.207 5.207 0 0 1 2.316.492 5.094 5.094 0 0 0 2.358.522l-.012 1.446Z" data-name="Path 238"/></g><g fill="#c8b100" data-name="Group 57"><path stroke-linejoin="round" d="M206.877 192.468a1.58 1.58 0 0 1 .078.372 1.636 1.636 0 0 1-1.686 1.578h13.76a1.632 1.632 0 0 1-1.686-1.578 1.593 1.593 0 0 1 .054-.372.76.76 0 0 1-.264.036h-10.01a.841.841 0 0 1-.246-.036Z" data-name="Path 239"/><path d="M207.123 191.562h10.014a.487.487 0 1 1 0 .942h-10.014a.487.487 0 1 1 0-.942Z" data-name="Path 240"/><path d="M205.287 197.916h13.722v-3.5h-13.722Z" data-name="Path 241"/></g><path fill="#ccc" d="M207.255 190.992h9.75v-47.778h-9.75Z" data-name="Path 242"/><path fill="none" d="M214.203 143.28v47.676m1.1-47.676v47.676" data-name="Path 243"/><g fill="#c8b100" data-name="Group 58"><path d="M205.473 139.422h13.374v-3.5h-13.374v3.5Z" data-name="Path 244"/><path stroke-linejoin="round" d="M206.881 141.752a.545.545 0 0 1 .246-.042h10.014a.807.807 0 0 1 .276.048.841.841 0 0 1-.594-.792.871.871 0 0 1 .618-.8 1.16 1.16 0 0 1-.294.048h-10.02a.846.846 0 0 1-.282-.036l.054.012a.788.788 0 0 1 .564.774.837.837 0 0 1-.582.786Z" data-name="Path 245"/><path d="M207.123 141.714h10.014a.487.487 0 1 1 0 .942h-10.014a.487.487 0 1 1 0-.942Z" data-name="Path 246"/><path d="M207.123 139.422h10.02c.342 0 .618.18.618.4s-.276.4-.618.4h-10.02c-.336 0-.612-.18-.612-.4s.276-.4.612-.4Z" data-name="Path 247"/></g></g><g fill="#ad1519" stroke="#000" stroke-width=".39"><path d="M220.076 179.172c1.356.778 2.28 1.584 2.13 1.986-.072.366-.5.642-1.122 1.05-.972.678-1.562 1.884-1.098 2.442a3.454 3.454 0 0 1-1.314-2.694 3.475 3.475 0 0 1 1.404-2.784Z" data-name="Path 248"/><path stroke-linejoin="round" d="M197.328 161.082a31.1 31.1 0 0 1 9.89-1.668 30.888 30.888 0 0 1 4.674.42c5.836.978 10.278 3.306 9.924 5.202l-.03.156s2.184-4.926 2.22-5.112c.39-2.106-4.536-4.692-11.01-5.772a33.027 33.027 0 0 0-5.736-.456 31.063 31.063 0 0 0-9.912 1.34l-.02 5.89" data-name="Path 249"/><path d="M217.052 167.082c2.706-.192 4.548-.918 4.764-2.046.168-.9-.75-1.9-2.382-2.808a20.7 20.7 0 0 1-2.4.18l.018 4.674" data-name="Path 250"/><path d="M207.266 163.426a8.055 8.055 0 0 0-3.588 1.2l-.06.1c-.3.616 1.182 1.93 3.666 3.4l-.018-4.7" data-name="Path 251"/><path stroke-linejoin="round" d="M223.113 176.298c.258-.768-2.383-2.316-6.108-3.684-1.7-.606-3.108-1.242-4.854-2.01-5.178-2.292-9-4.92-8.532-5.874l.054-.1c-.276.228-.708 4.944-.708 4.944-.468.876 3.03 3.468 7.8 5.748 1.524.73 4.746 1.918 6.265 2.452 2.723.942 5.423 2.724 5.177 3.384l.906-4.854v-.006Z" data-name="Path 252"/></g><g fill="#c8b100"><path d="M117.075 158.79c1.194-.432 1.974-.948 1.6-1.884-.246-.6-.858-.714-1.782-.378l-1.626.594 1.464 3.618c.162-.072.324-.144.486-.2s.342-.108.51-.156l-.648-1.584v-.006Zm-.708-1.746.414-.15a.721.721 0 0 1 .9.48.71.71 0 0 1-.3.93 3 3 0 0 1-.42.2l-.594-1.458" data-name="Path 253"/><path d="M120.891 155.532c-.174.048-.342.1-.516.132s-.354.054-.528.072l.846 3.768 2.628-.528a1.169 1.169 0 0 1-.084-.228 1.8 1.8 0 0 1-.024-.246c-.462.132-.966.276-1.566.4l-.756-3.366" data-name="Path 254"/><path d="M126.155 158.778c.492-1.368 1.092-2.676 1.686-4a2.986 2.986 0 0 1-.324.042 2.927 2.927 0 0 1-.324 0 33.963 33.963 0 0 1-1.122 2.88c-.492-.906-1.038-1.794-1.458-2.706-.2.024-.414.054-.618.072s-.42.006-.624.012a89.306 89.306 0 0 1 2.184 3.738c.1-.018.192-.036.3-.048a2.547 2.547 0 0 1 .3.012" data-name="Path 255"/><path d="M131.659 155.88c.09-.186.186-.36.288-.534a2.153 2.153 0 0 0-1.088-.378c-1.074-.108-1.686.366-1.758 1.014-.156 1.356 1.986 1.242 1.884 2.142-.042.384-.45.54-.888.5a.923.923 0 0 1-.906-.714l-.132-.012a4.543 4.543 0 0 1-.288.69 2.546 2.546 0 0 0 1.11.354c1.1.114 1.932-.324 2.01-1.044.138-1.29-2.022-1.362-1.938-2.124.036-.318.282-.528.84-.474a.833.833 0 0 1 .756.57l.108.012" data-name="Path 256"/><path d="M203.403 158.988c.372-1.4.846-2.748 1.314-4.122a1.866 1.866 0 0 1-.318.066 2.82 2.82 0 0 1-.324.03c-.222.984-.528 1.974-.852 2.964-.576-.864-1.2-1.7-1.7-2.58-.2.042-.408.09-.612.12s-.414.042-.624.066a82.245 82.245 0 0 1 2.52 3.546 2.187 2.187 0 0 1 .3-.072c.1-.012.2-.012.294-.018" data-name="Path 257"/><path d="M207.111 154.896c-.174.006-.354.024-.528.018s-.36-.024-.534-.036l-.072 3.846 2.694.048a1.16 1.16 0 0 1-.036-.246 1.119 1.119 0 0 1 .042-.24c-.486.03-1.008.06-1.626.048l.06-3.438" data-name="Path 258"/><path d="M211.335 155.526c.432.036.846.114 1.26.186a1.649 1.649 0 0 1-.012-.246 1.119 1.119 0 0 1 .06-.234l-3.642-.3a1.645 1.645 0 0 1 .012.24 1.081 1.081 0 0 1-.06.24 11.446 11.446 0 0 1 1.326.03l-.318 3.462a5.173 5.173 0 0 1 .528.018c.18.012.354.042.528.066l.318-3.462" data-name="Path 259"/><path d="M212.829 159.318c.174.03.354.054.528.09s.342.09.51.138l.432-1.764.048.006c.1.246.228.54.294.714l.54 1.332c.216.036.426.066.63.108s.42.108.624.168l-.186-.4c-.288-.6-.594-1.206-.846-1.812.672.024 1.188-.216 1.32-.756a.832.832 0 0 0-.408-.918 3.635 3.635 0 0 0-1.1-.36l-1.464-.318-.924 3.774m1.884-3.252c.426.1.954.162.954.642a1.552 1.552 0 0 1-.036.288c-.138.564-.564.756-1.278.546l.36-1.476" data-name="Path 260"/><path d="M219.765 160.476a12.29 12.29 0 0 1-.186 1.26c.18.084.366.162.54.264s.342.2.516.312l.36-4.338a4.502 4.502 0 0 1-.246-.114 1.755 1.755 0 0 1-.222-.144l-3.828 2.43c.1.048.21.1.306.15s.186.114.282.168c.324-.27.66-.492 1.044-.78l1.434.786Zm-1.086-1 1.278-.822-.15 1.44-1.128-.618" data-name="Path 261"/></g><g stroke="#000"><path fill="#ad1519" stroke-width=".26" d="M167.013 109.632a28.491 28.491 0 0 1 9.846 1.506 18.749 18.749 0 0 0 5.04 1.3 20.228 20.228 0 0 0 4.11.144 16.1 16.1 0 0 1 6.372 1.488 17.241 17.241 0 0 1 4.68 2.946l-.942.84-.27 2.376-2.58 2.952-1.29 1.1-3.054 2.442-1.56.126-.474 1.35-19.746-2.316-19.812 2.316-.474-1.35-1.566-.126-3.048-2.442-1.29-1.1-2.58-2.952-.264-2.376-.948-.84a17.335 17.335 0 0 1 4.68-2.946 16.1 16.1 0 0 1 6.372-1.488 20.228 20.228 0 0 0 4.11-.144 18.749 18.749 0 0 0 5.04-1.3 27.294 27.294 0 0 1 9.648-1.506Z" data-name="Path 262"/><g data-name="Group 59" transform="translate(136.137 93.324)"><path fill="#c8b100" stroke-width=".39" d="m16.29 21.524.828.666 1.248-2.04a4.626 4.626 0 0 1-2.28-3.906 4.1 4.1 0 0 1 .036-.546c.126-2.6 3.3-4.752 7.32-4.752a9.448 9.448 0 0 1 5.3 1.488c.036-.4.072-.75.126-1.116a10.868 10.868 0 0 0-5.43-1.368c-4.626 0-8.244 2.634-8.418 5.742-.018.186-.03.366-.03.552a5.545 5.545 0 0 0 1.956 4.194l-.66 1.086" data-name="Path 263"/><path fill="#c8b100" stroke-width=".39" d="M16.344 21.552a5.774 5.774 0 0 1-2.562-4.548 6.113 6.113 0 0 1 3.348-5.046 5.322 5.322 0 0 0-2.106 3.738c-.018.186-.03.366-.03.552a5.545 5.545 0 0 0 1.956 4.194l-.606 1.11" data-name="Path 264"/><path fill="#c8b100" stroke-width=".39" d="M2.412 23.61a5.428 5.428 0 0 1-.882-6.042c1.278-2.628 5.292-4.542 10.056-4.542a16.467 16.467 0 0 1 3.684.4 6.584 6.584 0 0 0-.648.888 15.9 15.9 0 0 0-3.036-.288c-4.362 0-8.016 1.7-9.072 3.99a4.4 4.4 0 0 0-.438 1.92 4.551 4.551 0 0 0 1.674 3.492l-1.578 2.58-.846-.672 1.086-1.728Z" data-name="Path 265"/><path fill="#c8b100" stroke-width=".39" d="M4.026 14.964a6.641 6.641 0 0 0-2.5 2.6 5.428 5.428 0 0 0 .882 6.042l-.96 1.554a6.515 6.515 0 0 1-1.452-4.02c0-2.52 1.6-4.722 4.026-6.18Z" data-name="Path 266"/><path fill="#c8b100" stroke-width=".39" d="M31.11 9.438a2.21 2.21 0 0 1 2.184 1.638 19.124 19.124 0 0 1 .246 2.772c.006.108-.006.21-.006.312 0 .12.024.246.03.366a16.644 16.644 0 0 0 .762 5.112l-3.216 3.084-3.258-3.084a16.592 16.592 0 0 0 .774-5.112c0-.12.024-.246.024-.366 0-.1-.006-.2-.006-.312a19.124 19.124 0 0 1 .246-2.772 2.253 2.253 0 0 1 2.22-1.638Z" data-name="Path 267"/><path fill="#c8b100" stroke-width=".39" d="M31.11 10.44a1.126 1.126 0 0 1 1.122.834 17.291 17.291 0 0 1 .24 2.628c0 .1-.006.192-.006.288 0 .12.018.234.024.354a15.448 15.448 0 0 0 .726 4.83l-2.124 2.01-2.124-2.01a15.81 15.81 0 0 0 .726-4.83c0-.12.024-.234.024-.354 0-.1-.006-.192-.006-.288a17.291 17.291 0 0 1 .24-2.628 1.165 1.165 0 0 1 1.158-.834Z" data-name="Path 268"/><path fill="#c8b100" stroke-width=".39" d="m45.906 21.524-.834.666-1.248-2.04a4.619 4.619 0 0 0 2.286-3.906 4.106 4.106 0 0 0-.036-.546c-.126-2.6-3.3-4.752-7.32-4.752a9.434 9.434 0 0 0-5.3 1.488c-.036-.4-.072-.75-.132-1.116a10.891 10.891 0 0 1 5.436-1.368c4.626 0 8.244 2.634 8.418 5.742.018.186.03.366.03.552a5.551 5.551 0 0 1-1.962 4.194l.666 1.086" data-name="Path 269"/><path fill="#c8b100" stroke-width=".39" d="M45.852 21.552a5.774 5.774 0 0 0 2.562-4.548 6.113 6.113 0 0 0-3.348-5.046 5.322 5.322 0 0 1 2.106 3.738c.018.186.03.366.03.552a5.551 5.551 0 0 1-1.962 4.194l.612 1.11" data-name="Path 270"/><path fill="#c8b100" stroke-width=".39" d="M59.784 23.61a5.516 5.516 0 0 0 1.428-3.672 5.434 5.434 0 0 0-.546-2.37c-1.284-2.628-5.292-4.542-10.056-4.542a16.561 16.561 0 0 0-3.69.4 6.144 6.144 0 0 1 .654.888 15.85 15.85 0 0 1 3.036-.288c4.362 0 8.01 1.7 9.066 3.99a4.4 4.4 0 0 1 .438 1.92 4.551 4.551 0 0 1-1.674 3.492l1.578 2.58.852-.672Z" data-name="Path 271"/><path fill="#c8b100" stroke-width=".39" d="M58.17 14.964a6.641 6.641 0 0 1 2.5 2.6 5.434 5.434 0 0 1 .546 2.37 5.516 5.516 0 0 1-1.428 3.672l.96 1.554a6.508 6.508 0 0 0 1.446-4.02c0-2.52-1.6-4.722-4.02-6.18Z" data-name="Path 272"/><ellipse cx="2.658" cy="2.52" fill="#005bbf" stroke-width=".26" data-name="Ellipse 37" rx="2.658" ry="2.52" transform="translate(28.458 4.536)"/><path fill="#c8b100" stroke-width=".26" d="M30.42 0v1.36h-1.452v1.38h1.452v3.966h-1.83c-.018.126-.132.222-.132.354a2.354 2.354 0 0 0 .21.984c0 .012.012.012.018.018h4.872c0-.006.012-.006.018-.018a2.451 2.451 0 0 0 .21-.984c0-.132-.114-.228-.132-.354h-1.776V2.74h1.452V1.36h-1.452V0Z" data-name="Path 273"/></g><g fill="#fff" stroke-width=".39" data-name="Group 60" transform="translate(134.349 101.514)"><ellipse cx="1.146" cy="1.08" data-name="Ellipse 38" rx="1.146" ry="1.08" transform="translate(31.752 10.77)"/><ellipse cx="1.146" cy="1.08" data-name="Ellipse 39" rx="1.146" ry="1.08" transform="translate(31.752 8.646)"/><ellipse cx=".912" cy=".864" data-name="Ellipse 40" rx=".912" ry=".864" transform="translate(31.986 6.582)"/><ellipse cx=".66" cy=".624" data-name="Ellipse 41" rx=".66" ry=".624" transform="translate(32.238 4.77)"/><ellipse cx=".528" cy=".498" data-name="Ellipse 42" rx=".528" ry=".498" transform="translate(32.37 3.096)"/><ellipse cx=".66" cy=".624" data-name="Ellipse 43" rx=".66" ry=".624" transform="translate(1.578 17.064)"/><ellipse cx=".66" cy=".624" data-name="Ellipse 44" rx=".66" ry=".624" transform="translate(.678 15.474)"/><ellipse cx=".66" cy=".624" data-name="Ellipse 45" rx=".66" ry=".624" transform="translate(.078 13.626)"/><ellipse cx=".66" cy=".624" data-name="Ellipse 46" rx=".66" ry=".624" transform="translate(0 11.646)"/><ellipse cx=".66" cy=".624" data-name="Ellipse 47" rx=".66" ry=".624" transform="translate(.486 9.702)"/><ellipse cx=".66" cy=".624" data-name="Ellipse 48" rx=".66" ry=".624" transform="translate(1.5 7.932)"/><ellipse cx=".66" cy=".624" data-name="Ellipse 49" rx=".66" ry=".624" transform="translate(2.85 6.474)"/><ellipse cx=".66" cy=".624" data-name="Ellipse 50" rx=".66" ry=".624" transform="translate(4.422 5.268)"/><ellipse cx=".66" cy=".624" data-name="Ellipse 51" rx=".66" ry=".624" transform="translate(6.294 4.278)"/><ellipse cx=".66" cy=".624" data-name="Ellipse 52" rx=".66" ry=".624" transform="translate(8.238 3.576)"/><ellipse cx=".66" cy=".624" data-name="Ellipse 53" rx=".66" ry=".624" transform="translate(10.41 3.186)"/><ellipse cx=".66" cy=".624" data-name="Ellipse 54" rx=".66" ry=".624" transform="translate(12.474 3.078)"/><ellipse cx=".66" cy=".624" data-name="Ellipse 55" rx=".66" ry=".624" transform="translate(14.496 3.15)"/><ellipse cx=".66" cy=".624" data-name="Ellipse 56" rx=".66" ry=".624" transform="translate(16.74 12.054)"/><ellipse cx=".66" cy=".624" data-name="Ellipse 57" rx=".66" ry=".624" transform="translate(15.618 10.452)"/><ellipse cx=".66" cy=".624" data-name="Ellipse 58" rx=".66" ry=".624" transform="translate(15.024 8.712)"/><ellipse cx=".66" cy=".624" data-name="Ellipse 59" rx=".66" ry=".624" transform="translate(15.096 6.804)"/><ellipse cx=".66" cy=".624" data-name="Ellipse 60" rx=".66" ry=".624" transform="translate(15.51 4.884)"/><ellipse cx=".66" cy=".624" data-name="Ellipse 61" rx=".66" ry=".624" transform="translate(16.518 3.15)"/><ellipse cx=".66" cy=".624" data-name="Ellipse 62" rx=".66" ry=".624" transform="translate(18.054 1.944)"/><ellipse cx=".66" cy=".624" data-name="Ellipse 63" rx=".66" ry=".624" transform="translate(19.848 .948)"/><ellipse cx=".66" cy=".624" data-name="Ellipse 64" rx=".66" ry=".624" transform="translate(21.834 .354)"/><ellipse cx=".66" cy=".624" data-name="Ellipse 65" rx=".66" ry=".624" transform="translate(23.892)"/><ellipse cx=".66" cy=".624" data-name="Ellipse 66" rx=".66" ry=".624" transform="translate(25.914 .03)"/><ellipse cx=".66" cy=".624" data-name="Ellipse 67" rx=".66" ry=".624" transform="translate(28.008 .384)"/><ellipse cx=".66" cy=".624" data-name="Ellipse 68" rx=".66" ry=".624" transform="translate(29.952 1.056)"/><ellipse cx=".66" cy=".624" data-name="Ellipse 69" rx=".66" ry=".624" transform="translate(34.494 1.056)"/><ellipse cx=".66" cy=".624" data-name="Ellipse 70" rx=".66" ry=".624" transform="translate(36.438 .384)"/><ellipse cx=".66" cy=".624" data-name="Ellipse 71" rx=".66" ry=".624" transform="translate(38.538 .03)"/><ellipse cx=".66" cy=".624" data-name="Ellipse 72" rx=".66" ry=".624" transform="translate(40.554)"/><ellipse cx=".66" cy=".624" data-name="Ellipse 73" rx=".66" ry=".624" transform="translate(42.618 .354)"/><ellipse cx=".66" cy=".624" data-name="Ellipse 74" rx=".66" ry=".624" transform="translate(44.598 .948)"/><ellipse cx=".66" cy=".624" data-name="Ellipse 75" rx=".66" ry=".624" transform="translate(46.398 1.944)"/><ellipse cx=".66" cy=".624" data-name="Ellipse 76" rx=".66" ry=".624" transform="translate(47.928 3.15)"/><ellipse cx=".66" cy=".624" data-name="Ellipse 77" rx=".66" ry=".624" transform="translate(48.942 4.884)"/><ellipse cx=".66" cy=".624" data-name="Ellipse 78" rx=".66" ry=".624" transform="translate(49.356 6.804)"/><ellipse cx=".66" cy=".624" data-name="Ellipse 79" rx=".66" ry=".624" transform="translate(49.428 8.712)"/><ellipse cx=".66" cy=".624" data-name="Ellipse 80" rx=".66" ry=".624" transform="translate(48.828 10.452)"/><ellipse cx=".66" cy=".624" data-name="Ellipse 81" rx=".66" ry=".624" transform="translate(47.712 12.054)"/><ellipse cx=".66" cy=".624" data-name="Ellipse 82" rx=".66" ry=".624" transform="translate(49.956 3.15)"/><ellipse cx=".66" cy=".624" data-name="Ellipse 83" rx=".66" ry=".624" transform="translate(51.978 3.078)"/><ellipse cx=".66" cy=".624" data-name="Ellipse 84" rx=".66" ry=".624" transform="translate(54.042 3.186)"/><ellipse cx=".66" cy=".624" data-name="Ellipse 85" rx=".66" ry=".624" transform="translate(56.214 3.576)"/><ellipse cx=".66" cy=".624" data-name="Ellipse 86" rx=".66" ry=".624" transform="translate(58.158 4.278)"/><ellipse cx=".66" cy=".624" data-name="Ellipse 87" rx=".66" ry=".624" transform="translate(60.03 5.268)"/><ellipse cx=".66" cy=".624" data-name="Ellipse 88" rx=".66" ry=".624" transform="translate(61.596 6.474)"/><ellipse cx=".66" cy=".624" data-name="Ellipse 89" rx=".66" ry=".624" transform="translate(62.946 7.932)"/><ellipse cx=".66" cy=".624" data-name="Ellipse 90" rx=".66" ry=".624" transform="translate(63.96 9.702)"/><ellipse cx=".66" cy=".624" data-name="Ellipse 91" rx=".66" ry=".624" transform="translate(64.446 11.646)"/><ellipse cx=".66" cy=".624" data-name="Ellipse 92" rx=".66" ry=".624" transform="translate(64.374 13.626)"/><ellipse cx=".66" cy=".624" data-name="Ellipse 93" rx=".66" ry=".624" transform="translate(63.774 15.474)"/><ellipse cx=".66" cy=".624" data-name="Ellipse 94" rx=".66" ry=".624" transform="translate(62.874 17.064)"/></g><g stroke-width=".39" data-name="Group 61" transform="translate(136.755 113.016)"><path fill="#c8b100" d="M30.558 22.692a68.217 68.217 0 0 1-18.654-2.3.723.723 0 0 1-.5-.75.7.7 0 0 1 .5-.7 76.861 76.861 0 0 1 37.308 0 .7.7 0 0 1 .5.7.725.725 0 0 1-.5.75 68.186 68.186 0 0 1-18.654 2.3" data-name="Path 274"/><path fill="#c8b100" d="M30.51 16.638a67.577 67.577 0 0 0-18.834 2.4c.39-.186.354-.672-.132-1.92-.588-1.518-1.5-1.452-1.5-1.452a85.273 85.273 0 0 1 41.058 0s-.918-.066-1.506 1.452c-.486 1.248-.522 1.734-.126 1.92a68.554 68.554 0 0 0-18.96-2.4" data-name="Path 275"/><path fill="#c8b100" d="M30.54 13.164a76.043 76.043 0 0 0-20.5 2.508.646.646 0 0 1-.828-.36.635.635 0 0 1 .42-.81 75.507 75.507 0 0 1 20.9-2.628c8.262.018 15.714 1.026 20.94 2.628a.635.635 0 0 1 .42.81.646.646 0 0 1-.828.36 76.33 76.33 0 0 0-20.532-2.508" data-name="Path 276"/><path fill="#c8b100" d="m30.588 6.852.738.132a2.741 2.741 0 0 0-.144.978 2.876 2.876 0 0 0 2.952 2.79 2.933 2.933 0 0 0 2.8-1.926c.048.03.282-1.008.408-1 .1.012.09 1.08.132 1.062a2.968 2.968 0 0 0 5.868-.432 2.185 2.185 0 0 0-.024-.342l.924-.912.5 1.164a2.526 2.526 0 0 0-.276 1.218 2.739 2.739 0 0 0 2.814 2.664 2.849 2.849 0 0 0 2.34-1.182l.594-.75-.006.918a1.719 1.719 0 0 0 1.3 1.908 3.972 3.972 0 0 0 2.418-1.02 15.85 15.85 0 0 0 2.13-1.974l.12 1.08a9.1 9.1 0 0 1-2.382 2.49 4.318 4.318 0 0 1-2.538.678 2.484 2.484 0 0 1-1.806-1.644 4.179 4.179 0 0 1-2.13.582 4.071 4.071 0 0 1-3.792-2.316 4.165 4.165 0 0 1-3.12 1.35 4.355 4.355 0 0 1-3.342-1.536 4.384 4.384 0 0 1-6.492-.708 4.377 4.377 0 0 1-6.486.708 4.367 4.367 0 0 1-3.348 1.536 4.152 4.152 0 0 1-3.114-1.35 4.084 4.084 0 0 1-3.792 2.316 4.163 4.163 0 0 1-2.13-.582 2.492 2.492 0 0 1-1.812 1.644 4.311 4.311 0 0 1-2.532-.678 9.059 9.059 0 0 1-2.388-2.49l.12-1.08a16.187 16.187 0 0 0 2.136 1.974 3.9 3.9 0 0 0 2.412 1.02 1.714 1.714 0 0 0 1.3-1.908l-.006-.918.594.75a2.858 2.858 0 0 0 2.34 1.182 2.739 2.739 0 0 0 2.814-2.664 2.526 2.526 0 0 0-.276-1.218l.5-1.164.924.912a3.273 3.273 0 0 0-.024.342 2.972 2.972 0 0 0 5.874.432c.036.018.03-1.05.132-1.062.12-.012.36 1.026.4 1a2.941 2.941 0 0 0 2.808 1.926 2.871 2.871 0 0 0 2.946-2.79 2.5 2.5 0 0 0-.144-.978l.774-.132" data-name="Path 277"/><path fill="#c8b100" d="M5.49 10.776a1.344 1.344 0 0 0-.432-.636 1.073 1.073 0 0 0-1.416-.15.6.6 0 0 0-.1.15 4.828 4.828 0 0 0-1.446-1.668A4.6 4.6 0 0 0 .002 8.16a1.749 1.749 0 0 1 1.794-1.734 1.9 1.9 0 0 1 1.488.666l.138-.642A1.765 1.765 0 0 1 4.61 7.542a4.156 4.156 0 0 1-.036 2.28 4.011 4.011 0 0 1 .51-.966 5.008 5.008 0 0 1 1.494-1 6.653 6.653 0 0 0 .822-.474 3.565 3.565 0 0 1 .03.366 3.011 3.011 0 0 1-.006.5 4.894 4.894 0 0 1 2.3.288 2.972 2.972 0 0 1-1.572 1.38s.264.216.5.45a2.361 2.361 0 0 1 .264.294s-.51.078-.762.114a10.013 10.013 0 0 1-1.614.132 9.44 9.44 0 0 1-1.044-.132" data-name="Path 278"/><path fill="#ad1519" d="M3.642 9.99a1.073 1.073 0 0 1 1.416.15c.48.4.612 1 .306 1.314a1.08 1.08 0 0 1-1.416-.15c-.474-.408-.612-1-.306-1.314" data-name="Path 279"/><path fill="#fff" d="M10.302 10.53c-.168-.5-.018-.99.342-1.1s.792.2.96.7.018.99-.342 1.1-.786-.2-.96-.7" data-name="Path 280"/><path fill="#c8b100" d="M16.136 8.1a1.1 1.1 0 0 1-.4-.648 1.046 1.046 0 0 1 .138-.738 6.511 6.511 0 0 0-1.1-.414 6.969 6.969 0 0 0-1.422-.12c-.228-.012-.69-.018-.69-.018s.042.1.168.33a4.287 4.287 0 0 0 .3.45 3.128 3.128 0 0 0-1.818 1.254 3.319 3.319 0 0 0 2.16.582 3.142 3.142 0 0 0-.12.516 3.067 3.067 0 0 0-.036.366l.642-.234a7.333 7.333 0 0 0 1.29-.576 6.256 6.256 0 0 0 .888-.75" data-name="Path 281"/><path fill="#c8b100" d="M15.876 1.974a3.2 3.2 0 0 1 1.38 1.818 1.13 1.13 0 0 1 .426-.354 1.415 1.415 0 0 1 .654-.192s-.1.582-.15.792-.054.828-.192 1.392a4.893 4.893 0 0 1-.378 1.008 1.189 1.189 0 0 0-.948-.246 1.122 1.122 0 0 0-.792.54 5.015 5.015 0 0 1-.726-.828c-.33-.486-.558-1.068-.678-1.248s-.432-.69-.432-.69a1.351 1.351 0 0 1 .684-.03 1.1 1.1 0 0 1 .528.192 3.045 3.045 0 0 1 .624-2.154" data-name="Path 282"/><path fill="#c8b100" d="M17.848 7.812a1.034 1.034 0 0 0-.252-1.38 6.273 6.273 0 0 1 .882-.756 7.058 7.058 0 0 1 1.29-.57c.216-.078.642-.24.642-.24a3.067 3.067 0 0 1-.036.366 3.339 3.339 0 0 1-.12.522 3.271 3.271 0 0 1 2.166.588 3.152 3.152 0 0 1-1.824 1.248 3.782 3.782 0 0 1 .3.444c.126.234.168.336.168.336l-.69-.018a6.968 6.968 0 0 1-1.422-.12 6.7 6.7 0 0 1-1.1-.414" data-name="Path 283"/><ellipse cx="1.302" cy="1.236" fill="#ad1519" data-name="Ellipse 95" rx="1.302" ry="1.236" transform="translate(15.588 6.018)"/><path fill="#fff" d="M23.124 8.046c-.066-.522.186-.978.558-1.02s.738.342.8.864-.18.978-.558 1.02-.732-.342-.8-.864" data-name="Path 284"/><path fill="#c8b100" d="M29.568 6.882a1.2 1.2 0 0 1-.318-.8 1.175 1.175 0 0 1 .306-.792 6.8 6.8 0 0 0-1.134-.672 8.192 8.192 0 0 0-1.56-.4l-.768-.144a3.718 3.718 0 0 0 .12.4 4.412 4.412 0 0 0 .24.558 3.622 3.622 0 0 0-2.286 1.056 3.678 3.678 0 0 0 2.286 1.05 3.962 3.962 0 0 0-.24.558 3.278 3.278 0 0 0-.12.4l.768-.144a8.2 8.2 0 0 0 1.56-.4 8.044 8.044 0 0 0 1.146-.666" data-name="Path 285"/><path fill="#c8b100" d="M30.534 0a3.534 3.534 0 0 1 1.17 2.292 1.175 1.175 0 0 1 .546-.318 1.631 1.631 0 0 1 .768-.1s-.234.63-.33.852-.234.918-.5 1.518a5.285 5.285 0 0 1-.63 1.056 1.341 1.341 0 0 0-2 0 5.284 5.284 0 0 1-.63-1.056c-.27-.6-.4-1.3-.5-1.518s-.336-.852-.336-.852a1.629 1.629 0 0 1 .768.1 1.231 1.231 0 0 1 .552.318A3.547 3.547 0 0 1 30.546 0" data-name="Path 286"/><path fill="#c8b100" d="M31.524 6.882a1.169 1.169 0 0 0 .012-1.59 6.7 6.7 0 0 1 1.14-.672 7.975 7.975 0 0 1 1.56-.4l.756-.144a1.962 1.962 0 0 1-.114.4 4.409 4.409 0 0 1-.24.558 3.607 3.607 0 0 1 2.286 1.056 3.648 3.648 0 0 1-2.286 1.05 3.96 3.96 0 0 1 .24.558 2.484 2.484 0 0 1 .114.4l-.756-.144a5.425 5.425 0 0 1-2.712-1.068" data-name="Path 287"/><ellipse cx="1.302" cy="1.236" fill="#ad1519" data-name="Ellipse 96" rx="1.302" ry="1.236" transform="translate(29.25 4.848)"/><path fill="#fff" d="M38.016 8.046c.066-.522-.18-.978-.558-1.02s-.738.342-.8.864.186.978.558 1.02.738-.342.8-.864" data-name="Path 288"/><path fill="#c8b100" d="M43.296 7.812a1.018 1.018 0 0 1 .252-1.38 6.275 6.275 0 0 0-.882-.756 7.087 7.087 0 0 0-1.3-.57c-.21-.078-.636-.24-.636-.24a1.962 1.962 0 0 0 .036.366 3.892 3.892 0 0 0 .114.522 3.263 3.263 0 0 0-2.16.588 3.138 3.138 0 0 0 1.818 1.248 3.4 3.4 0 0 0-.294.444 2.506 2.506 0 0 0-.168.336l.684-.018a6.937 6.937 0 0 0 1.422-.12 6.7 6.7 0 0 0 1.1-.414" data-name="Path 289"/><path fill="#c8b100" d="M45.27 1.974a3.239 3.239 0 0 0-1.386 1.818 1.06 1.06 0 0 0-.426-.354 1.4 1.4 0 0 0-.654-.192s.1.582.156.792.054.828.186 1.392a4.706 4.706 0 0 0 .384 1.008 1.182 1.182 0 0 1 .942-.246 1.133 1.133 0 0 1 .8.54 5.015 5.015 0 0 0 .726-.828c.324-.486.552-1.068.672-1.248s.432-.69.432-.69a1.351 1.351 0 0 0-.684-.03 1.1 1.1 0 0 0-.528.192 3.041 3.041 0 0 0-.618-2.154" data-name="Path 290"/><path fill="#c8b100" d="M45 8.1a1.049 1.049 0 0 0 .4-.648 1.014 1.014 0 0 0-.132-.738 6.511 6.511 0 0 1 1.1-.414 6.947 6.947 0 0 1 1.416-.12c.234-.012.69-.018.69-.018a2.309 2.309 0 0 1-.168.33 3.814 3.814 0 0 1-.294.45 3.166 3.166 0 0 1 1.818 1.254 3.328 3.328 0 0 1-2.16.582 3.649 3.649 0 0 1 .114.516 3.068 3.068 0 0 1 .036.366l-.636-.234a7.173 7.173 0 0 1-1.3-.576 6.688 6.688 0 0 1-.888-.75" data-name="Path 291"/><ellipse cx="1.302" cy="1.236" fill="#ad1519" data-name="Ellipse 97" rx="1.302" ry="1.236" transform="translate(42.954 6.018)"/><path fill="#fff" d="M50.844 10.53c.168-.5.018-.99-.342-1.1s-.792.2-.966.7-.018.99.342 1.1.792-.2.966-.7" data-name="Path 292"/><path fill="#c8b100" d="M55.65 10.776a1.389 1.389 0 0 1 .432-.636 1.073 1.073 0 0 1 1.416-.15.632.632 0 0 1 .108.15 4.786 4.786 0 0 1 1.44-1.668 4.629 4.629 0 0 1 2.1-.312 1.754 1.754 0 0 0-1.8-1.734 1.882 1.882 0 0 0-1.482.666l-.138-.642a1.765 1.765 0 0 0-1.188 1.092 4.18 4.18 0 0 0 .03 2.28 3.885 3.885 0 0 0-.5-.966 5.007 5.007 0 0 0-1.494-1 6.169 6.169 0 0 1-.822-.474s-.018.108-.036.366a3.372 3.372 0 0 0 .012.5 4.874 4.874 0 0 0-2.3.288 2.936 2.936 0 0 0 1.566 1.38s-.258.216-.5.45a2.519 2.519 0 0 0-.258.294s.51.078.762.114a9.992 9.992 0 0 0 1.608.132 9.255 9.255 0 0 0 1.044-.132" data-name="Path 293"/><path fill="#ad1519" d="M57.498 9.99a1.073 1.073 0 0 0-1.416.15c-.474.4-.612 1-.306 1.314a1.08 1.08 0 0 0 1.416-.15c.474-.408.612-1 .306-1.314" data-name="Path 294"/></g><g data-name="Group 62"><path fill="#ad1519" stroke-linejoin="round" stroke-width=".39" d="M167.295 134.742a71.072 71.072 0 0 1-17.208-1.956 78.474 78.474 0 0 1 34.452 0 71.352 71.352 0 0 1-17.244 1.956Z" data-name="Path 295"/><path fill="none" stroke-width=".05" d="M172.047 134.572v-3.61m-1.812 3.726.024-3.822m-1.344 3.87v-3.894" data-name="Path 296"/><path fill="none" stroke-width=".09" d="M167.793 134.784v-3.942" data-name="Path 297"/><path fill="none" stroke-width=".14" d="M166.719 134.784v-3.942" data-name="Path 298"/><path fill="none" stroke-width=".18" d="M165.711 134.784v-3.942" data-name="Path 299"/><path fill="none" stroke-width=".23" d="M164.709 134.784v-3.942" data-name="Path 300"/><path fill="none" stroke-width=".28" d="M163.815 134.784v-3.942" data-name="Path 301"/><path fill="none" stroke-width=".33" d="m162.111 134.568-.024-3.582m.834 3.63v-3.75" data-name="Path 302"/><path fill="none" stroke-width=".37" d="M160.539 134.406v-3.3m.8 3.4-.024-3.516" data-name="Path 303"/><path fill="none" stroke-width=".42" d="M158.433 134.22v-2.9m.69 2.952v-3.048m.714 3.144v-3.172" data-name="Path 304"/><path fill="none" stroke-width=".46" d="M157.695 134.196v-2.808" data-name="Path 305"/><path fill="none" stroke-width=".51" d="M157.005 134.052v-2.616" data-name="Path 306"/><path fill="none" stroke-width=".56" d="M156.267 133.986v-2.436" data-name="Path 307"/><path fill="none" stroke-width=".6" d="m154.751 133.77-.024-1.932m.8 2.028v-2.172" data-name="Path 308"/><path fill="none" stroke-width=".63" d="M153.981 133.608v-1.7" data-name="Path 309"/><path fill="none" stroke-width=".68" d="M153.267 133.47v-1.416" data-name="Path 310"/><path fill="none" stroke-width=".73" d="M152.493 133.278v-1.11" data-name="Path 311"/><path fill="none" stroke-width=".77" d="M151.695 133.188v-.828" data-name="Path 312"/><path fill="none" stroke-width=".91" d="M150.855 132.996v-.4" data-name="Path 313"/><path fill="none" stroke-width=".39" d="M149.295 132.996a77.486 77.486 0 0 1 36.036 0" data-name="Path 314"/><path fill="#ad1519" stroke-width=".39" d="m147.255 130.296.732-.954 2.022.258-1.614 1.172-1.14-.48" data-name="Path 315"/><path fill="#fff" stroke-width=".39" d="M151.641 129.168a.661.661 0 1 1 .66.624.64.64 0 0 1-.66-.624" data-name="Path 316"/><path fill="#058e6e" stroke-width=".39" d="m157.411 129.042-1.416.162a.656.656 0 0 1-.744-.54.62.62 0 0 1 .576-.69l1.422-.168 1.452-.168a.647.647 0 0 1 .732.54.637.637 0 0 1-.576.7l-1.446.168" data-name="Path 317"/><path fill="#fff" stroke-width=".39" d="M161.547 128.01a.661.661 0 0 1 1.32 0 .661.661 0 0 1-1.32 0" data-name="Path 318"/><path fill="#ad1519" stroke-width=".39" d="M167.313 128.496h-1.974a.648.648 0 0 1-.666-.618.64.64 0 0 1 .66-.624h3.984a.64.64 0 0 1 .66.624.648.648 0 0 1-.666.618h-2" data-name="Path 319"/><path fill="#fff" stroke-width=".39" d="M171.759 128.01a.661.661 0 1 1 .66.624.643.643 0 0 1-.66-.624" data-name="Path 320"/><path fill="#058e6e" stroke-width=".39" d="m177.219 129.042 1.416.162a.659.659 0 0 0 .744-.54.628.628 0 0 0-.576-.69l-1.422-.168-1.452-.168a.644.644 0 0 0-.732.54.633.633 0 0 0 .576.7l1.446.168" data-name="Path 321"/><path fill="#fff" stroke-width=".39" d="M181.665 129.168a.661.661 0 1 1 .66.624.64.64 0 0 1-.66-.624" data-name="Path 322"/><path fill="#ad1519" stroke-width=".39" d="m187.365 130.296-.726-.954-2.022.258 1.61 1.172 1.134-.48" data-name="Path 323"/></g></g><g stroke="#000" stroke-width=".52"><path fill="#ccc" d="M167.517 206.598a51.144 51.144 0 0 1-22.17-5.124 14.189 14.189 0 0 1-8.016-12.714v-19.98h60.252v19.98a14.178 14.178 0 0 1-8.016 12.714 50.6 50.6 0 0 1-22.05 5.124Z" data-name="Path 324"/><path fill="#ffd691" d="M168.969 197.73a2.449 2.449 0 0 1 1.89 2.406c0 1.428-1.38 2.508-3.18 2.508s-3.252-1.08-3.252-2.508a2.183 2.183 0 0 1 1.848-2.364 1.68 1.68 0 0 0-.144-.3l-.384-.4a1.8 1.8 0 0 1 .75.012 1.6 1.6 0 0 1 .462.282 2.128 2.128 0 0 1 .312-.456 1.63 1.63 0 0 1 .42-.318 2.082 2.082 0 0 1 .366.384 2.187 2.187 0 0 1 .15.354 2.06 2.06 0 0 1 .474-.294 4.045 4.045 0 0 1 .5-.156s-.078.276-.132.414a2.279 2.279 0 0 0-.084.432" data-name="Path 325"/><path fill="#058e6e" d="M167.415 204.192a16.382 16.382 0 0 0-3.42-1.824 17.121 17.121 0 0 0-3.456-.09 13.308 13.308 0 0 1 1.1.888 6.306 6.306 0 0 0 2.058 1.146 7.281 7.281 0 0 0 3.714-.12" data-name="Path 326"/><path fill="#058e6e" d="M168.099 204.34a6.519 6.519 0 0 1 3.126-1.812 8.69 8.69 0 0 1 3.864.348c.018 0-.606.294-.936.522a4.209 4.209 0 0 1-2.484.954c-1.308.018-2.748-.138-2.982-.1l-.588.09" data-name="Path 327"/><path fill="#ad1519" d="M167.637 202.368a3.035 3.035 0 0 1 .006-4.458 3.048 3.048 0 0 1-.006 4.458" data-name="Path 328"/><path fill="#058e6e" d="M167.031 205.626a6.217 6.217 0 0 0 .4-1.7 6.052 6.052 0 0 0-.09-1.3h.48a4.845 4.845 0 0 1 .234 1.3 13.131 13.131 0 0 1-.108 1.422 2.312 2.312 0 0 0-.438.1c-.114.054-.48.174-.48.174" data-name="Path 329"/></g><g stroke="#000" stroke-width=".52"><path fill="#ad1519" d="M167.415 188.742c0 7.9-6.7 14.292-15.03 14.292s-15.09-6.4-15.09-14.292v-20.01h30.12v20.01" data-name="Path 330"/><path fill="#c8b100" d="M137.241 188.472a15.263 15.263 0 0 0 3.438 9.4v-29.68h-3.4l-.042 20.28Z" data-name="Path 331"/><path fill="#c8b100" d="M143.871 200.538a15.637 15.637 0 0 0 3.618 1.662l-.09-34.176h-3.528Z" data-name="Path 332"/><path fill="#c8b100" d="M150.591 202.95a16.4 16.4 0 0 0 3.522 0v-34.926h-3.522Z" data-name="Path 333"/><path fill="#c8b100" d="M157.215 202.2a11.888 11.888 0 0 0 3.618-1.578v-32.6h-3.528l-.09 34.176Z" data-name="Path 334"/><path fill="#c8b100" d="M164.109 197.544c1.47-1.308 2.85-4.272 3.354-7.656l.084-21.864h-3.522Z" data-name="Path 335"/></g><path fill="#ad1519" stroke="#000" stroke-width=".52" d="M197.613 168.732v20.01c0 7.9-6.768 14.292-15.1 14.292s-15.1-6.4-15.1-14.292v-20.01h30.2" data-name="Path 336"/><path fill="#c8b100" stroke="#c8b100" stroke-width=".26" d="M180.847 183.684a1.759 1.759 0 0 1 .114-.24l-2.556-2.844-1 .432-1.836-2.034.6-.876-3.2-3.594c-.042.012-.12.012-.162.024l.018 2.412 1.05.3v2.676l-1.05.288-.018 2.448a1.572 1.572 0 0 1 1.044 1l1.926.006.306-1h2.832l.3 1Zm-4.188-11.1v.966h1.656v-.966Zm-4.38 12.222a.664.664 0 1 0-.7-.66.678.678 0 0 0 .702.66Zm9.594-5.838-1.056-.288v-2.676l1.056-.3-.006-1.152a1.6 1.6 0 0 1-1.074-1h-1.606l-.306 1h-2.826l-.306-1h-1.854a1.867 1.867 0 0 1-.174.366l3.226 3.574 1-.426 1.836 2.04-.6.87 2.508 2.784c.054-.024.108-.048.168-.072Zm-4.35-.834-.774.624 1.062 1.188.774-.63Zm4.8 21.712a1.611 1.611 0 0 1-1.509-1.21 10.848 10.848 0 0 1-2.838-.78l.5-.858a9.658 9.658 0 0 0 2.448.666 1.586 1.586 0 0 1 .948-.84l.006-3.372-1.056-.294v-2.676l1.056-.288v-4.584a.528.528 0 0 1-.12-.054l-2.388 2.652.6.864-1.836 2.04-1-.426-1.98 2.2a1.461 1.461 0 0 1-.066 1.71 9.349 9.349 0 0 0 1.944 1.65l-.5.864a10.516 10.516 0 0 1-2.274-1.932 1.694 1.694 0 0 1-1.56-.3 1.485 1.485 0 0 1-.18-2.184l.084-.1a9.553 9.553 0 0 1-.792-3l1.026.006a8.389 8.389 0 0 0 .654 2.562 1.887 1.887 0 0 1 .876.1l1.992-2.208-.6-.87 1.836-2.04 1 .432 2.394-2.658a1.291 1.291 0 0 1-.126-.276l-1.656.006-.3 1h-2.832l-.306-1-1.944-.006a1.6 1.6 0 0 1-1.014.972l-.006 2.424-1.026-.006v-2.406a1.57 1.57 0 0 1-1.146-1.482 1.589 1.589 0 0 1 1.157-1.488l.006-2.43-1.056-.288v-2.676l1.056-.3v-2.43a1.559 1.559 0 0 1-1.1-1.47 1.592 1.592 0 0 1 1.638-1.548 1.636 1.636 0 0 1 1.566 1.068h1.848l.306-1h2.826l.306 1h1.608a1.624 1.624 0 0 1 1.535-1.068l.043 5.022h-.51v1.566h.507l-.011 12.954h-.47v1.566h.468Zm-3.548-10.984-.774-.624-1.068 1.188.774.624Zm-5.976-11.064h-1.014l-.006 1.566h1.02Zm5.5 6.846v-.96h-1.71v.96Zm-6.36 5.814-1.056-.234-.15-2.67 1.05-.348v1.536a9.506 9.506 0 0 0 .156 1.714Zm.876-3.312 1.05.246s.054 1.722.03 1.332c-.024-.444.114 1.344.114 1.344l-1.056.348a8.561 8.561 0 0 1-.144-1.674Zm6.486 10.158.234-1.02a8.592 8.592 0 0 1-2.5-1.254l-.756.666a9.957 9.957 0 0 0 3.024 1.608Zm-.51.864-.78.732a11.576 11.576 0 0 1-2.472-1.266l.228-1.062a10.959 10.959 0 0 0 3.024 1.596Z"/><path fill="#c8b100" stroke="#c8b100" stroke-width=".26" d="M183.855 183.684a1.755 1.755 0 0 0-.114-.24l2.556-2.844 1 .432 1.838-2.034-.6-.876 3.2-3.594c.042.012.12.012.162.024l-.018 2.412-1.05.3v2.676l1.05.288.022 2.448a1.572 1.572 0 0 0-1.044 1l-1.926.006-.306-1h-2.832l-.3 1Zm4.188-11.1v.962h-1.656v-.966Zm4.38 12.222a.664.664 0 1 1 0-1.326.664.664 0 1 1 0 1.326Zm-9.594-5.838 1.056-.288v-2.676l-1.056-.3.006-1.152a1.6 1.6 0 0 0 1.074-1h1.608l.306 1h2.826l.306-1h1.854a1.866 1.866 0 0 0 .174.366l-3.228 3.576-1-.426-1.838 2.038.6.87-2.508 2.784c-.054-.024-.108-.048-.168-.072Zm4.35-.834.774.624-1.062 1.188-.774-.63Zm-4.803 21.712a1.611 1.611 0 0 0 1.509-1.21 10.848 10.848 0 0 0 2.838-.78l-.5-.858a9.657 9.657 0 0 1-2.456.666 1.586 1.586 0 0 0-.948-.84l-.006-3.372 1.056-.294v-2.676l-1.056-.288v-4.584a.529.529 0 0 0 .12-.054l2.392 2.652-.6.864 1.836 2.04 1-.426 1.98 2.2a1.461 1.461 0 0 0 .066 1.71 9.348 9.348 0 0 1-1.94 1.65l.5.864a10.515 10.515 0 0 0 2.276-1.93 1.694 1.694 0 0 0 1.56-.3 1.485 1.485 0 0 0 .18-2.184l-.084-.1a9.554 9.554 0 0 0 .792-3l-1.024.01a8.389 8.389 0 0 1-.654 2.562 1.886 1.886 0 0 0-.876.1l-1.994-2.212.6-.87-1.836-2.04-1 .432-2.394-2.658a1.29 1.29 0 0 0 .126-.276l1.654.002.3 1h2.832l.306-1h1.944a1.6 1.6 0 0 0 1.014.972l.006 2.424 1.026-.006v-2.406a1.57 1.57 0 0 0 1.146-1.484 1.588 1.588 0 0 0-1.152-1.488l-.006-2.43 1.058-.288v-2.676l-1.056-.3v-2.43a1.559 1.559 0 0 0 1.1-1.47 1.592 1.592 0 0 0-1.636-1.548 1.636 1.636 0 0 0-1.566 1.068h-1.854l-.306-1h-2.826l-.306 1h-1.608a1.624 1.624 0 0 0-1.535-1.068l-.043 5.022h.51v1.566h-.507l.013 12.954h.47v1.566h-.468Zm3.549-10.984.774-.624 1.068 1.188-.774.62Zm5.976-11.064h1.014l.006 1.566h-1.02Zm-5.5 6.846v-.96h1.714v.962Zm6.366 5.814 1.054-.234.146-2.67-1.05-.348v1.54a9.507 9.507 0 0 1-.15 1.712Zm-.878-3.312-1.05.246s-.054 1.722-.03 1.332c.024-.444-.114 1.344-.114 1.344l1.056.348a8.561 8.561 0 0 0 .144-1.67Zm-6.486 10.158-.236-1.02a8.591 8.591 0 0 0 2.5-1.254l.76.666a9.957 9.957 0 0 1-3.024 1.608Zm.51.864.78.732a11.573 11.573 0 0 0 2.474-1.266l-.23-1.062a10.961 10.961 0 0 1-3.024 1.6Z" data-name="Path 337"/><path fill="#058e6e" d="M180.777 184.164a1.644 1.644 0 1 1 1.644 1.548 1.6 1.6 0 0 1-1.644-1.548" data-name="Path 338"/><path fill="#ad1519" stroke="#000" stroke-width=".52" d="M137.295 168.75h30.108v-33.432h-30.108Z" data-name="Path 339"/><path fill="#c8b100" stroke="#000" stroke-width=".46" d="M147.627 143.046h-.552v-.552h-.972v2.214h.972v1.53h-2.082v4.434h1.11v8.874h-2.22v4.578h17.052v-4.578h-2.214v-8.874h1.11v-4.434h-2.082v-1.53h.972v-2.214h-.972v.552h-.558v-.552h-.966v.552h-.7v-.552h-.972v2.214h.972v1.53h-2.072v-4.854h1.1v-2.22h-1.1v.558h-.558v-.558h-.972v.558h-.552v-.558h-1.11v2.22h1.11v4.854h-2.082v-1.53h.972v-2.214h-.972v.552h-.552v-.552h-1.11v.552Zm-3.744 21.078h17.052m-17.052-1.11h17.052m-17.052-1.11h17.052m-17.052-1.11h17.052m-17.052-1.248h17.052m-14.832-.972h12.618m-12.618-1.11h12.618m-12.618-1.248h12.618m-12.618-1.1h12.618m-12.618-1.11h12.618m-12.618-1.11h12.618m-12.618-1.11h12.618m-13.728-1.11h14.838m-14.838-1.11h14.838m-14.838-1.11h14.838m-14.838-1.1h14.838m-12.756-1.11h10.674m-6.378-1.11h2.082m-2.082-1.11h2.082m-2.082-1.11h2.082m-2.082-1.11h2.082m-3.192-1.386h4.3m-7.482 4.716h2.214m-3.186-1.386h4.158m-4.162 20.374v-1.11m0-1.11v-1.11m-1.11 1.11v1.11m2.082 0v-1.11m1.1 2.22v-1.11m0-1.11v-1.11m0-1.248v-.972m0-1.11v-1.248m-1.1 4.578v-1.248m-2.082 1.248v-1.248m4.3 0v1.248m.972-1.248v-.972m-3.186-1.11v1.11m2.214-1.11v1.11m2.082-1.11v1.11m-1.11-1.11v-1.248m1.11-1.1v1.1m0-3.324v1.11m-1.11-2.22v1.11m1.11-2.22v1.11m-2.082-1.11v1.11m-2.214-1.11v1.11m-.972-2.22v1.11m2.076-1.11v1.11m2.082-1.11v1.11m1.11-2.22v1.11m-2.082-1.11v1.11m-2.214-1.11v1.11m-.972-2.214v1.1m4.158-1.1v1.1m-2.082-3.324v1.11m9.57-1.11h-2.22m3.192-1.386h-4.164m4.164 20.382v-1.11m0-1.11v-1.11m1.11 1.11v1.11m-2.082 0v-1.11m-1.11 2.22v-1.11m0-1.11v-1.11m0-1.248v-.972m0-1.11v-1.248m1.11 4.578v-1.248m2.082 1.248v-1.248m-4.3 0v1.248m-.972-1.248v-.972m3.192-1.11v1.11m-2.22-1.11v1.11m-2.076-1.11v1.11m1.1-1.11v-1.248m-1.1-1.1v1.1m0-3.324v1.11m1.1-2.22v1.11m-1.1-2.22v1.11m2.076-1.11v1.11m2.22-1.11v1.11m.972-2.22v1.11m-2.082-1.11v1.11m-2.082-1.11v1.11m-1.1-2.22v1.11m2.076-1.11v1.11m2.22-1.11v1.11m.972-2.214v1.1m-4.164-1.1v1.1m2.082-3.324v1.11m-4.3 11.226v-1.248m0-3.324v-1.11m0 3.33v-1.11m0-3.33v-1.11m0-1.11v-1.1m0-2.22v-1.11m0-1.11v-1.11m-5.268 2.91h2.214m2.082-3.324h2.082m2.076 3.324h2.22" data-name="Path 340"/><path fill="#c8b100" stroke="#000" stroke-width=".46" d="M155.253 164.124v-2.916c0-.552-.276-2.22-2.91-2.22-2.5 0-2.772 1.668-2.772 2.22v2.916Z" data-name="Path 341"/><path fill="#c8b100" stroke="#000" stroke-width=".46" d="m150.537 161.346-1.386-.138c0-.552.138-1.386.558-1.662l1.248.972a1.58 1.58 0 0 0-.42.828Z" data-name="Path 342"/><path fill="#c8b100" stroke="#000" stroke-width=".46" d="m152.895 159.96.7-1.248a3.327 3.327 0 0 0-1.248-.276 3.28 3.28 0 0 0-1.11.276l.69 1.248Z" data-name="Path 343"/><path fill="#c8b100" stroke="#000" stroke-width=".46" d="m154.281 161.346 1.386-.138c0-.552-.138-1.386-.552-1.662l-1.248.972a1.574 1.574 0 0 1 .414.828Z" data-name="Path 344"/><path fill="#c8b100" stroke="#000" stroke-width=".46" d="M150.263 156.498v-3.054a1.524 1.524 0 0 0-3.048 0v3.054Z" data-name="Path 345"/><path fill="#c8b100" stroke="#000" stroke-width=".46" d="M154.557 156.498v-3.054a1.527 1.527 0 0 1 3.054 0v3.054Z" data-name="Path 346"/><path fill="#c8b100" stroke="#000" stroke-width=".46" d="m149.289 149.008.138-2.772h-2.634l.282 2.772Z" data-name="Path 347"/><path fill="#c8b100" stroke="#000" stroke-width=".46" d="m153.453 149.008.276-2.772h-2.634l.138 2.772Z" data-name="Path 348"/><path fill="#c8b100" stroke="#000" stroke-width=".46" d="m155.529 149.008-.276-2.772h2.772l-.276 2.772Z" data-name="Path 349"/><g fill="#0039f0" data-name="Group 63"><path d="M154.281 164.124v-2.5a1.727 1.727 0 0 0-1.934-1.664 1.684 1.684 0 0 0-1.806 1.668v2.5h3.744Z" data-name="Path 350"/><path d="M149.985 156.216v-2.634a1.255 1.255 0 1 0-2.5 0v2.634Z" data-name="Path 351"/><path d="M154.839 156.216v-2.634a1.255 1.255 0 1 1 2.5 0v2.634Z" data-name="Path 352"/></g><g stroke="#000"><path fill="#ccc" stroke-width=".52" d="M167.391 168.75h30.192v-33.432h-30.192Z" data-name="Path 353"/><path fill="#db4446" stroke-width=".39" d="m182.781 143.556.03-.372.054-.2a5.623 5.623 0 0 1-1.476-.066 3.7 3.7 0 0 1-1.44-.75c-.474-.408-.66-.66-1-.708a2.321 2.321 0 0 0-1.44.24 2.731 2.731 0 0 1 1.068.786 2.946 2.946 0 0 0 1.17.918 13.043 13.043 0 0 0 1.932.042c.34.014 1.102.11 1.102.11Z" data-name="Path 354"/><g data-name="Group 64"><path fill="#ed72aa" stroke-width=".39" d="M187.3 142.2s.006.432.048.84-.132.744-.066.966a3.219 3.219 0 0 0 .18.558 2.216 2.216 0 0 1 .126.564s-.228-.168-.444-.324-.36-.264-.36-.264l.06.618a1.68 1.68 0 0 0 .306.744 3.735 3.735 0 0 1 .63.8 2.925 2.925 0 0 1 .084.864s-.276-.45-.522-.534a8.062 8.062 0 0 1-.756-.372 1.65 1.65 0 0 1 .474.93 3.228 3.228 0 0 1-.192.96 2.986 2.986 0 0 0-.5-.672 6.261 6.261 0 0 0-.678-.54 3.762 3.762 0 0 1 .312 1.17c0 .474-.09 1.482-.09 1.482a2.676 2.676 0 0 0-.474-.576 5 5 0 0 1-.612-.468 2.11 2.11 0 0 1 .324.7 6.4 6.4 0 0 0 1.152 2.814c.564.822 1.434 2.262 3.3 1.788s1.176-2.982.78-4.152a10.52 10.52 0 0 1-.564-2.922c.024-.45.348-1.782.306-2.034a5.061 5.061 0 0 1 .084-1.968 10.552 10.552 0 0 1 .57-1.44 3.659 3.659 0 0 0 .276-.8 7.72 7.72 0 0 0 .042-.822s.348.636.438.864a4.208 4.208 0 0 1 .084.9 1.457 1.457 0 0 1 .588-1 8.609 8.609 0 0 0 1.278-.864 1.36 1.36 0 0 0 .2-.306 4.031 4.031 0 0 1-.372 1.6c-.216.294-1.062 1.254-1.062 1.254a2.977 2.977 0 0 1 .738-.18 3.059 3.059 0 0 1 .522 0 4.588 4.588 0 0 0-.846.984c-.48.7-.282.756-.63 1.332s-.63.6-1.068.948c-.648.522-.3 2.6-.216 2.916a27.09 27.09 0 0 1 1.242 3.474 3.306 3.306 0 0 1-.96 2.88c-.7.57-1.842.576-2.106.738a1.994 1.994 0 0 0-.774 1.746 1.513 1.513 0 0 0 .69 1.506c.306.264.7.12.78.33a1.208 1.208 0 0 0 .264.45.5.5 0 0 1 .174.492c-.048.228-.546.738-.72 1.11a8.979 8.979 0 0 0-.522 1.482 1.675 1.675 0 0 0 .108.822s.546.636.174.756c-.24.084-.468-.15-.582-.12-.324.084-.5.282-.588.27-.216-.042-.216-.15-.24-.456s-.006-.432-.1-.432c-.132 0-.2.108-.222.27s-.024.534-.174.534-.366-.27-.5-.33-.5-.12-.522-.288a.732.732 0 0 1 .456-.576c.24-.06.456-.18.306-.306a.334.334 0 0 0-.456 0c-.15.126-.474.024-.456-.162a2.149 2.149 0 0 0 .042-.516c-.018-.1-.282-.306.06-.492s.5.162.852.1a.847.847 0 0 0 .648-.39.829.829 0 0 0-.132-.9c-.234-.27-.474-.312-.564-.48a5.777 5.777 0 0 1-.216-.552 4.981 4.981 0 0 1 .024.822 2.5 2.5 0 0 0-.024.534s-.234-.27-.432-.474a3.07 3.07 0 0 1-.39-.822s-.018.576-.018.8.258.432.174.516-.5-.432-.612-.516a2.3 2.3 0 0 1-.606-.636 4.855 4.855 0 0 1-.306-.846 2.638 2.638 0 0 1-.042-.948c.108-.24.282-.678.282-.678h-.846c-.456 0-.78-.138-.954.168a2.763 2.763 0 0 0 .126 1.728 3.873 3.873 0 0 1 .288 1.332 1.914 1.914 0 0 1-.456.534.817.817 0 0 1-.546-.018 1.585 1.585 0 0 0-.756-.162 5.091 5.091 0 0 1-.822-.018c-.156-.042-.528-.228-.7-.186s-.474.192-.39.432c.132.366-.126.45-.306.432a4.627 4.627 0 0 1-.54-.144c-.216-.066-.54 0-.5-.252s.132-.264.24-.444.15-.312.024-.324a.557.557 0 0 0-.42.066c-.12.1-.306.306-.456.228s-.276-.258-.276-.648-.408-.72-.03-.7.846.288.93.078.036-.306-.168-.468-.456-.258-.186-.462a5.247 5.247 0 0 0 .444-.324c.1-.108.246-.474.438-.384.372.18.012.438.39.852a1.193 1.193 0 0 0 1.236.5c.624-.066.8-.144.8-.324a5.785 5.785 0 0 0-.072-.624 3.828 3.828 0 0 1 .09-.594 1.282 1.282 0 0 0-.378.354c-.078.174-.252.48-.252.48a3.238 3.238 0 0 1-.048-.654c.012-.174.072-.474.066-.534a5.117 5.117 0 0 0-.138-.564 3.387 3.387 0 0 1-.168.564 2.948 2.948 0 0 0-.1.642 1.014 1.014 0 0 1-.288-.93c.078-.45-.072-1.044.066-1.236s.45-.984 1.236-1.014 1.386.03 1.662.018 1.236-.2 1.236-.2-1.782-.912-2.184-1.188a5.974 5.974 0 0 1-1.242-1.3 4.963 4.963 0 0 1-.39-.948 1.542 1.542 0 0 0-.612.174 3.08 3.08 0 0 0-.744.594 6.509 6.509 0 0 0-.438.63s.048-.564.048-.738-.036-.516-.036-.516a2.21 2.21 0 0 1-.606 1.056c-.408.294-.882.69-.882.69s.048-.426.048-.528.1-.594.1-.594a1.3 1.3 0 0 1-.726.516c-.444.078-1.086.066-1.14.336s.12.642.018.834a.987.987 0 0 1-.324.324 1.069 1.069 0 0 0-.474-.228.87.87 0 0 0-.426.1s-.186-.24-.114-.4.4-.4.324-.5-.36.036-.528.114-.528.162-.492-.114.12-.432.03-.624-.03-.318.108-.366.672.012.726-.114-.132-.288-.492-.366-.528-.294-.342-.468a1.246 1.246 0 0 0 .324-.384c.084-.162.12-.456.444-.306s.252.5.594.606a2.544 2.544 0 0 0 1.3-.144c.168-.1.714-.5.9-.594s.966-.672.966-.672-.456-.318-.63-.48a5.643 5.643 0 0 0-.624-.63 5.515 5.515 0 0 0-1.152-.384 6.621 6.621 0 0 1-1.032-.288 2.19 2.19 0 0 0 .474-.21c.114-.1.384-.336.522-.318s.168.012.168.012a7.533 7.533 0 0 1-.872-.082 4.471 4.471 0 0 0-.762-.324 3.715 3.715 0 0 0-.5.066 2.882 2.882 0 0 1 .828-.354 3.647 3.647 0 0 1 .66-.048 1.918 1.918 0 0 1-.714-.348c-.132-.2-.27-.48-.372-.612s-.168-.336-.354-.354-.51.228-.7.21-.324-.132-.342-.4 0-.18-.06-.324-.342-.48-.09-.558.8.048.852-.048-.288-.39-.51-.5-.576-.306-.39-.468.372-.222.474-.366.222-.546.444-.42.522.756.7.708.18-.5.15-.69 0-.528.168-.5.306.258.576.276.678-.066.642.126a1.452 1.452 0 0 1-.372.636.968.968 0 0 0-.15.9 2.378 2.378 0 0 0 .7.888c.27.174.78.306 1.1.51a9.9 9.9 0 0 0 1.32.87 3.206 3.206 0 0 1 .51.192 1.857 1.857 0 0 1 .678-.126 6.066 6.066 0 0 0 1.626-.084c.342-.144.78-.384.648-.69s-.882-.576-.816-.816.342-.258.8-.276 1.08.084 1.2-.564.156-1.008-.486-1.152-1.122-.162-1.242-.624-.234-.582-.1-.708a1.374 1.374 0 0 1 .846-.222 3.828 3.828 0 0 0 1.176-.15c.15-.108.18-.414.366-.546a3.911 3.911 0 0 1 .918-.24 11.9 11.9 0 0 1 1.668 1.03 9.212 9.212 0 0 1 1.38 1.338" data-name="Path 355"/><path fill="none" stroke-width=".39" d="M178.624 146.034a1.419 1.419 0 0 0-.66.4 1.12 1.12 0 0 0-.2.642 1.127 1.127 0 0 1 .936-.2c.522.144.576.2.8.18a4.8 4.8 0 0 0 .762-.21s-.444.516-.39.87a4.5 4.5 0 0 1 .1.69 2.773 2.773 0 0 1-.36.966 2.22 2.22 0 0 1 .63-.21 2.761 2.761 0 0 0 1.05-.486 3.44 3.44 0 0 0 .54-.612 2.416 2.416 0 0 0 0 .852 5.039 5.039 0 0 1 .138 1 3.233 3.233 0 0 1 .51-.372 1.634 1.634 0 0 0 .54-.42 3.387 3.387 0 0 0 .192-.636 2.5 2.5 0 0 0 .234.8 6.575 6.575 0 0 1 .42 1.044 2.812 2.812 0 0 1 .36-.726 1.638 1.638 0 0 0 .42-.642 2.5 2.5 0 0 0-.048-.51l.234.51m-6.846.366a2.309 2.309 0 0 1 .558-.66c.276-.156.648-.444.75-.48s.54-.276.54-.276m.594 3.1s.654-.33.846-.45a2.485 2.485 0 0 0 .7-.672" data-name="Path 356"/><path fill="none" stroke-width=".26" d="M186.765 144.54a4.627 4.627 0 0 1-.252-.39c-.054-.09-.138-.288-.138-.288" data-name="Path 357"/><path fill="none" stroke-width=".39" d="M184.221 154.446s1.224.756 1.188 1.386a3.438 3.438 0 0 1-.678 1.446" data-name="Path 358"/></g><path stroke-width=".26" d="M181.053 141.744s-.1-.288-.12-.372a.81.81 0 0 0-.072-.174s.528 0 .51.162-.168.162-.2.222a.9.9 0 0 1-.114.162Z" data-name="Path 359"/><path stroke-width=".05" d="m183.459 140.91-.036-.258a1.47 1.47 0 0 1 .678.156 1.681 1.681 0 0 1 .546.63c-.06.054-.324-.162-.51-.222a1.47 1.47 0 0 1-.27.03c-.138 0-.2-.066-.222-.126a.4.4 0 0 1 .018-.18Z" data-name="Path 360"/><g stroke-width=".26" data-name="Group 65"><path d="m181.071 144.084.2-.318.2.294-.4.024" data-name="Path 361"/><path d="m181.557 144.072.24-.318.258.288-.5.03" data-name="Path 362"/><path d="m181.341 142.098.492.174-.444.228-.048-.4" data-name="Path 363"/><path d="m181.935 142.26.438.108-.354.276-.084-.384" data-name="Path 364"/></g><g fill="#db4446" stroke-width=".39" data-name="Group 66"><path d="M174.351 141.648a1.582 1.582 0 0 0 .51.24 4 4 0 0 0 .492.03 1.022 1.022 0 0 0 .066-.546 1.105 1.105 0 0 0-.78-.882s.2.438.1.642a1.921 1.921 0 0 1-.39.516Z" data-name="Path 365"/><path d="M172.977 142.272a.84.84 0 0 0-.8-.4 1.563 1.563 0 0 0-.9.486 2.326 2.326 0 0 1 .75.078.886.886 0 0 1 .288.516 2.1 2.1 0 0 0 .426-.324c.1-.126.234-.354.234-.354Z" data-name="Path 366"/><path d="M172.317 144.15a1 1 0 0 0-.93 1.194 1.025 1.025 0 0 1 .57-.324 4 4 0 0 1 .7.1 2.076 2.076 0 0 1-.132-.48 1.614 1.614 0 0 0-.2-.486Z" data-name="Path 367"/><path d="M173.859 150.222a.789.789 0 0 0-.7-.192 1.29 1.29 0 0 0-.732.582 1.58 1.58 0 0 1 .6-.048.733.733 0 0 1 .372.27 2.18 2.18 0 0 0 .27-.27c.07-.096.19-.342.19-.342Z" data-name="Path 368"/><path d="M173.349 152.004a.963.963 0 0 0-.7.2 1.126 1.126 0 0 0-.336.75.9.9 0 0 1 .546-.222 2.207 2.207 0 0 1 .522.162s.048-.306.066-.384a.834.834 0 0 0-.1-.5Z" data-name="Path 369"/><path d="M174.219 153.648a1.308 1.308 0 0 0 .2.768 1.108 1.108 0 0 0 .678.354 2.643 2.643 0 0 1-.168-.48.588.588 0 0 1 .2-.45.768.768 0 0 0-.438-.228 3.937 3.937 0 0 0-.474.036Z" data-name="Path 370"/><path d="M178.623 157.872a1.018 1.018 0 0 0-.726-.372 1.72 1.72 0 0 0-.87.414s.528-.042.666.132a4.824 4.824 0 0 1 .27.4 2.777 2.777 0 0 0 .342-.21 2.921 2.921 0 0 0 .318-.364Z" data-name="Path 371"/><path d="M177.321 159.558a1.082 1.082 0 0 0-.834.21 1.308 1.308 0 0 0-.252.816s.336-.366.642-.336a2.337 2.337 0 0 1 .648.192s-.054-.318-.09-.468-.114-.414-.114-.414Z" data-name="Path 372"/><path d="M178.527 161.34s-.276.384-.072.69a1.392 1.392 0 0 0 .63.45.619.619 0 0 1-.084-.48c.054-.2.4-.48.4-.48l-.876-.18Z" data-name="Path 373"/><path d="M185.963 162.066a1.272 1.272 0 0 0-.762.048c-.27.156-.492.834-.492.834s.444-.372.768-.324a1.856 1.856 0 0 1 .558.18 1.628 1.628 0 0 0 .012-.468 1.458 1.458 0 0 0-.084-.27Z" data-name="Path 374"/><path d="M186.207 163.86s-.372.384-.24.708a4.344 4.344 0 0 0 .372.66s-.012-.48.138-.612a1.28 1.28 0 0 1 .63-.222 2.833 2.833 0 0 0-.426-.324 6.304 6.304 0 0 1-.474-.21Z" data-name="Path 375"/><path d="M188.073 164.424a.707.707 0 0 0 .168.768 1.307 1.307 0 0 0 .666.342s-.276-.486-.192-.738a.95.95 0 0 1 .324-.432 2.712 2.712 0 0 0-.51-.132c-.066.012-.456.192-.456.192Z" data-name="Path 376"/></g><g data-name="Group 68"><path fill="#c8b100" stroke-width=".26" d="m186.955 139.626-.174.012a.894.894 0 0 1-.156.21.377.377 0 0 1-.516.042.292.292 0 0 1-.084-.246.3.3 0 0 1-.306-.006.332.332 0 0 1-.084-.474.328.328 0 0 1 .066-.108l-.012-.192-.21.048-.06.114a.32.32 0 0 1-.42.1.316.316 0 0 1-.078-.162.222.222 0 0 1-.1.066c-.324.078-.45-.63-.462-.81l-.1.15a2.583 2.583 0 0 1 .048.78 4.211 4.211 0 0 1-.174.714 5.741 5.741 0 0 1 1.782.99 5.68 5.68 0 0 1 1.4 1.452 4.511 4.511 0 0 1 .708-.306 3.337 3.337 0 0 1 .816-.12l.132-.126c-.192.03-.948.06-.936-.258a.179.179 0 0 1 .048-.108.418.418 0 0 1-.18-.036c-.108-.078-.108-.258.012-.414l.108-.078.006-.2-.2.03c-.018.024-.066.054-.09.078a.38.38 0 0 1-.516.018.25.25 0 0 1-.066-.276.348.348 0 0 1-.27-.03.328.328 0 0 1-.066-.48.8.8 0 0 1 .186-.192l-.042-.18h-.01Z" data-name="Path 377"/><g stroke-width=".05" data-name="Group 67"><path d="M185.601 140.04c.03-.042.09-.036.138 0a.1.1 0 0 1 .036.126.1.1 0 0 1-.144-.006c-.042-.03-.06-.09-.03-.12Z" data-name="Path 378"/><path d="m186.171 140.514-.2-.15a.072.072 0 0 1-.024-.1.09.09 0 0 1 .108 0l.2.156.2.15c.03.024.048.072.024.1a.09.09 0 0 1-.108 0l-.2-.156" data-name="Path 379"/><path d="m185.124 139.8-.156-.09a.08.08 0 0 1-.042-.1.073.073 0 0 1 .1-.012l.156.1.156.09a.084.084 0 0 1 .042.1.073.073 0 0 1-.1.012l-.156-.09" data-name="Path 380"/><path d="M184.503 139.374a.109.109 0 0 1 .144 0c.048.042.06.1.03.132a.109.109 0 0 1-.138-.006.1.1 0 0 1-.036-.126Z" data-name="Path 381"/><path d="M186.801 140.952c.03-.03.018-.084-.03-.126a.109.109 0 0 0-.144 0 .1.1 0 0 0 .036.126.1.1 0 0 0 .138 0Z" data-name="Path 382"/><path d="m187.144 141.348.132.126a.085.085 0 0 0 .108.018.067.067 0 0 0-.006-.1l-.126-.126-.132-.126c-.03-.03-.084-.042-.108-.018s-.024.066.006.1l.126.126" data-name="Path 383"/><path d="M187.713 141.834a.087.087 0 0 0-.03-.126.1.1 0 0 0-.138-.006c-.03.036-.018.09.03.132a.108.108 0 0 0 .138 0Z" data-name="Path 384"/></g><path fill="#c8b100" stroke-width=".26" d="m186.063 138.216-.354.006-.066.522.036.084.09-.006.456-.306-.162-.3" data-name="Path 385"/><path fill="#c8b100" stroke-width=".26" d="m186.063 138.216-.354.006-.066.522.036.084.09-.006.456-.306-.162-.3" data-name="Path 386"/><path fill="#c8b100" stroke-width=".26" d="m185.103 138.504-.012.324.552.072.09-.042-.012-.09-.318-.426-.3.162" data-name="Path 387"/><path fill="#c8b100" stroke-width=".26" d="m186.243 139.152-.294.162-.324-.426-.006-.09.084-.036.558.066-.018.324" data-name="Path 388"/><path fill="#c8b100" stroke-width=".26" d="M185.529 138.752a.173.173 0 0 1 .234-.054.154.154 0 0 1 .06.222.173.173 0 0 1-.234.054.156.156 0 0 1-.06-.222Z" data-name="Path 389"/><path fill="#c8b100" stroke-width=".26" d="M184.239 138.209c-.012.006-.078-.276-.156-.426a.932.932 0 0 0-.234-.258.5.5 0 0 1 .522.054c.228.186-.018.522-.018.522a.321.321 0 0 1-.114.108Z" data-name="Path 390"/><path fill="#c8b100" stroke-width=".26" d="m184.857 138.396-.252.222-.408-.36.036-.048.018-.09.552-.042.054.318" data-name="Path 391"/><path fill="#c8b100" stroke-width=".26" d="M184.167 138.174a.153.153 0 0 1 .168-.12c.066.024.09.108.06.2a.155.155 0 0 1-.174.12c-.066-.026-.09-.108-.054-.2Z" data-name="Path 392"/><path fill="#c8b100" stroke-width=".26" d="m187.425 139.062-.354-.036-.15.51.03.084.09.006.5-.246-.114-.318" data-name="Path 393"/><path fill="#c8b100" stroke-width=".26" d="m186.429 139.218-.06.324.54.138.09-.024.006-.084-.258-.474-.318.12" data-name="Path 394"/><path fill="#c8b100" stroke-width=".26" d="m187.461 140.016-.318.12-.252-.468.006-.09.09-.018.534.138-.06.318" data-name="Path 395"/><path fill="#c8b100" stroke-width=".26" d="M186.813 139.524a.177.177 0 0 1 .24-.024.153.153 0 0 1 .03.228.184.184 0 0 1-.246.024.157.157 0 0 1-.024-.228Z" data-name="Path 396"/><path fill="#c8b100" stroke-width=".26" d="m188.607 140.166.066.33-.522.18-.1-.024-.006-.084.216-.486.342.084" data-name="Path 397"/><path fill="#c8b100" stroke-width=".26" d="m188.517 141.12-.336.078-.186-.5.024-.09.09-.012.51.21-.1.312" data-name="Path 398"/><path fill="#c8b100" stroke-width=".26" d="m187.607 140.196-.108.312.51.2.1-.012.018-.084-.18-.5-.336.078" data-name="Path 399"/><path fill="#c8b100" stroke-width=".26" d="M188.169 140.778a.164.164 0 0 0 .012-.234.191.191 0 0 0-.246-.012.163.163 0 0 0-.006.234.176.176 0 0 0 .24.012Z" data-name="Path 400"/><path fill="#c8b100" stroke-width=".26" d="M188.997 141.858c0 .006.3.018.474.054a1.142 1.142 0 0 1 .312.162c.036-.024.072-.252-.168-.474-.234-.168-.528.132-.528.132a.449.449 0 0 0-.09.126Z" data-name="Path 401"/><path fill="#c8b100" stroke-width=".26" d="m188.673 141.324-.174.276.456.306.054-.048.078-.024-.072-.528-.342.018" data-name="Path 402"/><path fill="#c8b100" stroke-width=".26" d="M189.045 141.917c.084-.042.126-.132.09-.186a.166.166 0 0 0-.216-.012c-.084.048-.12.132-.084.186s.126.06.21.012Z" data-name="Path 403"/></g></g><g stroke="#000" transform="translate(157.725 157.626)"><ellipse cx="9.756" cy="10.98" fill="#ad1519" stroke-width=".61" data-name="Ellipse 98" rx="9.756" ry="10.98"/><ellipse cx="6.864" cy="8.052" fill="#005bbf" stroke-width=".61" data-name="Ellipse 99" rx="6.864" ry="8.052" transform="translate(2.898 2.904)"/><g fill="#c8b100" stroke-width=".34"><path stroke-linejoin="round" d="M6.516 5.418a3.177 3.177 0 0 0-.81 1.716 3.82 3.82 0 0 0 .342 1.524.9.9 0 0 0-.846-.564.874.874 0 0 0-.9.852 1.258 1.258 0 0 0 .144.462l.294.594a.609.609 0 0 1 .588-.342.63.63 0 0 1 .648.606.414.414 0 0 1-.024.15l-.732.006v.618h.654l-.486.966.642-.252.486.546.5-.546.642.252-.48-.966h.648v-.618l-.732-.006a.608.608 0 0 1-.012-.15.619.619 0 0 1 .636-.606.609.609 0 0 1 .588.342l.294-.594a1.258 1.258 0 0 0 .144-.462.873.873 0 0 0-.894-.852.885.885 0 0 0-.846.564 3.819 3.819 0 0 0 .342-1.524 3.145 3.145 0 0 0-.83-1.716Z" data-name="Path 404"/><path d="M5.22 11.042h2.616v-.618H5.22Z" data-name="Path 405"/></g><g fill="#c8b100" stroke-width=".34" data-name="Group 69"><path stroke-linejoin="round" d="M12.894 5.418a3.177 3.177 0 0 0-.81 1.716 3.82 3.82 0 0 0 .342 1.524.9.9 0 0 0-.846-.564.874.874 0 0 0-.9.852 1.258 1.258 0 0 0 .144.462l.294.594a.609.609 0 0 1 .588-.342.63.63 0 0 1 .648.606.414.414 0 0 1-.024.15l-.732.006v.618h.654l-.486.966.642-.252.486.546.5-.546.642.252-.48-.966h.648v-.618l-.732-.006a.608.608 0 0 1-.012-.15.619.619 0 0 1 .636-.606.609.609 0 0 1 .588.342l.294-.594a1.258 1.258 0 0 0 .144-.462.873.873 0 0 0-.894-.852.885.885 0 0 0-.846.564 3.819 3.819 0 0 0 .342-1.524 3.145 3.145 0 0 0-.83-1.716Z" data-name="Path 406"/><path d="M11.598 11.042h2.616v-.618h-2.616Z" data-name="Path 407"/></g><g fill="#c8b100" stroke-width=".34" data-name="Group 70"><path stroke-linejoin="round" d="M9.702 10.902a3.177 3.177 0 0 0-.81 1.716 3.82 3.82 0 0 0 .342 1.524.9.9 0 0 0-.846-.564.874.874 0 0 0-.9.852 1.258 1.258 0 0 0 .144.462l.294.594a.609.609 0 0 1 .588-.342.63.63 0 0 1 .648.606.414.414 0 0 1-.024.15l-.732.006v.618h.654l-.486.966.642-.252.486.546.5-.546.642.252-.48-.966h.648v-.618l-.732-.006a.608.608 0 0 1-.012-.15.619.619 0 0 1 .636-.606.609.609 0 0 1 .588.342l.294-.594a1.258 1.258 0 0 0 .144-.462.873.873 0 0 0-.894-.852.885.885 0 0 0-.846.564 3.819 3.819 0 0 0 .342-1.524 3.145 3.145 0 0 0-.83-1.716Z" data-name="Path 408"/><path d="M8.406 16.526h2.616v-.618H8.406Z" data-name="Path 409"/></g></g></g></svg>