<svg xmlns="http://www.w3.org/2000/svg" xmlns:xlink="http://www.w3.org/1999/xlink" width="512" height="300" viewBox="0 0 512 300"><defs><clipPath id="b"><rect width="512" height="300"/></clipPath></defs><g id="a" clip-path="url(#b)"><g transform="translate(0 -0.5)"><rect width="512" height="300" transform="translate(0 0.7)" fill="#e0193a"/><path d="M74.7,0c41.2,0,74.7,33.691,74.7,75.35,0,41.559-33.4,75.35-74.7,75.35C33.5,150.7,0,117.009,0,75.35.1,33.792,33.5,0,74.7,0" transform="translate(74.6 75.3)" fill="#fff"/><path d="M59.7,0A59.7,59.7,0,1,1,0,59.7,59.727,59.727,0,0,1,59.7,0" transform="translate(108.3 90.95)" fill="#e0193a"/><path d="M0,6.2,35.5,17.7,41.3,0Z" transform="translate(212.4 144.462)" fill="#fff"/><path d="M0,11.5,35.5,0l5.8,17.7Z" transform="translate(212.4 139.137)" fill="#fff"/><path d="M0,0V37.3H18.7Z" transform="translate(238.2 115.066)" fill="#fff"/><path d="M0,0,22,30.2,6.9,41.2Z" transform="translate(238.2 115.075)" fill="#fff"/><path d="M0,41.2,22,11,6.9,0Z" transform="translate(238.2 145.025)" fill="#fff"/><path d="M0,37.3V0H18.7Z" transform="translate(238.2 148.934)" fill="#fff"/><path d="M35.5,0,0,11.5,5.7,29.2Z" transform="translate(244.5 128.715)" fill="#fff"/><path d="M37.1,0l-22,30.2L0,19.2Z" transform="translate(242.9 128.717)" fill="#fff"/><path d="M37.1,30.2,15.1,0,0,11Z" transform="translate(242.9 142.383)" fill="#fff"/><path d="M35.5,29.2,0,17.7,5.7,0Z" transform="translate(244.5 143.385)" fill="#fff"/></g></g></svg>