<svg xmlns="http://www.w3.org/2000/svg" width="512" height="300"><defs><clipPath id="a"><path d="M0 0h512v300H0z"/></clipPath></defs><g clip-path="url(#a)" data-name="turkey"><path fill="#e0193a" d="M0 .2h512v300H0z"/><path fill="#fff" d="M149.3 74.8c41.2 0 74.7 33.691 74.7 75.35 0 41.559-33.4 75.35-74.7 75.35-41.2 0-74.7-33.691-74.7-75.35.1-41.558 33.5-75.35 74.7-75.35"/><path fill="#e0193a" d="M168 90.45a59.7 59.7 0 1 1-59.7 59.7 59.727 59.727 0 0 1 59.7-59.7" data-name="Path"/><path fill="#fff" d="m212.4 150.162 35.5 11.5 5.8-17.7Z" data-name="Path"/><path fill="#fff" d="m212.4 150.137 35.5-11.5 5.8 17.7Z" data-name="Path"/><path fill="#fff" d="M238.2 114.566v37.3h18.7Z" data-name="Path"/><path fill="#fff" d="m238.2 114.575 22 30.2-15.1 11Z" data-name="Path"/><path fill="#fff" d="m238.2 185.725 22-30.2-15.1-11Z" data-name="Path"/><path fill="#fff" d="M238.2 185.734v-37.3h18.7Z" data-name="Path"/><path fill="#fff" d="m280 128.215-35.5 11.5 5.7 17.7Z" data-name="Path"/><path fill="#fff" d="m280 128.217-22 30.2-15.1-11Z" data-name="Path"/><path fill="#fff" d="m280 172.083-22-30.2-15.1 11Z" data-name="Path"/><path fill="#fff" d="m280 172.085-35.5-11.5 5.7-17.7Z" data-name="Path"/></g></svg>