<svg xmlns="http://www.w3.org/2000/svg" width="512" height="300"><defs><clipPath id="b"><path fill="#2f4ba1" d="M0 0v300h512V0Z" data-name="Path 7"/></clipPath><clipPath id="c"><path d="M256 150h256v150Zm0 0v150H0Zm0 0H0V0Zm0 0V0h256Z" data-name="Path 4"/></clipPath><clipPath id="a"><path d="M0 0h512v300H0z"/></clipPath></defs><g clip-path="url(#a)"><g clip-path="url(#b)"><path fill="#2f4ba1" d="M0 0v300h512V0Z" data-name="Path 1"/><path stroke="#fff" stroke-width="51.2" d="m0 0 512 300m0-300L0 300" data-name="Path 2"/><g clip-path="url(#c)" data-name="Group 1"><path fill="#e0193a" stroke="#e0193a" stroke-width="34.133" d="m0 0 512 300m0-300L0 300" data-name="Path 3"/></g><path stroke="#fff" stroke-width="85.333" d="M256 0v300M0 150h512" data-name="Path 5"/><path stroke="#e0193a" stroke-width="51.2" d="M256 0v300M0 150h512" data-name="Path 6"/></g></g></svg>