<svg xmlns="http://www.w3.org/2000/svg" width="512" height="300"><defs><clipPath id="a"><path d="M0 0h512v300H0z"/></clipPath></defs><g clip-path="url(#a)"><path fill="#fff" d="M0 0h512v300H0Z" data-name="Path 1437"/><g fill="#2f4ba1" data-name="Group 206"><path d="M166 33.333h346v33.333H166Z" data-name="Path 1438"/><path d="M166 100h346v33.333H166Z" data-name="Path 1439"/><path d="M0 166.666h512v33.333H0Z" data-name="Path 1440"/><path d="M0 233.333h512v33.333H0Z" data-name="Path 1441"/></g><g data-name="Group 226" transform="translate(22.833 20.57)"><g data-name="Group 223"><g data-name="Group 221"><path fill="#fcd116" stroke="#7b3f00" stroke-linecap="square" stroke-miterlimit="20" stroke-width="2.309" d="m56.727 79.059 5.517 8.238c-22.671 16.406-8.83 26.108-24.9 31.36 9.992-9.752-1.321-11.256 7.1-31.581" data-name="Path 1442"/><g stroke="#7b3f00" stroke-miterlimit="20" data-name="Group 207"><path fill="#fcd116" stroke-linecap="square" stroke-width="2.31" d="m46.308 71.618-1.924 9.727c-27.631-4.429-24.705 12.218-39.779 4.57 13.961.171 7.34-9.016 27.666-17.435" data-name="Path 1443"/><path fill="#7b3f00" stroke-linecap="square" stroke-width="1.051" d="m46.309 71.62-4.354-.784.044.18c-11.613 2.845-17.92 7.661-22.858 11.32a28.892 28.892 0 0 1-6.914 4.227 10.373 10.373 0 0 1-4.796.58c11.988 4.257 11.193-9.925 36.955-5.794Z" data-name="Path 1444"/><path fill="none" stroke-width="2.31" d="M41.868 70.481C18.446 76.214 16.23 90.031 4.604 85.916" data-name="Path 1445"/></g><path fill="#fcd116" stroke="#7b3f00" stroke-miterlimit="20" stroke-width="2.309" d="m60.5 62.763-7.778-7.778-35 50.558 50.558-35-7.778-7.778-42.78 42.78" data-name="Path 1446"/><g data-name="Group 220"><g data-name="Group 209"><g stroke="#7b3f00" stroke-miterlimit="20" data-name="Group 208"><path fill="#fcd116" stroke-linecap="square" stroke-width="2.3105313" d="m44.2 58.994-8.243 5.517c-16.403-22.683-26.11-8.842-31.36-24.913 9.752 9.997 11.353-1.3 31.681 7.126" data-name="Path 1447"/><path fill="#7b3f00" stroke-linecap="square" stroke-width="1.0512417299999999" d="m44.2 58.992-2.524-3.634-.095.158c-10.226-6.204-18.092-7.26-24.172-8.166a28.899 28.899 0 0 1-7.88-1.903 10.375 10.375 0 0 1-3.801-2.983c5.464 11.491 14.936.9 30.23 22.047Z" data-name="Path 1448"/><path fill="none" stroke-width="2.3105313" d="M41.866 55.045C21.248 42.529 9.908 50.731 4.598 39.598" data-name="Path 1449"/></g><path fill="#fcd116" stroke="#7b3f00" stroke-miterlimit="20" stroke-width="2.31" d="M60.5 62.763v-11l-60.5 11 60.5 11v-11H0" data-name="Path 1450"/><path fill="#7b3f00" d="M60.5 62.763H0l60.5 11" data-name="Path 1451"/></g><g data-name="Group 211"><g stroke="#7b3f00" stroke-miterlimit="20" data-name="Group 210"><path fill="#fcd116" stroke-linecap="square" stroke-width="2.3105313" d="m51.643 48.57-9.729-1.926C46.352 19.007 29.7 21.93 37.352 6.854c-.174 13.965 9.489 8.461 17.905 28.794" data-name="Path 1452"/><path fill="#7b3f00" stroke-linecap="square" stroke-width="1.0512417299999999" d="m51.64 48.572.787-4.355-.18.044c-2.844-11.617-7.66-17.925-11.317-22.866a28.899 28.899 0 0 1-4.226-6.917 10.375 10.375 0 0 1-.579-4.798c-4.262 11.99 9.923 11.199 5.785 36.965Z" data-name="Path 1453"/><path fill="none" stroke-width="2.3105313" d="M52.781 44.13C47.053 20.7 33.234 18.482 37.352 6.855" data-name="Path 1454"/></g><path fill="#fcd116" stroke="#7b3f00" stroke-miterlimit="20" stroke-width="2.31" d="m60.5 62.764 7.779-7.779L17.72 19.984l35.002 50.558 7.778-7.778-42.78-42.78" data-name="Path 1455"/><path fill="#7b3f00" d="m60.5 62.764-42.78-42.78 35.002 50.558" data-name="Path 1456"/></g><g data-name="Group 215"><g stroke="#7b3f00" stroke-miterlimit="20" data-name="Group 212"><path fill="#fcd116" stroke-linecap="square" stroke-width="2.3105313" d="m64.273 46.464-5.516-8.242c22.68-16.404 8.837-26.112 24.91-31.36-9.998 9.75 1.26 11.362-7.167 31.69" data-name="Path 1457"/><path fill="#7b3f00" stroke-linecap="square" stroke-width="1.0512417299999999" d="m64.271 46.463 3.635-2.523-.158-.096c6.203-10.226 7.26-18.092 8.166-24.171a28.899 28.899 0 0 1 1.902-7.88A10.375 10.375 0 0 1 80.8 7.99c-11.49 5.465-.9 14.936-22.046 30.23Z" data-name="Path 1458"/><path fill="none" stroke-width="2.3105313" d="M68.219 44.129C80.735 23.512 72.532 12.17 83.666 6.86" data-name="Path 1459"/></g><path fill="#fcd116" stroke="#7b3f00" stroke-miterlimit="20" stroke-width="2.31" d="M60.5 62.763h11l-11-60.5-11 60.5h11v-60.5" data-name="Path 1460"/><path fill="#7b3f00" d="M60.5 62.763v-60.5l-11 60.5" data-name="Path 1461"/><g data-name="Group 214"><g stroke="#7b3f00" stroke-miterlimit="20" data-name="Group 213"><path fill="#fcd116" stroke-linecap="square" stroke-width="2.3105313" d="m74.694 53.906 1.927-9.729c27.637 4.437 24.713-12.215 39.789-4.562-13.964-.173-7.745 9.063-28.078 17.479" data-name="Path 1462"/><path fill="#7b3f00" stroke-linecap="square" stroke-width="1.0512417299999999" d="m74.693 53.904 4.354.786-.044-.18c11.617-2.844 17.926-7.66 22.866-11.317a28.899 28.899 0 0 1 6.917-4.227 10.375 10.375 0 0 1 4.798-.579c-11.989-4.261-11.198 9.925-36.965 5.787Z" data-name="Path 1463"/><path fill="none" stroke-width="2.3105313" d="M79.134 55.044c23.43-5.729 25.648-19.548 37.276-15.43" data-name="Path 1464"/></g><path fill="#fcd116" stroke="#7b3f00" stroke-miterlimit="20" stroke-width="2.31" d="m60.5 62.763 7.778 7.778 35.002-50.558-50.558 35.002 7.778 7.778 42.78-42.78" data-name="Path 1465"/><path fill="#7b3f00" d="m60.5 62.763 42.78-42.78-50.558 35.002" data-name="Path 1466"/></g></g><g data-name="Group 217"><g stroke="#7b3f00" stroke-miterlimit="20" data-name="Group 216"><path fill="#fcd116" stroke-linecap="square" stroke-width="2.3105313" d="m76.8 66.535 8.241-5.516c16.405 22.68 26.112 8.839 31.361 24.91-9.75-9.998-11.584 1.186-31.913-7.24" data-name="Path 1467"/><path fill="#7b3f00" stroke-linecap="square" stroke-width="1.0512417299999999" d="m76.8 66.534 2.524 3.634.096-.158c10.225 6.204 18.091 7.26 24.17 8.166a28.899 28.899 0 0 1 7.881 1.902 10.375 10.375 0 0 1 3.801 2.984c-5.464-11.492-14.935-.9-30.23-22.047Z" data-name="Path 1468"/><path fill="none" stroke-width="2.3105313" d="M79.135 70.48c20.617 12.517 31.958 4.315 37.267 15.448" data-name="Path 1469"/></g><path fill="#fcd116" stroke="#7b3f00" stroke-miterlimit="20" stroke-width="2.31" d="M60.5 62.763v11l60.5-11-60.5-11v11H121" data-name="Path 1470"/><path fill="#7b3f00" d="M60.5 62.763H121l-60.5-11" data-name="Path 1471"/></g><g data-name="Group 219"><g stroke="#7b3f00" stroke-miterlimit="20" data-name="Group 218"><path fill="#fcd116" stroke-linecap="square" stroke-width="2.3105313" d="m69.358 76.956 9.729 1.927c-4.438 27.637 12.214 24.714 4.562 39.79.173-13.965-9.023-7.5-17.439-27.832" data-name="Path 1472"/><path fill="#7b3f00" stroke-linecap="square" stroke-width="1.0512417299999999" d="m69.36 76.955-.786 4.355.18-.044c2.844 11.617 7.659 17.925 11.317 22.866a28.899 28.899 0 0 1 4.226 6.917 10.375 10.375 0 0 1 .579 4.798c4.262-11.99-9.924-11.198-5.786-36.965Z" data-name="Path 1473"/><path fill="none" stroke-width="2.3105313" d="M68.22 81.397c5.728 23.43 19.547 25.648 15.429 37.276" data-name="Path 1474"/></g><path fill="#fcd116" stroke="#7b3f00" stroke-miterlimit="20" stroke-width="2.31" d="m60.5 62.763-7.778 7.779 50.558 35.001L68.28 54.985 60.5 62.763l42.78 42.78" data-name="Path 1475"/><path fill="#7b3f00" d="m60.5 62.763 42.78 42.78L68.28 54.985" data-name="Path 1476"/></g></g></g><path fill="#7b3f00" stroke="#7b3f00" stroke-linecap="square" stroke-miterlimit="20" stroke-width="1.051" d="m56.728 79.06-3.633 2.523.159.1c-6.2 10.225-7.255 18.089-8.16 24.169a28.893 28.893 0 0 1-1.9 7.879 10.373 10.373 0 0 1-2.983 3.8c11.49-5.466.9-14.932 22.036-30.229Z" data-name="Path 1477"/><g stroke="#7b3f00" stroke-miterlimit="20" stroke-width="2.309" data-name="Group 222"><path fill="none" d="M52.783 81.394c-12.508 20.616-4.3 31.951-15.435 37.263" data-name="Path 1478"/><path fill="#fcd116" d="M60.5 62.763h-11l11 60.5 11-60.5h-11v60.5" data-name="Path 1479"/></g></g><path fill="#7b3f00" d="M60.5 62.763v60.5l11-60.5" data-name="Path 1480"/><path fill="#7b3f00" d="m60.5 62.763 7.778 7.778-7.778-7.778-42.78 42.78 50.558-35" data-name="Path 1481"/><circle cx="20.166" cy="20.166" r="20.166" fill="#fcd116" stroke="#7b3f00" stroke-miterlimit="20" stroke-width="2.309" data-name="Ellipse 142" transform="translate(40.334 42.596)"/><g fill="#7b3f00" data-name="Group 225"><path d="M75.353 54.697c-1.283 1.467-2.017-1.1-6.6-1.1s-5.317 2.75-6.05 2.2 3.85-3.85 5.317-4.033 5.683 1.283 7.333 2.933m-5.317 1.65c1.283 1.1.183 3.483-1.1 3.483s-3.667-2.2-2.567-3.667" data-name="Path 1482"/><path d="M63.983 57.997c.183-2.2 2.017-2.567 4.95-2.567s4.217 2.2 5.317 2.75c-1.283 0-2.383-1.833-5.317-1.833s-2.933 0-4.95 1.833m.55.367c.733-1.1 1.65 1.1 3.667 1.1a6.69 6.69 0 0 0 4.4-1.467c1.283-.917-1.833 2.2-3.85 2.2s-4.767-1.1-4.217-1.833" data-name="Path 1483"/><path d="M50.234 56.164c-.917.367-2.383 2.2 0 3.483-1.831-1.284-.367-3.117 0-3.483Z" data-name="Path 1484"/><path d="M70.767 56.164c.367.367 1.833 2.2 0 3.483 2.383-1.284.916-3.117 0-3.483Z" data-name="Path 1485"/><path d="M57.567 64.047c-1.65.367-1.1 2.75-2.567 2.933a2.616 2.616 0 0 0-2.015 1.652 8.3 8.3 0 0 1 4.4-1.283c1.467 0 1.833.917 3.117.917s1.65-.917 3.117-.917a8.3 8.3 0 0 1 4.4 1.283 2.616 2.616 0 0 0-2.016-1.65c-1.467-.183-.917-2.567-2.567-2.933 0 .733.55.55.733 1.65 0 .917-1.65.917-2.016 0 .367 1.467-.733 1.467-1.65 1.467s-2.017 0-1.65-1.467c-.367.917-2.016.917-2.016 0 .183-1.1.733-.917.733-1.65Z" data-name="Path 1486"/><path d="M51.883 70.28c-1.467 1.1-1.833 1.65-2.016 2.933a13.3 13.3 0 0 1 .99-1.538c-.088-.038-.164-.073-.256-.112.107.013.2.029.305.044.222-.3.419-.559.978-1.327Z" data-name="Path 1487"/><path d="m50.906 71.607-.023.032a3.258 3.258 0 0 0 .727.079c-.224-.04-.459-.076-.7-.111Z" data-name="Path 1488"/><path d="M51.61 71.718a20.482 20.482 0 0 1 2.864.731 50.129 50.129 0 0 1 6.027-.336 50.129 50.129 0 0 1 6.027.336 20.482 20.482 0 0 1 2.864-.731c-2.02.007-4.713-1.438-5.957-1.438-1.467 0-1.833.366-2.933.366s-1.467-.366-2.933-.366c-1.246 0-3.938 1.445-5.959 1.438Z" data-name="Path 1489"/><path d="M69.391 71.715a3.262 3.262 0 0 0 .727-.079l-.023-.032c-.245.034-.48.071-.7.111Z" data-name="Path 1490"/><path d="M70.094 71.607c.1-.014.2-.03.305-.044l-.256.112a13.3 13.3 0 0 1 .99 1.538c-.183-1.283-.55-1.833-2.016-2.933.559.768.756 1.028.977 1.327Z" data-name="Path 1491"/><path d="M70.144 71.675a.067.067 0 0 0-.009-.013 7.311 7.311 0 0 1-3.608.787A16.422 16.422 0 0 1 60.5 73.58a16.422 16.422 0 0 1-6.027-1.126 7.311 7.311 0 0 1-3.608-.787.069.069 0 0 1-.009.013c5.759 2.479 5.13 3.371 9.644 3.371s3.884-.893 9.644-3.371Z" data-name="Path 1492"/><path d="m50.866 71.663.017-.023a2.393 2.393 0 0 1-.282-.075c.105.04.168.06.265.098Z" data-name="Path 1493"/><path d="M70.135 71.663c.1-.038.16-.058.265-.1a2.428 2.428 0 0 1-.282.075l.017.023Z" data-name="Path 1494"/><g data-name="Group 224"><path d="M45.651 54.697c1.283 1.467 2.017-1.1 6.6-1.1s5.316 2.75 6.049 2.2-3.85-3.85-5.321-4.033-5.683 1.283-7.333 2.933m5.321 1.65c-1.288 1.1-.188 3.483 1.1 3.483s3.667-2.2 2.567-3.667" data-name="Path 1495"/><path d="M57.017 57.997c-.183-2.2-2.017-2.567-4.95-2.567s-4.216 2.2-5.316 2.75c1.283 0 2.383-1.833 5.316-1.833s2.933 0 4.95 1.833m-.55.367c-.733-1.1-1.65 1.1-3.667 1.1a6.689 6.689 0 0 1-4.399-1.467c-1.284-.917 1.833 2.2 3.85 2.2s4.766-1.1 4.216-1.833" data-name="Path 1496"/></g><path d="M60.501 76.697c-.917 0-3.3.55 0 .55s.917-.55 0-.55" data-name="Path 1497"/></g></g></g></svg>