<svg xmlns="http://www.w3.org/2000/svg" xmlns:xlink="http://www.w3.org/1999/xlink" width="512" height="300" viewBox="0 0 512 300"><defs><clipPath id="b"><rect width="512" height="300"/></clipPath></defs><g id="a" clip-path="url(#b)"><g transform="translate(5 5)"><path d="M-5-5H507V295H-5Z" fill="#fff"/><g transform="translate(-5 28.333)"><path d="M175-105H521v33.333H175Z" transform="translate(-9 105)" fill="#2f4ba1"/><path d="M175,35H521V68.333H175Z" transform="translate(-9 31.667)" fill="#2f4ba1"/><path d="M-175,175H337v33.333H-175Z" transform="translate(175 -41.667)" fill="#2f4ba1"/><path d="M-175,315H337v33.333H-175Z" transform="translate(175 -115)" fill="#2f4ba1"/></g><g transform="translate(17.833 15.57)"><path d="M-93.527,596.742l5.517,8.238c-22.671,16.406-8.83,26.108-24.9,31.36,9.992-9.752-1.321-11.256,7.1-31.581" transform="translate(150.254 -517.683)" fill="#fcd116" stroke="#7b3f00" stroke-linecap="square" stroke-miterlimit="20" stroke-width="2.309"/><g transform="translate(43.143 63.977) rotate(67.5)"><path d="M8.271,0l8.25,5.5C1.855,29.333,18.355,33,5.521,44,11.021,31.167,0,33.768,0,11.768" fill="#fcd116" stroke="#7b3f00" stroke-linecap="square" stroke-miterlimit="20" stroke-width="2.31"/><path d="M2.923,0,.532,3.722l.183.028C-1.1,15.569.936,23.238,2.426,29.2a28.892,28.892,0,0,1,1.26,8.006,10.373,10.373,0,0,1-1.3,4.653C10.907,32.413-2.5,27.72,11.175,5.5Z" transform="translate(5.35)" fill="#7b3f00" stroke="#7b3f00" stroke-linecap="square" stroke-miterlimit="20" stroke-width="1.051"/><path d="M.722,0c-3.667,23.833,8.25,31.167,0,40.334" transform="translate(4.799 3.667)" fill="none" stroke="#7b3f00" stroke-miterlimit="20" stroke-width="2.31"/></g><path d="M-111.344,553.964l-7.778-7.778-35,50.558,50.558-35-7.778-7.778-42.78,42.78" transform="translate(171.844 -491.201)" fill="#fcd116" stroke="#7b3f00" stroke-miterlimit="20" stroke-width="2.309"/><g transform="translate(60.5 34.487) rotate(90)"><g transform="matrix(0.924, 0.383, -0.383, 0.924, 16.838, 13.122)"><path d="M8.3,0l8.25,5.5C1.88,29.333,18.38,33,5.546,44,11.046,31.167,0,34.013,0,12.013" fill="#fcd116" stroke="#7b3f00" stroke-linecap="square" stroke-miterlimit="20" stroke-width="2.31"/><path d="M2.923,0,.532,3.722l.183.028C-1.1,15.569.936,23.238,2.426,29.2a28.892,28.892,0,0,1,1.26,8.006,10.373,10.373,0,0,1-1.3,4.653C10.907,32.413-2.5,27.72,11.175,5.5Z" transform="translate(5.375)" fill="#7b3f00" stroke="#7b3f00" stroke-linecap="square" stroke-miterlimit="20" stroke-width="1.051"/><path d="M.722,0c-3.667,23.833,8.25,31.167,0,40.333" transform="translate(4.824 3.667)" fill="none" stroke="#7b3f00" stroke-miterlimit="20" stroke-width="2.31"/></g><path d="M11,0H0L11,60.5,22,0H11V60.5" transform="translate(17.276)" fill="#fcd116" stroke="#7b3f00" stroke-miterlimit="20" stroke-width="2.31"/><path d="M0,0H0V60.5L11,0" transform="translate(28.276)" fill="#7b3f00"/></g><g transform="translate(80.484 42.78) rotate(135)"><g transform="matrix(0.924, 0.383, -0.383, 0.924, 16.838, 13.128)"><path d="M8.28,0l8.25,5.5C1.863,29.333,18.363,33,5.53,44,11.03,31.167,0,32.556,0,10.556" fill="#fcd116" stroke="#7b3f00" stroke-linecap="square" stroke-miterlimit="20" stroke-width="2.31"/><path d="M2.923,0,.532,3.722l.183.028C-1.1,15.569.936,23.237,2.426,29.2a28.892,28.892,0,0,1,1.259,8.006,10.373,10.373,0,0,1-1.3,4.653C10.907,32.413-2.5,27.72,11.175,5.5Z" transform="translate(5.359)" fill="#7b3f00" stroke="#7b3f00" stroke-linecap="square" stroke-miterlimit="20" stroke-width="1.051"/><path d="M.722,0c-3.667,23.833,8.25,31.167,0,40.333" transform="translate(4.808 3.667)" fill="none" stroke="#7b3f00" stroke-miterlimit="20" stroke-width="2.31"/></g><path d="M11,0H0L11,60.5,22,0H11V60.5" transform="translate(17.261)" fill="#fcd116" stroke="#7b3f00" stroke-miterlimit="20" stroke-width="2.31"/><path d="M0,0H0V60.5L11,0" transform="translate(28.261)" fill="#7b3f00"/></g><g transform="translate(123.186 82.669) rotate(180)"><g transform="matrix(0.924, 0.383, -0.383, 0.924, 51.277, 33.04)"><path d="M8.264,0l8.25,5.5C1.847,29.333,18.348,33,5.514,44,11.014,31.167,0,33.988,0,11.988" fill="#fcd116" stroke="#7b3f00" stroke-linecap="square" stroke-miterlimit="20" stroke-width="2.31"/><path d="M2.923,0,.532,3.722l.183.028C-1.1,15.569.936,23.238,2.426,29.2a28.892,28.892,0,0,1,1.26,8.006,10.373,10.373,0,0,1-1.3,4.653C10.907,32.413-2.5,27.72,11.175,5.5Z" transform="translate(5.343)" fill="#7b3f00" stroke="#7b3f00" stroke-linecap="square" stroke-miterlimit="20" stroke-width="1.051"/><path d="M.722,0c-3.667,23.833,8.25,31.167,0,40.333" transform="translate(4.792 3.667)" fill="none" stroke="#7b3f00" stroke-miterlimit="20" stroke-width="2.31"/></g><path d="M11,0H0L11,60.5,22,0H11V60.5" transform="translate(51.686 19.906)" fill="#fcd116" stroke="#7b3f00" stroke-miterlimit="20" stroke-width="2.31"/><path d="M0,0H0V60.5L11,0" transform="translate(62.686 19.906)" fill="#7b3f00"/><g transform="translate(42.78 0) rotate(45)"><g transform="matrix(0.924, 0.383, -0.383, 0.924, 16.838, 13.174)"><path d="M8.16,0l8.25,5.5C1.744,29.334,18.244,33,5.41,44,10.91,31.167,0,33.38,0,11.38" fill="#fcd116" stroke="#7b3f00" stroke-linecap="square" stroke-miterlimit="20" stroke-width="2.31"/><path d="M2.923,0,.532,3.722l.183.028C-1.1,15.569.936,23.238,2.426,29.2a28.892,28.892,0,0,1,1.26,8.006,10.373,10.373,0,0,1-1.3,4.653C10.907,32.414-2.5,27.72,11.175,5.5Z" transform="translate(5.239)" fill="#7b3f00" stroke="#7b3f00" stroke-linecap="square" stroke-miterlimit="20" stroke-width="1.051"/><path d="M.722,0c-3.667,23.834,8.25,31.167,0,40.334" transform="translate(4.689 3.667)" fill="none" stroke="#7b3f00" stroke-miterlimit="20" stroke-width="2.31"/></g><path d="M11,0H0L11,60.5,22,0H11V60.5" transform="translate(17.151)" fill="#fcd116" stroke="#7b3f00" stroke-miterlimit="20" stroke-width="2.31"/><path d="M0,0H0V60.5L11,0" transform="translate(28.151)" fill="#7b3f00"/></g></g><g transform="translate(60.5 91.025) rotate(-90)"><g transform="matrix(0.924, 0.383, -0.383, 0.924, 16.838, 13.128)"><path d="M8.281,0l8.25,5.5C1.864,29.333,18.364,33,5.531,44,11.031,31.167,0,33.755,0,11.754" fill="#fcd116" stroke="#7b3f00" stroke-linecap="square" stroke-miterlimit="20" stroke-width="2.31"/><path d="M2.923,0,.532,3.722l.183.028C-1.1,15.569.936,23.238,2.426,29.2a28.892,28.892,0,0,1,1.26,8.006,10.373,10.373,0,0,1-1.3,4.653C10.907,32.413-2.5,27.72,11.175,5.5Z" transform="translate(5.36)" fill="#7b3f00" stroke="#7b3f00" stroke-linecap="square" stroke-miterlimit="20" stroke-width="1.051"/><path d="M.722,0c-3.667,23.833,8.25,31.167,0,40.333" transform="translate(4.809 3.667)" fill="none" stroke="#7b3f00" stroke-miterlimit="20" stroke-width="2.31"/></g><path d="M11,0H0L11,60.5,22,0H11V60.5" transform="translate(17.262)" fill="#fcd116" stroke="#7b3f00" stroke-miterlimit="20" stroke-width="2.31"/><path d="M0,0H0V60.5L11,0" transform="translate(28.262)" fill="#7b3f00"/></g><g transform="translate(40.558 82.706) rotate(-45)"><g transform="matrix(0.924, 0.383, -0.383, 0.924, 16.838, 13.152)"><path d="M8.217,0l8.25,5.5C1.8,29.333,18.3,33,5.467,44,10.967,31.167,0,33.623,0,11.623" fill="#fcd116" stroke="#7b3f00" stroke-linecap="square" stroke-miterlimit="20" stroke-width="2.31"/><path d="M2.923,0,.532,3.722l.183.028C-1.1,15.569.936,23.237,2.426,29.2a28.892,28.892,0,0,1,1.259,8.006,10.373,10.373,0,0,1-1.3,4.653C10.907,32.413-2.5,27.72,11.175,5.5Z" transform="translate(5.296)" fill="#7b3f00" stroke="#7b3f00" stroke-linecap="square" stroke-miterlimit="20" stroke-width="1.051"/><path d="M.722,0c-3.667,23.833,8.25,31.167,0,40.333" transform="translate(4.745 3.667)" fill="none" stroke="#7b3f00" stroke-miterlimit="20" stroke-width="2.31"/></g><path d="M11,0H0L11,60.5,22,0H11V60.5" transform="translate(17.203)" fill="#fcd116" stroke="#7b3f00" stroke-miterlimit="20" stroke-width="2.31"/><path d="M0,0H0V60.5L11,0" transform="translate(28.203)" fill="#7b3f00"/></g><path d="M-90.376,596.744l-3.633,2.523.159.1c-6.2,10.225-7.255,18.089-8.16,24.169a28.893,28.893,0,0,1-1.9,7.879,10.373,10.373,0,0,1-2.983,3.8c11.49-5.466.9-14.932,22.036-30.229Z" transform="translate(147.104 -517.684)" fill="#7b3f00" stroke="#7b3f00" stroke-linecap="square" stroke-miterlimit="20" stroke-width="1.051"/><g transform="translate(37.348 62.763)"><path d="M-97.471,601.646c-12.508,20.616-4.3,31.951-15.435,37.263" transform="translate(112.906 -583.015)" fill="none" stroke="#7b3f00" stroke-miterlimit="20" stroke-width="2.309"/><path d="M-76.386,562.52h-11l11,60.5,11-60.5h-11v60.5" transform="translate(99.538 -562.52)" fill="#fcd116" stroke="#7b3f00" stroke-miterlimit="20" stroke-width="2.309"/></g><path d="M-64.286,562.52h0v60.5l11-60.5" transform="translate(124.786 -499.757)" fill="#7b3f00"/><path d="M-111.344,562.52l7.778,7.778-7.778-7.778-42.78,42.78,50.558-35" transform="translate(171.844 -499.757)" fill="#7b3f00"/><circle cx="20.166" cy="20.166" r="20.166" transform="translate(40.334 42.596)" fill="#fcd116" stroke="#7b3f00" stroke-miterlimit="20" stroke-width="2.309"/><g transform="translate(45.651 51.748)"><path d="M-47.1,542.336c-1.283,1.467-2.017-1.1-6.6-1.1s-5.317,2.75-6.05,2.2,3.85-3.85,5.317-4.033,5.683,1.283,7.333,2.933m-5.317,1.65c1.283,1.1.183,3.483-1.1,3.483s-3.667-2.2-2.567-3.667" transform="translate(76.802 -539.387)" fill="#7b3f00"/><path d="M-56.971,549.687c.183-2.2,2.017-2.567,4.95-2.567s4.217,2.2,5.317,2.75c-1.283,0-2.383-1.833-5.317-1.833s-2.933,0-4.95,1.833m.55.367c.733-1.1,1.65,1.1,3.667,1.1a6.69,6.69,0,0,0,4.4-1.467c1.283-.917-1.833,2.2-3.85,2.2s-4.767-1.1-4.217-1.833" transform="translate(75.303 -543.438)" fill="#7b3f00"/><path d="M-87.269,548.661c-.917.367-2.383,2.2,0,3.483C-89.1,550.86-87.636,549.027-87.269,548.661Z" transform="translate(91.852 -544.245)" fill="#7b3f00"/><path d="M-42.725,548.661c.367.367,1.833,2.2,0,3.483C-40.342,550.86-41.809,549.027-42.725,548.661Z" transform="translate(67.841 -544.245)" fill="#7b3f00"/><path d="M-75.518,565.215c-1.65.367-1.1,2.75-2.567,2.933A2.616,2.616,0,0,0-80.1,569.8a8.3,8.3,0,0,1,4.4-1.283c1.467,0,1.833.917,3.117.917s1.65-.917,3.117-.917a8.3,8.3,0,0,1,4.4,1.283,2.616,2.616,0,0,0-2.016-1.65c-1.467-.183-.917-2.567-2.567-2.933,0,.733.55.55.733,1.65,0,.917-1.65.917-2.016,0,.367,1.467-.733,1.467-1.65,1.467s-2.017,0-1.65-1.467c-.367.917-2.016.917-2.016,0,.183-1.1.733-.917.733-1.65Z" transform="translate(87.434 -552.916)" fill="#7b3f00"/><path d="M-84.6,578.305c-1.467,1.1-1.833,1.65-2.016,2.933a13.3,13.3,0,0,1,.99-1.538c-.088-.038-.164-.073-.256-.112.107.013.2.029.305.044.222-.3.419-.559.978-1.327Z" transform="translate(90.832 -559.773)" fill="#7b3f00"/><path d="M-84.46,581.092l-.023.032a3.258,3.258,0,0,0,.727.079c-.224-.04-.459-.076-.7-.111Z" transform="translate(89.715 -561.233)" fill="#7b3f00"/><path d="M-82.956,579.743a20.482,20.482,0,0,1,2.864.731,50.129,50.129,0,0,1,6.027-.336,50.129,50.129,0,0,1,6.027.336,20.482,20.482,0,0,1,2.864-.731c-2.02.007-4.713-1.438-5.957-1.438-1.467,0-1.833.366-2.933.366s-1.467-.366-2.933-.366C-78.243,578.305-80.935,579.75-82.956,579.743Z" transform="translate(88.915 -559.773)" fill="#7b3f00"/><path d="M-45.616,581.2a3.262,3.262,0,0,0,.727-.079l-.023-.032c-.245.034-.48.071-.7.111Z" transform="translate(69.356 -561.233)" fill="#7b3f00"/><path d="M-45.213,579.632c.1-.014.2-.03.305-.044-.091.039-.167.074-.256.112a13.3,13.3,0,0,1,.99,1.538c-.183-1.283-.55-1.833-2.016-2.933.559.768.756,1.028.977,1.327Z" transform="translate(69.656 -559.773)" fill="#7b3f00"/><path d="M-65.25,581.221a.067.067,0,0,0-.009-.013,7.311,7.311,0,0,1-3.608.787,16.422,16.422,0,0,1-6.027,1.131A16.422,16.422,0,0,1-80.921,582a7.311,7.311,0,0,1-3.608-.787.069.069,0,0,1-.009.013c5.759,2.479,5.13,3.371,9.644,3.371s3.884-.893,9.644-3.371Z" transform="translate(89.743 -561.294)" fill="#7b3f00"/><path d="M-84.81,581.1l.017-.023a2.393,2.393,0,0,1-.282-.075C-84.97,581.042-84.907,581.062-84.81,581.1Z" transform="translate(90.025 -561.185)" fill="#7b3f00"/><path d="M-44.072,581.1c.1-.038.16-.058.265-.1a2.428,2.428,0,0,1-.282.075l.017.023Z" transform="translate(68.556 -561.185)" fill="#7b3f00"/><g transform="translate(12.728 8.632) rotate(180)"><path d="M12.728,5.133c-1.283-1.467-2.017,1.1-6.6,1.1S.812,3.483.079,4.033,3.929,7.883,5.4,8.066s5.683-1.283,7.333-2.933M7.412,3.483C8.7,2.383,7.6,0,6.312,0S2.645,2.2,3.745,3.667" transform="translate(0 0.55)" fill="#7b3f00"/><path d="M0,2.383C.183,4.583,2.017,4.95,4.95,4.95s4.216-2.2,5.316-2.75C8.983,2.2,7.883,4.033,4.95,4.033S2.017,4.033,0,2.2m.55-.367c.733,1.1,1.65-1.1,3.667-1.1A6.689,6.689,0,0,1,8.616,2.2C9.9,3.117,6.783,0,4.766,0S0,1.1.55,1.833" transform="translate(1.362)" fill="#7b3f00"/></g><path d="M-66.147,591.78c-.917,0-3.3.55,0,.55s.917-.55,0-.55" transform="translate(80.997 -566.831)" fill="#7b3f00"/></g></g></g></g></svg>