<svg xmlns="http://www.w3.org/2000/svg" xmlns:xlink="http://www.w3.org/1999/xlink" width="512" height="300" viewBox="0 0 512 300"><defs><clipPath id="b"><rect width="512" height="300"/></clipPath></defs><g id="a" clip-path="url(#b)"><g transform="translate(0 -0.5)"><rect width="512" height="23" transform="translate(0 277.7)" fill="#f23b27"/><rect width="512" height="23" transform="translate(0 254.7)" fill="#fff"/><path d="M0,0H512V23H0Z" transform="translate(0 231.483)" fill="#f23b27"/><rect width="512" height="23" transform="translate(0 208.375)" fill="#fff"/><path d="M0,0H512V23H0Z" transform="translate(0 185.367)" fill="#f23b27"/><rect width="512" height="23" transform="translate(0 162.258)" fill="#fff"/><path d="M0,0H512V23H0Z" transform="translate(0 139.15)" fill="#f23b27"/><rect width="512" height="23" transform="translate(0 116.041)" fill="#fff"/><path d="M0,0H512V23H0Z" transform="translate(0 93.033)" fill="#f23b27"/><rect width="512" height="23" transform="translate(0 69.925)" fill="#fff"/><path d="M0,0H512V23H0Z" transform="translate(0 46.816)" fill="#f23b27"/><rect width="512" height="23" transform="translate(0 23.6)" fill="#fff"/><path d="M0,0H512V23H0Z" transform="translate(0 0.7)" fill="#f23b27"/><rect width="233.8" height="161.8" transform="translate(0 0.7)" fill="#2f4ba1"/><path d="M8.4,0l2,6.1h6.3L11.6,9.8l1.9,6.1L8.4,12.1,3.2,15.9l2-6.1L0,6.1H6.4Z" transform="translate(12.7 18.4)" fill="#fff"/><path d="M8.4,0l2,6.1h6.3L11.6,9.9l1.9,6L8.4,12.2,3.2,15.9l2-6L0,6.1H6.4Z" transform="translate(12.7 45.2)" fill="#fff"/><path d="M8.4,0l2,6.1h6.3L11.6,9.8l1.9,6.1L8.4,12.1,3.2,15.9l2-6.1L0,6.1H6.4Z" transform="translate(12.7 72.428)" fill="#fff"/><path d="M8.4,0l2,6.1h6.3L11.6,9.9l1.9,6L8.4,12.2,3.2,15.9l2-6L0,6.1H6.4Z" transform="translate(12.7 99.351)" fill="#fff"/><path d="M8.4,0l2,6h6.3L11.6,9.8l1.9,6.1L8.4,12.1,3.2,15.9l2-6.1L0,6H6.4Z" transform="translate(12.7 126.375)" fill="#fff"/><path d="M8.4,0l2,6.1h6.3L11.6,9.9l1.9,6L8.4,12.2,3.2,15.9l2-6L0,6.1H6.4Z" transform="translate(31.4 32.5)" fill="#fff"/><path d="M8.4,0l2,6h6.3L11.6,9.8l1.9,6.1L8.4,12.1,3.2,15.9l2-6.1L0,6H6.4Z" transform="translate(31.4 59.67)" fill="#fff"/><path d="M8.4,0l2,6.1h6.3L11.6,9.9l1.9,6L8.4,12.2,3.2,15.9l2-6L0,6.1H6.4Z" transform="translate(31.4 86.593)" fill="#fff"/><path d="M8.4,0l2,6h6.3L11.6,9.8l1.9,6.1L8.4,12.1,3.2,15.9l2-6.1L0,6H6.4Z" transform="translate(31.4 113.617)" fill="#fff"/><path d="M8.4,0l2,6.1h6.4L11.6,9.8l2,6.1L8.4,12.1,3.2,15.9l2-6.1L0,6.1H6.4Z" transform="translate(50.3 18.4)" fill="#fff"/><path d="M8.4,0l2,6.1h6.4L11.6,9.9l2,6L8.4,12.2,3.2,15.9l2-6L0,6.1H6.4Z" transform="translate(50.3 45.2)" fill="#fff"/><path d="M8.4,0l2,6.1h6.4L11.6,9.8l2,6.1L8.4,12.1,3.2,15.9l2-6.1L0,6.1H6.4Z" transform="translate(50.3 72.428)" fill="#fff"/><path d="M8.4,0l2,6.1h6.4L11.6,9.9l2,6L8.4,12.2,3.2,15.9l2-6L0,6.1H6.4Z" transform="translate(50.3 99.351)" fill="#fff"/><path d="M8.4,0l2,6h6.4L11.6,9.8l2,6.1L8.4,12.1,3.2,15.9l2-6.1L0,6H6.4Z" transform="translate(50.3 126.375)" fill="#fff"/><path d="M8.4,0l2,6.1h6.4L11.6,9.9l2,6L8.4,12.2,3.2,15.9l2-6L0,6.1H6.4Z" transform="translate(69 32.5)" fill="#fff"/><path d="M8.4,0l2,6h6.4L11.6,9.8l2,6.1L8.4,12.1,3.2,15.9l2-6.1L0,6H6.4Z" transform="translate(69 59.67)" fill="#fff"/><path d="M8.4,0l2,6.1h6.4L11.6,9.9l2,6L8.4,12.2,3.2,15.9l2-6L0,6.1H6.4Z" transform="translate(69 86.593)" fill="#fff"/><path d="M8.4,0l2,6h6.4L11.6,9.8l2,6.1L8.4,12.1,3.2,15.9l2-6.1L0,6H6.4Z" transform="translate(69 113.617)" fill="#fff"/><path d="M8.3,0l2,6.1h6.4L11.5,9.8l2,6.1L8.3,12.1,3.2,15.9l2-6.1L0,6.1H6.4Z" transform="translate(88 18.4)" fill="#fff"/><path d="M8.3,0l2,6.1h6.4L11.5,9.9l2,6L8.3,12.2,3.2,15.9l2-6L0,6.1H6.4Z" transform="translate(88 45.2)" fill="#fff"/><path d="M8.3,0l2,6.1h6.4L11.5,9.8l2,6.1L8.3,12.1,3.2,15.9l2-6.1L0,6.1H6.4Z" transform="translate(88 72.428)" fill="#fff"/><path d="M8.3,0l2,6.1h6.4L11.5,9.9l2,6L8.3,12.2,3.2,15.9l2-6L0,6.1H6.4Z" transform="translate(88 99.351)" fill="#fff"/><path d="M8.3,0l2,6h6.4L11.5,9.8l2,6.1L8.3,12.1,3.2,15.9l2-6.1L0,6H6.4Z" transform="translate(88 126.375)" fill="#fff"/><path d="M8.3,0l2,6.1h6.4L11.5,9.9l2,6L8.3,12.2,3.2,15.9l1.9-6L0,6.1H6.4Z" transform="translate(106.7 32.5)" fill="#fff"/><path d="M8.3,0l2,6h6.4L11.5,9.8l2,6.1L8.3,12.1,3.2,15.9,5.1,9.8,0,6H6.4Z" transform="translate(106.7 59.67)" fill="#fff"/><path d="M8.3,0l2,6.1h6.4L11.5,9.9l2,6L8.3,12.2,3.2,15.9l1.9-6L0,6.1H6.4Z" transform="translate(106.7 86.593)" fill="#fff"/><path d="M8.3,0l2,6h6.4L11.5,9.8l2,6.1L8.3,12.1,3.2,15.9,5.1,9.8,0,6H6.4Z" transform="translate(106.7 113.617)" fill="#fff"/><path d="M8.4,0l2,6.1h6.3L11.6,9.8l1.9,6.1L8.4,12.1,3.2,15.9l2-6.1L0,6.1H6.4Z" transform="translate(125.6 18.4)" fill="#fff"/><path d="M8.4,0l2,6.1h6.3L11.6,9.9l1.9,6L8.4,12.2,3.2,15.9l2-6L0,6.1H6.4Z" transform="translate(125.6 45.2)" fill="#fff"/><path d="M8.4,0l2,6.1h6.3L11.6,9.8l1.9,6.1L8.4,12.1,3.2,15.9l2-6.1L0,6.1H6.4Z" transform="translate(125.6 72.428)" fill="#fff"/><path d="M8.4,0l2,6.1h6.3L11.6,9.9l1.9,6L8.4,12.2,3.2,15.9l2-6L0,6.1H6.4Z" transform="translate(125.6 99.351)" fill="#fff"/><path d="M8.4,0l2,6h6.3L11.6,9.8l1.9,6.1L8.4,12.1,3.2,15.9l2-6.1L0,6H6.4Z" transform="translate(125.6 126.375)" fill="#fff"/><path d="M8.4,0l1.9,6.1h6.4L11.6,9.9l1.9,6L8.4,12.2,3.2,15.9l2-6L0,6.1H6.4Z" transform="translate(144.3 32.5)" fill="#fff"/><path d="M8.4,0l1.9,6h6.4L11.6,9.8l1.9,6.1L8.4,12.1,3.2,15.9l2-6.1L0,6H6.4Z" transform="translate(144.3 59.67)" fill="#fff"/><path d="M8.4,0l1.9,6.1h6.4L11.6,9.9l1.9,6L8.4,12.2,3.2,15.9l2-6L0,6.1H6.4Z" transform="translate(144.3 86.593)" fill="#fff"/><path d="M8.4,0l1.9,6h6.4L11.6,9.8l1.9,6.1L8.4,12.1,3.2,15.9l2-6.1L0,6H6.4Z" transform="translate(144.3 113.617)" fill="#fff"/><path d="M8.4,0l2,6.1h6.4L11.6,9.8l2,6.1L8.4,12.1,3.2,15.9l2-6.1L0,6.1H6.4Z" transform="translate(163.2 18.4)" fill="#fff"/><path d="M8.4,0l2,6.1h6.4L11.6,9.9l2,6L8.4,12.2,3.2,15.9l2-6L0,6.1H6.4Z" transform="translate(163.2 45.2)" fill="#fff"/><path d="M8.4,0l2,6.1h6.4L11.6,9.8l2,6.1L8.4,12.1,3.2,15.9l2-6.1L0,6.1H6.4Z" transform="translate(163.2 72.428)" fill="#fff"/><path d="M8.4,0l2,6.1h6.4L11.6,9.9l2,6L8.4,12.2,3.2,15.9l2-6L0,6.1H6.4Z" transform="translate(163.2 99.351)" fill="#fff"/><path d="M8.4,0l2,6h6.4L11.6,9.8l2,6.1L8.4,12.1,3.2,15.9l2-6.1L0,6H6.4Z" transform="translate(163.2 126.375)" fill="#fff"/><path d="M8.4,0l2,6.1h6.4L11.6,9.9l2,6L8.4,12.2,3.2,15.9l2-6L0,6.1H6.4Z" transform="translate(181.9 32.5)" fill="#fff"/><path d="M8.4,0l2,6h6.4L11.6,9.8l2,6.1L8.4,12.1,3.2,15.9l2-6.1L0,6H6.4Z" transform="translate(181.9 59.67)" fill="#fff"/><path d="M8.4,0l2,6.1h6.4L11.6,9.9l2,6L8.4,12.2,3.2,15.9l2-6L0,6.1H6.4Z" transform="translate(181.9 86.593)" fill="#fff"/><path d="M8.4,0l2,6h6.4L11.6,9.8l2,6.1L8.4,12.1,3.2,15.9l2-6.1L0,6H6.4Z" transform="translate(181.9 113.617)" fill="#fff"/><path d="M8.3,0l2,6.1h6.4L11.5,9.8l2,6.1L8.3,12.1,3.2,15.9,5.1,9.8,0,6.1H6.4Z" transform="translate(200.9 18.4)" fill="#fff"/><path d="M8.3,0l2,6.1h6.4L11.5,9.9l2,6L8.3,12.2,3.2,15.9l1.9-6L0,6.1H6.4Z" transform="translate(200.9 45.2)" fill="#fff"/><path d="M8.3,0l2,6.1h6.4L11.5,9.8l2,6.1L8.3,12.1,3.2,15.9,5.1,9.8,0,6.1H6.4Z" transform="translate(200.9 72.428)" fill="#fff"/><path d="M8.3,0l2,6.1h6.4L11.5,9.9l2,6L8.3,12.2,3.2,15.9l1.9-6L0,6.1H6.4Z" transform="translate(200.9 99.351)" fill="#fff"/><path d="M8.3,0l2,6h6.4L11.5,9.8l2,6.1L8.3,12.1,3.2,15.9,5.1,9.8,0,6H6.4Z" transform="translate(200.9 126.375)" fill="#fff"/></g></g></svg>