<svg xmlns="http://www.w3.org/2000/svg" width="512" height="300"><defs><clipPath id="a"><path d="M0 0h512v300H0z"/></clipPath></defs><g clip-path="url(#a)" data-name="usa"><path fill="#f23b27" d="M0 277.2h512v23H0z"/><path fill="#fff" d="M0 254.2h512v23H0z" data-name="Rectangle"/><path fill="#f23b27" d="M0 230.983h512v23H0Z" data-name="Rectangle"/><path fill="#fff" d="M0 207.875h512v23H0z" data-name="Rectangle"/><path fill="#f23b27" d="M0 184.867h512v23H0Z" data-name="Rectangle"/><path fill="#fff" d="M0 161.758h512v23H0z" data-name="Rectangle"/><path fill="#f23b27" d="M0 138.65h512v23H0Z" data-name="Rectangle"/><path fill="#fff" d="M0 115.541h512v23H0z" data-name="Rectangle"/><path fill="#f23b27" d="M0 92.533h512v23H0Z" data-name="Rectangle"/><path fill="#fff" d="M0 69.425h512v23H0z" data-name="Rectangle"/><path fill="#f23b27" d="M0 46.316h512v23H0Z" data-name="Rectangle"/><path fill="#fff" d="M0 23.1h512v23H0z" data-name="Rectangle"/><path fill="#f23b27" d="M0 .2h512v23H0Z" data-name="Rectangle"/><path fill="#2f4ba1" d="M0 .2h233.8V162H0z" data-name="Rectangle"/><path fill="#fff" d="m21.1 17.9 2 6.1h6.3l-5.1 3.7 1.9 6.1-5.1-3.8-5.2 3.8 2-6.1-5.2-3.7h6.4Z"/><path fill="#fff" d="m21.1 44.7 2 6.1h6.3l-5.1 3.8 1.9 6-5.1-3.7-5.2 3.7 2-6-5.2-3.8h6.4ZM21.1 71.928l2 6.1h6.3l-5.1 3.7 1.9 6.1-5.1-3.8-5.2 3.8 2-6.1-5.2-3.7h6.4ZM21.1 98.851l2 6.1h6.3l-5.1 3.8 1.9 6-5.1-3.7-5.2 3.7 2-6-5.2-3.8h6.4ZM21.1 125.875l2 6h6.3l-5.1 3.8 1.9 6.1-5.1-3.8-5.2 3.8 2-6.1-5.2-3.8h6.4ZM39.8 32l2 6.1h6.3L43 41.9l1.9 6-5.1-3.7-5.2 3.7 2-6-5.2-3.8h6.4ZM39.8 59.17l2 6h6.3l-5.1 3.8 1.9 6.1-5.1-3.8-5.2 3.8 2-6.1-5.2-3.8h6.4ZM39.8 86.093l2 6.1h6.3l-5.1 3.8 1.9 6-5.1-3.7-5.2 3.7 2-6-5.2-3.8h6.4ZM39.8 113.117l2 6h6.3l-5.1 3.8 1.9 6.1-5.1-3.8-5.2 3.8 2-6.1-5.2-3.8h6.4ZM58.7 17.9l2 6.1h6.4l-5.2 3.7 2 6.1-5.2-3.8-5.2 3.8 2-6.1-5.2-3.7h6.4ZM58.7 44.7l2 6.1h6.4l-5.2 3.8 2 6-5.2-3.7-5.2 3.7 2-6-5.2-3.8h6.4ZM58.7 71.928l2 6.1h6.4l-5.2 3.7 2 6.1-5.2-3.8-5.2 3.8 2-6.1-5.2-3.7h6.4ZM58.7 98.851l2 6.1h6.4l-5.2 3.8 2 6-5.2-3.7-5.2 3.7 2-6-5.2-3.8h6.4ZM58.7 125.875l2 6h6.4l-5.2 3.8 2 6.1-5.2-3.8-5.2 3.8 2-6.1-5.2-3.8h6.4ZM77.4 32l2 6.1h6.4l-5.2 3.8 2 6-5.2-3.7-5.2 3.7 2-6-5.2-3.8h6.4ZM77.4 59.17l2 6h6.4l-5.2 3.8 2 6.1-5.2-3.8-5.2 3.8 2-6.1-5.2-3.8h6.4ZM77.4 86.093l2 6.1h6.4l-5.2 3.8 2 6-5.2-3.7-5.2 3.7 2-6-5.2-3.8h6.4ZM77.4 113.117l2 6h6.4l-5.2 3.8 2 6.1-5.2-3.8-5.2 3.8 2-6.1-5.2-3.8h6.4ZM96.3 17.9l2 6.1h6.4l-5.2 3.7 2 6.1-5.2-3.8-5.1 3.8 2-6.1L88 24h6.4ZM96.3 44.7l2 6.1h6.4l-5.2 3.8 2 6-5.2-3.7-5.1 3.7 2-6-5.2-3.8h6.4ZM96.3 71.928l2 6.1h6.4l-5.2 3.7 2 6.1-5.2-3.8-5.1 3.8 2-6.1-5.2-3.7h6.4ZM96.3 98.851l2 6.1h6.4l-5.2 3.8 2 6-5.2-3.7-5.1 3.7 2-6-5.2-3.8h6.4ZM96.3 125.875l2 6h6.4l-5.2 3.8 2 6.1-5.2-3.8-5.1 3.8 2-6.1-5.2-3.8h6.4ZM115 32l2 6.1h6.4l-5.2 3.8 2 6-5.2-3.7-5.1 3.7 1.9-6-5.1-3.8h6.4ZM115 59.17l2 6h6.4l-5.2 3.8 2 6.1-5.2-3.8-5.1 3.8 1.9-6.1-5.1-3.8h6.4ZM115 86.093l2 6.1h6.4l-5.2 3.8 2 6-5.2-3.7-5.1 3.7 1.9-6-5.1-3.8h6.4ZM115 113.117l2 6h6.4l-5.2 3.8 2 6.1-5.2-3.8-5.1 3.8 1.9-6.1-5.1-3.8h6.4ZM134 17.9l2 6.1h6.3l-5.1 3.7 1.9 6.1L134 30l-5.2 3.8 2-6.1-5.2-3.7h6.4ZM134 44.7l2 6.1h6.3l-5.1 3.8 1.9 6-5.1-3.7-5.2 3.7 2-6-5.2-3.8h6.4ZM134 71.928l2 6.1h6.3l-5.1 3.7 1.9 6.1-5.1-3.8-5.2 3.8 2-6.1-5.2-3.7h6.4ZM134 98.851l2 6.1h6.3l-5.1 3.8 1.9 6-5.1-3.7-5.2 3.7 2-6-5.2-3.8h6.4ZM134 125.875l2 6h6.3l-5.1 3.8 1.9 6.1-5.1-3.8-5.2 3.8 2-6.1-5.2-3.8h6.4ZM152.7 32l1.9 6.1h6.4l-5.1 3.8 1.9 6-5.1-3.7-5.2 3.7 2-6-5.2-3.8h6.4ZM152.7 59.17l1.9 6h6.4l-5.1 3.8 1.9 6.1-5.1-3.8-5.2 3.8 2-6.1-5.2-3.8h6.4ZM152.7 86.093l1.9 6.1h6.4l-5.1 3.8 1.9 6-5.1-3.7-5.2 3.7 2-6-5.2-3.8h6.4ZM152.7 113.117l1.9 6h6.4l-5.1 3.8 1.9 6.1-5.1-3.8-5.2 3.8 2-6.1-5.2-3.8h6.4ZM171.6 17.9l2 6.1h6.4l-5.2 3.7 2 6.1-5.2-3.8-5.2 3.8 2-6.1-5.2-3.7h6.4ZM171.6 44.7l2 6.1h6.4l-5.2 3.8 2 6-5.2-3.7-5.2 3.7 2-6-5.2-3.8h6.4ZM171.6 71.928l2 6.1h6.4l-5.2 3.7 2 6.1-5.2-3.8-5.2 3.8 2-6.1-5.2-3.7h6.4ZM171.6 98.851l2 6.1h6.4l-5.2 3.8 2 6-5.2-3.7-5.2 3.7 2-6-5.2-3.8h6.4ZM171.6 125.875l2 6h6.4l-5.2 3.8 2 6.1-5.2-3.8-5.2 3.8 2-6.1-5.2-3.8h6.4ZM190.3 32l2 6.1h6.4l-5.2 3.8 2 6-5.2-3.7-5.2 3.7 2-6-5.2-3.8h6.4ZM190.3 59.17l2 6h6.4l-5.2 3.8 2 6.1-5.2-3.8-5.2 3.8 2-6.1-5.2-3.8h6.4ZM190.3 86.093l2 6.1h6.4l-5.2 3.8 2 6-5.2-3.7-5.2 3.7 2-6-5.2-3.8h6.4ZM190.3 113.117l2 6h6.4l-5.2 3.8 2 6.1-5.2-3.8-5.2 3.8 2-6.1-5.2-3.8h6.4ZM209.2 17.9l2 6.1h6.4l-5.2 3.7 2 6.1-5.2-3.8-5.1 3.8 1.9-6.1-5.1-3.7h6.4ZM209.2 44.7l2 6.1h6.4l-5.2 3.8 2 6-5.2-3.7-5.1 3.7 1.9-6-5.1-3.8h6.4ZM209.2 71.928l2 6.1h6.4l-5.2 3.7 2 6.1-5.2-3.8-5.1 3.8 1.9-6.1-5.1-3.7h6.4ZM209.2 98.851l2 6.1h6.4l-5.2 3.8 2 6-5.2-3.7-5.1 3.7 1.9-6-5.1-3.8h6.4ZM209.2 125.875l2 6h6.4l-5.2 3.8 2 6.1-5.2-3.8-5.1 3.8 1.9-6.1-5.1-3.8h6.4Z" data-name="Path"/></g></svg>