<svg xmlns="http://www.w3.org/2000/svg" xmlns:xlink="http://www.w3.org/1999/xlink" width="512" height="300" viewBox="0 0 512 300"><defs><clipPath id="b"><rect width="512" height="300"/></clipPath></defs><g id="a" clip-path="url(#b)"><rect width="512" height="300" fill="#358142"/><path d="M0,0H107V193H0Z" transform="translate(351 107)" fill="#e0193a"/><rect width="107" height="193" transform="translate(405 107)" fill="#feae2e"/><path d="M0,0H53V193H0Z" transform="translate(405 107)" fill="#424242"/><g transform="translate(360.903 25.689)"><path d="M1756.574,136.39s18.429-7.223,20.215-8.712c.812.894-7.388,9.978-23.3,13.329,14.45-3.127,26.791-12.956,29.307-12.658.731.149.568,9.606-32.555,17.8,22.894-5.51,36.208-15.637,36.046-14.52.162.223-2.273,7.967-22.325,14,5.6-1.192,20.783-9.68,20.621-8.042.487.67-14.694,18.541-42.134,12.733,21.92,5.212,36.126-7.372,38.156-7.148.406.074-4.059,11.02-31.661,11.69,13.233-1.266,9.417-.075,9.417-.075a19.024,19.024,0,0,1-17.211,1.787c7.388,1.862,8.2,1.936,8.362,2.531-.487.744-6.576,1.862-12.421-1.043,4.708,1.787,8.93,2.085,9.011,2.755a6.573,6.573,0,0,1-5.764.67c-2.679-1.117-27.359-15.041-27.359-15.041l42.053-10.574Z" transform="translate(-1644.814 -126.007)" fill="#feae2e" stroke="#000" stroke-linecap="round" stroke-linejoin="round" stroke-width="2.25"/><path d="M1671.15,306.223c-3.7,0-3.8,3.018-3.8,3.018s-.305.218-.1,1.681a8.3,8.3,0,0,1,.916-1.307c.407.062,2.1.529,4.784-1.4-2.443,2.334-.984,3.205-.984,3.205a1.658,1.658,0,0,0,1.289,2.21,1.343,1.343,0,0,1-.237-1.4,2.794,2.794,0,0,0,2.443-3.174c.1,2.645,1.662,3.3,1.662,3.3a1.653,1.653,0,0,0,1.7,1.587,2.122,2.122,0,0,1-.712-1.9s2.205-1.463.339-3.952a6.569,6.569,0,0,0,2.036-2.24,14.231,14.231,0,0,1-2.239-1.089c-.34-.654-.034-4.232-.034-4.232l-.916-4.637-2.613,7.22A3.481,3.481,0,0,1,1671.15,306.223Z" transform="translate(-1608.829 -258.175)" fill="#feae2e" stroke="#000" stroke-linecap="round" stroke-linejoin="round" stroke-width="2.25"/><path d="M1746.534,260.294c.081.075,2.76,2.83,5.358,2.681.974-.744-2.03-2.383-2.03-2.755,1.055.894,5.521,4.393,8.362,3.127,1.136-1.489-2.03-1.266-5.521-5.287,2.435,1.489,8.525,4.766,11.366,3.5,1.218-1.191-6.333-4.915-8.849-7.819l-6.494-3.053-8.849,6.627Z" transform="translate(-1665.95 -222.658)" fill="#feae2e" stroke="#000" stroke-linecap="round" stroke-linejoin="round" stroke-width="2.25"/><path d="M1724.345,158.446s3-1.638,15.019-.819c1.3.149,8.2-2.159,10.391-2.83,3.491-.6,14.613-2.83,17.617-4.914,2.111-.223-.569,3.574-3.247,4.468-2.842,1.191-13.152,4.468-16.805,4.021,4.384.074,1.949,3.351-5.358,1.787,3.491,1.787,2.192,2.085,2.192,2.085s-6.17.3-7.793-.968c4.14,1.415,2.435,1.936,2.435,1.936s-4.221.372-6.17-.447c3,.819,1.461,1.34,1.461,1.34a11.132,11.132,0,0,1-4.465-.3C1727.592,163.137,1724.507,158.446,1724.345,158.446Z" transform="translate(-1653.745 -143.446)" fill="#feae2e" stroke="#000" stroke-linecap="round" stroke-linejoin="round" stroke-width="2.25"/><path d="M1728.655,301.919l.441,7.282a5.023,5.023,0,0,1-.441.591c-.2.218-5.632-.778-4.886,3.018,0,1.556.034,1.96,1.188,2.832a4.483,4.483,0,0,1-.2-1.742s1.527.84,3.02-1.463c-1.018,2.272-.306,3.081-.068,3.143.238.4-.407,2.24,1.629,2.209a1.587,1.587,0,0,1-.407-1.68s2.137-.311,1.391-3.858c.781-.716,1.086-.031,1.086-.031s.237,2.116,2.1,1.68c.849.436-.135,1.587-.135,1.587a1.913,1.913,0,0,0,1.764-1.027c.407-1.058.882-2.956-1.357-3.734-.271-.747.883-.809.883-.809a4.106,4.106,0,0,1,1.832,1.089c.407.653.271-1.711-1.493-1.96-2.171-.062-2.307-.467-2.307-.56s-.373-5.29-.543-6.784Z" transform="translate(-1653.238 -262.739)" fill="#feae2e" stroke="#000" stroke-linecap="round" stroke-linejoin="round" stroke-width="2.25"/><path d="M1477.85,165.265c.027-.334-3.7-4.941-2.758-5.537.946.179,2.5,2.274,3.755,1.594-.381-.817-1.5-.357-2.779-2.448-1.275-2.364-1.461-5.913-5.926-9.784,2.891,4.1,9.448,6.5,9.726,5.3s-5.774-5.711-5.464-6.8c1.2,2.236,7.28,7.217,11.757,6.8.307-.959-3.666-2.895-4.689-4.7-2.86-1.762-10.514-7.813-10.667-9.217-2.785-3.726-4.524-4.853-5.333-5.282a1.938,1.938,0,0,1-.453-.867c-1.729-3.738.561-4.952,1.9-5.132a5.95,5.95,0,0,0,2.217-.314c-.94-.337-1.88-.653-2.819-.99,1.225.824,4.355.1,3.677,2.473,1.372-.479,4.292-3.665-3.309-4.384-2.474-2.6-12.645-4.1-15.19,7.262a9.673,9.673,0,0,0,.957.733c-3.212-1.428-11.876-2.529-15-2.992-8.435-2.232-17.2-7.611-18.037-6.95-1.126.459,5.1,5.768,4.773,5.886a149.411,149.411,0,0,0-14.911-6.79c-3.227-1.106-6.458-3.682-6.815-3.192-1.187,2.256,5.173,7.928,6.356,8.595,1.184.638,10.489,4.6,10.352,4.647-14.015-5.835-16.365-6.893-17.069-7.565-1.235-.255-4.244-3.982-5.083-3.742-.459.414.462,6.3,7.15,8.945,1.09.729,14.336,5.087,14.206,5.429-.032.085-15.171-5.731-15.759-5.939-2.919-1.05-6.5-4.729-7.17-4.316-.639.375,1.651,4.358,4.6,5.607,1.546.626,7.476,3.32,12.818,5.034.341.113-9.6-3.459-14.384-5.291-2.168-1.1-3.189-2.479-3.519-2.183-.489.3.789,6.179,16.153,9.5.4.158,5.408-1.087,5.161-.922-.062.041-4.968,1.021-5.446.988a14.363,14.363,0,0,0-3.162.42c-.162.4.974,2.5,8.906,2.065,1.014-.056,6.518-1.838,6.055-1.455-.231.192-7.494,2.356-8.047,2.4-.48.062-3.032.307-3.126.556-.115.339,1.889,1.839,6.149,2.079,3.772.184,10.939-2.114,10.8-1.965s-6.909,2.275-7.086,2.4c-.245.127-2.722.25-2.809.425-.2.434,3.574,3.672,14.74.216-1.122,1.39-6.534,2.34-6.526,2.59a4.992,4.992,0,0,0,3.085,1.647,10.8,10.8,0,0,0,3.425-.018,14.463,14.463,0,0,0,7.211-3.574c.34.757-7.109,4.215-6.759,4.544,1.615,1.374,6.981-.177,7.332-.357s10.332-5.342,10.3-5.94c.155.766-12.867,7.255-12.726,7.522.836,1.223,5.284-.064,5.5-.177s5.677-2.82,5.827-2.9-6.423,3.528-5.837,4.077c-.283,2.343,10.264-1.617,11.091-2.11.413-.247-5.067,2.21-5.081,3.377,1.765,2.736,7.415,1.868,8.286,1.266.436-.3-.513,2.033-.207,1.821a9.078,9.078,0,0,0,1.661-2.142c-.138.764-.757,1.969-1.119,3.351s-.466,2.941-.962,4.6c-.114.728,3.482-1.423,2.96-6.564.308,2.674-1.135,7.674-.758,7.934.755.52,2.844-2.49,3.055-4.526.62,1.028,1.922,3.174,3.041,3.668a8.2,8.2,0,0,0-.483-3.013,76.524,76.524,0,0,0,.4-8.01c3.043,5.346,4.256,7.6,3.406,11.7.9.346,2.35-2.857,2.233-4.506C1472.755,164.711,1477.77,165.4,1477.85,165.265Z" transform="translate(-1394.881 -119.88)" fill="#feae2e" stroke="#000" stroke-linecap="round" stroke-linejoin="round" stroke-width="2.25"/><path d="M1528.532,173.288a8.552,8.552,0,0,1-4.648,1.351c.644,2.364,5.983.549,5.983.549s-2.577,2.617-4.418,3.039c1.1.844,5.753.549,6.535.127a12.141,12.141,0,0,0,2.163-2.068s-4.786,5.065-5.476,5.023c-.092.591,5.016.38,6.075-.507a26.006,26.006,0,0,1,3.728-2.195s-7,4.474-7.317,4.474c2.623.633,7.87-.76,11.229-2.659-4.97,3.039-5.43,3.588-7.961,4.6,2.255.464,3.405,1.857,11.045-1.182a18.076,18.076,0,0,0,6.857-5.361c-2.715,3.335-7,6.163-11.735,8.948-.276.506,5.062,2.575,11.873-3.926" transform="translate(-1496.241 -161.843)" fill="#feae2e" stroke="#000" stroke-linecap="round" stroke-linejoin="round" stroke-width="2.25"/><path d="M1718.241,239.078a7.113,7.113,0,0,0,2.3,3.5,4.959,4.959,0,0,1,1.979,3" transform="translate(-1648.95 -213.536)" fill="#ef7d00" stroke="#000" stroke-linecap="round" stroke-linejoin="round" stroke-width="2.25"/><path d="M1713.947,178.8a6.291,6.291,0,0,0,2.531,2.912,20.031,20.031,0,0,1,5.063,5.361,58.572,58.572,0,0,1,1.242,6.88" transform="translate(-1645.576 -166.177)" fill="#feae2e" stroke="#000" stroke-linecap="round" stroke-linejoin="round" stroke-width="2.25"/><path d="M1650.578,191.606c.138.675-2.716,4.094,1.2,8.1-3.544,3.967-3.543,4.474-3.543,4.474s1.979,1.013,5.522-1.773c5.844,6.585,3.9,9.6,3.9,9.6" transform="translate(-1593.941 -176.237)" fill="#feae2e" stroke="#000" stroke-linecap="round" stroke-linejoin="round" stroke-width="2.25"/><path d="M1689.462,252.852s-.538-.707.421-3.349a11.039,11.039,0,0,0,2.247,1.545c.421.387,4.834.972,5.114,3.677" transform="translate(-1626.219 -221.727)" fill="#feae2e" stroke="#000" stroke-linecap="round" stroke-linejoin="round" stroke-width="2.25"/><path d="M1698.81,146.315c0-.2-.889-1.947-4.2.238C1696.383,146.653,1698.138,147.587,1698.81,146.315Z" transform="translate(-1630.38 -139.983)" fill="#ef7d00" stroke="#000" stroke-linecap="round" stroke-linejoin="round" stroke-width="2.25"/><path d="M1789.083,186.751c.162.074,9.9,2.01,13.152,1.042-4.14,5.063-12.421,1.638-12.421,1.638,4.059,1.117,4.222,1.042,5.52,2.085.406.968-7.469.521-10.067-.819,7.225,2.085,7.388,1.936,7.631,2.755.325,1.117-11.853-.3-12.908-1.787,3.247,2.308,5.033,2.755,6.819,3.8-2.192.894-6.251,1.787-13.72-3.053,9.823,8.191,18.672,7.669,20.053,9.159-3.41,4.617-16.643-2.755-22.732-6.478s13.314,9.01,15.1,8.786c-.893,1.266-7.307.149-7.713-.447" transform="translate(-1689.015 -172.422)" fill="#feae2e" stroke="#000" stroke-linecap="round" stroke-linejoin="round" stroke-width="2.25"/><path d="M1855.159,226.712a39.179,39.179,0,0,1-5.033.074" transform="translate(-1752.573 -203.82)" fill="#ef7d00" stroke="#000" stroke-linecap="round" stroke-linejoin="round" stroke-width="2.25"/><path d="M1532.26,166.984s7.409,3.588,10.538,3.335a5.629,5.629,0,0,1-2.071,1.013,9.973,9.973,0,0,0,6.213.675c-.782.718-1.795,1.52-1.795,1.52a8.486,8.486,0,0,0,5.983-.549,22.675,22.675,0,0,0-1.519,1.9l2.209.127" transform="translate(-1502.821 -156.891)" fill="#ef7d00" stroke="#000" stroke-linecap="round" stroke-linejoin="round" stroke-width="2.25"/></g></g></svg>