<svg xmlns="http://www.w3.org/2000/svg" xmlns:xlink="http://www.w3.org/1999/xlink" width="512" height="300" viewBox="0 0 512 300"><defs><clipPath id="a"><path d="M0,0H512V300H0Z" fill="blue" clip-rule="evenodd"/></clipPath><clipPath id="c"><rect width="512" height="300"/></clipPath></defs><g id="b" clip-path="url(#c)"><path d="M0,0H512V300H0Z" fill="#358142"/><path d="M0,90H512V304.286H0Z" transform="translate(0 -47.143)" fill="#fcd93a"/><path d="M0,180H512V308.571H0Z" transform="translate(0 -94.286)" fill="#f23b27"/><path d="M0,270H512v42.857H0Z" transform="translate(0 -141.429)" fill="#424242"/><g clip-path="url(#a)"><path d="M0,0V300L170.667,150Z" fill="#424242" stroke="#3a3a3a" stroke-width="30"/></g><path d="M0,0V300L170.667,150Z" fill="#fff"/><path d="M79.874,156.622l33.8,121.918-88.5-75.35h109.39l-88.5,75.35Z" transform="translate(-14.948 -82.04)" fill="#f23b27"/><path d="M128.647,216.13a5.371,5.371,0,0,0-4.756-2.288,5.679,5.679,0,0,0-4.417,3.082,13.677,13.677,0,0,0-3.093.265,3.26,3.26,0,0,0-2.252,1.878,4.316,4.316,0,0,0-.157,3.233l3.49-.243a5.682,5.682,0,0,1,2.379,4.623l.393,16.253a13.388,13.388,0,0,0-1,5.24,57.34,57.34,0,0,0,.443,6.523,7.8,7.8,0,0,1-1.646,5.93,41.128,41.128,0,0,0-5.253,8.08,7.111,7.111,0,0,0,.495,7.1l3.977,18.031H147.1l1.656-15.3a22.365,22.365,0,0,1,8.605-15.735l1.175.391a1.636,1.636,0,0,0,2-1.024,2.244,2.244,0,0,0-.473-2.495l-28.234-25.872-.742-10.89a12.859,12.859,0,0,0-2.44-6.789" transform="translate(-66.526 -112.003)" fill="#fcd93a" fill-rule="evenodd"/><path d="M127.807,215.931l-.023-.031.572-.593.023.031Zm-.023-.031a5.986,5.986,0,0,0-.5-.58l.5-.674a6.854,6.854,0,0,1,.568.662Zm0-1.256h0l-.252.337Zm-.5.677a5.548,5.548,0,0,0-.551-.493l.422-.747a6.332,6.332,0,0,1,.632.564Zm-.551-.493a4.789,4.789,0,0,0-3.369-1.033l-.054-.9a5.469,5.469,0,0,1,3.845,1.183Zm-3.368-1.033-.035,0-.054-.9.035,0Zm-.092-.9h0l.027.449Zm.06.9a4.584,4.584,0,0,0-.694.117l-.159-.877a5.28,5.28,0,0,1,.793-.138Zm-.694.117a4.7,4.7,0,0,0-.668.222l-.255-.845a5.5,5.5,0,0,1,.764-.253Zm-.668.222a5.612,5.612,0,0,0-2.727,2.534l-.644-.484a6.409,6.409,0,0,1,3.116-2.9Zm-2.727,2.534-.331.207.009-.449Zm-.331.207-.1,0,.009-.9.112,0-.018.9Zm-.1,0h0l.006-.449Zm0,0c-.141,0-.282,0-.421,0l-.006-.9c.147,0,.3,0,.44,0Zm-.421,0c-.133,0-.275.006-.42.011l-.027-.9c.141-.006.288-.011.441-.011Zm-.42.011a13.33,13.33,0,0,0-2.074.251l-.129-.884a14.006,14.006,0,0,1,2.176-.265Zm-2.074.251-.015,0-.129-.884.015,0,.129.884Zm-.146-.881h0l.064.442-.066-.442Zm.132.884a2.478,2.478,0,0,0-.346.1l-.224-.857a3.184,3.184,0,0,1,.438-.125Zm-.346.1a2.632,2.632,0,0,0-.328.147l-.315-.818a3.272,3.272,0,0,1,.418-.186Zm-.644-.671h0l.157.409Zm.317.818a3.037,3.037,0,0,0-1.3,1.4l-.671-.432a3.864,3.864,0,0,1,1.649-1.789Zm-1.968.975v0l.335.216Zm.674.425-.021.045-.674-.425.021-.045Zm-.694-.377v0l.337.212-.337-.21Zm.674.421a3.583,3.583,0,0,0-.146.378l-.715-.32a4.5,4.5,0,0,1,.188-.479Zm-.861.06v0l.357.16-.357-.158Zm.715.316a3.989,3.989,0,0,0-.105.394l-.742-.214a4.843,4.843,0,0,1,.132-.5Zm-.847.182h0l.371.107Zm.742.211a3.832,3.832,0,0,0,.132,2.039l-.707.34a4.864,4.864,0,0,1-.167-2.59Zm-.2,2.659-.376-.279.353-.17Zm-.045-.9,3.49-.243.045.9-3.49.242Zm3.49-.243.208.058-.185.391Zm.208.058.088.059-.39.772-.07-.048.371-.782Zm.088.059a5.119,5.119,0,0,1,.6.489l-.479.7a4.349,4.349,0,0,0-.512-.416Zm.6.489a5.427,5.427,0,0,1,.53.579l-.56.61a4.6,4.6,0,0,0-.449-.49Zm.53.579a6.506,6.506,0,0,1,1.357,3.876l-.766.024a5.519,5.519,0,0,0-1.15-3.29Zm1.357,3.876.393,16.252-.767.024-.393-16.253Zm.393,16.252-.039.207-.344-.194.383-.012Zm-.039.207c-.022.054-.053.132-.085.212l-.694-.376c.025-.065.053-.135.091-.225Zm-.779-.162h0l.347.188-.347-.186Zm.694.372c-.084.215-.164.44-.239.667l-.713-.323c.078-.237.164-.477.257-.715Zm-.953.345h0l.356.161Zm.715.32c-.073.225-.141.452-.2.68l-.731-.267c.066-.246.138-.491.217-.733Zm-.2.68a13.066,13.066,0,0,0-.432,3.486l-.766.011a14.079,14.079,0,0,1,.468-3.763l.731.267Zm-.432,3.486c0,.076,0,.153,0,.236l-.766.014c0-.075,0-.158,0-.24l.766-.011Zm0,.236c0,.291.01.592.021.9l-.766.032c-.009-.3-.017-.6-.021-.916l.766-.014Zm.021.9c.008.286.02.586.035.9l-.766.049c-.014-.291-.026-.6-.035-.915Zm.035.9q.1,2.235.38,4.431l-.758.129q-.283-2.256-.388-4.512Zm.38,4.431,0,.021-.758.129,0-.021Zm0,.021h0l-.379.063Zm0,0a8.747,8.747,0,0,1,.065.968l-.767.011a7.9,7.9,0,0,0-.056-.852l.758-.126Zm.065.968a8.605,8.605,0,0,1-.043.958l-.76-.1a7.877,7.877,0,0,0,.036-.846l.767-.011Zm-.043.958a8.057,8.057,0,0,1-1.777,4.361l-.545-.628a7.083,7.083,0,0,0,1.562-3.834Zm-1.777,4.361v0l-.271-.318Zm0,0c-.01.012.065-.1.044-.064l-.638-.5a.411.411,0,0,1,.051-.073Zm.044-.064-.047.065-.272-.314Zm-.047.065q-.394.472-.826,1.026l-.566-.607q.389-.5.847-1.047Zm-1.392.42h0l.283.3Zm.566.6c-.277.355-.544.709-.8,1.058l-.581-.582c.272-.373.543-.734.812-1.079Zm-1.38.475h0l.29.291-.292-.291Zm.584.583a41.377,41.377,0,0,0-3.57,5.9l-.661-.449a42.289,42.289,0,0,1,3.647-6.037Zm-4.233,5.454h0l.331.225-.333-.225Zm.665.449-.015.03-.665-.449.015-.03Zm-.015.03a6.322,6.322,0,0,0-.361.906l-.719-.306a7.284,7.284,0,0,1,.415-1.05Zm-.361.906a6.576,6.576,0,0,0-.218.949l-.752-.158a7.6,7.6,0,0,1,.252-1.1Zm-.218.949a6.531,6.531,0,0,0,1.051,4.711l-.59.568a7.539,7.539,0,0,1-1.213-5.437Zm1.051,4.711.075.172-.37.112Zm.075.172,3.977,18.031-.74.225-3.977-18.031ZM116.7,293.8l-.37-.336.37-.113Zm0-.9H146.55v.9H116.7Zm30.225.505-.379.393v-.449Zm-.758-.112,1.656-15.3.758.112-1.656,15.3Zm2.416-15.188h0l-.379-.056Zm-.761-.109c.006-.055-.01.109,0-.028l.758.116c-.014.122.006-.05,0,.02l-.76-.109Zm.762.087h0l-.379-.058.379.056Zm-.758-.112a25.619,25.619,0,0,1,.448-2.734l.742.221a24.561,24.561,0,0,0-.432,2.625Zm.448-2.734a24.977,24.977,0,0,1,.729-2.623l.713.33a24.016,24.016,0,0,0-.7,2.515Zm.729-2.623a21.746,21.746,0,0,1,7.6-10.678l.4.762a20.867,20.867,0,0,0-7.295,10.246Zm7.6-10.678.306-.051-.1.432Zm.306-.051,1.175.391-.207.864-1.175-.391Zm1.175.391h0l-.1.432Zm0,0,.009,0-.209.864-.009,0Zm-.2.867h0l.1-.432Zm.2-.864a1.161,1.161,0,0,0,.259.05l-.057.9a1.828,1.828,0,0,1-.406-.085Zm.259.05a1.219,1.219,0,0,0,.256-.006l.09.891a1.816,1.816,0,0,1-.4.012Zm.256-.006a1.354,1.354,0,0,0,1.03-.842l.683.4a2.139,2.139,0,0,1-1.624,1.33Zm1.714-.44h0l-.342-.2Zm-.686-.4,0-.011.686.4,0,.011Zm0-.011a1.788,1.788,0,0,0,.1-.288l.737.238a2.757,2.757,0,0,1-.147.45Zm.833-.052h0l-.369-.119Zm-.74-.235a1.864,1.864,0,0,0,.043-.3l.767.066a2.844,2.844,0,0,1-.07.465Zm.809-.232h0l-.383-.033Zm-.767-.063a1.694,1.694,0,0,0-.506-1.349l.47-.706a2.661,2.661,0,0,1,.8,2.118Zm-.506-1.349-28.234-25.872.47-.706,28.234,25.873Zm-28.234-25.872-.148-.318.383-.035Zm-.148-.318-.742-10.89.766-.07.742,10.89Zm-.742-10.89,0-.038.766-.07,0,.038Zm.764-.11h0l-.383.035Zm-.766.073c-.025-.353-.061-.689-.108-1.005l.754-.151c.055.372.1.735.12,1.083Zm-.108-1.005c-.049-.329-.111-.657-.186-.982l.739-.231c.08.348.147.7.2,1.063Zm-.186-.982a12.041,12.041,0,0,0-2.048-4.505l.575-.59A13,13,0,0,1,130.6,220.2" transform="translate(-65.972 -111.508)"/><path d="M151.144,280.4c0,.01.006-.019,0,.018l-.733-.26c0-.012.006-.02.016-.052l.721.294Zm0,.018,0,.011-.364-.141Zm0,.011c-.069.242-.124.482-.166.716l-.748-.182c.05-.28.113-.552.187-.815Zm-.166.716c-.043.243-.075.487-.094.727l-.76-.08c.022-.28.058-.558.106-.828Zm-.094.727a7.464,7.464,0,0,0,.614,3.635l-.677.417a8.488,8.488,0,0,1-.7-4.133Zm.614,3.635,0,.01-.677.418,0-.01.677-.417Zm0,.01a6.687,6.687,0,0,0,.328.636l-.631.5a7.672,7.672,0,0,1-.373-.724Zm.328.636a6.575,6.575,0,0,0,.383.584l-.578.585a7.475,7.475,0,0,1-.437-.664Zm.383.584a5.525,5.525,0,0,0,2.68,2l-.207.864a6.292,6.292,0,0,1-3.052-2.278" transform="translate(-89.1 -146.721)"/><path d="M143.676,255.756l-11.59,9.281-.431-.74,11.59-9.281" transform="translate(-78.157 -133.58)"/><path d="M141.1,223.7a1.54,1.54,0,1,0-1.521,1.782A1.667,1.667,0,0,0,141.1,223.7" transform="translate(-81.959 -116.241)" fill="#ffd200" fill-rule="evenodd"/><path d="M140.158,223.2v0h.766v0Zm0,0a1.451,1.451,0,0,0-.332-.94l.539-.636a2.432,2.432,0,0,1,.56,1.576Zm-.332-.94a1.06,1.06,0,0,0-.8-.39l0-.9a1.771,1.771,0,0,1,1.336.652l-.539.636Zm-.8-1.288h0v0Zm0,.9h-.006v-.9h.006Zm-.006,0h0v-.9h0Zm0,0a1.058,1.058,0,0,0-.8.39l-.542-.631a1.774,1.774,0,0,1,1.344-.656Zm-.8.39a1.455,1.455,0,0,0-.332.938l-.766,0a2.424,2.424,0,0,1,.557-1.566l.542.631Zm-1.1.936h0Zm.766,0v.007h-.766v-.007Zm0,.007v0h-.766v0Zm0,0a1.45,1.45,0,0,0,.332.94l-.539.636a2.433,2.433,0,0,1-.56-1.576Zm.332.94a1.06,1.06,0,0,0,.8.39l0,.9a1.769,1.769,0,0,1-1.336-.652l.539-.635Zm.8,1.288h0v0Zm0-.9h.006v.9h-.006Zm.006,0h0v.9h0Zm0,0a1.057,1.057,0,0,0,.8-.39l.542.631a1.775,1.775,0,0,1-1.344.656Zm.8-.39a1.455,1.455,0,0,0,.332-.937l.766,0a2.425,2.425,0,0,1-.557,1.566l-.542-.631Zm1.1-.936h0Zm-.766,0V223.2h.766v.007" transform="translate(-81.399 -115.747)"/><path d="M137.975,307.176l.027-.016.342.8-.027.016-.342-.8Zm.37.786h0l-.171-.4Zm-.344-.8a6.054,6.054,0,0,0,.884-.638l.455.719a6.836,6.836,0,0,1-1,.719Zm.884-.638a6.515,6.515,0,0,0,.766-.79l.551.621a7.337,7.337,0,0,1-.862.888Zm.766-.79a7.94,7.94,0,0,0,1.683-5.592l.766-.077a8.929,8.929,0,0,1-1.9,6.291" transform="translate(-81.909 -157.177)"/><path d="M148.125,294.2l-.027.016-.342-.8.027-.016.342.8Zm-.371-.786h0l.171.4Zm.348.8a2.058,2.058,0,0,0-.3.215l-.458-.716a2.78,2.78,0,0,1,.407-.3Zm-.3.215a2.219,2.219,0,0,0-.256.267l-.554-.617a3.026,3.026,0,0,1,.352-.366Zm-.256.267a2.677,2.677,0,0,0-.558,1.875l-.766.077a3.67,3.67,0,0,1,.77-2.569" transform="translate(-86.8 -153.685)"/><path d="M148.4,321.849l-.006,0-.284-.832.006,0Zm-.006,0c-.395.186-.805.383-1.224.587l-.294-.828q.6-.289,1.234-.591Zm-1.224.587q-.613.3-1.221.6l-.3-.825c.409-.2.819-.407,1.227-.605Zm-1.221.6q-3.124,1.562-6.187,3.321l-.336-.807q3.068-1.761,6.222-3.339" transform="translate(-82.769 -168.152)"/><path d="M160.819,311.645l.014-.006.275.835-.014.006Zm.3.828h-.006l-.138-.417Zm-.288-.832a9.213,9.213,0,0,0,1.246-.715l.383.775a10,10,0,0,1-1.341.772Zm1.246-.715a9.748,9.748,0,0,0,1.13-.9l.476.706a10.568,10.568,0,0,1-1.223.973Zm1.13-.9a11.868,11.868,0,0,0,3.544-6.894l.752.161a12.8,12.8,0,0,1-3.819,7.438" transform="translate(-95.47 -158.782)"/><path d="M151.543,325h24.907v.9H151.543" transform="translate(-89.963 -170.24)"/><path d="M157.232,333.719a2.924,2.924,0,1,0-2.888,3.384,3.166,3.166,0,0,0,2.888-3.384" transform="translate(-89.912 -173.032)" fill="#ffd200" fill-rule="evenodd"/><path d="M156.289,333.224v0h.766v0Zm0,0a3.2,3.2,0,0,0-.735-2.073l.542-.636a4.181,4.181,0,0,1,.959,2.709Zm-.194-2.709h0l-.271.318.269-.318Zm-.539.636a2.332,2.332,0,0,0-1.765-.859v-.9a3.04,3.04,0,0,1,2.3,1.121Zm-1.765-.859h-.006v-.9h.006Zm-.006,0h0v-.9h0Zm0,0a2.327,2.327,0,0,0-1.769.859l-.542-.631a3.045,3.045,0,0,1,2.311-1.126Zm-1.769.859a3.2,3.2,0,0,0-.733,2.069h-.766a4.173,4.173,0,0,1,.957-2.7Zm-.733,2.069v.007h-.766v-.007Zm0,.007v0h-.766v0Zm0,0a3.2,3.2,0,0,0,.733,2.073l-.539.635a4.178,4.178,0,0,1-.961-2.708Zm.733,2.073a2.332,2.332,0,0,0,1.765.859v.9a3.04,3.04,0,0,1-2.3-1.121Zm1.765.859h.006v.9h-.006Zm.006,0h0v.9h0Zm0,0a2.333,2.333,0,0,0,1.769-.861l.542.635a3.047,3.047,0,0,1-2.311,1.124Zm2.311-.228h0l-.271-.318.271.316Zm-.542-.631a3.2,3.2,0,0,0,.733-2.068h.766a4.173,4.173,0,0,1-.957,2.7Zm.733-2.068v-.007h.766v.007" transform="translate(-89.352 -172.537)"/><path d="M185.508,333.719a2.924,2.924,0,1,0-2.888,3.384,3.166,3.166,0,0,0,2.888-3.384" transform="translate(-106.698 -173.032)" fill="#ffd200" fill-rule="evenodd"/><path d="M184.565,333.224v0h.766v0Zm0,0a3.2,3.2,0,0,0-.735-2.073l.542-.636a4.181,4.181,0,0,1,.959,2.709Zm-.194-2.709h0l-.271.318.269-.318Zm-.539.636a2.332,2.332,0,0,0-1.765-.859v-.9a3.041,3.041,0,0,1,2.3,1.121Zm-1.765-.859h-.006v-.9h.006Zm-.006,0h0v-.9h0Zm0,0a2.33,2.33,0,0,0-1.769.859l-.542-.631a3.046,3.046,0,0,1,2.312-1.126Zm-1.769.859a3.2,3.2,0,0,0-.733,2.069h-.766a4.173,4.173,0,0,1,.957-2.7Zm-.733,2.069v.007h-.766v-.007Zm0,.007v0h-.766v0Zm0,0a3.2,3.2,0,0,0,.733,2.073l-.539.635a4.177,4.177,0,0,1-.961-2.708Zm.733,2.073a2.332,2.332,0,0,0,1.765.859v.9a3.041,3.041,0,0,1-2.3-1.121Zm1.765.859h.006v.9h-.006Zm.006,0h0v.9h0Zm0,0a2.332,2.332,0,0,0,1.769-.861l.542.635a3.047,3.047,0,0,1-2.311,1.124Zm2.311-.228h0l-.271-.318.271.316Zm-.542-.631a3.2,3.2,0,0,0,.733-2.068h.766a4.172,4.172,0,0,1-.957,2.7Zm.733-2.068v-.007h.766v.007" transform="translate(-106.138 -172.537)"/><path d="M172.089,312.321c.135.047.27.092.4.134l-.2.867c-.142-.045-.286-.093-.426-.142Zm.4.134c.213.067.417.127.612.178l-.168.874c-.223-.059-.438-.121-.641-.185Zm.612.178c.206.054.412.1.617.148l-.137.881c-.217-.047-.434-.1-.648-.155Zm.617.148a13.494,13.494,0,0,0,2.93.3l0,.9a14.165,14.165,0,0,1-3.07-.319" transform="translate(-102.031 -163.597)"/><path d="M183.637,310.745a3.613,3.613,0,0,0,.385-.023l.078.891a4.163,4.163,0,0,1-.46.03l0-.9Zm.385-.023h0l.037.446-.039-.446Zm0,0a3.58,3.58,0,0,0,.641-.136l.195.867a4.255,4.255,0,0,1-.761.161Zm.641-.136a3.732,3.732,0,0,0,.607-.25l.308.821a4.4,4.4,0,0,1-.721.3Zm.607-.25a4.536,4.536,0,0,0,2.112-2.479l.7.357a5.381,5.381,0,0,1-2.5,2.943" transform="translate(-109.016 -161.258)"/><path d="M186.543,307.451l-25.154-8.363.207-.864,25.154,8.363" transform="translate(-95.809 -156.213)"/><path d="M116.3,347.876h35.025v.9H116.3" transform="translate(-69.043 -182.221)"/><path d="M136.2,366.608h25.97v.9H136.2" transform="translate(-80.855 -192.033)"/><path d="M161.153,359.5l-2.834,3.276-.536-.638,2.834-3.277" transform="translate(-93.668 -187.976)"/><path d="M152,359.533l2.834,3.277-.536.638-2.834-3.277" transform="translate(-89.919 -188.327)"/><path d="M148.523,359.5l-2.834,3.276-.536-.638,2.834-3.277" transform="translate(-86.17 -187.976)"/><path d="M139.373,359.533l2.835,3.277-.536.638-2.835-3.277" transform="translate(-82.42 -188.327)"/><path d="M173.783,359.5l-2.834,3.276-.536-.638,2.834-3.277" transform="translate(-101.166 -187.976)"/><path d="M164.634,359.533l2.834,2.958-.536.638-2.834-2.957" transform="translate(-97.417 -188.327)"/><path d="M186.415,359.5l-2.835,3.276-.536-.638,2.835-3.277" transform="translate(-108.664 -187.976)"/><path d="M177.265,359.533l2.835,2.958-.536.638-2.835-2.957" transform="translate(-104.915 -188.327)"/><path d="M198.03,361.979l-1.819,2.1-.536-.638,1.819-2.1" transform="translate(-116.163 -189.274)"/><path d="M189.9,359.533l2.834,3.277-.536.638-2.834-3.277" transform="translate(-112.414 -188.327)"/><path d="M161.153,349.93l-2.834,3.277-.536-.638,2.834-3.277" transform="translate(-93.668 -182.962)"/><path d="M152,349.962l2.834,3.277-.536.638-2.834-3.276" transform="translate(-89.919 -183.313)"/><path d="M148.523,349.93l-2.834,3.277-.536-.638,2.834-3.277" transform="translate(-86.17 -182.962)"/><path d="M139.373,349.962l2.835,3.277-.536.638-2.835-3.276" transform="translate(-82.42 -183.313)"/><path d="M173.783,349.93l-2.834,3.277-.536-.638,2.834-3.277" transform="translate(-101.166 -182.962)"/><path d="M164.634,349.962l2.834,3.277-.536.638L164.1,350.6" transform="translate(-97.417 -183.313)"/><path d="M186.415,349.93l-2.835,3.277-.536-.638,2.835-3.277" transform="translate(-108.664 -182.962)"/><path d="M177.265,349.962l2.835,3.277-.536.638-2.835-3.276" transform="translate(-104.915 -183.313)"/><path d="M198.595,351.044l-2.383,2.746-.536-.638,2.383-2.746" transform="translate(-116.163 -183.546)"/><path d="M189.9,349.962l2.834,3.277-.536.638L189.36,350.6" transform="translate(-112.414 -183.313)"/><path d="M128.7,230.581l-3.354.233-.045-.9,3.355-.233" transform="translate(-74.382 -120.31)"/><path d="M128.533,315.8l-.01.006-.329-.811.01-.006.329.811Zm-.346-.8.006,0,.165.405Zm.342.8a11.238,11.238,0,0,0-1.818,1.329l-.464-.712a11.99,11.99,0,0,1,1.94-1.421Zm-1.818,1.329a12.232,12.232,0,0,0-1.538,1.667l-.569-.6a13.065,13.065,0,0,1,1.643-1.779Zm-1.538,1.667a14.928,14.928,0,0,0-2.635,11.723l-.748.193A15.937,15.937,0,0,1,124.6,318.2" transform="translate(-72.132 -164.995)"/><path d="M133.8,331.355l-.047.027-.335-.807.047-.027Zm-.385-.778h0l.168.4Zm.342.8a6.478,6.478,0,0,0-.923.656l-.449-.726a7.231,7.231,0,0,1,1.031-.734Zm-.923.656a6.927,6.927,0,0,0-.8.81l-.545-.628a7.706,7.706,0,0,1,.9-.907Zm-.8.81a8.663,8.663,0,0,0-1.877,5.853l-.756.032a9.609,9.609,0,0,1,2.089-6.513" transform="translate(-76.81 -173.144)"/><path d="M117.057,338.707l-.719-.056-.01.33c0-.012.012-.323.01-.33l.719.057Zm-.729.274.73-.267-.72-.063Zm.73-.267c.054.216.117.432.188.644l-.713.326c-.077-.232-.145-.459-.206-.7Zm.188.644c.07.212.149.42.233.62l-.686.4c-.1-.227-.183-.458-.26-.69Zm.233.62a7.787,7.787,0,0,0,1.848,2.684l-.476.7a8.675,8.675,0,0,1-2.057-2.989" transform="translate(-69.058 -177.389)"/><path d="M115.773,339.009l-.878,2.367-.7-.357.878-2.367" transform="translate(-67.792 -177.389)"/><path d="M122.2,342.633l.034-.305.686.4,0,.01Zm.72.095-.683-.407h0Zm-.683-.407c.095-.212.184-.419.269-.62l.688.393c-.093.221-.185.436-.277.641Zm.269-.62c.1-.239.186-.45.256-.627l.694.372c-.1.249-.185.465-.262.649Zm.256-.627a30.068,30.068,0,0,0,1.085-3.331l.731.263a30.974,30.974,0,0,1-1.121,3.44" transform="translate(-72.546 -176.913)"/><path d="M127.537,342.446l0-.012.746-.2,0,.012Zm.743-.215h0l-.373.1.373-.1Zm-.746.2c-.047-.235-.093-.45-.134-.638l.74-.225q.081.363.14.66Zm-.134-.638c-.04-.179-.09-.391-.15-.634l.737-.246c.045.184.1.4.153.654Zm.585-.881h0l-.369.123.367-.125Zm-.734.25a28.419,28.419,0,0,0-.98-3.163l-.016-.312.716-.049a29.419,29.419,0,0,1,1.013,3.275" transform="translate(-74.952 -176.859)"/><path d="M136.349,374.111l-1.11-6.69.752-.171,1.11,6.69" transform="translate(-80.285 -192.369)"/><path d="M131.5,357.725l-2.6-8.92.725-.288,2.6,8.92" transform="translate(-76.52 -182.556)"/><path d="M137.06,359.5l-2.035,2.355-.536-.639,2.035-2.355" transform="translate(-79.839 -187.976)"/><path d="M135.606,349.93l-3.031,3.5-.536-.639,3.031-3.5" transform="translate(-78.385 -182.962)"/></g></svg>