<svg xmlns="http://www.w3.org/2000/svg" width="512" height="300"><defs><clipPath id="a"><path d="M0 0h512v300H0z"/></clipPath></defs><g clip-path="url(#a)"><path fill="#feae2e" d="M401.49 186.292a149.946 149.946 0 1 1-109.227-181.8 149.959 149.959 0 0 1 109.227 181.8Z"/><path fill="#fff" d="M322.129 128.631c2.986-19.959-12.211-30.689-32.99-37.846l6.74-27.037-16.458-4.1-6.562 26.325c-4.326-1.078-8.77-2.1-13.186-3.1l6.609-26.5-16.448-4.1-6.745 27.028c-3.581-.816-7.1-1.622-10.509-2.47l.019-.084-22.7-5.667-4.37 17.572s12.211 2.8 11.953 2.972c6.665 1.664 7.87 6.075 7.669 9.572l-7.678 30.8a13.636 13.636 0 0 1 1.711.549c-.548-.136-1.134-.286-1.739-.431l-10.762 43.148c-.816 2.025-2.883 5.062-7.542 3.909.164.239-11.962-2.986-11.962-2.986l-8.17 18.839 21.417 5.339c3.984 1 7.889 2.044 11.733 3.028l-6.811 27.347 16.439 4.1 6.745-27.056a603.856 603.856 0 0 0 13.116 3.4l-6.722 26.93 16.458 4.1 6.811-27.3c28.064 5.311 49.167 3.169 58.049-22.214 7.158-20.437-.356-32.226-15.122-39.914 10.753-2.48 18.853-9.553 21.014-24.164Zm-37.6 52.729c-5.086 20.437-39.5 9.389-50.653 6.619l9.037-36.229c11.156 2.784 46.931 8.3 41.615 29.611Zm5.091-53.024c-4.641 18.59-33.281 9.145-42.571 6.83l8.194-32.859c9.286 2.315 39.209 6.637 34.377 26.029Z"/></g></svg>