<svg xmlns="http://www.w3.org/2000/svg" width="512" height="300"><defs><clipPath id="a"><path d="M0 0h512v300H0z"/></clipPath></defs><g clip-path="url(#a)"><path fill="#fff" d="M0 0h512v300H0z"/><g transform="translate(1 .5)"><path fill="#feae2e" d="M366 300c49.716-33.114 82.2-87.933 82.2-149.975S415.717 33.114 366 0h145v300ZM62.885 150c0 62.048 32.452 116.877 82.112 150H0V0h145C95.337 33.119 62.885 87.948 62.885 150Z"/><ellipse cx="157.5" cy="149.5" fill="#feae2e" rx="157.5" ry="149.5" transform="translate(98)"/><path fill="#fff" d="M302.261 94.938c-7.393-18.778-25.92-20.472-47.493-16.28l-7.681-26.785-16.304 4.678 7.48 26.08c-4.285 1.229-8.645 2.566-12.97 3.908l-7.526-26.254-16.294 4.673 7.673 26.78c-3.51 1.083-6.96 2.145-10.337 3.115l-.025-.083-22.492 6.443 5.001 17.403s11.975-3.681 11.838-3.403c6.604-1.892 9.853 1.326 11.427 4.455l8.75 30.513a13.636 13.636 0 0 1 1.757-.38c-.542.156-1.125.319-1.721.496l12.254 42.748c.305 2.162.034 5.825-4.578 7.156.262.125-11.852 3.395-11.852 3.395l2.344 20.4 21.217-6.084c3.95-1.126 7.854-2.175 11.675-3.245l7.775 27.09 16.287-4.67-7.687-26.803a603.856 603.856 0 0 0 13.06-3.614l7.643 26.683 16.303-4.678-7.752-27.048c26.96-9.433 44.165-21.84 39.165-48.263-4.02-21.277-16.421-27.73-33.053-27.005 8.072-7.524 11.55-17.7 6.117-31.434Zm-6.198 64.465c5.814 20.242-29.513 27.881-40.557 31.059l-10.288-35.894c11.053-3.167 44.793-16.278 50.845 4.836Zm-22.103-48.466c5.276 18.42-24.25 24.56-33.452 27.2l-9.334-32.553c9.2-2.638 37.275-13.857 42.786 5.353Z"/></g></g></svg>