<svg xmlns="http://www.w3.org/2000/svg" width="512" height="300"><defs><clipPath id="a"><path d="M0 0h512v300H0z"/></clipPath></defs><g fill="#4094e3" clip-path="url(#a)"><path d="M313.24 0H178.72l-11.161 62.332 121.425.144c59.813 0 77.447 21.737 76.943 57.726-.288 18.426-8.277 49.664-11.732 59.813-9.213 26.991-28.143 57.725-99.112 57.654L137.04 237.6 125.92 300h134.237c47.361 0 67.442-5.542 88.82-15.331 47.289-21.953 75.432-68.594 86.732-129.487C452.444 64.491 431.57 0 313.24 0"/><path d="M120.665 118.69c-35.269 0-40.307 22.961-43.618 36.852-4.39 18.138-5.83 25.548-5.83 25.548h137.764c35.269 0 40.307-22.961 43.618-36.852 4.391-18.138 5.83-25.552 5.83-25.552Z"/></g></svg>