<svg xmlns="http://www.w3.org/2000/svg" xmlns:xlink="http://www.w3.org/1999/xlink" width="512" height="300" viewBox="0 0 512 300"><defs><clipPath id="b"><rect width="512" height="300"/></clipPath></defs><g id="a" clip-path="url(#b)"><g transform="translate(-17)"><g transform="translate(88.217 0)"><path d="M263.32,0H128.8L117.639,62.332l121.425.144c59.813,0,77.447,21.737,76.943,57.726-.288,18.426-8.277,49.664-11.732,59.813-9.213,26.991-28.143,57.725-99.112,57.654L87.12,237.6,76,300H210.237c47.361,0,67.442-5.542,88.82-15.331,47.289-21.953,75.432-68.594,86.732-129.487C402.524,64.491,381.65,0,263.32,0" transform="translate(-21.297)" fill="#4094e3"/><path d="M49.448,164.9c-35.269,0-40.307,22.961-43.618,36.852C1.44,219.89,0,227.3,0,227.3H137.764c35.269,0,40.307-22.961,43.618-36.852,4.391-18.138,5.83-25.552,5.83-25.552Z" transform="translate(0 -46.21)" fill="#4094e3"/></g></g></g></svg>