<svg xmlns="http://www.w3.org/2000/svg" width="512" height="300"><defs><clipPath id="a"><path d="M0 0h512v300H0z"/></clipPath></defs><g clip-path="url(#a)"><path fill="#c7c7cd" d="M406 150A149.5 149.5 0 1 1 256.5.5 149.5 149.5 0 0 1 406 150"/><path fill="#c7c7cd" d="M374 150.5a118 118 0 1 1-118-118 118 118 0 0 1 118 118"/><path fill="#fff" d="m248.275 190.014 9.7-36.686 22.957-8.428 5.711-21.56-.195-.535-22.6 8.3L280.131 69.5H233.95l-21.3 80.39-17.775 6.525L189 178.643l17.766-6.52-12.55 47.377h122.905L325 190.014h-76.725"/></g></svg>