<svg xmlns="http://www.w3.org/2000/svg" xmlns:xlink="http://www.w3.org/1999/xlink" width="512" height="300" viewBox="0 0 512 300"><defs><clipPath id="b"><rect width="512" height="300"/></clipPath></defs><g id="a" clip-path="url(#b)"><g transform="translate(107 0.5)"><path d="M299,149.5A149.5,149.5,0,1,1,149.5,0,149.5,149.5,0,0,1,299,149.5" fill="#c7c7cd"/><path d="M236,118A118,118,0,1,1,118,0,118,118,0,0,1,236,118" transform="translate(31 32)" fill="#c7c7cd"/><path d="M59.275,120.514l9.7-36.686L91.932,75.4l5.711-21.56-.195-.535-22.6,8.3L91.131,0H44.95l-21.3,80.39L5.875,86.915,0,109.143l17.766-6.52L5.216,150H128.121L136,120.514H59.275" transform="translate(82 69)" fill="#fff"/></g></g></svg>