<svg xmlns="http://www.w3.org/2000/svg" xmlns:xlink="http://www.w3.org/1999/xlink" width="512" height="300" viewBox="0 0 512 300"><defs><linearGradient id="a" x1="0.5" y1="0.5" x2="1.034" y2="0.847" gradientUnits="objectBoundingBox"><stop offset="0" stop-color="#4094e3"/><stop offset="1" stop-color="#2e6aa3"/></linearGradient><clipPath id="c"><rect width="512" height="300"/></clipPath></defs><g id="b" clip-path="url(#c)"><g transform="translate(119 0.5)"><path d="M243.844,182.468c-10.546-6.1-22.421-7.873-34.184-8.285-9.869-.345-24.593-6.685-24.593-24.682,0-13.409,10.843-24.2,24.6-24.682,11.762-.412,23.637-2.183,34.179-8.285A62.4,62.4,0,1,0,150.4,62.455c0,12.1,4.293,23.233,9.77,33.56,4.607,8.685,6.938,24.806-8.863,33.95-11.753,6.8-26.422,2.5-33.749-9.259-6.189-9.928-13.66-19.231-24.12-25.286a62.388,62.388,0,1,0,0,108.161c10.457-6.053,17.928-15.349,24.113-25.271,5.079-8.148,17.763-18.533,33.754-9.272,11.736,6.8,15.364,21.69,8.858,33.956-5.477,10.325-9.764,21.457-9.764,33.554a62.319,62.319,0,1,0,93.441-54.08Z" fill="url(#a)"/></g></g></svg>