<svg xmlns="http://www.w3.org/2000/svg" xmlns:xlink="http://www.w3.org/1999/xlink" width="512" height="1024" viewBox="0 0 512 1024"><defs><clipPath id="b"><rect width="512" height="1024"/></clipPath></defs><g id="a" clip-path="url(#b)"><g transform="translate(32 255.727)"><path d="M-962,1015.417h-414a16.887,16.887,0,0,1-12.021-4.98,16.888,16.888,0,0,1-4.979-12.02V279.144h448V998.417a16.885,16.885,0,0,1-4.98,12.02A16.883,16.883,0,0,1-962,1015.417Z" transform="translate(1393 -279.144)"/></g><g transform="translate(384 896)"><circle cx="32" cy="32" r="32" fill="#0a84ff"/></g><g transform="translate(80 304)"><rect width="200" height="64" rx="8" transform="translate(0 336)" fill="#8e8e93"/><g transform="translate(-64 -192)"><circle cx="32" cy="32" r="32" transform="translate(209 416)" fill="#8e8e93"/><circle cx="32" cy="32" r="32" transform="translate(64 416)" fill="#8e8e93"/><circle cx="32" cy="32" r="32" transform="translate(352 416)" fill="#8e8e93"/></g><rect width="304" height="64" rx="8" transform="translate(0 112)" fill="#8e8e93"/><rect width="352" height="64" rx="8" fill="#8e8e93"/></g><g transform="translate(32 32)"><path d="M-945,239h-448V32a16.888,16.888,0,0,1,4.979-12.02A16.89,16.89,0,0,1-1376,15h111v8.548a17.886,17.886,0,0,0,1.415,7.007,17.937,17.937,0,0,0,3.858,5.722,17.94,17.94,0,0,0,5.722,3.857A17.886,17.886,0,0,0-1247,41.549h156a17.887,17.887,0,0,0,7.006-1.415,17.94,17.94,0,0,0,5.721-3.857,17.939,17.939,0,0,0,3.858-5.722A17.886,17.886,0,0,0-1073,23.549V15h111a16.885,16.885,0,0,1,12.02,4.98A16.885,16.885,0,0,1-945,32Z" transform="translate(1393 -15)" fill="#0a84ff"/></g><g transform="translate(80 80)"><circle cx="32" cy="32" r="32" fill="#ffd60a"/></g><g transform="translate(160 112)"><path d="M48,0,96,96H0Z" transform="translate(0 48)" fill="rgba(0,113,164,0.85)"/><path d="M56,0l56,112H0Z" transform="translate(72 32)" fill="rgba(0,113,164,0.85)"/><path d="M72,0l72,144H0Z" transform="translate(128)" fill="rgba(0,113,164,0.85)"/></g><g transform="translate(0 0)"><path d="M-1377,1007a47.7,47.7,0,0,1-18.684-3.772,47.834,47.834,0,0,1-15.257-10.287,47.818,47.818,0,0,1-10.287-15.257A47.7,47.7,0,0,1-1425,959V31a47.7,47.7,0,0,1,3.772-18.683,47.837,47.837,0,0,1,10.287-15.258,47.835,47.835,0,0,1,15.257-10.287A47.7,47.7,0,0,1-1377-17h416a47.7,47.7,0,0,1,18.683,3.772A47.843,47.843,0,0,1-927.059-2.941a47.839,47.839,0,0,1,10.287,15.258A47.681,47.681,0,0,1-913,31V959a47.686,47.686,0,0,1-3.773,18.684,47.835,47.835,0,0,1-10.287,15.257,47.828,47.828,0,0,1-15.258,10.287A47.7,47.7,0,0,1-961,1007Zm-11.021-987.02A16.89,16.89,0,0,0-1393,32V958a16.892,16.892,0,0,0,4.979,12.021A16.892,16.892,0,0,0-1376,975h414a16.889,16.889,0,0,0,12.02-4.979A16.888,16.888,0,0,0-945,958V32a16.886,16.886,0,0,0-4.98-12.02A16.888,16.888,0,0,0-962,15h-111V29a18,18,0,0,1-18,18h-156a18,18,0,0,1-18-18V15h-111A16.889,16.889,0,0,0-1388.021,19.98Z" transform="translate(1425 17)" fill="#3a3a3c"/></g></g></svg>