<svg xmlns="http://www.w3.org/2000/svg" width="512" height="1024"><defs><clipPath id="a"><path d="M0 0h512v1024H0z"/></clipPath></defs><g clip-path="url(#a)"><path fill="#fafafa" d="M463 992H49a16.887 16.887 0 0 1-12.021-4.98A16.888 16.888 0 0 1 32 975V255.727h448V975a16.885 16.885 0 0 1-4.98 12.02A16.883 16.883 0 0 1 463 992Z"/><circle cx="32" cy="32" r="32" fill="#007aff" transform="translate(384 896)"/><g fill="#c7c7cc" transform="translate(80 304)"><rect width="200" height="64" rx="8" transform="translate(0 336)"/><g transform="translate(-64 -192)"><circle cx="32" cy="32" r="32" transform="translate(209 416)"/><circle cx="32" cy="32" r="32" transform="translate(64 416)"/><circle cx="32" cy="32" r="32" transform="translate(352 416)"/></g><rect width="304" height="64" rx="8" transform="translate(0 112)"/><rect width="352" height="64" rx="8"/></g><path fill="#007aff" d="M480 256H32V49a16.888 16.888 0 0 1 4.979-12.02A16.89 16.89 0 0 1 49 32h111v8.548a17.886 17.886 0 0 0 1.415 7.007 17.937 17.937 0 0 0 3.858 5.722 17.94 17.94 0 0 0 5.722 3.857A17.886 17.886 0 0 0 178 58.549h156a17.887 17.887 0 0 0 7.006-1.415 17.94 17.94 0 0 0 5.721-3.857 17.939 17.939 0 0 0 3.858-5.722A17.886 17.886 0 0 0 352 40.549V32h111a16.885 16.885 0 0 1 12.02 4.98A16.885 16.885 0 0 1 480 49Z"/><circle cx="32" cy="32" r="32" fill="#fc0" transform="translate(80 80)"/><g fill="rgba(112,215,255,0.85)"><path d="m208 160 48 96h-96Z"/><path d="m288 144 56 112H232Z"/><path d="m360 112 72 144H288Z"/></g><path fill="#d1d1d6" d="M48 1024a47.7 47.7 0 0 1-18.684-3.772 47.834 47.834 0 0 1-15.257-10.287 47.818 47.818 0 0 1-10.287-15.257A47.7 47.7 0 0 1 0 976V48a47.7 47.7 0 0 1 3.772-18.683 47.837 47.837 0 0 1 10.287-15.258A47.835 47.835 0 0 1 29.316 3.772 47.7 47.7 0 0 1 48 0h416a47.7 47.7 0 0 1 18.683 3.772 47.843 47.843 0 0 1 15.258 10.287 47.839 47.839 0 0 1 10.287 15.258A47.681 47.681 0 0 1 512 48v928a47.686 47.686 0 0 1-3.773 18.684 47.835 47.835 0 0 1-10.287 15.257 47.828 47.828 0 0 1-15.258 10.287A47.7 47.7 0 0 1 464 1024ZM36.979 36.98A16.89 16.89 0 0 0 32 49v926a16.892 16.892 0 0 0 4.979 12.021A16.892 16.892 0 0 0 49 992h414a16.889 16.889 0 0 0 12.02-4.979A16.888 16.888 0 0 0 480 975V49a16.886 16.886 0 0 0-4.98-12.02A16.888 16.888 0 0 0 463 32H352v14a18 18 0 0 1-18 18H178a18 18 0 0 1-18-18V32H49a16.889 16.889 0 0 0-12.021 4.98Z"/></g></svg>