<svg xmlns="http://www.w3.org/2000/svg" width="640" height="512"><defs><filter id="b" width="274" height="247.516" x="-9" y="-5.774" filterUnits="userSpaceOnUse"><feOffset dy="3"/><feGaussianBlur result="b" stdDeviation="3"/><feFlood flood-opacity=".161"/><feComposite in2="b" operator="in"/><feComposite in="SourceGraphic"/></filter><filter id="c" width="262.263" height="233.659" x="386.737" y="290.083" filterUnits="userSpaceOnUse"><feOffset dy="3"/><feGaussianBlur result="d" stdDeviation="3"/><feFlood flood-opacity=".161"/><feComposite in2="d" operator="in"/><feComposite in="SourceGraphic"/></filter><filter id="d" width="274" height="228.646" x="380" y="20" filterUnits="userSpaceOnUse"><feOffset dy="3"/><feGaussianBlur result="f" stdDeviation="3"/><feFlood flood-opacity=".161"/><feComposite in2="f" operator="in"/><feComposite in="SourceGraphic"/></filter><filter id="e" width="233.981" height="161.987" x="19.249" y="299.171" filterUnits="userSpaceOnUse"><feOffset dy="3"/><feGaussianBlur result="h" stdDeviation="3"/><feFlood flood-opacity=".161"/><feComposite in2="h" operator="in"/><feComposite in="SourceGraphic"/></filter><filter id="f" width="79.393" height="58.928" x="18.894" y="432.702" filterUnits="userSpaceOnUse"><feOffset dy="3"/><feGaussianBlur result="j" stdDeviation="3"/><feFlood flood-opacity=".161"/><feComposite in2="j" operator="in"/><feComposite in="SourceGraphic"/></filter><filter id="g" width="61.196" height="46.797" x="-6" y="469.567" filterUnits="userSpaceOnUse"><feOffset dy="3"/><feGaussianBlur result="l" stdDeviation="3"/><feFlood flood-opacity=".161"/><feComposite in2="l" operator="in"/><feComposite in="SourceGraphic"/></filter><clipPath id="a"><path d="M0 0h640v512H0z"/></clipPath></defs><g clip-path="url(#a)"><path fill="#64d2ff" d="M416 160H224a32.03 32.03 0 0 0-32 32v144a32.03 32.03 0 0 0 32 32h48v42a6.013 6.013 0 0 0 9.55 4.85L344 368h72a32.03 32.03 0 0 0 32-32V192a32.03 32.03 0 0 0-32-32Z"/><text fill="#fafafa" font-family="RobotoCondensed-Regular, Roboto Condensed" font-size="72" transform="translate(320.374 290.74)"><tspan x="-72.176" y="0">Salut</tspan></text><g filter="url(#b)" opacity=".95" transform="translate(0 .002)"><path fill="#ff453a" d="M128 .23C57.3.23 0 47.93 0 106.791c0 25.411 10.7 48.67 28.5 66.959-6.25 25.821-27.15 48.824-27.4 49.08a4.149 4.149 0 0 0-.75 4.457A3.914 3.914 0 0 0 4 229.746c33.15 0 58-16.292 70.3-26.333a149.237 149.237 0 0 0 53.7 9.939c70.7 0 128-47.7 128-106.561S198.7.23 128 .23Z"/></g><text fill="#fafafa" font-family="RobotoCondensed-Regular, Roboto Condensed" font-size="64" transform="translate(128.374 139.74)"><tspan x="-65.547" y="0">Hello</tspan></text><g filter="url(#c)" opacity=".9" transform="translate(-.003 .003)"><path fill="#30d158" d="M517.871 296.08c67.459 0 122.131 44.817 122.131 100.127 0 23.877-10.209 45.731-27.193 62.917 5.963 24.262 25.905 45.876 26.144 46.116a3.853 3.853 0 0 1 .716 4.188 3.735 3.735 0 0 1-3.483 2.311c-31.63 0-55.341-15.308-67.077-24.743a144.342 144.342 0 0 1-51.238 9.339c-67.458 0-122.131-44.817-122.131-100.128S450.413 296.08 517.871 296.08Z"/></g><text fill="#fafafa" font-family="RobotoCondensed-Regular, Roboto Condensed" font-size="71" transform="translate(517.261 431.112)"><tspan x="-63.078" y="0">Ciao</tspan></text><g filter="url(#d)"><path fill="#bf5af2" d="M561.528 30.217a8 8 0 0 1 11.22 4.863l10.758 35.8a8 8 0 0 0 6.067 5.537l43.178 8.783a8 8 0 0 1 4.856 12.571l-21.136 28.815a8 8 0 0 0 0 9.463l21.136 28.815a8 8 0 0 1-4.856 12.571l-43.179 8.784a8 8 0 0 0-6.067 5.537l-10.758 35.8a8 8 0 0 1-11.22 4.863l-40.969-20.346a8 8 0 0 0-7.117 0l-40.969 20.355a8 8 0 0 1-11.22-4.863l-10.758-35.8a8 8 0 0 0-6.067-5.537l-43.179-8.784a8 8 0 0 1-4.855-12.574l21.136-28.815a8 8 0 0 0 0-9.463l-21.136-28.816a8 8 0 0 1 4.856-12.576l43.179-8.784a8 8 0 0 0 6.067-5.537l10.757-35.799a8 8 0 0 1 11.22-4.863l40.969 20.346a8 8 0 0 0 7.117 0Z" opacity=".851"/></g><text fill="#fafafa" font-family="PingFangSC-Regular, PingFang SC" font-size="56" transform="translate(517.002 151.198)"><tspan x="-56" y="0">你好</tspan></text><g filter="url(#e)" transform="translate(0 .001)"><ellipse cx="107.99" cy="71.994" fill="#ff9f0a" opacity=".85" rx="107.99" ry="71.994" transform="translate(28.25 305.17)"/></g><g filter="url(#f)" transform="translate(0 .001)"><ellipse cx="30.696" cy="20.464" fill="#ff9f0a" opacity=".85" rx="30.696" ry="20.464" transform="translate(27.89 438.7)"/></g><g filter="url(#g)" transform="translate(0 .001)"><ellipse cx="21.598" cy="14.399" fill="#ff9f0a" opacity=".85" rx="21.598" ry="14.399" transform="translate(3 475.57)"/></g><text fill="#fafafa" font-family="RobotoCondensed-Regular, Roboto Condensed" font-size="59" transform="translate(134.532 400.258)"><tspan x="-53.987" y="0">Hola</tspan></text></g></svg>