<svg xmlns="http://www.w3.org/2000/svg" xmlns:xlink="http://www.w3.org/1999/xlink" width="640" height="512" viewBox="0 0 640 512"><defs><filter id="a" x="-9" y="-5.774" width="274" height="247.516" filterUnits="userSpaceOnUse"><feOffset dy="3" input="SourceAlpha"/><feGaussianBlur stdDeviation="3" result="b"/><feFlood flood-opacity="0.161"/><feComposite operator="in" in2="b"/><feComposite in="SourceGraphic"/></filter><filter id="c" x="386.737" y="290.083" width="262.263" height="233.659" filterUnits="userSpaceOnUse"><feOffset dy="3" input="SourceAlpha"/><feGaussianBlur stdDeviation="3" result="d"/><feFlood flood-opacity="0.161"/><feComposite operator="in" in2="d"/><feComposite in="SourceGraphic"/></filter><filter id="e" x="380" y="20" width="274" height="228.646" filterUnits="userSpaceOnUse"><feOffset dy="3" input="SourceAlpha"/><feGaussianBlur stdDeviation="3" result="f"/><feFlood flood-opacity="0.161"/><feComposite operator="in" in2="f"/><feComposite in="SourceGraphic"/></filter><filter id="g" x="19.249" y="299.171" width="233.981" height="161.987" filterUnits="userSpaceOnUse"><feOffset dy="3" input="SourceAlpha"/><feGaussianBlur stdDeviation="3" result="h"/><feFlood flood-opacity="0.161"/><feComposite operator="in" in2="h"/><feComposite in="SourceGraphic"/></filter><filter id="i" x="18.894" y="432.702" width="79.393" height="58.928" filterUnits="userSpaceOnUse"><feOffset dy="3" input="SourceAlpha"/><feGaussianBlur stdDeviation="3" result="j"/><feFlood flood-opacity="0.161"/><feComposite operator="in" in2="j"/><feComposite in="SourceGraphic"/></filter><filter id="k" x="-6" y="469.567" width="61.196" height="46.797" filterUnits="userSpaceOnUse"><feOffset dy="3" input="SourceAlpha"/><feGaussianBlur stdDeviation="3" result="l"/><feFlood flood-opacity="0.161"/><feComposite operator="in" in2="l"/><feComposite in="SourceGraphic"/></filter><clipPath id="n"><rect width="640" height="512"/></clipPath></defs><g id="m" clip-path="url(#n)"><g transform="translate(192 160)"><path d="M224,0H32A32.03,32.03,0,0,0,0,32V176a32.03,32.03,0,0,0,32,32H80v42a6.013,6.013,0,0,0,9.55,4.85L152,208h72a32.03,32.03,0,0,0,32-32V32A32.03,32.03,0,0,0,224,0Z" fill="#64d2ff"/><path fill="#64d2ff"/><text transform="translate(128.374 130.74)" fill="#fafafa" font-size="72" font-family="RobotoCondensed-Regular, Roboto Condensed"><tspan x="-72.176" y="0">Salut</tspan></text></g><g transform="translate(-71 -131)"><g transform="translate(71 120.742)" opacity="0.95"><g transform="matrix(1, 0, 0, 1, 0, 10.26)" filter="url(#a)"><path d="M128,32C57.3,32,0,79.7,0,138.561c0,25.411,10.7,48.67,28.5,66.959C22.25,231.341,1.35,254.344,1.1,254.6a4.149,4.149,0,0,0-.75,4.457A3.914,3.914,0,0,0,4,261.516c33.15,0,58-16.292,70.3-26.333a149.237,149.237,0,0,0,53.7,9.939c70.7,0,128-47.7,128-106.561S198.7,32,128,32Z" transform="translate(0 -31.77)" fill="#ff453a"/></g></g><text transform="translate(199.374 270.74)" fill="#fafafa" font-size="64" font-family="RobotoCondensed-Regular, Roboto Condensed"><tspan x="-65.547" y="0">Hello</tspan></text></g><g transform="translate(395.737 285.599)"><g transform="translate(0 10.484)" opacity="0.9"><g transform="matrix(1, 0, 0, 1, -395.74, -296.08)" filter="url(#c)"><path d="M122.131,32c67.459,0,122.131,44.817,122.131,100.127,0,23.877-10.209,45.731-27.193,62.917,5.963,24.262,25.905,45.876,26.144,46.116a3.853,3.853,0,0,1,.716,4.188,3.735,3.735,0,0,1-3.483,2.311c-31.63,0-55.341-15.308-67.077-24.743a144.342,144.342,0,0,1-51.238,9.339C54.673,232.255,0,187.438,0,132.127S54.673,32,122.131,32Z" transform="translate(395.74 264.08)" fill="#30d158"/></g></g><text transform="translate(121.524 145.513)" fill="#fafafa" font-size="71" font-family="RobotoCondensed-Regular, Roboto Condensed"><tspan x="-63.078" y="0">Ciao</tspan></text></g><g transform="translate(128 -6)"><g transform="matrix(1, 0, 0, 1, -128, 6)" filter="url(#e)"><path d="M172.528,4.217a8,8,0,0,1,11.22,4.863l10.758,35.8a8,8,0,0,0,6.067,5.537L243.751,59.2a8,8,0,0,1,4.856,12.571l-21.136,28.815a8,8,0,0,0,0,9.463l21.136,28.815a8,8,0,0,1-4.856,12.571l-43.179,8.784a8,8,0,0,0-6.067,5.537l-10.758,35.8a8,8,0,0,1-11.22,4.863l-40.969-20.346a8,8,0,0,0-7.117,0L83.472,206.428a8,8,0,0,1-11.22-4.863l-10.758-35.8a8,8,0,0,0-6.067-5.537l-43.179-8.784A8,8,0,0,1,7.393,138.87l21.136-28.815a8,8,0,0,0,0-9.463L7.393,71.776A8,8,0,0,1,12.249,59.2l43.179-8.784a8,8,0,0,0,6.067-5.537L72.252,9.08a8,8,0,0,1,11.22-4.863l40.969,20.346a8,8,0,0,0,7.117,0Z" transform="translate(389 26)" fill="#bf5af2" opacity="0.851"/></g><text transform="translate(389.002 157.198)" fill="#fafafa" font-size="56" font-family="PingFangSC-Regular, PingFang SC"><tspan x="-56" y="0">你好</tspan></text></g><g transform="translate(-24 -25.829)"><g transform="matrix(1, 0, 0, 1, 24, 25.83)" filter="url(#g)"><ellipse cx="107.99" cy="71.994" rx="107.99" ry="71.994" transform="translate(28.25 305.17)" fill="#ff9f0a" opacity="0.85"/></g><g transform="matrix(1, 0, 0, 1, 24, 25.83)" filter="url(#i)"><ellipse cx="30.696" cy="20.464" rx="30.696" ry="20.464" transform="translate(27.89 438.7)" fill="#ff9f0a" opacity="0.85"/></g><g transform="matrix(1, 0, 0, 1, 24, 25.83)" filter="url(#k)"><ellipse cx="21.598" cy="14.399" rx="21.598" ry="14.399" transform="translate(3 475.57)" fill="#ff9f0a" opacity="0.85"/></g><text transform="translate(158.532 426.087)" fill="#fafafa" font-size="59" font-family="RobotoCondensed-Regular, Roboto Condensed"><tspan x="-53.987" y="0">Hola</tspan></text></g></g></svg>