<svg xmlns="http://www.w3.org/2000/svg" width="512" height="300"><defs><linearGradient id="b" x1=".5" x2="1" y1=".5" y2="1" gradientUnits="objectBoundingBox"><stop offset="0" stop-color="#4094e3"/><stop offset="1" stop-color="#2e6aa3"/></linearGradient><clipPath id="a"><path d="M0 0h512v300H0z"/></clipPath></defs><g clip-path="url(#a)"><path fill="none" d="M0 0h512v300H0z"/><path fill="url(#b)" d="M145.352 80.875C119.22 31.25 148.356 0 148.356 0s-49.54 17.219-76.14 49.563-31.295 73.031-23.534 88.687c-15.647-13.031-15.647-44.344-15.647-44.344s-41.81 33.906-31.357 101.75 80.959 99.125 80.959 99.125-62.589-28.687-18.276-96.531c0 0 0 15.625 15.647 31.25 0 0-26.131-62.5 23.5-101.75 0 0-5.195 39.344 22.219 62.719s22.188 72.938 22.188 72.938a66.434 66.434 0 0 0 15.647-54.781s17.994 21.875 2.472 55.281A61.011 61.011 0 0 1 119.22 300s78.237 0 104.493-60-18.276-138.25-18.276-138.25 10.484 41.719-18.276 73.031a100.469 100.469 0 0 0-7.855-39.125c-7.041-16.625-22.219-32.531-33.954-54.781Z" transform="translate(140 -.5)"/><path fill="#fff" d="M239.2 299.45a58.3 58.3 0 0 1-15.259-4.318c-2.06-1.09-63.893-29.541-19.58-97.385 0 0 0 15.625 15.647 31.25 0 0-26.131-62.5 23.5-101.75 0 0-5.195 39.344 22.219 62.719s22.188 72.938 22.188 72.938a66.434 66.434 0 0 0 15.651-54.779s17.994 21.875 2.472 55.281a61.011 61.011 0 0 1-46.481 36.044 75.956 75.956 0 0 1-20.357 0Z"/></g></svg>