<svg xmlns="http://www.w3.org/2000/svg" xmlns:xlink="http://www.w3.org/1999/xlink" width="512" height="300" viewBox="0 0 512 300"><defs><linearGradient id="a" x1="0.5" y1="0.5" x2="1" y2="1" gradientUnits="objectBoundingBox"><stop offset="0" stop-color="#4094e3"/><stop offset="1" stop-color="#2e6aa3"/></linearGradient><clipPath id="c"><rect width="512" height="300"/></clipPath></defs><g id="b" clip-path="url(#c)"><rect width="512" height="300" fill="none"/><g transform="translate(140 -0.5)"><path d="M145.352,80.875C119.22,31.25,148.356,0,148.356,0s-49.54,17.219-76.14,49.563S40.921,122.594,48.682,138.25C33.035,125.219,33.035,93.906,33.035,93.906s-41.81,33.906-31.357,101.75,80.959,99.125,80.959,99.125S20.048,266.094,64.361,198.25c0,0,0,15.625,15.647,31.25,0,0-26.131-62.5,23.5-101.75,0,0-5.195,39.344,22.219,62.719s22.188,72.938,22.188,72.938a66.434,66.434,0,0,0,15.647-54.781s17.994,21.875,2.472,55.281A61.011,61.011,0,0,1,119.22,300s78.237,0,104.493-60-18.276-138.25-18.276-138.25,10.484,41.719-18.276,73.031a100.469,100.469,0,0,0-7.855-39.125C172.265,119.031,157.087,103.125,145.352,80.875Z" fill="url(#a)"/><path d="M50.794,172.2a58.3,58.3,0,0,1-15.259-4.318c-2.06-1.09-63.893-29.541-19.58-97.385,0,0,0,15.625,15.647,31.25,0,0-26.131-62.5,23.5-101.75,0,0-5.195,39.344,22.219,62.719s22.188,72.938,22.188,72.938A66.434,66.434,0,0,0,115.16,80.875s17.994,21.875,2.472,55.281A61.011,61.011,0,0,1,71.151,172.2,75.956,75.956,0,0,1,50.794,172.2Z" transform="translate(48.406 127.75)" fill="#fff"/></g></g></svg>