<svg xmlns="http://www.w3.org/2000/svg" xmlns:xlink="http://www.w3.org/1999/xlink" width="512" height="300" viewBox="0 0 512 300"><defs><clipPath id="b"><rect width="512" height="300"/></clipPath></defs><g id="a" clip-path="url(#b)"><g transform="translate(1 0.5)"><g transform="translate(170)" fill="#fcd93a" stroke-linejoin="round" stroke-miterlimit="10"><path d="M 161.9562530517578 93.75 L 8.043749809265137 93.75 L 28.48433303833008 13.59086132049561 C 29.58650016784668 9.26866626739502 33.47150039672852 6.25 37.93199920654297 6.25 L 132.0679931640625 6.25 C 136.5285034179688 6.25 140.4134979248047 9.26866626739502 141.5156707763672 13.59086132049561 L 161.9562530517578 93.75 Z" stroke="none"/><path d="M 37.9320068359375 12.5 C 36.33079528808594 12.5 34.9361572265625 13.58363342285156 34.54052734375 15.13515472412109 L 16.08750915527344 87.5 L 153.9124603271484 87.5 L 135.4594116210938 15.13510894775391 C 135.0637817382812 13.58358001708984 133.6692199707031 12.5 132.0679931640625 12.5 L 37.9320068359375 12.5 M 37.9320068359375 0 L 132.0679931640625 0 C 139.3818359375 0 145.7646789550781 4.95947265625 147.5718383789062 12.04652404785156 L 170 100 L 0 100 L 22.4281005859375 12.04652404785156 C 24.23532104492188 4.95947265625 30.6181640625 0 37.9320068359375 0 Z" stroke="none" fill="#fde786"/></g><g transform="translate(170)" fill="none" stroke-linejoin="round" stroke-miterlimit="10"><path d="M22.428,12.047A16,16,0,0,1,37.932,0h94.136a16,16,0,0,1,15.5,12.047L170,100H0Z" stroke="none"/><path d="M 37.9320068359375 5 C 32.89962768554688 5 28.51654052734375 8.405670166015625 27.27310180664062 13.28196716308594 L 6.435012817382812 95 L 163.5649871826172 95 L 142.7268981933594 13.28196716308594 C 141.4834594726562 8.405670166015625 137.1003723144531 5 132.0679931640625 5 L 37.9320068359375 5 M 37.9320068359375 0 L 132.0679931640625 0 C 139.3818359375 0 145.7646636962891 4.959434509277344 147.5718688964844 12.04650115966797 L 170 100 L 0 100 L 22.42813110351562 12.04650115966797 C 24.23533630371094 4.959434509277344 30.61813354492188 0 37.9320068359375 0 Z" stroke="none" fill="#feae2e"/></g><g transform="translate(-85 100)"><g transform="translate(170)" fill="#fcd93a" stroke-linejoin="round" stroke-miterlimit="10"><path d="M 161.9562530517578 93.75 L 8.043749809265137 93.75 L 28.48433303833008 13.59086132049561 C 29.58650016784668 9.26866626739502 33.47150039672852 6.25 37.93199920654297 6.25 L 132.0679931640625 6.25 C 136.5285034179688 6.25 140.4134979248047 9.26866626739502 141.5156707763672 13.59086132049561 L 161.9562530517578 93.75 Z" stroke="none"/><path d="M 37.9320068359375 12.5 C 36.33079528808594 12.5 34.9361572265625 13.58363342285156 34.54052734375 15.13515472412109 L 16.08750915527344 87.5 L 153.9124603271484 87.5 L 135.4594116210938 15.13510894775391 C 135.0637817382812 13.58358001708984 133.6692199707031 12.5 132.0679931640625 12.5 L 37.9320068359375 12.5 M 37.9320068359375 0 L 132.0679931640625 0 C 139.3818359375 0 145.7646789550781 4.95947265625 147.5718383789062 12.04652404785156 L 170 100 L 0 100 L 22.4281005859375 12.04652404785156 C 24.23532104492188 4.95947265625 30.6181640625 0 37.9320068359375 0 Z" stroke="none" fill="#fde786"/></g><g transform="translate(170)" fill="none" stroke-linejoin="round" stroke-miterlimit="10"><path d="M22.428,12.047A16,16,0,0,1,37.932,0h94.136a16,16,0,0,1,15.5,12.047L170,100H0Z" stroke="none"/><path d="M 37.9320068359375 5 C 32.89962768554688 5 28.51654052734375 8.405670166015625 27.27310180664062 13.28196716308594 L 6.435012817382812 95 L 163.5649871826172 95 L 142.7268981933594 13.28196716308594 C 141.4834594726562 8.405670166015625 137.1003723144531 5 132.0679931640625 5 L 37.9320068359375 5 M 37.9320068359375 0 L 132.0679931640625 0 C 139.3818359375 0 145.7646636962891 4.959434509277344 147.5718688964844 12.04650115966797 L 170 100 L 0 100 L 22.42813110351562 12.04650115966797 C 24.23533630371094 4.959434509277344 30.61813354492188 0 37.9320068359375 0 Z" stroke="none" fill="#feae2e"/></g></g><g transform="translate(85 100)"><g transform="translate(170)" fill="#fcd93a" stroke-linejoin="round" stroke-miterlimit="10"><path d="M 161.9562530517578 93.75 L 8.043749809265137 93.75 L 28.48433303833008 13.59086132049561 C 29.58650016784668 9.26866626739502 33.47150039672852 6.25 37.93199920654297 6.25 L 132.0679931640625 6.25 C 136.5285034179688 6.25 140.4134979248047 9.26866626739502 141.5156707763672 13.59086132049561 L 161.9562530517578 93.75 Z" stroke="none"/><path d="M 37.9320068359375 12.5 C 36.33079528808594 12.5 34.9361572265625 13.58363342285156 34.54052734375 15.13515472412109 L 16.08750915527344 87.5 L 153.9124603271484 87.5 L 135.4594116210938 15.13510894775391 C 135.0637817382812 13.58358001708984 133.6692199707031 12.5 132.0679931640625 12.5 L 37.9320068359375 12.5 M 37.9320068359375 0 L 132.0679931640625 0 C 139.3818359375 0 145.7646789550781 4.95947265625 147.5718383789062 12.04652404785156 L 170 100 L 0 100 L 22.4281005859375 12.04652404785156 C 24.23532104492188 4.95947265625 30.6181640625 0 37.9320068359375 0 Z" stroke="none" fill="#fde786"/></g><g transform="translate(170)" fill="none" stroke-linejoin="round" stroke-miterlimit="10"><path d="M22.428,12.047A16,16,0,0,1,37.932,0h94.136a16,16,0,0,1,15.5,12.047L170,100H0Z" stroke="none"/><path d="M 37.9320068359375 5 C 32.89962768554688 5 28.51654052734375 8.405670166015625 27.27310180664062 13.28196716308594 L 6.435012817382812 95 L 163.5649871826172 95 L 142.7268981933594 13.28196716308594 C 141.4834594726562 8.405670166015625 137.1003723144531 5 132.0679931640625 5 L 37.9320068359375 5 M 37.9320068359375 0 L 132.0679931640625 0 C 139.3818359375 0 145.7646636962891 4.959434509277344 147.5718688964844 12.04650115966797 L 170 100 L 0 100 L 22.42813110351562 12.04650115966797 C 24.23533630371094 4.959434509277344 30.61813354492188 0 37.9320068359375 0 Z" stroke="none" fill="#feae2e"/></g></g><g transform="translate(0 200)"><g transform="translate(170)" fill="#fcd93a" stroke-linejoin="round" stroke-miterlimit="10"><path d="M 161.9562530517578 93.75 L 8.043749809265137 93.75 L 28.48433303833008 13.59086132049561 C 29.58650016784668 9.26866626739502 33.47150039672852 6.25 37.93199920654297 6.25 L 132.0679931640625 6.25 C 136.5285034179688 6.25 140.4134979248047 9.26866626739502 141.5156707763672 13.59086132049561 L 161.9562530517578 93.75 Z" stroke="none"/><path d="M 37.9320068359375 12.5 C 36.33079528808594 12.5 34.9361572265625 13.58363342285156 34.54052734375 15.13515472412109 L 16.08750915527344 87.5 L 153.9124603271484 87.5 L 135.4594116210938 15.13510894775391 C 135.0637817382812 13.58358001708984 133.6692199707031 12.5 132.0679931640625 12.5 L 37.9320068359375 12.5 M 37.9320068359375 0 L 132.0679931640625 0 C 139.3818359375 0 145.7646789550781 4.95947265625 147.5718383789062 12.04652404785156 L 170 100 L 0 100 L 22.4281005859375 12.04652404785156 C 24.23532104492188 4.95947265625 30.6181640625 0 37.9320068359375 0 Z" stroke="none" fill="#fde786"/></g><g transform="translate(170)" fill="none" stroke-linejoin="round" stroke-miterlimit="10"><path d="M22.428,12.047A16,16,0,0,1,37.932,0h94.136a16,16,0,0,1,15.5,12.047L170,100H0Z" stroke="none"/><path d="M 37.9320068359375 5 C 32.89962768554688 5 28.51654052734375 8.405670166015625 27.27310180664062 13.28196716308594 L 6.435012817382812 95 L 163.5649871826172 95 L 142.7268981933594 13.28196716308594 C 141.4834594726562 8.405670166015625 137.1003723144531 5 132.0679931640625 5 L 37.9320068359375 5 M 37.9320068359375 0 L 132.0679931640625 0 C 139.3818359375 0 145.7646636962891 4.959434509277344 147.5718688964844 12.04650115966797 L 170 100 L 0 100 L 22.42813110351562 12.04650115966797 C 24.23533630371094 4.959434509277344 30.61813354492188 0 37.9320068359375 0 Z" stroke="none" fill="#feae2e"/></g></g><g transform="translate(171 200)"><g transform="translate(170)" fill="#fcd93a" stroke-linejoin="round" stroke-miterlimit="10"><path d="M 161.9562530517578 93.75 L 8.043749809265137 93.75 L 28.48433303833008 13.59086132049561 C 29.58650016784668 9.26866626739502 33.47150039672852 6.25 37.93199920654297 6.25 L 132.0679931640625 6.25 C 136.5285034179688 6.25 140.4134979248047 9.26866626739502 141.5156707763672 13.59086132049561 L 161.9562530517578 93.75 Z" stroke="none"/><path d="M 37.9320068359375 12.5 C 36.33079528808594 12.5 34.9361572265625 13.58363342285156 34.54052734375 15.13515472412109 L 16.08750915527344 87.5 L 153.9124603271484 87.5 L 135.4594116210938 15.13510894775391 C 135.0637817382812 13.58358001708984 133.6692199707031 12.5 132.0679931640625 12.5 L 37.9320068359375 12.5 M 37.9320068359375 0 L 132.0679931640625 0 C 139.3818359375 0 145.7646789550781 4.95947265625 147.5718383789062 12.04652404785156 L 170 100 L 0 100 L 22.4281005859375 12.04652404785156 C 24.23532104492188 4.95947265625 30.6181640625 0 37.9320068359375 0 Z" stroke="none" fill="#fde786"/></g><g transform="translate(170)" fill="none" stroke-linejoin="round" stroke-miterlimit="10"><path d="M22.428,12.047A16,16,0,0,1,37.932,0h94.136a16,16,0,0,1,15.5,12.047L170,100H0Z" stroke="none"/><path d="M 37.9320068359375 5 C 32.89962768554688 5 28.51654052734375 8.405670166015625 27.27310180664062 13.28196716308594 L 6.435012817382812 95 L 163.5649871826172 95 L 142.7268981933594 13.28196716308594 C 141.4834594726562 8.405670166015625 137.1003723144531 5 132.0679931640625 5 L 37.9320068359375 5 M 37.9320068359375 0 L 132.0679931640625 0 C 139.3818359375 0 145.7646636962891 4.959434509277344 147.5718688964844 12.04650115966797 L 170 100 L 0 100 L 22.42813110351562 12.04650115966797 C 24.23533630371094 4.959434509277344 30.61813354492188 0 37.9320068359375 0 Z" stroke="none" fill="#feae2e"/></g></g><g transform="translate(-171 200)"><g transform="translate(170)" fill="#fcd93a" stroke-linejoin="round" stroke-miterlimit="10"><path d="M 161.9562530517578 93.75 L 8.043749809265137 93.75 L 28.48433303833008 13.59086132049561 C 29.58650016784668 9.26866626739502 33.47150039672852 6.25 37.93199920654297 6.25 L 132.0679931640625 6.25 C 136.5285034179688 6.25 140.4134979248047 9.26866626739502 141.5156707763672 13.59086132049561 L 161.9562530517578 93.75 Z" stroke="none"/><path d="M 37.9320068359375 12.5 C 36.33079528808594 12.5 34.9361572265625 13.58363342285156 34.54052734375 15.13515472412109 L 16.08750915527344 87.5 L 153.9124603271484 87.5 L 135.4594116210938 15.13510894775391 C 135.0637817382812 13.58358001708984 133.6692199707031 12.5 132.0679931640625 12.5 L 37.9320068359375 12.5 M 37.9320068359375 0 L 132.0679931640625 0 C 139.3818359375 0 145.7646789550781 4.95947265625 147.5718383789062 12.04652404785156 L 170 100 L 0 100 L 22.4281005859375 12.04652404785156 C 24.23532104492188 4.95947265625 30.6181640625 0 37.9320068359375 0 Z" stroke="none" fill="#fde786"/></g><g transform="translate(170)" fill="none" stroke-linejoin="round" stroke-miterlimit="10"><path d="M22.428,12.047A16,16,0,0,1,37.932,0h94.136a16,16,0,0,1,15.5,12.047L170,100H0Z" stroke="none"/><path d="M 37.9320068359375 5 C 32.89962768554688 5 28.51654052734375 8.405670166015625 27.27310180664062 13.28196716308594 L 6.435012817382812 95 L 163.5649871826172 95 L 142.7268981933594 13.28196716308594 C 141.4834594726562 8.405670166015625 137.1003723144531 5 132.0679931640625 5 L 37.9320068359375 5 M 37.9320068359375 0 L 132.0679931640625 0 C 139.3818359375 0 145.7646636962891 4.959434509277344 147.5718688964844 12.04650115966797 L 170 100 L 0 100 L 22.42813110351562 12.04650115966797 C 24.23533630371094 4.959434509277344 30.61813354492188 0 37.9320068359375 0 Z" stroke="none" fill="#feae2e"/></g></g></g></g></svg>