<svg xmlns="http://www.w3.org/2000/svg" width="512" height="300"><defs><clipPath id="a"><path d="M0 0h512v300H0z"/></clipPath></defs><g clip-path="url(#a)"><circle cx="150" cy="150" r="150" fill="#fcd93a" transform="translate(106 .5)"/><path fill="#424242" d="M255.667 38.5s-7.805 11.3-18.367 27.986C215.191 101.411 181 150.5 181 187.833a74.667 74.667 0 1 0 149.333 0c0-37.333-34.01-86.395-56.122-121.347C263.573 49.67 255.667 38.5 255.667 38.5Z"/><path fill="#fff" d="M256.185 239.685a51.333 51.333 0 0 1-51.333-51.333 4.667 4.667 0 0 1 9.333 0 42 42 0 0 0 42 42 4.667 4.667 0 1 1 0 9.333Z"/></g></svg>