<svg xmlns="http://www.w3.org/2000/svg" xmlns:xlink="http://www.w3.org/1999/xlink" width="512" height="300" viewBox="0 0 512 300"><defs><clipPath id="b"><rect width="512" height="300"/></clipPath></defs><g id="a" clip-path="url(#b)"><circle cx="150" cy="150" r="150" transform="translate(106 0.5)" fill="#fcd93a"/><g transform="translate(181 38.5)"><path d="M74.667,0S66.862,11.3,56.3,27.986C34.191,62.911,0,112,0,149.333a74.667,74.667,0,1,0,149.333,0c0-37.333-34.01-86.395-56.122-121.347C82.573,11.17,74.667,0,74.667,0Z" fill="#424242"/><path d="M51.333,56A51.333,51.333,0,0,1,0,4.667a4.667,4.667,0,0,1,9.333,0,42,42,0,0,0,42,42,4.667,4.667,0,1,1,0,9.333Z" transform="translate(23.852 145.185)" fill="#fff"/></g></g></svg>