<svg xmlns="http://www.w3.org/2000/svg" width="512" height="300"><defs><clipPath id="a"><path d="M0 0h512v300H0z"/></clipPath></defs><g stroke-linejoin="round" stroke-miterlimit="10" clip-path="url(#a)"><g fill="#949494"><path d="M332.956 94.25H179.044l20.44-80.16a9.744 9.744 0 0 1 9.448-7.34h94.136a9.744 9.744 0 0 1 9.448 7.34l20.44 80.16Z"/><path fill="#c7c7cd" d="M208.932 13a3.498 3.498 0 0 0-3.391 2.635L187.088 88h137.824L306.46 15.635A3.498 3.498 0 0 0 303.068 13h-94.136m0-12.5h94.136a16 16 0 0 1 15.504 12.047L341 100.5H171l22.428-87.953A16 16 0 0 1 208.932.5Z"/></g><g fill="none"><path d="M193.428 12.547A16 16 0 0 1 208.932.5h94.136a16 16 0 0 1 15.5 12.047L341 100.5H171Z"/><path fill="#676767" d="M208.932 5.5a10.993 10.993 0 0 0-10.659 8.282L177.435 95.5h157.13l-20.838-81.718A10.993 10.993 0 0 0 303.068 5.5h-94.136m0-5h94.136a16 16 0 0 1 15.504 12.047L341 100.5H171l22.428-87.953A16 16 0 0 1 208.932.5Z"/></g><g fill="#949494"><path d="M332.956 294.25H179.044l20.44-80.16a9.744 9.744 0 0 1 9.448-7.34h94.136a9.744 9.744 0 0 1 9.448 7.34l20.44 80.16Z"/><path fill="#c7c7cd" d="M208.932 213a3.498 3.498 0 0 0-3.391 2.635L187.088 288h137.824l-18.453-72.365a3.498 3.498 0 0 0-3.391-2.635h-94.136m0-12.5h94.136a16 16 0 0 1 15.504 12.047L341 300.5H171l22.428-87.953a16 16 0 0 1 15.504-12.047Z"/></g><g fill="none"><path d="M193.428 212.547a16 16 0 0 1 15.504-12.047h94.136a16 16 0 0 1 15.5 12.047L341 300.5H171Z"/><path fill="#676767" d="M208.932 205.5a10.993 10.993 0 0 0-10.659 8.282L177.435 295.5h157.13l-20.838-81.718a10.993 10.993 0 0 0-10.659-8.282h-94.136m0-5h94.136a16 16 0 0 1 15.504 12.047L341 300.5H171l22.428-87.953a16 16 0 0 1 15.504-12.047Z"/></g><g fill="#949494"><path d="M161.956 294.25H8.044l20.44-80.16a9.744 9.744 0 0 1 9.448-7.34h94.136a9.744 9.744 0 0 1 9.448 7.34l20.44 80.16Z"/><path fill="#c7c7cd" d="M37.932 213a3.498 3.498 0 0 0-3.391 2.635L16.088 288h137.824l-18.453-72.365a3.498 3.498 0 0 0-3.391-2.635H37.932m0-12.5h94.136a16 16 0 0 1 15.504 12.047L170 300.5H0l22.428-87.953A16 16 0 0 1 37.932 200.5Z"/></g><g fill="none"><path d="M22.428 212.547A16 16 0 0 1 37.932 200.5h94.136a16 16 0 0 1 15.5 12.047L170 300.5H0Z"/><path fill="#676767" d="M37.932 205.5a10.993 10.993 0 0 0-10.659 8.282L6.435 295.5h157.13l-20.838-81.718a10.993 10.993 0 0 0-10.659-8.282H37.932m0-5h94.136a16 16 0 0 1 15.504 12.047L170 300.5H0l22.428-87.953A16 16 0 0 1 37.932 200.5Z"/></g><g fill="#949494"><path d="M503.956 294.25H350.044l20.44-80.16a9.744 9.744 0 0 1 9.448-7.34h94.136a9.744 9.744 0 0 1 9.448 7.34l20.44 80.16Z"/><path fill="#c7c7cd" d="M379.932 213a3.498 3.498 0 0 0-3.391 2.635L358.088 288h137.824l-18.453-72.365a3.498 3.498 0 0 0-3.391-2.635h-94.136m0-12.5h94.136a16 16 0 0 1 15.504 12.047L512 300.5H342l22.428-87.953a16 16 0 0 1 15.504-12.047Z"/></g><g fill="none"><path d="M364.428 212.547a16 16 0 0 1 15.504-12.047h94.136a16 16 0 0 1 15.5 12.047L512 300.5H342Z"/><path fill="#676767" d="M379.932 205.5a10.993 10.993 0 0 0-10.659 8.282L348.435 295.5h157.13l-20.838-81.718a10.993 10.993 0 0 0-10.659-8.282h-94.136m0-5h94.136a16 16 0 0 1 15.504 12.047L512 300.5H342l22.428-87.953a16 16 0 0 1 15.504-12.047Z"/></g><g fill="#949494"><path d="M417.956 194.25H264.044l20.44-80.16a9.744 9.744 0 0 1 9.448-7.34h94.136a9.744 9.744 0 0 1 9.448 7.34l20.44 80.16Z"/><path fill="#c7c7cd" d="M293.932 113a3.498 3.498 0 0 0-3.391 2.635L272.088 188h137.824l-18.453-72.365a3.498 3.498 0 0 0-3.391-2.635h-94.136m0-12.5h94.136a16 16 0 0 1 15.504 12.047L426 200.5H256l22.428-87.953a16 16 0 0 1 15.504-12.047Z"/></g><g fill="none"><path d="M278.428 112.547a16 16 0 0 1 15.504-12.047h94.136a16 16 0 0 1 15.5 12.047L426 200.5H256Z"/><path fill="#676767" d="M293.932 105.5a10.993 10.993 0 0 0-10.659 8.282L262.435 195.5h157.13l-20.838-81.718a10.993 10.993 0 0 0-10.659-8.282h-94.136m0-5h94.136a16 16 0 0 1 15.504 12.047L426 200.5H256l22.428-87.953a16 16 0 0 1 15.504-12.047Z"/></g><g fill="#949494"><path d="M247.956 194.25H94.044l20.44-80.16a9.744 9.744 0 0 1 9.448-7.34h94.136a9.744 9.744 0 0 1 9.448 7.34l20.44 80.16Z"/><path fill="#c7c7cd" d="M123.932 113a3.498 3.498 0 0 0-3.391 2.635L102.088 188h137.824l-18.453-72.365a3.498 3.498 0 0 0-3.391-2.635h-94.136m0-12.5h94.136a16 16 0 0 1 15.504 12.047L256 200.5H86l22.428-87.953a16 16 0 0 1 15.504-12.047Z"/></g><g fill="none"><path d="M108.428 112.547a16 16 0 0 1 15.504-12.047h94.136a16 16 0 0 1 15.5 12.047L256 200.5H86Z"/><path fill="#676767" d="M123.932 105.5a10.993 10.993 0 0 0-10.659 8.282L92.435 195.5h157.13l-20.838-81.718a10.993 10.993 0 0 0-10.659-8.282h-94.136m0-5h94.136a16 16 0 0 1 15.504 12.047L256 200.5H86l22.428-87.953a16 16 0 0 1 15.504-12.047Z"/></g></g></svg>